<svg xmlns="http://www.w3.org/2000/svg" xmlns:xlink="http://www.w3.org/1999/xlink" viewBox="0 0 200 200"><defs><style>.cls-1{fill:none;}.cls-2{clip-path:url(#clip-path);}.cls-3{fill:#fefefe;}.cls-4{fill:#36a3e3;}.cls-5{fill:#c3154e;}.cls-6{fill:#42bbf5;}.cls-7{fill:#881359;}.cls-8{fill:#d14648;}</style><clipPath id="clip-path" transform="translate(8 8)"><circle class="cls-1" cx="92" cy="92" r="92"/></clipPath></defs><title>Asset 4</title><g id="Layer_2" data-name="Layer 2"><g id="Layer_1-2" data-name="Layer 1"><g class="cls-2"><path class="cls-3" d="M191.93,92c0,32.11,0,64.23.07,96.34,0,2.8-.33,3.67-3.5,3.66q-96.37-.19-192.75,0C-7.51,192-8,191.08-8,188.1Q-7.86,92-8-4.09C-8-7-7.54-8-4.25-8q96.38.2,192.74,0c3.15,0,3.52.84,3.51,3.65C191.89,27.76,191.93,59.88,191.93,92Zm-65-18.82-1.79-1-.37-1.14c.07-17.62.22-35.24.16-52.87,0-6.09-4.48-9.16-10.12-6.9q-25,10-49.8,20.4c-6.14,2.58-9,7.56-8.49,14.32a1.12,1.12,0,0,0-.42.74c-6.79,1.86-10.82,6.3-10.87,13-.13,16.75,0,33.51.09,50.26,0,5.65-.31,11.31-.11,17,.23,6.84,3.3,12.37,9.66,15.12Q86.49,155.81,118.37,169c9.17,3.82,18.49-3.63,18.56-12.57.11-13.81-.08-27.62-.14-41.43.05-9.24.42-18.5,0-27.73A15.08,15.08,0,0,0,126.9,73.18Z" transform="translate(8 8)"/><path class="cls-4" d="M56.07,46.76a1.08,1.08,0,0,1,.42-.73,17.81,17.81,0,0,1,8.25,1.41c12.89,5.26,25.7,10.7,38.69,15.7,7.07,2.72,13.63,6.86,21.31,7.93.13.38.25.76.37,1.14,0,5.48-.11,11-.14,16.44,0,8.72-2.71,12.74-10.68,16-15.32,6.36-30.66,12.68-46,19.09a16.42,16.42,0,0,1-7.26,1.31,8.48,8.48,0,0,1-4.86-8.32c0-2.27-.12-4.54-.19-6.81Z" transform="translate(8 8)"/><path class="cls-5" d="M56,110c.07,2.27.24,4.54.19,6.81a8.48,8.48,0,0,0,4.86,8.32,9.72,9.72,0,0,0,2.23.87c15.36,2,30.71,4.15,46.1,5.9,12,1.37,20.12-5.87,20.63-17.9,2.22.61,4.42,1.31,6.76,1,.06,13.81.25,27.62.14,41.43-.07,8.94-9.39,16.39-18.56,12.57Q86.54,155.74,54.84,142.1c-6.36-2.75-9.43-8.28-9.66-15.12-.2-5.65.06-11.31.11-17Z" transform="translate(8 8)"/><path class="cls-6" d="M124.74,71.07c-7.68-1.07-14.24-5.21-21.31-7.93-13-5-25.8-10.44-38.69-15.7A17.81,17.81,0,0,0,56.49,46C56,39.26,58.84,34.28,65,31.7q24.8-10.44,49.8-20.4c5.64-2.26,10.1.81,10.12,6.9C125,35.83,124.81,53.45,124.74,71.07Z" transform="translate(8 8)"/><path class="cls-7" d="M130,114c-.51,12-8.6,19.27-20.63,17.9C94,130.12,78.66,128,63.3,126a9.72,9.72,0,0,1-2.23-.87,16.42,16.42,0,0,0,7.26-1.31c15.3-6.41,30.64-12.73,46-19.09,8-3.31,10.63-7.33,10.68-16,0-5.48.09-11,.14-16.44l1.79,1Q128.48,93.58,130,114Z" transform="translate(8 8)"/><path class="cls-8" d="M56,110l-10.73,0c0-16.75-.22-33.51-.09-50.26,0-6.7,4.08-11.14,10.87-13Q56,78.36,56,110Z" transform="translate(8 8)"/><path class="cls-8" d="M130,114q-1.56-20.4-3.13-40.79a15.08,15.08,0,0,1,9.93,14.1c.38,9.23,0,18.49,0,27.73C134.45,115.28,132.25,114.58,130,114Z" transform="translate(8 8)"/></g></g></g></svg>