<svg xmlns="http://www.w3.org/2000/svg" xmlns:xlink="http://www.w3.org/1999/xlink" viewBox="0 0 200 200"><defs><style>.cls-1{fill:none;}.cls-2{clip-path:url(#clip-path);}.cls-3{fill:#30aa28;}.cls-4{fill:#39bc31;}.cls-5{fill:#fafdfa;}</style><clipPath id="clip-path" transform="translate(15 15)"><circle class="cls-1" cx="85" cy="85" r="85"/></clipPath></defs><title>Asset 8</title><g id="Layer_2" data-name="Layer 2"><g id="Layer_1-2" data-name="Layer 1"><g class="cls-2"><path class="cls-3" d="M-14.93,146v-4c1.2-1,1.09-2,0-3V85c13.33-.48,26.72,1.07,40-1,2.27,3.85,5.26,6.57,10.09,6.22a8.48,8.48,0,0,0,8-6.21c3.64.75,7.28,1.46,10.91,0,3.17,3.49,7.17,4.13,11.69,4,8.22-.25,16.46-.07,24.68-.07l.92,1.52C88.22,92.3,84.85,95,81.93,98s-2.74,7.69.39,10.17c3.34,2.65,6.55,2.48,9.69-.72,6.63-6.78,13.32-13.49,20.15-20.06,3.44-3.32,4.64-6.78,2.17-11.11L127.06,76c-3.57,9.35,3.83,15.19,10,14.19,5.57-.92,8.27-5.24,7.68-12.78,1.72-1.75,3.94-1.42,6.06-1.43q17.08,0,34.15,0v63c-1.08,1-1.19,2,0,3v4c-2.07.75-1.5,2.75-1.85,4.21-4.26,17.93-15.31,28.92-33.3,33-1.63.37-3.73-.21-4.82,1.76H24c-.75-2.07-2.75-1.5-4.22-1.85q-26.64-6.3-32.89-32.9C-13.42,148.71-12.84,146.71-14.93,146Z" transform="translate(15 15)"/><path class="cls-4" d="M54.1,84c-3.63,1.47-7.27.76-10.91,0,1.41-4.2.52-7.85-2.93-10.62a8.82,8.82,0,0,0-9.8-1.08,8.93,8.93,0,0,0-5.38,8.74c0,1,0,2,0,3-13.29,2.07-26.68.52-40,1V24c2.07-.75,1.51-2.75,1.86-4.22C-8.86,2.07,2.07-8.87,19.83-13.06c1.47-.35,3.47.21,4.21-1.87H145c.7,1.88,2.53,1.31,3.83,1.59q28.61,6,34.57,34.55c.27,1.3-.3,3.13,1.57,3.83V76q-17.07,0-34.15,0c-2.12,0-4.34-.32-6.06,1.43-5.41-7.66-10.95-8.1-17.66-1.41l-12.73.28C107.17,69.17,100,62,92.83,54.89c-3.76-3.72-7.92-4.09-10.9-1.09s-2.56,7.09,1,11c2.58,2.82,5.84,5.08,8.07,9.07H65.53C56.1,73.84,54.81,75,54.1,84Z" transform="translate(15 15)"/><path class="cls-5" d="M184.93,25c-1.87-.7-1.3-2.53-1.57-3.83q-6-28.6-34.57-34.55c-1.3-.28-3.13.29-3.83-1.59,12.49,0,25,.07,37.48-.06,2.14,0,2.58.41,2.56,2.56C184.87.06,184.93,12.55,184.93,25Z" transform="translate(15 15)"/><path class="cls-5" d="M145,184.93c1.09-2,3.19-1.39,4.82-1.76,18-4.08,29-15.07,33.3-33,.35-1.46-.22-3.46,1.85-4.21,0,12.16-.06,24.32.07,36.48,0,2.14-.42,2.58-2.56,2.56C170,184.87,157.45,184.93,145,184.93Z" transform="translate(15 15)"/><path class="cls-5" d="M24-14.93c-.74,2.08-2.74,1.52-4.21,1.87C2.07-8.87-8.86,2.07-13.07,19.82c-.35,1.47.21,3.47-1.86,4.22,0-12.08.08-24.16-.07-36.24,0-2.34.46-2.83,2.8-2.8C-.12-14.85,12-14.93,24-14.93Z" transform="translate(15 15)"/><path class="cls-5" d="M-14.93,146c2.09.75,1.51,2.75,1.86,4.22q6.28,26.64,32.89,32.9c1.47.35,3.47-.22,4.22,1.85-12.15,0-24.31-.06-36.47.07-2.15,0-2.59-.42-2.56-2.56C-14.86,170.28-14.93,158.12-14.93,146Z" transform="translate(15 15)"/><path class="cls-4" d="M-14.93,139c1.09,1,1.2,2,0,3Z" transform="translate(15 15)"/><path class="cls-4" d="M184.93,142c-1.19-1-1.08-2,0-3Z" transform="translate(15 15)"/><path class="cls-5" d="M54.1,84c.71-9,2-10.16,11.43-10.16H91c-2.23-4-5.49-6.25-8.07-9.07-3.56-3.88-4-8-1-11s7.14-2.63,10.9,1.09c7.2,7.11,14.34,14.28,21.5,21.43,2.47,4.33,1.27,7.79-2.17,11.11C105.33,94,98.64,100.71,92,107.49c-3.14,3.2-6.35,3.37-9.69.72-3.13-2.48-3.4-7-.39-10.17s6.29-5.74,9.46-8.59l-.92-1.52c-8.22,0-16.46-.18-24.68.07C61.27,88.13,57.27,87.49,54.1,84Z" transform="translate(15 15)"/><path class="cls-5" d="M25.08,84c0-1,0-2,0-3a8.93,8.93,0,0,1,5.38-8.74,8.82,8.82,0,0,1,9.8,1.08c3.45,2.77,4.34,6.42,2.93,10.62a8.48,8.48,0,0,1-8,6.21C30.34,90.57,27.35,87.85,25.08,84Z" transform="translate(15 15)"/><path class="cls-5" d="M127.06,76c6.71-6.69,12.25-6.25,17.66,1.41.59,7.54-2.11,11.86-7.68,12.78C130.89,91.23,123.49,85.39,127.06,76Z" transform="translate(15 15)"/></g></g></g></svg>