<svg xmlns="http://www.w3.org/2000/svg" xmlns:xlink="http://www.w3.org/1999/xlink" viewBox="0 0 200 200"><defs><style>.cls-1{fill:none;}.cls-2{clip-path:url(#clip-path);}.cls-3{fill:#2637b7;}.cls-4{fill:#f8f9fb;}.cls-5{fill:#f5f7fc;}</style><clipPath id="clip-path" transform="translate(5 2)"><circle class="cls-1" cx="95" cy="95" r="95"/></clipPath></defs><title>Asset 5</title><g id="Layer_2" data-name="Layer 2"><g id="Layer_1-2" data-name="Layer 1"><g class="cls-2"><path class="cls-3" d="M94.94,197.93Q47,197.93-1,198c-2.71,0-4,0-4-3.61Q-4.77,98-5,1.53C-5-1.63-4.14-2-1.33-2q96.39.14,192.8,0c3.16,0,3.51.85,3.5,3.66q-.14,96.42,0,192.84c0,3.15-.85,3.51-3.66,3.5C159.21,197.89,127.08,197.93,94.94,197.93Zm23.7-161.41c-6.34-3.66-11.87-7-17.56-10.08a12.25,12.25,0,0,0-12.38.12Q62.34,41.64,36.05,56.83a21.91,21.91,0,0,0-2.45,1.71c-2.81,2.2-1.38,4.22.8,5.27,19.29,9.3,36.92,21.54,55.92,31.34,3.49,1.81,4.83,4,4.79,8.08-.25,21-.11,41.93-.1,62.9,0,5.45,1,6.21,5.87,3.47q26.84-15.27,53.51-30.8c3.33-1.94,5.54-4.89,5.65-8.88.17-6.15.12-12.31.17-18.46,0-1.81-.16-2.66-2.55-1.88-6.45,2.1-9.49,5.54-9.26,12.2.16,4.86-1.5,8-5.93,10.37-10.26,5.53-20.25,11.58-30.38,17.36-4.38,2.49-5.12,2.07-5.13-2.93,0-16.81-.12-33.62.06-50.42,0-3.55-.84-5.59-4.14-7.42C88,80.45,73.27,71.82,58.52,63.25c-4-2.32-4-3.33-.05-5.64,9.18-5.37,18.68-10.23,27.57-16,6.2-4,11.65-5.21,17.52-.06,2.25,2,4.39,1.6,6.74,0S115.4,38.43,118.64,36.52Zm-29.58,133c0-3-.27-5.15,0-7.21.75-4.79-1.18-7.37-5.47-9.68-12.28-6.6-24.16-14-36.39-20.66-4.27-2.34-5.73-5.3-5.64-10,.23-12.81-.42-25.66.27-38.44.39-7.36-1.85-11.67-8.61-14.47-3.28-1.36-3.51-.7-3.5,2.26q.12,28.47,0,56.93a11.9,11.9,0,0,0,5.48,10.59c4.95,3.11,10,6.18,15.16,8.9,8.42,4.45,16.51,9.46,24.88,14C79.71,164.11,84,166.66,89.06,169.53ZM113.73,47c6.17,4.78,14,7.15,19.92,12.52.32.29.92.26,1.36.45,10.53,4.51,13.91,8.49,13.4,19.68-.43,9.21-.09,18.45-.09,28.46,3.3-1.84,5.64-3.39,8.18-4.5,3.05-1.33,3.86-3.4,3.79-6.63-.22-9.64-.14-19.29-.06-28.93a12.12,12.12,0,0,0-6.57-11.44c-6.49-3.7-13.39-6.88-19.31-11.34C126.81,39.61,120.4,40,113.73,47Z" transform="translate(5 2)"/><path class="cls-4" d="M118.64,36.52c-3.24,1.91-5.89,3.29-8.34,5s-4.49,2-6.74,0c-5.87-5.15-11.32-4-17.52.06-8.89,5.81-18.39,10.67-27.57,16-3.95,2.31-3.94,3.32.05,5.64C73.27,71.82,88,80.45,102.88,88.74c3.3,1.83,4.18,3.87,4.14,7.42-.18,16.8-.1,33.61-.06,50.42,0,5,.75,5.42,5.13,2.93,10.13-5.78,20.12-11.83,30.38-17.36,4.43-2.39,6.09-5.51,5.93-10.37-.23-6.66,2.81-10.1,9.26-12.2,2.39-.78,2.56.07,2.55,1.88-.05,6.15,0,12.31-.17,18.46-.11,4-2.32,6.94-5.65,8.88q-26.7,15.48-53.51,30.8c-4.82,2.74-5.87,2-5.87-3.47,0-21-.15-41.94.1-62.9,0-4.1-1.3-6.27-4.79-8.08-19-9.8-36.63-22-55.92-31.34-2.18-1.05-3.61-3.07-.8-5.27a21.91,21.91,0,0,1,2.45-1.71Q62.36,41.67,88.7,26.56a12.25,12.25,0,0,1,12.38-.12C106.77,29.5,112.3,32.86,118.64,36.52Z" transform="translate(5 2)"/><path class="cls-5" d="M89.06,169.53c-5-2.87-9.35-5.42-13.75-7.8-8.37-4.52-16.46-9.53-24.88-14-5.15-2.72-10.21-5.79-15.16-8.9a11.9,11.9,0,0,1-5.48-10.59q.13-28.47,0-56.93c0-3,.22-3.62,3.5-2.26,6.76,2.8,9,7.11,8.61,14.47-.69,12.78,0,25.63-.27,38.44-.09,4.7,1.37,7.66,5.64,10,12.23,6.7,24.11,14.06,36.39,20.66,4.29,2.31,6.22,4.89,5.47,9.68C88.79,164.38,89.06,166.53,89.06,169.53Z" transform="translate(5 2)"/><path class="cls-5" d="M113.73,47c6.67-7,13.08-7.41,20.62-1.73,5.92,4.46,12.82,7.64,19.31,11.34a12.12,12.12,0,0,1,6.57,11.44c-.08,9.64-.16,19.29.06,28.93.07,3.23-.74,5.3-3.79,6.63-2.54,1.11-4.88,2.66-8.18,4.5,0-10-.34-19.25.09-28.46C148.92,68.48,145.54,64.5,135,60c-.44-.19-1-.16-1.36-.45C127.74,54.17,119.9,51.8,113.73,47Z" transform="translate(5 2)"/></g></g></g></svg>