<svg xmlns="http://www.w3.org/2000/svg" xmlns:xlink="http://www.w3.org/1999/xlink" viewBox="0 0 200 200"><defs><style>.cls-1{fill:none;}.cls-2{clip-path:url(#clip-path);}.cls-3{fill:#fdfdfd;}.cls-4{fill:#282d3c;}.cls-5{fill:#373e4c;}</style><clipPath id="clip-path" transform="translate(8 8)"><circle class="cls-1" cx="92" cy="92" r="92"/></clipPath></defs><title>Asset 3</title><g id="Layer_2" data-name="Layer 2"><g id="Layer_1-2" data-name="Layer 1"><g class="cls-2"><path class="cls-3" d="M-7.92,91.5c0-32,.06-63.95-.08-95.92C-8-7.4-7.4-8-4.42-8Q92-7.83,188.42-8c3,0,3.58.6,3.58,3.58q-.17,96.42,0,192.84c0,3-.6,3.59-3.58,3.58Q92,191.83-4.42,192c-3,0-3.59-.6-3.58-3.58C-7.86,156.11-7.92,123.81-7.92,91.5ZM97,23.1a58.57,58.57,0,0,0-18.25.83C37.9,31.79,12.87,74.25,26.09,113.69c15.78,47.05,71.14,60.64,106.07,34.66a8.67,8.67,0,0,0,4.1-3.26,13.23,13.23,0,0,0,4.38-3.87c7.18-6.47,7.06-7.78-1.1-12.19-.44-.24-.92-.39-1.38-.59l-3-1.55c-1.63-1.06-3.29-2.06-4.87-3.17-2.9-2-5.42-2-7.46,1.19-3.69,2.48-6.78,5.58-11,7.54-31.92,14.79-67.24-9.24-64.68-44.33C48.31,71.89,57.2,59.78,70.54,52A41,41,0,0,1,99.32,47.6c2.16.44,4.35,1.8,6.71.66,5.4-4.86,7.85-11.58,11-17.81,1.1-2.16-1.07-3.64-3.09-4.25C108.43,24.52,102.91,22.71,97,23.1Zm51.44,76.16v0c-3,0-6-.17-8.93.06-2.23.16-4.16,1.17-4.72,3.69-.52,2.34.06,4.37,2.14,5.61,5.11,3,10.23,6.08,15.5,8.83,2.3,1.21,4.41.48,5.76-2.06,6.27-11.82,3.81-16.14-9.26-16.16ZM121.78,55.58c-.55,4.48,2.54,7.29,6.15,6.32a15.67,15.67,0,0,0,3.54-1.78c4-2.31,8.09-4.58,12.05-7,3.18-2,3.53-4.5,1.2-7.52-5.65-7.31-10.39-10-12.92-6.83C127.57,44.05,124.54,50.2,121.78,55.58ZM147.28,84c15.44.51,15.67,0,11.24-14.68-1.12-3.71-3.75-4.72-6.9-3.12-5,2.54-9.79,5.49-14.6,8.39a4.78,4.78,0,0,0-2.3,5.94A4.68,4.68,0,0,0,139.57,84C142.38,84.07,145.2,84,147.28,84Z" transform="translate(8 8)"/><path class="cls-4" d="M132.16,148.35c-34.93,26-90.29,12.39-106.07-34.66C12.87,74.25,37.9,31.79,78.74,23.93A58.57,58.57,0,0,1,97,23.1c-.63,5.31,1.66,10.44.91,15.76-.64,4.53.69,5.77,5,4.14,2.75-1,3.23-.07,3.13,2.28,0,1,0,2,0,3-2.36,1.14-4.55-.22-6.71-.66A41,41,0,0,0,70.54,52C57.2,59.78,48.31,71.89,47.13,88.12c-2.56,35.09,32.76,59.12,64.68,44.33,4.24-2,7.33-5.06,11-7.54,4.17.3,8,3,12.33,2l3,1.56c-.38,2.1-.81,4.19-1.14,6.3-.48,3.07.08,5.62,3.62,6.47a13.23,13.23,0,0,1-4.38,3.87C134.66,145.88,129.78,142.55,132.16,148.35Z" transform="translate(8 8)"/><path class="cls-5" d="M148.43,99.26h.49c13.07,0,15.53,4.34,9.26,16.16-1.35,2.54-3.46,3.27-5.76,2.06-5.27-2.75-10.39-5.79-15.5-8.83-2.08-1.24-2.66-3.27-2.14-5.61.56-2.52,2.49-3.53,4.72-3.69,3-.23,5.95-.06,8.93-.06Z" transform="translate(8 8)"/><path class="cls-5" d="M121.78,55.58c2.76-5.38,5.79-11.53,10-16.83,2.53-3.18,7.27-.48,12.92,6.83,2.33,3,2,5.55-1.2,7.52-4,2.44-8,4.71-12.05,7a15.67,15.67,0,0,1-3.54,1.78C124.32,62.87,121.23,60.06,121.78,55.58Z" transform="translate(8 8)"/><path class="cls-5" d="M147.28,84c-2.08,0-4.9,0-7.71,0a4.68,4.68,0,0,1-4.85-3.46,4.78,4.78,0,0,1,2.3-5.94c4.81-2.9,9.6-5.85,14.6-8.39,3.15-1.6,5.78-.59,6.9,3.12C163,84,162.72,84.55,147.28,84Z" transform="translate(8 8)"/><path class="cls-5" d="M106,48.26c0-1-.07-2,0-3,.1-2.35-.38-3.32-3.13-2.28-4.28,1.63-5.61.39-5-4.14.75-5.32-1.54-10.45-.91-15.76,5.92-.39,11.44,1.42,17,3.1,2,.61,4.19,2.09,3.09,4.25C113.88,36.68,111.43,43.4,106,48.26Z" transform="translate(8 8)"/><path class="cls-5" d="M140.64,141.22c-3.54-.85-4.1-3.4-3.62-6.47.33-2.11.76-4.2,1.14-6.3a13.88,13.88,0,0,1,1.38.58C147.7,133.44,147.82,134.75,140.64,141.22Z" transform="translate(8 8)"/><path class="cls-5" d="M135.16,126.89c-4.38,1-8.16-1.68-12.33-2,2-3.22,4.56-3.23,7.46-1.19C131.87,124.83,133.53,125.83,135.16,126.89Z" transform="translate(8 8)"/><path class="cls-5" d="M132.16,148.35c-2.38-5.8,2.5-2.47,4.1-3.26A8.67,8.67,0,0,1,132.16,148.35Z" transform="translate(8 8)"/></g></g></g></svg>