<svg xmlns="http://www.w3.org/2000/svg" xmlns:xlink="http://www.w3.org/1999/xlink" viewBox="0 0 200 200"><defs><style>.cls-1{fill:none;}.cls-2{clip-path:url(#clip-path);}.cls-3{clip-path:url(#clip-path-2);}.cls-4{fill:#fdfefe;}.cls-5{fill:#2d74fe;}</style><clipPath id="clip-path" transform="translate(-5 -5)"><circle class="cls-1" cx="105" cy="105" r="100"/></clipPath><clipPath id="clip-path-2" transform="translate(-5 -5)"><circle class="cls-1" cx="105" cy="105" r="105"/></clipPath></defs><title>Asset 7</title><g id="Layer_2" data-name="Layer 2"><g id="Layer_1-2" data-name="Layer 1"><g class="cls-2"><g class="cls-3"><path class="cls-4" d="M204.92,105.5c0,32-.06,63.95.08,95.92,0,3-.6,3.58-3.58,3.58Q105,204.83,8.58,205c-3,0-3.58-.6-3.58-3.58Q5.17,105,5,8.58C5,5.6,5.6,5,8.58,5Q105,5.17,201.42,5c3,0,3.59.6,3.58,3.58C204.86,40.89,204.92,73.19,204.92,105.5Zm-99.81-.34V22.76c0-9.65,0-9.65-9.79-8.8C44.17,18.37,5.69,68.89,14.45,119.51c7.49,43.29,43,74.2,84.52,76.92,6.15.4,6.14.61,6.14-5.37Z" transform="translate(-5 -5)"/><path class="cls-5" d="M105.11,105.16v85.9c0,6,0,5.77-6.14,5.37-41.51-2.72-77-33.63-84.52-76.92C5.69,68.89,44.17,18.37,95.32,14c9.79-.85,9.79-.85,9.79,8.8Z" transform="translate(-5 -5)"/></g></g></g></g></svg>