<svg xmlns="http://www.w3.org/2000/svg" xmlns:xlink="http://www.w3.org/1999/xlink" viewBox="0 0 200 200"><defs><style>.cls-1{fill:none;}.cls-2{clip-path:url(#clip-path);}.cls-3{fill:#fefefe;}.cls-4{fill:#2ddd80;}.cls-5{fill:#013054;}</style><clipPath id="clip-path" transform="translate(17 17)"><circle class="cls-1" cx="83" cy="83" r="83"/></clipPath></defs><title>Asset 13</title><g id="Layer_2" data-name="Layer 2"><g id="Layer_1-2" data-name="Layer 1"><g class="cls-2"><path class="cls-3" d="M182.93,83c0,32.12,0,64.24.07,96.36,0,2.78-.33,3.65-3.48,3.64q-96.39-.19-192.78,0c-3.26,0-3.74-.91-3.74-3.87Q-16.87,83-17-13.11c0-2.95.46-3.89,3.73-3.89q96.39.2,192.78,0c3.13,0,3.5.83,3.49,3.63C182.89,18.75,182.93,50.87,182.93,83ZM83.23,48.44c-8.61-8.72-17.31-17.36-25.77-26.22-2.3-2.4-4-2.37-6.74-.82a66.68,66.68,0,0,0-30.23,78.77c10,29.71,39.34,48.73,69.81,45.24,32.16-3.68,56.49-28.3,59.59-60.31,2.48-25.54-11.51-51.87-33.95-63.93-1.76-.94-3.23-2-5.21,0-8.85,9.17-17.85,18.19-26.8,27.27A1.51,1.51,0,0,0,83.23,48.44Z" transform="translate(17 17)"/><path class="cls-4" d="M83.93,48.48c8.95-9.08,17.95-18.1,26.8-27.27,2-2.05,3.45-1,5.21,0,22.44,12.06,36.43,38.39,33.95,63.93-3.1,32-27.43,56.63-59.59,60.31-30.47,3.49-59.82-15.53-69.81-45.24A66.68,66.68,0,0,1,50.72,21.4c2.75-1.55,4.44-1.58,6.74.82,8.46,8.86,17.16,17.5,25.76,26.21-5.57,5.68-11.12,11.38-16.71,17a25.29,25.29,0,0,0-7.79,16.21,24.93,24.93,0,1,0,43-15.09C95.87,60.43,89.85,54.5,83.93,48.48Z" transform="translate(17 17)"/><path class="cls-5" d="M83.93,48.48c5.92,6,11.94,12,17.74,18.1A24.94,24.94,0,1,1,58.72,81.67a25.29,25.29,0,0,1,7.79-16.21c5.59-5.65,11.14-11.35,16.71-17A1.69,1.69,0,0,1,83.93,48.48Z" transform="translate(17 17)"/></g></g></g></svg>