<svg xmlns="http://www.w3.org/2000/svg" xmlns:xlink="http://www.w3.org/1999/xlink" viewBox="0 0 150 150"><defs><style>.cls-1{fill:none;}.cls-2{clip-path:url(#clip-path);}.cls-3{fill:#7a43ec;}.cls-4{fill:#fcfcfd;}</style><clipPath id="clip-path" transform="translate(2 2.75)"><circle class="cls-1" cx="73.5" cy="73.5" r="73.5"/></clipPath></defs><title>Asset 12</title><g id="Layer_2" data-name="Layer 2"><g id="Layer_1-2" data-name="Layer 1"><g class="cls-2"><path class="cls-3" d="M-1.94,71.88c0-24,0-48-.06-71.95C-2-2.3-1.55-2.75.69-2.75q72.32.12,144.63,0c2.23,0,2.68.45,2.68,2.68q-.12,72.32,0,144.64c0,2.23-.45,2.68-2.68,2.68Q73,147.13.69,147.25c-2.24,0-2.7-.45-2.69-2.68C-1.9,120.34-1.94,96.11-1.94,71.88ZM137,72c-.11-2.24-.09-4.5-.35-6.73-1-8.41-3.1-16.48-8.17-23.41-3.32-4.54-8.53-5.77-12.94-3.69a12.21,12.21,0,0,0-6.88,12.93,34.5,34.5,0,0,0,2.06,6.39,40,40,0,0,1,1.34,27.15c-6.6,21.91-30.79,34-52.44,26.41-3.53-1.24-7-2.76-10.72-3.26-5.05-.67-10.48,2.13-12.57,6.41-1.88,3.84-.55,8.63,3.47,12.45a22.86,22.86,0,0,0,6.63,4.15,66.9,66.9,0,0,0,34.71,5.37C112.4,133.1,138.47,103.32,137,72ZM74.22,9.14C35.23,9.13,6.08,41,9.41,78.76c.76,8.69,2.95,17,7.78,24.35,3.19,4.83,8.47,6.44,13,4.58a12.38,12.38,0,0,0,7.42-13,30.76,30.76,0,0,0-2.18-6.75c-4.27-11.16-4.33-22.28,1.19-33C46.71,35.45,68,27.55,88.58,35.35c3.74,1.42,7.48,2.87,11.6,2.48a11.27,11.27,0,0,0,9.9-7c1.67-3.93.18-7.56-2.52-10.7A18.57,18.57,0,0,0,101,15.36C92.08,11.4,82.94,8.65,74.22,9.14Z" transform="translate(2 2.75)"/><path class="cls-4" d="M137,72c1.45,31.31-24.62,61.09-55.86,64.16a66.9,66.9,0,0,1-34.71-5.37,22.86,22.86,0,0,1-6.63-4.15c-4-3.82-5.35-8.61-3.47-12.45,2.09-4.28,7.52-7.08,12.57-6.41,3.75.5,7.19,2,10.72,3.26,21.65,7.63,45.84-4.5,52.44-26.41a40,40,0,0,0-1.34-27.15,34.5,34.5,0,0,1-2.06-6.39,12.21,12.21,0,0,1,6.88-12.93c4.41-2.08,9.62-.85,12.94,3.69,5.07,6.93,7.21,15,8.17,23.41C136.93,67.5,136.91,69.76,137,72Z" transform="translate(2 2.75)"/><path class="cls-4" d="M74.22,9.14c8.72-.49,17.86,2.26,26.73,6.22a18.57,18.57,0,0,1,6.61,4.81c2.7,3.14,4.19,6.77,2.52,10.7a11.27,11.27,0,0,1-9.9,7c-4.12.39-7.86-1.06-11.6-2.48-20.63-7.8-41.87.1-51.92,19.58-5.52,10.72-5.46,21.84-1.19,33a30.76,30.76,0,0,1,2.18,6.75,12.38,12.38,0,0,1-7.42,13c-4.57,1.86-9.85.25-13-4.58-4.83-7.35-7-15.66-7.78-24.35C6.08,41,35.23,9.13,74.22,9.14Z" transform="translate(2 2.75)"/></g></g></g></svg>