<svg xmlns="http://www.w3.org/2000/svg" xmlns:xlink="http://www.w3.org/1999/xlink" viewBox="0 0 200 200"><defs><style>.cls-1{fill:none;}.cls-2{clip-path:url(#clip-path);}.cls-3{fill:#fbbe2c;}.cls-4{fill:#383632;}.cls-5{fill:#fdfbf5;}</style><clipPath id="clip-path" transform="translate(4 4)"><circle class="cls-1" cx="96" cy="96" r="96"/></clipPath></defs><title>Asset 2</title><g id="Layer_2" data-name="Layer 2"><g id="Layer_1-2" data-name="Layer 1"><g class="cls-2"><path class="cls-3" d="M96.19,195.92c-32.11,0-64.21,0-96.32.08-3.09,0-3.85-.66-3.84-3.81Q-3.8,96.09-4,0C-4-3.67-3-4,.21-4Q96-3.83,191.87-4c3.39,0,4.11.63,4.11,4.08q-.21,95.85,0,191.71c0,3.91-1.18,4.22-4.48,4.2C159.75,195.87,128,195.92,96.19,195.92ZM107.32,94.63c4.88-4.25,5.3-5.7,4.93-16.53-.24-7-3.76-11.32-10.75-12-5.6-.56-11.29-.26-16.93-.44-2.16-.07-2.9.79-2.89,2.92q.07,27.43,0,54.86c0,2.16.81,2.94,2.93,2.88,4-.1,8,0,12,0,6.37-.1,12.56-.92,15.29-7.85C114.84,110.88,112.53,99.17,107.32,94.63Zm27.31-23.56c3.72.83,4.4-1.13,4.39-4.43,0-4.11-1.83-9.37.78-12.07,2.84-2.94,8.22-1,12.46-1,3.68.06,4.78-1,4.82-4.77,0-5.32-3.53-3.79-6.14-3.82-12.06-.13-12.06-.07-12.09-11.88a14.68,14.68,0,0,1,0-2c.47-3.42-1.19-4.22-4.33-4.17-2.94.05-4.63.45-4.53,4,.12,4.28,1.85,9.71-.75,12.59-2.88,3.2-8.48.95-12.88,1.09-3.05.1-4.42.71-4.4,4.17s1,4.65,4.52,4.55c4.29-.12,9.8-1.87,12.6.73,3.1,2.86,1,8.53,1,12.95C130.16,70.46,131.37,71.66,134.63,71.07ZM67.38,45c-3.49,0-7,.13-10.47,0-2.66-.13-3.48,1-3.44,3.49.1,6.15.22,12.32,0,18.46-.16,3.62.81,4.92,4.68,4.94s4.15-1.9,4.09-4.91c-.08-4.14-1.34-9.49.71-12.12,2.45-3.15,8.09-1,12.34-1.12,3.14-.09,5.21-.07,5.22-4.36s-1.85-4.6-5.11-4.38C72.71,45.14,70,45,67.38,45ZM65.91,147c4.27,0,7.76-.18,11.22.05s3.24-1.89,3.18-4.12.6-4.83-3.24-4.62-7.62,0-11.43.05c-2.48.07-3.63-.78-3.51-3.42.15-3.48-.14-7,.07-10.44.2-3.14-.73-4.38-4.11-4.32s-5,.68-4.65,4.37c.27,3.13,0,6.3.08,9.44.17,4.11-1.76,9.39.79,12C57.09,148.88,62.48,146.45,65.91,147Zm73-12.31c0-3.74-.16-6.75,0-9.73.21-3.19-.44-4.77-4.23-4.81-4-.05-4.7,1.54-4.6,5,.11,4.11,1.81,9.4-.69,12.08-2.75,3-8.18,1-12.42,1-3.35,0-5.08.41-5.12,4.52,0,4.39,2.22,4.38,5.29,4.25,2.82-.12,5.66.1,8.48-.05,4.26-.24,9.68,1.86,12.46-1C140.73,143.36,138.57,138,139,134.66Z" transform="translate(4 4)"/><path class="cls-4" d="M107.32,94.63c5.21,4.54,7.52,16.25,4.55,23.78-2.73,6.93-8.92,7.75-15.29,7.85-4,.07-8-.06-12,0-2.12.06-2.93-.72-2.93-2.88q.07-27.44,0-54.86c0-2.13.73-3,2.89-2.92,5.64.18,11.33-.12,16.93.44,7,.7,10.51,5,10.75,12C112.62,88.93,112.2,90.38,107.32,94.63Zm-4.79,12.27a20.63,20.63,0,0,0-.23-4c-.83-4.35-4.37-3.61-7.46-3.79-3.52-.21-3,2.26-3,4.34,0,3.63.08,7.27,0,10.9-.07,2.25.65,3.19,3.07,3.33C101.24,118.07,102.53,116.6,102.53,106.9ZM91.86,82.17a18.63,18.63,0,0,0,0,2.48c.37,2.54-1.63,6.35,3.73,6.13,5-.21,6.38-1.28,6.48-6.46,0-1.65,0-3.31,0-5,0-4.73-3.24-4.93-6.81-5.13-4.17-.23-3.33,2.6-3.4,5C91.84,80.18,91.86,81.18,91.86,82.17Z" transform="translate(4 4)"/><path class="cls-5" d="M134.63,71.07c-3.26.59-4.47-.61-4.51-4-.05-4.42,2.07-10.09-1-12.95-2.8-2.6-8.31-.85-12.6-.73-3.53.1-4.51-1.1-4.52-4.55s1.35-4.07,4.4-4.17c4.4-.14,10,2.11,12.88-1.09,2.6-2.88.87-8.31.75-12.59-.1-3.59,1.59-4,4.53-4,3.14-.05,4.8.75,4.33,4.17a14.68,14.68,0,0,0,0,2c0,11.81,0,11.75,12.09,11.88,2.61,0,6.19-1.5,6.14,3.82,0,3.78-1.14,4.83-4.82,4.77-4.24-.06-9.62-2-12.46,1-2.61,2.7-.8,8-.78,12.07C139,69.94,138.35,71.9,134.63,71.07Z" transform="translate(4 4)"/><path class="cls-4" d="M67.38,45c2.66,0,5.33.15,8,0,3.26-.22,5.12.17,5.11,4.38s-2.08,4.27-5.22,4.36c-4.25.12-9.89-2-12.34,1.12-2,2.63-.79,8-.71,12.12.06,3-.09,4.93-4.09,4.91s-4.84-1.32-4.68-4.94c.26-6.14.14-12.31,0-18.46,0-2.52.78-3.62,3.44-3.49C60.39,45.12,63.89,45,67.38,45Z" transform="translate(4 4)"/><path class="cls-4" d="M65.91,147c-3.43-.52-8.82,1.91-11.6-1-2.55-2.64-.62-7.92-.79-12-.12-3.14.19-6.31-.08-9.44-.32-3.69,1.39-4.32,4.65-4.37s4.31,1.18,4.11,4.32c-.21,3.47.08,7-.07,10.44-.12,2.64,1,3.49,3.51,3.42,3.81-.09,7.63.16,11.43-.05s3.18,2.37,3.24,4.62.23,4.35-3.18,4.12S70.18,147,65.91,147Z" transform="translate(4 4)"/><path class="cls-4" d="M139,134.66c-.38,3.37,1.78,8.7-.79,11.31-2.78,2.84-8.2.74-12.46,1-2.82.15-5.66-.07-8.48.05-3.07.13-5.32.14-5.29-4.25,0-4.11,1.77-4.5,5.12-4.52,4.24,0,9.67,2,12.42-1,2.5-2.68.8-8,.69-12.08-.1-3.49.59-5.08,4.6-5,3.79,0,4.44,1.62,4.23,4.81C138.79,127.91,139,130.92,139,134.66Z" transform="translate(4 4)"/><path class="cls-3" d="M102.53,106.9c0,9.7-1.29,11.17-7.62,10.81-2.42-.14-3.14-1.08-3.07-3.33.11-3.63,0-7.27,0-10.9,0-2.08-.55-4.55,3-4.34,3.09.18,6.63-.56,7.46,3.79A20.63,20.63,0,0,1,102.53,106.9Z" transform="translate(4 4)"/><path class="cls-3" d="M91.86,82.17c0-1,0-2,0-3,.07-2.36-.77-5.19,3.4-5,3.57.2,6.8.4,6.81,5.13,0,1.65,0,3.31,0,5-.1,5.18-1.44,6.25-6.48,6.46-5.36.22-3.36-3.59-3.73-6.13A18.63,18.63,0,0,1,91.86,82.17Z" transform="translate(4 4)"/></g></g></g></svg>