<svg xmlns="http://www.w3.org/2000/svg" xmlns:xlink="http://www.w3.org/1999/xlink" viewBox="0 0 200 200"><defs><style>.cls-1{fill:none;}.cls-2{clip-path:url(#clip-path);}.cls-3{fill:#fdfdfd;}.cls-4{fill:#030303;}</style><clipPath id="clip-path" transform="translate(10 10)"><circle class="cls-1" cx="90" cy="90" r="90"/></clipPath></defs><title>Asset 9</title><g id="Layer_2" data-name="Layer 2"><g id="Layer_1-2" data-name="Layer 1"><g class="cls-2"><path class="cls-3" d="M-9.9-9.9Q88-9.9,185.91-10c3.42,0,4.1.67,4.09,4.09q-.19,95.91,0,191.82c0,3.42-.67,4.1-4.09,4.09Q90,189.81-5.91,190c-3.42,0-4.1-.67-4.09-4.09Q-9.8,88-9.9-9.9ZM143.92,81.88c3.83,0,7.67-.23,11.48.06,4.07.31,4.6-1.13,3.88-4.9-6.41-33.5-36.34-57.62-70.9-56.93-33.58.66-62.66,26.4-67.48,59.71a70.43,70.43,0,0,0,56,79.47c4.27.83,5.2-.29,5-4.28a188.52,188.52,0,0,1,0-19.46c.31-4.74-1.28-6.77-5.86-8.4-16.66-6-26.61-22.11-25.31-40A39.66,39.66,0,0,1,82.12,51.48C99,47.8,117.88,55.25,124.47,71.22c4.22,10.22,10,11.77,18.95,10.66A4.17,4.17,0,0,1,143.92,81.88ZM98.89,144c0,4.16.13,8.32,0,12.47-.12,3.05,1,3.52,3.87,3.07,27.92-4.44,52.08-28.6,56.74-56.65.55-3.34-.43-4-3.46-4-7.64.14-15.29.19-22.93,0-3.06-.09-4.29,1-5.2,3.86-3.13,9.75-8.85,18.68-18.36,21.79-10.76,3.51-11.62,10.12-10.62,19A4.17,4.17,0,0,1,98.89,144Z" transform="translate(10 10)"/><path class="cls-4" d="M143.92,81.88a4.17,4.17,0,0,0-.5,0c-8.94,1.11-14.73-.44-18.95-10.66C117.88,55.25,99,47.8,82.12,51.48A39.66,39.66,0,0,0,50.79,87.16c-1.3,17.88,8.65,34,25.31,40,4.58,1.63,6.17,3.66,5.86,8.4a188.52,188.52,0,0,0,0,19.46c.16,4-.77,5.11-5,4.28a70.43,70.43,0,0,1-56-79.47c4.82-33.31,33.9-59,67.48-59.71,34.56-.69,64.49,23.43,70.9,56.93.72,3.77.19,5.21-3.88,4.9C151.59,81.65,147.75,81.88,143.92,81.88Z" transform="translate(10 10)"/><path class="cls-4" d="M98.89,144a4.17,4.17,0,0,0,0-.5c-1-8.84-.14-15.45,10.62-19,9.51-3.11,15.23-12,18.36-21.79.91-2.82,2.14-4,5.2-3.86,7.64.21,15.29.16,22.93,0,3,0,4,.64,3.46,4-4.66,28-28.82,52.21-56.74,56.65-2.83.45-4,0-3.87-3.07C99,152.27,98.89,148.11,98.89,144Z" transform="translate(10 10)"/></g></g></g></svg>