<svg xmlns="http://www.w3.org/2000/svg" xmlns:xlink="http://www.w3.org/1999/xlink" viewBox="0 0 200 200"><defs><style>.cls-1{fill:none;}.cls-2{clip-path:url(#clip-path);}.cls-3{fill:#35c4ee;}.cls-4{fill:#fbfdfe;}.cls-5{fill:#36c4ee;}</style><clipPath id="clip-path" transform="translate(6 6)"><circle class="cls-1" cx="94" cy="94" r="94"/></clipPath></defs><title>Asset 11</title><g id="Layer_2" data-name="Layer 2"><g id="Layer_1-2" data-name="Layer 1"><g class="cls-2"><path class="cls-3" d="M-5.92,93.5c0-32,.06-63.95-.08-95.92C-6-5.4-5.4-6-2.42-6Q94-5.83,190.42-6c3,0,3.58.6,3.58,3.58q-.17,96.42,0,192.84c0,3-.6,3.59-3.58,3.58Q94,193.83-2.42,194c-3,0-3.59-.6-3.58-3.58C-5.86,158.11-5.92,125.81-5.92,93.5Zm99.57,51.15c13.65,0,27.3.06,40.95,0,8.53,0,12.4-4,12.45-12.65,0-6.66.15-13.32-.05-20-.09-3.13.73-5,3.64-6.72a26.13,26.13,0,0,0,11.23-32c-4.62-12.17-16.93-19-30.13-16.5a7.69,7.69,0,0,1-6.48-1.37c-7.71-5.53-15.52-10.9-23.32-16.3-6.28-4.35-9.61-4.35-15.9,0-12.85,8.92-25.6,18-38.55,26.76-4.77,3.23-6.7,7.27-6.63,13,.22,17.47.07,35,.09,52.43,0,9.56,3.73,13.33,13.26,13.36C67.36,144.69,80.51,144.66,93.65,144.65Z" transform="translate(6 6)"/><path class="cls-4" d="M93.65,144.65c-13.14,0-26.29,0-39.44,0-9.53,0-13.25-3.8-13.26-13.36,0-17.48.13-35-.09-52.43-.07-5.73,1.86-9.77,6.63-13C60.44,57.08,73.19,48,86,39.1c6.29-4.37,9.62-4.37,15.9,0,7.8,5.4,15.61,10.77,23.32,16.3a7.69,7.69,0,0,0,6.48,1.37c13.2-2.49,25.51,4.33,30.13,16.5a26.13,26.13,0,0,1-11.23,32c-2.91,1.73-3.73,3.59-3.64,6.72.2,6.65.09,13.31.05,20-.05,8.6-3.92,12.6-12.45,12.65C121,144.71,107.3,144.65,93.65,144.65Zm-.15-18.9h21c14,0,13.89,0,13.72-14.22,0-2.7-.89-4.06-3.27-5.36-12.34-6.74-17.2-19.24-12.71-32.69.84-2.49.7-3.87-1.56-5.34-4.74-3.08-9.4-6.3-13.91-9.71-2.17-1.65-3.68-1.26-5.71.18Q77,68.6,62.77,78.3a6.1,6.1,0,0,0-2.94,5.77c.11,12.48.15,25,0,37.45,0,3.27.95,4.35,4.23,4.29C73.86,125.64,83.68,125.75,93.5,125.75Zm43.35-54.84a11.77,11.77,0,1,0,12,11.43A11.84,11.84,0,0,0,136.85,70.91Z" transform="translate(6 6)"/><path class="cls-5" d="M93.5,125.75c-9.82,0-19.64-.11-29.46.06-3.28.06-4.27-1-4.23-4.29.17-12.48.13-25,0-37.45a6.1,6.1,0,0,1,2.94-5.77Q77,68.63,91,58.61c2-1.44,3.54-1.83,5.71-.18,4.51,3.41,9.17,6.63,13.91,9.71,2.26,1.47,2.4,2.85,1.56,5.34-4.49,13.45.37,26,12.71,32.69,2.38,1.3,3.24,2.66,3.27,5.36.17,14.22.25,14.22-13.72,14.22Z" transform="translate(6 6)"/><path class="cls-5" d="M136.85,70.91A11.77,11.77,0,1,1,137,94.44a11.77,11.77,0,0,1-.12-23.53Z" transform="translate(6 6)"/></g></g></g></svg>