<svg xmlns="http://www.w3.org/2000/svg" xmlns:xlink="http://www.w3.org/1999/xlink" viewBox="0 0 96 96"><defs><style>.cls-1{fill:none;}.cls-2{clip-path:url(#clip-path);}.cls-3{fill:#fdfdfe;}.cls-4{fill:#0481fd;}.cls-5{fill:#fcfdfd;}</style><clipPath id="clip-path" transform="translate(0 0)"><circle class="cls-1" cx="48" cy="48" r="48"/></clipPath></defs><title>Asset 1</title><g id="Layer_2" data-name="Layer 2"><g id="Layer_1-2" data-name="Layer 1"><g class="cls-2"><path class="cls-3" d="M48,96c-15.34,0-30.69,0-46,0C.63,96,0,96,0,94.27Q.11,48,0,1.69C0,.18.41,0,1.75,0Q48,.09,94.31,0C95.82,0,96,.41,96,1.75Q95.92,48,96,94.33c0,1.5-.41,1.67-1.75,1.67C78.83,96,63.4,96,48,96ZM86.9,47.91c0-5.24-.08-10.49,0-15.73a10.53,10.53,0,0,0-5.81-10.12c-9.18-5.21-18.3-10.53-27.43-15.82a10.15,10.15,0,0,0-10.85,0c-9.2,5.33-18.4,10.68-27.64,16a10.34,10.34,0,0,0-5.64,9.73q.09,15.86,0,31.71a10.33,10.33,0,0,0,5.6,9.75Q29,81.26,42.8,89.3a10.13,10.13,0,0,0,10.84,0C62.91,84,72.17,78.56,81.47,73.24a10,10,0,0,0,5.44-9.35C86.88,58.56,86.9,53.24,86.9,47.91Z" transform="translate(0 0)"/><path class="cls-4" d="M86.9,47.91c0,5.33,0,10.65,0,16a10,10,0,0,1-5.44,9.35C72.17,78.56,62.91,84,53.64,89.32a10.13,10.13,0,0,1-10.84,0q-13.8-8-27.64-16a10.33,10.33,0,0,1-5.6-9.75q.09-15.85,0-31.71a10.34,10.34,0,0,1,5.64-9.73c9.24-5.27,18.44-10.62,27.64-15.95a10.15,10.15,0,0,1,10.85,0c9.13,5.29,18.25,10.61,27.43,15.82a10.53,10.53,0,0,1,5.81,10.12C86.82,37.42,86.9,42.67,86.9,47.91ZM64.61,54.55h0V44.06a9,9,0,0,0-4.55-8.13q-9.21-5.45-18.56-10.68a8.81,8.81,0,0,0-8.88,0c-2.45,1.3-4.89,2.64-7.26,4.08a9.28,9.28,0,0,0-4.7,8.31q-.06,10.24,0,20.49a9.36,9.36,0,0,0,4.81,8.5q9,5.28,18.15,10.45a9,9,0,0,0,9.31,0c2.29-1.25,4.58-2.53,6.83-3.86a9.25,9.25,0,0,0,4.86-8.44Z" transform="translate(0 0)"/><path class="cls-5" d="M64.61,54.55V64.79a9.25,9.25,0,0,1-4.86,8.44c-2.25,1.33-4.54,2.61-6.83,3.86a9,9,0,0,1-9.31,0Q34.5,71.88,25.46,66.62a9.36,9.36,0,0,1-4.81-8.5q-.07-10.24,0-20.49a9.28,9.28,0,0,1,4.7-8.31c2.37-1.44,4.81-2.78,7.26-4.08a8.81,8.81,0,0,1,8.88,0q9.33,5.25,18.56,10.68a9,9,0,0,1,4.55,8.13V54.55ZM36.46,51.18A7.32,7.32,0,0,0,43.89,44a7.51,7.51,0,0,0-7.34-7.55A7.4,7.4,0,0,0,29.17,44,7.22,7.22,0,0,0,36.46,51.18Z" transform="translate(0 0)"/><path class="cls-4" d="M36.46,51.18A7.22,7.22,0,0,1,29.17,44a7.4,7.4,0,0,1,7.38-7.47A7.51,7.51,0,0,1,43.89,44,7.32,7.32,0,0,1,36.46,51.18Z" transform="translate(0 0)"/></g></g></g></svg>