<svg xmlns="http://www.w3.org/2000/svg" xmlns:xlink="http://www.w3.org/1999/xlink" viewBox="0 0 200 200"><defs><style>.cls-1{fill:none;}.cls-2{clip-path:url(#clip-path);}.cls-3{fill:#fefefe;}.cls-4{fill:#fe4b40;}.cls-5{fill:#fefcfb;}</style><clipPath id="clip-path" transform="translate(11 8)"><circle class="cls-1" cx="89" cy="89" r="89"/></clipPath></defs><title>Asset 6</title><g id="Layer_2" data-name="Layer 2"><g id="Layer_1-2" data-name="Layer 1"><g class="cls-2"><path class="cls-3" d="M-10.9,191.9Q-10.9,94-11-3.91C-11-7.33-10.33-8-6.91-8Q89-7.8,184.91-8c3.42,0,4.1.67,4.09,4.09q-.19,95.91,0,191.82c0,3.42-.67,4.1-4.09,4.09Q87,191.81-10.9,191.9Zm62.94-88c0,14.47.09,28.94-.07,43.41,0,3.15.69,4.33,4.09,4.29,15.3-.17,30.6,0,45.9-.13a35.5,35.5,0,0,0,9.36-1.2c14.49-4.07,23.49-13.64,26.06-28.4,2.5-14.41-2.75-26.2-14.5-34.81-2.85-2.08-3.94-3.77-2.67-7.17,1.52-4.06,1.8-8.42,2.15-12.73,1.74-21.42-13.27-38.81-34.22-39.64-19.69-.79-36,15.62-36.08,36.46C52,77.3,52,90.61,52,103.92Z" transform="translate(11 8)"/><path class="cls-4" d="M52,103.92C52,90.61,52,77.3,52.06,64c.11-20.84,16.39-37.25,36.08-36.46,21,.83,36,18.22,34.22,39.64-.35,4.31-.63,8.67-2.15,12.73-1.27,3.4-.18,5.09,2.67,7.17,11.75,8.61,17,20.4,14.5,34.81-2.57,14.76-11.57,24.33-26.06,28.4a35.5,35.5,0,0,1-9.36,1.2c-15.3.12-30.6,0-45.9.13-3.4,0-4.12-1.14-4.09-4.29C52.13,132.86,52,118.39,52,103.92Zm4.84-37c0,3.3.24,5.33,0,7.29-.69,4.85.8,6.55,6.08,6.4,13.63-.39,27.28.12,40.91-.12,3.78-.07,8.11,3.58,11,.25,2.49-2.85,2.08-7.55,2.78-11.47,0-.16.06-.33.08-.49,1.88-14.93-5.27-28.24-18.22-33.93a30.07,30.07,0,0,0-35.29,8.22C57.91,50.35,56.22,58.94,56.88,66.92Zm0,47.76c0,8.8,0,17.61,0,26.41,0,2.2.09,3.79,2.92,2,20.33-12.82,38.54-27.77,50.08-49.46,3.78-7.11,3.66-7.88-4.53-8.17-15.27-.53-30.56-.22-45.84-.35-2.9,0-2.62,1.8-2.62,3.65Q56.9,101.72,56.89,114.68Zm7.84,32c13.41,0,26.85.54,40.23-.16s23.72-9.9,27.23-22.7a30.82,30.82,0,0,0-11.08-32.48c-2.43-1.86-3.9-2.8-5.55,1.15-3.28,7.86-8.26,14.77-13.74,21.29C91.13,126.56,78.29,136.77,64.73,146.73Z" transform="translate(11 8)"/><path class="cls-5" d="M56.88,66.92c-.66-8,1-16.57,7.31-23.85a30.07,30.07,0,0,1,35.29-8.22c13,5.69,20.1,19,18.22,33.93,0,.16,0,.33-.08.49-.7,3.92-.29,8.62-2.78,11.47-2.9,3.33-7.23-.32-11-.25-13.63.24-27.28-.27-40.91.12-5.28.15-6.77-1.55-6.08-6.4C57.12,72.25,56.88,70.22,56.88,66.92Z" transform="translate(11 8)"/><path class="cls-5" d="M56.89,114.68q0-13,0-25.91c0-1.85-.28-3.68,2.62-3.65,15.28.13,30.57-.18,45.84.35,8.19.29,8.31,1.06,4.53,8.17-11.54,21.69-29.75,36.64-50.08,49.46-2.83,1.78-2.92.19-2.92-2C56.9,132.29,56.89,123.48,56.89,114.68Z" transform="translate(11 8)"/><path class="cls-5" d="M64.73,146.73c13.56-10,26.4-20.17,37.09-32.9,5.48-6.52,10.46-13.43,13.74-21.29,1.65-4,3.12-3,5.55-1.15a30.82,30.82,0,0,1,11.08,32.48c-3.51,12.8-13.81,22-27.23,22.7S78.14,146.73,64.73,146.73Z" transform="translate(11 8)"/></g></g></g></svg>