<svg xmlns="http://www.w3.org/2000/svg" xmlns:xlink="http://www.w3.org/1999/xlink" viewBox="0 0 200 200"><defs><style>.cls-1{fill:none;}.cls-2{clip-path:url(#clip-path);}.cls-3{fill:#fdfcfd;}.cls-4{fill:#e31940;}.cls-5{fill:#fcf9f9;}</style><clipPath id="clip-path" transform="translate(6 6)"><circle class="cls-1" cx="94" cy="94" r="94"/></clipPath></defs><title>Asset 10</title><g id="Layer_2" data-name="Layer 2"><g id="Layer_1-2" data-name="Layer 1"><g class="cls-2"><path class="cls-3" d="M193.91,94.32c0,32-.07,63.94.09,95.91,0,3.29-.95,3.75-3.91,3.74q-96.16-.12-192.32,0c-3.29,0-3.75-.95-3.74-3.91Q-5.85,93.94-6-2.23C-6-5.52-5-6-2.09-6q96.15.12,192.32,0C193.52-6,194-5,194-2.09,193.86,30,193.91,62.18,193.91,94.32ZM93.61,178.49A84.65,84.65,0,0,0,178.7,93.32c-.32-46.38-38.81-84-84.88-83.64C46.78,10,9.18,47.52,9.31,94.41,9.43,140.65,47.48,178.59,93.61,178.49Z" transform="translate(6 6)"/><path class="cls-4" d="M93.61,178.49c-46.13.1-84.18-37.84-84.3-84.08C9.18,47.52,46.78,10,93.82,9.68c46.07-.35,84.56,37.26,84.88,83.64A84.65,84.65,0,0,1,93.61,178.49ZM87,144.21a21.53,21.53,0,0,1-10.11.19c-2.21-.58-2.89,0-3,2.31-.21,7.52,3.61,10.17,16.28,11.79,7,.89,4.81-4.64,6-7.87a8.59,8.59,0,0,0,.59-2.41c.12-3,1.46-4.06,4.61-4.46a34.78,34.78,0,0,0,19.47-9.31c4.36-4,7.09-8.78,6-15-.8-4.83-4-7.07-8.53-7.71-4-.57-7.46-.37-9,4.58-2,6.28-7.33,8.36-13.33,8.53s-9.69-3.5-11.76-8.53C78.4,102.11,79.45,88,86,74.34A13.87,13.87,0,0,1,93.87,67c7-2.43,14.19-2.4,14.62,8.15.11,2.49.26,5,.41,7.48.09,1.31,0,2.57,1.66,3.26,7.2,3.06,20-2.88,22.4-10.47,3.57-11.33-2.82-23.42-15.14-28.06-2.87-1.07-4.07-2.18-4.21-5.47C113.26,33.71,110,30.7,101.84,30c-8.65-.7-8.49-.67-10.41,7.64-.75,3.29-.3,4.54,3.33,4.36a22.88,22.88,0,0,1,12.68,2.63c-3.88.33-7.72.12-11.53.37-16.54,1.07-28.8,9.55-35.39,24.17a72.52,72.52,0,0,0-5.4,43.4c2.45,13.29,8.71,23.81,22,28.84C80.28,142.65,83.68,143.3,87,144.21Z" transform="translate(6 6)"/><path class="cls-5" d="M87,144.21c-3.3-.91-6.7-1.56-9.88-2.76-13.27-5-19.53-15.55-22-28.84a72.52,72.52,0,0,1,5.4-43.4C67.11,54.59,79.37,46.11,95.91,45c3.81-.25,7.65,0,11.53-.37A22.88,22.88,0,0,0,94.76,42c-3.63.18-4.08-1.07-3.33-4.36,1.92-8.31,1.76-8.34,10.41-7.64,8.11.66,11.42,3.67,11.77,11.83.14,3.29,1.34,4.4,4.21,5.47C130.14,52,136.53,64.07,133,75.4c-2.38,7.59-15.2,13.53-22.4,10.47-1.63-.69-1.57-2-1.66-3.26-.15-2.49-.3-5-.41-7.48-.43-10.55-7.62-10.58-14.62-8.15A13.87,13.87,0,0,0,86,74.34c-6.58,13.69-7.63,27.77-1.79,42,2.07,5,5.86,8.69,11.76,8.53s11.33-2.25,13.33-8.53c1.57-5,5-5.15,9-4.58,4.5.64,7.73,2.88,8.53,7.71,1,6.23-1.69,11-6,15a34.78,34.78,0,0,1-19.47,9.31c-3.15.4-4.49,1.44-4.61,4.46a8.59,8.59,0,0,1-.59,2.41c-1.16,3.23,1.08,8.76-6,7.87-12.67-1.62-16.49-4.27-16.28-11.79.06-2.32.74-2.89,3-2.31A21.53,21.53,0,0,0,87,144.21Z" transform="translate(6 6)"/></g></g></g></svg>