<svg xmlns="http://www.w3.org/2000/svg" xmlns:xlink="http://www.w3.org/1999/xlink" viewBox="0 0 327.58 224.82"><defs><style>.cls-1{fill:none;}.cls-2{clip-path:url(#clip-path);}.cls-3{fill:#b88fef;}.cls-4{fill:#b890ef;}.cls-5{fill:#b891ef;}.cls-6{fill:#b992ef;}.cls-7{fill:#b993f0;}.cls-8{fill:#b994f0;}.cls-9{fill:#b995f0;}.cls-10{fill:#b996f0;}.cls-11{fill:#b997f0;}.cls-12{fill:#ba98f0;}.cls-13{fill:#ba99f1;}.cls-14{fill:#ba9af1;}.cls-15{fill:#ba9bf1;}.cls-16{fill:#ba9cf1;}.cls-17{fill:#bb9df1;}.cls-18{fill:#bb9ef1;}.cls-19{fill:#bb9ff1;}.cls-20{fill:#bba0f2;}.cls-21{fill:#bba1f2;}.cls-22{fill:#bca2f2;}.cls-23{fill:#bca3f2;}.cls-24{fill:#bca4f2;}.cls-25{fill:#bca5f2;}.cls-26{fill:#bca6f2;}.cls-27{fill:#bca7f3;}.cls-28{fill:#bda8f3;}.cls-29{fill:#bda9f3;}.cls-30{fill:#bdaaf3;}.cls-31{fill:#bdabf3;}.cls-32{fill:#bdacf3;}.cls-33{fill:#beadf3;}.cls-34{fill:#beaef4;}.cls-35{fill:#beaff4;}.cls-36{fill:#beb0f4;}.cls-37{fill:#beb1f4;}.cls-38{fill:#bfb2f4;}.cls-39{fill:#bfb3f4;}.cls-40{fill:#bfb4f5;}.cls-41{fill:#bfb5f5;}.cls-42{fill:#bfb6f5;}.cls-43{fill:#bfb7f5;}.cls-44{fill:#c0b8f5;}.cls-45{fill:#c0b9f5;}.cls-46{fill:#c0baf5;}.cls-47{fill:#c0bbf6;}.cls-48{fill:#c0bdf6;}.cls-49{fill:#c1bef6;}.cls-50{fill:#c1bff6;}.cls-51{fill:#c1c0f6;}.cls-52{fill:#c1c1f6;}.cls-53{fill:#c1c2f7;}.cls-54{fill:#c2c3f7;}.cls-55{fill:#c2c4f7;}.cls-56{fill:#c2c5f7;}.cls-57{fill:#c2c6f7;}.cls-58{fill:#c2c7f7;}.cls-59{fill:#c3c8f7;}.cls-60{fill:#c3c9f8;}.cls-61{fill:#c3caf8;}.cls-62{fill:#c3cbf8;}.cls-63{fill:#c3ccf8;}.cls-64{fill:#c4cef8;}.cls-65{fill:#c4cff8;}.cls-66{fill:#c4d0f9;}.cls-67{fill:#c4d1f9;}.cls-68{fill:#c4d2f9;}.cls-69{fill:#c5d3f9;}.cls-70{fill:#c5d4f9;}.cls-71{fill:#c5d5f9;}.cls-72{fill:#c5d6fa;}.cls-73{fill:#c5d7fa;}.cls-74{fill:#c6d8fa;}.cls-75{fill:#c6d9fa;}.cls-76{fill:#c6dbfa;}.cls-77{fill:#c6dcfa;}.cls-78{fill:#c6ddfb;}.cls-79{fill:#c7defb;}.cls-80{fill:#c7dffb;}.cls-81{fill:#c7e0fb;}.cls-82{clip-path:url(#clip-path-2);}.cls-83{fill:#d7d3f4;}.cls-84{fill:#f3fbfd;}.cls-85{fill:#bebdf5;}.cls-86{fill:#de5394;}.cls-87{fill:#5f27cc;}.cls-88{fill:#f2f6fc;}.cls-89{fill:#ff9f43;}.cls-90{fill:#fcfcfe;}.cls-91{fill:#fea44f;}.cls-92{fill:#fff;}.cls-93{fill:#faf9fe;}.cls-94{fill:#bb98f0;}</style><clipPath id="clip-path" transform="translate(0.91)"><path id="SVGID" class="cls-1" d="M316.14,193.35c-8.13,10.93-19.85,15.07-37.35,19.31-14.52,3.52-27.67,5.88-38.69,7.47a296.76,296.76,0,0,1-34.25,3.24c-61.28.95-93.83,1.45-121-6.54-1.8-.53-3.59-1.1-5.35-1.7-23.64-8.15-49.23-17.37-65.4-43.06-15-23.84-14.22-49.65-14-55A99.08,99.08,0,0,1,10.21,78.47c16.89-35.88,48.3-52,58-56.87,29.89-14.85,56.71-14,62.37-13.74,12.77.59,38.88,1.81,59.91,19.45,2,1.66,6.5,7.72,14.32,18.82,4.54,6.43,10.2,14.57,17.11,24.52,9.22,13.27,14.22,20.59,18.18,25.47a46.17,46.17,0,0,0,9.3,8.92c9.59,7.06,20.13,11.33,35.31,17.48,17,6.88,23.54,7.65,30.31,15.37,7.72,8.79,9.13,19.1,9.58,22.69C324.82,162.3,326.67,179.21,316.14,193.35Z"/></clipPath><clipPath id="clip-path-2" transform="translate(0.91)"><path id="SVGID-2" data-name="SVGID" class="cls-1" d="M159,223.92c-9.68,0-18.44-.12-26.39-.43-10-.39-18.45-1.08-26-2.1a145.3,145.3,0,0,1-21.76-4.52c-1.79-.53-3.59-1.1-5.35-1.71-13-4.46-24.58-8.67-35.51-14.95a90.66,90.66,0,0,1-16.19-11.7,79.3,79.3,0,0,1-13.72-16.43,87.32,87.32,0,0,1-8.55-17.9,99.1,99.1,0,0,1-4.16-16.54A100.11,100.11,0,0,1,.1,117,95.85,95.85,0,0,1,4.35,93.11a110.07,110.07,0,0,1,5.83-14.65,114.89,114.89,0,0,1,31.7-40.1A137.17,137.17,0,0,1,68.2,21.57,130.7,130.7,0,0,1,130.58,7.82a138.74,138.74,0,0,1,26.87,3.34,88.6,88.6,0,0,1,16.62,5.72,74.13,74.13,0,0,1,16.44,10.4c1.86,1.57,5.88,6.84,14.33,18.83,4.47,6.33,9.91,14.16,17.11,24.52,1.06,1.54,2.07,3,3,4.37,7.26,10.47,11.65,16.79,15.15,21.1a46.64,46.64,0,0,0,9.3,8.92c9.57,7,20.36,11.42,35.3,17.47,4.14,1.67,7.63,3,10.71,4.13a98.91,98.91,0,0,1,11.43,4.75,27.87,27.87,0,0,1,8.17,6.49,38.4,38.4,0,0,1,7.53,13.31,47.48,47.48,0,0,1,2.07,9.4,48.74,48.74,0,0,1-.2,11.74A49.78,49.78,0,0,1,322,182.52a41.83,41.83,0,0,1-5.8,10.85l0,0,0,0A39.2,39.2,0,0,1,301,205.55c-6.61,3.15-14.58,5.3-22.2,7.14-12.8,3.1-25.82,5.62-38.69,7.48a304.15,304.15,0,0,1-34.26,3.24C188.15,223.68,172.63,223.92,159,223.92ZM126.08,7.79A132.11,132.11,0,0,0,68.23,21.63c-33.69,16.74-50.13,40.16-58,56.86A98.84,98.84,0,0,0,.17,117c-.44,9.17,0,32.9,14,55,16.49,26.2,43.6,35.54,65.38,43,1.76.61,3.56,1.18,5.35,1.71,19.24,5.65,41.57,7,74.44,7,13.56,0,28.9-.24,46.56-.51a303.9,303.9,0,0,0,34.25-3.24c12.87-1.86,25.89-4.37,38.68-7.47,18.59-4.51,29.46-8.73,37.34-19.3a44.65,44.65,0,0,0,8.25-21,48.58,48.58,0,0,0,.2-11.72c-1.14-9.1-4.36-16.72-9.58-22.67s-10.25-7.75-19.58-11.23c-3.08-1.15-6.57-2.45-10.71-4.13-14.94-6-25.73-10.41-35.32-17.48a46.73,46.73,0,0,1-9.31-8.93c-3.5-4.31-7.88-10.63-15.14-21.09l-3-4.38c-7.2-10.36-12.64-18.19-17.11-24.52-8.44-12-12.46-17.25-14.32-18.81C169.45,9.7,143.2,8.48,130.58,7.89,129.34,7.84,127.83,7.79,126.08,7.79Z"/></clipPath></defs><title>Asset 3</title><g id="Layer_2" data-name="Layer 2"><g id="Layer_1-2" data-name="Layer 1"><g class="cls-2"><polygon class="cls-3" points="134.57 6.75 0 92.57 0 6.75 134.57 6.75"/><polygon class="cls-3" points="140.81 6.75 0 96.54 0 92.57 134.57 6.75 140.81 6.75"/><polygon class="cls-4" points="147.04 6.75 0 100.52 0 96.54 140.81 6.75 147.04 6.75"/><polygon class="cls-4" points="153.27 6.75 0 104.49 0 100.52 147.04 6.75 153.27 6.75"/><polygon class="cls-5" points="159.5 6.75 0 108.47 0 104.49 153.27 6.75 159.5 6.75"/><polygon class="cls-6" points="165.74 6.75 0 112.44 0 108.47 159.5 6.75 165.74 6.75"/><polygon class="cls-7" points="171.97 6.75 0 116.42 0 112.44 165.74 6.75 171.97 6.75"/><polygon class="cls-8" points="178.2 6.75 0 120.39 0 116.42 171.97 6.75 178.2 6.75"/><polygon class="cls-9" points="184.44 6.75 0 124.37 0 120.39 178.2 6.75 184.44 6.75"/><polygon class="cls-10" points="190.67 6.75 0 128.34 0 124.37 184.44 6.75 190.67 6.75"/><polygon class="cls-11" points="196.9 6.75 0 132.32 0 128.34 190.67 6.75 196.9 6.75"/><polygon class="cls-12" points="203.13 6.75 0 136.29 0 132.32 196.9 6.75 203.13 6.75"/><polygon class="cls-12" points="209.37 6.75 0 140.27 0 136.29 203.13 6.75 209.37 6.75"/><polygon class="cls-13" points="215.6 6.75 0 144.24 0 140.27 209.37 6.75 215.6 6.75"/><polygon class="cls-14" points="221.83 6.75 0 148.22 0 144.24 215.6 6.75 221.83 6.75"/><polygon class="cls-15" points="228.07 6.75 1.38 151.31 0 149.15 0 148.22 221.83 6.75 228.07 6.75"/><polygon class="cls-16" points="234.3 6.75 3.18 154.14 1.38 151.31 228.07 6.75 234.3 6.75"/><polygon class="cls-17" points="234.57 6.75 236.29 9.45 4.98 156.96 3.18 154.14 234.3 6.75 234.57 6.75"/><rect class="cls-18" x="-16.54" y="82.94" width="274.35" height="3.35" transform="translate(-25.67 78.14) rotate(-32.53)"/><rect class="cls-19" x="-14.74" y="85.77" width="274.35" height="3.35" transform="translate(-26.9 79.55) rotate(-32.53)"/><rect class="cls-20" x="-12.94" y="88.59" width="274.35" height="3.35" transform="matrix(0.84, -0.54, 0.54, 0.84, -28.14, 80.96)"/><rect class="cls-21" x="-11.14" y="91.42" width="274.35" height="3.35" transform="translate(-29.38 82.37) rotate(-32.53)"/><rect class="cls-22" x="-9.34" y="94.25" width="274.35" height="3.35" transform="matrix(0.84, -0.54, 0.54, 0.84, -30.61, 83.78)"/><rect class="cls-23" x="-7.53" y="97.07" width="274.35" height="3.35" transform="translate(-31.85 85.2) rotate(-32.53)"/><rect class="cls-24" x="-5.73" y="99.9" width="274.35" height="3.35" transform="translate(-33.09 86.61) rotate(-32.53)"/><rect class="cls-25" x="-3.93" y="102.72" width="274.35" height="3.35" transform="translate(-34.32 88.02) rotate(-32.53)"/><rect class="cls-26" x="-2.13" y="105.55" width="274.35" height="3.35" transform="translate(-35.56 89.43) rotate(-32.53)"/><rect class="cls-27" x="-0.33" y="108.37" width="274.35" height="3.35" transform="translate(-36.8 90.85) rotate(-32.53)"/><rect class="cls-28" x="1.48" y="111.2" width="274.35" height="3.35" transform="translate(-38.03 92.26) rotate(-32.53)"/><rect class="cls-29" x="3.28" y="114.03" width="274.35" height="3.35" transform="translate(-39.27 93.67) rotate(-32.53)"/><rect class="cls-30" x="5.08" y="116.85" width="274.35" height="3.35" transform="translate(-40.51 95.08) rotate(-32.53)"/><rect class="cls-31" x="6.88" y="119.68" width="274.35" height="3.35" transform="translate(-41.74 96.49) rotate(-32.53)"/><rect class="cls-32" x="8.68" y="122.5" width="274.35" height="3.35" transform="translate(-42.98 97.91) rotate(-32.53)"/><rect class="cls-33" x="10.49" y="125.33" width="274.35" height="3.35" transform="matrix(0.84, -0.54, 0.54, 0.84, -44.22, 99.32)"/><rect class="cls-34" x="12.29" y="128.15" width="274.35" height="3.35" transform="translate(-45.45 100.73) rotate(-32.53)"/><rect class="cls-35" x="14.09" y="130.98" width="274.35" height="3.35" transform="translate(-46.69 102.14) rotate(-32.53)"/><rect class="cls-36" x="15.89" y="133.81" width="274.35" height="3.35" transform="translate(-47.93 103.56) rotate(-32.53)"/><rect class="cls-37" x="17.7" y="136.63" width="274.35" height="3.35" transform="matrix(0.84, -0.54, 0.54, 0.84, -49.16, 104.97)"/><rect class="cls-38" x="19.5" y="139.46" width="274.35" height="3.35" transform="translate(-50.4 106.38) rotate(-32.53)"/><rect class="cls-39" x="21.3" y="142.28" width="274.35" height="3.35" transform="matrix(0.84, -0.54, 0.54, 0.84, -51.64, 107.79)"/><rect class="cls-40" x="23.1" y="145.11" width="274.35" height="3.35" transform="matrix(0.84, -0.54, 0.54, 0.84, -52.87, 109.2)"/><rect class="cls-41" x="24.9" y="147.93" width="274.35" height="3.35" transform="translate(-54.11 110.62) rotate(-32.53)"/><polygon class="cls-42" points="279.54 77.26 281.35 80.09 54.4 224.82 48.26 224.82 48.23 224.78 279.54 77.26"/><polygon class="cls-43" points="281.35 80.09 283.15 82.92 60.64 224.82 54.4 224.82 281.35 80.09"/><polygon class="cls-44" points="283.15 82.92 284.95 85.74 66.87 224.82 60.64 224.82 283.15 82.92"/><polygon class="cls-45" points="284.95 85.74 286.75 88.57 73.1 224.82 66.87 224.82 284.95 85.74"/><polygon class="cls-46" points="286.75 88.57 288.55 91.39 79.33 224.82 73.1 224.82 286.75 88.57"/><polygon class="cls-47" points="288.55 91.39 290.36 94.22 85.57 224.82 79.33 224.82 288.55 91.39"/><polygon class="cls-48" points="290.36 94.22 292.16 97.04 91.8 224.82 85.57 224.82 290.36 94.22"/><polygon class="cls-49" points="292.16 97.04 293.96 99.87 98.03 224.82 91.8 224.82 292.16 97.04"/><polygon class="cls-50" points="293.96 99.87 295.76 102.69 104.27 224.82 98.03 224.82 293.96 99.87"/><polygon class="cls-51" points="295.76 102.69 297.56 105.52 110.5 224.82 104.27 224.82 295.76 102.69"/><polygon class="cls-52" points="297.56 105.52 299.37 108.35 116.73 224.82 110.5 224.82 297.56 105.52"/><polygon class="cls-53" points="299.37 108.35 301.17 111.17 122.97 224.82 116.73 224.82 299.37 108.35"/><polygon class="cls-54" points="301.17 111.17 302.97 114 129.2 224.82 122.97 224.82 301.17 111.17"/><polygon class="cls-55" points="302.97 114 304.77 116.82 135.43 224.82 129.2 224.82 302.97 114"/><polygon class="cls-56" points="304.77 116.82 306.57 119.65 141.66 224.82 135.43 224.82 304.77 116.82"/><polygon class="cls-57" points="306.57 119.65 308.38 122.47 147.9 224.82 141.66 224.82 306.57 119.65"/><polygon class="cls-58" points="308.38 122.47 310.18 125.3 154.13 224.82 147.9 224.82 308.38 122.47"/><polygon class="cls-59" points="310.18 125.3 311.98 128.13 160.36 224.82 154.13 224.82 310.18 125.3"/><polygon class="cls-60" points="311.98 128.13 313.78 130.95 166.59 224.82 160.36 224.82 311.98 128.13"/><polygon class="cls-61" points="313.78 130.95 315.58 133.78 172.83 224.82 166.59 224.82 313.78 130.95"/><polygon class="cls-62" points="315.58 133.78 317.39 136.6 179.06 224.82 172.83 224.82 315.58 133.78"/><polygon class="cls-63" points="317.39 136.6 319.19 139.43 185.29 224.82 179.06 224.82 317.39 136.6"/><polygon class="cls-64" points="319.19 139.43 320.99 142.25 191.53 224.82 185.29 224.82 319.19 139.43"/><polygon class="cls-65" points="320.99 142.25 322.79 145.08 197.76 224.82 191.53 224.82 320.99 142.25"/><polygon class="cls-66" points="322.79 145.08 324.6 147.91 203.99 224.82 197.76 224.82 322.79 145.08"/><polygon class="cls-67" points="324.6 147.91 326.4 150.73 210.22 224.82 203.99 224.82 324.6 147.91"/><polygon class="cls-68" points="326.4 150.73 327.58 152.59 327.58 153.95 216.46 224.82 210.22 224.82 326.4 150.73"/><polygon class="cls-69" points="327.58 157.93 222.69 224.82 216.46 224.82 327.58 153.95 327.58 157.93"/><polygon class="cls-70" points="327.58 161.9 228.92 224.82 222.69 224.82 327.58 157.93 327.58 161.9"/><polygon class="cls-71" points="327.58 165.88 235.16 224.82 228.92 224.82 327.58 161.9 327.58 165.88"/><polygon class="cls-72" points="327.58 169.85 241.39 224.82 235.16 224.82 327.58 165.88 327.58 169.85"/><polygon class="cls-73" points="327.58 173.82 247.62 224.82 241.39 224.82 327.58 169.85 327.58 173.82"/><polygon class="cls-74" points="327.58 177.8 253.85 224.82 247.62 224.82 327.58 173.82 327.58 177.8"/><polygon class="cls-75" points="327.58 181.78 260.09 224.82 253.85 224.82 327.58 177.8 327.58 181.78"/><polygon class="cls-76" points="327.58 185.75 266.32 224.82 260.09 224.82 327.58 181.78 327.58 185.75"/><polygon class="cls-77" points="327.58 189.72 272.55 224.82 266.32 224.82 327.58 185.75 327.58 189.72"/><polygon class="cls-78" points="327.58 193.7 278.79 224.82 272.55 224.82 327.58 189.72 327.58 193.7"/><polygon class="cls-79" points="327.58 197.67 285.02 224.82 278.79 224.82 327.58 193.7 327.58 197.67"/><polygon class="cls-80" points="327.58 201.65 291.25 224.82 285.02 224.82 327.58 197.67 327.58 201.65"/><polygon class="cls-81" points="327.58 205.62 297.48 224.82 291.25 224.82 327.58 201.65 327.58 205.62"/><polygon class="cls-81" points="297.48 224.82 327.58 205.62 327.58 224.82 297.48 224.82"/></g><g class="cls-82"><rect class="cls-83" x="0.64" y="7.79" width="0.27" height="216.05"/><rect class="cls-83" x="0.91" y="7.79" width="324.9" height="216.05"/><rect class="cls-83" x="325.81" y="7.79" width="0.26" height="216.05"/><rect class="cls-83" x="0.79" y="7.38" width="0.12" height="216.54"/><rect class="cls-83" x="0.91" y="7.38" width="324.9" height="216.54"/><rect class="cls-83" x="325.81" y="7.38" width="0.33" height="216.54"/></g><path class="cls-84" d="M240.1,56.1v164a296.76,296.76,0,0,1-34.25,3.24c-61.28.95-93.83,1.45-121-6.54V56.1a10,10,0,0,1,10-10H230.13A10,10,0,0,1,240.1,56.1Z" transform="translate(0.91)"/><circle class="cls-85" cx="163.49" cy="209.42" r="12.19"/><path class="cls-85" d="M160.82,185.39l-.4,0a7,7,0,0,1-6.64-7.43l1.2-21.21a6.67,6.67,0,0,1,.33-1.77A27.73,27.73,0,0,1,163,142.74a25.57,25.57,0,0,1,5.67-3.9l.06,0a46.72,46.72,0,0,0,11.58-10.39c3.71-4.6,7.92-11.71,6.93-19.45-1.31-10.25-11.56-21.5-24.72-21.9h-.72c-11,0-21.92,7.63-24.06,17a19.47,19.47,0,0,0,1.17,11.56,7,7,0,1,1-13.11,5.16,37.15,37.15,0,0,1-2.23-8.28,31.47,31.47,0,0,1,.44-11.59c1.85-8.08,7-15.39,14.61-20.6a41.6,41.6,0,0,1,11.51-5.53,39,39,0,0,1,38.65,9.14,42,42,0,0,1,8.29,10.68,36.3,36.3,0,0,1,4.15,12.63A34.55,34.55,0,0,1,199,124.12a49.13,49.13,0,0,1-7.75,13.15c-5.85,7.25-12.83,12.39-16.09,14.07l-.11.06a11.27,11.27,0,0,0-2.61,1.78A13.41,13.41,0,0,0,169,158.5l-1.15,20.24A7,7,0,0,1,160.82,185.39Z" transform="translate(0.91)"/><circle class="cls-86" cx="231.57" cy="51.06" r="43.34"/><rect class="cls-87" x="66.41" y="97.47" width="81.61" height="80.06" rx="16.8"/><path class="cls-88" d="M106.42,139.15a8,8,0,1,1,8-8A8,8,0,0,1,106.42,139.15Zm0-11.84a3.81,3.81,0,1,0,3.81,3.81A3.81,3.81,0,0,0,106.42,127.31Z" transform="translate(0.91)"/><path class="cls-87" d="M106.42,139.68a8.56,8.56,0,1,1,8.56-8.56A8.57,8.57,0,0,1,106.42,139.68Zm0-16.07a7.51,7.51,0,1,0,7.51,7.51A7.51,7.51,0,0,0,106.42,123.61Zm0,11.84a4.33,4.33,0,1,1,4.34-4.33A4.33,4.33,0,0,1,106.42,135.45Zm0-7.61a3.28,3.28,0,1,0,3.28,3.28A3.29,3.29,0,0,0,106.42,127.84Z" transform="translate(0.91)"/><path class="cls-88" d="M115.12,155.43H97.72a4.65,4.65,0,0,1-4.65-4.65v-5.92a4.65,4.65,0,0,1,4.65-4.65h17.4a4.66,4.66,0,0,1,4.66,4.65v5.92A4.66,4.66,0,0,1,115.12,155.43Zm-17.4-11a.42.42,0,0,0-.42.42v5.92a.42.42,0,0,0,.42.42h17.4a.42.42,0,0,0,.43-.42v-5.92a.42.42,0,0,0-.43-.42Z" transform="translate(0.91)"/><path class="cls-87" d="M115.12,156H97.72a5.18,5.18,0,0,1-5.18-5.18v-5.92a5.19,5.19,0,0,1,5.18-5.18h17.4a5.2,5.2,0,0,1,5.19,5.18v5.92A5.19,5.19,0,0,1,115.12,156Zm-17.4-15.22a4.13,4.13,0,0,0-4.12,4.12v5.92a4.13,4.13,0,0,0,4.12,4.12h17.4a4.13,4.13,0,0,0,4.13-4.12v-5.92a4.13,4.13,0,0,0-4.13-4.12Zm17.4,11H97.72a.94.94,0,0,1-1-.95v-5.92a1,1,0,0,1,1-1h17.4a1,1,0,0,1,1,1v5.92A1,1,0,0,1,115.12,151.73Zm-17.3-1H115V145H97.82Z" transform="translate(0.91)"/><path class="cls-88" d="M115.31,166.29H97.53a12.15,12.15,0,0,1-12.14-12.15V124.38a12.15,12.15,0,0,1,12.14-12.15h17.78a12.16,12.16,0,0,1,12.15,12.15v29.76A12.16,12.16,0,0,1,115.31,166.29ZM97.53,117.87A6.52,6.52,0,0,0,91,124.38v29.76a6.52,6.52,0,0,0,6.51,6.51h17.78a6.52,6.52,0,0,0,6.51-6.51V124.38a6.52,6.52,0,0,0-6.51-6.51Z" transform="translate(0.91)"/><path class="cls-87" d="M115.31,166.82H97.53a12.69,12.69,0,0,1-12.67-12.68V124.38A12.69,12.69,0,0,1,97.53,111.7h17.78A12.7,12.7,0,0,1,128,124.38v29.76A12.7,12.7,0,0,1,115.31,166.82ZM97.53,112.76a11.64,11.64,0,0,0-11.62,11.62v29.76a11.64,11.64,0,0,0,11.62,11.62h17.78a11.63,11.63,0,0,0,11.62-11.62V124.38a11.63,11.63,0,0,0-11.62-11.62Zm17.78,48.42H97.53a7.05,7.05,0,0,1-7-7V124.38a7.05,7.05,0,0,1,7-7h17.78a7.05,7.05,0,0,1,7,7v29.76A7.05,7.05,0,0,1,115.31,161.18ZM97.53,118.4a6,6,0,0,0-6,6v29.76a6,6,0,0,0,6,6h17.78a6,6,0,0,0,6-6V124.38a6,6,0,0,0-6-6Z" transform="translate(0.91)"/><path class="cls-86" d="M285.17,162.23A18.16,18.16,0,1,1,298,156.91,18.09,18.09,0,0,1,285.17,162.23Zm0-30.72a12.55,12.55,0,1,0,12.55,12.54A12.55,12.55,0,0,0,285.17,131.51Z" transform="translate(0.91)"/><circle class="cls-89" cx="140.9" cy="6.7" r="6.7"/><circle class="cls-90" cx="51.47" cy="190.35" r="5.99"/><path class="cls-91" d="M250.68,192.64h-22.9l12.78-17.52Zm-17.36-2.81H245.8l-5.52-9.55Z" transform="translate(0.91)"/><rect class="cls-92" x="228.78" y="31.78" width="5.64" height="24.81"/><circle class="cls-92" cx="231.6" cy="67.8" r="5.14"/><circle class="cls-93" cx="34.94" cy="72.91" r="10.78"/><circle class="cls-94" cx="34.98" cy="72.94" r="4.69"/></g></g></svg>