<svg xmlns="http://www.w3.org/2000/svg" xmlns:xlink="http://www.w3.org/1999/xlink" viewBox="0 0 341.32 225.71"><defs><style>.cls-1{fill:url(#linear-gradient);}.cls-2{fill:#ffb874;}.cls-3{fill:#de5293;}.cls-4{fill:#faeef5;}.cls-5{fill:#00d2d3;}.cls-6{fill:#5f27cd;}.cls-7{fill:#fff;}.cls-8{fill:#0abde3;}.cls-9{fill:#ff9f43;}.cls-10{fill:url(#linear-gradient-2);}</style><linearGradient id="linear-gradient" x1="70.64" y1="-6.79" x2="227.39" y2="241.27" gradientUnits="userSpaceOnUse"><stop offset="0" stop-color="#d7d3f4"/><stop offset="0.23" stop-color="#d7d3f4" stop-opacity="0.86"/><stop offset="0.72" stop-color="#d7d3f4" stop-opacity="0.51"/><stop offset="1" stop-color="#d7d3f4" stop-opacity="0.3"/></linearGradient><linearGradient id="linear-gradient-2" x1="153.16" y1="126.45" x2="209.21" y2="62.92" gradientUnits="userSpaceOnUse"><stop offset="0" stop-color="#ff9f43"/><stop offset="1" stop-color="#fead47" stop-opacity="0.2"/></linearGradient></defs><title>Asset 2</title><g id="Layer_2" data-name="Layer 2"><g id="Layer_1-2" data-name="Layer 1"><path class="cls-1" d="M339,159.6c.23,1.79,2.17,19.46-8.83,34.22-8.5,11.42-20.73,15.74-39,20.17-44.13,10.69-76.17,11.19-76.17,11.19-68.25,1-102.38,1.57-132-8.61-24.69-8.51-51.42-18.14-68.3-45C-1,146.71-.17,119.76.1,114.11A103.2,103.2,0,0,1,10.63,73.86C28.27,36.38,61.06,19.5,71.2,14.46,102.42-1,130.42-.17,136.33.11c13.34.62,40.6,1.89,62.56,20.31,3.27,2.74,13.17,16.95,32.83,45.27,17.44,25.11,20.43,29.81,28.7,35.91,10,7.38,21,11.84,36.88,18.26,17.73,7.18,24.57,8,31.64,16C337,145.08,338.49,155.85,339,159.6Z"/><path class="cls-2" d="M269.93,94.8v-30c0-.26,0-.52,0-.78a17.43,17.43,0,0,0-1.25-4.79,16.45,16.45,0,0,0-5.9-7.28,16.64,16.64,0,0,0-10.47-2.83l-11.57,0q.83-6.6,1.63-13.2a7.76,7.76,0,0,0-1.18-6.48,7.89,7.89,0,0,0-6.77-2.87c-35.09-.21-65.08-.35-86.35-.41l-4.12,0c-16,0-26.36-.05-29.13,0-1.4,0-4.61.1-6.48,2.28-1.61,1.89-1.53,4.56-1.32,6.18q.8,7.46,1.58,14.9L92,49.56h-.26A15.63,15.63,0,0,0,76.93,62.33a7.74,7.74,0,0,0-.13,1.36V93.55A22.46,22.46,0,0,0,80.71,109a8.34,8.34,0,0,0,.86,1L97.1,125.31a7.36,7.36,0,0,0,10.34-10.48l-15-14.77a7.66,7.66,0,0,1-1-5,7.13,7.13,0,0,0,.07-1V64.72a.9.9,0,0,1,.15-.19,1.08,1.08,0,0,1,.6-.25l17.85,0q1.38,12.94,2.75,25.88c.55,35.46,30.43,63.27,64,61.83a58.59,58.59,0,0,0,16.42-3.1c.66-.22,1.31-.46,2-.7A63.12,63.12,0,0,0,235.56,91l3.33-27.12,13.69,0c.21,0,.42,0,.62,0a2.1,2.1,0,0,1,1.24.29,2.17,2.17,0,0,1,.77,1.27v30a7.3,7.3,0,0,0,.13,1.4,4,4,0,0,1-.15,2.1,4.12,4.12,0,0,1-1.64,2,8.19,8.19,0,0,0-1.13.91l-12.36,12.07a7.36,7.36,0,1,0,10.28,10.53l11.91-11.63a18.65,18.65,0,0,0,7.68-18Zm-81.37-6.93,3.27,19-17.1-9-17.1,9,3.26-19L147.06,74.39l19.12-2.78,3.72-7.54,4.83-9.78L179.54,64l3.74,7.57,19.11,2.78Z"/><path class="cls-3" d="M267.88,164.23l-18.26,31.13c23.49-.16,34.13-.15,34.56,0h0C284.5,195.19,277.73,182.44,267.88,164.23Z"/><path class="cls-4" d="M267.28,177.28l-6.84,11.65c8.79-.06,12.78-.05,12.94,0h0C273.5,188.87,271,184.1,267.28,177.28Z"/><circle class="cls-5" cx="56.49" cy="163.57" r="8.1"/><circle class="cls-6" cx="48.38" cy="26.14" r="15.68"/><circle class="cls-7" cx="48.38" cy="26.14" r="5.41"/><circle class="cls-8" cx="316.74" cy="89.08" r="24.58"/><circle class="cls-7" cx="316.74" cy="89.08" r="7.58"/><path class="cls-2" d="M158.06,220.75H123.24c-1.06-.42-4.16-1.83-5.22-4.93a8,8,0,0,1-.3-3.16c.11-.88,1.6-8.9,17.15-17.52.68-.37,1.4-.76,2.18-1.16a23.66,23.66,0,0,0,2.28,13.86C142.66,214.07,148.71,217.17,158.06,220.75Z"/><path class="cls-2" d="M164.62,163.53l-1.12.54v-.54Z"/><path class="cls-9" d="M231.39,215.82c-1.07,3.1-4.17,4.51-5.23,4.93H174.71V163.53H185.9v22.12l1,.29a80.8,80.8,0,0,1,27.67,9.2c15.56,8.62,17.05,16.64,17.15,17.52A7.86,7.86,0,0,1,231.39,215.82Z"/><path class="cls-9" d="M164.62,163.53h10.07v57.22H158.06c-9.35-3.58-15.4-6.68-18.73-12.91A23.66,23.66,0,0,1,137.05,194a81.64,81.64,0,0,1,25.5-8l.95-.29V164.07Z"/><path class="cls-10" d="M269.06,103.84a18.88,18.88,0,0,1-6.81,9l-11.91,11.63a7.36,7.36,0,1,1-10.28-10.53l12.36-12.07a8.19,8.19,0,0,1,1.13-.91,4.12,4.12,0,0,0,1.64-2,4,4,0,0,0,.15-2.1,7.3,7.3,0,0,1-.13-1.4v-30a2.17,2.17,0,0,0-.77-1.27,2.1,2.1,0,0,0-1.24-.29c-.2,0-.41,0-.62,0l-13.69,0L235.56,91a63.12,63.12,0,0,1-40.28,57.14c-.65.24-1.3.48-2,.7-.7-.22-1.42-.45-2.16-.7-11.82-4-28.95-12.5-41.68-30.46-14-19.76-15.4-40.71-14.77-53.53.18-3.72.53-6.76.79-8.88s.55-4,.9-5.84a97.05,97.05,0,0,1,7.5-23.24v0l4.12,0c21.27.06,51.26.2,86.35.41a7.89,7.89,0,0,1,6.77,2.87A7.76,7.76,0,0,1,242.33,36q-.81,6.6-1.63,13.2l11.57,0A16.64,16.64,0,0,1,262.74,52a16.45,16.45,0,0,1,5.9,7.28A17.43,17.43,0,0,1,269.89,64c0,.26,0,.52,0,.78v30A18.74,18.74,0,0,1,269.06,103.84Z"/><polygon class="cls-7" points="188.56 87.88 191.82 106.91 174.73 97.92 157.63 106.91 160.89 87.88 147.06 74.39 166.18 71.61 169.9 64.07 174.73 54.29 179.54 64.04 183.28 71.61 202.39 74.39 188.56 87.88"/></g></g></svg>