<svg xmlns="http://www.w3.org/2000/svg" xmlns:xlink="http://www.w3.org/1999/xlink" viewBox="0 0 1925.57 649.92"><defs><style>.cls-1{fill:none;}.cls-2{fill:#ad4c8f;}.cls-3{fill:#20243f;}.cls-4{fill:#ff6448;}.cls-5{fill:#ff9b4f;}.cls-6{fill:#52398a;}.cls-7{fill:#fff;}.cls-8{fill:#202441;}.cls-9{fill:#ff634a;}.cls-10{fill:#533b89;}.cls-11{fill:#fd9e4e;}.cls-12{fill:#c159a4;}.cls-13{clip-path:url(#clip-path);}.cls-14{fill:#fefefe;}.cls-15{fill:#fdfdfd;}.cls-16{fill:#fcfcfc;}.cls-17{fill:#fbfbfb;}.cls-18{fill:#fafafa;}.cls-19{fill:#f9f9f9;}.cls-20{fill:#f8f8f8;}.cls-21{fill:#f7f7f7;}.cls-22{fill:#f6f6f6;}.cls-23{fill:#f5f5f5;}.cls-24{fill:#f4f4f4;}.cls-25{fill:#f3f3f3;}.cls-26{fill:#f2f2f2;}.cls-27{fill:#f1f1f1;}.cls-28{fill:#f0f0f0;}.cls-29{fill:#efefef;}.cls-30{fill:#eee;}.cls-31{fill:#ededed;}.cls-32{fill:#ececec;}.cls-33{fill:#ebebeb;}.cls-34{fill:#eaeaea;}.cls-35{fill:#e9e9e9;}.cls-36{fill:#e8e8e8;}.cls-37{fill:#e7e7e7;}.cls-38{fill:#e6e6e6;}.cls-39{fill:#e5e5e5;}.cls-40{fill:#e4e4e4;}.cls-41{fill:#e3e3e3;}.cls-42{fill:#e2e2e2;}.cls-43{fill:#e1e1e1;}.cls-44{fill:#e0e0e0;}.cls-45{fill:#dfdfdf;}.cls-46{fill:#dedede;}.cls-47{fill:#ddd;}.cls-48{fill:#dcdcdc;}.cls-49{fill:#dbdbdb;}.cls-50{fill:#dadada;}.cls-51{fill:#d9d9d9;}.cls-52{fill:#d8d8d8;}.cls-53{fill:#d7d7d7;}.cls-54{fill:#d6d6d6;}.cls-55{fill:#d5d5d5;}.cls-56{fill:#d4d4d4;}.cls-57{fill:#d3d3d3;}.cls-58{fill:#d2d2d2;}.cls-59{fill:#d1d1d1;}.cls-60{fill:#d0d0d0;}.cls-61{fill:#cfcfcf;}.cls-62{fill:#cecece;}.cls-63{fill:#cdcdcd;}.cls-64{fill:#ccc;}.cls-65{fill:#cbcbcb;}.cls-66{fill:#cacaca;}.cls-67{fill:#c9c9c9;}.cls-68{fill:#c8c8c8;}.cls-69{fill:#c7c7c7;}.cls-70{fill:#c6c6c6;}.cls-71{fill:#c5c5c5;}.cls-72{fill:#c4c4c4;}.cls-73{fill:#c3c3c3;}.cls-74{fill:#c2c2c2;}.cls-75{fill:#c1c1c1;}.cls-76{fill:silver;}.cls-77{fill:#bfbfbf;}.cls-78{fill:#bebebe;}.cls-79{fill:#bdbdbd;}.cls-80{fill:#bcbcbc;}.cls-81{fill:#bbb;}.cls-82{fill:#bababa;}.cls-83{fill:#b9b9b9;}.cls-84{fill:#b8b8b8;}.cls-85{fill:#b7b7b7;}.cls-86{fill:#b6b6b6;}.cls-87{fill:#b5b5b5;}.cls-88{fill:#b4b4b4;}.cls-89{fill:#b3b3b3;}.cls-90{fill:#b2b2b2;}.cls-91{fill:#b1b1b1;}.cls-92{fill:#b0b0b0;}.cls-93{fill:#afafaf;}.cls-94{fill:#aeaeae;}.cls-95{fill:#adadad;}.cls-96{fill:#acacac;}.cls-97{fill:#ababab;}.cls-98{fill:#a9a9a9;}.cls-99{fill:#a8a8a8;}.cls-100{fill:#a7a7a7;}.cls-101{fill:#a6a6a6;}.cls-102{fill:#a5a5a5;}.cls-103{fill:#a4a4a4;}.cls-104{fill:#a3a3a3;}.cls-105{fill:#a2a2a2;}.cls-106{fill:#a1a1a1;}.cls-107{fill:#a0a0a0;}.cls-108{fill:#9f9f9f;}.cls-109{fill:#9e9e9e;}.cls-110{fill:#9d9d9d;}.cls-111{fill:#9c9c9c;}.cls-112{fill:#9b9b9b;}.cls-113{fill:#9a9a9a;}.cls-114{fill:#999;}.cls-115{fill:#989898;}.cls-116{fill:#979797;}.cls-117{fill:#969696;}.cls-118{fill:#959595;}.cls-119{fill:#949494;}.cls-120{fill:#939393;}.cls-121{fill:#929292;}.cls-122{fill:#919191;}.cls-123{fill:#8f8f8f;}.cls-124{fill:#8e8e8e;}.cls-125{fill:#8d8d8d;}.cls-126{fill:#8c8c8c;}.cls-127{fill:#8b8b8b;}.cls-128{fill:#8a8a8a;}.cls-129{fill:#898989;}.cls-130{fill:#888;}.cls-131{fill:#878787;}.cls-132{fill:#868686;}.cls-133{fill:#858585;}.cls-134{fill:#848484;}.cls-135{fill:#838383;}.cls-136{fill:#828282;}.cls-137{fill:#818181;}.cls-138{fill:gray;}.cls-139{fill:#7f7f7f;}.cls-140{fill:#7d7d7d;}.cls-141{fill:#7c7c7c;}.cls-142{fill:#7b7b7b;}.cls-143{fill:#7a7a7a;}.cls-144{fill:#797979;}.cls-145{fill:#787878;}.cls-146{fill:#777;}.cls-147{fill:#767676;}.cls-148{fill:#757575;}.cls-149{fill:#747474;}.cls-150{fill:#737373;}.cls-151{fill:#727272;}.cls-152{fill:#717171;}.cls-153{fill:#707070;}.cls-154{fill:#6f6f6f;}.cls-155{fill:#6d6d6d;}.cls-156{fill:#6c6c6c;}.cls-157{fill:#6b6b6b;}.cls-158{fill:#6a6a6a;}.cls-159{fill:#696969;}.cls-160{fill:#686868;}.cls-161{fill:#676767;}.cls-162{fill:#666;}.cls-163{fill:#656565;}.cls-164{fill:#646464;}.cls-165{fill:#636363;}.cls-166{fill:#626262;}.cls-167{fill:#616161;}.cls-168{fill:#5f5f5f;}.cls-169{fill:#5e5e5e;}.cls-170{fill:#5d5d5d;}.cls-171{fill:#5c5c5c;}.cls-172{fill:#5b5b5b;}.cls-173{fill:#5a5a5a;}.cls-174{fill:#595959;}.cls-175{fill:#585858;}.cls-176{fill:#575757;}.cls-177{fill:#565656;}.cls-178{fill:#555;}.cls-179{fill:#545454;}.cls-180{fill:#525252;}.cls-181{fill:#515151;}.cls-182{fill:#505050;}.cls-183{fill:#4f4f4f;}.cls-184{fill:#4e4e4e;}.cls-185{fill:#4d4d4d;}.cls-186{fill:#ff644b;}.cls-187{fill:#191e31;}.cls-188{fill:#ffb884;}.cls-189{fill:#fd9c4d;}.cls-190{fill:#6350a1;}.cls-191{fill:#feffff;}.cls-192{fill:#fd9c4f;}.cls-193{fill:#f46c56;}.cls-194{fill:#d35a52;}.cls-195{fill:#e7e8ec;}.cls-196{fill:#473675;}.cls-197{fill:url(#linear-gradient);}.cls-198{fill:#ac4b8e;}.cls-199{fill:#313747;}.cls-200{fill:#f76150;}.cls-201{fill:#ffbeae;}.cls-202{fill:#fb634b;}.cls-203{fill:#af4c8f;}</style><clipPath id="clip-path"><polygon id="SVGID" class="cls-1" points="1194.64 271.04 1076.04 653.33 1354.5 653.33 1245.76 273.85 1194.64 271.04"/></clipPath><linearGradient id="linear-gradient" x1="758.27" y1="16.14" x2="671.78" y2="91.59" gradientUnits="userSpaceOnUse"><stop offset="0" stop-color="#fff" stop-opacity="0.4"/><stop offset="1" stop-color="#4d4d4d"/></linearGradient></defs><title>Final_Main_Illustration</title><g id="Layer_2" data-name="Layer 2"><g id="Layer_1-2" data-name="Layer 1"><polygon class="cls-2" points="242.42 208.25 288.67 349.21 193.96 349.21 242.42 208.25"/><line class="cls-3" x1="1444.25" y1="229.79" x2="1444.25" y2="306.57"/><rect x="1443.15" y="229.79" width="2.21" height="76.79"/><circle class="cls-4" cx="1444.25" cy="214.74" r="18.15"/><path class="cls-5" d="M99.32,649.92H949.9q-.43-110.05-.89-220.13a151.18,151.18,0,0,0-30.32-72.14c-29.8-38.17-69.2-50-82.32-53.33L678.6,305.65c-9.61.34-38.89.14-65.73-20.14-21.14-16-29.93-36.25-33.19-44a112.87,112.87,0,0,1-8.63-38.94c-.31-4.69-2.59-32.46-26.78-52.45-23.5-19.43-50.25-17.1-55.1-16.6H367.47c.27-12.49-6.87-23.71-17.71-28.1-13.18-5.33-25.17,2.13-26.33,2.88,0-20.49-11.77-37.88-28.1-42.93-17.28-5.34-33,5.19-35.41,6.86a46.46,46.46,0,0,0-16.6,21.24l-25.67,1.11a34.4,34.4,0,0,0-18.81,14.82c-7.2,12-4.12,24.19-3.54,26.34L165.65,135a36.73,36.73,0,0,0-27,27l-1.77,140.74c-2.52.13-20,1.29-31.86,16.6s-8.69,32.24-8.19,34.74Z"/><path class="cls-6" d="M160.46,649.72l442.68-6.11Q601.47,539.79,599.82,436c-19.59.53-85,.62-144.06-30.8-36.35-19.33-54.72-42.29-63.29-55.29L94.18,352.3q-3,113.73-6,227.46a78.33,78.33,0,0,0-14.6,13.37,59.05,59.05,0,0,0-9.3,15,62.42,62.42,0,0,0-25.89-2.85c-19,2-32.39,13.1-36.73,23.88-3.49,8.65-.81,16.26,1.42,20.54Z"/><path class="cls-5" d="M540.39,649.72q-.89-12.53-1.76-25.05c-6.11-37.4-31.27-64-58.86-66.38-16.43-1.39-29.91,6.17-37,11.06a100.89,100.89,0,0,0-2.65-30.09c-7.81-31.87-33.91-69.08-77.23-79.44-4.74-1.14-56.43-12.59-92.5,23.89-22.91,23.18-26,52-26.55,60.86-33.41-14.7-70.57-12.12-95.82,8.19-27.85,22.39-30.47,57.73-31.42,70.59a116.22,116.22,0,0,0,1,26.37Z"/><path class="cls-4" d="M1681.69,649.72V493.12q1.33-25.67,2.66-51.34c-.28-3.15-1.94-25.85,15.27-42.71,13.94-13.66,34.9-18.23,54.21-11.95l1.77-192.3c.17-1.25,1.2-10.38-5.53-17.48a21.47,21.47,0,0,0-13.28-6.42L1630.58,170c-13.72.68-37.2,4.17-57.54,20.8-11.29,9.23-18,19.54-21.91,25.67-15.11,23.65-11.59,35.54-23.9,52.89-5.59,7.89-15.42,18.26-33.63,26.55l-255.15-6q-11.45,179.86-22.9,359.74Z"/><polygon class="cls-7" points="444.85 649.72 391.43 412.35 335.44 649.72 444.85 649.72"/><polygon class="cls-7" points="344.24 649.72 313.13 511.49 280.53 649.72 344.24 649.72"/><rect class="cls-8" x="1583.91" y="423.53" width="6.66" height="31.5"/><path class="cls-2" d="M1600.81,412.22a13.61,13.61,0,1,1-27.21,0c0-.15,0-.3,0-.45h0l2.6-7.56,11.35-33,11,33.55h0l2.22,6.77C1600.8,411.75,1600.81,412,1600.81,412.22Z"/><rect class="cls-8" x="1616.22" y="422.43" width="6.66" height="31.5"/><path class="cls-2" d="M1633.12,411.12a13.61,13.61,0,0,1-27.21,0c0-.16,0-.31,0-.46h0l2.59-7.55,11.36-33,11,33.56h0l2.22,6.76C1633.11,410.64,1633.12,410.88,1633.12,411.12Z"/><rect class="cls-8" x="1692.51" y="133.68" width="12.12" height="57.36"/><path class="cls-2" d="M1723.28,113.08a24.77,24.77,0,0,1-49.54,0c0-.27,0-.55,0-.82h0l4.73-13.76,20.67-60.13,20,61.09h0l4,12.32Q1723.28,112.44,1723.28,113.08Z"/><path class="cls-2" d="M1925.55,649.13c.06-1.72.27-12.88-8.63-21.25-10.23-9.63-23.53-7.11-24.78-6.86a30.65,30.65,0,0,0-7.08-17.92c-7.93-9.14-21.48-12.52-34.75-8.85q-12.49-43.38-25-86.75a107.64,107.64,0,0,0-26.56-40.05,109.08,109.08,0,0,0-57.53-28.1h-187a90.63,90.63,0,0,0-17.92-43.16,88.75,88.75,0,0,0-29-24.34,87.29,87.29,0,0,0-39-9.73l-283.69-2.22V638.08Z"/><polygon class="cls-9" points="1697.76 649.72 1652.26 511.04 1604.59 649.72 1697.76 649.72"/><polygon class="cls-7" points="1766.16 649.72 1717.11 500.21 1665.7 649.72 1766.16 649.72"/><rect class="cls-8" x="1555.18" y="583" width="19.12" height="66.72"/><path class="cls-5" d="M1603.7,550.52a39.06,39.06,0,1,1-78.12,0c0-.44,0-.87,0-1.3h0l7.46-21.69,32.6-94.82L1597.27,529h0l6.37,19.44Q1603.7,549.48,1603.7,550.52Z"/><rect class="cls-8" x="1416.59" y="504.63" width="20.58" height="97.37"/><polygon class="cls-10" points="1428.99 405.27 1484.75 509.05 1370.56 509.05 1428.99 405.27"/><polygon class="cls-10" points="1427.44 322.29 1483.2 426.07 1369.01 426.07 1427.44 322.29"/><rect class="cls-8" x="153.5" y="294.07" width="12.31" height="58.24"/><polygon class="cls-10" points="160.92 234.65 194.27 296.72 125.97 296.72 160.92 234.65"/><polygon class="cls-10" points="159.99 185.01 193.34 247.09 125.05 247.09 159.99 185.01"/><path class="cls-5" d="M1576.79,500.64l.48-1.39c0,.46,0,.93,0,1.39Z"/><path class="cls-11" d="M1292.67,317.2a12.31,12.31,0,0,1,1.8,1.22,20.08,20.08,0,0,1,1.54,1.32,23.32,23.32,0,0,1,2.54,2.87,27.18,27.18,0,0,1,3.54,6.34,26.76,26.76,0,0,1,1.78,7,24.21,24.21,0,0,1,.12,3.83c0,.66-.11,1.33-.22,2a12.67,12.67,0,0,1-.48,2.13,13,13,0,0,1-1.81-1.22c-.55-.43-1.06-.87-1.54-1.32a23.32,23.32,0,0,1-2.54-2.87,26.65,26.65,0,0,1-3.53-6.35,27.14,27.14,0,0,1-1.77-7,24.21,24.21,0,0,1-.12-3.83c0-.66.11-1.33.21-2A13.37,13.37,0,0,1,1292.67,317.2Z"/><path class="cls-12" d="M1347.11,429a14.63,14.63,0,0,1,2.12.49c.66.21,1.3.44,1.91.7a23.58,23.58,0,0,1,3.39,1.77,27.83,27.83,0,0,1,9.75,10.61,24.34,24.34,0,0,1,1.47,3.54,19.56,19.56,0,0,1,.52,2,12.91,12.91,0,0,1,.31,2.16,14.47,14.47,0,0,1-2.13-.49c-.66-.21-1.3-.44-1.91-.7a22.73,22.73,0,0,1-3.4-1.77,26.76,26.76,0,0,1-5.56-4.67,27.06,27.06,0,0,1-4.16-6,23.48,23.48,0,0,1-1.48-3.54c-.2-.62-.37-1.28-.52-2A12.94,12.94,0,0,1,1347.11,429Z"/><path class="cls-12" d="M1358.61,479.84a10.19,10.19,0,0,1,1.55.88,12.72,12.72,0,0,1,1.27.95,13.94,13.94,0,0,1,2,2.09,14.4,14.4,0,0,1,2.41,4.64,14.22,14.22,0,0,1,.59,5.2,13.51,13.51,0,0,1-.51,2.84,15.07,15.07,0,0,1-.52,1.51,11.39,11.39,0,0,1-.81,1.59,10.83,10.83,0,0,1-1.56-.88,12.72,12.72,0,0,1-1.27-1,13.48,13.48,0,0,1-2-2.09,13.91,13.91,0,0,1-2.39-4.65,14.17,14.17,0,0,1,.44-9.54A10.76,10.76,0,0,1,1358.61,479.84Z"/><path class="cls-12" d="M1420.8,535.38a12.54,12.54,0,0,1,.33,2c0,.63.08,1.23.07,1.82a18.13,18.13,0,0,1-.34,3.36,20.9,20.9,0,0,1-6,11,18.14,18.14,0,0,1-2.64,2.12,17,17,0,0,1-1.57.91,11.85,11.85,0,0,1-1.83.78,11.21,11.21,0,0,1-.34-2,16.13,16.13,0,0,1-.08-1.82,18.22,18.22,0,0,1,.34-3.36,21.14,21.14,0,0,1,6-10.95,18.65,18.65,0,0,1,2.64-2.11,14.07,14.07,0,0,1,1.57-.92A12.43,12.43,0,0,1,1420.8,535.38Z"/><path class="cls-12" d="M1533.43,461a12.2,12.2,0,0,1-.18-2c0-.64,0-1.26.06-1.87a19.64,19.64,0,0,1,.61-3.43,22,22,0,0,1,2.62-6,21.65,21.65,0,0,1,4.23-5,19.39,19.39,0,0,1,2.82-2,17.25,17.25,0,0,1,1.66-.87,12.75,12.75,0,0,1,1.9-.72,12.38,12.38,0,0,1,.19,2c0,.64,0,1.27-.06,1.87a19.64,19.64,0,0,1-.61,3.43,21.59,21.59,0,0,1-2.63,6,22.12,22.12,0,0,1-4.24,5,19.39,19.39,0,0,1-2.82,2,18.31,18.31,0,0,1-1.65.87A12.11,12.11,0,0,1,1533.43,461Z"/><path class="cls-11" d="M1466.38,318.52a19,19,0,0,1,1.65,2.05c.5.69.94,1.4,1.36,2.1a37.92,37.92,0,0,1,2.17,4.32,45.15,45.15,0,0,1,2.71,8.95,44.28,44.28,0,0,1,.84,9.3,34.56,34.56,0,0,1-.4,4.82q-.18,1.21-.48,2.46a18.51,18.51,0,0,1-.77,2.52,19,19,0,0,1-1.65-2.05c-.5-.69-1-1.4-1.37-2.1a37.92,37.92,0,0,1-2.17-4.32,44.43,44.43,0,0,1-2.69-8.95,45,45,0,0,1-.84-9.31,37.89,37.89,0,0,1,.4-4.81q.18-1.22.48-2.46A20,20,0,0,1,1466.38,318.52Z"/><path class="cls-11" d="M1540.29,336.67a20.2,20.2,0,0,1,.5-2.7c.21-.87.46-1.71.73-2.53a40.16,40.16,0,0,1,1.92-4.72A51.62,51.62,0,0,1,1555.27,311a40.43,40.43,0,0,1,4-3.14c.72-.48,1.45-.95,2.23-1.39a18.3,18.3,0,0,1,2.47-1.22,18.72,18.72,0,0,1-.5,2.7c-.2.87-.45,1.71-.72,2.53a40.16,40.16,0,0,1-1.92,4.72,49.75,49.75,0,0,1-5.17,8.42,50.43,50.43,0,0,1-6.68,7.28,41.63,41.63,0,0,1-4,3.14c-.72.49-1.45,1-2.23,1.4A18.81,18.81,0,0,1,1540.29,336.67Z"/><path class="cls-11" d="M1633.67,229.34a13.27,13.27,0,0,1-.22-2.1,18.39,18.39,0,0,1,0-2,22.27,22.27,0,0,1,.55-3.65,25.2,25.2,0,0,1,2.54-6.5,24.86,24.86,0,0,1,4.2-5.57,20.76,20.76,0,0,1,2.83-2.37,18.07,18.07,0,0,1,1.66-1.05,13.14,13.14,0,0,1,1.92-.91,13.65,13.65,0,0,1,.24,2.11c0,.68,0,1.33,0,2a21.51,21.51,0,0,1-.54,3.66,25.56,25.56,0,0,1-6.76,12,23,23,0,0,1-2.83,2.38c-.52.36-1.07.71-1.66,1.05A13.12,13.12,0,0,1,1633.67,229.34Z"/><path class="cls-11" d="M1737.46,196.37a15.25,15.25,0,0,1,1.91,1.21c.59.43,1.14.88,1.66,1.34a26.29,26.29,0,0,1,2.79,2.91,30.41,30.41,0,0,1,4.07,6.51,30,30,0,0,1,2.35,7.31,24.87,24.87,0,0,1,.42,4c0,.69,0,1.4-.05,2.12a14.17,14.17,0,0,1-.32,2.25,14,14,0,0,1-1.92-1.21,20.12,20.12,0,0,1-1.66-1.33,25.4,25.4,0,0,1-2.79-2.91,30.36,30.36,0,0,1-4.06-6.51,30.68,30.68,0,0,1-2.34-7.32,26.05,26.05,0,0,1-.42-4c0-.69,0-1.4.05-2.12A14.27,14.27,0,0,1,1737.46,196.37Z"/><path class="cls-11" d="M1727.72,288.43a15.38,15.38,0,0,1-.18,2.4c-.11.77-.25,1.51-.42,2.24a31.4,31.4,0,0,1-1.31,4.15,35.63,35.63,0,0,1-4,7.35,35.22,35.22,0,0,1-5.53,6.27,28.86,28.86,0,0,1-3.45,2.65,22,22,0,0,1-2,1.16,15.91,15.91,0,0,1-2.2,1,15.51,15.51,0,0,1,.18-2.41,22.2,22.2,0,0,1,.42-2.24,30.54,30.54,0,0,1,1.3-4.16,37,37,0,0,1,9.53-13.6,30.83,30.83,0,0,1,3.45-2.65,22,22,0,0,1,2-1.16A14.69,14.69,0,0,1,1727.72,288.43Z"/><path class="cls-11" d="M1741.88,345.52a13.89,13.89,0,0,1,.45,2.14c.09.69.15,1.37.17,2a24.33,24.33,0,0,1-.17,3.85,28.26,28.26,0,0,1-5.52,13.39,24.63,24.63,0,0,1-2.6,2.85,18.6,18.6,0,0,1-1.56,1.31,13.19,13.19,0,0,1-1.83,1.21,14,14,0,0,1-.45-2.15c-.09-.69-.15-1.37-.18-2a23.18,23.18,0,0,1,.18-3.85,28,28,0,0,1,5.54-13.38,23.66,23.66,0,0,1,2.59-2.85,20.35,20.35,0,0,1,1.56-1.31A13.07,13.07,0,0,1,1741.88,345.52Z"/><path class="cls-11" d="M1624.38,327.82a12.54,12.54,0,0,1,.14,2.17,19,19,0,0,1-.1,2,23.51,23.51,0,0,1-.7,3.77,27.35,27.35,0,0,1-2.83,6.68,26.94,26.94,0,0,1-4.46,5.71,23.76,23.76,0,0,1-3,2.44c-.55.37-1.12.73-1.73,1.07a12.49,12.49,0,0,1-2,.92,13.82,13.82,0,0,1-.15-2.17c0-.7,0-1.37.11-2a23.39,23.39,0,0,1,.69-3.76,27.65,27.65,0,0,1,7.32-12.39,22.85,22.85,0,0,1,3-2.43,19.35,19.35,0,0,1,1.72-1.08A12.8,12.8,0,0,1,1624.38,327.82Z"/><path class="cls-12" d="M1659.12,444a11.82,11.82,0,0,1,2,.49c.6.2,1.17.42,1.72.66a19.6,19.6,0,0,1,3,1.68,21.25,21.25,0,0,1,4.67,4.39,21,21,0,0,1,3.19,5.56,18.59,18.59,0,0,1,.94,3.3,17.56,17.56,0,0,1,.24,1.83,12.2,12.2,0,0,1,0,2,12.09,12.09,0,0,1-1.95-.48c-.6-.2-1.17-.42-1.72-.66a18.68,18.68,0,0,1-3-1.68,21.07,21.07,0,0,1-4.67-4.4,21.34,21.34,0,0,1-3.18-5.57,19.47,19.47,0,0,1-.93-3.3,17,17,0,0,1-.25-1.82A12.15,12.15,0,0,1,1659.12,444Z"/><path class="cls-12" d="M1681.91,495.11a12.44,12.44,0,0,1-.22-2,16.92,16.92,0,0,1,0-1.89,20.09,20.09,0,0,1,.53-3.48,22.83,22.83,0,0,1,2.5-6.13,22,22,0,0,1,4.13-5.16,19.13,19.13,0,0,1,2.79-2.16c.51-.33,1.06-.64,1.64-.94a12.62,12.62,0,0,1,1.89-.78,12.68,12.68,0,0,1,.24,2c0,.64,0,1.27,0,1.88a20.36,20.36,0,0,1-.53,3.49,22.47,22.47,0,0,1-2.51,6.12,22.8,22.8,0,0,1-4.14,5.16,21.27,21.27,0,0,1-2.79,2.16,17.1,17.1,0,0,1-1.64.93A12.2,12.2,0,0,1,1681.91,495.11Z"/><path class="cls-12" d="M1614.64,515.69a11.38,11.38,0,0,1,1.75.83c.53.31,1,.63,1.49,1a17.19,17.19,0,0,1,2.45,2.16,19.32,19.32,0,0,1,5.1,10.83,17.65,17.65,0,0,1,.09,3.27,16,16,0,0,1-.22,1.76,10.61,10.61,0,0,1-.48,1.88,12.4,12.4,0,0,1-1.75-.83c-.53-.31-1-.63-1.49-1a17.88,17.88,0,0,1-2.46-2.15,18.87,18.87,0,0,1-3.39-5,18.55,18.55,0,0,1-1.68-5.82,16.83,16.83,0,0,1-.09-3.27,13.66,13.66,0,0,1,.21-1.75A11.23,11.23,0,0,1,1614.64,515.69Z"/><path class="cls-12" d="M1690.54,508.39a10.84,10.84,0,0,1,.4,1.87,15.19,15.19,0,0,1,.13,1.74,16,16,0,0,1-.23,3.22,18.66,18.66,0,0,1-5.52,10.4,16.56,16.56,0,0,1-2.54,2,16.79,16.79,0,0,1-1.52.86,10.82,10.82,0,0,1-1.78.72,10.94,10.94,0,0,1-.4-1.88c-.08-.6-.12-1.18-.14-1.74a17.63,17.63,0,0,1,.23-3.22,18.12,18.12,0,0,1,1.94-5.64,18.35,18.35,0,0,1,3.6-4.75,17.06,17.06,0,0,1,2.54-2,16.79,16.79,0,0,1,1.52-.86A11.07,11.07,0,0,1,1690.54,508.39Z"/><path class="cls-12" d="M1688.53,618.12a56.12,56.12,0,0,0,1.61,5.76,70.11,70.11,0,0,0,4.7,10.75,69.06,69.06,0,0,0,6.36,9.84,57.1,57.1,0,0,0,3.91,4.53l.72.72h3.63c-.14-1-.31-1.87-.51-2.79a54.38,54.38,0,0,0-1.62-5.76,69,69,0,0,0-4.7-10.74,69.91,69.91,0,0,0-6.37-9.83,55.25,55.25,0,0,0-3.92-4.53c-.7-.73-1.43-1.44-2.21-2.13a27.35,27.35,0,0,0-2.46-2,26.49,26.49,0,0,0,.3,3.15C1688.12,616.13,1688.31,617.13,1688.53,618.12Z"/><path class="cls-12" d="M1718,628.77a9.23,9.23,0,0,1,.17,1.75c0,.55,0,1.07-.05,1.57a13.73,13.73,0,0,1-3,7.3,13.3,13.3,0,0,1-3.89,3.34,13.44,13.44,0,0,1-2.6,1.15,14.62,14.62,0,0,1-1.52.39,10.11,10.11,0,0,1-1.75.21,10.32,10.32,0,0,1-.17-1.75,13.54,13.54,0,0,1,0-1.58,13.82,13.82,0,0,1,.56-2.78,13.38,13.38,0,0,1,2.42-4.52,13.87,13.87,0,0,1,3.89-3.33,13.7,13.7,0,0,1,2.6-1.14,13,13,0,0,1,1.52-.4A10.11,10.11,0,0,1,1718,628.77Z"/><path class="cls-12" d="M1806.72,597.35a11,11,0,0,1-.35-1.82,13.83,13.83,0,0,1-.1-1.67,15.6,15.6,0,0,1,.29-3,16.56,16.56,0,0,1,5.63-9.52,15.8,15.8,0,0,1,2.53-1.72c.48-.25,1-.49,1.52-.71a12.3,12.3,0,0,1,1.77-.56,11.15,11.15,0,0,1,.35,1.82,14,14,0,0,1,.11,1.67,15.63,15.63,0,0,1-.29,3.05,16.26,16.26,0,0,1-2,5.24,16.51,16.51,0,0,1-3.64,4.27,15.43,15.43,0,0,1-2.54,1.71,14.07,14.07,0,0,1-1.51.71A11,11,0,0,1,1806.72,597.35Z"/><path class="cls-12" d="M1772.2,492.23a15.74,15.74,0,0,1-2.11-1.21c-.66-.43-1.28-.89-1.87-1.36a29.86,29.86,0,0,1-3.23-3,36.69,36.69,0,0,1-5-6.82,36.3,36.3,0,0,1-3.39-7.78,29.57,29.57,0,0,1-1-4.3c-.11-.75-.2-1.51-.24-2.29a16.77,16.77,0,0,1,0-2.45,17.05,17.05,0,0,1,2.12,1.21c.66.43,1.28.89,1.87,1.36a30,30,0,0,1,3.24,3A37.75,37.75,0,0,1,1771,483.2a29.57,29.57,0,0,1,1,4.3c.11.75.2,1.51.24,2.3A15.19,15.19,0,0,1,1772.2,492.23Z"/><path class="cls-7" d="M1323.1,649.72h277.07c-1-9.24-6.37-17-14.07-20.07-8.21-3.25-15.94.08-17.71.89,1.12-11.61-4.09-22.74-13.49-28.55-13-8-27.09-1.52-30.1,0-13.42,6.78-17.14,20.19-17.7,22.35-3.38-4.31-14.54-17.41-33.64-21.24a54.87,54.87,0,0,0-22.35.22c.73-6.17,1.91-23.47-8.85-39-14.79-21.27-42.43-25.18-58.64-22.35-33.43,5.84-62.14,48-61.3,103.79Z"/><g class="cls-13"><polygon class="cls-7" points="1354.5 649.72 1354.5 647.24 1076.91 630.95 1076.04 645.78 1076.04 649.72 1354.5 649.72"/><polygon class="cls-7" points="1076.91 630.95 1077.03 628.96 1354.5 645.25 1354.5 647.24 1076.91 630.95"/><polygon class="cls-14" points="1077.03 628.96 1077.14 626.97 1354.5 643.25 1354.5 645.25 1077.03 628.96"/><polygon class="cls-14" points="1077.14 626.97 1077.26 624.98 1354.5 641.25 1354.5 643.25 1077.14 626.97"/><polygon class="cls-15" points="1077.26 624.98 1077.38 622.98 1354.5 639.25 1354.5 641.25 1077.26 624.98"/><polygon class="cls-16" points="1077.38 622.98 1077.49 620.99 1354.5 637.25 1354.5 639.25 1077.38 622.98"/><polygon class="cls-17" points="1077.49 620.99 1077.61 619 1354.5 635.26 1354.5 637.25 1077.49 620.99"/><polygon class="cls-18" points="1077.61 619 1077.73 617.01 1354.5 633.26 1354.5 635.26 1077.61 619"/><polygon class="cls-18" points="1077.73 617.01 1077.84 615.02 1354.5 631.26 1354.5 633.26 1077.73 617.01"/><polygon class="cls-19" points="1077.84 615.02 1077.96 613.03 1354.5 629.26 1354.5 631.26 1077.84 615.02"/><polygon class="cls-20" points="1077.96 613.03 1078.08 611.04 1354.5 627.27 1354.5 629.26 1077.96 613.03"/><polygon class="cls-21" points="1078.08 611.04 1078.19 609.05 1354.5 625.27 1354.5 627.27 1078.08 611.04"/><polygon class="cls-22" points="1078.19 609.05 1078.31 607.06 1354.5 623.27 1354.5 625.27 1078.19 609.05"/><polygon class="cls-23" points="1078.31 607.06 1078.43 605.07 1354.5 621.27 1354.5 623.27 1078.31 607.06"/><polygon class="cls-24" points="1078.43 605.07 1078.54 603.08 1354.5 619.28 1354.5 621.27 1078.43 605.07"/><polygon class="cls-24" points="1078.54 603.08 1078.66 601.09 1354.5 617.28 1354.5 619.28 1078.54 603.08"/><polygon class="cls-25" points="1078.66 601.09 1078.78 599.1 1354.5 615.28 1354.5 617.28 1078.66 601.09"/><polygon class="cls-26" points="1078.78 599.1 1078.89 597.11 1354.5 613.28 1354.5 615.28 1078.78 599.1"/><polygon class="cls-27" points="1078.89 597.11 1079.01 595.11 1354.5 611.29 1354.5 613.28 1078.89 597.11"/><polygon class="cls-28" points="1079.01 595.11 1079.13 593.12 1354.5 609.29 1354.5 611.29 1079.01 595.11"/><polygon class="cls-29" points="1079.13 593.12 1079.25 591.13 1354.5 607.29 1354.5 609.29 1079.13 593.12"/><polygon class="cls-30" points="1079.25 591.13 1079.36 589.14 1354.5 605.29 1354.5 607.29 1079.25 591.13"/><polygon class="cls-31" points="1079.36 589.14 1079.48 587.15 1354.5 603.3 1354.5 605.29 1079.36 589.14"/><polygon class="cls-32" points="1079.48 587.15 1079.6 585.16 1354.5 601.3 1354.5 603.3 1079.48 587.15"/><polygon class="cls-32" points="1079.6 585.16 1079.71 583.17 1354.5 599.3 1354.5 601.3 1079.6 585.16"/><polygon class="cls-33" points="1079.71 583.17 1079.83 581.18 1354.5 597.3 1354.5 599.3 1079.71 583.17"/><polygon class="cls-34" points="1079.83 581.18 1079.95 579.19 1354.5 595.31 1354.5 597.3 1079.83 581.18"/><polygon class="cls-35" points="1079.95 579.19 1080.06 577.2 1354.5 593.31 1354.5 595.31 1079.95 579.19"/><polygon class="cls-36" points="1080.06 577.2 1080.18 575.21 1354.5 591.31 1354.5 593.31 1080.06 577.2"/><polygon class="cls-37" points="1080.18 575.21 1080.3 573.22 1354.5 589.31 1354.5 591.31 1080.18 575.21"/><polygon class="cls-38" points="1080.3 573.22 1080.41 571.23 1354.5 587.32 1354.5 589.31 1080.3 573.22"/><polygon class="cls-39" points="1080.41 571.23 1080.53 569.24 1354.5 585.32 1354.5 587.32 1080.41 571.23"/><polygon class="cls-40" points="1080.53 569.24 1080.65 567.24 1354.5 583.32 1354.5 585.32 1080.53 569.24"/><polygon class="cls-41" points="1080.65 567.24 1080.77 565.25 1354.5 581.32 1354.5 583.32 1080.65 567.24"/><polygon class="cls-42" points="1080.77 565.25 1080.88 563.26 1354.5 579.33 1354.5 581.32 1080.77 565.25"/><polygon class="cls-43" points="1080.88 563.26 1081 561.27 1354.5 577.33 1354.5 579.33 1080.88 563.26"/><polygon class="cls-44" points="1081 561.27 1081.12 559.28 1354.5 575.33 1354.5 577.33 1081 561.27"/><polygon class="cls-45" points="1081.12 559.28 1081.23 557.29 1354.5 573.33 1354.5 575.33 1081.12 559.28"/><polygon class="cls-46" points="1081.23 557.29 1081.35 555.3 1354.5 571.34 1354.5 573.33 1081.23 557.29"/><polygon class="cls-47" points="1081.35 555.3 1081.47 553.31 1354.5 569.34 1354.5 571.34 1081.35 555.3"/><polygon class="cls-48" points="1081.47 553.31 1081.58 551.32 1354.5 567.34 1354.5 569.34 1081.47 553.31"/><polygon class="cls-49" points="1081.58 551.32 1081.7 549.33 1354.5 565.34 1354.5 567.34 1081.58 551.32"/><polygon class="cls-49" points="1081.7 549.33 1081.82 547.34 1354.5 563.35 1354.5 565.34 1081.7 549.33"/><polygon class="cls-50" points="1081.82 547.34 1081.93 545.35 1354.5 561.35 1354.5 563.35 1081.82 547.34"/><polygon class="cls-51" points="1081.93 545.35 1082.05 543.36 1354.5 559.35 1354.5 561.35 1081.93 545.35"/><polygon class="cls-52" points="1082.05 543.36 1082.17 541.37 1354.5 557.35 1354.5 559.35 1082.05 543.36"/><polygon class="cls-53" points="1082.17 541.37 1082.28 539.37 1354.5 555.36 1354.5 557.35 1082.17 541.37"/><polygon class="cls-54" points="1082.28 539.37 1082.4 537.38 1354.5 553.36 1354.5 555.36 1082.28 539.37"/><polygon class="cls-55" points="1082.4 537.38 1082.52 535.39 1354.5 551.36 1354.5 553.36 1082.4 537.38"/><polygon class="cls-56" points="1082.52 535.39 1082.63 533.4 1354.5 549.36 1354.5 551.36 1082.52 535.39"/><polygon class="cls-57" points="1082.63 533.4 1082.75 531.41 1354.5 547.36 1354.5 549.36 1082.63 533.4"/><polygon class="cls-58" points="1082.75 531.41 1082.87 529.42 1354.5 545.37 1354.5 547.36 1082.75 531.41"/><polygon class="cls-59" points="1082.87 529.42 1082.98 527.43 1354.5 543.37 1354.5 545.37 1082.87 529.42"/><polygon class="cls-60" points="1082.98 527.43 1083.1 525.44 1354.5 541.37 1354.5 543.37 1082.98 527.43"/><polygon class="cls-61" points="1083.1 525.44 1083.22 523.45 1354.5 539.37 1354.5 541.37 1083.1 525.44"/><polygon class="cls-62" points="1083.22 523.45 1083.34 521.46 1354.5 537.38 1354.5 539.37 1083.22 523.45"/><polygon class="cls-63" points="1083.34 521.46 1083.45 519.47 1354.5 535.38 1354.5 537.38 1083.34 521.46"/><polygon class="cls-64" points="1083.45 519.47 1083.57 517.48 1354.5 533.38 1354.5 535.38 1083.45 519.47"/><polygon class="cls-65" points="1083.57 517.48 1083.69 515.49 1354.5 531.38 1354.5 533.38 1083.57 517.48"/><polygon class="cls-66" points="1083.69 515.49 1083.8 513.5 1354.5 529.39 1354.5 531.38 1083.69 515.49"/><polygon class="cls-67" points="1083.8 513.5 1083.92 511.5 1354.5 527.39 1354.5 529.39 1083.8 513.5"/><polygon class="cls-68" points="1083.92 511.5 1084.04 509.51 1354.5 525.39 1354.5 527.39 1083.92 511.5"/><polygon class="cls-69" points="1084.04 509.51 1084.15 507.52 1354.5 523.39 1354.5 525.39 1084.04 509.51"/><polygon class="cls-70" points="1084.15 507.52 1084.27 505.53 1354.5 521.4 1354.5 523.39 1084.15 507.52"/><polygon class="cls-71" points="1084.27 505.53 1084.39 503.54 1354.5 519.4 1354.5 521.4 1084.27 505.53"/><polygon class="cls-72" points="1084.39 503.54 1084.5 501.55 1354.5 517.4 1354.5 519.4 1084.39 503.54"/><polygon class="cls-73" points="1084.5 501.55 1084.62 499.56 1354.5 515.4 1354.5 517.4 1084.5 501.55"/><polygon class="cls-74" points="1084.62 499.56 1084.74 497.57 1354.5 513.41 1354.5 515.4 1084.62 499.56"/><polygon class="cls-75" points="1084.74 497.57 1084.86 495.58 1354.5 511.41 1354.5 513.41 1084.74 497.57"/><polygon class="cls-76" points="1084.86 495.58 1084.97 493.59 1354.5 509.41 1354.5 511.41 1084.86 495.58"/><polygon class="cls-77" points="1084.97 493.59 1085.09 491.6 1354.5 507.41 1354.5 509.41 1084.97 493.59"/><polygon class="cls-78" points="1085.09 491.6 1085.21 489.61 1354.5 505.42 1354.5 507.41 1085.09 491.6"/><polygon class="cls-79" points="1085.21 489.61 1085.32 487.62 1354.5 503.42 1354.5 505.42 1085.21 489.61"/><polygon class="cls-80" points="1085.32 487.62 1085.44 485.63 1354.5 501.42 1354.5 503.42 1085.32 487.62"/><polygon class="cls-81" points="1085.44 485.63 1085.56 483.63 1354.5 499.42 1354.5 501.42 1085.44 485.63"/><polygon class="cls-82" points="1085.56 483.63 1085.67 481.64 1354.5 497.43 1354.5 499.42 1085.56 483.63"/><polygon class="cls-83" points="1085.67 481.64 1085.79 479.65 1354.5 495.43 1354.5 497.43 1085.67 481.64"/><polygon class="cls-84" points="1085.79 479.65 1085.91 477.66 1354.5 493.43 1354.5 495.43 1085.79 479.65"/><polygon class="cls-85" points="1085.91 477.66 1086.02 475.67 1354.5 491.43 1354.5 493.43 1085.91 477.66"/><polygon class="cls-86" points="1086.02 475.67 1086.14 473.68 1354.5 489.44 1354.5 491.43 1086.02 475.67"/><polygon class="cls-87" points="1086.14 473.68 1086.26 471.69 1354.5 487.44 1354.5 489.44 1086.14 473.68"/><polygon class="cls-88" points="1086.26 471.69 1086.37 469.7 1354.5 485.44 1354.5 487.44 1086.26 471.69"/><polygon class="cls-89" points="1086.37 469.7 1086.49 467.71 1354.5 483.44 1354.5 485.44 1086.37 469.7"/><polygon class="cls-90" points="1086.49 467.71 1086.61 465.72 1354.5 481.44 1354.5 483.44 1086.49 467.71"/><polygon class="cls-91" points="1086.61 465.72 1086.72 463.73 1354.5 479.45 1354.5 481.44 1086.61 465.72"/><polygon class="cls-92" points="1086.72 463.73 1086.84 461.74 1354.5 477.45 1354.5 479.45 1086.72 463.73"/><polygon class="cls-93" points="1086.84 461.74 1086.96 459.75 1354.5 475.45 1354.5 477.45 1086.84 461.74"/><polygon class="cls-94" points="1086.96 459.75 1087.08 457.75 1354.5 473.45 1354.5 475.45 1086.96 459.75"/><polygon class="cls-95" points="1087.08 457.75 1087.19 455.76 1354.5 471.46 1354.5 473.45 1087.08 457.75"/><polygon class="cls-96" points="1087.19 455.76 1087.31 453.77 1354.5 469.46 1354.5 471.46 1087.19 455.76"/><polygon class="cls-97" points="1087.31 453.77 1087.43 451.78 1354.5 467.46 1354.5 469.46 1087.31 453.77"/><polygon class="cls-98" points="1087.43 451.78 1087.54 449.79 1354.5 465.46 1354.5 467.46 1087.43 451.78"/><polygon class="cls-99" points="1087.54 449.79 1087.66 447.8 1354.5 463.47 1354.5 465.46 1087.54 449.79"/><polygon class="cls-100" points="1087.66 447.8 1087.78 445.81 1354.5 461.47 1354.5 463.47 1087.66 447.8"/><polygon class="cls-101" points="1087.78 445.81 1087.89 443.82 1354.5 459.47 1354.5 461.47 1087.78 445.81"/><polygon class="cls-102" points="1087.89 443.82 1088.01 441.83 1354.5 457.47 1354.5 459.47 1087.89 443.82"/><polygon class="cls-103" points="1088.01 441.83 1088.13 439.84 1354.5 455.48 1354.5 457.47 1088.01 441.83"/><polygon class="cls-104" points="1088.13 439.84 1088.24 437.85 1354.5 453.48 1354.5 455.48 1088.13 439.84"/><polygon class="cls-105" points="1088.24 437.85 1088.36 435.86 1354.5 451.48 1354.5 453.48 1088.24 437.85"/><polygon class="cls-106" points="1088.36 435.86 1088.48 433.87 1354.5 449.48 1354.5 451.48 1088.36 435.86"/><polygon class="cls-107" points="1088.48 433.87 1088.6 431.88 1354.5 447.49 1354.5 449.48 1088.48 433.87"/><polygon class="cls-108" points="1088.6 431.88 1088.71 429.89 1354.5 445.49 1354.5 447.49 1088.6 431.88"/><polygon class="cls-109" points="1088.71 429.89 1088.83 427.89 1354.5 443.49 1354.5 445.49 1088.71 429.89"/><polygon class="cls-110" points="1088.83 427.89 1088.94 425.9 1354.5 441.49 1354.5 443.49 1088.83 427.89"/><polygon class="cls-111" points="1088.94 425.9 1089.06 423.91 1354.5 439.5 1354.5 441.49 1088.94 425.9"/><polygon class="cls-112" points="1089.06 423.91 1089.18 421.92 1354.5 437.5 1354.5 439.5 1089.06 423.91"/><polygon class="cls-113" points="1089.18 421.92 1089.3 419.93 1354.5 435.5 1354.5 437.5 1089.18 421.92"/><polygon class="cls-114" points="1089.3 419.93 1089.41 417.94 1354.5 433.5 1354.5 435.5 1089.3 419.93"/><polygon class="cls-115" points="1089.41 417.94 1089.53 415.95 1354.5 431.51 1354.5 433.5 1089.41 417.94"/><polygon class="cls-116" points="1089.53 415.95 1089.65 413.96 1354.5 429.51 1354.5 431.51 1089.53 415.95"/><polygon class="cls-117" points="1089.65 413.96 1089.76 411.97 1354.5 427.51 1354.5 429.51 1089.65 413.96"/><polygon class="cls-118" points="1089.76 411.97 1089.88 409.98 1354.5 425.51 1354.5 427.51 1089.76 411.97"/><polygon class="cls-119" points="1089.88 409.98 1090 407.99 1354.5 423.51 1354.5 425.51 1089.88 409.98"/><polygon class="cls-120" points="1090 407.99 1090.11 406 1354.5 421.52 1354.5 423.51 1090 407.99"/><polygon class="cls-121" points="1090.11 406 1090.23 404.01 1354.5 419.52 1354.5 421.52 1090.11 406"/><polygon class="cls-122" points="1090.23 404.01 1090.35 402.02 1354.5 417.52 1354.5 419.52 1090.23 404.01"/><polygon class="cls-123" points="1090.35 402.02 1090.46 400.02 1354.5 415.52 1354.5 417.52 1090.35 402.02"/><polygon class="cls-124" points="1090.46 400.02 1090.58 398.03 1354.5 413.53 1354.5 415.52 1090.46 400.02"/><polygon class="cls-125" points="1090.58 398.03 1090.7 396.04 1354.5 411.53 1354.5 413.53 1090.58 398.03"/><polygon class="cls-126" points="1090.7 396.04 1090.82 394.05 1354.5 409.53 1354.5 411.53 1090.7 396.04"/><polygon class="cls-127" points="1090.82 394.05 1090.93 392.06 1354.5 407.54 1354.5 409.53 1090.82 394.05"/><polygon class="cls-128" points="1090.93 392.06 1091.05 390.07 1354.5 405.54 1354.5 407.54 1090.93 392.06"/><polygon class="cls-129" points="1091.05 390.07 1091.17 388.08 1354.5 403.54 1354.5 405.54 1091.05 390.07"/><polygon class="cls-130" points="1091.17 388.08 1091.28 386.09 1354.5 401.54 1354.5 403.54 1091.17 388.08"/><polygon class="cls-131" points="1091.28 386.09 1091.4 384.1 1354.5 399.54 1354.5 401.54 1091.28 386.09"/><polygon class="cls-132" points="1091.4 384.1 1091.52 382.11 1354.5 397.55 1354.5 399.54 1091.4 384.1"/><polygon class="cls-133" points="1091.52 382.11 1091.63 380.12 1354.5 395.55 1354.5 397.55 1091.52 382.11"/><polygon class="cls-134" points="1091.63 380.12 1091.75 378.13 1354.5 393.55 1354.5 395.55 1091.63 380.12"/><polygon class="cls-135" points="1091.75 378.13 1091.87 376.14 1354.5 391.55 1354.5 393.55 1091.75 378.13"/><polygon class="cls-136" points="1091.87 376.14 1091.98 374.15 1354.5 389.56 1354.5 391.55 1091.87 376.14"/><polygon class="cls-137" points="1091.98 374.15 1092.1 372.15 1354.5 387.56 1354.5 389.56 1091.98 374.15"/><polygon class="cls-138" points="1092.1 372.15 1092.22 370.16 1354.5 385.56 1354.5 387.56 1092.1 372.15"/><polygon class="cls-139" points="1092.22 370.16 1092.33 368.17 1354.5 383.56 1354.5 385.56 1092.22 370.16"/><polygon class="cls-140" points="1092.33 368.17 1092.45 366.18 1354.5 381.57 1354.5 383.56 1092.33 368.17"/><polygon class="cls-141" points="1092.45 366.18 1092.57 364.19 1354.5 379.57 1354.5 381.57 1092.45 366.18"/><polygon class="cls-142" points="1092.57 364.19 1092.68 362.2 1354.5 377.57 1354.5 379.57 1092.57 364.19"/><polygon class="cls-143" points="1092.68 362.2 1092.8 360.21 1354.5 375.57 1354.5 377.57 1092.68 362.2"/><polygon class="cls-144" points="1092.8 360.21 1092.92 358.22 1354.5 373.58 1354.5 375.57 1092.8 360.21"/><polygon class="cls-145" points="1092.92 358.22 1093.04 356.23 1354.5 371.58 1354.5 373.58 1092.92 358.22"/><polygon class="cls-146" points="1093.04 356.23 1093.15 354.24 1354.5 369.58 1354.5 371.58 1093.04 356.23"/><polygon class="cls-147" points="1093.15 354.24 1093.27 352.25 1354.5 367.58 1354.5 369.58 1093.15 354.24"/><polygon class="cls-148" points="1093.27 352.25 1093.39 350.26 1354.5 365.59 1354.5 367.58 1093.27 352.25"/><polygon class="cls-149" points="1093.39 350.26 1093.5 348.27 1354.5 363.59 1354.5 365.59 1093.39 350.26"/><polygon class="cls-150" points="1093.5 348.27 1093.62 346.28 1354.5 361.59 1354.5 363.59 1093.5 348.27"/><polygon class="cls-151" points="1093.62 346.28 1093.74 344.29 1354.5 359.59 1354.5 361.59 1093.62 346.28"/><polygon class="cls-152" points="1093.74 344.29 1093.85 342.3 1354.5 357.6 1354.5 359.59 1093.74 344.29"/><polygon class="cls-153" points="1093.85 342.3 1093.97 340.3 1354.5 355.6 1354.5 357.6 1093.85 342.3"/><polygon class="cls-154" points="1093.97 340.3 1094.09 338.31 1354.5 353.6 1354.5 355.6 1093.97 340.3"/><polygon class="cls-155" points="1094.09 338.31 1094.2 336.32 1354.5 351.6 1354.5 353.6 1094.09 338.31"/><polygon class="cls-156" points="1094.2 336.32 1094.32 334.33 1354.5 349.61 1354.5 351.6 1094.2 336.32"/><polygon class="cls-157" points="1094.32 334.33 1094.44 332.34 1354.5 347.61 1354.5 349.61 1094.32 334.33"/><polygon class="cls-158" points="1094.44 332.34 1094.56 330.35 1354.5 345.61 1354.5 347.61 1094.44 332.34"/><polygon class="cls-159" points="1094.56 330.35 1094.67 328.36 1354.5 343.61 1354.5 345.61 1094.56 330.35"/><polygon class="cls-160" points="1094.67 328.36 1094.79 326.37 1354.5 341.62 1354.5 343.61 1094.67 328.36"/><polygon class="cls-161" points="1094.79 326.37 1094.9 324.38 1354.5 339.62 1354.5 341.62 1094.79 326.37"/><polygon class="cls-162" points="1094.9 324.38 1095.02 322.39 1354.5 337.62 1354.5 339.62 1094.9 324.38"/><polygon class="cls-163" points="1095.02 322.39 1095.14 320.4 1354.5 335.62 1354.5 337.62 1095.02 322.39"/><polygon class="cls-164" points="1095.14 320.4 1095.26 318.41 1354.5 333.63 1354.5 335.62 1095.14 320.4"/><polygon class="cls-165" points="1095.26 318.41 1095.37 316.42 1354.5 331.63 1354.5 333.63 1095.26 318.41"/><polygon class="cls-166" points="1095.37 316.42 1095.49 314.43 1354.5 329.63 1354.5 331.63 1095.37 316.42"/><polygon class="cls-167" points="1095.49 314.43 1095.61 312.43 1354.5 327.63 1354.5 329.63 1095.49 314.43"/><polygon class="cls-168" points="1095.61 312.43 1095.72 310.44 1354.5 325.63 1354.5 327.63 1095.61 312.43"/><polygon class="cls-169" points="1095.72 310.44 1095.84 308.45 1354.5 323.64 1354.5 325.63 1095.72 310.44"/><polygon class="cls-170" points="1095.84 308.45 1095.96 306.46 1354.5 321.64 1354.5 323.64 1095.84 308.45"/><polygon class="cls-171" points="1095.96 306.46 1096.07 304.47 1354.5 319.64 1354.5 321.64 1095.96 306.46"/><polygon class="cls-172" points="1096.07 304.47 1096.19 302.48 1354.5 317.64 1354.5 319.64 1096.07 304.47"/><polygon class="cls-173" points="1096.19 302.48 1096.31 300.49 1354.5 315.65 1354.5 317.64 1096.19 302.48"/><polygon class="cls-174" points="1096.31 300.49 1096.42 298.5 1354.5 313.65 1354.5 315.65 1096.31 300.49"/><polygon class="cls-175" points="1096.42 298.5 1096.54 296.51 1354.5 311.65 1354.5 313.65 1096.42 298.5"/><polygon class="cls-176" points="1096.54 296.51 1096.66 294.52 1354.5 309.65 1354.5 311.65 1096.54 296.51"/><polygon class="cls-177" points="1096.66 294.52 1096.78 292.53 1354.5 307.66 1354.5 309.65 1096.66 294.52"/><polygon class="cls-178" points="1096.78 292.53 1096.89 290.54 1354.5 305.66 1354.5 307.66 1096.78 292.53"/><polygon class="cls-179" points="1096.89 290.54 1097.01 288.55 1354.5 303.66 1354.5 305.66 1096.89 290.54"/><polygon class="cls-180" points="1097.01 288.55 1097.13 286.56 1354.5 301.66 1354.5 303.66 1097.01 288.55"/><polygon class="cls-181" points="1097.13 286.56 1097.24 284.56 1354.5 299.67 1354.5 301.66 1097.13 286.56"/><polygon class="cls-182" points="1097.24 284.56 1097.36 282.57 1354.5 297.67 1354.5 299.67 1097.24 284.56"/><polygon class="cls-183" points="1097.36 282.57 1097.48 280.58 1354.5 295.67 1354.5 297.67 1097.36 282.57"/><polygon class="cls-184" points="1097.48 280.58 1097.59 278.59 1354.5 293.67 1354.5 295.67 1097.48 280.58"/><polygon class="cls-185" points="1097.59 278.59 1097.71 276.6 1354.5 291.68 1354.5 293.67 1097.59 278.59"/><polygon class="cls-185" points="1097.71 276.6 1098.04 271.04 1354.5 271.04 1354.5 291.68 1097.71 276.6"/></g><path class="cls-3" d="M1086.67,649.72,1196.74,280.3l46,3.05,101.4,366.37h23.89q-50.41-185.6-100.84-371.18a20.6,20.6,0,0,0-6.42-19.23c-6.9-5.95-15.18-4-16.15-3.75l-651.91-1.87a39,39,0,0,0-17.93,15.24,42.66,42.66,0,0,0-6.42,21.1L457.3,649.72Z"/><polygon points="1242.86 283.24 1196.75 280.19 1196.66 280.18 1086.55 649.72 1086.78 649.72 1196.82 280.42 1242.68 283.45 1344.06 649.72 1344.29 649.72 1242.88 283.32 1242.86 283.24"/><path d="M457.42,649.72,568.5,290.06v0a42.09,42.09,0,0,1,6.4-21,39,39,0,0,1,17.85-15.19l651.89,1.87h0a18.26,18.26,0,0,1,16,3.73,20.42,20.42,0,0,1,6.38,19.12v0L1368,649.72h.23L1267.33,278.54a20.63,20.63,0,0,0-6.45-19.31,18.52,18.52,0,0,0-16.24-3.78l-651.9-1.88h0a39.39,39.39,0,0,0-18,15.29A42.52,42.52,0,0,0,568.28,290L464.12,627.26l-6.94,22.46Z"/><path class="cls-162" d="M1105.46,649.72q3.21-12.53,6.38-24.93c7.55-29.47,15.35-60,23.67-90.8,3.1-11.49,6-22.82,8.85-33.77s5.75-22.25,8.85-33.73a17.12,17.12,0,0,0,.48-2.41,13.39,13.39,0,0,1,.38-2c.23-.61.4-1.15.57-1.68s.32-1,.52-1.57l0-.16c.65-2.75,1.32-5.58,2.19-8.35a33.15,33.15,0,0,0,1-4.46c.13-.76.25-1.48.39-2.18,2.44-8.33,4.52-16.61,6.53-24.62s4.09-16.27,6.51-24.57l.22-.92a55.68,55.68,0,0,1,2.19-7.66,10.75,10.75,0,0,0,.56-2.65c0-.36.09-.7.15-1,1.22-4.11,2.23-8.21,3.2-12.18s2-8.06,3.2-12.13v-.05c.36-1.39.7-2.78,1-4.13.93-3.73,1.8-7.25,2.92-10.81l.69-3.59.06-.09a2.51,2.51,0,0,0,.41-1c2.94-12.92,6-24.49,9.69-36.39a8.64,8.64,0,0,0,.27-1.4,6.32,6.32,0,0,1,.17-.95l0-.07.06-.09a2.28,2.28,0,0,0,.41-1c.36-2.13.93-4.24,1.48-6.29.45-1.7.92-3.45,1.27-5.22l-2.6-.52c-.34,1.68-.78,3.32-1.24,5.05-.56,2.1-1.14,4.26-1.52,6.49a.41.41,0,0,1,0,.09,2.72,2.72,0,0,0-.4.89,8.41,8.41,0,0,0-.23,1.28,6.36,6.36,0,0,1-.18,1c-3.7,12-6.8,23.62-9.75,36.64l-.06.09a2.37,2.37,0,0,0-.42,1l-.63,3.38c-1.14,3.61-2,7.15-3,10.89-.33,1.33-.67,2.71-1,4.08-1.22,4.13-2.23,8.25-3.21,12.23s-2,8.06-3.2,12.14l0,.13c-.08.43-.13.85-.18,1.25a8.92,8.92,0,0,1-.41,2,58.13,58.13,0,0,0-2.3,8l-.19.81c-2.43,8.33-4.51,16.62-6.53,24.63s-4.08,16.27-6.51,24.57l0,.1c-.16.77-.29,1.57-.42,2.35a31.18,31.18,0,0,1-.87,4.09c-.89,2.84-1.57,5.69-2.22,8.46-.22.58-.39,1.11-.55,1.63s-.32,1-.53,1.57l0,.07a16.1,16.1,0,0,0-.49,2.43,13.62,13.62,0,0,1-.4,2v0c-3.1,11.5-6,22.83-8.86,33.78S1136,521.82,1133,533.3c-8.32,30.86-16.13,61.35-23.68,90.83q-3.19,12.52-6.44,25.12l1.79.47Z"/><path class="cls-162" d="M1127.62,649.72c1.83-8.1,3.51-16.32,5.14-24.27,1.88-9.24,3.84-18.8,6.08-28.43v0c.66-3.29,1.28-6.45,1.88-9.51s1.22-6.2,1.88-9.47c3-13.27,5.51-25.57,8.19-38.59,1.62-7.91,3.3-16.09,5.08-24.48,4.13-18.57,7.88-36.44,12.18-57.92,8.08-37.93,14.9-70.38,22.11-105.23l.06-.09a2.33,2.33,0,0,0,.41-1c.77-3.62,1.44-7.12,2.09-10.51s1.33-6.89,2.1-10.5c1.17-4.7,2.06-9.24,2.91-13.64.6-3.09,1.22-6.28,2-9.55,1.25-4.49,2-8.79,2.9-13.33.35-1.86.7-3.78,1.1-5.72l0-.13v0l.11-.3c.06-.16.12-.31.16-.45l-2.53-.8c0,.1-.07.2-.11.31a3.58,3.58,0,0,0-.27,1c-.39,1.93-.75,3.83-1.09,5.67-.84,4.5-1.63,8.75-2.86,13.14l0,.07c-.73,3.31-1.36,6.54-2,9.66-.89,4.56-1.73,8.88-2.89,13.52v0c-.77,3.65-1.45,7.18-2.1,10.58s-1.32,6.87-2.09,10.47l-.06.1a2.41,2.41,0,0,0-.41,1c-7.21,34.84-14,67.29-22.12,105.22-4.29,21.48-8,39.33-12.16,57.9-1.79,8.41-3.47,16.59-5.1,24.5-2.66,13-5.19,25.31-8.18,38.56v0c-.67,3.28-1.29,6.44-1.89,9.5s-1.21,6.2-1.87,9.47c-2.25,9.66-4.2,19.22-6.1,28.48-1.63,8-3.32,16.27-5.17,24.41l1.71.39Z"/><path class="cls-162" d="M1157.84,649.72c8.45-59.18,17-119.32,25.21-177.48,8.66-61.12,17.62-124.33,26.51-186.6l-2.63-.37c-8.89,62.27-17.85,125.48-26.51,186.6-8.25,58.2-16.77,118.38-25.23,177.6l1.74.25Z"/><path class="cls-162" d="M1185.69,649.72c4-50.37,7.89-101.49,11.65-150.92,4.85-63.82,9.86-129.82,15.22-195.3v0c.11-2.11.22-4.16.33-6.21s.22-4.07.33-6.16c.26-1.93.37-3.81.48-5.63.08-1.32.16-2.69.3-4.09l-2.65-.26c-.14,1.45-.22,2.85-.3,4.19-.11,1.87-.22,3.64-.47,5.49v.11c-.11,2.11-.22,4.16-.33,6.21s-.22,4.09-.33,6.2c-5.36,65.48-10.37,131.47-15.22,195.29-3.76,49.44-7.64,100.57-11.65,150.95l2.07.17Z"/><path class="cls-162" d="M1215,369.52c.21,91.67.44,186.46.53,280.2h2.66c-.09-93.74-.32-188.53-.54-280.2,0-8.66,0-17.46-.08-26-.09-19.16-.19-39,.19-58.53l-2.65-.05c-.38,19.58-.29,39.42-.2,58.6C1215,352.07,1215,360.87,1215,369.52Z"/><path class="cls-162" d="M1248.91,649.72c-4.89-62-10.14-125-15.22-186-4.86-58.37-9.89-118.73-14.59-178.2l2.64-.21c4.71,59.46,9.74,119.82,14.6,178.19,5.08,60.94,10.33,124,15.21,186Z"/><path class="cls-162" d="M1280.33,649.72h1.09l1.56-.25c-11.4-73.9-23.22-148.92-34.65-221.46-7.28-46.22-14.81-94-22.17-141.12l-2.63.41c7.36,47.11,14.89,94.9,22.18,141.12C1257.13,500.91,1268.94,575.87,1280.33,649.72Z"/><path class="cls-162" d="M1309.24,649.72h1.46l1.2-.28-8.14-36c-24.08-106.59-49-216.82-73.19-325.44l-2.6.58c24.21,108.62,49.12,218.85,73.2,325.45Z"/><path class="cls-162" d="M1236.69,297a3.06,3.06,0,0,0,.55,1.36c0,.22.08.48.12.75a8.52,8.52,0,0,0,.27,1.39l0,.09,0,.08a9.63,9.63,0,0,1,.6,2.31,15.13,15.13,0,0,0,.4,1.84,3,3,0,0,0,.5,1.23,14.22,14.22,0,0,0,.9,3.24,9,9,0,0,1,.41,2c0,.4.1.82.18,1.25l0,.11c6.24,22.33,11.74,43.55,17.57,66,.78,3,1.55,6,2.33,9,1.11,4.34,2.18,8.63,3.21,12.78s2.1,8.44,3.21,12.79c4.43,16.77,8.82,33.34,13.06,49.37s8.62,32.56,13,49.3l.66,3.47,0,.1c3.89,14.3,7.48,28.39,10.94,42,2.46,9.65,5,19.64,7.65,29.73.27,1,.55,2,.82,3,1.52,5.6,3,10.89,4.26,16.62v0c.36,1.33.72,2.63,1.07,3.91,1,3.48,1.88,6.77,2.68,10.34v0c1.72,7,3.58,13.77,5.37,20.36.73,2.67,1.48,5.44,2.21,8.17h1l1.66-.45c-.75-2.81-1.53-5.66-2.28-8.42-1.79-6.57-3.63-13.36-5.34-20.28-.82-3.62-1.74-6.94-2.71-10.45l-1.06-3.87c-1.31-5.77-2.75-11.08-4.28-16.7l-.81-3c-2.66-10.08-5.19-20.06-7.65-29.71-3.46-13.62-7-27.7-10.93-42l-.66-3.47,0-.09c-4.42-16.76-8.81-33.33-13-49.35s-8.63-32.6-13.06-49.35c-1.1-4.34-2.17-8.63-3.2-12.78s-2.11-8.44-3.21-12.79c-.79-3-1.56-6-2.34-9-5.82-22.47-11.33-43.69-17.57-66-.06-.33-.1-.67-.15-1a11.27,11.27,0,0,0-.57-2.65l0-.1a12.92,12.92,0,0,1-.78-3l-.06-.37-.27-.29-.09-.16v-.08l-.06-.19a13.66,13.66,0,0,1-.35-1.63,11.83,11.83,0,0,0-.78-2.9c-.06-.23-.1-.55-.15-.88a7.58,7.58,0,0,0-.27-1.39l-.08-.28-.21-.22a.83.83,0,0,1-.09-.16l0-.14c-.39-1.95-.85-3.77-1.34-5.7-.33-1.31-.67-2.67-1-4.07l-2.59.59c.33,1.43.67,2.8,1,4.13C1235.87,293.39,1236.32,295.15,1236.69,297Z"/><path class="cls-162" d="M1241.31,304.4Z"/><path class="cls-162" d="M1239.32,296.66Z"/><polygon points="1182.91 290.5 573.15 290.38 578.13 276.43 1187.45 276.31 1182.91 290.5"/><polygon points="1345.21 649.72 1329.24 590.02 1247.44 284.21 1238.7 283.42 1336.55 649.72 1345.21 649.72"/><rect class="cls-8" x="80.19" y="553.03" width="26.48" height="96.69"/><path class="cls-2" d="M147.39,508a54.1,54.1,0,1,1-108.2,0c0-.6,0-1.2,0-1.79h0l10.33-30.05L94.71,344.86l43.77,133.43h0l8.83,26.91C147.37,506.15,147.39,507.09,147.39,508Z"/><rect class="cls-186" x="252.34" y="91.92" width="191.19" height="243.2" rx="34.57"/><polygon class="cls-187" points="336.1 649.72 353.8 649.72 353.8 291.38 396.58 245.32 383.6 233.28 353.8 265.37 353.8 186.86 336.1 186.86 336.1 230.31 309.16 212.26 299.3 226.96 336.1 251.63 336.1 649.72"/><path d="M122.81,352.84a14.67,14.67,0,0,1-1.73-1.56,20.06,20.06,0,0,1-1.46-1.63,27.85,27.85,0,0,1-2.36-3.42,33,33,0,0,1-3.13-7.31,32.47,32.47,0,0,1-1.31-7.85,27.76,27.76,0,0,1,.15-4.15c.08-.71.2-1.43.35-2.16a14.65,14.65,0,0,1,.64-2.24,14.52,14.52,0,0,1,1.73,1.55,20.06,20.06,0,0,1,1.46,1.63,26.79,26.79,0,0,1,2.36,3.42,32.39,32.39,0,0,1,3.12,7.32,32.87,32.87,0,0,1,1.3,7.84,27.84,27.84,0,0,1-.15,4.16c-.08.71-.2,1.43-.35,2.16A15.72,15.72,0,0,1,122.81,352.84Z"/><path d="M128.56,356.38a11.54,11.54,0,0,1-.46-1.68,12.36,12.36,0,0,1-.2-1.53,13.4,13.4,0,0,1,.08-2.78,13,13,0,0,1,1.61-4.73,13,13,0,0,1,5.6-5.27,12.54,12.54,0,0,1,1.43-.6,10,10,0,0,1,1.68-.45,10.3,10.3,0,0,1,.46,1.67,14.54,14.54,0,0,1,.21,1.54,13.4,13.4,0,0,1-.08,2.78,13.23,13.23,0,0,1-4.88,8.51,13.26,13.26,0,0,1-2.35,1.48,12.54,12.54,0,0,1-1.43.6A10.82,10.82,0,0,1,128.56,356.38Z"/><path class="cls-188" d="M532.77,170.7a12.18,12.18,0,0,1,1.77.89,17.23,17.23,0,0,1,1.51,1,18.42,18.42,0,0,1,2.51,2.27,21,21,0,0,1,5.33,11.28,18.73,18.73,0,0,1,.14,3.38,16.88,16.88,0,0,1-.19,1.81,11.6,11.6,0,0,1-.45,1.93,11.81,11.81,0,0,1-1.78-.88,17.43,17.43,0,0,1-1.52-1,18.36,18.36,0,0,1-2.51-2.27,20.93,20.93,0,0,1-5.3-11.29,18.66,18.66,0,0,1-.14-3.37,14.4,14.4,0,0,1,.18-1.81A11.7,11.7,0,0,1,532.77,170.7Z"/><path class="cls-188" d="M504,205.22a16.51,16.51,0,0,1,0-2.33c.05-.74.13-1.47.24-2.18a27.2,27.2,0,0,1,1-4.05,33.71,33.71,0,0,1,8.29-13.51,28.13,28.13,0,0,1,3.19-2.69c.58-.42,1.19-.81,1.84-1.19a14,14,0,0,1,2.09-1,15.13,15.13,0,0,1,0,2.33c-.05.75-.12,1.47-.23,2.18a29,29,0,0,1-1,4.06,33.68,33.68,0,0,1-8.31,13.49,26.2,26.2,0,0,1-3.19,2.69c-.58.42-1.19.82-1.84,1.2A14.41,14.41,0,0,1,504,205.22Z"/><path class="cls-188" d="M525.24,257a15.82,15.82,0,0,1,.93,2.21c.25.73.46,1.45.64,2.17a29.22,29.22,0,0,1,.71,4.25,35.12,35.12,0,0,1-.22,8.27,34.37,34.37,0,0,1-2.09,8,29.51,29.51,0,0,1-1.88,3.89c-.37.63-.78,1.27-1.22,1.9a16.78,16.78,0,0,1-1.51,1.85,14.6,14.6,0,0,1-.93-2.2c-.26-.73-.47-1.45-.65-2.17a29.22,29.22,0,0,1-.71-4.25,36.15,36.15,0,0,1,2.33-16.26,29.51,29.51,0,0,1,1.88-3.89c.37-.63.77-1.27,1.22-1.9A16.52,16.52,0,0,1,525.24,257Z"/><path class="cls-188" d="M492.94,296.62a18,18,0,0,1-1.83-1.89c-.56-.64-1.07-1.3-1.55-2a37,37,0,0,1-2.56-4.09,44.37,44.37,0,0,1-3.51-8.64,43.91,43.91,0,0,1-1.7-9.17,35.15,35.15,0,0,1,0-4.82c.05-.82.12-1.65.25-2.49a17.87,17.87,0,0,1,.54-2.57,19,19,0,0,1,1.83,1.88c.56.64,1.07,1.3,1.55,2a35.58,35.58,0,0,1,2.56,4.09,43.71,43.71,0,0,1,3.5,8.64,44.53,44.53,0,0,1,1.69,9.18,35.15,35.15,0,0,1,0,4.82c0,.82-.12,1.64-.25,2.48A19,19,0,0,1,492.94,296.62Z"/><path class="cls-189" d="M381.63,196.37a12.39,12.39,0,0,1-.53,2.08c-.21.65-.45,1.26-.71,1.86a22.85,22.85,0,0,1-1.8,3.28,25.73,25.73,0,0,1-4.69,5.31,25.19,25.19,0,0,1-5.93,3.88,21.77,21.77,0,0,1-3.51,1.31,19,19,0,0,1-1.94.43,12.9,12.9,0,0,1-2.14.22,12.39,12.39,0,0,1,.53-2.08,17.07,17.07,0,0,1,.71-1.86,21.16,21.16,0,0,1,1.8-3.29,26.42,26.42,0,0,1,10.63-9.17,22.13,22.13,0,0,1,3.51-1.31c.62-.17,1.27-.32,1.94-.44A12.78,12.78,0,0,1,381.63,196.37Z"/><path class="cls-189" d="M384.73,161.63a12.83,12.83,0,0,1-.28-2.14c0-.69,0-1.36,0-2a22.61,22.61,0,0,1,.48-3.75,26.93,26.93,0,0,1,6.51-12.62,22.88,22.88,0,0,1,2.8-2.55c.51-.4,1.07-.78,1.65-1.15a14.27,14.27,0,0,1,1.91-1,13.08,13.08,0,0,1,.28,2.15,19.31,19.31,0,0,1,0,2,21.6,21.6,0,0,1-.47,3.75,27.14,27.14,0,0,1-6.54,12.61,22.85,22.85,0,0,1-2.79,2.55c-.52.4-1.06.78-1.65,1.15A14.13,14.13,0,0,1,384.73,161.63Z"/><path class="cls-189" d="M348,137.51a15,15,0,0,1-2.35.22c-.76,0-1.5,0-2.22,0a28.32,28.32,0,0,1-4.2-.59,35.1,35.1,0,0,1-14.5-7.07,29.12,29.12,0,0,1-3.05-3c-.48-.54-.95-1.12-1.4-1.73a15.43,15.43,0,0,1-1.27-2,16.51,16.51,0,0,1,2.36-.23c.76,0,1.5,0,2.22,0a28.32,28.32,0,0,1,4.2.6,33.14,33.14,0,0,1,7.66,2.69,34.09,34.09,0,0,1,6.83,4.4,29,29,0,0,1,3.05,2.94c.48.55.95,1.12,1.4,1.73A15.43,15.43,0,0,1,348,137.51Z"/><path class="cls-189" d="M262.8,234a12.54,12.54,0,0,1,2.08.16,18.58,18.58,0,0,1,1.89.38,21.19,21.19,0,0,1,3.42,1.19,24,24,0,0,1,5.76,3.64,23.6,23.6,0,0,1,4.54,5.09,20.9,20.9,0,0,1,1.72,3.18,18.36,18.36,0,0,1,.68,1.81,12.84,12.84,0,0,1,.49,2,11.62,11.62,0,0,1-2.09-.15c-.66-.1-1.29-.22-1.9-.37a20.74,20.74,0,0,1-3.41-1.19,23.71,23.71,0,0,1-5.76-3.66,24.07,24.07,0,0,1-4.53-5.09,21.9,21.9,0,0,1-1.72-3.18c-.25-.58-.48-1.18-.68-1.81A12.84,12.84,0,0,1,262.8,234Z"/><path class="cls-189" d="M314.8,282.23a11.81,11.81,0,0,1,.21,2,18.16,18.16,0,0,1,0,1.82,18.59,18.59,0,0,1-.56,3.35A21.19,21.19,0,0,1,307.8,300a18.51,18.51,0,0,1-2.77,2,15.55,15.55,0,0,1-1.63.83,11.49,11.49,0,0,1-1.88.68,12,12,0,0,1-.21-2,13.71,13.71,0,0,1,0-1.82,17.75,17.75,0,0,1,.55-3.35,20.31,20.31,0,0,1,2.52-5.81,20.64,20.64,0,0,1,4.13-4.81,18.41,18.41,0,0,1,2.76-2,16.55,16.55,0,0,1,1.63-.83A11.37,11.37,0,0,1,314.8,282.23Z"/><path class="cls-189" d="M362.15,306.13a15,15,0,0,1,2.34.07,21,21,0,0,1,2.17.31,28.14,28.14,0,0,1,4,1.09,32.91,32.91,0,0,1,7.17,3.58,32.42,32.42,0,0,1,6.12,5.15,28.63,28.63,0,0,1,2.6,3.28c.4.59.78,1.22,1.14,1.88a15.32,15.32,0,0,1,1,2.12,15,15,0,0,1-2.34-.06,21.58,21.58,0,0,1-2.18-.31,26.05,26.05,0,0,1-4-1.09,32.32,32.32,0,0,1-7.15-3.58,32.91,32.91,0,0,1-6.12-5.17,28.63,28.63,0,0,1-2.6-3.28c-.4-.59-.78-1.21-1.14-1.87A16,16,0,0,1,362.15,306.13Z"/><path class="cls-189" d="M417.48,292.85a13.58,13.58,0,0,1-1.85-1.4c-.57-.48-1.09-1-1.59-1.5a28,28,0,0,1-2.63-3.21,32.61,32.61,0,0,1-3.71-7,31.9,31.9,0,0,1-1.94-7.69,27,27,0,0,1-.19-4.15c0-.71.08-1.44.17-2.18a15.29,15.29,0,0,1,.45-2.28,15.31,15.31,0,0,1,1.86,1.4c.56.49,1.09,1,1.58,1.5a27.07,27.07,0,0,1,2.64,3.21,32.57,32.57,0,0,1,3.7,7,33,33,0,0,1,1.93,7.7,28.37,28.37,0,0,1,.19,4.15c0,.71-.08,1.44-.17,2.17A16.6,16.6,0,0,1,417.48,292.85Z"/><path class="cls-190" d="M458.64,321.18a13.57,13.57,0,0,1,.35,2.17,17.87,17.87,0,0,1,.09,2,24.21,24.21,0,0,1-.33,3.86,28.8,28.8,0,0,1-6.07,13.29,24.45,24.45,0,0,1-2.72,2.77c-.5.44-1,.86-1.61,1.27a14.21,14.21,0,0,1-1.88,1.14,13.69,13.69,0,0,1-.37-2.17c-.06-.7-.09-1.38-.09-2.05a24.34,24.34,0,0,1,.33-3.87,27.27,27.27,0,0,1,2.19-7,27.85,27.85,0,0,1,3.91-6.24,22.79,22.79,0,0,1,2.71-2.77,18.76,18.76,0,0,1,1.61-1.27A13.61,13.61,0,0,1,458.64,321.18Z"/><path class="cls-190" d="M481.21,365.21a14,14,0,0,1,1.8,1.44c.55.49,1.06,1,1.54,1.52a27.13,27.13,0,0,1,2.53,3.25,31.67,31.67,0,0,1,3.5,7,31.08,31.08,0,0,1,1.71,7.67,26.69,26.69,0,0,1,.07,4.11,20.67,20.67,0,0,1-.24,2.16,14.15,14.15,0,0,1-.51,2.25,15.15,15.15,0,0,1-1.82-1.43c-.54-.5-1.06-1-1.53-1.53a25.43,25.43,0,0,1-2.54-3.24,31,31,0,0,1-3.48-7.05,31.64,31.64,0,0,1-1.71-7.67,26.75,26.75,0,0,1-.06-4.11c0-.71.12-1.43.23-2.16A14.15,14.15,0,0,1,481.21,365.21Z"/><path class="cls-190" d="M475.23,455.72a15.15,15.15,0,0,1-2.05-1.06c-.63-.39-1.23-.79-1.8-1.21a27.45,27.45,0,0,1-3.12-2.71,31.94,31.94,0,0,1-4.8-6.27,31.26,31.26,0,0,1-3.18-7.23,27,27,0,0,1-.86-4,21.41,21.41,0,0,1-.19-2.16,15.29,15.29,0,0,1,.07-2.32,16.54,16.54,0,0,1,2.06,1.06c.63.39,1.24.79,1.81,1.21a27.34,27.34,0,0,1,3.11,2.71,31.94,31.94,0,0,1,4.8,6.27,32.36,32.36,0,0,1,3.16,7.24,28.32,28.32,0,0,1,.87,4q.13,1,.18,2.16A15.08,15.08,0,0,1,475.23,455.72Z"/><path class="cls-190" d="M218.32,379.82a16.88,16.88,0,0,1,.28-2.53c.14-.82.32-1.6.52-2.37a34,34,0,0,1,1.5-4.4,41.65,41.65,0,0,1,4.37-7.85,40.64,40.64,0,0,1,5.91-6.76,33.93,33.93,0,0,1,3.65-2.9c.65-.45,1.33-.88,2-1.29a17.52,17.52,0,0,1,2.3-1.11,18.62,18.62,0,0,1-.28,2.54c-.14.81-.32,1.6-.52,2.36a32.66,32.66,0,0,1-1.5,4.41,41.06,41.06,0,0,1-4.38,7.84,41.53,41.53,0,0,1-5.92,6.76,34.05,34.05,0,0,1-3.64,2.9c-.66.44-1.33.88-2,1.28A18,18,0,0,1,218.32,379.82Z"/><path class="cls-190" d="M215,376.94a11.07,11.07,0,0,1-1.87-.63,17.8,17.8,0,0,1-1.64-.79,18.82,18.82,0,0,1-2.78-1.89,20.26,20.26,0,0,1-4.17-4.68,20,20,0,0,1-2.59-5.71,18.29,18.29,0,0,1-.59-3.31,15.56,15.56,0,0,1-.05-1.82,11.69,11.69,0,0,1,.19-2,12.54,12.54,0,0,1,1.88.63,15.38,15.38,0,0,1,1.63.79,17.71,17.71,0,0,1,2.79,1.89,20,20,0,0,1,4.16,4.68,20.46,20.46,0,0,1,2.58,5.72,20.22,20.22,0,0,1,.59,3.31,15.45,15.45,0,0,1,.05,1.81A11.54,11.54,0,0,1,215,376.94Z"/><path class="cls-191" d="M119,602.66a20.36,20.36,0,0,1,2.12,1.87c.67.64,1.28,1.31,1.86,2a44.81,44.81,0,0,1,3.2,4.2,53.92,53.92,0,0,1,4.86,9,53.23,53.23,0,0,1,3.12,9.77,42.18,42.18,0,0,1,.78,5.21c.08.9.13,1.8.13,2.72a19.71,19.71,0,0,1-.14,2.84,23.13,23.13,0,0,1-2.13-1.87c-.66-.65-1.27-1.31-1.86-2a43.42,43.42,0,0,1-3.2-4.19,55.46,55.46,0,0,1-8-18.81,42.35,42.35,0,0,1-.79-5.22c-.08-.89-.13-1.79-.13-2.71A21,21,0,0,1,119,602.66Z"/><path class="cls-191" d="M133.67,649.72l.1-.06c.77-.45,1.49-.92,2.19-1.41a39.63,39.63,0,0,0,3.91-3.16,48.52,48.52,0,0,0,6.46-7.31,49.17,49.17,0,0,0,4.93-8.41,41.14,41.14,0,0,0,1.79-4.7c.25-.81.48-1.65.66-2.51a18.66,18.66,0,0,0,.43-2.69,20.21,20.21,0,0,0-2.41,1.25c-.77.44-1.49.92-2.19,1.41a39.22,39.22,0,0,0-3.9,3.16,48,48,0,0,0-6.47,7.3,48.57,48.57,0,0,0-4.94,8.41,37.56,37.56,0,0,0-1.79,4.69c-.25.82-.48,1.65-.66,2.52-.11.49-.21,1-.29,1.51Z"/><path class="cls-191" d="M436.79,594.92a87.1,87.1,0,0,0,3.06,9.48,128,128,0,0,0,8.94,18.44,148.92,148.92,0,0,0,12.14,17.85c2.32,2.93,4.81,5.82,7.5,8.67l.34.36h7.45c-.13-.57-.27-1.14-.41-1.71a88.6,88.6,0,0,0-3.06-9.48,128.16,128.16,0,0,0-9-18.44,153.29,153.29,0,0,0-12.17-17.85q-3.48-4.38-7.49-8.66c-1.35-1.43-2.75-2.85-4.23-4.25s-3-2.8-4.72-4.16a33.53,33.53,0,0,0,.56,4.92C436,591.71,436.38,593.32,436.79,594.92Z"/><path class="cls-191" d="M468.65,649.72l1-.52c2.66-1.47,5.13-3,7.44-4.57a93.94,93.94,0,0,0,12.3-10,71.23,71.23,0,0,0,9.38-10.94,43.7,43.7,0,0,0,3.41-5.88,28.28,28.28,0,0,0,1.27-3.09,16.81,16.81,0,0,0,.82-3.23c-1.66.62-3.16,1.3-4.6,2s-2.83,1.41-4.16,2.15c-2.65,1.46-5.12,3-7.44,4.57a94.64,94.64,0,0,0-12.32,10,71.8,71.8,0,0,0-9.4,10.93,44.18,44.18,0,0,0-3.4,5.89c-.42.89-.8,1.79-1.13,2.71Z"/><path class="cls-192" d="M1632.35,171.15l93.38.44-10-15.93a9,9,0,0,0-6.19-2.66,9.26,9.26,0,0,0-7.09,3.54l-10.62,11.06-6-7.3c-.16-.51-1.32-4.09-4.65-5.31-3.54-1.3-8.13.59-10.4,4.87q-2.2,4.09-4.43,8.19a84,84,0,0,1-10-8.63c-2.93-3-4.13-4.67-6.42-5.09-3.75-.69-7.41,2.58-9.52,4.87Z"/><path class="cls-193" d="M626.7,146.16A29.23,29.23,0,0,1,622.5,136c-.66-3.25-1.37-6.77.44-10.18,1.07-2,3.46-4.81,5.76-4.42,1.55.26,2.54,1.89,4,5.31a76.45,76.45,0,0,1,4.42,14.38Z"/><path class="cls-194" d="M618.3,133.77c-2.55-1.4-2.12-6.87-1.55-9.52,1.38-6.49,6.6-10.06,8.18-11.06.91-2.82,1.57-3.34,2-3.32,1.37.06,2.17,5.71,2.43,7.52.6,4.2.9,6.3.22,8.41C627.87,131.14,621.29,135.41,618.3,133.77Z"/><path class="cls-7" d="M606.12,210.11a40.76,40.76,0,0,0-.44,20.36,38.78,38.78,0,0,0,2,6,49.85,49.85,0,0,1,12-10.18c11-6.67,20.16-6.11,38.73-10a228.18,228.18,0,0,0,22.79-6q-.78-6.2-1.55-12.39Z"/><path class="cls-195" d="M722.85,335.91q.12,14.61.22,29.21a37.5,37.5,0,0,0,8.19,4.43c7.39,2.86,13.45,2.47,20.8,2,5.05-.33,9-.62,9.52-2.43s-2.69-4.19-4.21-5.31a23.63,23.63,0,0,0-12-4.43q.45-14.82.89-29.65Z"/><path class="cls-195" d="M790.35,325.29l18.36,24.79a21.59,21.59,0,0,0,4.65-.22c11.86-1.88,18.59-13.34,20.36-16.6q1.31-4.22,0-5.31-2.38-2-13.5,6.42l-16.6-17.93Z"/><path class="cls-2" d="M755.11,285c3.62,5.2,6.61,9.87,9,13.85,11.65,19.22,16.07,32.25,26.56,33.41a19.3,19.3,0,0,0,15.49-6c3.82-4.17,5.4-9.34,4.65-10.84-5.2-10.29-7.15-16.45-17.26-33-8.84-14.44-18.42-30.1-20.14-46-.23-2.08-.6-6.78-4-10.63-4.49-5.11-11.53-5.55-16.81-6a393.67,393.67,0,0,1-39.17-5.09c-1.23-.23-10.78-2.29-29.87-6.42-5.32-1.15-8-1.72-12-1.77-9.08-.11-12.29,2.68-22.8,4.87-13.16,2.75-13.25-.54-21.68,2.43-7.41,2.62-20.49,9.3-18.59,17.49a29.08,29.08,0,0,0,3.1,8c5.63,9.88,15.65,13.65,25.67,17.26a94.4,94.4,0,0,0,30.53,5.54H718.1c.1,50.73.08,71.58,0,74.46v.12c.12,4.1,11.19,8.59,20.13,8,8.2-.59,14-5.44,16.6-8q.13-25.85.28-51.69.07-15.64.16-31.29c0-1.16,1.77-5.38.22-10-1.82-5.4-6.76-8.27-8.18-9.07a24.54,24.54,0,0,0-13.06-2.88c-7.68.28-23-1.5-55.54-9.3"/><path class="cls-10" d="M603.36,215.53c0-.16-2-40.68-2-40.68,1.91,39.87,0-.92,0-.92-.06-1.07-5.41-3.73-6.42-5.53C592.46,164,604.69,154,604.69,154c15.09-12.29,37.23-22,53.33-28.11,5.15.78,14,3,19,10.18,4.51,6.43,3.78,13.64,3.32,21.47a332.49,332.49,0,0,0,.44,44Z"/><path class="cls-193" d="M649.61,106c1.09,1.39,8.24,10.44,11.28,10.84.47.06,1.68.22,2.22-.44a1.71,1.71,0,0,0,.22-1.33c-.2-1.24-2.46-15.35-7.75-15.27C655,99.81,652.41,100,649.61,106Z"/><path class="cls-193" d="M661.56,97.37c1.09,1.39,8.24,10.44,11.28,10.84.47.06,1.68.22,2.22-.44a1.71,1.71,0,0,0,.22-1.33c-.2-1.25-2.46-15.35-7.75-15.27C667,91.18,664.36,91.39,661.56,97.37Z"/><path class="cls-196" d="M653,140.19c.47-.38,10.65-8.88,8.41-18.81a14.16,14.16,0,0,0-2.66-5.54l4.65-2.21a26.57,26.57,0,0,1,5.09,10.62c2.28,10.25-2.5,18.53-3.76,20.58"/><path class="cls-196" d="M671.85,147.71c2.17-1.53,11.47-8.39,11.06-17.26-.2-4.26-2.59-8-6.86-14.61a83.69,83.69,0,0,0-6.19-8.4l6.19-3.32a83.71,83.71,0,0,1,11.73,11.72c5.59,6.83,8.38,10.24,9.29,15.49,1.41,8.09-2.16,16.86-8.41,22.35a26.06,26.06,0,0,1-14.16,6.2"/><polyline class="cls-197" points="741.44 0 663.99 83.65 669.97 90.28 778.62 29.21"/><path class="cls-198" d="M634.23,116.51c.25,1.45.74,3,1.77,3.32,1.57.43,3.58-2.36,4-2.88,2.59-3.38,14.53-12.48,46.69-33.41A16.29,16.29,0,0,1,674.5,67.6Z"/><path class="cls-199" d="M677.16,66.72c2.13-1.19,5.71,1.85,8,3.76s5.64,4.78,5.54,8.85c0,1-.07,2.88-1.33,3.76-2.83,2-10.88-2-13.06-8.18C675.27,72.05,675.19,67.81,677.16,66.72Z"/><circle class="cls-2" cx="1702.94" cy="208.32" r="5.09"/><circle class="cls-2" cx="1605.79" cy="237.97" r="5.09"/><circle class="cls-2" cx="1622.83" cy="327.82" r="5.09"/><circle class="cls-2" cx="1325.86" cy="305.25" r="5.09"/><circle class="cls-2" cx="1303.96" cy="340.21" r="5.09"/><circle class="cls-200" cx="1457.31" cy="553.31" r="5.09"/><circle class="cls-200" cx="1493.82" cy="466.56" r="5.09"/><circle class="cls-200" cx="1633.45" cy="472.54" r="5.09"/><circle class="cls-200" cx="1646.07" cy="478.07" r="5.09"/><circle class="cls-200" cx="1777.95" cy="514.14" r="5.09"/><circle class="cls-200" cx="1760.91" cy="548.22" r="5.09"/><circle class="cls-200" cx="1758.7" cy="601.99" r="5.09"/><circle class="cls-200" cx="444.92" cy="379.82" r="5.09"/><circle class="cls-200" cx="285.59" cy="417.44" r="5.09"/><circle class="cls-200" cx="165.43" cy="374.73" r="5.09"/><circle class="cls-200" cx="183.09" cy="332.69" r="5.09"/><circle class="cls-200" cx="127.03" cy="329.67" r="5.09"/><circle class="cls-200" cx="193.4" cy="318.15" r="5.09"/><circle class="cls-200" cx="1342.02" cy="385.57" r="5.09"/><circle class="cls-200" cx="1354.41" cy="455.06" r="5.09"/><circle class="cls-200" cx="1366.8" cy="523.88" r="5.09"/><path class="cls-4" d="M1354.64,306.35a34.11,34.11,0,0,0,.49-7.43,32.29,32.29,0,0,0-1.17-7.47,31.19,31.19,0,0,0-3-7.12,32.35,32.35,0,0,0-4.75-6.3,33,33,0,0,1,10.42,12.38,35.77,35.77,0,0,1,2.77,7.92,39.92,39.92,0,0,1,1,8.47Z"/><path class="cls-4" d="M1362.83,298.38a34,34,0,0,0,.49-7.43,31.86,31.86,0,0,0-1.18-7.47,30.89,30.89,0,0,0-3-7.11,32.41,32.41,0,0,0-4.75-6.31,33.32,33.32,0,0,1,5.92,5.48,32.65,32.65,0,0,1,4.5,6.9,35.67,35.67,0,0,1,2.77,7.93,39.75,39.75,0,0,1,1,8.46Z"/><path class="cls-4" d="M1373.23,299.49a34.11,34.11,0,0,0,.49-7.43,31.78,31.78,0,0,0-1.18-7.47,31.15,31.15,0,0,0-3-7.12,32.35,32.35,0,0,0-4.75-6.3,33,33,0,0,1,10.42,12.38,35.77,35.77,0,0,1,2.77,7.92,39.28,39.28,0,0,1,1,8.47Z"/><polygon class="cls-201" points="1709.58 438.9 1640.09 438.9 1640.76 436.03 1642.83 427.18 1646.71 410.58 1648.78 401.73 1652.66 385.13 1654.73 376.28 1658.61 359.68 1660.68 350.83 1664.56 334.23 1666.63 325.38 1670.51 308.79 1672.57 299.94 1677.49 278.91 1681.7 299.94 1683.48 308.79 1686.81 325.38 1688.58 334.23 1691.91 350.83 1693.69 359.68 1697.02 376.28 1698.79 385.13 1702.12 401.73 1703.89 410.58 1707.22 427.18 1709 436.03 1709.58 438.9"/><polygon class="cls-5" points="1683.48 308.79 1670.51 308.79 1672.57 299.94 1681.7 299.94 1683.48 308.79"/><polygon class="cls-5" points="1688.58 334.23 1664.56 334.23 1666.63 325.38 1686.81 325.38 1688.58 334.23"/><polygon class="cls-5" points="1693.69 359.68 1658.61 359.68 1660.68 350.83 1691.91 350.83 1693.69 359.68"/><polygon class="cls-5" points="1698.79 385.13 1652.66 385.13 1654.73 376.28 1697.02 376.28 1698.79 385.13"/><polygon class="cls-5" points="1703.89 410.58 1646.71 410.58 1648.78 401.73 1702.12 401.73 1703.89 410.58"/><polygon class="cls-5" points="1709 436.03 1640.76 436.03 1642.83 427.18 1707.22 427.18 1709 436.03"/><path class="cls-202" d="M274.17,589.6a65.85,65.85,0,0,1-12.24,35,64.71,64.71,0,0,1-12.7,13.28c-10.87,8.5-23.95,12.94-36.44,11.73-9.51-.92-18.8-5.12-26.73-11.73a62.11,62.11,0,0,1-11.86-13.28,66.12,66.12,0,0,1-9.35-21.68,67.77,67.77,0,0,1-1.72-13.28,69.53,69.53,0,0,1,.31-8.85l4.5-12.84q2.33-6.63,4.66-13.27L180.2,533q2.33-6.63,4.66-13.28,3.79-10.84,7.6-21.68,2.34-6.64,4.66-13.28l7.6-21.69q2.34-6.63,4.66-13.27,4.58-13.06,9.16-26.12l9.23,26.12q2.35,6.63,4.69,13.27l7.67,21.69L244.82,498q3.84,10.85,7.67,21.68L257.18,533q3.84,10.84,7.67,21.69,2.34,6.63,4.7,13.27l4.53,12.84A67.23,67.23,0,0,1,274.17,589.6Z"/><path class="cls-203" d="M232.46,463H204.72q2.34-6.63,4.66-13.27h18.39Q230.13,456.38,232.46,463Z"/><path class="cls-203" d="M244.82,498H192.46q2.34-6.64,4.66-13.28h43Z"/><path class="cls-203" d="M257.18,533h-77q2.33-6.63,4.66-13.28h67.63Z"/><path class="cls-203" d="M269.55,567.91H167.94q2.33-6.63,4.66-13.27h92.25Q267.19,561.27,269.55,567.91Z"/><path class="cls-203" d="M274.17,589.6a65.85,65.85,0,0,1-2.06,13.28H164.85a67.77,67.77,0,0,1-1.72-13.28Z"/><path class="cls-203" d="M261.93,624.56a64.71,64.71,0,0,1-12.7,13.28H186.06a62.11,62.11,0,0,1-11.86-13.28Z"/></g></g></svg>