<svg width="24" height="24" viewBox="0 0 24 24" fill="none" xmlns="http://www.w3.org/2000/svg">
<rect width="24" height="24" rx="12" fill="#D00865"/>
<path fill-rule="evenodd" clip-rule="evenodd" d="M11.9882 8.05422C12.1821 7.87145 12.3723 7.70288 12.5496 7.52223C12.7751 7.29236 13.0236 7.09284 13.2969 6.9203C13.7412 6.63983 14.2232 6.44874 14.7428 6.36112C15.0626 6.30717 15.3858 6.28357 15.7146 6.30983C16.0574 6.33719 16.3887 6.40491 16.7097 6.51448C17.0804 6.64105 17.4218 6.8287 17.7248 7.07437C18.2041 7.46301 18.5859 7.92539 18.8381 8.48762C18.9979 8.84369 19.1148 9.21045 19.1607 9.59543C19.188 9.82515 19.2099 10.0594 19.1949 10.2892C19.1674 10.7129 19.0935 11.1289 18.9323 11.5299C18.7469 11.9911 18.4936 12.4067 18.1487 12.769C17.9697 12.9571 17.7897 13.1442 17.6068 13.3284C17.2575 13.6802 16.9052 14.029 16.5553 14.3802C16.1715 14.7656 15.7889 15.1523 15.4058 15.5384C15.0291 15.918 14.6525 16.2978 14.2758 16.6775C13.8884 17.0679 13.5009 17.4582 13.1136 17.8486C12.9476 18.0159 12.7817 18.1833 12.616 18.3509C12.311 18.6594 11.7395 18.6984 11.4039 18.365C10.8378 17.8025 10.2747 17.2373 9.71162 16.6719C9.49632 16.4557 9.28605 16.2348 9.07112 16.0183C8.74317 15.6879 8.41262 15.3601 8.08427 15.0302C7.70054 14.6447 7.31779 14.2582 6.93498 13.8719C6.60321 13.537 6.27002 13.2035 5.94112 12.866C5.66588 12.5836 5.43515 12.27 5.24795 11.9239C5.04348 11.5458 4.91728 11.1432 4.84611 10.7257C4.79208 10.409 4.78844 10.0875 4.81915 9.76529C4.85147 9.42608 4.91765 9.09522 5.0404 8.77727C5.41054 7.81826 6.04788 7.08807 6.99811 6.63567C7.34189 6.47201 7.70527 6.36244 8.0896 6.33282C8.27742 6.31833 8.4665 6.29222 8.65359 6.30086C8.98672 6.31625 9.31631 6.35975 9.64048 6.44978C10.196 6.60396 10.6936 6.86237 11.1312 7.22411C11.3614 7.41449 11.564 7.63671 11.7785 7.84512C11.85 7.91452 11.9196 7.98568 11.9882 8.05422Z" fill="white"/>
</svg>
