<?xml version="1.0" encoding="UTF-8"?>
<svg width="30px" height="30px" viewBox="0 0 24 24" version="1.1" xmlns="http://www.w3.org/2000/svg" xmlns:xlink="http://www.w3.org/1999/xlink">
    <!-- Generator: Sketch 48.2 (47327) - http://www.bohemiancoding.com/sketch -->
    <title>Linkedin-Icon</title>
    <desc>Created with Sketch.</desc>
    <defs></defs>
    <g id="Page-1" stroke="none" stroke-width="1" fill="none" fill-rule="evenodd">
        <g id="Linkedin-Icon" fill-rule="nonzero">
            <rect id="Rectangle" fill="#006087" x="0" y="0" width="24" height="24" rx="12"></rect>
            <path d="M7.59876663,6.22222222 C8.35789883,6.22222222 8.9743604,6.83866667 8.9743604,7.59822222 C8.9743604,8.35822222 8.35789883,8.97466667 7.59876663,8.97466667 C6.83652324,8.97466667 6.22228395,8.35822222 6.22228395,7.59822222 C6.22228395,6.83866667 6.83652324,6.22222222 7.59876663,6.22222222 Z M6.41073363,17.6533333 L6.41073363,10.0177778 L8.78591072,10.0177778 L8.78591072,17.6533333 L6.41073363,17.6533333 Z M10.2223951,9.96711111 L12.4971249,9.96711111 L12.4971249,11.0111111 L12.5295703,11.0111111 C12.8460235,10.4106667 13.6207117,9.77777778 14.7754104,9.77777778 C17.1776994,9.77777778 17.6217117,11.3586667 17.6217117,13.4151111 L17.6217117,17.6026667 L15.2492014,17.6026667 L15.2492014,13.8893333 C15.2492014,13.004 15.2336454,11.8648889 14.0158338,11.8648889 C12.7811328,11.8648889 12.5926831,12.8297778 12.5926831,13.8262222 L12.5926831,17.6026667 L10.2223951,17.6026667 L10.2223951,9.96711111 Z" id="Combined-Shape" fill="#FFFFFF"></path>
        </g>
    </g>
</svg>