<svg width="24" height="24" viewBox="0 0 24 24" fill="none" xmlns="http://www.w3.org/2000/svg">
<rect x="0.000488281" width="24" height="24" rx="12" fill="#3A86FF"/>
<path fill-rule="evenodd" clip-rule="evenodd" d="M10.1103 8.85585C9.60282 9.49872 9.32707 10.2231 9.33168 11.0439C9.32738 11.2978 9.35116 11.5475 9.40824 11.7954C9.49524 12.1731 9.63566 12.5282 9.83729 12.8605C10.0892 13.2757 10.4179 13.6193 10.8133 13.9035C11.005 14.0413 11.1839 14.0321 11.352 13.8671C11.394 13.8258 11.4355 13.7839 11.4769 13.7421C11.5601 13.6581 11.6432 13.5742 11.7308 13.4951C11.9333 13.3123 12.0695 13.0977 12.0937 12.8231C12.1077 12.6648 12.0719 12.5275 11.9354 12.4231C11.8273 12.3405 11.7186 12.2543 11.6287 12.1537C11.2839 11.7677 11.1384 11.314 11.2161 10.8045C11.2711 10.4439 11.4348 10.1298 11.7009 9.86937C12.0265 9.55065 12.3506 9.23036 12.6747 8.91008C12.8703 8.71671 13.066 8.52334 13.262 8.33031C13.6624 7.93599 14.1496 7.79076 14.7025 7.8619C15.1524 7.9198 15.5158 8.13915 15.7885 8.49509C16.0784 8.87346 16.174 9.29969 16.0994 9.77025C16.0573 10.0353 15.9643 10.2762 15.798 10.483C15.6939 10.6124 15.5762 10.7313 15.4586 10.85C15.4268 10.8821 15.3949 10.9143 15.3634 10.9466C15.2291 11.0843 15.1752 11.2298 15.2462 11.4235C15.3621 11.7397 15.4167 12.0706 15.4409 12.4063C15.4474 12.4957 15.4561 12.5857 15.4739 12.6734C15.4938 12.7716 15.5545 12.8453 15.6442 12.8939C15.8163 12.9871 15.9769 12.9577 16.1385 12.7993C16.1704 12.768 16.2023 12.7367 16.2343 12.7054C16.4858 12.4588 16.7374 12.2122 16.9858 11.9626C17.2367 11.7104 17.4465 11.4269 17.609 11.1118C17.9056 10.5368 18.0401 9.92652 17.986 9.28187C17.9671 9.0569 17.9355 8.83079 17.8839 8.61113C17.7544 8.05942 17.4795 7.57891 17.0989 7.15886C16.734 6.75633 16.297 6.45233 15.7892 6.24678C15.465 6.11551 15.1263 6.04609 14.7811 6.01015C14.6114 5.99247 14.4379 6.00062 14.2667 6.009C14.1003 6.01717 13.9323 6.02854 13.769 6.05927C13.0437 6.19564 12.4264 6.53511 11.9056 7.0493C11.8029 7.15077 11.7001 7.25222 11.5973 7.35366C11.1944 7.75126 10.7915 8.14885 10.39 8.54783C10.2917 8.6456 10.196 8.74732 10.1103 8.85585ZM6.58776 12.5653C6.19496 13.1456 6.01217 13.7922 5.99878 14.5759C6.00211 14.6088 6.00497 14.6484 6.00816 14.6927C6.01663 14.8101 6.02747 14.9605 6.05592 15.1076C6.13096 15.4957 6.25701 15.8679 6.45738 16.2138C6.8104 16.8233 7.30146 17.2904 7.92888 17.6157C8.19913 17.7558 8.48409 17.8626 8.78632 17.9151C8.82203 17.9213 8.85778 17.9277 8.89355 17.9342C9.04878 17.9623 9.20457 17.9906 9.36093 17.9972C9.57252 18.0061 9.78652 17.9911 9.99772 17.9696C10.3739 17.9314 10.7329 17.8251 11.0748 17.6656C11.4624 17.4848 11.8018 17.2359 12.1043 16.9374C12.303 16.7414 12.5012 16.5449 12.6993 16.3484C12.9822 16.0679 13.265 15.7874 13.5494 15.5084C13.903 15.1616 14.1923 14.7729 14.3888 14.3176C14.5599 13.9213 14.6543 13.5079 14.6645 13.0795C14.6698 12.8615 14.6473 12.6421 14.6249 12.4243C14.6239 12.4136 14.6228 12.403 14.6217 12.3923C14.588 12.0624 14.4809 11.7517 14.3392 11.4528C14.0725 10.8902 13.6771 10.4338 13.1689 10.0707C13.0225 9.96609 12.8008 9.97789 12.6721 10.1035L12.6514 10.1237C12.4937 10.2777 12.336 10.4317 12.1818 10.5891C11.9956 10.7792 11.8913 11.0044 11.9082 11.274C11.9151 11.3824 11.9529 11.4797 12.0466 11.5466C12.2848 11.7167 12.4838 11.9214 12.6183 12.1821C12.8071 12.548 12.8346 12.9305 12.7497 13.3295C12.6915 13.6035 12.5702 13.8446 12.3759 14.0411C12.0667 14.3539 11.7537 14.6631 11.4407 14.9723C11.2214 15.1889 11.0021 15.4056 10.7841 15.6235C10.6194 15.7882 10.4385 15.9265 10.2213 16.0144C9.89574 16.1461 9.56151 16.1988 9.21249 16.1202C8.8199 16.0318 8.49452 15.8385 8.239 15.5289C8.09349 15.3525 7.99117 15.1522 7.93181 14.9368C7.87259 14.7221 7.86228 14.4986 7.89389 14.2746C7.93394 13.9904 8.03001 13.7275 8.2114 13.5043C8.343 13.3424 8.49178 13.1931 8.64214 13.0475C8.78699 12.9072 8.80975 12.7499 8.75676 12.5657C8.75246 12.5507 8.74815 12.5358 8.74383 12.5208C8.69051 12.3359 8.63699 12.1502 8.60224 11.9615C8.58114 11.8468 8.57313 11.7298 8.56512 11.6127C8.56084 11.55 8.55655 11.4874 8.55026 11.425C8.54504 11.3732 8.53818 11.3188 8.51777 11.2716C8.41063 11.0239 8.09593 10.9684 7.89852 11.1618C7.8309 11.2281 7.76304 11.2942 7.69518 11.3602C7.46955 11.5799 7.24389 11.7996 7.0265 12.027C6.86677 12.1941 6.71699 12.3744 6.58776 12.5653Z" fill="white"/>
</svg>
