<svg xmlns="http://www.w3.org/2000/svg" viewBox="0 0 154.09 121.41"><defs><style>.cls-1,.cls-7{fill:#fff;}.cls-2{fill:#ffedcf;}.cls-3{opacity:0.5;}.cls-4{fill:#7aa2d6;}.cls-5{fill:#e6e6e6;}.cls-6{fill:#22c195;}.cls-7{stroke:#000;stroke-miterlimit:10;stroke-width:0.5px;}.cls-8{fill:#4486fe;}.cls-9{fill:#feb491;}</style></defs><title>Asset 3</title><g id="Layer_2" data-name="Layer 2"><g id="Layer_1-2" data-name="Layer 1"><path class="cls-1" d="M120.13,15.44a16.74,16.74,0,0,1,3.17-9A17,17,0,0,1,132.8.13h16.36a8.5,8.5,0,0,1,4.75,8.45,8.45,8.45,0,0,1-5.28,6.86Z"/><path d="M148.66,15.57H120v-.14a16.77,16.77,0,0,1,3.19-9A17,17,0,0,1,132.77,0h16.45A8.64,8.64,0,0,1,154,8.59a8.54,8.54,0,0,1-5.36,7Zm-28.39-.26h28.34a8.3,8.3,0,0,0,5.17-6.75,8.37,8.37,0,0,0-4.65-8.3H132.8a16.8,16.8,0,0,0-9.4,6.28A16.6,16.6,0,0,0,120.27,15.31Z"/><circle cx="130.42" cy="7.79" r="0.79"/><path d="M130.42,8.71a.93.93,0,0,1,0-1.85.93.93,0,1,1,0,1.85Zm0-1.58a.66.66,0,1,0,0,1.31.66.66,0,1,0,0-1.31Z"/><circle cx="137.28" cy="7.79" r="0.79"/><path d="M137.28,8.71a.93.93,0,1,1,.93-.92A.93.93,0,0,1,137.28,8.71Zm0-1.58a.66.66,0,1,0,0,1.31.66.66,0,1,0,0-1.31Z"/><circle cx="144.15" cy="7.79" r="0.79"/><path d="M144.15,8.71a.93.93,0,1,1,.92-.92A.93.93,0,0,1,144.15,8.71Zm0-1.58a.66.66,0,1,0,.66.66A.65.65,0,0,0,144.15,7.13Z"/><path class="cls-2" d="M27.15,21.06a27.58,27.58,0,0,1,2.67-1c.88-.27,1.77-.51,2.68-.71a28.19,28.19,0,0,1,3.57-.54,26.29,26.29,0,0,1,2.68-.13H86.62q1,0,2.07.06A59.15,59.15,0,0,1,115,26.29a63,63,0,0,1,15.15,11.89l1.2,1.31q1,1.13,1.92,2.28c.44.54.87,1.08,1.29,1.64a65.84,65.84,0,0,1,3.88,5.71,69.41,69.41,0,0,1,10,36.14H38.75a30.2,30.2,0,0,1-22.09-9.75A34.36,34.36,0,0,1,7.52,52C7.52,38,15.64,26,27.15,21.06ZM83,58.47c.08.1.17.19.26.29l-.31-.6a.75.75,0,0,0-.11.13A2.32,2.32,0,0,1,83,58.47Zm.12-5.66-.17-.36-.24.12Z"/><g class="cls-3"><polygon class="cls-4" points="59.27 78.08 59.76 97.96 101.83 97.96 100.84 78.08 59.27 78.08"/></g><polygon class="cls-1" points="142.4 8.19 100.77 8.19 102.99 47.6 145.73 47.6 142.4 8.19"/><path d="M145.88,47.74h-43v-.13L100.62,8.05h41.91v.13Zm-42.76-.28h42.46L142.27,8.33H100.91Z"/><rect x="107.19" y="32.09" width="24.9" height="0.43"/><rect x="111.49" y="35.2" width="20.85" height="0.43"/><rect x="104.89" y="17.31" width="24.9" height="0.43"/><rect x="109.2" y="20.41" width="20.85" height="0.43"/><rect class="cls-5" x="133.44" y="16.52" width="5.67" height="5.67"/><rect class="cls-5" x="135.06" y="31.11" width="5.67" height="5.67"/><path class="cls-6" d="M134,18.82l.74-1,0,0,1.53,1.27a29.56,29.56,0,0,1,2-2.29c1.48-1.5,2.39-2.09,2.52-2.27,0,0,0,0,0,0s.43.42.76,1a33.45,33.45,0,0,0-2.8,3.06,32.59,32.59,0,0,0-2,2.8,17,17,0,0,0-1.53-1.53C134.85,19.45,134.42,19.11,134,18.82Z"/><path class="cls-6" d="M135.29,33.6l.75-1v0l1.53,1.28a29.77,29.77,0,0,1,2-2.29c1.48-1.5,2.39-2.1,2.53-2.28l0,0c.12-.05.43.42.77,1a33.35,33.35,0,0,0-2.81,3.06c-.78,1-1.46,1.92-2,2.8a16.94,16.94,0,0,0-1.53-1.53C136.13,34.24,135.7,33.9,135.29,33.6Z"/><polygon class="cls-1" points="48.81 24.93 89.09 24.93 93.17 60.87 55.95 62.4 48.81 24.93"/><path d="M55.85,62.53l0-.11L48.66,24.8H89.2l0,.11L93.31,61h-.14ZM49,25.06l7.09,37.21,37-1.52L89,25.06Z"/><polygon class="cls-1" points="106.17 49.14 146.44 49.14 150.52 85.08 110.12 86.87 106.17 49.14"/><path d="M110,87v-.12L106,49h40.53v.11l4.09,36.08h-.13Zm-3.69-37.73,3.92,37.47L150.38,85l-4-35.69Z"/><path class="cls-7" d="M110,37.49s0-.08,0-.12L72.85,37a7.12,7.12,0,0,0-1.52-4.07,6.61,6.61,0,0,0-4.57-2.54h-.14a6.87,6.87,0,0,0-4.94,2A8.32,8.32,0,0,0,59.14,38q1.77,25.67,3.55,51.31H114C112.66,72.53,111.32,54.28,110,37.49Zm-12.23,7.6h4.06v4.06H97.75Zm.5,9.14h4.07v4.06H98.25Zm1,8.63h4.07v4.07H99.27Zm5.08,13.72h-4.06V72.52h4.06Z"/><rect class="cls-1" x="100.29" y="72.52" width="4.07" height="4.07"/><path d="M104.42,76.65h-4.2v-4.2h4.2Zm-4.07-.13h3.94V72.58h-3.94Z"/><rect class="cls-1" x="97.75" y="45.09" width="4.06" height="4.06"/><path d="M101.87,49.21H97.68V45h4.19Zm-4.06-.13h3.94V45.15H97.81Z"/><rect class="cls-1" x="98.25" y="54.23" width="4.06" height="4.07"/><path d="M102.38,58.36H98.19V54.17h4.19Zm-4.06-.13h3.93V54.29H98.32Z"/><rect class="cls-1" x="99.27" y="62.86" width="4.06" height="4.07"/><path d="M103.4,67H99.21V62.8h4.19Zm-4.06-.12h3.93V62.93H99.34Z"/><path class="cls-8" d="M118.58,37.46,110,37.37,72.85,37a7.12,7.12,0,0,0-1.52-4.07,6.65,6.65,0,0,0-4.57-2.54h-.12C85,30.18,96,30,114.51,29.84a6.33,6.33,0,0,1,4.07,7.62Z"/><path d="M118.67,37.59h-.1L110,37.5l-37.24-.42V37a7,7,0,0,0-1.5-4,6.43,6.43,0,0,0-4.48-2.49h-.11v-.25c9.4-.08,17-.17,24.37-.25,7.11-.09,14.46-.17,23.51-.25h0a6.46,6.46,0,0,1,4.15,7.78ZM73,36.83l37,.41,8.51.1a6.19,6.19,0,0,0-4-7.37c-9,.08-16.38.17-23.48.25s-14.2.16-23,.24a7,7,0,0,1,3.37,2.35A7.32,7.32,0,0,1,73,36.83Z"/><rect x="71.08" y="45.72" width="21.84" height="0.25"/><rect x="73.87" y="48.51" width="18.29" height="0.25"/><rect x="80.47" y="54.61" width="13.21" height="0.25"/><rect x="91.14" y="58.17" width="3.05" height="0.25"/><rect x="73.36" y="63.75" width="21.34" height="0.25"/><rect x="87.08" y="67.82" width="8.13" height="0.25"/><rect x="83.01" y="73.41" width="11.68" height="0.25"/><rect x="92.92" y="76.46" width="2.54" height="0.25"/><path class="cls-6" d="M95.78,45.58l.75-1v0l1.53,1.27a29.77,29.77,0,0,1,2-2.29c1.48-1.5,2.39-2.1,2.53-2.28l0,0c.12,0,.43.42.77,1a33.35,33.35,0,0,0-2.81,3.06c-.78,1-1.46,1.92-2,2.8a16.94,16.94,0,0,0-1.53-1.53C96.62,46.22,96.19,45.88,95.78,45.58Z"/><path d="M98.59,48.24l0-.06A18.41,18.41,0,0,0,97,46.65a15.63,15.63,0,0,0-1.27-1l0,0,.79-1.06v-.11l1.58,1.32c.63-.78,1.31-1.54,2-2.25a23.73,23.73,0,0,1,2.15-2,2.53,2.53,0,0,0,.37-.32.1.1,0,0,1,0,0c.1,0,.26,0,.84,1.05l0,0,0,0a33.73,33.73,0,0,0-2.8,3,32.69,32.69,0,0,0-2,2.8Zm-2.72-2.67q.63.47,1.23,1A17.1,17.1,0,0,1,98.58,48a32.93,32.93,0,0,1,2-2.74,34.65,34.65,0,0,1,2.78-3c-.51-.89-.65-.95-.67-.95a2.53,2.53,0,0,1-.38.34,25.11,25.11,0,0,0-2.14,1.94,27.78,27.78,0,0,0-2,2.29l0,0-1.52-1.27Z"/><path class="cls-6" d="M97.82,56.29l.75-1v0l1.53,1.28a30.08,30.08,0,0,1,2-2.3c1.48-1.5,2.39-2.09,2.53-2.27a0,0,0,0,1,0,0c.12-.05.43.42.77,1A32.09,32.09,0,0,0,102.66,56a32.59,32.59,0,0,0-2,2.8,15.75,15.75,0,0,0-1.53-1.53C98.65,56.92,98.23,56.59,97.82,56.29Z"/><path d="M100.63,58.94l0-.06a16.88,16.88,0,0,0-1.53-1.52,15.74,15.74,0,0,0-1.27-1l0,0,.79-1v-.11l1.58,1.32a26.88,26.88,0,0,1,2-2.25,23.73,23.73,0,0,1,2.15-2,3.4,3.4,0,0,0,.37-.32.1.1,0,0,1,.05,0c.1,0,.26,0,.84,1.05l0,0,0,0a35.26,35.26,0,0,0-2.8,3.06,32.54,32.54,0,0,0-2,2.79Zm-2.72-2.66c.42.31.83.64,1.23,1a20.53,20.53,0,0,1,1.48,1.47,31.19,31.19,0,0,1,2-2.73,31.89,31.89,0,0,1,2.78-3c-.51-.9-.65-.95-.67-.95a3.29,3.29,0,0,1-.38.34,23.44,23.44,0,0,0-2.14,1.94,27.78,27.78,0,0,0-2,2.29l0,0-1.53-1.28Z"/><path class="cls-6" d="M98.58,65l.75-1,0,0,1.53,1.27a27.8,27.8,0,0,1,2-2.29c1.48-1.5,2.39-2.1,2.52-2.28l0,0c.12,0,.42.42.76,1a34.7,34.7,0,0,0-2.8,3.06,32.08,32.08,0,0,0-2,2.81A17,17,0,0,0,99.86,66,15,15,0,0,0,98.58,65Z"/><path d="M101.4,67.61l-.06-.06A18.29,18.29,0,0,0,99.82,66c-.41-.35-.84-.69-1.27-1l-.06,0,.79-1V63.8l1.59,1.32c.63-.78,1.3-1.54,2-2.25,1-1,1.72-1.59,2.15-1.95a2.53,2.53,0,0,0,.37-.32l0,0c.1,0,.26,0,.85,1l0,0,0,0a32.22,32.22,0,0,0-2.8,3,34.46,34.46,0,0,0-2,2.8Zm-2.73-2.67a14.79,14.79,0,0,1,1.23,1,17.11,17.11,0,0,1,1.48,1.47c.62-.94,1.29-1.86,2-2.74a34.54,34.54,0,0,1,2.77-3c-.5-.89-.64-.94-.67-1a1.75,1.75,0,0,1-.38.34A25.11,25.11,0,0,0,103,63c-.71.73-1.4,1.5-2,2.29l0,0L99.36,64Z"/><path class="cls-6" d="M99.6,75.41l.75-1,0,0,1.53,1.27a29.56,29.56,0,0,1,2-2.29c1.48-1.5,2.39-2.09,2.52-2.28h0c.12,0,.42.42.76,1a34.7,34.7,0,0,0-2.8,3.06,32.08,32.08,0,0,0-2,2.81,17,17,0,0,0-1.53-1.53A15,15,0,0,0,99.6,75.41Z"/><path d="M102.41,78.06l0-.06a16.77,16.77,0,0,0-1.52-1.52c-.41-.36-.84-.7-1.27-1l-.06,0,.79-1v-.12l1.59,1.32c.63-.78,1.3-1.53,2-2.25A26.4,26.4,0,0,1,106,71.38a3.4,3.4,0,0,0,.37-.32s0,0,0,0,.26,0,.85,1l0,0,0,0a33.5,33.5,0,0,0-2.79,3,34.46,34.46,0,0,0-2,2.8ZM99.69,75.4a14.68,14.68,0,0,1,1.23,1,17.11,17.11,0,0,1,1.48,1.47c.62-.94,1.29-1.86,2-2.74a34.54,34.54,0,0,1,2.77-3c-.5-.89-.64-.94-.67-.94a2.19,2.19,0,0,1-.38.33A27,27,0,0,0,104,73.41c-.71.73-1.4,1.5-2,2.29l0,0-1.53-1.27Z"/><path class="cls-9" d="M150.9,119.5H128a151.21,151.21,0,0,0-7.14-24.22c-2.25-5.54-3.37-8.31-5.09-10.2s-3.74-3.32-4.59-6.37a8.05,8.05,0,0,1,0-4.84,7.6,7.6,0,0,1,1.65-2.79c-1.39-4-2.67-7.15-3.69-9.45-1.38-3.1-2.17-6.47-3.83-9.43-.94-1.69-2.23-3.71-1.52-4.59a1.79,1.79,0,0,1,2-.25,2.34,2.34,0,0,1,1,1.53c.62,2.2,2.44,3.87,3.57,5.86a71.62,71.62,0,0,0,5.51,7.87c.38-.73,1.34-2.44,2.39-2.77a3.92,3.92,0,0,1,3.06.51,5.78,5.78,0,0,1,1.87,1.56,4.15,4.15,0,0,1,.94-.29,5.36,5.36,0,0,1,3.82,1,7.94,7.94,0,0,1,2.53,2.63,4.11,4.11,0,0,1,1.8.18,5,5,0,0,1,2.3,1.78,8.45,8.45,0,0,1,1.78,3.83,9.25,9.25,0,0,1,0,3.56c-.38,2.13-.58,6.83,0,17.59Q143.64,105.86,150.9,119.5Z"/><path d="M151.11,119.62H127.86l0-.1a150.35,150.35,0,0,0-7.13-24.19c-2.24-5.52-3.37-8.28-5.08-10.16-.36-.4-.75-.79-1.12-1.16a11.58,11.58,0,0,1-3.5-5.26,8.26,8.26,0,0,1,0-4.92,7.56,7.56,0,0,1,1.63-2.78c-1.16-3.35-2.39-6.5-3.67-9.36-.56-1.26-1-2.59-1.48-3.86a36.68,36.68,0,0,0-2.34-5.57c-.1-.17-.2-.36-.31-.54-.93-1.64-1.89-3.33-1.2-4.19a1.9,1.9,0,0,1,2.19-.28,2.4,2.4,0,0,1,1.08,1.58v0a11.76,11.76,0,0,0,2.12,3.73,19.06,19.06,0,0,1,1.43,2.11,72.21,72.21,0,0,0,5.38,7.69c.59-1.08,1.45-2.36,2.38-2.65a4,4,0,0,1,3.15.52,5.78,5.78,0,0,1,1.85,1.51,4.15,4.15,0,0,1,.88-.25,5.39,5.39,0,0,1,3.91,1,7.87,7.87,0,0,1,2.53,2.6,4.19,4.19,0,0,1,1.77.19,5.14,5.14,0,0,1,2.36,1.82A8.64,8.64,0,0,1,136.5,71a9.63,9.63,0,0,1,0,3.59v0c-.49,2.67-.49,8.57,0,17.53Zm-23.05-.25h22.63L136.25,92.26v0c-.49-9-.49-14.93,0-17.62v0a9.31,9.31,0,0,0,0-3.49,8.37,8.37,0,0,0-1.76-3.77,4.93,4.93,0,0,0-2.24-1.74,4,4,0,0,0-1.74-.17h-.08l-.05-.07a7.64,7.64,0,0,0-2.49-2.59,5.23,5.23,0,0,0-3.73-1,4.08,4.08,0,0,0-.91.27l-.08,0-.06-.07a5.79,5.79,0,0,0-1.84-1.53,3.84,3.84,0,0,0-3-.5c-.69.22-1.52,1.18-2.32,2.71l-.09.17-.12-.15a74.17,74.17,0,0,1-5.52-7.89,20.64,20.64,0,0,0-1.42-2.08,12.43,12.43,0,0,1-2.16-3.81v0a2.23,2.23,0,0,0-.94-1.42,1.7,1.7,0,0,0-1.89.22c-.57.72.39,2.41,1.24,3.9.1.19.21.37.31.55a37.5,37.5,0,0,1,2.35,5.6c.45,1.27.92,2.59,1.47,3.84,1.29,2.89,2.54,6.07,3.7,9.46l0,.07,0,0a7.44,7.44,0,0,0-1.63,2.75,8,8,0,0,0,0,4.77,11.26,11.26,0,0,0,3.43,5.15c.37.37.76.76,1.13,1.17,1.74,1.91,2.87,4.69,5.12,10.23A148.34,148.34,0,0,1,128.06,119.37Z"/><path d="M131.41,67.78a9.56,9.56,0,0,0-1-2.43l.22-.13a9.58,9.58,0,0,1,1.05,2.5Z"/><path d="M124.78,65.74A9,9,0,0,0,123.11,62l.19-.16A9.18,9.18,0,0,1,125,65.69Z"/><path d="M114.33,76.2c-.53-1.72-1.08-3.43-1.66-5.08l.24-.08c.58,1.65,1.13,3.36,1.66,5.09Z"/><path d="M118.43,66.05c-1-1.19-1.85-2.32-2.65-3.35l.2-.16c.8,1,1.69,2.16,2.65,3.35Z"/><polygon class="cls-1" points="5.1 44.55 7.65 81.26 51.49 80.75 48.94 44.55 5.1 44.55"/><path d="M7.53,81.39v-.12L5,44.43h44.1v.12l2.56,36.33h-.14ZM5.23,44.68,7.77,81.13l43.58-.5L48.82,44.68Z"/><polygon points="44.23 77.31 12.37 77.31 12.36 77.19 9.81 48.39 10.07 48.37 12.61 77.06 43.96 77.06 42.19 51.19 42.44 51.17 44.23 77.31"/><rect x="31.03" y="56.25" width="0.25" height="20.97" transform="translate(-5.18 2.67) rotate(-4.53)"/><rect x="22.43" y="66.72" width="0.26" height="10.48" transform="translate(-5.22 1.85) rotate(-4.21)"/><polyline class="cls-8" points="0 74.12 2.04 75.91 11.47 67.24 19.88 72.85 37.47 51.44 44.61 57.05 54.04 46.34 55.31 47.61 56.84 41.24 50.98 43.28 52 44.3 44.86 52.46 37.47 46.85 20.14 67.75 12.23 62.65 0 74.38"/><circle class="cls-6" cx="31.99" cy="54.62" r="3.95"/><path class="cls-9" d="M88.07,121.28H64.87Q62,113.45,59.14,105.6q-2.56-7-5.1-14c-.59-.1-1.48-.27-2.55-.51a35.33,35.33,0,0,1-8.41-2.54c-2-1-3.43-1.68-4.33-3.32a4.14,4.14,0,0,1-.51-3.57,3.21,3.21,0,0,1,.44-.73,3,3,0,0,1-1.46-2.33,2.81,2.81,0,0,1,.76-2,2.74,2.74,0,0,1,.91-.64,6.19,6.19,0,0,1-.65-2.42A4.1,4.1,0,0,1,39,70.43a3.6,3.6,0,0,1,1.74-1.1L30.59,57.43a1.68,1.68,0,0,1,.25-2.3,1.64,1.64,0,0,1,1.79,0q5.09,4.44,10.45,8.93c1.64,1.36,3.27,2.72,4.89,4l1,0c.43,0,1.16.08,2.3.26a12.07,12.07,0,0,1,4.07,1,6.11,6.11,0,0,1,2,2c3.2,4.72,4.8,7.09,5.23,8C64.24,83.09,71.62,95.34,88.07,121.28Z"/><path d="M88.3,121.41H64.78l0-.09q-2.86-7.83-5.73-15.67-2.55-7-5.08-14c-.85-.16-1.67-.32-2.48-.5A36.27,36.27,0,0,1,43,88.64c-1.92-.93-3.44-1.66-4.39-3.37a4.32,4.32,0,0,1-.51-3.68,2.84,2.84,0,0,1,.38-.65,3.09,3.09,0,0,1-1.41-2.35,2.92,2.92,0,0,1,1.63-2.74,6.2,6.2,0,0,1-.61-2.36,4.23,4.23,0,0,1,.79-3.14,3.62,3.62,0,0,1,1.61-1.08l-10-11.76A1.8,1.8,0,0,1,30.77,55a1.72,1.72,0,0,1,1.92,0c3.46,3,7,6,10.47,8.93,1.56,1.3,3.19,2.65,4.86,4,.3,0,.62,0,.93,0a19.92,19.92,0,0,1,2.31.25,12.16,12.16,0,0,1,4.12,1,6.22,6.22,0,0,1,2.08,2.08c3.32,4.91,4.81,7.11,5.23,8C64.5,83.36,72.84,97,88.18,121.21ZM65,121.15H87.84C72.57,97.08,64.27,83.46,62.46,79.53c-.44-1-2.13-3.46-5.21-8a6,6,0,0,0-2-2,12.06,12.06,0,0,0-4-1,21.75,21.75,0,0,0-2.29-.25c-.32,0-.64,0-1,0h0l0,0c-1.68-1.38-3.32-2.74-4.89-4.06-3.49-2.92-7-5.92-10.46-8.92a1.47,1.47,0,0,0-1.62,0,1.54,1.54,0,0,0-.23,2.11l10.14,11.9.13.15-.19,0a3.42,3.42,0,0,0-1.67,1.06,4,4,0,0,0-.74,3A6.12,6.12,0,0,0,39,75.85l.06.12-.12.06a2.61,2.61,0,0,0-.87.6,2.76,2.76,0,0,0-.73,2,2.91,2.91,0,0,0,1.41,2.23l.13.08-.1.11a2.75,2.75,0,0,0-.43.69,4.09,4.09,0,0,0,.51,3.46c.9,1.63,2.39,2.35,4.27,3.26A35.55,35.55,0,0,0,51.52,91c.83.18,1.66.35,2.54.51h.07l0,.07q2.54,7,5.1,14Q62.1,113.36,65,121.15Z"/><path d="M43.75,73.06l-1.6-1.87-1.51-1.78.19-.16L42.34,71l1.6,1.87Z"/><path d="M52.94,72.31c-1.69-1.36-3.39-2.74-5-4.1l.16-.2c1.66,1.36,3.36,2.74,5.05,4.1Z"/><path d="M40.18,77.91A7.9,7.9,0,0,1,38.78,76l.22-.12a7.69,7.69,0,0,0,1.36,1.88Z"/><path d="M39.73,81.51A3.89,3.89,0,0,1,38.61,81l.14-.21a4.13,4.13,0,0,0,1,.46Z"/></g></g></svg>