<svg xmlns="http://www.w3.org/2000/svg" viewBox="0 0 4509 1314.42"><defs><style>.cls-1{fill:#fee6c0;}.cls-2{fill:#ffb17a;}.cls-3{fill:#fff;}.cls-4{fill:#64a15e;}.cls-5,.cls-6,.cls-7{fill:none;stroke-miterlimit:10;}.cls-5,.cls-7{stroke:#8cc63f;}.cls-5,.cls-6{stroke-width:5px;}.cls-6{stroke:#006837;}.cls-7{stroke-width:10px;}.cls-8{fill:#6254b6;}.cls-9{fill:#493b91;}.cls-10{fill:#1b1464;}.cls-11{fill:#ffb5b5;}.cls-12{fill:#1e1147;}.cls-13{fill:#b0acbf;}.cls-14{fill:#e79090;}.cls-15{fill:#f86880;}.cls-16{fill:#1e144a;}</style></defs><title>Asset 6</title><g id="Layer_2" data-name="Layer 2"><g id="Layer_1-2" data-name="Layer 1"><rect class="cls-1" y="270" width="4509" height="1044" rx="143.82"/><path class="cls-2" d="M585,342c0,283.32-229.68,513-513,513a516.47,516.47,0,0,1-72-5V413.82A143.82,143.82,0,0,1,143.82,270H580A516.47,516.47,0,0,1,585,342Z"/><path class="cls-2" d="M4509,750.83v419.35A143.82,143.82,0,0,1,4365.18,1314H3935.81a517.8,517.8,0,0,1-2.81-54c0-283.32,229.68-513,513-513A517.71,517.71,0,0,1,4509,750.83Z"/><path class="cls-3" d="M234,603H410.53A102.47,102.47,0,0,1,513,705.47V891a0,0,0,0,1,0,0H336.47A102.47,102.47,0,0,1,234,788.53V603A0,0,0,0,1,234,603Z"/><rect class="cls-4" x="288" y="783.45" width="189" height="66.15" rx="29.24"/><line class="cls-5" x1="297" y1="729" x2="450" y2="729"/><line class="cls-6" x1="297" y1="675.5" x2="450" y2="675.5"/><path class="cls-3" d="M1578.47,441H1755a0,0,0,0,1,0,0V626.53A102.47,102.47,0,0,1,1652.53,729H1476a0,0,0,0,1,0,0V543.47A102.47,102.47,0,0,1,1578.47,441Z" transform="translate(3231 1170) rotate(-180)"/><circle class="cls-4" cx="1619.5" cy="539.5" r="54"/><line class="cls-7" x1="1557" y1="630" x2="1683" y2="630"/><line class="cls-7" x1="1557" y1="666" x2="1683" y2="666"/><path class="cls-8" d="M945.16,566.7c110-4.06,196.21-2.37,254.26,0a880.71,880.71,0,0,1,139.84,16.95c42.09,8.55,63.56,13.07,84.75,25.43,25.75,15,44.07,35.13,93.23,118.65,41.44,70.41,67.8,122.89,67.8,122.89,20.44,40.7,47.27,96.67,76.28,165.27L1118.9,1304.05l-648.35,4.24c-7-1.52-47.41-11-72-50.85-25.21-40.83-14.58-82.19-12.72-89L529.87,893,652.76,668.41A151,151,0,0,1,690.9,626c33.92-25.39,67.94-27,118.66-33.9,35-4.76,45.64-6.56,82.44-13.82C914.47,573.87,932.85,569.65,945.16,566.7Z"/><path class="cls-9" d="M814.27,827.08,649,1136.43h84.75Z"/><path class="cls-10" d="M911.73,1136.9a4.7,4.7,0,0,1-4.7-4.53L885.84,585.72a4.71,4.71,0,0,1,9.41-.37L916.44,1132a4.72,4.72,0,0,1-4.53,4.89Z"/><rect class="cls-10" x="1087.53" y="727.03" width="300.99" height="9.42" transform="translate(471.76 1948.69) rotate(-88.39)"/><path class="cls-3" d="M1203.67,1314.41H945.46c0-1.3,0-2.59,0-3.89l-.06-5.33-.18-15.7-.3-27.19q0-3.6-.08-7.22-.63-55.74-1.25-111.48-3.21-284.2-6.39-568.42l12.71-4.24h241.54l6.21,376.34q2.57,156.12,5.15,312.22.29,18.38.6,36.74c0,.4,0,.79,0,1.19Q1203.53,1305.92,1203.67,1314.41Z"/><path class="cls-11" d="M1000.72,1170.33a341,341,0,0,1,55.09,12.71c7.7,2.47,34.44,11.16,59.33,25.43,44.52,25.53,73,63.11,89,89L928.68,1289Z"/><path class="cls-8" d="M534.58,1132.19l127.13,4.24c55.32,4.74,114.8,7.87,178,8.47,58.37.56,113.58-1.08,165.27-4.23l-17,169.5-508.52,4.24a115.87,115.87,0,0,1-93.23-72c-24.07-60.7,15.31-112.33,16.95-114.42Z"/><path class="cls-12" d="M1818.58,916.07l-84.75,347.49c.46,4.08,1.68,19.42-8.47,33.9a49.15,49.15,0,0,1-21.19,17H924.44a51.64,51.64,0,0,1-20-3.54,41.3,41.3,0,0,1-9.52-5.36,39.32,39.32,0,0,1-4.37-3.81,41.07,41.07,0,0,1-8.47-12.72v-33.9h245.78q3.78-16.71,7.58-33.43l62.19-274.37q1.13-5,2.27-10c-.62-2.21-4.25-16.07,4.24-29.66,8.68-13.92,23.21-16.59,25.42-17l372.54-5.49,203.78-3a26.19,26.19,0,0,1,12.71,12.71C1823.23,905.12,1819.25,914.56,1818.58,916.07Z"/><path class="cls-13" d="M1483.81,1055.91c-24.79,1.18-43.12,21.25-42.38,42.38.69,19.56,17.69,39.15,38.14,38.14,18.21-.9,31.5-17.74,33.9-33.9C1516.31,1083.47,1504.28,1063.61,1483.81,1055.91Z"/><path class="cls-11" d="M975.3,488.07l4.23,135.6c5.69,6.91,31.63,36.88,76.28,42.38,55,6.78,92.71-29.2,97.47-33.9l4.23-169.51Z"/><path class="cls-14" d="M983.77,483.83A100.67,100.67,0,0,0,1005,522c35.75,39.78,92.33,34.74,101.7,33.9a138.7,138.7,0,0,0,46.62-12.71l-4.24-89Z"/><path class="cls-11" d="M907.49,284.66c-3.84-1.47-16.93-6-29.66,0-18.5,8.69-20.64,32.18-21.19,38.14-2.29,25.13,12.12,55.32,38.14,63.57,12.3,3.9,23.53,1.73,29.66,0a173.81,173.81,0,0,0,12.72,50.85c6.22,14.83,17.73,42.26,46.61,63.56,32.06,23.65,65.69,25.11,76.28,25.43,12.59.37,49.22-.24,84.75-25.43,34.65-24.55,47.11-57.46,50.85-67.8a145,145,0,0,0,8.48-42.37,66.91,66.91,0,0,0,42.37-8.48c21.28-12.53,28.07-32.8,29.67-38.14,2.71-9.09,9.28-31.08-4.24-46.61-7.59-8.72-20.61-15.37-33.9-12.72-17,3.39-30.35,21-29.67,42.38l4.24-190.69L937.16,110.92Z"/><path class="cls-15" d="M1072.76,310.09l-21.19,63.56h38.14Z"/><path d="M1009.52,390.47A61.86,61.86,0,0,0,1021,405.68a54,54,0,0,0,7.27,5.93c.64.44,1.27.9,1.94,1.29l1,.62c.33.2.66.41,1,.59l2,1.1,1,.54,1,.48,2.11.93c.72.28,1.46.51,2.18.76,1.43.54,2.94.86,4.41,1.27.73.2,1.49.33,2.22.52.37.09.74.17,1.11.27l1.11.24c.75.15,1.48.35,2.22.52s1.49.31,2.24.48c3,.64,6,1.2,9.15,1.66s6.3.84,9.64,1.28l.12.69a32.44,32.44,0,0,1-9.71,3,43.72,43.72,0,0,1-10.23.34,36.07,36.07,0,0,1-10-2.37c-1.58-.7-3.18-1.32-4.69-2.15-.76-.4-1.53-.78-2.28-1.18l-2.22-1.29-1.11-.64-1.06-.71-2.11-1.42c-.36-.23-.69-.49-1-.75l-1-.77c-.68-.51-1.32-1.06-2-1.61a58.51,58.51,0,0,1-7-7.26,57,57,0,0,1-9.52-17.31Z"/><path d="M865.12,314.33a30.51,30.51,0,0,1,18.43-4.61A33.27,33.27,0,0,1,902,316.85c.64.55,1.29,1.09,1.92,1.66l1.78,1.8c.56.64,1.07,1.31,1.61,2a17.43,17.43,0,0,1,1.46,2.06,22.54,22.54,0,0,1,1.29,2.17c.38.75.8,1.49,1.11,2.26s.63,1.56.92,2.33l.7,2.39a32.66,32.66,0,0,1,1,9.7c-.06.8-.12,1.6-.22,2.39s-.21,1.58-.4,2.36a23,23,0,0,1-1.39,4.53,65.14,65.14,0,0,0-1.44-9,46.92,46.92,0,0,0-2.76-8.19,34.54,34.54,0,0,0-4.26-7.11,32.71,32.71,0,0,0-5.69-5.83,38.28,38.28,0,0,0-14.82-7.15A44.58,44.58,0,0,0,874.2,314,63.57,63.57,0,0,0,865.12,314.33Z"/><path d="M1225.32,352.47a18.24,18.24,0,0,1-1.14-3.75,24.55,24.55,0,0,1-.48-3.92,27.48,27.48,0,0,1,.83-8,28.48,28.48,0,0,1,3.19-7.59c.37-.58.78-1.15,1.17-1.72a15.77,15.77,0,0,1,1.29-1.64l.68-.79a10.44,10.44,0,0,1,.71-.77c.49-.5,1-1,1.51-1.45A27.82,27.82,0,0,1,1248,316.1a29.33,29.33,0,0,1,8,.09,27.89,27.89,0,0,1,3.85.88,17.53,17.53,0,0,1,3.61,1.5,72.68,72.68,0,0,0-7.4,1.09,50.17,50.17,0,0,0-6.82,1.86,34.23,34.23,0,0,0-11.47,6.63,25.6,25.6,0,0,0-2.35,2.31l-.57.59c-.19.2-.34.43-.52.64l-1,1.28a38,38,0,0,0-3.53,5.72,41.94,41.94,0,0,0-2.61,6.53A63,63,0,0,0,1225.32,352.47Z"/><path d="M958.34,242.29a39.21,39.21,0,0,1,4-2c1.34-.62,2.7-1.17,4.07-1.69A79.1,79.1,0,0,1,974.7,236a96.88,96.88,0,0,1,34.43-2.17,78.64,78.64,0,0,1,8.58,1.52c1.42.35,2.84.72,4.25,1.17a40.78,40.78,0,0,1,4.19,1.54c-1.45.44-2.89.77-4.31,1.08s-2.85.58-4.27.84q-4.25.75-8.44,1.26c-5.6.71-11.15,1.18-16.72,1.53s-11.14.56-16.79.56q-4.23,0-8.53-.21c-1.44-.08-2.88-.16-4.33-.29S959.84,242.54,958.34,242.29Z"/><path d="M1110.9,238.05a27.66,27.66,0,0,1,3.37-1.57c1.14-.46,2.29-.84,3.44-1.2a53.83,53.83,0,0,1,7-1.58,63,63,0,0,1,14.25-.5,61.94,61.94,0,0,1,14,2.66,51.76,51.76,0,0,1,6.7,2.64c1.09.53,2.17,1.08,3.22,1.71a27.4,27.4,0,0,1,3.09,2.08,36.93,36.93,0,0,1-3.67.48c-1.2.12-2.38.2-3.56.26q-3.52.18-7,.15c-4.58,0-9.07-.25-13.55-.6s-9-.81-13.48-1.49c-2.27-.33-4.54-.73-6.85-1.21-1.15-.24-2.31-.49-3.48-.8S1112.1,238.47,1110.9,238.05Z"/><circle class="cls-16" cx="1002.84" cy="299.5" r="14.83"/><circle class="cls-16" cx="1138.44" cy="299.5" r="14.83"/><path class="cls-12" d="M920.21,310.09A333,333,0,0,0,899,229.58C888.64,204,878.59,189,877.83,161.77c-.35-12.47-.6-31.53,12.71-46.61,3.58-4,15.49-16.15,33.9-17a46.15,46.15,0,0,1,21.19,4.24c-.36-9-.18-34.67,17-59.33C980.87,16.79,1006.84,8.33,1017.67,5c37.77-11.68,70.37.33,80.52,4.24,7.21,2.77,24.68,14.6,59.32,38.14,24.59,16.7,37,25.15,42.38,29.66,22,18.46,41.32,34.65,50.85,59.33,16.89,43.73-5.09,93.06-12.71,110.18-5.17,11.59-14.5,29-25.43,59.32-3.84,10.66-6.67,19.53-8.47,25.43a881.52,881.52,0,0,1-8.48-97.47c-.6-19.18-.55-37.57,0-55.09a98.3,98.3,0,0,1-25.42,12.72c-38.61,12.66-73.74-3-84.76-8.48-18.34-12.57-32.71-22.74-42.37-29.66-9.88-7.07-14-10.15-21.19-12.72-13.41-4.79-29.73-5.05-42.38,0-22.83,9.13-31.33,34.65-38.14,55.09-10.15,30.5-4.6,44.33-16.95,97.47C922.75,300.43,921.21,306.34,920.21,310.09Z"/></g></g></svg>