<svg xmlns="http://www.w3.org/2000/svg" xmlns:xlink="http://www.w3.org/1999/xlink" viewBox="0 0 4212 999.46"><defs><style>.cls-1{fill:none;}.cls-2{clip-path:url(#clip-path);}.cls-3{fill:#d37a7a;}.cls-4{fill:#d2797a;}.cls-5{fill:#d17979;}.cls-6{fill:#d07879;}.cls-7{fill:#cf7879;}.cls-8{fill:#ce7778;}.cls-9{fill:#cd7778;}.cls-10{fill:#cc7678;}.cls-11{fill:#cb7677;}.cls-12{fill:#ca7577;}.cls-13{fill:#c97577;}.cls-14{fill:#c87476;}.cls-15{fill:#c77376;}.cls-16{fill:#c67376;}.cls-17{fill:#c57275;}.cls-18{fill:#c47275;}.cls-19{fill:#c37175;}.cls-20{fill:#c27174;}.cls-21{fill:#c17074;}.cls-22{fill:#c07074;}.cls-23{fill:#bf6f73;}.cls-24{fill:#be6f73;}.cls-25{fill:#bd6e73;}.cls-26{fill:#bc6d72;}.cls-27{fill:#bb6d72;}.cls-28{fill:#ba6c72;}.cls-29{fill:#b96c71;}.cls-30{fill:#b86b71;}.cls-31{fill:#b76b71;}.cls-32{fill:#b66a70;}.cls-33{fill:#b56a70;}.cls-34{fill:#b46970;}.cls-35{fill:#b3696f;}.cls-36{fill:#b2686f;}.cls-37{fill:#b1676e;}.cls-38{fill:#b0676e;}.cls-39{fill:#af666e;}.cls-40{fill:#ae666d;}.cls-41{fill:#ad656d;}.cls-42{fill:#ac656d;}.cls-43{fill:#ab646c;}.cls-44{fill:#aa646c;}.cls-45{fill:#a9636c;}.cls-46{fill:#a8636b;}.cls-47{fill:#a7626b;}.cls-48{fill:#a6616b;}.cls-49{fill:#a5616a;}.cls-50{fill:#a4606a;}.cls-51{fill:#a3606a;}.cls-52{fill:#a25f69;}.cls-53{fill:#a15f69;}.cls-54{fill:#a05e69;}.cls-55{fill:#9f5e68;}.cls-56{fill:#9e5d68;}.cls-57{fill:#9d5d68;}.cls-58{fill:#9c5c67;}.cls-59{fill:#9b5b67;}.cls-60{fill:#9a5b67;}.cls-61{fill:#995a66;}.cls-62{fill:#985a66;}.cls-63{fill:#975966;}.cls-64{fill:#965965;}.cls-65{fill:#955865;}.cls-66{fill:#945865;}.cls-67{fill:#935764;}.cls-68{fill:#925764;}.cls-69{fill:#915664;}.cls-70{fill:#905563;}.cls-71{fill:#8f5563;}.cls-72{fill:#8e5463;}.cls-73{fill:#8d5462;}.cls-74{fill:#8c5362;}.cls-75{fill:#8b5362;}.cls-76{fill:#8a5261;}.cls-77{fill:#895261;}.cls-78{fill:#885161;}.cls-79{fill:#875160;}.cls-80{fill:#865060;}.cls-81{fill:#854f60;}.cls-82{fill:#844f5f;}.cls-83{fill:#834e5f;}.cls-84{fill:#824e5f;}.cls-85{fill:#814d5e;}.cls-86{fill:#804d5e;}.cls-87{fill:#7f4c5e;}.cls-88{fill:#7e4c5d;}.cls-89{fill:#7d4b5d;}.cls-90{fill:#7c4b5d;}.cls-91{fill:#7b4a5c;}.cls-92{fill:#7a495c;}.cls-93{fill:#79495c;}.cls-94{fill:#78485b;}.cls-95{fill:#77485b;}.cls-96{fill:#76475b;}.cls-97{fill:#75475a;}.cls-98{fill:#73465a;}.cls-99{fill:#724659;}.cls-100{fill:#714559;}.cls-101{fill:#704559;}.cls-102{fill:#6f4458;}.cls-103{fill:#6e4458;}.cls-104{fill:#6d4358;}.cls-105{fill:#6c4257;}.cls-106{fill:#6b4257;}.cls-107{fill:#6a4157;}.cls-108{fill:#694156;}.cls-109{fill:#684056;}.cls-110{fill:#674056;}.cls-111{fill:#663f55;}.cls-112{fill:#653f55;}.cls-113{fill:#643e55;}.cls-114{fill:#633e54;}.cls-115{fill:#623d54;}.cls-116{fill:#613c54;}.cls-117{fill:#603c53;}.cls-118{fill:#5f3b53;}.cls-119{fill:#5e3b53;}.cls-120{fill:#5d3a52;}.cls-121{fill:#5c3a52;}.cls-122{fill:#5b3952;}.cls-123{fill:#5a3951;}.cls-124{fill:#593851;}.cls-125{fill:#583851;}.cls-126{fill:#573750;}.cls-127{fill:#563650;}.cls-128{fill:#553650;}.cls-129{fill:#54354f;}.cls-130{fill:#53354f;}.cls-131{fill:#52344f;}.cls-132{fill:#51344e;}.cls-133{fill:#50334e;}.cls-134{fill:#4f334e;}.cls-135{fill:#4e324d;}.cls-136{fill:#4d324d;}.cls-137{fill:#4c314d;}.cls-138{fill:#4b304c;}.cls-139{fill:#4a304c;}.cls-140{fill:#492f4c;}.cls-141{fill:#482f4b;}.cls-142{fill:#472e4b;}.cls-143{fill:#462e4b;}.cls-144{fill:#452d4a;}.cls-145{fill:#442d4a;}.cls-146{fill:#432c4a;}.cls-147{fill:#422c49;}.cls-148{fill:#412b49;}.cls-149{fill:#402a49;}.cls-150{fill:#3f2a48;}.cls-151{fill:#3e2948;}.cls-152{fill:#3d2948;}.cls-153{fill:#3c2847;}.cls-154{fill:#3b2847;}.cls-155{fill:#3a2747;}.cls-156{fill:#392746;}.cls-157{fill:#382646;}.cls-158{fill:#372646;}.cls-159{fill:#362545;}.cls-160{fill:#352445;}.cls-161{fill:#342444;}.cls-162{fill:#332344;}.cls-163{fill:#322344;}.cls-164{fill:#312243;}.cls-165{fill:#302243;}.cls-166{fill:#2f2143;}.cls-167{fill:#2e2142;}.cls-168{fill:#2d2042;}.cls-169{fill:#2c2042;}.cls-170{fill:#2b1f41;}.cls-171{fill:#2a1e41;}.cls-172{fill:#291e41;}.cls-173{fill:#281d40;}.cls-174{fill:#271d40;}.cls-175{fill:#261c40;}.cls-176{fill:#251c3f;}.cls-177{fill:#241b3f;}.cls-178{fill:#231b3f;}.cls-179{fill:#221a3e;}.cls-180{fill:#211a3e;}.cls-181{fill:#20193e;}.cls-182{fill:#1f183d;}.cls-183{fill:#1e183d;}.cls-184{fill:#1d173d;}.cls-185{fill:#1c173c;}.cls-186{fill:#1b163c;}.cls-187{fill:#1a163c;}.cls-188{fill:#19153b;}.cls-189{fill:#18153b;}.cls-190{fill:#17143b;}.cls-191{fill:#16143a;}.cls-192{fill:#15133a;}.cls-193{fill:#e79f98;}.cls-194{fill:#deb678;}.cls-195{fill:#f5cf91;}.cls-196{fill:#ee786c;}.cls-197{fill:#c4454e;}.cls-198{fill:#f6cf94;}.cls-199{fill:#87899e;}.cls-200{clip-path:url(#clip-path-2);}.cls-201{fill:#88447c;}.cls-202{fill:#89457c;}.cls-203{fill:#8a457c;}.cls-204{fill:#8b467c;}.cls-205{fill:#8c467b;}.cls-206{fill:#8d477b;}.cls-207{fill:#8e477b;}.cls-208{fill:#8f487b;}.cls-209{fill:#90487b;}.cls-210{fill:#91497b;}.cls-211{fill:#92497a;}.cls-212{fill:#934a7a;}.cls-213{fill:#944a7a;}.cls-214{fill:#954b7a;}.cls-215{fill:#964b7a;}.cls-216{fill:#974c7a;}.cls-217{fill:#984c79;}.cls-218{fill:#994d79;}.cls-219{fill:#9a4d79;}.cls-220{fill:#9b4e79;}.cls-221{fill:#9c4e79;}.cls-222{fill:#9d4f79;}.cls-223{fill:#9e4f79;}.cls-224{fill:#9f5078;}.cls-225{fill:#a05078;}.cls-226{fill:#a15178;}.cls-227{fill:#a25178;}.cls-228{fill:#a35278;}.cls-229{fill:#a45278;}.cls-230{fill:#a55377;}.cls-231{fill:#a65377;}.cls-232{fill:#a75477;}.cls-233{fill:#a85477;}.cls-234{fill:#a95577;}.cls-235{fill:#aa5677;}.cls-236{fill:#ab5676;}.cls-237{fill:#ac5776;}.cls-238{fill:#ad5776;}.cls-239{fill:#ae5876;}.cls-240{fill:#af5876;}.cls-241{fill:#b05976;}.cls-242{fill:#b15976;}.cls-243{fill:#b25a75;}.cls-244{fill:#b35a75;}.cls-245{fill:#b45b75;}.cls-246{fill:#b55b75;}.cls-247{fill:#b65c75;}.cls-248{fill:#b75c75;}.cls-249{fill:#b85d74;}.cls-250{fill:#b95d74;}.cls-251{fill:#ba5e74;}.cls-252{fill:#bc5e74;}.cls-253{fill:#bd5f74;}.cls-254{fill:#be5f74;}.cls-255{fill:#bf6073;}.cls-256{fill:#c06073;}.cls-257{fill:#c16173;}.cls-258{fill:#c26173;}.cls-259{fill:#c36273;}.cls-260{fill:#c46273;}.cls-261{fill:#c56372;}.cls-262{fill:#c66372;}.cls-263{fill:#c76472;}.cls-264{fill:#c86472;}.cls-265{fill:#c96572;}.cls-266{fill:#ca6572;}.cls-267{fill:#cb6672;}.cls-268{fill:#cc6671;}.cls-269{fill:#cd6771;}.cls-270{fill:#ce6871;}.cls-271{fill:#cf6871;}.cls-272{fill:#d06971;}.cls-273{fill:#d16971;}.cls-274{fill:#d26a70;}.cls-275{fill:#d36a70;}.cls-276{fill:#d46b70;}.cls-277{fill:#d56b70;}.cls-278{fill:#d66c70;}.cls-279{fill:#d76c70;}.cls-280{fill:#d86d6f;}.cls-281{fill:#d96d6f;}.cls-282{fill:#da6e6f;}.cls-283{fill:#db6e6f;}.cls-284{fill:#dc6f6f;}.cls-285{fill:#dd6f6f;}.cls-286{fill:#de706f;}.cls-287{fill:#df706e;}.cls-288{fill:#e0716e;}.cls-289{fill:#e1716e;}.cls-290{fill:#e2726e;}.cls-291{fill:#e3726e;}.cls-292{fill:#e4736e;}.cls-293{fill:#e5736d;}.cls-294{fill:#e6746d;}.cls-295{fill:#e7746d;}.cls-296{fill:#e8756d;}.cls-297{fill:#e9756d;}.cls-298{fill:#ea766d;}.cls-299{fill:#eb766c;}.cls-300{fill:#ec776c;}.cls-301{fill:#ed776c;}.cls-302{fill:#dbdce1;}.cls-303{fill:#eec889;}.cls-304{fill:#cea775;}.cls-305{fill:#854d00;}</style><clipPath id="clip-path"><rect class="cls-1" y="166.58" width="4212" height="832.88"/></clipPath><clipPath id="clip-path-2"><path class="cls-1" d="M2561.44,659l286.88-4q2,151.36,4,302.74l-286.88,1.33Q2563.42,809.08,2561.44,659Z"/></clipPath></defs><title>Asset 5</title><g id="Layer_2" data-name="Layer 2"><g id="Layer_1-2" data-name="Layer 1"><g class="cls-2"><path class="cls-3" d="M0,166.58v0Z"/><rect class="cls-3" y="166.58" width="22.17" height="832.88"/><rect class="cls-4" x="22.17" y="166.58" width="22.17" height="832.88"/><rect class="cls-5" x="44.34" y="166.58" width="22.17" height="832.88"/><rect class="cls-6" x="66.51" y="166.58" width="22.17" height="832.88"/><rect class="cls-7" x="88.67" y="166.58" width="22.17" height="832.88"/><rect class="cls-8" x="110.84" y="166.58" width="22.17" height="832.88"/><rect class="cls-9" x="133.01" y="166.58" width="22.17" height="832.88"/><rect class="cls-10" x="155.18" y="166.58" width="22.17" height="832.88"/><rect class="cls-11" x="177.35" y="166.58" width="22.17" height="832.88"/><rect class="cls-12" x="199.52" y="166.58" width="22.17" height="832.88"/><rect class="cls-13" x="221.68" y="166.58" width="22.17" height="832.88"/><rect class="cls-14" x="243.85" y="166.58" width="22.17" height="832.88"/><rect class="cls-15" x="266.02" y="166.58" width="22.17" height="832.88"/><rect class="cls-16" x="288.19" y="166.58" width="22.17" height="832.88"/><rect class="cls-17" x="310.36" y="166.58" width="22.17" height="832.88"/><rect class="cls-18" x="332.53" y="166.58" width="22.17" height="832.88"/><rect class="cls-19" x="354.69" y="166.58" width="22.17" height="832.88"/><rect class="cls-20" x="376.86" y="166.58" width="22.17" height="832.88"/><rect class="cls-21" x="399.03" y="166.58" width="22.17" height="832.88"/><rect class="cls-22" x="421.2" y="166.58" width="22.17" height="832.88"/><rect class="cls-23" x="443.37" y="166.58" width="22.17" height="832.88"/><rect class="cls-24" x="465.54" y="166.58" width="22.17" height="832.88"/><rect class="cls-25" x="487.71" y="166.58" width="22.17" height="832.88"/><rect class="cls-26" x="509.87" y="166.58" width="22.17" height="832.88"/><rect class="cls-27" x="532.04" y="166.58" width="22.17" height="832.88"/><rect class="cls-28" x="554.21" y="166.58" width="22.17" height="832.88"/><rect class="cls-29" x="576.38" y="166.58" width="22.17" height="832.88"/><rect class="cls-30" x="598.55" y="166.58" width="22.17" height="832.88"/><rect class="cls-31" x="620.72" y="166.58" width="22.17" height="832.88"/><rect class="cls-32" x="642.88" y="166.58" width="22.17" height="832.88"/><rect class="cls-33" x="665.05" y="166.58" width="22.17" height="832.88"/><rect class="cls-34" x="687.22" y="166.58" width="22.17" height="832.88"/><rect class="cls-35" x="709.39" y="166.58" width="22.17" height="832.88"/><rect class="cls-36" x="731.56" y="166.58" width="22.17" height="832.88"/><rect class="cls-37" x="753.73" y="166.58" width="22.17" height="832.88"/><rect class="cls-38" x="775.89" y="166.58" width="22.17" height="832.88"/><rect class="cls-39" x="798.06" y="166.58" width="22.17" height="832.88"/><rect class="cls-40" x="820.23" y="166.58" width="22.17" height="832.88"/><rect class="cls-41" x="842.4" y="166.58" width="22.17" height="832.88"/><rect class="cls-42" x="864.57" y="166.58" width="22.17" height="832.88"/><rect class="cls-43" x="886.74" y="166.58" width="22.17" height="832.88"/><rect class="cls-44" x="908.91" y="166.58" width="22.17" height="832.88"/><rect class="cls-45" x="931.07" y="166.58" width="22.17" height="832.88"/><rect class="cls-46" x="953.24" y="166.58" width="22.17" height="832.88"/><rect class="cls-47" x="975.41" y="166.58" width="22.17" height="832.88"/><rect class="cls-48" x="997.58" y="166.58" width="22.17" height="832.88"/><rect class="cls-49" x="1019.75" y="166.58" width="22.17" height="832.88"/><rect class="cls-50" x="1041.92" y="166.58" width="22.17" height="832.88"/><rect class="cls-51" x="1064.08" y="166.58" width="22.17" height="832.88"/><rect class="cls-52" x="1086.25" y="166.58" width="22.17" height="832.88"/><rect class="cls-53" x="1108.42" y="166.58" width="22.17" height="832.88"/><rect class="cls-54" x="1130.59" y="166.58" width="22.17" height="832.88"/><rect class="cls-55" x="1152.76" y="166.58" width="22.17" height="832.88"/><rect class="cls-56" x="1174.93" y="166.58" width="22.17" height="832.88"/><rect class="cls-57" x="1197.09" y="166.58" width="22.17" height="832.88"/><rect class="cls-58" x="1219.26" y="166.58" width="22.17" height="832.88"/><rect class="cls-59" x="1241.43" y="166.58" width="22.17" height="832.88"/><rect class="cls-60" x="1263.6" y="166.58" width="22.17" height="832.88"/><rect class="cls-61" x="1285.77" y="166.58" width="22.17" height="832.88"/><rect class="cls-62" x="1307.94" y="166.58" width="22.17" height="832.88"/><rect class="cls-63" x="1330.11" y="166.58" width="22.17" height="832.88"/><rect class="cls-64" x="1352.27" y="166.58" width="22.17" height="832.88"/><rect class="cls-65" x="1374.44" y="166.58" width="22.17" height="832.88"/><rect class="cls-66" x="1396.61" y="166.58" width="22.17" height="832.88"/><rect class="cls-67" x="1418.78" y="166.58" width="22.17" height="832.88"/><rect class="cls-68" x="1440.95" y="166.58" width="22.17" height="832.88"/><rect class="cls-69" x="1463.12" y="166.58" width="22.17" height="832.88"/><rect class="cls-70" x="1485.28" y="166.58" width="22.17" height="832.88"/><rect class="cls-71" x="1507.45" y="166.58" width="22.17" height="832.88"/><rect class="cls-72" x="1529.62" y="166.58" width="22.17" height="832.88"/><rect class="cls-73" x="1551.79" y="166.58" width="22.17" height="832.88"/><rect class="cls-74" x="1573.96" y="166.58" width="22.17" height="832.88"/><rect class="cls-75" x="1596.13" y="166.58" width="22.17" height="832.88"/><rect class="cls-76" x="1618.29" y="166.58" width="22.17" height="832.88"/><rect class="cls-77" x="1640.46" y="166.58" width="22.17" height="832.88"/><rect class="cls-78" x="1662.63" y="166.58" width="22.17" height="832.88"/><rect class="cls-79" x="1684.8" y="166.58" width="22.17" height="832.88"/><rect class="cls-80" x="1706.97" y="166.58" width="22.17" height="832.88"/><rect class="cls-81" x="1729.14" y="166.58" width="22.17" height="832.88"/><rect class="cls-82" x="1751.31" y="166.58" width="22.17" height="832.88"/><rect class="cls-83" x="1773.47" y="166.58" width="22.17" height="832.88"/><rect class="cls-84" x="1795.64" y="166.58" width="22.17" height="832.88"/><rect class="cls-85" x="1817.81" y="166.58" width="22.17" height="832.88"/><rect class="cls-86" x="1839.98" y="166.58" width="22.17" height="832.88"/><rect class="cls-87" x="1862.15" y="166.58" width="22.17" height="832.88"/><rect class="cls-88" x="1884.32" y="166.58" width="22.17" height="832.88"/><rect class="cls-89" x="1906.48" y="166.58" width="22.17" height="832.88"/><rect class="cls-90" x="1928.65" y="166.58" width="22.17" height="832.88"/><rect class="cls-91" x="1950.82" y="166.58" width="22.17" height="832.88"/><rect class="cls-92" x="1972.99" y="166.58" width="22.17" height="832.88"/><rect class="cls-93" x="1995.16" y="166.58" width="22.17" height="832.88"/><rect class="cls-94" x="2017.33" y="166.58" width="22.17" height="832.88"/><rect class="cls-95" x="2039.49" y="166.58" width="22.17" height="832.88"/><rect class="cls-96" x="2061.66" y="166.58" width="22.17" height="832.88"/><rect class="cls-97" x="2083.83" y="166.58" width="22.17" height="832.88"/><rect class="cls-98" x="2106" y="166.58" width="22.17" height="832.88"/><rect class="cls-99" x="2128.17" y="166.58" width="22.17" height="832.88"/><rect class="cls-100" x="2150.34" y="166.58" width="22.17" height="832.88"/><rect class="cls-101" x="2172.51" y="166.58" width="22.17" height="832.88"/><rect class="cls-102" x="2194.67" y="166.58" width="22.17" height="832.88"/><rect class="cls-103" x="2216.84" y="166.58" width="22.17" height="832.88"/><rect class="cls-104" x="2239.01" y="166.58" width="22.17" height="832.88"/><rect class="cls-105" x="2261.18" y="166.58" width="22.17" height="832.88"/><rect class="cls-106" x="2283.35" y="166.58" width="22.17" height="832.88"/><rect class="cls-107" x="2305.52" y="166.58" width="22.17" height="832.88"/><rect class="cls-108" x="2327.68" y="166.58" width="22.17" height="832.88"/><rect class="cls-109" x="2349.85" y="166.58" width="22.17" height="832.88"/><rect class="cls-110" x="2372.02" y="166.58" width="22.17" height="832.88"/><rect class="cls-111" x="2394.19" y="166.58" width="22.17" height="832.88"/><rect class="cls-112" x="2416.36" y="166.58" width="22.17" height="832.88"/><rect class="cls-113" x="2438.53" y="166.58" width="22.17" height="832.88"/><rect class="cls-114" x="2460.69" y="166.58" width="22.17" height="832.88"/><rect class="cls-115" x="2482.86" y="166.58" width="22.17" height="832.88"/><rect class="cls-116" x="2505.03" y="166.58" width="22.17" height="832.88"/><rect class="cls-117" x="2527.2" y="166.58" width="22.17" height="832.88"/><rect class="cls-118" x="2549.37" y="166.58" width="22.17" height="832.88"/><rect class="cls-119" x="2571.54" y="166.58" width="22.17" height="832.88"/><rect class="cls-120" x="2593.71" y="166.58" width="22.17" height="832.88"/><rect class="cls-121" x="2615.87" y="166.58" width="22.17" height="832.88"/><rect class="cls-122" x="2638.04" y="166.58" width="22.17" height="832.88"/><rect class="cls-123" x="2660.21" y="166.58" width="22.17" height="832.88"/><rect class="cls-124" x="2682.38" y="166.58" width="22.17" height="832.88"/><rect class="cls-125" x="2704.55" y="166.58" width="22.17" height="832.88"/><rect class="cls-126" x="2726.72" y="166.58" width="22.17" height="832.88"/><rect class="cls-127" x="2748.88" y="166.58" width="22.17" height="832.88"/><rect class="cls-128" x="2771.05" y="166.58" width="22.17" height="832.88"/><rect class="cls-129" x="2793.22" y="166.58" width="22.17" height="832.88"/><rect class="cls-130" x="2815.39" y="166.58" width="22.17" height="832.88"/><rect class="cls-131" x="2837.56" y="166.58" width="22.17" height="832.88"/><rect class="cls-132" x="2859.73" y="166.58" width="22.17" height="832.88"/><rect class="cls-133" x="2881.89" y="166.58" width="22.17" height="832.88"/><rect class="cls-134" x="2904.06" y="166.58" width="22.17" height="832.88"/><rect class="cls-135" x="2926.23" y="166.58" width="22.17" height="832.88"/><rect class="cls-136" x="2948.4" y="166.58" width="22.17" height="832.88"/><rect class="cls-137" x="2970.57" y="166.58" width="22.17" height="832.88"/><rect class="cls-138" x="2992.74" y="166.58" width="22.17" height="832.88"/><rect class="cls-139" x="3014.91" y="166.58" width="22.17" height="832.88"/><rect class="cls-140" x="3037.07" y="166.58" width="22.17" height="832.88"/><rect class="cls-141" x="3059.24" y="166.58" width="22.17" height="832.88"/><rect class="cls-142" x="3081.41" y="166.58" width="22.17" height="832.88"/><rect class="cls-143" x="3103.58" y="166.58" width="22.17" height="832.88"/><rect class="cls-144" x="3125.75" y="166.58" width="22.17" height="832.88"/><rect class="cls-145" x="3147.92" y="166.58" width="22.17" height="832.88"/><rect class="cls-146" x="3170.08" y="166.58" width="22.17" height="832.88"/><rect class="cls-147" x="3192.25" y="166.58" width="22.17" height="832.88"/><rect class="cls-148" x="3214.42" y="166.58" width="22.17" height="832.88"/><rect class="cls-149" x="3236.59" y="166.58" width="22.17" height="832.88"/><rect class="cls-150" x="3258.76" y="166.58" width="22.17" height="832.88"/><rect class="cls-151" x="3280.93" y="166.58" width="22.17" height="832.88"/><rect class="cls-152" x="3303.09" y="166.58" width="22.17" height="832.88"/><rect class="cls-153" x="3325.26" y="166.58" width="22.17" height="832.88"/><rect class="cls-154" x="3347.43" y="166.58" width="22.17" height="832.88"/><rect class="cls-155" x="3369.6" y="166.58" width="22.17" height="832.88"/><rect class="cls-156" x="3391.77" y="166.58" width="22.17" height="832.88"/><rect class="cls-157" x="3413.94" y="166.58" width="22.17" height="832.88"/><rect class="cls-158" x="3436.11" y="166.58" width="22.17" height="832.88"/><rect class="cls-159" x="3458.27" y="166.58" width="22.17" height="832.88"/><rect class="cls-160" x="3480.44" y="166.58" width="22.17" height="832.88"/><rect class="cls-161" x="3502.61" y="166.58" width="22.17" height="832.88"/><rect class="cls-162" x="3524.78" y="166.58" width="22.17" height="832.88"/><rect class="cls-163" x="3546.95" y="166.58" width="22.17" height="832.88"/><rect class="cls-164" x="3569.12" y="166.58" width="22.17" height="832.88"/><rect class="cls-165" x="3591.28" y="166.58" width="22.17" height="832.88"/><rect class="cls-166" x="3613.45" y="166.58" width="22.17" height="832.88"/><rect class="cls-167" x="3635.62" y="166.58" width="22.17" height="832.88"/><rect class="cls-168" x="3657.79" y="166.58" width="22.17" height="832.88"/><rect class="cls-169" x="3679.96" y="166.58" width="22.17" height="832.88"/><rect class="cls-170" x="3702.13" y="166.58" width="22.17" height="832.88"/><rect class="cls-171" x="3724.29" y="166.58" width="22.17" height="832.88"/><rect class="cls-172" x="3746.46" y="166.58" width="22.17" height="832.88"/><rect class="cls-173" x="3768.63" y="166.58" width="22.17" height="832.88"/><rect class="cls-174" x="3790.8" y="166.58" width="22.17" height="832.88"/><rect class="cls-175" x="3812.97" y="166.58" width="22.17" height="832.88"/><rect class="cls-176" x="3835.14" y="166.58" width="22.17" height="832.88"/><rect class="cls-177" x="3857.31" y="166.58" width="22.17" height="832.88"/><rect class="cls-178" x="3879.47" y="166.58" width="22.17" height="832.88"/><rect class="cls-179" x="3901.64" y="166.58" width="22.17" height="832.88"/><rect class="cls-180" x="3923.81" y="166.58" width="22.17" height="832.88"/><rect class="cls-181" x="3945.98" y="166.58" width="22.17" height="832.88"/><rect class="cls-182" x="3968.15" y="166.58" width="22.17" height="832.88"/><rect class="cls-183" x="3990.32" y="166.58" width="22.17" height="832.88"/><rect class="cls-184" x="4012.48" y="166.58" width="22.17" height="832.88"/><rect class="cls-185" x="4034.65" y="166.58" width="22.17" height="832.88"/><rect class="cls-186" x="4056.82" y="166.58" width="22.17" height="832.88"/><rect class="cls-187" x="4078.99" y="166.58" width="22.17" height="832.88"/><rect class="cls-188" x="4101.16" y="166.58" width="22.17" height="832.88"/><rect class="cls-189" x="4123.33" y="166.58" width="22.17" height="832.88"/><rect class="cls-190" x="4145.49" y="166.58" width="22.17" height="832.88"/><rect class="cls-191" x="4167.66" y="166.58" width="22.17" height="832.88"/><rect class="cls-192" x="4189.83" y="166.58" width="22.17" height="832.88"/><path class="cls-192" d="M4212,999.46v0Z"/></g><path class="cls-193" d="M3489.51,230.69c9.41-15.95,14.12-23.93,19.83-30.4,14.95-16.95,22.58-25.42,30.41-25.12,6.61.25,12.62,4.5,15.86,9.25,9.69,14.23-1.74,38.45-14.54,51.56-9.29,9.51-26.15,20.22-41,15.87-1.32-.39-11.43-3.35-13.22-10.58C3485.82,237.06,3488,233.19,3489.51,230.69Z"/><path class="cls-194" d="M3412.83,339.1q1.1,17.85,1.32,37a725.25,725.25,0,0,1-4,83.29c10.17,3.62,55.08,18.34,101.79-4a128,128,0,0,0,47.6-39.66,245,245,0,0,1-25.12-148.07q5.28-27.1,10.57-54.2Z"/><path class="cls-195" d="M3423.41,376.12c-4.58,1.16-28.22,7.62-38.34,29.08-10.75,22.8.34,48.59,11.9,62.14,33.58,39.37,109.55,20.49,146.74,0,27.06-14.91,32.74-30.2,34.37-35.7.9-3,6.14-20.63-2.64-34.37-7.7-12-23.41-16.77-104.44-19.83C3451.23,376.69,3434.81,376.32,3423.41,376.12Z"/><path class="cls-196" d="M3395.64,393.31a226.45,226.45,0,0,1-144.1,43.62c4.23,26.35,9.62,60,15.87,99.15,20.16,126.44,30.24,189.66,30.4,191.7a607.72,607.72,0,0,0,15.87,100.47c.56,2.31,1,4.18,1.32,5.29a17.76,17.76,0,0,0-9.25,9.26c-3.31,7.94.85,15.09,1.32,15.86q17.19,56.85,34.37,113.7l343.73,4a664.21,664.21,0,0,0,44.95-251.18L3761.85,503a1045,1045,0,0,1-111-56.84A1047.8,1047.8,0,0,1,3545,374.8Z"/><path class="cls-197" d="M3350.12,603.83a276.42,276.42,0,0,1-34.46-139.15l1.32,0a275.32,275.32,0,0,0,34.29,138.48Z"/><path class="cls-197" d="M3364.7,754.61a382.17,382.17,0,0,1-74.16-221.16l1.32,0a380.91,380.91,0,0,0,73.91,220.4Z"/><path class="cls-197" d="M3564.17,556.11l-1.26-.39a117.57,117.57,0,0,1,21.27-39.88,119.24,119.24,0,0,1,46.53-34.57l.51,1.22a117.9,117.9,0,0,0-46,34.18A116.33,116.33,0,0,0,3564.17,556.11Z"/><path class="cls-197" d="M3661.26,680.84A91,91,0,0,1,3620,662.19c-22-17.76-29.46-41-32-53.26l1.3-.27c2.47,12.1,9.84,35,31.5,52.5a89.75,89.75,0,0,0,40.68,18.38Z"/><path class="cls-197" d="M3565.5,745.14l-1.27-.35a146.39,146.39,0,0,0,3.94-19.74c4.83-37.24-1.81-70-19.72-97.38-19.44-29.72-46.27-48.82-77.58-55.24-15.77-3.24-47-6-78.87,11.83-33.22,18.56-46.91,48.46-51.26,60.46l-1.24-.45c4.39-12.14,18.25-42.38,51.86-61.17,32.26-18,63.83-15.24,79.77-12,31.67,6.5,58.79,25.8,78.42,55.81,18.09,27.66,24.8,60.72,19.94,98.28A149.11,149.11,0,0,1,3565.5,745.14Z"/><path class="cls-197" d="M3437.7,867.9c-17,0-33.28-3.69-47.65-11.3-23.51-12.44-42.35-35.38-54.47-66.33a140.19,140.19,0,0,1-8-71.84l1.3.19a138.83,138.83,0,0,0,7.9,71c12.05,30.77,30.67,53.47,53.9,65.76,14.18,7.51,30.26,11.15,47,11.16,32.29,0,67.19-13.49,96.31-38.83l.87,1C3505.53,854.31,3470.31,867.9,3437.7,867.9Z"/><path class="cls-197" d="M3251.54,439.58A295.88,295.88,0,0,1,3159,582.36,250.68,250.68,0,0,0,3218.49,708a245.63,245.63,0,0,0,74-63.46Q3272,542,3251.54,439.58Z"/><path class="cls-197" d="M3264.41,663.56a213.79,213.79,0,0,1-82.22-95.48l1.21-.53a212.45,212.45,0,0,0,81.71,94.89Z"/><path class="cls-197" d="M3243.18,671.44a419,419,0,0,1-76.8-86.07l1.1-.74a417.46,417.46,0,0,0,76.56,85.8Z"/><path class="cls-192" d="M2388.25,356.29c3.88-5.06,8.77-6.91,18.51-10.58a103,103,0,0,1,35.7-6.61l563.18,1.32A67.08,67.08,0,0,1,3069.1,388L3237,871.88a55.26,55.26,0,0,1,1.32,26.44c-5,25.24-26.74,37.65-30.4,39.66l-618.72-1.32c-69.83-173.42-183.4-457.24-193-494.44-.07-.26-7.84-30.37-10.58-41h0C2383.64,376.15,2382.76,363.46,2388.25,356.29Z"/><path class="cls-198" d="M3754.58,702.14a1085.52,1085.52,0,0,1-56.95,142.94,1064,1064,0,0,1-64.07,114.06Q3523.93,954.3,3414.3,950q-81.87-3.19-163.74-6.08a40.43,40.43,0,0,1-10-3,42.48,42.48,0,0,1-11.39-7.61c-.9-3.64-7.49-32.38,10-56.26a58.6,58.6,0,0,1,29.9-21.29,562,562,0,0,0,86.85,3c37.73-1.6,39.58-5.49,89.7-10.65,82.63-8.5,107.21-1,123.87-22.81,9.13-12,6.25-20.14,14.23-57.78a482.37,482.37,0,0,1,27.06-86.68"/><path class="cls-194" d="M3243.61,931.37a77.89,77.89,0,0,0,14.54-25.12c3.17-9.14,5.46-21.57-1.32-60.81-5.28-30.56-7.92-45.85-14.54-58.17-6.12-11.37-17.4-32.36-41-42.3-26.41-11.14-51.49-1.37-75.36,7.93-17.26,6.72-42.88,16.7-43.63,33.05-.44,9.69,7.92,20.51,17.19,22.47,6.59,1.4,11-2.23,26.44-11.89,34-21.35,43.36-23.21,47.59-23.8,6.3-.88,16.16-1,29.09,4"/><path d="M3136.17,819a26,26,0,0,1-13.2-3.38,27.18,27.18,0,0,1-10.84-12.2l1.2-.55a25.88,25.88,0,0,0,10.31,11.6c7.63,4.43,15.58,3.17,19.39,2.57,8.42-1.34,13.32-4.72,18.51-8.3a75.85,75.85,0,0,1,7.73-4.86c11.34-5.94,25.73-6.85,42.77-2.7l-.31,1.29c-16.72-4.07-30.8-3.2-41.85,2.58a73,73,0,0,0-7.59,4.78c-5.08,3.5-10.34,7.13-19.05,8.51A43.35,43.35,0,0,1,3136.17,819Z"/><path d="M3159.31,839.56c-8.83,0-15.65-2.9-19.36-8.29s-3.32-11.73-2.75-15l1.3.23c-.53,3.1-.91,9,2.54,14,5.07,7.37,15.06,8,20.57,7.65,6.91-.39,10.95-3,15.62-6.13a60.22,60.22,0,0,1,13.27-7c8.81-3.23,18.7-4.13,29.4-2.68l-.18,1.31c-10.48-1.43-20.16-.55-28.76,2.61a59.61,59.61,0,0,0-13,6.91c-4.84,3.19-9,5.94-16.28,6.35C3160.87,839.54,3160.08,839.56,3159.31,839.56Z"/><path class="cls-198" d="M3156.36,841.47c-1.07,12.62-.4,31.33,9.25,50.24,11.22,22,37.39,49.77,63.46,44.95a32.82,32.82,0,0,0,14.54-6.61c20-16.38,13.66-54.23,5.29-75.36-6-15.12-15.58-39.3-38.34-43.62C3191.17,807.39,3169.22,819.46,3156.36,841.47Z"/><path class="cls-194" d="M3155,594.25c-3.57,2.38-9.11,6.06-15.86,10.58-66.74,44.67-78.25,54.54-96.51,64.78-19.32,10.84-49.27,23.81-92.54,29.08l34.37,91.23a214.22,214.22,0,0,1,43.63-13.23c22.2-4.2,33.16-2.58,50.24-4,36.41-2.94,63.49-16.52,80.64-25.12a259,259,0,0,0,68.75-50.24Z"/><path class="cls-199" d="M2431.88,460.73a179.08,179.08,0,0,1-30.41-79.32c.46-1.31,7.86-21.65,26.45-25.12a31.13,31.13,0,0,1,15.86,1.32L3003,358.93a49.27,49.27,0,0,1,22.47,10.58c13.92,11.68,16.61,27.48,17.19,31.73l177.15,474.61a40.68,40.68,0,0,1-26.44,37l-567.15,13.22Z"/><path class="cls-192" d="M2451.71,460.73c31.12,8.52,171.15,10.79,446.85,5.29a47.27,47.27,0,0,1,27.76,4c16.53,7.95,22.54,23,23.8,26.44L3099.51,901c.35,2.23,1.76,12.9-5.29,22.47-9.82,13.34-26.84,12-27.76,11.9l-481.22,4a93.83,93.83,0,0,1-37-41L2401.47,493.78c.37-10.6,2.75-23.27,11.9-30.41C2426.57,453.08,2447.19,459.49,2451.71,460.73Z"/><g class="cls-200"><polygon class="cls-201" points="2561.44 851.41 2673.72 959.14 2561.44 959.14 2561.44 851.41"/><polygon class="cls-201" points="2561.44 847.7 2677.58 959.14 2673.72 959.14 2561.44 851.41 2561.44 847.7"/><polygon class="cls-202" points="2561.44 843.99 2681.45 959.14 2677.58 959.14 2561.44 847.7 2561.44 843.99"/><polygon class="cls-203" points="2561.44 840.28 2685.31 959.14 2681.45 959.14 2561.44 843.99 2561.44 840.28"/><polygon class="cls-204" points="2561.44 836.58 2689.18 959.14 2685.31 959.14 2561.44 840.28 2561.44 836.58"/><polygon class="cls-205" points="2561.44 832.87 2693.04 959.14 2689.18 959.14 2561.44 836.58 2561.44 832.87"/><polygon class="cls-206" points="2561.44 829.16 2696.9 959.14 2693.04 959.14 2561.44 832.87 2561.44 829.16"/><polygon class="cls-207" points="2561.44 825.45 2700.77 959.14 2696.9 959.14 2561.44 829.16 2561.44 825.45"/><polygon class="cls-208" points="2561.44 821.74 2704.63 959.14 2700.77 959.14 2561.44 825.45 2561.44 821.74"/><polygon class="cls-209" points="2561.44 818.04 2708.5 959.14 2704.63 959.14 2561.44 821.74 2561.44 818.04"/><polygon class="cls-210" points="2561.44 814.33 2712.36 959.14 2708.5 959.14 2561.44 818.04 2561.44 814.33"/><polygon class="cls-211" points="2561.44 810.62 2716.23 959.14 2712.36 959.14 2561.44 814.33 2561.44 810.62"/><polygon class="cls-212" points="2561.44 806.91 2720.09 959.14 2716.23 959.14 2561.44 810.62 2561.44 806.91"/><polygon class="cls-213" points="2561.44 803.2 2723.96 959.14 2720.09 959.14 2561.44 806.91 2561.44 803.2"/><polygon class="cls-214" points="2561.44 799.5 2727.82 959.14 2723.96 959.14 2561.44 803.2 2561.44 799.5"/><polygon class="cls-215" points="2561.44 795.79 2731.69 959.14 2727.82 959.14 2561.44 799.5 2561.44 795.79"/><polygon class="cls-216" points="2561.44 792.08 2735.55 959.14 2731.69 959.14 2561.44 795.79 2561.44 792.08"/><polygon class="cls-217" points="2561.44 788.37 2739.42 959.14 2735.55 959.14 2561.44 792.08 2561.44 788.37"/><polygon class="cls-218" points="2561.44 784.66 2743.28 959.14 2739.42 959.14 2561.44 788.37 2561.44 784.66"/><polygon class="cls-219" points="2561.44 780.96 2747.14 959.14 2743.28 959.14 2561.44 784.66 2561.44 780.96"/><polygon class="cls-220" points="2561.44 777.25 2751.01 959.14 2747.14 959.14 2561.44 780.96 2561.44 777.25"/><polygon class="cls-221" points="2561.44 773.54 2754.88 959.14 2751.01 959.14 2561.44 777.25 2561.44 773.54"/><polygon class="cls-222" points="2561.44 769.83 2758.74 959.14 2754.88 959.14 2561.44 773.54 2561.44 769.83"/><polygon class="cls-223" points="2561.44 766.12 2762.6 959.14 2758.74 959.14 2561.44 769.83 2561.44 766.12"/><polygon class="cls-224" points="2561.44 762.41 2766.47 959.14 2762.6 959.14 2561.44 766.12 2561.44 762.41"/><polygon class="cls-225" points="2561.44 758.71 2770.33 959.14 2766.47 959.14 2561.44 762.41 2561.44 758.71"/><polygon class="cls-226" points="2561.44 755 2774.2 959.14 2770.33 959.14 2561.44 758.71 2561.44 755"/><polygon class="cls-227" points="2561.44 751.29 2778.06 959.14 2774.2 959.14 2561.44 755 2561.44 751.29"/><polygon class="cls-228" points="2561.44 747.58 2781.93 959.14 2778.06 959.14 2561.44 751.29 2561.44 747.58"/><polygon class="cls-229" points="2561.44 743.87 2785.79 959.14 2781.93 959.14 2561.44 747.58 2561.44 743.87"/><polygon class="cls-230" points="2561.44 740.16 2789.66 959.14 2785.79 959.14 2561.44 743.87 2561.44 740.16"/><polygon class="cls-231" points="2561.44 736.46 2793.52 959.14 2789.66 959.14 2561.44 740.16 2561.44 736.46"/><polygon class="cls-232" points="2561.44 732.75 2797.39 959.14 2793.52 959.14 2561.44 736.46 2561.44 732.75"/><polygon class="cls-233" points="2561.44 729.04 2801.25 959.14 2797.39 959.14 2561.44 732.75 2561.44 729.04"/><polygon class="cls-234" points="2561.44 725.33 2805.12 959.14 2801.25 959.14 2561.44 729.04 2561.44 725.33"/><polygon class="cls-235" points="2561.44 721.63 2808.98 959.14 2805.12 959.14 2561.44 725.33 2561.44 721.63"/><polygon class="cls-236" points="2561.44 717.92 2812.84 959.14 2808.98 959.14 2561.44 721.63 2561.44 717.92"/><polygon class="cls-237" points="2561.44 714.21 2816.71 959.14 2812.84 959.14 2561.44 717.92 2561.44 714.21"/><polygon class="cls-238" points="2561.44 710.5 2820.57 959.14 2816.71 959.14 2561.44 714.21 2561.44 710.5"/><polygon class="cls-239" points="2561.44 706.79 2824.44 959.14 2820.57 959.14 2561.44 710.5 2561.44 706.79"/><polygon class="cls-240" points="2561.44 703.08 2828.3 959.14 2824.44 959.14 2561.44 706.79 2561.44 703.08"/><polygon class="cls-241" points="2561.44 699.38 2832.17 959.14 2828.3 959.14 2561.44 703.08 2561.44 699.38"/><polygon class="cls-242" points="2561.44 695.67 2836.03 959.14 2832.17 959.14 2561.44 699.38 2561.44 695.67"/><polygon class="cls-243" points="2561.44 691.96 2839.9 959.14 2836.03 959.14 2561.44 695.67 2561.44 691.96"/><polygon class="cls-244" points="2561.44 688.25 2843.76 959.14 2839.9 959.14 2561.44 691.96 2561.44 688.25"/><polygon class="cls-245" points="2561.44 684.54 2847.63 959.14 2843.76 959.14 2561.44 688.25 2561.44 684.54"/><polygon class="cls-246" points="2561.44 680.84 2851.49 959.14 2847.63 959.14 2561.44 684.54 2561.44 680.84"/><polygon class="cls-247" points="2561.44 677.13 2852.29 956.19 2852.29 959.14 2851.49 959.14 2561.44 680.84 2561.44 677.13"/><polygon class="cls-248" points="2561.44 673.42 2852.29 952.48 2852.29 956.19 2561.44 677.13 2561.44 673.42"/><polygon class="cls-249" points="2561.44 669.71 2852.29 948.77 2852.29 952.48 2561.44 673.42 2561.44 669.71"/><polygon class="cls-250" points="2561.44 666 2852.29 945.07 2852.29 948.77 2561.44 669.71 2561.44 666"/><polygon class="cls-251" points="2561.44 662.29 2852.29 941.36 2852.29 945.07 2561.44 666 2561.44 662.29"/><polygon class="cls-252" points="2561.44 658.59 2852.29 937.65 2852.29 941.36 2561.44 662.29 2561.44 658.59"/><polygon class="cls-253" points="2561.44 655.22 2561.58 655.07 2561.64 655.07 2852.29 933.94 2852.29 937.65 2561.44 658.59 2561.44 655.22"/><polygon class="cls-254" points="2565.5 655.07 2852.29 930.23 2852.29 933.94 2561.64 655.07 2565.5 655.07"/><polygon class="cls-255" points="2569.37 655.07 2852.29 926.53 2852.29 930.23 2565.5 655.07 2569.37 655.07"/><polygon class="cls-256" points="2573.23 655.07 2852.29 922.82 2852.29 926.53 2569.37 655.07 2573.23 655.07"/><polygon class="cls-257" points="2577.1 655.07 2852.29 919.11 2852.29 922.82 2573.23 655.07 2577.1 655.07"/><polygon class="cls-258" points="2580.96 655.07 2852.29 915.4 2852.29 919.11 2577.1 655.07 2580.96 655.07"/><polygon class="cls-259" points="2584.83 655.07 2852.29 911.69 2852.29 915.4 2580.96 655.07 2584.83 655.07"/><polygon class="cls-260" points="2588.69 655.07 2852.29 907.99 2852.29 911.69 2584.83 655.07 2588.69 655.07"/><polygon class="cls-261" points="2592.56 655.07 2852.29 904.28 2852.29 907.99 2588.69 655.07 2592.56 655.07"/><polygon class="cls-262" points="2596.42 655.07 2852.29 900.57 2852.29 904.28 2592.56 655.07 2596.42 655.07"/><polygon class="cls-263" points="2600.28 655.07 2852.29 896.86 2852.29 900.57 2596.42 655.07 2600.28 655.07"/><polygon class="cls-264" points="2604.15 655.07 2852.29 893.15 2852.29 896.86 2600.28 655.07 2604.15 655.07"/><polygon class="cls-265" points="2608.01 655.07 2852.29 889.45 2852.29 893.15 2604.15 655.07 2608.01 655.07"/><polygon class="cls-266" points="2611.88 655.07 2852.29 885.74 2852.29 889.45 2608.01 655.07 2611.88 655.07"/><polygon class="cls-267" points="2615.74 655.07 2852.29 882.03 2852.29 885.74 2611.88 655.07 2615.74 655.07"/><polygon class="cls-268" points="2619.61 655.07 2852.29 878.32 2852.29 882.03 2615.74 655.07 2619.61 655.07"/><polygon class="cls-269" points="2623.47 655.07 2852.29 874.61 2852.29 878.32 2619.61 655.07 2623.47 655.07"/><polygon class="cls-270" points="2627.34 655.07 2852.29 870.9 2852.29 874.61 2623.47 655.07 2627.34 655.07"/><polygon class="cls-271" points="2631.2 655.07 2852.29 867.2 2852.29 870.9 2627.34 655.07 2631.2 655.07"/><polygon class="cls-272" points="2635.07 655.07 2852.29 863.49 2852.29 867.2 2631.2 655.07 2635.07 655.07"/><polygon class="cls-273" points="2638.93 655.07 2852.29 859.78 2852.29 863.49 2635.07 655.07 2638.93 655.07"/><polygon class="cls-274" points="2642.8 655.07 2852.29 856.07 2852.29 859.78 2638.93 655.07 2642.8 655.07"/><polygon class="cls-275" points="2646.66 655.07 2852.29 852.36 2852.29 856.07 2642.8 655.07 2646.66 655.07"/><polygon class="cls-276" points="2650.53 655.07 2852.29 848.65 2852.29 852.36 2646.66 655.07 2650.53 655.07"/><polygon class="cls-277" points="2654.39 655.07 2852.29 844.95 2852.29 848.65 2650.53 655.07 2654.39 655.07"/><polygon class="cls-278" points="2658.26 655.07 2852.29 841.24 2852.29 844.95 2654.39 655.07 2658.26 655.07"/><polygon class="cls-279" points="2662.12 655.07 2852.29 837.53 2852.29 841.24 2658.26 655.07 2662.12 655.07"/><polygon class="cls-280" points="2665.99 655.07 2852.29 833.82 2852.29 837.53 2662.12 655.07 2665.99 655.07"/><polygon class="cls-281" points="2669.85 655.07 2852.29 830.12 2852.29 833.82 2665.99 655.07 2669.85 655.07"/><polygon class="cls-282" points="2673.72 655.07 2852.29 826.41 2852.29 830.12 2669.85 655.07 2673.72 655.07"/><polygon class="cls-283" points="2677.58 655.07 2852.29 822.7 2852.29 826.41 2673.72 655.07 2677.58 655.07"/><polygon class="cls-284" points="2681.44 655.07 2852.29 818.99 2852.29 822.7 2677.58 655.07 2681.44 655.07"/><polygon class="cls-285" points="2685.31 655.07 2852.29 815.28 2852.29 818.99 2681.44 655.07 2685.31 655.07"/><polygon class="cls-286" points="2689.17 655.07 2852.29 811.57 2852.29 815.28 2685.31 655.07 2689.17 655.07"/><polygon class="cls-287" points="2693.04 655.07 2852.29 807.87 2852.29 811.57 2689.17 655.07 2693.04 655.07"/><polygon class="cls-288" points="2696.9 655.07 2852.29 804.16 2852.29 807.87 2693.04 655.07 2696.9 655.07"/><polygon class="cls-289" points="2700.77 655.07 2852.29 800.45 2852.29 804.16 2696.9 655.07 2700.77 655.07"/><polygon class="cls-290" points="2704.63 655.07 2852.29 796.74 2852.29 800.45 2700.77 655.07 2704.63 655.07"/><polygon class="cls-291" points="2708.5 655.07 2852.29 793.03 2852.29 796.74 2704.63 655.07 2708.5 655.07"/><polygon class="cls-292" points="2712.36 655.07 2852.29 789.33 2852.29 793.03 2708.5 655.07 2712.36 655.07"/><polygon class="cls-293" points="2716.23 655.07 2852.29 785.62 2852.29 789.33 2712.36 655.07 2716.23 655.07"/><polygon class="cls-294" points="2720.09 655.07 2852.29 781.91 2852.29 785.62 2716.23 655.07 2720.09 655.07"/><polygon class="cls-295" points="2723.96 655.07 2852.29 778.2 2852.29 781.91 2720.09 655.07 2723.96 655.07"/><polygon class="cls-296" points="2727.82 655.07 2852.29 774.49 2852.29 778.2 2723.96 655.07 2727.82 655.07"/><polygon class="cls-297" points="2731.68 655.07 2852.29 770.78 2852.29 774.49 2727.82 655.07 2731.68 655.07"/><polygon class="cls-298" points="2735.55 655.07 2852.29 767.08 2852.29 770.78 2731.68 655.07 2735.55 655.07"/><polygon class="cls-299" points="2739.41 655.07 2852.29 763.37 2852.29 767.08 2735.55 655.07 2739.41 655.07"/><polygon class="cls-300" points="2743.28 655.07 2852.29 759.66 2852.29 763.37 2739.41 655.07 2743.28 655.07"/><polygon class="cls-301" points="2747.14 655.07 2852.29 755.95 2852.29 759.66 2743.28 655.07 2747.14 655.07"/><polygon class="cls-196" points="2751.01 655.07 2852.29 752.24 2852.29 755.95 2747.14 655.07 2751.01 655.07"/><polygon class="cls-196" points="2852.29 752.24 2751.01 655.07 2852.29 655.07 2852.29 752.24"/></g><polygon class="cls-302" points="2936.9 390.66 3014.9 390.66 3099.51 644.49 3026.8 640.52 2936.9 390.66"/><polygon class="cls-302" points="3099.51 663 3103.47 670.93 3137.85 739.68 3063.81 730.42 3034.73 657.71 3099.51 663"/><path class="cls-197" d="M3390.36,614.08c11.84-5.15,50.7-20.24,88.57-4,50.15,21.55,80.08,90.16,60.82,163.93Q3465.05,694.07,3390.36,614.08Z"/><path class="cls-197" d="M3350.69,688.12c-1,2.83-20,61.11,19.84,108.41a111.72,111.72,0,0,0,108.4,37Z"/><path class="cls-197" d="M2264,998.8a17.19,17.19,0,0,1,0-34.38L3876,963.12c-22-94.5-23.38-183.8-4-265.74,6.64-28.06,15-52.49,23.06-76.12,14.62-42.8,28.43-83.22,32-143.06A489.29,489.29,0,0,0,3915,337.78H3555.61a17.19,17.19,0,1,1,0-34.37h372.81a17.19,17.19,0,0,1,16.64,12.86,525.89,525.89,0,0,1,16.38,164c-3.88,64.48-19.1,109-33.82,152.11-7.8,22.85-15.88,46.47-22.13,72.91-19.54,82.6-16.46,173.64,9.14,270.61a17.17,17.17,0,0,1-16.6,21.57L2264,998.8Z"/><path class="cls-197" d="M3673.92,501.24c-21.19,14.61-28.85,39.23-44.16,88.46a564.93,564.93,0,0,0-18.27,77.79q0,12.59.05,25.16A584.15,584.15,0,0,0,3767,726.54q2.4-114,4.78-228C3757.35,493.19,3708.88,477.13,3673.92,501.24Z"/><path class="cls-303" d="M3315.66,72.71c-14.08,14.72-12.67,30.24-7.93,125.6,2.52,50.71,3.51,74.23,15.86,105.76,13.64,34.8,27.19,43.81,35.7,47.59,19.1,8.5,38.64,2.18,52.88-2.64,37.82-12.82,59.8-38.83,89.9-75.36,26.75-32.46,40.27-49.26,47.59-76.68,5.64-21.11,15.59-58.37-2.64-79.32-32.41-37.25-123.24,12.24-154.68-29.08-9.38-12.33-7.86-25.37-21.15-31.73C3354.84,49,3329.85,57.87,3315.66,72.71Z"/><path d="M3371.92,280.79a49.6,49.6,0,0,1-13.47-1.87l.36-1.27a47.67,47.67,0,0,0,26.08,0,48.23,48.23,0,0,0,24.77-16.95l1.05.8a49.59,49.59,0,0,1-25.46,17.42A48.4,48.4,0,0,1,3371.92,280.79Z"/><path class="cls-304" d="M3349.37,172.53c-12.66,20.76-14.5,38-14.54,47.59,0,5.37-.1,25.13,7.93,27.76a7.19,7.19,0,0,0,6.61-1.32c5.12-4.31-.55-14.07-1.32-27.76-1.32-23.63,13-39.51,6.61-45C3353.7,173,3352.12,172.32,3349.37,172.53Z"/><path class="cls-305" d="M3289.22,62.14c-22.3,6.62-36.44,21.67-35.69,35.69.15,2.9,1,7.66,5.28,13.22a135.63,135.63,0,0,1,35.7,2.64,28.68,28.68,0,0,0,5.29,25.12,77.42,77.42,0,0,1,14.54-44.95l10.58,9.26c-.56-1.87-4.6-16.31,4-26.44a22.5,22.5,0,0,1,6.61-5.29,84,84,0,0,0,39.66,54.2c-1.37-2.64-4.68-9.91-2.64-18.51a24.51,24.51,0,0,1,2.64-6.61A234.55,234.55,0,0,0,3395,116.34c36.57,26.14,74.38,37.31,103.12,42.3a90.39,90.39,0,0,0-11.9,70.07c1.84-7,6.69-20.93,19.83-30.4,4.84-3.49,9.16-6.61,13.22-5.29,9.37,3,9.3,27,9.26,43.62a237.82,237.82,0,0,1-5.29,48.92l14.54-2.64a417.64,417.64,0,0,0,21.16-47.6c10.4-28.06,15-66.24,23.79-141.46,1.05-9,2.53-23.31-5.29-37-5.56-9.76-13.85-15.68-23.79-21.16a186.43,186.43,0,0,0-66.1-21.15c-87.42-8-160.19-12.38-201-14.54A19.2,19.2,0,0,0,3276,7.93c-4.18,6.84-3.19,16.37,2.64,23.8Q3283.94,46.93,3289.22,62.14Z"/><path d="M3292.81,210.79a52.38,52.38,0,1,1,59.66-43.92A52.43,52.43,0,0,1,3292.81,210.79Zm15.08-99.27a48,48,0,1,0,40.27,54.69A48.07,48.07,0,0,0,3307.89,111.52Z"/><path d="M3400.15,224.71A46.11,46.11,0,1,1,3452.66,186,46.16,46.16,0,0,1,3400.15,224.71Zm13.19-86.87a41.75,41.75,0,1,0,35,47.55A41.79,41.79,0,0,0,3413.34,137.84Z"/><path d="M3363.09,177.46a2.19,2.19,0,0,1-1.83-2.49c.62-4.12-1.25-8-4.09-8.4s-5.76,2.69-6.39,6.81a2.18,2.18,0,1,1-4.31-.65c1-6.58,6.09-11.27,11.36-10.47s8.74,6.79,7.74,13.37A2.18,2.18,0,0,1,3363.09,177.46Z"/><path d="M3313,162.74,3251,153.32a2.18,2.18,0,1,1,.66-4.31l62.05,9.42a2.18,2.18,0,0,1-.66,4.31Z"/><path d="M3584.87,234.45l-.19,0a2.17,2.17,0,0,1-1.61-2.62c4.28-18,4-22.69,3.86-23.48-2.57-4.24-11-4.22-22.51-4.19-3.83,0-8.17,0-12.76-.12a221.94,221.94,0,0,1-50-7.58l-49.51-7.52a2.19,2.19,0,0,1-1.83-2.49,2.17,2.17,0,0,1,2.48-1.82l49.64,7.53.24,0a217.12,217.12,0,0,0,49.14,7.47c4.52.15,8.81.13,12.6.12,13.21,0,22.76-.06,26.47,6.66,1.22,2.33,0,11.68-3.56,26.38A2.18,2.18,0,0,1,3584.87,234.45Z"/><circle cx="3334.67" cy="159.14" r="4.46"/><circle cx="3418.61" cy="171.37" r="4.46"/></g></g></svg>