<svg xmlns="http://www.w3.org/2000/svg" viewBox="0 0 173.58 130.54"><defs><style>.cls-1{fill:#ffedcf;}.cls-2{opacity:0.5;}.cls-3{fill:#7aa2d6;}.cls-4,.cls-6{fill:#fff;}.cls-5{fill:#22c195;}.cls-6{stroke:#000;stroke-miterlimit:10;stroke-width:0.5px;}.cls-7{fill:#4486fe;}.cls-8{opacity:0.7;}.cls-9{fill:#feb491;}.cls-10{fill:#1c1b22;}.cls-11{fill:#d8e5ff;}</style></defs><title>Asset 2</title><g id="Layer_2" data-name="Layer 2"><g id="Layer_1-2" data-name="Layer 1"><path class="cls-1" d="M28.38,35.35a30.32,30.32,0,0,1,3.06-1.13c1-.31,2-.58,3.07-.8a34.46,34.46,0,0,1,4.09-.62c1-.09,2-.14,3.07-.14H96.54c.8,0,1.58,0,2.37.07a68.57,68.57,0,0,1,30.21,8.51,72.4,72.4,0,0,1,17.36,13.42c.46.48.92,1,1.37,1.48.75.84,1.49,1.7,2.21,2.57.5.61,1,1.22,1.47,1.85A73.78,73.78,0,0,1,156,67a77.45,77.45,0,0,1,11.46,40.79H41.67a34.88,34.88,0,0,1-25.31-11A38.46,38.46,0,0,1,5.88,70.24C5.88,54.42,15.19,40.89,28.38,35.35Zm64,42.22c.09.11.19.21.29.32l-.36-.68-.12.15Zm.13-6.39-.2-.41-.27.14Z"/><g class="cls-2"><polygon class="cls-3" points="73.04 96.42 73.66 113.75 126.28 113.75 125.04 96.42 73.04 96.42"/></g><g class="cls-2"><polygon class="cls-3" points="33.43 75.38 31.57 44.42 68.71 44.42 71.8 75.38 33.43 75.38"/></g><polygon class="cls-4" points="148.56 39.16 102.14 39.16 104.61 83.11 152.27 83.11 148.56 39.16"/><path d="M152.44,83.27h-48v-.15L102,39H148.7v.14ZM104.76,83h47.35l-3.69-43.64H102.3Z"/><rect x="109.87" y="47.06" width="26.62" height="0.31"/><rect x="114.21" y="50.77" width="22.28" height="0.31"/><rect class="cls-5" x="141.13" y="48.45" width="4.33" height="4.33"/><rect class="cls-5" x="142.37" y="59.59" width="4.33" height="4.33"/><path class="cls-4" d="M117.61,29.26a19.62,19.62,0,0,1,3.71-10.52,19.92,19.92,0,0,1,11.15-7.43h19.19a10,10,0,0,1,5.57,9.9A9.92,9.92,0,0,1,151,29.26Z"/><path d="M151.07,29.41H117.45v-.16a19.65,19.65,0,0,1,3.74-10.6,19.85,19.85,0,0,1,11.23-7.49h19.26l0,0a10.13,10.13,0,0,1,5.66,10.06,10,10,0,0,1-6.29,8.17Zm-33.3-.31H151a9.71,9.71,0,0,0,6.06-7.9,9.82,9.82,0,0,0-5.45-9.74H132.47a19.6,19.6,0,0,0-11,7.37A19.35,19.35,0,0,0,117.77,29.1Z"/><circle cx="129.68" cy="20.28" r="0.93"/><path d="M129.68,21.37a1.09,1.09,0,1,1,1.08-1.09A1.08,1.08,0,0,1,129.68,21.37Zm0-1.86a.78.78,0,1,0,.77.77A.77.77,0,0,0,129.68,19.51Z"/><circle cx="137.73" cy="20.28" r="0.93"/><path d="M137.73,21.37a1.09,1.09,0,1,1,1.08-1.09A1.09,1.09,0,0,1,137.73,21.37Zm0-1.86a.78.78,0,1,0,.77.77A.78.78,0,0,0,137.73,19.51Z"/><circle cx="145.77" cy="20.28" r="0.93"/><path d="M145.77,21.37a1.09,1.09,0,1,1,1.09-1.09A1.09,1.09,0,0,1,145.77,21.37Zm0-1.86a.78.78,0,1,0,.78.77A.78.78,0,0,0,145.77,19.51Z"/><polygon class="cls-4" points="78.61 92.4 79.23 109.73 131.85 109.73 130.61 92.4 78.61 92.4"/><path d="M132,109.88H79.08l-.63-17.64h52.3Zm-52.63-.31h52.3l-1.21-17H78.77Z"/><path class="cls-6" d="M108.33,54.64h5v5h-5Zm1.23,10.52h5v5h-5Zm6.19,16.71h-5v-5h5Zm6.85-47.78-45.22-.5a8.77,8.77,0,0,0-1.86-5A8,8,0,0,0,70,25.55h-.17a8.32,8.32,0,0,0-6,2.48,10.2,10.2,0,0,0-3.1,6.81Q62.82,66.09,65,97.35h62.51C125.87,76.89,124.24,54.59,122.6,34.09Zm-9.94,14.36h-5v-5h5Z"/><path class="cls-7" d="M133.09,34.21l-10.49-.12-45.22-.5a8.77,8.77,0,0,0-1.86-5A8,8,0,0,0,70,25.55H69.8c22.41-.2,35.79-.41,58.33-.61a7.7,7.7,0,0,1,5,9.28Z"/><path d="M133.2,34.37h-.12l-10.48-.12-45.37-.5V33.6a8.57,8.57,0,0,0-1.82-4.86,7.84,7.84,0,0,0-5.46-3H69.8v-.31c11.43-.1,20.69-.2,29.65-.31,8.67-.1,17.64-.2,28.68-.3h.05a7.86,7.86,0,0,1,5,9.47Zm-55.68-.93,45.08.5,10.37.12a7.56,7.56,0,0,0-4.86-9c-11,.1-20,.2-28.65.3-8.5.1-17.28.2-27.92.3a8.57,8.57,0,0,1,4.1,2.86A8.94,8.94,0,0,1,77.52,33.44Z"/><path d="M0,20.75v-.31H.45l0,.16v.15Z"/><rect x="75.21" y="44.27" width="26.62" height="0.31"/><rect x="78.61" y="47.67" width="22.28" height="0.31"/><rect x="86.66" y="55.1" width="16.09" height="0.31"/><rect x="99.66" y="59.44" width="3.71" height="0.31"/><rect x="77.99" y="66.24" width="26" height="0.31"/><rect x="94.71" y="71.2" width="9.9" height="0.31"/><rect x="89.76" y="78.01" width="14.24" height="0.31"/><rect x="101.83" y="81.72" width="3.1" height="0.31"/><rect class="cls-5" x="107.71" y="43.5" width="4.95" height="4.95"/><rect class="cls-5" x="108.33" y="54.64" width="4.95" height="4.95"/><rect class="cls-5" x="109.56" y="65.16" width="4.95" height="4.95"/><rect class="cls-5" x="110.8" y="76.92" width="4.95" height="4.95"/><g class="cls-8"><circle class="cls-9" cx="46.12" cy="12.86" r="9.59"/></g><path class="cls-5" d="M40.24,10.69l1.81-2.42,0-.06,3.72,3.1a70.77,70.77,0,0,1,4.95-5.57C54.35,2.1,56.56.65,56.89.21a.15.15,0,0,1,.06,0c.29-.12,1,1,1.86,2.47A81.18,81.18,0,0,0,52,10.07a79.66,79.66,0,0,0-5,6.81,41.8,41.8,0,0,0-3.71-3.71C42.26,12.23,41.22,11.41,40.24,10.69Z"/><path d="M47.06,17.13,46.93,17a41.68,41.68,0,0,0-3.7-3.7c-1-.86-2-1.69-3.09-2.47L40,10.72l1.92-2.56V7.88l3.84,3.21a70.26,70.26,0,0,1,4.87-5.46A57.78,57.78,0,0,1,55.87.9a8.29,8.29,0,0,0,.9-.78.23.23,0,0,1,.12-.1c.25-.09.63,0,2,2.55l.06.1-.09.08a82.13,82.13,0,0,0-6.79,7.42c-1.76,2.17-3.42,4.46-4.95,6.79Zm-6.61-6.47c1,.75,2,1.55,3,2.39A43.3,43.3,0,0,1,47,16.62,80,80,0,0,1,51.88,10a83.62,83.62,0,0,1,6.73-7.36C57.39.45,57.05.32,57,.31a6.32,6.32,0,0,1-.92.83,57.4,57.4,0,0,0-5.2,4.71,66.93,66.93,0,0,0-4.94,5.56l-.1.12L42.12,8.44Z"/><polygon class="cls-4" points="40.23 70.73 38.38 39.78 75.52 39.78 78.61 70.73 40.23 70.73"/><path d="M78.78,70.89H40.09v-.15L38.21,39.63H75.66Zm-38.4-.31H78.44L75.38,39.94H38.54Z"/><path class="cls-9" d="M70.57,96.11c-2.55,4-5.56,9-9.29,15.48-.42,1.22-.83,2.45-1.24,3.71-1.67,5.16-3.07,10.2-4.24,15.08l-22.37-.84c4.09-6.62,8.28-13.81,12.38-20.43.17-4.92.1-8.94,0-11.76-.13-3.53-.36-6.51.62-10.52.89-3.66,2.09-5.36,3.71-6.19a10.84,10.84,0,0,1,3.32-.57q6.07-12.4,12.15-24.81a1.67,1.67,0,0,1,1.86-.62,1.73,1.73,0,0,1,.62,2.47L61.28,77.54a6.92,6.92,0,0,1,3.1-1.24,3.28,3.28,0,0,1,2.47.62c1,.88.79,2.38.62,3.72,0,.1,0,.2,0,.31a3.91,3.91,0,0,1,3.14-.31c1.36.79.94,3.78.62,6.19-.07.43-.13.85-.22,1.25a4.94,4.94,0,0,1,1.45,1.22C73.58,91.47,71.53,94.61,70.57,96.11Z"/><path d="M55.92,130.54H55.8l-22.65-.85.14-.22c2.05-3.31,4.16-6.82,6.19-10.22s4.13-6.88,6.17-10.18c.14-4,.14-7.93,0-11.7l0-.93a31.71,31.71,0,0,1,.65-9.64c.84-3.43,2-5.37,3.8-6.29a10.85,10.85,0,0,1,3.29-.58q3.06-6.24,6.11-12.48l6-12.25a1.85,1.85,0,0,1,2-.7,1.63,1.63,0,0,1,.88,1,2,2,0,0,1-.19,1.7q-3.3,9.95-6.64,20a7.23,7.23,0,0,1,2.78-1,3.23,3.23,0,0,1,2.6.66c1,1,.83,2.55.66,3.85v0a3.94,3.94,0,0,1,3-.2c1.45.84,1,3.88.7,6.32-.06.46-.13.85-.19,1.18a4.58,4.58,0,0,1,1.41,1.23c1.18,2.22-.85,5.38-1.82,6.9l0,.07c-2.3,3.56-5.07,8.19-9.28,15.46-.45,1.29-.85,2.5-1.23,3.69-1.59,4.93-3,10-4.24,15.07ZM33.7,129.39l22,.83c1.21-5,2.63-10.07,4.22-15,.38-1.18.78-2.4,1.23-3.71,4.23-7.31,7-11.94,9.31-15.51l0-.06c1-1.47,2.92-4.54,1.82-6.59a4.59,4.59,0,0,0-1.4-1.17l-.09-.06,0-.1c.08-.36.14-.77.21-1.25.33-2.37.73-5.29-.54-6a3.83,3.83,0,0,0-3,.32l-.26.13,0-.29a2.91,2.91,0,0,1,0-.31c.15-1.22.34-2.74-.57-3.58a2.87,2.87,0,0,0-2.35-.58,6.69,6.69,0,0,0-3,1.19l-.48.5.22-.66q3.42-10.21,6.81-20.42a1.78,1.78,0,0,0,.18-1.48,1.31,1.31,0,0,0-.71-.81,1.55,1.55,0,0,0-1.68.57c-2,4.06-4,8.15-6,12.23L53.6,80.13l0,.09h-.09a10.44,10.44,0,0,0-3.26.55c-1.7.88-2.82,2.76-3.63,6.09a31.16,31.16,0,0,0-.65,9.56l0,.92c.14,3.8.14,7.76,0,11.78v0l0,0c-2,3.31-4.15,6.82-6.19,10.21S35.7,126.15,33.7,129.39Z"/><path d="M60.19,81.3l-.29-.09c.2-.62.41-1.24.62-1.86s.41-1.24.61-1.86l.3.1c-.21.62-.42,1.24-.62,1.86S60.4,80.69,60.19,81.3Z"/><path d="M50.9,85.66l-.28-.14c.45-.91.89-1.82,1.34-2.74s.91-1.85,1.36-2.78l.28.14c-.45.92-.91,1.85-1.36,2.78S51.35,84.74,50.9,85.66Z"/><path d="M65.12,86.92l-.25-.18a13.57,13.57,0,0,0,2.4-5.81l.31,0A13.92,13.92,0,0,1,65.12,86.92Z"/><path d="M70.09,91.83l-.29-.11a22.29,22.29,0,0,0,1-3.67l.31.06A22.93,22.93,0,0,1,70.09,91.83Z"/><path class="cls-10" d="M173.32,126.44l-35.9.62c-.83-2.68-1.65-5.37-2.48-8a28.55,28.55,0,0,1,3.74-3.71,27.24,27.24,0,0,1,22.85-5.77,25.75,25.75,0,0,1,3.12.82Z"/><path d="M137.3,127.22,134.77,119l0-.06a28.26,28.26,0,0,1,3.76-3.74,27.39,27.39,0,0,1,23-5.8,26.77,26.77,0,0,1,3.14.82l.06,0,0,0,8.79,16.32h-.26l-17.95.31-18,.31Zm-2.18-8.17,2.41,7.85,17.84-.3,17.69-.31-8.51-15.81a27.85,27.85,0,0,0-3.05-.8,27.32,27.32,0,0,0-11.67.2,27,27,0,0,0-11.05,5.54A27.31,27.31,0,0,0,135.12,119.05Z"/><path class="cls-11" d="M161.53,109.53a27.24,27.24,0,0,0-22.85,5.77l-5-11.76.43-.5a20.94,20.94,0,0,1,19-6.79,22.6,22.6,0,0,1,2.25.48Q158.45,103.14,161.53,109.53Z"/><path d="M138.62,115.55l-.88-2.08-4.18-9.87,0-.09.07-.07c.12-.15.26-.32.43-.5a21,21,0,0,1,19.13-6.84,21.61,21.61,0,0,1,2.26.48l.07,0,0,.06,6.3,13.08-.31-.06a27.07,27.07,0,0,0-22.72,5.74Zm-4.74-12q2.07,4.89,4.15,9.78l.71,1.7a27.39,27.39,0,0,1,22.52-5.73l-6-12.46a20.21,20.21,0,0,0-2.16-.45,20.71,20.71,0,0,0-18.85,6.74Z"/><path class="cls-9" d="M153.12,96.25a20.94,20.94,0,0,0-19,6.79A55.29,55.29,0,0,0,131.85,98a39.65,39.65,0,0,0-3.72-6.19c-2.56-3.41-3.32-3-4.95-5.57a16.93,16.93,0,0,1-2.47-7.43,17.59,17.59,0,0,1,1.64-8.13.59.59,0,0,1,0-.08c-1.33-2.94-1.71-3.29-4.7-9.12a97.63,97.63,0,0,1-5-11.76c-.83-2.4-1.57-4.83-.62-5.57.57-.45,1.53-.12,1.86,0,2.17.75,3.15,3.13,3.71,4.33,2,4.35,2.91,2.71,8,10.52l1.06,1.65a8.24,8.24,0,0,1,4.51-1,7.87,7.87,0,0,1,3.09,1.24A8.87,8.87,0,0,1,135.77,62a5.48,5.48,0,0,1,2.27-.51c2.2,0,3.76,1.4,5,2.47a13.92,13.92,0,0,1,1.2,1.26,9.51,9.51,0,0,1,4.68,1.53c1,.78,2,2.18,2.48,6.19.48,4.41-.33,6.94-.62,9.9C150.47,85.43,151.35,91.14,153.12,96.25Z"/><path d="M134.08,103.34l-.09-.24c-.68-1.73-1.45-3.44-2.28-5.06a39.39,39.39,0,0,0-3.7-6.17,18,18,0,0,0-2.79-3.05,10,10,0,0,1-2.17-2.53,17.14,17.14,0,0,1-2.5-7.5,17.52,17.52,0,0,1,1.63-8.14v0c-.75-1.65-1.18-2.46-2-3.93-.59-1.11-1.41-2.63-2.72-5.18a99.7,99.7,0,0,1-5-11.78c-.85-2.47-1.6-4.94-.57-5.75.64-.5,1.67-.14,2,0,2.1.73,3.1,2.9,3.7,4.19l.1.22a10.89,10.89,0,0,0,2.7,3.8,36.19,36.19,0,0,1,5.34,6.71c.3.45.63,1,1,1.53a8.15,8.15,0,0,1,4.48-1,7.93,7.93,0,0,1,3.16,1.26,9.44,9.44,0,0,1,1.39,1.08,5.72,5.72,0,0,1,2.24-.49h0c2.25,0,3.85,1.46,5,2.52A11.87,11.87,0,0,1,144.27,65a9.68,9.68,0,0,1,4.7,1.56c1,.79,2.08,2.15,2.53,6.29a26.4,26.4,0,0,1-.31,7.59c-.12.8-.23,1.55-.31,2.35-.24,2.49.59,8.18,2.39,13.38l.08.25-.25,0a20.71,20.71,0,0,0-18.85,6.74ZM112.8,44a1,1,0,0,0-.67.2c-.87.68-.11,3.14.67,5.4a99.33,99.33,0,0,0,5,11.74c1.3,2.54,2.12,4.06,2.72,5.17.79,1.48,1.23,2.29,2,4l0,.11v.09a17.38,17.38,0,0,0-1.63,8.07,17,17,0,0,0,2.45,7.36,9.76,9.76,0,0,0,2.12,2.46,18.73,18.73,0,0,1,2.83,3.1A39.53,39.53,0,0,1,132,97.9a49.67,49.67,0,0,1,2.2,4.86,21,21,0,0,1,18.71-6.7c-1.82-5.36-2.55-10.82-2.32-13.27.08-.81.2-1.57.32-2.37a26.22,26.22,0,0,0,.3-7.5c-.44-4-1.52-5.38-2.42-6.09a9.42,9.42,0,0,0-4.59-1.5h-.07l0,0A12.54,12.54,0,0,0,142.89,64c-1.2-1.09-2.69-2.44-4.82-2.44h0a5.43,5.43,0,0,0-2.21.5l-.1,0-.07-.08A9.38,9.38,0,0,0,134.24,61a7.87,7.87,0,0,0-3-1.22,8.11,8.11,0,0,0-4.42,1l-.12.06-.08-.11q-.57-.93-1-1.65a36.48,36.48,0,0,0-5.29-6.66,11,11,0,0,1-2.77-3.89l-.1-.22c-.58-1.25-1.54-3.34-3.52-4A3.56,3.56,0,0,0,112.8,44Z"/><path d="M145.94,68.32a12.67,12.67,0,0,0-1.87-3l.24-.2a13.28,13.28,0,0,1,1.92,3.11Z"/><path d="M137.9,65.23a10.41,10.41,0,0,0-2.24-3.16l.21-.22a10.44,10.44,0,0,1,2.31,3.25Z"/><path d="M125.51,79.44a73.76,73.76,0,0,0-3.31-8.73l.29-.13a77.38,77.38,0,0,1,3.32,8.77Z"/><path d="M129.85,66.47c-1-2-2.1-3.89-3.27-5.76l.27-.17c1.16,1.88,2.27,3.83,3.28,5.79Z"/></g></g></svg>