<svg xmlns="http://www.w3.org/2000/svg" xmlns:xlink="http://www.w3.org/1999/xlink" viewBox="0 0 169.03 118.21"><defs><style>.cls-1{fill:none;}.cls-2{fill:#fff;}.cls-3{fill:#ffedcf;}.cls-4{fill:#22c195;}.cls-5{fill:#feb491;}.cls-6{fill:#1c1b22;}.cls-7{fill:#784719;}.cls-8{fill:#757575;}.cls-9{fill:#37474f;}.cls-10{fill:#bf360c;}.cls-11{fill:#ffa726;}.cls-12{fill:#e5877b;}.cls-13{fill:#cfd8dc;}.cls-14{fill:#3f51b5;}.cls-15{fill:#333;}.cls-16{fill:#78909c;}.cls-17{clip-path:url(#clip-path);}.cls-18{fill:#252523;}.cls-19{fill:#242422;}.cls-20{fill:#232321;}.cls-21{fill:#222220;}.cls-22{fill:#20201e;}.cls-23{fill:#1f1f1d;}.cls-24{fill:#1e1e1c;}.cls-25{fill:#1d1d1b;}.cls-26{fill:#424242;}.cls-27{fill:#d32f2f;}.cls-28{fill:#546e7a;}.cls-29{fill:#dae3ff;}</style><clipPath id="clip-path"><polyline class="cls-1" points="123.21 73.74 134.21 73.74 128.21 69.74 120.21 69.74 123.21 73.74"/></clipPath></defs><title>Asset 4</title><g id="Layer_2" data-name="Layer 2"><g id="Layer_1-2" data-name="Layer 1"><path class="cls-2" d="M104.76,24.4a26.35,26.35,0,0,1,5-14.18,26.83,26.83,0,0,1,15-10h25.85a13.42,13.42,0,0,1,7.51,13.35A13.35,13.35,0,0,1,149.8,24.4Z"/><path d="M149.84,24.61h-45.3v-.22a26.47,26.47,0,0,1,5-14.29A26.78,26.78,0,0,1,124.73,0h26l0,0a13.65,13.65,0,0,1,7.62,13.56,13.5,13.5,0,0,1-8.47,11ZM105,24.19h44.78a13.07,13.07,0,0,0,8.17-10.66A13.21,13.21,0,0,0,150.59.42H124.78a26.41,26.41,0,0,0-14.85,9.92A26,26,0,0,0,105,24.19Z"/><circle cx="121.02" cy="12.3" r="1.25"/><path d="M121,13.76a1.46,1.46,0,1,1,1.46-1.46A1.46,1.46,0,0,1,121,13.76Zm0-2.5a1,1,0,1,0,1,1A1,1,0,0,0,121,11.26Z"/><circle cx="131.87" cy="12.3" r="1.25"/><path d="M131.87,13.76a1.46,1.46,0,1,1,1.46-1.46A1.46,1.46,0,0,1,131.87,13.76Zm0-2.5a1,1,0,1,0,1,1A1,1,0,0,0,131.87,11.26Z"/><circle cx="142.71" cy="12.3" r="1.25"/><path d="M142.71,13.76a1.46,1.46,0,1,1,1.46-1.46A1.46,1.46,0,0,1,142.71,13.76Zm0-2.5a1,1,0,1,0,1,1A1,1,0,0,0,142.71,11.26Z"/><path class="cls-3" d="M28.46,38.77a22.61,22.61,0,0,1,2.3-.86c.75-.23,1.51-.44,2.29-.61a26.13,26.13,0,0,1,3.07-.47c.76-.07,1.52-.1,2.3-.1H79.53c.6,0,1.19,0,1.78,0a50.83,50.83,0,0,1,22.63,6.47,54.15,54.15,0,0,1,13,10.21c.35.37.69.75,1,1.13.57.64,1.12,1.29,1.66,1.95.37.47.74.94,1.1,1.42a57,57,0,0,1,3.33,4.9,59.68,59.68,0,0,1,8.59,31H38.42a26,26,0,0,1-19-8.37A29.5,29.5,0,0,1,11.6,65.32C11.6,53.29,18.57,43,28.46,38.77ZM76.39,70.9l.22.24-.27-.51-.09.11Zm.1-4.86-.15-.31-.2.1C76.25,65.9,76.38,66,76.49,66Z"/><path class="cls-2" d="M91.24,41.24H46.63a2.79,2.79,0,0,1-2.79-2.79L40.75,23.11a2.79,2.79,0,0,1,2.79-2.78H88.15a2.78,2.78,0,0,1,2.78,2.78L94,38.45A2.78,2.78,0,0,1,91.24,41.24Z"/><path d="M91.24,41.42H46.63a3,3,0,0,1-3-3L40.57,23.13v0a3,3,0,0,1,3-3H88.15a3,3,0,0,1,3,3l3.09,15.33v0A3,3,0,0,1,91.24,41.42ZM40.93,23.1,44,38.43v0a2.61,2.61,0,0,0,2.61,2.61H91.24a2.61,2.61,0,0,0,2.6-2.59L90.75,23.13v0a2.61,2.61,0,0,0-2.6-2.6H43.54A2.61,2.61,0,0,0,40.93,23.1Z"/><line class="cls-2" x1="66.75" y1="26.15" x2="83.3" y2="26.15"/><rect x="66.75" y="25.97" width="16.55" height="0.36"/><line class="cls-2" x1="67.66" y1="29.42" x2="79.84" y2="29.42"/><rect x="67.66" y="29.24" width="12.18" height="0.36"/><line class="cls-2" x1="68.57" y1="32.51" x2="75.66" y2="32.51"/><rect x="68.57" y="32.33" width="7.09" height="0.36"/><path class="cls-2" d="M98.88,72.88H54.26a2.78,2.78,0,0,1-2.78-2.79L48.39,54.75A2.77,2.77,0,0,1,51.17,52H95.78a2.78,2.78,0,0,1,2.79,2.78l3.09,15.34A2.79,2.79,0,0,1,98.88,72.88Z"/><path d="M98.88,73.06H54.26a3,3,0,0,1-3-3L48.21,54.77v0a3,3,0,0,1,3-3H95.78a3,3,0,0,1,3,2.95l3.09,15.34v0A3,3,0,0,1,98.88,73.06ZM48.57,54.73l3.09,15.34v0a2.6,2.6,0,0,0,2.6,2.6H98.88a2.6,2.6,0,0,0,2.6-2.58L98.39,54.77v0a2.61,2.61,0,0,0-2.61-2.6H51.17A2.6,2.6,0,0,0,48.57,54.73Z"/><line class="cls-2" x1="74.39" y1="57.78" x2="90.93" y2="57.78"/><rect x="74.39" y="57.6" width="16.55" height="0.36"/><line class="cls-2" x1="75.3" y1="61.06" x2="87.48" y2="61.06"/><rect x="75.3" y="60.88" width="12.18" height="0.36"/><line class="cls-2" x1="76.21" y1="64.15" x2="83.3" y2="64.15"/><rect x="76.21" y="63.97" width="7.09" height="0.36"/><path class="cls-2" d="M106.51,104.51H61.9a2.78,2.78,0,0,1-2.79-2.78L56,86.39a2.79,2.79,0,0,1,2.79-2.79h44.61a2.79,2.79,0,0,1,2.79,2.79l3.09,15.34A2.78,2.78,0,0,1,106.51,104.51Z"/><path d="M106.51,104.69H61.9a3,3,0,0,1-3-2.94L55.84,86.41v0a3,3,0,0,1,3-3h44.61a3,3,0,0,1,3,3l3.09,15.34v0A3,3,0,0,1,106.51,104.69ZM56.21,86.37l3.09,15.34v0a2.6,2.6,0,0,0,2.6,2.6h44.61a2.61,2.61,0,0,0,2.61-2.58L106,86.41v0a2.6,2.6,0,0,0-2.6-2.61H58.81A2.6,2.6,0,0,0,56.21,86.37Z"/><line class="cls-2" x1="82.02" y1="89.42" x2="98.57" y2="89.42"/><rect x="82.02" y="89.24" width="16.55" height="0.36"/><line class="cls-2" x1="82.93" y1="92.69" x2="95.12" y2="92.69"/><rect x="82.93" y="92.51" width="12.18" height="0.36"/><line class="cls-2" x1="83.84" y1="95.79" x2="90.93" y2="95.79"/><rect x="83.84" y="95.6" width="7.09" height="0.36"/><path class="cls-2" d="M152.61,53H108a2.79,2.79,0,0,1-2.78-2.79l-3.09-15.34a2.77,2.77,0,0,1,2.78-2.78h44.61a2.78,2.78,0,0,1,2.79,2.78l3.09,15.34A2.79,2.79,0,0,1,152.61,53Z"/><path d="M152.61,53.14H108a3,3,0,0,1-3-3l-3.09-15.34v0a3,3,0,0,1,3-3h44.61a3,3,0,0,1,3,2.94l3.09,15.34v0A3,3,0,0,1,152.61,53.14ZM102.3,34.82l3.09,15.33v0a2.61,2.61,0,0,0,2.6,2.61h44.62a2.61,2.61,0,0,0,2.6-2.59l-3.09-15.34v0a2.61,2.61,0,0,0-2.61-2.6H104.9A2.61,2.61,0,0,0,102.3,34.82Z"/><line class="cls-2" x1="128.12" y1="37.87" x2="144.66" y2="37.87"/><rect x="128.12" y="37.68" width="16.55" height="0.36"/><line class="cls-2" x1="129.03" y1="41.14" x2="141.21" y2="41.14"/><rect x="129.03" y="40.96" width="12.18" height="0.36"/><line class="cls-2" x1="129.94" y1="44.23" x2="137.03" y2="44.23"/><rect x="129.94" y="44.05" width="7.09" height="0.36"/><path class="cls-2" d="M163,81.81a2.78,2.78,0,0,1-2.79,2.78H115.63a2.77,2.77,0,0,1-2.78-2.78l-3.1-15.34a2.79,2.79,0,0,1,2.79-2.79h44.61a2.79,2.79,0,0,1,2.79,2.79Z"/><path class="cls-2" d="M160.24,85.09H115.63a3.28,3.28,0,0,1-3.28-3.28l-3.09-15.24a3.31,3.31,0,0,1,3.28-3.39h44.61a3.3,3.3,0,0,1,3.29,3.29l3.09,15.34A3.29,3.29,0,0,1,160.24,85.09Zm-47.7-20.91a2.3,2.3,0,0,0-2.29,2.29l3.09,15.24a2.32,2.32,0,0,0,2.29,2.38h44.61a2.29,2.29,0,0,0,2.29-2.23l-3.08-15.29a2.33,2.33,0,0,0-2.3-2.39Z"/><path d="M160.24,84.78H115.63a3,3,0,0,1-3-3l-3.09-15.34v0a3,3,0,0,1,3-3h44.61a3,3,0,0,1,3,3l3.09,15.34v0A3,3,0,0,1,160.24,84.78Zm-50.3-18.33L113,81.79v0a2.6,2.6,0,0,0,2.6,2.6h44.61a2.61,2.61,0,0,0,2.61-2.58l-3.1-15.34v0a2.59,2.59,0,0,0-2.6-2.6H112.54A2.6,2.6,0,0,0,109.94,66.45Z"/><path class="cls-4" d="M166.24,78.59H121.63a2.78,2.78,0,0,1-2.79-2.78l-3.09-15.34a2.79,2.79,0,0,1,2.79-2.79h44.61a2.79,2.79,0,0,1,2.79,2.79L169,75.81A2.78,2.78,0,0,1,166.24,78.59Z"/><line class="cls-2" x1="135.75" y1="69.5" x2="152.3" y2="69.5"/><rect x="137.75" y="64.32" width="16.55" height="0.36"/><line class="cls-2" x1="136.66" y1="72.78" x2="148.85" y2="72.78"/><rect x="138.66" y="67.59" width="12.18" height="0.36"/><line class="cls-2" x1="137.57" y1="75.87" x2="144.66" y2="75.87"/><rect x="139.57" y="70.69" width="7.09" height="0.36"/><path class="cls-5" d="M63.9,96.8a1.64,1.64,0,1,0-1.64-1.63A1.63,1.63,0,0,0,63.9,96.8Z"/><path class="cls-5" d="M75.35,96.8a1.64,1.64,0,1,0-1.64-1.63A1.63,1.63,0,0,0,75.35,96.8Z"/><path class="cls-5" d="M75.76,92.3c0-5.19-12.27-3.39-12.27,0v4.09a6.14,6.14,0,1,0,12.27,0Z"/><path class="cls-6" d="M69.62,85.76a7,7,0,0,0-7,6.95V94.1l.82.66V93.53l8.59-4,3.68,4v1.23l.81-.66V92.71A6.8,6.8,0,0,0,69.62,85.76Z"/><path class="cls-7" d="M72.48,96a.82.82,0,1,0-.81-.81A.81.81,0,0,0,72.48,96Z"/><path class="cls-7" d="M66.76,96a.82.82,0,1,0-.82-.81A.82.82,0,0,0,66.76,96Z"/><path class="cls-8" d="M77.39,94.35a.39.39,0,0,0-.41.41V91.89a6.56,6.56,0,0,0-6.54-6.54H67.58a.39.39,0,0,0-.41.41.38.38,0,0,0,.41.41h2.86a5.74,5.74,0,0,1,5.72,5.72V96a.39.39,0,0,0,.41.41A.38.38,0,0,0,77,96v.82a2.83,2.83,0,0,1-2.86,2.86h-4.5a.39.39,0,0,0-.41.41.39.39,0,0,0,.41.41h4.5A3.66,3.66,0,0,0,77.8,96.8v-2A.38.38,0,0,0,77.39,94.35Z"/><path class="cls-9" d="M77.39,93.53H77a.82.82,0,0,0-.82.82V96a.82.82,0,0,0,.82.82h.41a.82.82,0,0,0,.82-.82V94.35A.82.82,0,0,0,77.39,93.53Z"/><path class="cls-9" d="M69.62,100.89a.82.82,0,1,0-.82-.82A.82.82,0,0,0,69.62,100.89Z"/><path class="cls-10" d="M112.77,44.26h7V48.1h-7Z"/><path class="cls-11" d="M111.81,44.26a1.28,1.28,0,1,0,0-2.56,1.28,1.28,0,0,0,0,2.56Z"/><path class="cls-11" d="M120.77,44.26A1.28,1.28,0,1,0,119.49,43,1.28,1.28,0,0,0,120.77,44.26Z"/><path class="cls-5" d="M121.09,40.74c0-4.07-9.6-2.66-9.6,0v3.2a4.8,4.8,0,1,0,9.6,0Z"/><path class="cls-7" d="M118.21,43.62a.64.64,0,0,0,.64-.64.64.64,0,0,0-1.28,0A.64.64,0,0,0,118.21,43.62Z"/><path class="cls-7" d="M114.37,43.62A.64.64,0,0,0,115,43a.64.64,0,1,0-.64.64Z"/><path class="cls-6" d="M116.29,35.29c-2.72,0-6.72,1.86-6.72,10.76l3.2,2.05V42.34l5.38-3.14,1.66,2.18V48.1l3.2-2.63c0-1.79-.29-9.28-4.93-9.28l-.45-.9Z"/><path class="cls-8" d="M123,42.34a.3.3,0,0,0-.32.32V40.42a5.14,5.14,0,0,0-5.12-5.13h-2.88a.3.3,0,0,0-.32.32.3.3,0,0,0,.32.32h2.88a4.5,4.5,0,0,1,4.48,4.49v3.2a.32.32,0,0,0,.64,0v.64a2.22,2.22,0,0,1-2.24,2.24h-4.16a.32.32,0,1,0,0,.64h4.16a2.87,2.87,0,0,0,2.88-2.88v-1.6A.3.3,0,0,0,123,42.34Z"/><path class="cls-9" d="M123,41.7h-.32a.64.64,0,0,0-.64.64v1.28a.64.64,0,0,0,.64.64H123a.64.64,0,0,0,.64-.64V42.34A.64.64,0,0,0,123,41.7Z"/><path class="cls-9" d="M116.29,47.46a.64.64,0,1,0,0-1.28.64.64,0,0,0,0,1.28Z"/><path class="cls-12" d="M61.38,67l-1.82-2.18V62.6H63.2v2.19Z"/><path class="cls-5" d="M64.66,61.15a.73.73,0,1,0-.73-.73A.73.73,0,0,0,64.66,61.15Z"/><path class="cls-5" d="M58.11,61.15a.73.73,0,1,0-.73-.73A.73.73,0,0,0,58.11,61.15Z"/><path class="cls-5" d="M64.66,58.23c0-2.76-6.55-1.82-6.55,0v2.55a3.28,3.28,0,1,0,6.55,0Z"/><path class="cls-6" d="M61.38,55a3.7,3.7,0,0,0-3.64,4v.84l.73.62V58.6l4.37-1.46L64.3,58.6v1.82L65,59.8V59c0-1.46-.36-2.91-2.18-3.28L62.48,55Z"/><path class="cls-7" d="M62.84,60.78a.36.36,0,0,0,.36-.36.36.36,0,1,0-.72,0A.36.36,0,0,0,62.84,60.78Z"/><path class="cls-7" d="M59.93,60.78a.36.36,0,0,0,.36-.36.37.37,0,1,0-.73,0A.36.36,0,0,0,59.93,60.78Z"/><path class="cls-13" d="M63.2,64.79l-1.82.36-1.82-.36s-4,.73-4,4.73H67.21C67.21,65.52,63.2,64.79,63.2,64.79Z"/><path class="cls-14" d="M61,66.25l-.37,3.27h1.46l-.36-3.27.36-.37-.73-.73-.73.73Z"/><path class="cls-15" d="M51,27.42h5.47v6.16H51Z"/><path class="cls-16" d="M59.21,37.34h-11c0-3.76,3.77-4.44,3.77-4.44h3.42S59.21,33.58,59.21,37.34Z"/><path class="cls-12" d="M53.74,35C53,35,52,32.9,52,32.9V30.84h3.42V32.9S54.49,35,53.74,35Z"/><path class="cls-5" d="M56.81,27.08c0-2.6-6.15-1.71-6.15,0v2.4a3.08,3.08,0,1,0,6.15,0Z"/><path class="cls-6" d="M53.74,23.66c-2.09,0-5.14,1.16-5.14,8L51,33.24V28.79l4.1-2.39,1.37,1.71v5.13l2.4-2.05c0-1.37-.24-6.84-3.77-6.84l-.34-.69Z"/><path class="cls-5" d="M53.74,35.29C52.23,35.29,52,32.9,52,32.9s.85,1.37,1.71,1.37,1.71-1.37,1.71-1.37S55.24,35.29,53.74,35.29Z"/><path class="cls-7" d="M55.1,29.82a.35.35,0,0,0,.35-.34.35.35,0,1,0-.69,0A.34.34,0,0,0,55.1,29.82Z"/><path class="cls-7" d="M52.37,29.82a.34.34,0,0,0,.34-.34.34.34,0,1,0-.68,0A.34.34,0,0,0,52.37,29.82Z"/><g class="cls-17"><polygon class="cls-18" points="133.85 73.74 134.21 73.67 134.21 73.74 133.85 73.74"/><polygon class="cls-18" points="129.32 73.74 134.21 72.79 134.21 73.67 133.85 73.74 129.32 73.74"/><polygon class="cls-19" points="124.8 73.74 134.21 71.92 134.21 72.79 129.32 73.74 124.8 73.74"/><polygon class="cls-20" points="120.27 73.74 134.21 71.04 134.21 71.92 124.8 73.74 120.27 73.74"/><polygon class="cls-21" points="120.21 72.88 134.21 70.16 134.21 71.04 120.27 73.74 120.21 73.74 120.21 72.88"/><polygon class="cls-22" points="120.21 72 131.87 69.74 134.21 69.74 134.21 70.16 120.21 72.88 120.21 72"/><polygon class="cls-23" points="120.21 71.12 127.34 69.74 131.87 69.74 120.21 72 120.21 71.12"/><polygon class="cls-24" points="120.21 70.25 122.82 69.74 127.34 69.74 120.21 71.12 120.21 70.25"/><polygon class="cls-25" points="122.82 69.74 120.21 70.25 120.21 69.74 122.82 69.74"/></g><path class="cls-12" d="M128.74,71.81,127,69.75v-2h3.42v2Z"/><path class="cls-5" d="M131.81,66.33a.68.68,0,0,0,.69-.68.69.69,0,1,0-1.37,0A.68.68,0,0,0,131.81,66.33Z"/><path class="cls-5" d="M125.66,66.33a.67.67,0,0,0,.68-.68.68.68,0,0,0-.68-.69.69.69,0,0,0-.69.69A.68.68,0,0,0,125.66,66.33Z"/><path class="cls-5" d="M131.81,63.6c0-2.6-6.15-1.71-6.15,0V66a3.08,3.08,0,1,0,6.15,0Z"/><path class="cls-26" d="M128.74,60.52a3.47,3.47,0,0,0-3.42,3.76v.79l.68.58V63.94l4.1-1.37,1.37,1.37v1.71l.69-.58v-.79c0-1.37-.35-2.74-2.06-3.08l-.34-.68Z"/><path class="cls-7" d="M130.1,66a.34.34,0,1,0-.34-.34A.35.35,0,0,0,130.1,66Z"/><path class="cls-7" d="M127.37,66a.34.34,0,1,0-.34-.34A.34.34,0,0,0,127.37,66Z"/><path class="cls-2" d="M128.74,73.86,127,69.75l1.71.35,1.71-.35Z"/><path class="cls-27" d="M128.39,71.12l-.24,1.54.59,1.37.58-1.37-.24-1.54.34-.34-.68-.68-.69.68Z"/><path class="cls-28" d="M130.45,69.75l-1.71,4.11L127,69.75s-3.77.69-3.77,4.45h11C134.21,70.44,130.45,69.75,130.45,69.75Z"/><path class="cls-5" d="M13.35,100.74H35.78a148.09,148.09,0,0,1,7-23.67c2.2-5.42,3.31-8.12,5-10s3.65-3.25,4.48-6.23a7.82,7.82,0,0,0,0-4.74A7.45,7.45,0,0,0,50.6,53.4c1.37-3.95,2.62-7,3.62-9.23,1.35-3,2.12-6.32,3.74-9.22.92-1.65,2.18-3.63,1.49-4.49a1.76,1.76,0,0,0-2-.25,2.35,2.35,0,0,0-1,1.5c-.61,2.15-2.38,3.79-3.49,5.73a67.87,67.87,0,0,1-5.38,7.69c-.37-.71-1.32-2.38-2.34-2.7a3.87,3.87,0,0,0-3,.49,5.73,5.73,0,0,0-1.82,1.53,3.83,3.83,0,0,0-.92-.28,5.2,5.2,0,0,0-3.73,1,7.62,7.62,0,0,0-2.48,2.57,4.07,4.07,0,0,0-1.76.17,4.89,4.89,0,0,0-2.24,1.74,8.2,8.2,0,0,0-1.75,3.74,9.32,9.32,0,0,0,0,3.49c.38,2.08.57,6.67,0,17.2Z"/><path d="M27.43,74c.47-8.76.48-14.53,0-17.14v0a9.57,9.57,0,0,1,0-3.5,8.45,8.45,0,0,1,1.77-3.8,5.08,5.08,0,0,1,2.3-1.78,4.21,4.21,0,0,1,1.74-.18,7.64,7.64,0,0,1,2.47-2.55,5.33,5.33,0,0,1,3.83-1,4.08,4.08,0,0,1,.85.25,5.82,5.82,0,0,1,1.81-1.49,3.93,3.93,0,0,1,3.08-.5c.91.28,1.75,1.53,2.33,2.59a69.92,69.92,0,0,0,5.25-7.52,22.2,22.2,0,0,1,1.41-2.07,11.74,11.74,0,0,0,2.07-3.63v0a2.39,2.39,0,0,1,1-1.55,1.87,1.87,0,0,1,2.15.29c.67.83-.27,2.49-1.18,4.09l-.31.53a36.39,36.39,0,0,0-2.28,5.44c-.44,1.25-.9,2.54-1.45,3.77-1.24,2.8-2.45,5.88-3.58,9.15a7.73,7.73,0,0,1,1.59,2.72,8,8,0,0,1,0,4.81,11.35,11.35,0,0,1-3.41,5.15c-.37.36-.74.74-1.1,1.13-1.67,1.84-2.77,4.54-5,9.93a145,145,0,0,0-7,23.66l0,.1H13.14Zm15.21,3c2.2-5.42,3.31-8.14,5-10,.36-.39.74-.77,1.1-1.14a11,11,0,0,0,3.35-5,7.77,7.77,0,0,0,0-4.66,7.36,7.36,0,0,0-1.6-2.68l0-.06,0-.07c1.14-3.31,2.36-6.42,3.61-9.24.55-1.22,1-2.51,1.45-3.76a34.83,34.83,0,0,1,2.3-5.47c.09-.18.2-.36.3-.54.83-1.45,1.77-3.11,1.2-3.81a1.63,1.63,0,0,0-1.84-.21,2.16,2.16,0,0,0-.92,1.39v0a11.94,11.94,0,0,1-2.11,3.72,21,21,0,0,0-1.39,2,71,71,0,0,1-5.39,7.71l-.12.15-.09-.17c-.78-1.49-1.59-2.43-2.27-2.64a3.72,3.72,0,0,0-2.9.49,5.6,5.6,0,0,0-1.79,1.49l-.06.07-.08,0a4.32,4.32,0,0,0-.89-.27,5.13,5.13,0,0,0-3.65,1,7.66,7.66,0,0,0-2.43,2.53l0,.07h-.08a4.07,4.07,0,0,0-1.71.17,4.76,4.76,0,0,0-2.19,1.7,8.12,8.12,0,0,0-1.72,3.69,9.31,9.31,0,0,0,0,3.41v0c.48,2.63.48,8.43,0,17.22v0L13.55,100.62H35.67A146.38,146.38,0,0,1,42.64,77Z"/><path d="M32.41,50.18a9.3,9.3,0,0,1,1-2.38l-.22-.12a9.45,9.45,0,0,0-1,2.44Z"/><path d="M38.89,48.18a8.66,8.66,0,0,1,1.63-3.65l-.19-.16a9,9,0,0,0-1.69,3.76Z"/><path d="M49.1,58.41c.52-1.68,1.06-3.35,1.62-5l-.23-.08c-.56,1.62-1.11,3.29-1.63,5Z"/><path d="M45.09,48.49c.94-1.17,1.82-2.27,2.6-3.28l-.2-.15c-.78,1-1.65,2.11-2.59,3.27Z"/><path class="cls-29" d="M30.36,118.21c2.21-6.37,3.58-9.78,6.19-17.57a23.51,23.51,0,0,0-23.63-5.12C8,105.07,4.53,109.85,0,118.21Z"/><path class="cls-5" d="M136.22,78c1,2.3,2.3,5.4,3.7,9.44a7.61,7.61,0,0,0-1.66,2.8,8.05,8.05,0,0,0,0,4.84c.85,3,2.86,4.48,4.59,6.37s2.84,4.66,5.09,10.2c.88,2.16,1.68,4.37,2.41,6.55h18.26l-5.12-9.61c-.58-10.76-.38-15.47,0-17.59a9.3,9.3,0,0,0,0-3.57,8.46,8.46,0,0,0-1.78-3.82,5.12,5.12,0,0,0-2.29-1.79,4.3,4.3,0,0,0-1.81-.17A7.84,7.84,0,0,0,155.08,79a5.32,5.32,0,0,0-3.82-1,4.44,4.44,0,0,0-.93.28,5.9,5.9,0,0,0-1.88-1.55,3.9,3.9,0,0,0-3-.51c-1.05.33-2,2-2.4,2.76a71.85,71.85,0,0,1-5.51-7.86c-1.13-2-3-3.66-3.57-5.86a2.33,2.33,0,0,0-1-1.53,1.78,1.78,0,0,0-2,.25c-.71.88.58,2.9,1.53,4.59C134.05,71.54,134.84,74.91,136.22,78Z"/><path d="M132.28,68.64a37,37,0,0,1,2.34,5.56c.45,1.28.92,2.6,1.48,3.86,1.28,2.86,2.51,6,3.67,9.36a7.74,7.74,0,0,0-1.63,2.79,8.12,8.12,0,0,0,0,4.91,11.55,11.55,0,0,0,3.49,5.27c.37.37.76.76,1.12,1.16,1.71,1.87,2.84,4.64,5.08,10.16.86,2.13,1.64,4.32,2.37,6.5h.28c-.73-2.21-1.54-4.43-2.42-6.6-2.25-5.54-3.38-8.33-5.12-10.23-.37-.41-.76-.8-1.13-1.17a11.29,11.29,0,0,1-3.43-5.16,8,8,0,0,1,0-4.76A7.36,7.36,0,0,1,140,87.54l.05-.06,0-.07c-1.17-3.38-2.42-6.56-3.7-9.45-.56-1.25-1-2.57-1.48-3.84a36.48,36.48,0,0,0-2.35-5.6L132.2,68c-.85-1.49-1.81-3.18-1.23-3.9a1.66,1.66,0,0,1,1.88-.22,2.21,2.21,0,0,1,.94,1.42v0A12.26,12.26,0,0,0,136,69.1a22,22,0,0,1,1.42,2.09,73.24,73.24,0,0,0,5.52,7.88l.12.16.09-.18c.8-1.52,1.63-2.48,2.32-2.7a3.83,3.83,0,0,1,3,.5,6,6,0,0,1,1.83,1.52l.06.08.09,0a3.85,3.85,0,0,1,.9-.27,5.16,5.16,0,0,1,3.73,1,7.55,7.55,0,0,1,2.49,2.59l.05.07h.08a4.11,4.11,0,0,1,1.75.16,5,5,0,0,1,2.23,1.75,8.31,8.31,0,0,1,1.76,3.77,9.31,9.31,0,0,1,0,3.49v0c-.49,2.69-.49,8.62,0,17.62v0l5.1,9.58h.29l-5.14-9.65c-.49-9-.49-14.86,0-17.53v0a9.58,9.58,0,0,0,0-3.58,8.59,8.59,0,0,0-1.81-3.88,5.18,5.18,0,0,0-2.35-1.83,4.25,4.25,0,0,0-1.78-.18,7.91,7.91,0,0,0-2.53-2.61,5.43,5.43,0,0,0-3.91-1,4.15,4.15,0,0,0-.88.25,5.82,5.82,0,0,0-1.85-1.52,4.05,4.05,0,0,0-3.15-.52c-.93.3-1.79,1.57-2.38,2.66a72.21,72.21,0,0,1-5.38-7.69A20.17,20.17,0,0,0,136.17,69a11.91,11.91,0,0,1-2.12-3.72v0A2.45,2.45,0,0,0,133,63.62a1.9,1.9,0,0,0-2.19.29c-.69.85.28,2.55,1.21,4.18Z"/><path d="M158.53,84.16a9.56,9.56,0,0,0-1-2.43l.22-.13a9.66,9.66,0,0,1,1.05,2.49Z"/><path d="M151.9,82.11a8.94,8.94,0,0,0-1.67-3.74l.19-.16a9.23,9.23,0,0,1,1.73,3.85Z"/><path d="M141.45,92.58c-.53-1.72-1.08-3.43-1.66-5.08l.25-.09c.57,1.66,1.13,3.37,1.65,5.09Z"/><path d="M145.55,82.42c-1-1.19-1.85-2.32-2.65-3.35l.2-.15c.8,1,1.69,2.15,2.65,3.34Z"/></g></g></svg>