<svg xmlns="http://www.w3.org/2000/svg" xmlns:xlink="http://www.w3.org/1999/xlink" width="67.66981mm" height="40.40003mm" viewBox="0 0 191.81995 114.51978">
  <defs>
    <style>
      .cls-1 {
        fill: none;
      }

      .cls-2 {
        clip-path: url(#clip-path);
      }

      .cls-3 {
        fill: #e5c4c4;
        fill-rule: evenodd;
      }

      .cls-4 {
        fill: #ebebeb;
      }

      .cls-5, .cls-6 {
        opacity: 0.1;
      }

      .cls-6 {
        isolation: isolate;
      }

      .cls-7 {
        fill: #9a1111;
      }

      .cls-8 {
        fill: #f98686;
      }

      .cls-9 {
        fill: #263238;
      }

      .cls-10 {
        fill: #37474f;
      }

      .cls-11 {
        fill: #455a64;
      }

      .cls-12 {
        fill: #f7a9a0;
      }

      .cls-13 {
        fill: #c41212;
      }

      .cls-14 {
        fill: #c7c7c7;
      }
    </style>
    <clipPath id="clip-path">
      <path class="cls-1" d="M177.13,0c-2.63995,22.15991-19.5,50.24-43.63,66.30981C129.33,69.09009,99.22,88.45,62.26,79.2,34.89,72.34985,12.23,51.92993,0,24.61011V9.86987A9.86276,9.86276,0,0,1,9.86005,0Z"/>
    </clipPath>
  </defs>
  <title>cards</title>
  <g id="Layer_1" data-name="Layer 1">
    <g class="cls-2">
      <g>
        <path class="cls-3" d="M84.8238-33.6056c21.04538,1.83561,32.27227,15.04384,50.02227,22.00443,19.02627,7.46122,46.2054,8.37092,57.46177,20.14524,11.88217,12.43017,13.96258,29.49287,1.77069,41.81687-11.84315,11.97249-39.23964,13.39886-61.16479,18.22484-15.72451,3.461-31.77148,3.52842-48.08994,5.82346C61.43289,77.69986,36.27126,93.24747,16.73942,84.927-2.747,76.626,19.98066,56.75957,11.91219,43.34892,3.39627,29.19558-32.6061,22.06749-30.079,7.113-27.64193-7.30789,1.88911-13.94386,22.8477-21.37063,42.01091-28.16183,62.74418-35.53155,84.8238-33.6056Z"/>
        <path class="cls-4" d="M71.21665,74.29354c0,1.48064-6.27237,2.68264-14.0091,2.68264s-14.00907-1.202-14.00907-2.68264,6.27236-2.68264,14.00907-2.68264S71.21665,72.817,71.21665,74.29354Z"/>
        <g class="cls-5">
          <path class="cls-6" d="M88.65887,55.54559H87.26365V75.41622h1.39522Z"/>
        </g>
        <g class="cls-5">
          <path class="cls-6" d="M96.69254,49.08H95.29732V75.41418h1.39522Z"/>
        </g>
        <g class="cls-5">
          <path class="cls-6" d="M80.6435,59.39769H79.24828V75.41622H80.6435Z"/>
        </g>
        <g class="cls-5">
          <path class="cls-6" d="M104.72417,40.4728H103.329V75.41418h1.39521Z"/>
        </g>
        <path class="cls-7" d="M74.54808,65.07007V61.9888s20.74518-1.7674,29.13273-24.75387h.88879S98.946,61.01663,74.54808,65.07007Z"/>
        <path class="cls-7" d="M105.29162,38.22337,102.67,37.35492l2.17215-2.164Z"/>
        <path class="cls-8" d="M108.22421,74.96267H95.41508v2.83111h12.80913Z"/>
        <g class="cls-5">
          <path class="cls-6" d="M95.94388,75.2291a6.34627,6.34627,0,0,1,0,2.26367A6.34673,6.34673,0,0,1,95.94388,75.2291Z"/>
          <path class="cls-6" d="M96.89775,75.2291a6.34627,6.34627,0,0,1,0,2.26367A6.34627,6.34627,0,0,1,96.89775,75.2291Z"/>
          <path class="cls-6" d="M97.3635,75.2291a6.34627,6.34627,0,0,1,0,2.26367,5.4712,5.4712,0,0,1-.10169-1.13285A5.59626,5.59626,0,0,1,97.3635,75.2291Z"/>
          <path class="cls-6" d="M99.916,75.2291a6.34627,6.34627,0,0,1,0,2.26367A6.34673,6.34673,0,0,1,99.916,75.2291Z"/>
          <path class="cls-6" d="M100.61358,75.2291a5.74787,5.74787,0,0,1,.10169,1.13082,5.61544,5.61544,0,0,1-.10169,1.13285,5.47051,5.47051,0,0,1-.10169-1.13285A5.59554,5.59554,0,0,1,100.61358,75.2291Z"/>
          <path class="cls-6" d="M103.47519,75.2291a5.74788,5.74788,0,0,1,.1017,1.13082,5.61544,5.61544,0,0,1-.1017,1.13285,5.4712,5.4712,0,0,1-.10169-1.13285A5.74863,5.74863,0,0,1,103.47519,75.2291Z"/>
          <path class="cls-6" d="M104.13619,75.2291a5.74711,5.74711,0,0,1,.10169,1.13082,5.47051,5.47051,0,0,1-.10169,1.13285,5.61616,5.61616,0,0,1-.10169-1.13285A5.74787,5.74787,0,0,1,104.13619,75.2291Z"/>
          <path class="cls-6" d="M105.3504,75.2291a5.74863,5.74863,0,0,1,.10169,1.13082,5.61688,5.61688,0,0,1-.10169,1.13285,5.47052,5.47052,0,0,1-.1017-1.13285A5.74788,5.74788,0,0,1,105.3504,75.2291Z"/>
          <path class="cls-6" d="M102.922,75.2291a5.59554,5.59554,0,0,1,.10169,1.13082,5.47188,5.47188,0,0,1-.10169,1.13285,5.61544,5.61544,0,0,1-.10169-1.13285A5.74711,5.74711,0,0,1,102.922,75.2291Z"/>
          <path class="cls-6" d="M98.20958,75.2291a6.4803,6.4803,0,0,1,0,2.26367A6.34627,6.34627,0,0,1,98.20958,75.2291Z"/>
          <path class="cls-6" d="M101.52474,75.2291a6.34627,6.34627,0,0,1,0,2.26367A6.34627,6.34627,0,0,1,101.52474,75.2291Z"/>
          <path class="cls-6" d="M102.00066,75.2291a5.59554,5.59554,0,0,1,.10169,1.13082,5.47188,5.47188,0,0,1-.10169,1.13285,5.61544,5.61544,0,0,1-.10169-1.13285A5.74711,5.74711,0,0,1,102.00066,75.2291Z"/>
          <path class="cls-6" d="M106.93272,75.2291a5.59555,5.59555,0,0,1,.1017,1.13082,5.47121,5.47121,0,0,1-.1017,1.13285,5.61616,5.61616,0,0,1-.10169-1.13285A5.74787,5.74787,0,0,1,106.93272,75.2291Z"/>
          <path class="cls-6" d="M107.64457,75.2291a5.74787,5.74787,0,0,1,.10169,1.13082,5.61544,5.61544,0,0,1-.10169,1.13285,5.47051,5.47051,0,0,1-.10169-1.13285A5.59482,5.59482,0,0,1,107.64457,75.2291Z"/>
          <path class="cls-6" d="M105.91377,75.2291a5.59626,5.59626,0,0,1,.10169,1.13082,5.4712,5.4712,0,0,1-.10169,1.13285,5.61544,5.61544,0,0,1-.10169-1.13285A5.74711,5.74711,0,0,1,105.91377,75.2291Z"/>
          <path class="cls-6" d="M99.36887,75.2291a6.34673,6.34673,0,0,1,0,2.26367,5.47051,5.47051,0,0,1-.10169-1.13285A5.59554,5.59554,0,0,1,99.36887,75.2291Z"/>
        </g>
        <path class="cls-6" d="M108.22421,74.96267v.602l-12.80913.4027V74.96267Z"/>
        <path class="cls-8" d="M107.15645,72.1336H94.34732v2.83111h12.80913Z"/>
        <g class="cls-5">
          <path class="cls-6" d="M106.57884,74.65759a6.35751,6.35751,0,0,1,0-2.26569A6.358,6.358,0,0,1,106.57884,74.65759Z"/>
          <path class="cls-6" d="M105.625,74.65759a6.357,6.357,0,0,1,0-2.26569A6.358,6.358,0,0,1,105.625,74.65759Z"/>
          <path class="cls-6" d="M105.15921,74.65759a5.78351,5.78351,0,0,1-.10169-1.13284,5.61616,5.61616,0,0,1,.10169-1.13285,5.47121,5.47121,0,0,1,.1017,1.13285A5.63056,5.63056,0,0,1,105.15921,74.65759Z"/>
          <path class="cls-6" d="M102.60064,74.65759a6.35751,6.35751,0,0,1,0-2.26569A6.35751,6.35751,0,0,1,102.60064,74.65759Z"/>
          <path class="cls-6" d="M101.90913,74.65759a5.78428,5.78428,0,0,1-.10169-1.13284,5.61688,5.61688,0,0,1,.10169-1.13285,5.47052,5.47052,0,0,1,.1017,1.13285A5.78352,5.78352,0,0,1,101.90913,74.65759Z"/>
          <path class="cls-6" d="M99.04752,74.65759a5.78351,5.78351,0,0,1-.10169-1.13284,5.4712,5.4712,0,0,1,.10169-1.13285,5.47189,5.47189,0,0,1,.1017,1.13285A5.78352,5.78352,0,0,1,99.04752,74.65759Z"/>
          <path class="cls-6" d="M98.38653,74.65759a5.63056,5.63056,0,0,1-.1017-1.13284,5.47121,5.47121,0,0,1,.1017-1.13285,5.61688,5.61688,0,0,1,.10169,1.13285A5.78351,5.78351,0,0,1,98.38653,74.65759Z"/>
          <path class="cls-6" d="M97.17232,74.65759a5.78351,5.78351,0,0,1-.10169-1.13284,5.4712,5.4712,0,0,1,.10169-1.13285,5.61689,5.61689,0,0,1,.1017,1.13285A5.78429,5.78429,0,0,1,97.17232,74.65759Z"/>
          <path class="cls-6" d="M99.60072,74.65759a5.63128,5.63128,0,0,1-.10169-1.13284,5.47188,5.47188,0,0,1,.10169-1.13285A6.357,6.357,0,0,1,99.60072,74.65759Z"/>
          <path class="cls-6" d="M104.31314,74.65759a6.35751,6.35751,0,0,1,0-2.26569A6.358,6.358,0,0,1,104.31314,74.65759Z"/>
          <path class="cls-6" d="M100.998,74.65759a6.35751,6.35751,0,0,1,0-2.26569A6.358,6.358,0,0,1,100.998,74.65759Z"/>
          <path class="cls-6" d="M100.52613,74.65759a5.63056,5.63056,0,0,1-.1017-1.13284,5.47052,5.47052,0,0,1,.1017-1.13285A6.358,6.358,0,0,1,100.52613,74.65759Z"/>
          <path class="cls-6" d="M95.59,74.65759a5.63056,5.63056,0,0,1-.1017-1.13284A5.47052,5.47052,0,0,1,95.59,72.3919,6.358,6.358,0,0,1,95.59,74.65759Z"/>
          <path class="cls-6" d="M94.87408,74.65759a5.78351,5.78351,0,0,1-.10169-1.13284,5.61544,5.61544,0,0,1,.10169-1.13285,5.4712,5.4712,0,0,1,.10169,1.13285A5.62983,5.62983,0,0,1,94.87408,74.65759Z"/>
          <path class="cls-6" d="M96.60895,74.65759a5.63056,5.63056,0,0,1-.1017-1.13284,5.47121,5.47121,0,0,1,.1017-1.13285A6.358,6.358,0,0,1,96.60895,74.65759Z"/>
          <path class="cls-6" d="M103.15384,74.65759a5.78351,5.78351,0,0,1-.10169-1.13284,5.61688,5.61688,0,0,1,.10169-1.13285,5.47052,5.47052,0,0,1,.1017,1.13285A5.63056,5.63056,0,0,1,103.15384,74.65759Z"/>
        </g>
        <path class="cls-6" d="M107.15441,72.1336v.6l-12.80913.40473V72.1336Z"/>
        <path class="cls-8" d="M108.14286,69.32486H95.33373V72.156h12.80913Z"/>
        <g class="cls-5">
          <path class="cls-6" d="M95.86049,69.58519a6.34627,6.34627,0,0,1,0,2.26367A6.34673,6.34673,0,0,1,95.86049,69.58519Z"/>
          <path class="cls-6" d="M96.81437,69.58519a6.34673,6.34673,0,0,1,0,2.26367A6.34627,6.34627,0,0,1,96.81437,69.58519Z"/>
          <path class="cls-6" d="M97.28215,69.58519a6.4803,6.4803,0,0,1,0,2.26367A6.34627,6.34627,0,0,1,97.28215,69.58519Z"/>
          <path class="cls-6" d="M99.83869,69.58519a6.34673,6.34673,0,0,1,0,2.26367A6.34627,6.34627,0,0,1,99.83869,69.58519Z"/>
          <path class="cls-6" d="M100.52613,69.58519a6.34673,6.34673,0,0,1,0,2.26367A6.34627,6.34627,0,0,1,100.52613,69.58519Z"/>
          <path class="cls-6" d="M103.39384,69.58519a6.34627,6.34627,0,0,1,0,2.26367A6.34627,6.34627,0,0,1,103.39384,69.58519Z"/>
          <path class="cls-6" d="M104.05484,69.58519a6.34627,6.34627,0,0,1,0,2.26367A6.34627,6.34627,0,0,1,104.05484,69.58519Z"/>
          <path class="cls-6" d="M105.269,69.58519a6.34627,6.34627,0,0,1,0,2.26367A6.34627,6.34627,0,0,1,105.269,69.58519Z"/>
          <path class="cls-6" d="M102.84064,69.58519a6.34673,6.34673,0,0,1,0,2.26367,5.45179,5.45179,0,0,1-.1017-1.13081A5.60047,5.60047,0,0,1,102.84064,69.58519Z"/>
          <path class="cls-6" d="M98.12619,69.58519a5.60118,5.60118,0,0,1,.10169,1.13286,5.45178,5.45178,0,0,1-.10169,1.13081A6.356,6.356,0,0,1,98.12619,69.58519Z"/>
          <path class="cls-6" d="M101.44135,69.58519a6.34627,6.34627,0,0,1,0,2.26367A6.34673,6.34673,0,0,1,101.44135,69.58519Z"/>
          <path class="cls-6" d="M101.91931,69.58519a6.34673,6.34673,0,0,1,0,2.26367,5.4511,5.4511,0,0,1-.10169-1.13081A5.60046,5.60046,0,0,1,101.91931,69.58519Z"/>
          <path class="cls-6" d="M106.85137,69.58519a6.34627,6.34627,0,0,1,0,2.26367A6.34627,6.34627,0,0,1,106.85137,69.58519Z"/>
          <path class="cls-6" d="M107.56728,69.58519a6.34627,6.34627,0,0,1,0,2.26367A6.34673,6.34673,0,0,1,107.56728,69.58519Z"/>
          <path class="cls-6" d="M105.83242,69.58519a6.34673,6.34673,0,0,1,0,2.26367,5.45179,5.45179,0,0,1-.1017-1.13081A5.60047,5.60047,0,0,1,105.83242,69.58519Z"/>
          <path class="cls-6" d="M99.28548,69.58519a6.34627,6.34627,0,0,1,0,2.26367A6.4803,6.4803,0,0,1,99.28548,69.58519Z"/>
        </g>
        <path class="cls-6" d="M108.14083,69.32486v.602l-12.8071.40474V69.32486Z"/>
        <path class="cls-8" d="M70.05919,71.48887H57.25006V74.32H70.05919Z"/>
        <g class="cls-5">
          <path class="cls-6" d="M57.77886,71.74717a6.35757,6.35757,0,0,1,0,2.2657A6.35757,6.35757,0,0,1,57.77886,71.74717Z"/>
          <path class="cls-6" d="M58.73273,71.74717a6.35757,6.35757,0,0,1,0,2.2657A6.35757,6.35757,0,0,1,58.73273,71.74717Z"/>
          <path class="cls-6" d="M59.19848,71.74717a6.35757,6.35757,0,0,1,0,2.2657A6.35757,6.35757,0,0,1,59.19848,71.74717Z"/>
          <path class="cls-6" d="M61.75705,71.74717a6.49183,6.49183,0,0,1,0,2.2657A6.35757,6.35757,0,0,1,61.75705,71.74717Z"/>
          <path class="cls-6" d="M62.44856,71.74717a6.358,6.358,0,0,1,0,2.2657,5.47133,5.47133,0,0,1-.1017-1.13285A5.63073,5.63073,0,0,1,62.44856,71.74717Z"/>
          <path class="cls-6" d="M65.31017,71.74717a6.35757,6.35757,0,0,1,0,2.2657A5.47132,5.47132,0,0,1,65.20848,72.88,5.63072,5.63072,0,0,1,65.31017,71.74717Z"/>
          <path class="cls-6" d="M65.97117,71.74717A5.78361,5.78361,0,0,1,66.07286,72.88a5.61622,5.61622,0,0,1-.10169,1.13285A5.47132,5.47132,0,0,1,65.86948,72.88,5.78361,5.78361,0,0,1,65.97117,71.74717Z"/>
          <path class="cls-6" d="M67.18537,71.74717A5.78361,5.78361,0,0,1,67.28706,72.88a5.6155,5.6155,0,0,1-.10169,1.13285A5.47132,5.47132,0,0,1,67.08368,72.88,5.63,5.63,0,0,1,67.18537,71.74717Z"/>
          <path class="cls-6" d="M64.757,71.74717a5.78285,5.78285,0,0,1,.1017,1.13285,5.47133,5.47133,0,0,1-.1017,1.13285A5.61622,5.61622,0,0,1,64.65527,72.88,5.78361,5.78361,0,0,1,64.757,71.74717Z"/>
          <path class="cls-6" d="M60.05269,71.74717a6.36308,6.36308,0,0,1,0,2.26163,6.35757,6.35757,0,0,1,0-2.2657Z"/>
          <path class="cls-6" d="M63.35972,71.74717a6.49183,6.49183,0,0,1,0,2.2657A6.35757,6.35757,0,0,1,63.35972,71.74717Z"/>
          <path class="cls-6" d="M63.83563,71.74717a5.78362,5.78362,0,0,1,.1017,1.13285,5.47133,5.47133,0,0,1-.1017,1.13285A5.61622,5.61622,0,0,1,63.73394,72.88,5.78438,5.78438,0,0,1,63.83563,71.74717Z"/>
          <path class="cls-6" d="M68.7677,71.74717A5.78361,5.78361,0,0,1,68.86939,72.88a5.47132,5.47132,0,0,1-.10169,1.13285A5.47132,5.47132,0,0,1,68.666,72.88,5.78361,5.78361,0,0,1,68.7677,71.74717Z"/>
          <path class="cls-6" d="M69.48361,71.74717a6.35757,6.35757,0,0,1,0,2.2657A6.358,6.358,0,0,1,69.48361,71.74717Z"/>
          <path class="cls-6" d="M67.74875,71.74717A5.78438,5.78438,0,0,1,67.85044,72.88a5.472,5.472,0,0,1-.10169,1.13285A5.61551,5.61551,0,0,1,67.647,72.88,5.78362,5.78362,0,0,1,67.74875,71.74717Z"/>
          <path class="cls-6" d="M61.20385,71.74717a6.358,6.358,0,0,1,0,2.2657A6.35757,6.35757,0,0,1,61.20385,71.74717Z"/>
        </g>
        <path class="cls-6" d="M70.05716,71.48887v.602l-12.8071.4027V71.48887Z"/>
        <path class="cls-8" d="M69.1826,68.65776H56.37347v2.83111H69.1826Z"/>
        <g class="cls-5">
          <path class="cls-6" d="M56.90227,68.9242a6.34621,6.34621,0,0,1,0,2.26366,5.45178,5.45178,0,0,1-.10169-1.13081A5.601,5.601,0,0,1,56.90227,68.9242Z"/>
          <path class="cls-6" d="M57.85614,68.9242a6.34621,6.34621,0,0,1,0,2.26366,5.45247,5.45247,0,0,1-.10169-1.13081A5.601,5.601,0,0,1,57.85614,68.9242Z"/>
          <path class="cls-6" d="M58.32189,68.9242a5.75234,5.75234,0,0,1,.1017,1.13285,5.45179,5.45179,0,0,1-.1017,1.13081,5.45247,5.45247,0,0,1-.10169-1.13081A5.75309,5.75309,0,0,1,58.32189,68.9242Z"/>
          <path class="cls-6" d="M60.88046,68.9242a6.35543,6.35543,0,0,1,0,2.26366A6.34667,6.34667,0,0,1,60.88046,68.9242Z"/>
          <path class="cls-6" d="M61.572,68.9242a5.601,5.601,0,0,1,.10169,1.13285,5.45178,5.45178,0,0,1-.10169,1.13081,5.5968,5.5968,0,0,1-.10169-1.13081A5.75309,5.75309,0,0,1,61.572,68.9242Z"/>
          <path class="cls-6" d="M64.43358,68.9242a5.601,5.601,0,0,1,.1017,1.13285,5.45179,5.45179,0,0,1-.1017,1.13081,5.59752,5.59752,0,0,1-.10169-1.13081A5.75309,5.75309,0,0,1,64.43358,68.9242Z"/>
          <path class="cls-6" d="M65.09458,68.9242a6.34621,6.34621,0,0,1,0,2.26366A6.34667,6.34667,0,0,1,65.09458,68.9242Z"/>
          <path class="cls-6" d="M66.30879,68.9242a5.60174,5.60174,0,0,1,.10169,1.13285,5.45247,5.45247,0,0,1-.10169,1.13081A6.34621,6.34621,0,0,1,66.30879,68.9242Z"/>
          <path class="cls-6" d="M63.88038,68.9242a6.3559,6.3559,0,0,1,0,2.26366A6.34621,6.34621,0,0,1,63.88038,68.9242Z"/>
          <path class="cls-6" d="M59.168,68.9242a6.34621,6.34621,0,0,1,0,2.26366A6.34621,6.34621,0,0,1,59.168,68.9242Z"/>
          <path class="cls-6" d="M62.4933,68.9242a6.34621,6.34621,0,0,1,0,2.26366,5.45178,5.45178,0,0,1-.10169-1.13081A5.601,5.601,0,0,1,62.4933,68.9242Z"/>
          <path class="cls-6" d="M62.95905,68.9242a6.34621,6.34621,0,0,1,0,2.26366A6.34621,6.34621,0,0,1,62.95905,68.9242Z"/>
          <path class="cls-6" d="M67.89111,68.9242a6.34621,6.34621,0,0,1,0,2.26366A6.34667,6.34667,0,0,1,67.89111,68.9242Z"/>
          <path class="cls-6" d="M68.607,68.9242a5.75309,5.75309,0,0,1,.10169,1.13285,5.46617,5.46617,0,0,1-.10169,1.13081,5.59753,5.59753,0,0,1-.1017-1.13081A5.75234,5.75234,0,0,1,68.607,68.9242Z"/>
          <path class="cls-6" d="M66.87216,68.9242a6.34621,6.34621,0,0,1,0,2.26366A6.34621,6.34621,0,0,1,66.87216,68.9242Z"/>
          <path class="cls-6" d="M60.32726,68.9242a5.75309,5.75309,0,0,1,.10169,1.13285,5.5968,5.5968,0,0,1-.10169,1.13081,5.45178,5.45178,0,0,1-.10169-1.13081A5.75309,5.75309,0,0,1,60.32726,68.9242Z"/>
        </g>
        <path class="cls-6" d="M69.1826,68.65776v.602l-12.80913.40474V68.65776Z"/>
        <path class="cls-8" d="M71.16153,63.022H58.3524V65.8531H71.16153Z"/>
        <g class="cls-5">
          <path class="cls-6" d="M58.8812,63.28029a6.34621,6.34621,0,0,1,0,2.26366A6.34621,6.34621,0,0,1,58.8812,63.28029Z"/>
          <path class="cls-6" d="M59.83507,63.28029a6.34621,6.34621,0,0,1,0,2.26366A6.34621,6.34621,0,0,1,59.83507,63.28029Z"/>
          <path class="cls-6" d="M60.30082,63.28029a5.76838,5.76838,0,0,1,.10169,1.13285,5.5968,5.5968,0,0,1-.10169,1.13081,5.45178,5.45178,0,0,1-.10169-1.13081A5.76838,5.76838,0,0,1,60.30082,63.28029Z"/>
          <path class="cls-6" d="M62.85939,63.28029a6.34621,6.34621,0,0,1,0,2.26366A6.34621,6.34621,0,0,1,62.85939,63.28029Z"/>
          <path class="cls-6" d="M63.5509,63.28029a5.76838,5.76838,0,0,1,.10169,1.13285A5.45178,5.45178,0,0,1,63.5509,65.544a5.5968,5.5968,0,0,1-.10169-1.13081A5.76762,5.76762,0,0,1,63.5509,63.28029Z"/>
          <path class="cls-6" d="M66.41251,63.28029a5.6155,5.6155,0,0,1,.10169,1.13285,5.4511,5.4511,0,0,1-.10169,1.13081,5.59752,5.59752,0,0,1-.10169-1.13081A5.76838,5.76838,0,0,1,66.41251,63.28029Z"/>
          <path class="cls-6" d="M67.07351,63.28029a5.6155,5.6155,0,0,1,.10169,1.13285,5.45178,5.45178,0,0,1-.10169,1.13081A6.34621,6.34621,0,0,1,67.07351,63.28029Z"/>
          <path class="cls-6" d="M68.28771,63.28029a5.61478,5.61478,0,0,1,.10169,1.13285,5.4511,5.4511,0,0,1-.10169,1.13081,5.59752,5.59752,0,0,1-.10169-1.13081A5.76838,5.76838,0,0,1,68.28771,63.28029Z"/>
          <path class="cls-6" d="M65.85931,63.28029a6.34667,6.34667,0,0,1,0,2.26366A6.34621,6.34621,0,0,1,65.85931,63.28029Z"/>
          <path class="cls-6" d="M61.1469,63.28029a6.34621,6.34621,0,0,1,0,2.26366A6.34621,6.34621,0,0,1,61.1469,63.28029Z"/>
          <path class="cls-6" d="M64.46206,63.28029a6.34621,6.34621,0,0,1,0,2.26366A6.34621,6.34621,0,0,1,64.46206,63.28029Z"/>
          <path class="cls-6" d="M64.93391,63.28029a6.34621,6.34621,0,0,1,0,2.26366A6.34621,6.34621,0,0,1,64.93391,63.28029Z"/>
          <path class="cls-6" d="M69.87,63.28029a6.34621,6.34621,0,0,1,0,2.26366A6.34621,6.34621,0,0,1,69.87,63.28029Z"/>
          <path class="cls-6" d="M70.586,63.28029a5.76762,5.76762,0,0,1,.10169,1.13285A5.4511,5.4511,0,0,1,70.586,65.544a5.45178,5.45178,0,0,1-.10169-1.13081A5.76838,5.76838,0,0,1,70.586,63.28029Z"/>
          <path class="cls-6" d="M68.85109,63.28029a6.34621,6.34621,0,0,1,0,2.26366A6.34621,6.34621,0,0,1,68.85109,63.28029Z"/>
          <path class="cls-6" d="M62.30619,63.28029a5.76838,5.76838,0,0,1,.10169,1.13285,5.59752,5.59752,0,0,1-.10169,1.13081,5.4511,5.4511,0,0,1-.10169-1.13081A5.61478,5.61478,0,0,1,62.30619,63.28029Z"/>
        </g>
        <path class="cls-6" d="M71.16153,63.022v.6l-12.80913.40473V63.022Z"/>
        <path class="cls-8" d="M70.83815,60.19089H58.029V63.022H70.83815Z"/>
        <g class="cls-5">
          <path class="cls-6" d="M70.26257,62.71488a5.76821,5.76821,0,0,1-.10169-1.13284,5.4858,5.4858,0,0,1,.10169-1.13286,5.48511,5.48511,0,0,1,.10169,1.13286A5.76745,5.76745,0,0,1,70.26257,62.71488Z"/>
          <path class="cls-6" d="M69.3087,62.71488A5.76821,5.76821,0,0,1,69.207,61.582a5.4858,5.4858,0,0,1,.10169-1.13286,5.48442,5.48442,0,0,1,.10169,1.13286A5.76745,5.76745,0,0,1,69.3087,62.71488Z"/>
          <path class="cls-6" d="M68.843,62.71488a5.61613,5.61613,0,0,1-.10169-1.13284,5.4858,5.4858,0,0,1,.10169-1.13286A6.35757,6.35757,0,0,1,68.843,62.71488Z"/>
          <path class="cls-6" d="M66.28438,62.71488a5.76745,5.76745,0,0,1-.10169-1.13284,5.63,5.63,0,0,1,.10169-1.13286,5.4858,5.4858,0,0,1,.10169,1.13286A5.76821,5.76821,0,0,1,66.28438,62.71488Z"/>
          <path class="cls-6" d="M65.59287,62.71488a6.358,6.358,0,0,1,0-2.2657A6.35757,6.35757,0,0,1,65.59287,62.71488Z"/>
          <path class="cls-6" d="M62.73126,62.71488a6.35757,6.35757,0,0,1,0-2.2657A6.35757,6.35757,0,0,1,62.73126,62.71488Z"/>
          <path class="cls-6" d="M62.07026,62.71488a6.35757,6.35757,0,0,1,0-2.2657A6.35757,6.35757,0,0,1,62.07026,62.71488Z"/>
          <path class="cls-6" d="M60.86623,62.71488a6.35757,6.35757,0,0,1,0-2.2657A6.358,6.358,0,0,1,60.86623,62.71488Z"/>
          <path class="cls-6" d="M63.28447,62.71488a6.35757,6.35757,0,0,1,0-2.2657A6.49183,6.49183,0,0,1,63.28447,62.71488Z"/>
          <path class="cls-6" d="M67.99687,62.71488a5.769,5.769,0,0,1-.10169-1.13284,5.63148,5.63148,0,0,1,.10169-1.13286,5.48511,5.48511,0,0,1,.1017,1.13286A5.61613,5.61613,0,0,1,67.99687,62.71488Z"/>
          <path class="cls-6" d="M64.68171,62.71488A5.76821,5.76821,0,0,1,64.58,61.582a5.63075,5.63075,0,0,1,.10169-1.13286,5.48511,5.48511,0,0,1,.1017,1.13286A5.76822,5.76822,0,0,1,64.68171,62.71488Z"/>
          <path class="cls-6" d="M64.2058,62.71488a6.35757,6.35757,0,0,1,0-2.2657A6.49232,6.49232,0,0,1,64.2058,62.71488Z"/>
          <path class="cls-6" d="M59.27373,62.71488a6.35757,6.35757,0,0,1,0-2.2657A6.35757,6.35757,0,0,1,59.27373,62.71488Z"/>
          <path class="cls-6" d="M58.55782,62.71488a6.35757,6.35757,0,0,1,0-2.2657A6.35757,6.35757,0,0,1,58.55782,62.71488Z"/>
          <path class="cls-6" d="M60.29268,62.71488a6.358,6.358,0,0,1,0-2.2657A6.49183,6.49183,0,0,1,60.29268,62.71488Z"/>
          <path class="cls-6" d="M66.83759,62.71488a5.61541,5.61541,0,0,1-.1017-1.13284,5.48511,5.48511,0,0,1,.1017-1.13286A6.358,6.358,0,0,1,66.83759,62.71488Z"/>
        </g>
        <path class="cls-6" d="M70.83815,60.19089v.602L58.029,61.1956V60.19089Z"/>
        <path class="cls-8" d="M70.05919,57.35978H57.25006v2.83111H70.05919Z"/>
        <g class="cls-5">
          <path class="cls-6" d="M57.77886,57.62011a6.34627,6.34627,0,0,1,0,2.26367A6.34627,6.34627,0,0,1,57.77886,57.62011Z"/>
          <path class="cls-6" d="M58.73273,57.62011a6.34627,6.34627,0,0,1,0,2.26367A6.34627,6.34627,0,0,1,58.73273,57.62011Z"/>
          <path class="cls-6" d="M59.19848,57.62011a5.753,5.753,0,0,1,.10169,1.13285,5.5969,5.5969,0,0,1-.10169,1.13082,5.45119,5.45119,0,0,1-.10169-1.13082A5.601,5.601,0,0,1,59.19848,57.62011Z"/>
          <path class="cls-6" d="M61.75705,57.62011a6.34627,6.34627,0,0,1,0,2.26367A6.34627,6.34627,0,0,1,61.75705,57.62011Z"/>
          <path class="cls-6" d="M62.44856,57.62011a5.753,5.753,0,0,1,.10169,1.13285,5.59762,5.59762,0,0,1-.10169,1.13082,5.45189,5.45189,0,0,1-.1017-1.13082A5.75228,5.75228,0,0,1,62.44856,57.62011Z"/>
          <path class="cls-6" d="M65.31017,57.62011a5.753,5.753,0,0,1,.10169,1.13285,5.5969,5.5969,0,0,1-.10169,1.13082,5.45188,5.45188,0,0,1-.10169-1.13082A5.753,5.753,0,0,1,65.31017,57.62011Z"/>
          <path class="cls-6" d="M65.97117,57.62011a5.601,5.601,0,0,1,.10169,1.13285,5.45188,5.45188,0,0,1-.10169,1.13082,5.5969,5.5969,0,0,1-.10169-1.13082A5.75227,5.75227,0,0,1,65.97117,57.62011Z"/>
          <path class="cls-6" d="M67.18537,57.62011a5.75227,5.75227,0,0,1,.10169,1.13285,5.45119,5.45119,0,0,1-.10169,1.13082,5.5969,5.5969,0,0,1-.10169-1.13082A5.753,5.753,0,0,1,67.18537,57.62011Z"/>
          <path class="cls-6" d="M64.757,57.62011a5.60031,5.60031,0,0,1,.1017,1.13285,5.45189,5.45189,0,0,1-.1017,1.13082A6.34673,6.34673,0,0,1,64.757,57.62011Z"/>
          <path class="cls-6" d="M60.05269,57.62011a6.34627,6.34627,0,0,1,0,2.26367A6.34627,6.34627,0,0,1,60.05269,57.62011Z"/>
          <path class="cls-6" d="M63.35972,57.62011a6.34627,6.34627,0,0,1,0,2.26367A6.34627,6.34627,0,0,1,63.35972,57.62011Z"/>
          <path class="cls-6" d="M63.83563,57.62011a5.60031,5.60031,0,0,1,.1017,1.13285,5.45189,5.45189,0,0,1-.1017,1.13082A6.34673,6.34673,0,0,1,63.83563,57.62011Z"/>
          <path class="cls-6" d="M68.7677,57.62011a5.601,5.601,0,0,1,.10169,1.13285,5.45188,5.45188,0,0,1-.10169,1.13082A5.5969,5.5969,0,0,1,68.666,58.753,5.753,5.753,0,0,1,68.7677,57.62011Z"/>
          <path class="cls-6" d="M69.48361,57.62011A5.75151,5.75151,0,0,1,69.5853,58.753a5.5969,5.5969,0,0,1-.10169,1.13082,5.45188,5.45188,0,0,1-.10169-1.13082A5.601,5.601,0,0,1,69.48361,57.62011Z"/>
          <path class="cls-6" d="M67.74875,57.62011a5.60174,5.60174,0,0,1,.10169,1.13285,5.45256,5.45256,0,0,1-.10169,1.13082A6.34627,6.34627,0,0,1,67.74875,57.62011Z"/>
          <path class="cls-6" d="M61.20385,57.62011a6.34673,6.34673,0,0,1,0,2.26367,5.45119,5.45119,0,0,1-.10169-1.13082A5.6003,5.6003,0,0,1,61.20385,57.62011Z"/>
        </g>
        <path class="cls-6" d="M70.05919,57.35978v.602l-12.80913.40473V57.35978Z"/>
        <path class="cls-8" d="M70.05919,65.85107H57.25006v2.8311H70.05919Z"/>
        <g class="cls-5">
          <path class="cls-6" d="M69.48361,68.37506a5.601,5.601,0,0,1-.10169-1.13285,5.45178,5.45178,0,0,1,.10169-1.13081A6.34621,6.34621,0,0,1,69.48361,68.37506Z"/>
          <path class="cls-6" d="M68.52974,68.37506a5.601,5.601,0,0,1-.10169-1.13285,5.45178,5.45178,0,0,1,.10169-1.13081A6.34621,6.34621,0,0,1,68.52974,68.37506Z"/>
          <path class="cls-6" d="M68.064,68.37506a6.34621,6.34621,0,0,1,0-2.26366A6.34621,6.34621,0,0,1,68.064,68.37506Z"/>
          <path class="cls-6" d="M65.50542,68.37506a5.601,5.601,0,0,1-.10169-1.13285,5.4511,5.4511,0,0,1,.10169-1.13081,5.5968,5.5968,0,0,1,.10169,1.13081A5.753,5.753,0,0,1,65.50542,68.37506Z"/>
          <path class="cls-6" d="M64.81391,68.37506a6.34667,6.34667,0,0,1,0-2.26366A6.34621,6.34621,0,0,1,64.81391,68.37506Z"/>
          <path class="cls-6" d="M61.9523,68.37506a6.34621,6.34621,0,0,1,0-2.26366A6.48024,6.48024,0,0,1,61.9523,68.37506Z"/>
          <path class="cls-6" d="M61.28927,68.37506a6.34621,6.34621,0,0,1,0-2.26366A6.34667,6.34667,0,0,1,61.28927,68.37506Z"/>
          <path class="cls-6" d="M60.07506,68.37506a6.48072,6.48072,0,0,1,0-2.26366A6.34621,6.34621,0,0,1,60.07506,68.37506Z"/>
          <path class="cls-6" d="M62.50347,68.37506a6.34621,6.34621,0,0,1,0-2.26366A6.34621,6.34621,0,0,1,62.50347,68.37506Z"/>
          <path class="cls-6" d="M67.21791,68.37506a5.601,5.601,0,0,1-.10169-1.13285,5.46617,5.46617,0,0,1,.10169-1.13081,5.5968,5.5968,0,0,1,.10169,1.13081A5.75151,5.75151,0,0,1,67.21791,68.37506Z"/>
          <path class="cls-6" d="M63.90275,68.37506a5.601,5.601,0,0,1-.10169-1.13285,5.45178,5.45178,0,0,1,.10169-1.13081,5.59608,5.59608,0,0,1,.10169,1.13081A5.75151,5.75151,0,0,1,63.90275,68.37506Z"/>
          <path class="cls-6" d="M63.4248,68.37506a6.34621,6.34621,0,0,1,0-2.26366A6.34621,6.34621,0,0,1,63.4248,68.37506Z"/>
          <path class="cls-6" d="M58.49274,68.37506a6.34621,6.34621,0,0,1,0-2.26366A6.34667,6.34667,0,0,1,58.49274,68.37506Z"/>
          <path class="cls-6" d="M57.77886,68.37506a6.34621,6.34621,0,0,1,0-2.26366A6.34621,6.34621,0,0,1,57.77886,68.37506Z"/>
          <path class="cls-6" d="M59.51169,68.37506a6.34621,6.34621,0,0,1,0-2.26366A6.34621,6.34621,0,0,1,59.51169,68.37506Z"/>
          <path class="cls-6" d="M66.05862,68.37506a6.34667,6.34667,0,0,1,0-2.26366A6.34621,6.34621,0,0,1,66.05862,68.37506Z"/>
        </g>
        <path class="cls-6" d="M70.05919,65.85107v.602l-12.80913.40474V65.85107Z"/>
        <path class="cls-8" d="M56.37551,63.43283c8.43027,1.51317,6.20525,14.003-2.23723,12.48778S47.929,61.91152,56.37551,63.43283Z"/>
        <path class="cls-6" d="M56.37551,63.43283c8.43027,1.51317,6.20525,14.003-2.23723,12.48778S47.929,61.91152,56.37551,63.43283Z"/>
        <path class="cls-8" d="M55.57824,63.28436c8.03571,1.442,5.80662,13.93181-2.23722,12.48778S47.5344,61.84033,55.57824,63.28436Z"/>
        <path class="cls-6" d="M49.36689,69.82112a4.83413,4.83413,0,0,0,4.17751,4.88936c6.67913,1.19793,8.52789-9.16856,1.85893-10.37259-.04271,0-.08745-.01627-.13017-.02034,6.252,1.25081,4.46022,11.06206-1.90774,9.919A4.6234,4.6234,0,0,1,49.36689,69.82112Z"/>
        <g class="cls-5">
          <path class="cls-6" d="M55.15724,65.64158a.20323.20323,0,0,1,.15457.25627l-.08542.34372a2.87974,2.87974,0,0,1,1.36877.9803.2429.2429,0,0,1,.06915.22576.22588.22588,0,0,1-.2766.15864.20388.20388,0,0,1-.1383-.09763A2.51434,2.51434,0,0,0,55.10232,66.63L54.50437,69.03c1.23454.61015,1.66165,1.2203,1.45013,2.06435a1.74527,1.74527,0,0,1-2.23724,1.12878l-.16678.6671a.20931.20931,0,0,1-.25423.15253.2096.2096,0,0,1-.15254-.25423l.16881-.67726a3.31443,3.31443,0,0,1-1.72063-1.31183.22365.22365,0,1,1,.358-.26643,2.85794,2.85794,0,0,0,1.47657,1.19793l.61017-2.44061c-1.22032-.61015-1.62709-1.2081-1.42371-2.06435a1.72025,1.72025,0,0,1,2.1864-1.10234l.08136-.32542a.20328.20328,0,0,1,.2766-.1566ZM54.15455,68.851l.58372-2.341a1.287,1.287,0,0,0-1.66167.78709C52.93423,67.88084,53.11727,68.314,54.15455,68.851Zm.2461.61015-.58984,2.36536a1.29912,1.29912,0,0,0,1.70438-.81354c.15051-.58371-.059-1.019-1.11251-1.54572Z"/>
        </g>
        <path class="cls-9" d="M95.155,62.97115c-1.46234-.03051-1.04133-.04271-2.50366-.057-.71592,0-5.42019-.04678-6.08932.063-.01424,0-.01424.02847,0,.0305.66913.10983,5.3734.06915,6.08932.063,1.46233-.01423,1.04132-.02643,2.50366-.05694a.02136.02136,0,0,0,0-.04271Z"/>
        <path class="cls-9" d="M86.47859,42.2158C83.80612,38.09117,75.807,26.38032,75.807,26.38032h5.35306Z"/>
        <path class="cls-10" d="M64.76286,78.06855c.40006.14257,9.46082-.35083,9.88691-.67544a8.64256,8.64256,0,0,0,.91523-4.147l1.62707-.02237-7.33647.10088v.14257s-4.30117,2.32936-4.73254,2.741S64.36281,77.928,64.76286,78.06855Z"/>
        <path class="cls-9" d="M64.90971,77.61276c2.23722-.10779,11.28171-.32744,13.5047-.26236.01831,0,.01831.01221,0,.01424-2.21689.15457-11.26138.301-13.5047.28474C64.86293,77.64938,64.86293,77.6148,64.90971,77.61276Z"/>
        <path class="cls-9" d="M69.77262,73.30306a3.11326,3.11326,0,0,1,2.644.53693c.02644.02441,0,.06305-.03661.05288a12.4383,12.4383,0,0,0-2.60535-.478.05631.05631,0,0,1-.03355-.01912.057.057,0,0,1-.01383-.036.05668.05668,0,0,1,.04535-.05674Z"/>
        <path class="cls-9" d="M69.14416,73.70169a3.11191,3.11191,0,0,1,2.644.53693c.02644.02441,0,.061-.03661.05289a12.27776,12.27776,0,0,0-2.60535-.478.05626.05626,0,0,1-.03356-.01912.057.057,0,0,1-.01383-.036.05671.05671,0,0,1,.04535-.05675Z"/>
        <path class="cls-9" d="M68.51774,74.10032a3.11467,3.11467,0,0,1,2.644.53694c.02644.02441,0,.061-.03661.05288a12.43862,12.43862,0,0,0-2.60535-.48.05451.05451,0,0,1-.039-.01546.05375.05375,0,0,1-.01687-.03844.05446.05446,0,0,1,.01545-.039A.0538.0538,0,0,1,68.51774,74.10032Z"/>
        <path class="cls-11" d="M86.023,26.38032s-1.22031,7.46216-1.30776,7.70215c0,0-.45558.21559-1.27725.59388l-7.86283,38.7345h-5.3368l5.3368-47.03053Z"/>
        <path class="cls-11" d="M78.41238,29.90293s1.16356,7.45443,1.24694,7.69422c0,0,.43443.21539,1.21787.59327l7.49714,38.69423H93.4628L88.37433,29.90293Z"/>
        <path class="cls-9" d="M76.08363,29.73351c-.37219,5.3307-.75659,10.66139-1.19183,15.988s-.95591,10.68377-1.60063,16.00836c-.36,2.97348-.75253,7.16319-1.1837,10.1265,0,.02034.02847.02847.03051,0,.89285-5.26765,1.52131-11.79628,2.06028-17.11681s.9681-10.641,1.3464-15.96972q.30507-4.52123.61015-9.04449C76.15278,29.68877,76.08566,29.6908,76.08363,29.73351Z"/>
        <path class="cls-9" d="M87.42921,30.14028c.35531,5.32114.72241,10.64248,1.13793,15.95955.41551,5.31727.91279,10.66485,1.52823,15.98009.34372,2.96819.71856,7.15037,1.1302,10.10859,0,.02014-.02725.02828-.02908,0C90.34391,66.93,89.74392,60.413,89.22936,55.102c-.51456-5.31117-.92438-10.62234-1.28559-15.94144q-.291-4.51331-.58249-9.02843C87.36331,30.09553,87.42738,30.09757,87.42921,30.14028Z"/>
        <path class="cls-9" d="M85.12405,33.85061a17.61889,17.61889,0,0,0-2.73755,1.43386l-.00935.00753-.0059.01057a.02984.02984,0,0,0-.00122.012l.00325.01159.00753.00936.01057.0059a.02984.02984,0,0,0,.012.00122l.01159-.00326c.92337-.44744,1.86707-.88065,2.764-1.37894a.06105.06105,0,0,0,.03071-.03559.06042.06042,0,0,0-.00326-.04678.0615.0615,0,0,0-.08237-.02746Z"/>
        <path class="cls-9" d="M84.76,29.57548c-.1505.89286-.23389,1.8-.33354,2.69891-.02441.21558-.05085.4332-.07322.64879a1.2561,1.2561,0,0,1-.15661.56744,1.79228,1.79228,0,0,1-.85625.57965c-.03661.01627-.02237.07322.01831.061a2.08236,2.08236,0,0,0,.91116-.482,1.90941,1.90941,0,0,0,.32135-1.15318,24.58246,24.58246,0,0,0,.20338-2.91653C84.80067,29.55718,84.76406,29.55108,84.76,29.57548Z"/>
        <path class="cls-9" d="M83.676,29.85005c-.03254.64269-.10373,1.28539-.15864,1.92808-.02644.31525-.04882.63456-.06712.95184s-.057.65286-.04678.97421l.00732.01017.012.00386.012-.00386.00732-.01017c.05289-.30508.061-.62236.08542-.9315s.04882-.65083.06712-.97625c.03661-.64879.05288-1.30369.11186-1.95248A.01565.01565,0,0,0,83.676,29.85005Z"/>
        <path class="cls-9" d="M89.19173,30.389l-3.92327.49829-5.89814.74845-4.47445.56744.661-5.82288H86.0047S87.39788,28.03993,89.19173,30.389Z"/>
        <path class="cls-12" d="M84.282,16.11552c1.79792,3.69752,5.5951,7.57606,7.75911,7.57606,2.03384,0,7.14691-4.00667,9.53871-6.36186.54507-.53693-3.10771-1.83655-3.64261-1.2142-1.24878,1.4542-4.96054,3.51651-5.8961,3.51651-.83388,0-3.98633-3.74226-6.28254-5.61747C82.97632,11.7387,83.56613,14.64912,84.282,16.11552Z"/>
        <path class="cls-9" d="M103.02185,8.751a5.21779,5.21779,0,0,1-1.922,2.95517c-.02034.02034,0,.057.02644.03865A3.85092,3.85092,0,0,0,103.093,8.76522C103.09914,8.68183,103.04015,8.67166,103.02185,8.751Z"/>
        <path class="cls-9" d="M104.44554,9.46893a7.92113,7.92113,0,0,1-2.07452,3.15652c-.01627.01424,0,.04271.02644.02848a5.30423,5.30423,0,0,0,2.11723-3.14636C104.52893,9.43842,104.46791,9.40181,104.44554,9.46893Z"/>
        <path class="cls-9" d="M105.76347,10.58144a7.00067,7.00067,0,0,1-2.27994,2.98771.02865.02865,0,0,0-.00671.01729.02836.02836,0,0,0,.00549.0179.02724.02724,0,0,0,.01525.01057.02753.02753,0,0,0,.01851-.001,4.98558,4.98558,0,0,0,2.28807-3.008C105.83058,10.50822,105.80414,10.48788,105.76347,10.58144Z"/>
        <path class="cls-4" d="M114.53787,3.61908l-15.013.152.10963,10.82966,15.013-.15193Z"/>
        <path class="cls-13" d="M103.37533,5.95925l-1.0942.01109.06081,5.9996,1.0942-.01118Z"/>
        <path class="cls-13" d="M105.23263,11.936l-1.0942.0122-.03865-4.34632L105.192,7.5917Z"/>
        <path class="cls-13" d="M106.9913,8.57479l-1.09421.01109.034,3.34746,1.09421-.011Z"/>
        <path class="cls-13" d="M108.79165,9.22164l-1.0942.01108.02725,2.68251,1.0942-.01118Z"/>
        <path class="cls-13" d="M110.56842,7.54l-1.09421.01109.04393,4.34607,1.09421-.011Z"/>
        <path class="cls-13" d="M112.35718,6.68442l-1.094.01127.05308,5.17378,1.0942-.01118Z"/>
        <path class="cls-14" d="M101.53715,5.30566c.03864,1.11047.07321,2.221.09559,3.33346s.05085,2.223.06305,3.33347l-.09153-.09152,2.886-.03661,2.884-.01831h2.88805c.964,0,1.924.0122,2.886.02848q-1.44393.05094-2.886.08542c-.962.02033-1.924.04881-2.886.061l-2.884.04068-2.89416.02441h-.09355v-.09153c-.01018-1.11251,0-2.223,0-3.3355S101.51884,6.41613,101.53715,5.30566Z"/>
        <path class="cls-14" d="M101.19139,6.51376a2.64393,2.64393,0,0,1,.358-.02847,2.32531,2.32531,0,0,1,.35592.02237,2.51824,2.51824,0,0,1-.71388,0Z"/>
        <path class="cls-14" d="M101.19139,7.13611a2.36167,2.36167,0,0,1,.358-.02847,2.32658,2.32658,0,0,1,.35592.02237,2.51751,2.51751,0,0,1-.71388,0Z"/>
        <path class="cls-14" d="M101.2036,7.75033a2.53251,2.53251,0,0,1,.71591,0A2.53177,2.53177,0,0,1,101.2036,7.75033Z"/>
        <path class="cls-14" d="M101.2097,8.36455a2.53251,2.53251,0,0,1,.71591,0A2.53177,2.53177,0,0,1,101.2097,8.36455Z"/>
        <path class="cls-14" d="M101.2158,8.97878a2.53177,2.53177,0,0,1,.71591,0A2.53251,2.53251,0,0,1,101.2158,8.97878Z"/>
        <path class="cls-14" d="M101.22394,9.593a2.31369,2.31369,0,0,1,.35592-.02847,2.35165,2.35165,0,0,1,.358.02237,2.3605,2.3605,0,0,1-.358.02848A2.32658,2.32658,0,0,1,101.22394,9.593Z"/>
        <path class="cls-14" d="M101.23,10.20722a2.51311,2.51311,0,0,1,.71388,0,2.37212,2.37212,0,0,1-.358.02847A2.34537,2.34537,0,0,1,101.23,10.20722Z"/>
        <path class="cls-14" d="M101.23614,10.82143a2.51384,2.51384,0,0,1,.71388,0,2.37084,2.37084,0,0,1-.358.02848A2.3441,2.3441,0,0,1,101.23614,10.82143Z"/>
        <path class="cls-14" d="M101.24224,11.43565a2.51384,2.51384,0,0,1,.71388,0,2.63733,2.63733,0,0,1-.35592.02848A2.31869,2.31869,0,0,1,101.24224,11.43565Z"/>
        <path class="cls-14" d="M101.56562,13.18882v-.70167h.70168v.70371Zm.09559-.61015V13.079h.49829v-.49829Z"/>
        <path class="cls-14" d="M102.77372,12.52579c.59592-.02644,1.19184-.04474,1.78978-.059l1.78775-.02847H108.139c.59795,0,1.19387,0,1.78978.02237-.59591.02441-1.19183.04474-1.78774.05695l-1.78978.0305H104.5635Q103.66872,12.5442,102.77372,12.52579Z"/>
        <path class="cls-14" d="M102.77779,12.81867c.6732-.04882,1.3464-.05695,2.01961-.07119s1.34843,0,2.02163.03051c-.6732.04881-1.3464.059-2.0196.07118S103.451,12.86138,102.77779,12.81867Z"/>
        <path class="cls-14" d="M102.77982,13.12578c.82574-.04882,1.65352-.061,2.47926-.07526s1.65147,0,2.47925.02441c-.82574.05085-1.65148.06305-2.47925.07729S103.6076,13.16035,102.77982,13.12578Z"/>
        <path class="cls-9" d="M101.586,6.20868a2.78774,2.78774,0,0,1,.80133-.18711,1.69427,1.69427,0,0,1,.82574.10576,2.37448,2.37448,0,0,1,.661.51253c.19322.20338.37016.40677.541.62642.34575.42507.6671.86845,1.03726,1.261a3.03488,3.03488,0,0,0,1.29149.89286,1.64353,1.64353,0,0,0,.76269.04678,2.5658,2.5658,0,0,0,.73828-.27864,9.05938,9.05938,0,0,0,1.3159-.9437c.423-.34576.83184-.71185,1.26912-1.0454a5.16758,5.16758,0,0,1,.68947-.45354,2.33358,2.33358,0,0,1,.37829-.16881,1.378,1.378,0,0,1,.40677-.061,1.66385,1.66385,0,0,0-.75862.27661,5.2271,5.2271,0,0,0-.6549.484c-.419.34779-.81354.72405-1.2203,1.08607a7.89481,7.89481,0,0,1-1.33014.98845,2.7119,2.7119,0,0,1-.78913.30711,1.857,1.857,0,0,1-.85828-.04271,3.21786,3.21786,0,0,1-1.36877-.962,16.0594,16.0594,0,0,1-1.01692-1.29149c-.16474-.21762-.33152-.43321-.51253-.63456a2.29605,2.29605,0,0,0-.61015-.51049,1.62688,1.62688,0,0,0-.77693-.14034A3.11405,3.11405,0,0,0,101.586,6.20868Z"/>
        <path class="cls-12" d="M97.93725,16.13769A16.5694,16.5694,0,0,1,99.725,14.14656c.65286-.5227,3.80735-1.57826,4.06768-.90913.34372.86235-1.35658,1.83046-2.25147,2.19452,0,0,.79727,1.99316-.27253,2.9511S97.93725,16.13769,97.93725,16.13769Z"/>
        <path class="cls-9" d="M103.95945,13.60373c-.25423,1.01692-1.4603,1.42369-2.30028,1.83046a.08342.08342,0,0,0-.03253.025.08658.08658,0,0,0-.01709.03722.08438.08438,0,0,0,.00224.04088.08527.08527,0,0,0,.02095.03519,3.46217,3.46217,0,0,1-.15457,2.90839l-.00427.00691-.00143.00814.002.00773.00468.00671.00692.00427.00793.00142.00793-.002.00671-.00468a2.8263,2.8263,0,0,0,.32745-2.93076c.86845-.40677,2.06028-.87252,2.1335-1.9769Z"/>
        <path class="cls-13" d="M85.301,13.60983c1.503,1.00472,5.83713,6.27847,6.83981,6.0222a53.35582,53.35582,0,0,0,5.69476-3.15245l2.93686,2.19451s-5.74966,5.467-8.92856,5.26562-6.47575-5.08461-7.52521-7.1876S82.79734,11.94005,85.301,13.60983Z"/>
        <path class="cls-9" d="M99.29992,19.21509a6.22,6.22,0,0,0-.52066-.539c-.17288-.179-.35389-.35186-.5349-.5227-.34982-.33151-.70371-.659-1.0576-.98235l-1.0698-.97014c-.36813-.33355-.72811-.6915-1.12268-.99455a.01622.01622,0,0,0-.012-.00427.01668.01668,0,0,0-.01139.00529.01625.01625,0,0,0-.00427.012.0166.0166,0,0,0,.00529.01139c.32948.37016.71185.70371,1.07183,1.04743l1.0637,1.01692q.53084.50643,1.07387,1.00472c.179.1627.358.32134.541.47795a6.78723,6.78723,0,0,0,.5593.46575C99.29789,19.25374,99.31213,19.22933,99.29992,19.21509Z"/>
        <path class="cls-9" d="M91.429,23.88479c-3.05076-.5715-6.10152-5.12121-7.11845-7.13064-.67523-1.34437-1.10234-2.93483-.66913-3.4738C84.87592,14.95623,89.19173,20.84217,91.429,23.88479Z"/>
        <path class="cls-13" d="M88.728,29.73819c-.20339.22982-13.92368.25016-13.99283.16677-.18914-.22779,3.06093-14.25722,6.10152-16.69783.65287-.52473,3.15856-.44541,3.50025-.31118.39049.14847,1.49283,2.0135,1.99519,3.53278A90.21154,90.21154,0,0,1,88.728,29.73819Z"/>
        <path class="cls-9" d="M84.49356,16.77855l.19932-.87862-.80947-.88268L83.257,16.12569l.4393.75659-.38236,8.97737,1.682,2.96941.87455-3.3416Z"/>
        <path class="cls-9" d="M81.8516,12.87561,75.63618,25.71322c1.14912-4.40734,3.21754-10.91563,5.19443-12.50609A2.27148,2.27148,0,0,1,81.8516,12.87561Z"/>
        <path class="cls-12" d="M74.97437,31.83487c.303-.34738-.28128-.5052-.28128-.5052s.899.0244,1.0698-.45518-.5471-.62845-.59856-.64127c.0476,0,.87211,0,.99679-.49747.12447-.49768-.61524-.563-.66283-.56561.045-.01282.64229-.19749.64229-.59877.014-.68987-1.72612-.3065-2.20265-.599,0,0-.05776-.89-.05146-.91686a1.01021,1.01021,0,0,1-.3789.54507c-.34413.20379-.66263.35389-.77063.57192a.50365.50365,0,0,0,.10027.5949.75656.75656,0,0,0-.59591.46168c-.05654.20013.21436.46819.21436.46819a.60528.60528,0,0,0-.46229.42568.59514.59514,0,0,0,.21966.51294s-.33782.241-.30691.55015C71.97161,31.80294,74.32435,32.58007,74.97437,31.83487Z"/>
        <path class="cls-13" d="M72.61593,31.22493l1.83046-3.25415a36.49282,36.49282,0,0,1-1.83046-4.33615c.063-.37016,7.37674-5.97746,8.31841-7.936s1.16132-3.15856-1.04946-2.1213-11.46476,8.174-11.99966,10.05734S70.89123,28.66635,72.61593,31.22493Z"/>
        <path class="cls-9" d="M70.91767,29.61616c.17288-.179.31118-.39253.46575-.58575s.303-.40677.44948-.61015c.28067-.3905.55727-.78506.83184-1.17963s.54914-.79116.81354-1.18776.58981-.81354.83794-1.24268l.00529-.00651.00183-.00834-.002-.00813-.00549-.00651-.00793-.003-.00834.00061-.00732.00447-.00447.00712c-.32338.37627-.61015.7993-.89489,1.2s-.57965.79116-.86642,1.18776-.57354.79727-.85421,1.19794c-.1383.20338-.27254.40676-.40677.61015s-.27864.40677-.38846.61015C70.88717,29.62023,70.90547,29.62836,70.91767,29.61616Z"/>
        <path class="cls-12" d="M84.06035,14.72438c-.72.25829-2.11723-.72812-2.72331-1.5864-.04068-.059-.01831-.73218-.03254-1.55182-.01017-.49626-.03254-1.04946-.08949-1.55182-.0122-.10373.362.04474.362.04474l.66914.08339,2.21281.27864a8.03234,8.03234,0,0,0-.08542,1.96672,1.053,1.053,0,0,0,.04475.20338v.03255C84.53424,13.03222,84.75593,14.47421,84.06035,14.72438Z"/>
        <path class="cls-9" d="M84.41831,12.61528v.03254a1.815,1.815,0,0,1-.32338.05492c-2.12943.20338-2.70094-2.47926-2.70094-2.47926l.844-.059,2.21282.27864a8.03236,8.03236,0,0,0-.08542,1.96672A1.03709,1.03709,0,0,0,84.41831,12.61528Z"/>
        <path class="cls-12" d="M80.48689,6.15174c-.29694,1.13895.43525,4.36462,1.26709,5.05409a2.59387,2.59387,0,0,0,3.94158-.40677C86.5091,9.41,85.4759,5.22431,84.55254,4.604A2.80247,2.80247,0,0,0,80.48689,6.15174Z"/>
        <path class="cls-9" d="M83.25495,8.07982s-.01627.01423-.0122.02237c.05491.21559.08135.47185-.09966.58778v.0122C83.38105,8.61472,83.34037,8.27507,83.25495,8.07982Z"/>
        <path class="cls-9" d="M83.00886,7.89474c-.35389.05084-.22576.75862.10372.71184S83.30783,7.852,83.00886,7.89474Z"/>
        <path class="cls-9" d="M84.579,7.79915s.01831,0,.02034.01627c.03254.21965.10779.46778.31728.50439V8.332C84.67051,8.34422,84.57491,8.0127,84.579,7.79915Z"/>
        <path class="cls-9" d="M84.73355,7.53068c.34576-.09152.50236.61015.181.69557S84.44068,7.61,84.73355,7.53068Z"/>
        <path class="cls-9" d="M83.54335,9.97658c.13912.10291.2825.24975.44867.23023a1.19844,1.19844,0,0,0,.49361-.23511h.02684a.69963.69963,0,0,1-.23084.289.61823.61823,0,0,1-.33456.11736.502.502,0,0,1-.27783-.12285.575.575,0,0,1-.17084-.26867C83.48945,9.98146,83.52525,9.96193,83.54335,9.97658Z"/>
        <path class="cls-9" d="M80.78384,8.60658c.74641-.14643.63252-1.52741.63252-1.52741S82.657,6.62562,82.659,5.625a3.00608,3.00608,0,0,0,2.25349.01627,1.44413,1.44413,0,0,0,.37626-1.90164c-.34778-.48-1.01692.34982-1.01692.34982A4.7466,4.7466,0,0,0,81.5872,3.9857a2.38,2.38,0,0,0-1.45013,1.47656s-.57354.242-.68743.69761S80.31,8.6981,80.78384,8.60658Z"/>
        <path class="cls-9" d="M81.11739,7.14628A1.59346,1.59346,0,0,0,82.62649,5.328h.01831c.14033.89082-.49626,2.03384-1.52945,1.86707a.024.024,0,0,1-.01688-.00787.0244.0244,0,0,1-.00651-.01756.0238.0238,0,0,1,.00793-.017A.02413.02413,0,0,1,81.11739,7.14628Z"/>
        <path class="cls-9" d="M80.16555,5.43989s.0183.0122,0,.01831a1.94646,1.94646,0,0,0-.69965.62845,1.23407,1.23407,0,0,0,.10373,1.07184,2.74047,2.74047,0,0,0,1.1898,1.37894c.03254.01424,0,.059-.02034.04881a2.7732,2.7732,0,0,1-1.35047-1.69012A1.146,1.146,0,0,1,80.16555,5.43989Z"/>
        <path class="cls-12" d="M81.29433,8.77132s-.80134-1.00471-1.261-.71388.18711,1.77961.76066,1.95249a.56937.56937,0,0,0,.74235-.35389Z"/>
        <path class="cls-9" d="M80.22859,8.48048v.01424a1.43336,1.43336,0,0,1,.80134.85421A.31515.31515,0,0,0,80.554,9.292c-.01017,0,0,.02237.0122.02033a.35.35,0,0,1,.39254.09763,1.58563,1.58563,0,0,1,.20338.299c.02034.03458.08339.01221.06712-.02644C81.20281,9.172,80.7696,8.49675,80.22859,8.48048Z"/>
        <path class="cls-13" d="M84.45288,12.73121l-.68743,1.95249L81.27806,12.359l-.6427.81353s2.49756,3.75447,2.5057,3.57956l.71794-1.686,1.19183,1.10031-.21762-2.88195Z"/>
        <path class="cls-9" d="M85.02439,14.73048c-.05288-.47592-.09152-.95591-.16474-1.42369,0-.01627-.03051-.02237-.03254,0a26.56867,26.56867,0,0,0,.14847,2.71518c-.04881-.04678-1.10031-.96608-1.11048-.94981-.15864.2705-.68744,1.49894-.722,1.60877-.3966-.59592-1.90368-2.762-2.36536-3.32126a.01615.01615,0,0,0-.01057-.00732.01672.01672,0,0,0-.01282.00223.01624.01624,0,0,0-.00732.01058.01675.01675,0,0,0,.00224.01281c.35389.63253,2.35315,3.549,2.37959,3.54092a18.45765,18.45765,0,0,0,.75252-1.78368,12.41816,12.41816,0,0,0,1.24675,1.17353A15.44831,15.44831,0,0,0,85.02439,14.73048Z"/>
        <path class="cls-10" d="M98.41235,77.84666c-.18142.07728-2.91327.06915-5.5835,0-.53693-.01424-1.07672-.03051-1.57968-.04882a19.12977,19.12977,0,0,1-3.62411-.29877,22.44072,22.44072,0,0,1-.23978-4.30584v-.17288h.00752l6.48043.01627v.14644S97.7003,75.523,98.088,75.94177C98.4754,76.36053,98.76461,77.69819,98.41235,77.84666Z"/>
        <path class="cls-9" d="M98.23764,77.41345c-2.23722-.08339-11.28557-.20338-13.50653-.12407-.0185,0-.0185.01221,0,.01424,2.21872.1322,11.26321.18508,13.5045.14644C98.28443,77.45006,98.28443,77.41548,98.23764,77.41345Z"/>
        <path class="cls-9" d="M93.33019,73.15459a3.12374,3.12374,0,0,0-2.644.56541c-.02644.02237,0,.061.03661.05084a12.40668,12.40668,0,0,1,2.60128-.50439.05592.05592,0,0,0,.03437-.0177.057.057,0,0,0,.01526-.03559.058.058,0,0,0-.01119-.03721A.05647.05647,0,0,0,93.33019,73.15459Z"/>
        <path class="cls-9" d="M93.96251,73.54508a3.136,3.136,0,0,0-2.644.56541c-.02644.02441,0,.061.03661.05288a12.407,12.407,0,0,1,2.59925-.50642.05694.05694,0,0,0,.00813-.11187Z"/>
        <path class="cls-9" d="M94.59321,73.93762a3.13052,3.13052,0,0,0-2.644.56541c-.02644.0244,0,.061.0366.05287a12.40986,12.40986,0,0,1,2.60129-.50642.056.056,0,0,0,.03437-.0177.0571.0571,0,0,0,.01525-.03579.0578.0578,0,0,0-.01118-.037A.05653.05653,0,0,0,94.59321,73.93762Z"/>
      </g>
    </g>
  </g>
</svg>
