<svg xmlns="http://www.w3.org/2000/svg" xmlns:xlink="http://www.w3.org/1999/xlink" width="67.66981mm" height="40.40003mm" viewBox="0 0 191.81995 114.51978">
  <defs>
    <style>
      .cls-1 {
        fill: none;
      }

      .cls-2 {
        clip-path: url(#clip-path);
      }

      .cls-3 {
        fill: #fedcd0;
      }

      .cls-4 {
        fill: #f5f5f5;
      }

      .cls-5 {
        fill: #1a2e35;
      }

      .cls-6 {
        fill: #fafafa;
      }

      .cls-7 {
        fill: #e0e0e0;
      }

      .cls-8 {
        fill: #ebebeb;
      }

      .cls-9 {
        fill: #618dd8;
      }

      .cls-10 {
        fill: #ff4f5b;
      }

      .cls-11 {
        fill: #fff;
      }

      .cls-12 {
        fill: #fafbef;
      }

      .cls-13 {
        fill: #ff9a6c;
      }

      .cls-14 {
        fill: #ffbf9d;
      }

      .cls-15 {
        fill: #375a64;
      }

      .cls-16 {
        opacity: 0.3;
      }

      .cls-17 {
        clip-path: url(#clip-path-2);
      }
    </style>
    <clipPath id="clip-path">
      <path class="cls-1" d="M191.82,9.86V71.33a60.49625,60.49625,0,0,1-10.15,6c-16.31994,7.56005-34.85,3.88-71.25-3.79C62.13007,63.36,59.58,55.96,33.88007,55.35A124.03682,124.03682,0,0,0-.00006,59.14V9.86A9.86716,9.86716,0,0,1,9.86005,0h172.1A9.86072,9.86072,0,0,1,191.82,9.86Z"/>
    </clipPath>
    <clipPath id="clip-path-2">
      <path class="cls-1" d="M124.24,198.188c-43.51,34.26-102.15,7.29-111.41,3.03-3.85-1.77-8.29-3.81006-12.83-6.20019V140.218a9.86067,9.86067,0,0,1,9.86-9.86011H158.87C160.35,155.59788,143.37,183.1179,124.24,198.188Z"/>
    </clipPath>
  </defs>
  <title>cards</title>
  <g id="Layer_1" data-name="Layer 1">
    <g class="cls-2">
      <ellipse class="cls-3" cx="82.69874" cy="23.33684" rx="170.96704" ry="71.42526"/>
      <g>
        <circle class="cls-4" cx="14.30096" cy="22.98923" r="10.51547" transform="translate(-5.96544 5.03664) rotate(-16.57991)"/>
        <path class="cls-5" d="M3.80808,22.30027a.88253.88253,0,0,1,.01006.17115c.00116.12521.00271.29046.00474.49987l.00034.36774c.00624.135.02626.28219.04034.44179a7.68459,7.68459,0,0,0,.15185,1.09433A10.044,10.044,0,0,0,5.001,27.72454a10.41819,10.41819,0,0,0,12.19533,5.245,10.85959,10.85959,0,0,0,1.39215-.50693,10.84136,10.84136,0,0,0,1.32546-.73467,11.72589,11.72589,0,0,0,1.24208-.92352A11.78748,11.78748,0,0,0,22.251,29.66835a10.068,10.068,0,0,0,1.66955-2.76006,11.11391,11.11391,0,0,0,.74981-3.23662,11.11752,11.11752,0,0,0-.31934-3.308,10.07021,10.07021,0,0,0-1.29431-2.95574,11.77552,11.77552,0,0,0-.93711-1.26979,11.7123,11.7123,0,0,0-1.11082-1.07832A10.84055,10.84055,0,0,0,19.7906,14.158a10.8355,10.8355,0,0,0-1.3141-.68471A10.44563,10.44563,0,0,0,5.69967,17.07911,10.04529,10.04529,0,0,0,4.35018,19.775a7.68127,7.68127,0,0,0-.29356,1.06493c-.03482.1564-.0739.2996-.09769.43269l-.04846.36446-.07.49489a.88341.88341,0,0,1-.03236.1683.86826.86826,0,0,1,.00721-.17033c.01141-.12507.0266-.29008.0458-.49924l.0369-.36814c.02-.13444.05542-.27938.08666-.43762a7.44233,7.44233,0,0,1,.274-1.07949,9.95257,9.95257,0,0,1,1.3272-2.74469,10.58992,10.58992,0,0,1,7.44261-4.54723,10.63484,10.63484,0,0,1,5.53958.81118,11.05393,11.05393,0,0,1,1.34533.69612,11.04073,11.04073,0,0,1,1.248.91888,11.90908,11.90908,0,0,1,1.13829,1.10067,11.97679,11.97679,0,0,1,.96115,1.29726,10.29041,10.29041,0,0,1,1.32811,3.02388,11.33721,11.33721,0,0,1,.328,3.38635,11.328,11.328,0,0,1-.76866,3.31313,10.28871,10.28871,0,0,1-1.712,2.82327,11.99437,11.99437,0,0,1-1.12239,1.16011,11.92047,11.92047,0,0,1-1.27221.94209,11.04851,11.04851,0,0,1-1.35728.74758,11.05083,11.05083,0,0,1-1.42455.51418,10.6341,10.6341,0,0,1-5.59746.08A10.59,10.59,0,0,1,4.8779,27.78736a9.95186,9.95186,0,0,1-.95713-2.89494,7.44161,7.44161,0,0,1-.13058-1.10614c-.0102-.161-.02636-.30932-.02868-.44531l.01156-.36983.01983-.501A.86811.86811,0,0,1,3.80808,22.30027Z"/>
      </g>
      <path class="cls-5" d="M19.07547,23.31272a2.10383,2.10383,0,0,1-.37152.02457l-1.022.0206c-.86728.012-2.07555.02027-3.43946.0223l-.06746.00014,0-.06761-.00053-.6819c0-1.52326.00759-2.90215.01992-3.90015.00876-.48125.01611-.87946.02157-1.18192a2.64981,2.64981,0,0,1,.02655-.43337,2.65925,2.65925,0,0,1,.02651.43337c.00551.30246.01281.70067.02157,1.18192.01228.998.01992,2.37689.01992,3.90015l-.00053.6819-.06747-.06746c1.36391.00208,2.57218.0102,3.43946.02229l1.022.02061A2.09969,2.09969,0,0,1,19.07547,23.31272Z"/>
      <path class="cls-5" d="M14.27472,14.201a2.92546,2.92546,0,0,1,.068.88324,2.92529,2.92529,0,0,1-.068.88333,2.9255,2.9255,0,0,1-.068-.88333A2.92566,2.92566,0,0,1,14.27472,14.201Z"/>
      <path class="cls-5" d="M19.066,15.61964a2.8425,2.8425,0,0,1-.56748.66372,2.84188,2.84188,0,0,1-.66382.56758,2.84551,2.84551,0,0,1,.56763-.66377A2.848,2.848,0,0,1,19.066,15.61964Z"/>
      <path class="cls-5" d="M21.86736,18.68008a3.66482,3.66482,0,0,1-.72456.48362,3.66465,3.66465,0,0,1-.76306.42056,2.33283,2.33283,0,0,1,.6924-.53687A2.33276,2.33276,0,0,1,21.86736,18.68008Z"/>
      <path class="cls-5" d="M23.50929,23.22146a5.38973,5.38973,0,0,1-1.20445.068,5.38984,5.38984,0,0,1-1.2046-.068,5.3964,5.3964,0,0,1,1.2046-.068A5.39629,5.39629,0,0,1,23.50929,23.22146Z"/>
      <path class="cls-5" d="M6.80677,23.06085a4.814,4.814,0,0,1-1.13757.06805,4.8132,4.8132,0,0,1-1.13762-.06805,4.81417,4.81417,0,0,1,1.13762-.068A4.81494,4.81494,0,0,1,6.80677,23.06085Z"/>
      <path class="cls-5" d="M7.988,26.442a4.9729,4.9729,0,0,1-.85959.77974,4.97022,4.97022,0,0,1-.945.67383,5.018,5.018,0,0,1,.85968-.77979A5.01268,5.01268,0,0,1,7.988,26.442Z"/>
      <path class="cls-5" d="M10.9022,29.05677a7.72924,7.72924,0,0,1-.58508,1.0141,7.73855,7.73855,0,0,1-.62082.99268,3.81679,3.81679,0,0,1,.50417-1.0628A3.81766,3.81766,0,0,1,10.9022,29.05677Z"/>
      <path class="cls-5" d="M14.27472,32.42929a5.38988,5.38988,0,0,1-.068-1.20446,5.38965,5.38965,0,0,1,.068-1.20455,5.38927,5.38927,0,0,1,.068,1.20455A5.38949,5.38949,0,0,1,14.27472,32.42929Z"/>
      <path class="cls-5" d="M19.46672,30.8244a3.53,3.53,0,0,1-.993-.68036,3.53089,3.53089,0,0,1-.80958-.891,11.06855,11.06855,0,0,1,.899.7884A11.07625,11.07625,0,0,1,19.46672,30.8244Z"/>
      <path class="cls-5" d="M21.90329,28.20013a4.18959,4.18959,0,0,1-.79754-.70134,4.18234,4.18234,0,0,1-.70139-.79764,4.1927,4.1927,0,0,1,.79763.7014A4.1853,4.1853,0,0,1,21.90329,28.20013Z"/>
      <path class="cls-5" d="M7.87745,19.82205a3.21613,3.21613,0,0,1-.70386-.60761,3.21738,3.21738,0,0,1-.60771-.704,3.22392,3.22392,0,0,1,.70391.60772A3.22306,3.22306,0,0,1,7.87745,19.82205Z"/>
      <path class="cls-5" d="M10.8846,16.65425a3.08854,3.08854,0,0,1-.69187-.59272,3.087,3.087,0,0,1-.59582-.68916,3.09448,3.09448,0,0,1,.69182.59277A3.09594,3.09594,0,0,1,10.8846,16.65425Z"/>
      <g>
        <g>
          <rect class="cls-6" x="128.56454" y="4.91846" width="45.99101" height="41.14628"/>
          <path class="cls-7" d="M174.55558,46.06474s-.00769-.26378-.01168-.76374c-.00274-.50487-.00669-1.243-.012-2.20461-.0062-1.93182-.01535-4.75559-.027-8.35225-.01293-7.18923-.03138-17.46206-.05364-29.82561l.10421.1042c-13.24506.00542-29.05189.01176-45.98681.01863h-.00413l.1229-.12283c-.00534,14.96955-.0104,29.05574-.01471,41.14614l-.10819-.10819c13.72009.02258,25.20337.04146,33.264.05467,4.03287.01228,7.208.0219,9.382.02849,1.083.00559,1.91516.00986,2.48371.01275.27831.00267.49095.00477.64049.00612.1443.00207.22079.00623.22079.00623s-.06823.0041-.20851.00616l-.62873.00613c-.56371.003-1.38884.00716-2.46259.01268-2.1684.00666-5.33525.01634-9.35762.02856-8.07751.01321-19.58483.032-33.33359.05466l-.10819.00018v-.10844c-.00438-12.0904-.00937-26.17659-.01478-41.14614v-.123h.1271c16.93492.00684,32.74175.01325,45.98681.01863H174.66l-.00018.10434c-.02226,12.391-.04071,22.68652-.05364,29.89163-.01164,3.58658-.02076,6.40248-.027,8.32882-.00531.95288-.00926,1.68439-.012,2.18464C174.56331,45.81638,174.55558,46.06474,174.55558,46.06474Z"/>
        </g>
        <path class="cls-7" d="M146.19913,12.22934c0,.06788-2.42074.123-5.40616.123-2.98658,0-5.40679-.05509-5.40679-.123s2.42021-.1229,5.40679-.1229C143.77839,12.10644,146.19913,12.16154,146.19913,12.22934Z"/>
        <path class="cls-7" d="M165.6862,15.31874c0,.06795-6.65038.1229-14.8522.1229-8.20471,0-14.85374-.05495-14.85374-.1229s6.649-.12282,14.85374-.12282C159.03582,15.19592,165.6862,15.25094,165.6862,15.31874Z"/>
        <rect class="cls-7" x="135.46534" y="20.552" width="1.93766" height="1.93759"/>
        <rect class="cls-7" x="140.23486" y="20.552" width="1.93756" height="1.93759"/>
        <rect class="cls-7" x="145.0923" y="20.46408" width="1.93756" height="1.93756"/>
        <rect class="cls-7" x="149.77378" y="20.552" width="1.93756" height="1.93759"/>
        <rect class="cls-7" x="154.54326" y="20.552" width="1.93759" height="1.93759"/>
        <rect class="cls-7" x="159.31271" y="20.552" width="1.93759" height="1.93759"/>
        <rect class="cls-8" x="164.08216" y="20.552" width="1.93756" height="1.93759"/>
        <rect class="cls-8" x="135.46534" y="24.67124" width="1.93766" height="1.93756"/>
        <rect class="cls-7" x="140.23486" y="24.67124" width="1.93756" height="1.93756"/>
        <rect class="cls-8" x="145.00427" y="24.67124" width="1.93766" height="1.93756"/>
        <rect class="cls-7" x="149.77378" y="24.67124" width="1.93756" height="1.93756"/>
        <rect class="cls-7" x="154.54326" y="24.67124" width="1.93759" height="1.93756"/>
        <rect class="cls-7" x="159.40067" y="24.58324" width="1.93756" height="1.93763"/>
        <rect class="cls-7" x="164.08216" y="24.67124" width="1.93756" height="1.93756"/>
        <rect class="cls-7" x="135.46534" y="28.79044" width="1.93766" height="1.93759"/>
        <rect class="cls-7" x="140.32278" y="28.70244" width="1.93759" height="1.93763"/>
        <rect class="cls-7" x="145.00427" y="28.79044" width="1.93766" height="1.93759"/>
        <rect class="cls-8" x="149.77378" y="28.79044" width="1.93756" height="1.93759"/>
        <rect class="cls-7" x="154.54326" y="28.79044" width="1.93759" height="1.93759"/>
        <rect class="cls-7" x="159.31271" y="28.79044" width="1.93759" height="1.93759"/>
        <rect class="cls-7" x="164.08216" y="28.79044" width="1.93756" height="1.93759"/>
        <rect class="cls-7" x="135.46534" y="32.9096" width="1.93766" height="1.93766"/>
        <rect class="cls-7" x="140.23486" y="32.9096" width="1.93756" height="1.93766"/>
        <rect class="cls-7" x="145.00427" y="32.9096" width="1.93766" height="1.93766"/>
        <rect class="cls-7" x="149.86171" y="32.82168" width="1.93759" height="1.93759"/>
        <rect class="cls-7" x="154.54326" y="32.9096" width="1.93759" height="1.93766"/>
        <rect class="cls-8" x="159.31271" y="32.9096" width="1.93759" height="1.93766"/>
        <rect class="cls-7" x="164.08216" y="32.9096" width="1.93756" height="1.93766"/>
        <rect class="cls-7" x="135.46534" y="37.02884" width="1.93766" height="1.93759"/>
        <rect class="cls-8" x="140.23486" y="37.02884" width="1.93756" height="1.93759"/>
        <rect class="cls-7" x="145.00427" y="37.02884" width="1.93766" height="1.93759"/>
        <rect class="cls-7" x="149.77378" y="37.02884" width="1.93756" height="1.93759"/>
        <rect class="cls-7" x="154.54326" y="37.02884" width="1.93759" height="1.93759"/>
        <rect class="cls-7" x="159.40067" y="36.94091" width="1.93756" height="1.93756"/>
        <rect class="cls-7" x="164.08216" y="37.02884" width="1.93756" height="1.93759"/>
      </g>
      <g>
        <g>
          <path class="cls-7" d="M110.3881,8.64105s5.44558.07646,3.11544,10.8569-2.02965,12.81949-2.02965,17.0846a7.43707,7.43707,0,0,0,4.02692,6.78652h-7.38438L102.68488,18.205v-9.564Z"/>
          <polygon class="cls-7" points="111.989 93.517 37.422 93.517 38.086 20.565 108.32 16.894 111.989 93.517"/>
          <polygon class="cls-8" points="109.429 91.634 34.862 91.634 35.527 18.681 107.929 17.268 109.429 91.634"/>
          <g>
            <polygon class="cls-6" points="107.883 89.6 33.467 89.6 33.467 16.647 107.929 16.473 107.883 89.6"/>
            <path class="cls-5" d="M107.88349,89.59968c-.00035-.6814-.014-29.26449-.0349-73.12678l.08013.08-74.34454.1865-.11674.00028.09249-.0927c-.00449,26.68706-.00873,51.71181-.01229,72.95268l-.08041-.08041c44.58917.04821,73.72823.0797,74.41626.08044-.68753.00075-29.82706.03227-74.41626.08045l-.08049.00007v-.08055c-.00356-21.24087-.0078-46.26562-.01228-72.95268v-.09255l.09255-.00022.1167-.00025c27.2456-.059,52.76685-.11431,74.34462-.161l.08034-.00018-.00014.08023C107.93353,60.33522,107.88463,88.91878,107.88349,89.59968Z"/>
          </g>
          <path class="cls-4" d="M107.92858,16.27629c-3.84378-4.47629.61659-7.78966,2.12049-7.85942L39.19136,8.37666a5.968,5.968,0,0,0-5.88542,6.98688,8.20928,8.20928,0,0,0,.28746,1.10936"/>
          <path class="cls-5" d="M109.80812,43.36911a.452.452,0,0,1,.09694-.00791l.28614-.00769,1.11289-.01474c.98346-.00613,2.404-.015,4.19669-.02614l-.01667.1104a4.49721,4.49721,0,0,1-1.71192-.98023,5.58005,5.58005,0,0,1-1.27765-1.82086,12.18825,12.18825,0,0,1-.76393-2.32993c-.09668-.41517-.18208-.8412-.26143-1.27606-.03849-.21766-.0834-.43522-.10281-.66371a5.406,5.406,0,0,1-.05117-.68454,25.29365,25.29365,0,0,1,.09519-2.83516c.07144-.96994.17945-1.96263.29686-2.97683.24295-2.02751.54793-4.13847.90747-6.30227.14719-.92485.33476-1.83745.4875-2.7316.14612-.89864.2661-1.78924.37917-2.66466q.158-1.31489.31015-2.58107c.04511-.423.10366-.83938.11313-1.248a7.52167,7.52167,0,0,0-.068-1.21488,7.28761,7.28761,0,0,0-.67153-2.23638A4.45868,4.45868,0,0,0,111.80469,9.18a2.67463,2.67463,0,0,0-1.93674-.433,3.55577,3.55577,0,0,0-1.72485.71645,4.25178,4.25178,0,0,0-1.07687,1.33293,5.73732,5.73732,0,0,0-.523,1.45067,3.79018,3.79018,0,0,0,.28337,2.41255,8.022,8.022,0,0,0,.78444,1.36278l.23927.3339a.78563.78563,0,0,1,.07824.11659.78731.78731,0,0,1-.09323-.105c-.06-.07073-.145-.17945-.25455-.32361a7.47479,7.47479,0,0,1-.82012-1.35533,3.84585,3.84585,0,0,1-.31888-2.46334,5.80751,5.80751,0,0,1,.52-1.484,4.35956,4.35956,0,0,1,1.09928-1.3804,3.68509,3.68509,0,0,1,1.78667-.75583,2.82148,2.82148,0,0,1,2.04411.44793,4.60372,4.60372,0,0,1,1.41933,1.751,7.43541,7.43541,0,0,1,.69476,2.28549,7.683,7.683,0,0,1,.07293,1.2429c-.00911.42307-.06734.84134-.11129,1.2631q-.14118,1.26756-.30594,2.58434c-.112.87692-.23119,1.76879-.37731,2.67153-.154.90469-.33925,1.8064-.48668,2.73235-.359,2.16085-.66549,4.26949-.91132,6.29305-.11884,1.0121-.2287,2.00269-.30231,2.969a25.35881,25.35881,0,0,0-.10321,2.8154,5.27055,5.27055,0,0,0,.04755.66993c.01734.21977.0615.439.099.65591.07735.43358.1605.85751.25456,1.26986a12.12036,12.12036,0,0,0,.74233,2.30494,5.46471,5.46471,0,0,0,1.23557,1.78642,4.39308,4.39308,0,0,0,1.65765.96662l.34835.11271-.365-.00228c-1.79269-.01118-3.21323-.02-4.19669-.02614l-1.11289-.01474-.28614-.00769A.45758.45758,0,0,1,109.80812,43.36911Z"/>
          <path class="cls-5" d="M63.91241,10.6472c.02885.02022-.18326.30355-.39419.821a4.66224,4.66224,0,0,0-.26734.939,4.8253,4.8253,0,0,0,.18112,2.361,4.66385,4.66385,0,0,0,.40751.88732c.28739.4792.54024.72677.51478.75117-.00894.00915-.07689-.0468-.19334-.15727a3.03413,3.03413,0,0,1-.43223-.52375,4.16677,4.16677,0,0,1-.458-.90109,4.57615,4.57615,0,0,1-.18782-2.44842,4.16525,4.16525,0,0,1,.31513-.96032,3.03243,3.03243,0,0,1,.34733-.58361C63.84357,10.70521,63.90219,10.63954,63.91241,10.6472Z"/>
          <path class="cls-5" d="M62.143,8.12471a7.6053,7.6053,0,0,0-.9413,1.1497,4.90283,4.90283,0,0,0-.67272,3.41611,4.90266,4.90266,0,0,0,1.859,2.94457,7.61091,7.61091,0,0,0,1.2923.73308A1.397,1.397,0,0,1,63.289,16.261a4.26,4.26,0,0,1-.97842-.52,4.849,4.849,0,0,1-1.96391-3.0165,4.84906,4.84906,0,0,1,.74473-3.521,4.258,4.258,0,0,1,.72521-.83778A1.39565,1.39565,0,0,1,62.143,8.12471Z"/>
          <path class="cls-5" d="M102.19322,65.07233s-.07895.00638-.233.00951l-.684.00919c-.608.004-1.49262.0099-2.63011.01741l-9.673.02949-31.91294.02717c-4.83227-.00156-9.48683-.00309-13.76276-.00445l-.08846,0,.00015-.08829c.01342-9.11767.025-16.95931.03315-22.52836.01093-2.7769.01962-4.98682.02561-6.50935.00623-.75345.01107-1.33561.01438-1.737l.00748-.448c.00253-.10064.00766-.15192.00766-.15192s.00513.05128.00765.15192l.00752.448.01435,1.737c.006,1.52253.01467,3.73245.02561,6.50935.00819,5.569.01973,13.41069.03315,22.52836l-.08825-.08824,13.76276-.00446c12.45927.01062,23.74.0202,31.91294.02714l9.673.02949c1.13749.00751,2.02214.01339,2.63011.01741l.684.00919C102.11427,65.066,102.19322,65.07233,102.19322,65.07233Z"/>
          <rect class="cls-9" x="48.084" y="57.32125" width="5.94935" height="5.94935"/>
          <rect class="cls-9" x="56.80587" y="53.06811" width="5.94935" height="10.20249"/>
          <rect class="cls-9" x="65.56254" y="48.23667" width="5.94935" height="15.03394"/>
          <rect class="cls-9" x="74.05154" y="42.85857" width="5.94935" height="20.41203"/>
          <rect class="cls-9" x="82.73823" y="35.97233" width="5.94935" height="27.29827"/>
          <rect class="cls-9" x="91.35982" y="30.72062" width="5.94939" height="32.26743"/>
          <path class="cls-5" d="M48.084,51.22144a.44924.44924,0,0,1,.07582-.05851l.23176-.15969.90637-.60662c.80309-.52938,1.95957-1.29176,3.40941-2.24753,2.92762-1.91337,7.038-4.59971,11.8059-7.71579L64.65,40.344l.00014.1636c.00075.84245.00149,1.74447.00231,2.66288l-.14141-.0755c1.50269-1.00769,3.05873-2.05113,4.65235-3.11978l16.4174-10.96862c2.09945-1.3919,3.80111-2.5201,4.98693-3.30627.5845-.38266,1.04148-.68184,1.36106-.8911l.35659-.22784a.83586.83586,0,0,1,.125-.07237.82766.82766,0,0,1-.11446.08811l-.34633.24316-1.34165.92-4.95414,3.35524L69.26658,40.12921c-1.5943,1.06758-3.151,2.11-4.65439,3.11672l-.14163.09483.00014-.17033c.00079-.91841.00157-1.82043.00232-2.66288l.13678.07426c-4.78244,3.09367-8.90538,5.76071-11.842,7.6603-1.46177.93739-2.62779,1.68514-3.43744,2.20437l-.92218.58237-.24.147A.45271.45271,0,0,1,48.084,51.22144Z"/>
          <path class="cls-5" d="M92.41035,27.02681a3.06174,3.06174,0,0,1-.063-.73354c-.01652-.45548-.02746-1.08838-.02945-1.798l.09237.09238-.22734.00032c-.762,0-1.45185-.0104-1.95117-.02717a3.52788,3.52788,0,0,1-.80807-.06556,3.52745,3.52745,0,0,1,.80807-.06557c.49932-.01677,1.18913-.02717,1.95117-.02717l.22734.00032.0927.00015-.00025.0923c-.002.70965-.01292,1.34255-.02944,1.798A3.06135,3.06135,0,0,1,92.41035,27.02681Z"/>
          <g>
            <path class="cls-5" d="M60.9724,69.87048c0,.05121-1.83887.09274-4.1067.09274-2.26864,0-4.10713-.04153-4.10713-.09274s1.83849-.09273,4.10713-.09273C59.13353,69.77775,60.9724,69.81927,60.9724,69.87048Z"/>
            <path class="cls-5" d="M56.75452,72.68243a5.034,5.034,0,0,1,0-1.924,5.03775,5.03775,0,0,1,0,1.924Z"/>
            <path class="cls-5" d="M66.81826,73.64439c0,.05124-4.93678.09277-11.0252.09277-6.09055,0-11.02631-.04153-11.02631-.09277s4.93576-.0927,11.02631-.0927C61.88148,73.55169,66.81826,73.59321,66.81826,73.64439Z"/>
            <path class="cls-5" d="M44.91476,76.38237a9.61159,9.61159,0,0,1,0-2.66395,9.61262,9.61262,0,0,1,0,2.664Z"/>
            <path class="cls-5" d="M52.75861,76.08636a7.13666,7.13666,0,0,1,0-2.29393,7.142,7.142,0,0,1,0,2.29393Z"/>
            <path class="cls-5" d="M60.82443,76.23436a8.57548,8.57548,0,0,1,0-2.51594,8.58189,8.58189,0,0,1,0,2.51594Z"/>
            <path class="cls-5" d="M66.96627,76.23436a9.08749,9.08749,0,0,1,0-2.58994,9.08846,9.08846,0,0,1,0,2.58994Z"/>
            <path class="cls-5" d="M47.6527,77.12232a19.2088,19.2088,0,0,1-2.66383.09273,19.20735,19.20735,0,0,1-2.664-.09273,19.22163,19.22163,0,0,1,2.664-.0927A19.22309,19.22309,0,0,1,47.6527,77.12232Z"/>
            <path class="cls-5" d="M54.46056,77.12232a11.24281,11.24281,0,0,1-2.03489.09273,11.24187,11.24187,0,0,1-2.035-.09273,11.2502,11.2502,0,0,1,2.035-.0927A11.25113,11.25113,0,0,1,54.46056,77.12232Z"/>
            <path class="cls-5" d="M63.11836,77.34432a12.92787,12.92787,0,0,1-2.18285.09274,12.92746,12.92746,0,0,1-2.18307-.09274,12.92815,12.92815,0,0,1,2.18307-.09273A12.92856,12.92856,0,0,1,63.11836,77.34432Z"/>
            <path class="cls-5" d="M70.14819,76.97431a14.72082,14.72082,0,0,1-2.33082.09277,14.72069,14.72069,0,0,1-2.33108-.09277,14.73761,14.73761,0,0,1,2.33108-.0927A14.73773,14.73773,0,0,1,70.14819,76.97431Z"/>
            <g>
              <path class="cls-5" d="M44.98876,79.71229a3.30159,3.30159,0,0,1,0-1.554,3.30159,3.30159,0,0,1,0,1.554Z"/>
              <path class="cls-5" d="M50.05361,79.71226c0,.05124-2.15365.09273-4.80969.09273-2.65692,0-4.81011-.04149-4.81011-.09273s2.15319-.0927,4.81011-.0927C47.9,79.61956,50.05361,79.66108,50.05361,79.71226Z"/>
              <path class="cls-5" d="M50.05361,81.93222a6.68872,6.68872,0,0,1,0-2.21993,6.69156,6.69156,0,0,1,0,2.21993Z"/>
              <path class="cls-5" d="M40.43381,82.08022a7.60391,7.60391,0,0,1,0-2.36793,7.60472,7.60472,0,0,1,0,2.36793Z"/>
            </g>
            <g>
              <path class="cls-5" d="M61.02148,79.71229a3.30124,3.30124,0,0,1,0-1.554,3.30159,3.30159,0,0,1,0,1.554Z"/>
              <path class="cls-5" d="M72.71527,79.71226c0,.05124-3.63769.09273-8.124.09273-4.48786,0-8.12477-.04149-8.12477-.09273s3.63691-.0927,8.12477-.0927C69.07758,79.61956,72.71527,79.66108,72.71527,79.71226Z"/>
              <path class="cls-5" d="M66.08633,81.93222a6.68872,6.68872,0,0,1,0-2.21993,6.69227,6.69227,0,0,1,0,2.21993Z"/>
              <path class="cls-5" d="M73.04721,81.93222a6.68872,6.68872,0,0,1,0-2.21993,6.68943,6.68943,0,0,1,0,2.21993Z"/>
              <path class="cls-5" d="M56.46652,82.08022a7.60472,7.60472,0,0,1,0-2.36793,7.60391,7.60391,0,0,1,0,2.36793Z"/>
            </g>
            <path class="cls-5" d="M42.32977,83.44456a9.76672,9.76672,0,0,1-1.89586.09277,9.76655,9.76655,0,0,1-1.89607-.09277,9.77823,9.77823,0,0,1,1.89607-.09269A9.7784,9.7784,0,0,1,42.32977,83.44456Z"/>
            <path class="cls-5" d="M51.75046,83.17306a11.399,11.399,0,0,1-2.04877.09273,11.39857,11.39857,0,0,1-2.049-.09273,11.398,11.398,0,0,1,2.049-.09274A11.39845,11.39845,0,0,1,51.75046,83.17306Z"/>
            <path class="cls-5" d="M58.55874,83.17306a8.85755,8.85755,0,0,1-1.80415.09273,8.85729,8.85729,0,0,1-1.80433-.09273,8.85682,8.85682,0,0,1,1.80433-.09274A8.85709,8.85709,0,0,1,58.55874,83.17306Z"/>
            <path class="cls-5" d="M67.73464,83.17306a10.40776,10.40776,0,0,1-1.957.09273,10.40758,10.40758,0,0,1-1.95721-.09273,10.407,10.407,0,0,1,1.95721-.09274A10.40721,10.40721,0,0,1,67.73464,83.17306Z"/>
            <path class="cls-5" d="M75.0739,82.9284a10.72645,10.72645,0,0,1-1.98759.09277,10.72617,10.72617,0,0,1-1.98781-.09277,10.73845,10.73845,0,0,1,1.98781-.0927A10.73874,10.73874,0,0,1,75.0739,82.9284Z"/>
          </g>
          <g>
            <path class="cls-5" d="M102.14005,84.3718h-25.123v-15.556h25.123Zm-25.10491-.01809H102.122V68.83352H77.03514Z"/>
            <path class="cls-10" d="M96.07,80.05908c-1.74076-.66011-3.74314,1.16527-5.4496.42094-.993-.43319-1.4433-1.55629-1.92987-2.5243s-1.32478-1.98906-2.4023-1.8767c-1.08688.11335-1.96565,1.37171-3.01547,1.0684a2.023,2.023,0,0,1-1.15793-1.5935,3.61188,3.61188,0,0,0-.78543-1.87606c-.50459-.4688-1.55572-.34337-1.635.34081v8.23712H99.32657A34.40947,34.40947,0,0,0,96.07,80.05908Z"/>
            <path class="cls-7" d="M99.85089,82.25576c0,.01766-4.75854.03194-10.6272.03194-5.87065,0-10.6282-.01428-10.6282-.03194s4.75755-.03191,10.6282-.03191C95.09235,82.22385,99.85089,82.23816,99.85089,82.25576Z"/>
            <path class="cls-5" d="M99.85089,78.658c0,.01763-4.75854.03195-10.6272.03195-5.87065,0-10.6282-.01432-10.6282-.03195s4.75755-.0319,10.6282-.0319C95.09235,78.62605,99.85089,78.64033,99.85089,78.658Z"/>
            <path class="cls-5" d="M99.85089,75.06015c0,.01763-4.75854.03191-10.6272.03191-5.87065,0-10.6282-.01428-10.6282-.03191s4.75755-.03194,10.6282-.03194C95.09235,75.02821,99.85089,75.04252,99.85089,75.06015Z"/>
            <path class="cls-5" d="M99.85089,71.64088c0,.01762-4.75854.03194-10.6272.03194-5.87065,0-10.6282-.01432-10.6282-.03194S83.353,71.609,89.22369,71.609C95.09235,71.609,99.85089,71.62325,99.85089,71.64088Z"/>
          </g>
          <g>
            <path class="cls-5" d="M43.3002,21.75573a.13586.13586,0,0,1,.03462-.00217l.10174.00018a2.30483,2.30483,0,0,1,.39113.03522,2.14905,2.14905,0,0,1,.59149.20221,1.96375,1.96375,0,0,1,.63087.54169,2.26676,2.26676,0,0,1,.415.925,2.18946,2.18946,0,0,1-.1458,1.15939,3.44213,3.44213,0,0,1-.28788.57083,6.15258,6.15258,0,0,0-.32522.57521,5.04315,5.04315,0,0,0-.43454,1.32086l-.00537.03112-.03042-.00074-.93044-.02244-.97585-.02407-.03465-.00086.00025-.03522a2.78878,2.78878,0,0,0-.40035-1.30526c-.10534-.19747-.22176-.38326-.33013-.571a5.49919,5.49919,0,0,1-.309-.55281A1.819,1.819,0,0,1,41.15431,23.45a2.4463,2.4463,0,0,1,.401-.92364,1.81772,1.81772,0,0,1,.63518-.527,2.3018,2.3018,0,0,1,.58732-.20025,2.45532,2.45532,0,0,1,.387-.04711c.04448-.00071.07834-.00121.1011.00021a.11727.11727,0,0,1,.03422.00356.15875.15875,0,0,1-.03422.00314l-.10035.0063a2.84175,2.84175,0,0,0-.38241.059,2.34287,2.34287,0,0,0-.57567.208,1.79308,1.79308,0,0,0-.61449.52243,2.41544,2.41544,0,0,0-.38422.90694,1.76527,1.76527,0,0,0,.10409,1.116,5.518,5.518,0,0,0,.30851.54565c.10759.18483.22592.37236.33283.57129a2.84214,2.84214,0,0,1,.41125,1.33913l-.03433-.03608.97589.02354.9304.02294-.03579.03041a5.07359,5.07359,0,0,1,.44352-1.34091,6.17442,6.17442,0,0,1,.33027-.57984,3.3933,3.3933,0,0,0,.28522-.55932,2.13978,2.13978,0,0,0,.14914-1.12731,2.23157,2.23157,0,0,0-.39765-.90583,1.941,1.941,0,0,0-.61071-.53743,2.18,2.18,0,0,0-.57867-.20954,2.64071,2.64071,0,0,0-.38692-.04729l-.10121-.0067A.13721.13721,0,0,1,43.3002,21.75573Z"/>
            <path class="cls-5" d="M43.57232,27.00562l-.00467-.0298-.01075-.0879-.03779-.33817c-.03038-.29387-.07614-.71955-.097-1.248-.0046-.13212-.00834-.27065-.00769-.415.0011-.1443.00092-.29462.01556-.45025a1.25938,1.25938,0,0,1,.1251-.46677.71431.71431,0,0,1,.37365-.34508.48136.48136,0,0,1,.50865.11827.35815.35815,0,0,1,.09943.26218.45875.45875,0,0,1-.10712.26584.61563.61563,0,0,1-.23394.17386,1.2,1.2,0,0,1-.28355.08159,3.37833,3.37833,0,0,1-.59711.04526,3.46755,3.46755,0,0,1-.59682-.05306,1.12827,1.12827,0,0,1-.28013-.09331.732.732,0,0,1-.23048-.17831.54943.54943,0,0,1-.12646-.25737.42614.42614,0,0,1,.0448-.27749.37968.37968,0,0,1,.20463-.18379.34041.34041,0,0,1,.26752.02329.50671.50671,0,0,1,.19309.1781.69391.69391,0,0,1,.09056.2386,2.836,2.836,0,0,1,.02824.48226l.01022.86417c.00531.52745.00965.95469.01264,1.25134l.002.34024-.00025.08846-.00107.0302-.00188-.03013-.00271-.08846-.00744-.34013c-.0052-.29665-.01272-.72382-.022-1.25124l-.01375-.86409a2.82685,2.82685,0,0,0-.02924-.47757A.66869.66869,0,0,0,42.769,23.744a.4813.4813,0,0,0-.18305-.16834.313.313,0,0,0-.24629-.02136.35209.35209,0,0,0-.189.1709.3978.3978,0,0,0-.0416.25936.52113.52113,0,0,0,.1204.24377.85008.85008,0,0,0,.49459.26168,3.45037,3.45037,0,0,0,.59123.05235,3.35811,3.35811,0,0,0,.59184-.04473,1.17246,1.17246,0,0,0,.27675-.07927.58643.58643,0,0,0,.22343-.16549.43073.43073,0,0,0,.10114-.249.33006.33006,0,0,0-.09156-.24191.45408.45408,0,0,0-.47917-.11193.68914.68914,0,0,0-.36.33172,1.23784,1.23784,0,0,0-.12364.45712c-.015.15374-.01546.304-.01713.4479-.00125.144.00189.28226.0058.41421.0182.5277.06076.95344.08765,1.24757l.03233.33874.00784.08814Z"/>
            <path class="cls-5" d="M42.33059,27.00527c.00445.00456.0078.11738.01186.314q.00378.34139.00908.81744l-.00691-.02023c.18048.22575.38433.48077.60441.75612l-.032-.01531.73443-.01175-.03144.01431L44.003,28.429l.192-.21538-.011.02821c.00741-.43.01446-.837.02087-1.20826l.03846.03957c-.53429-.01564-.9974-.02924-1.36979-.04014l-.39565-.01631a1.07045,1.07045,0,0,1-.14733-.01139.68287.68287,0,0,1,.13105-.0072l.38711-.00452,1.39578.00143.03893,0-.00039.0396c-.00381.37126-.008.77838-.01233,1.20836l-.00017.01613-.01083.01218-.19181.21556c-.13137.14726-.26007.29146-.38386.43009l-.01268.01425-.01884.00014-.73454.00627-.02012.00018-.012-.01549c-.2156-.27892-.41524-.53722-.592-.76585l-.00726-.0094.00035-.011.02571-.83688A2.5116,2.5116,0,0,1,42.33059,27.00527Z"/>
            <path class="cls-5" d="M44.17936,28.14215A.431.431,0,0,1,44.111,28.11c-.04327-.02179-.10666-.05167-.18714-.08294a1.85474,1.85474,0,0,0-1.31812-.013c-.08109.0297-.14508.05833-.18874.07927a.42859.42859,0,0,1-.06891.0308.3319.3319,0,0,1,.06367-.041,1.54186,1.54186,0,0,1,.18661-.08846,1.761,1.761,0,0,1,1.33322.0131,1.53823,1.53823,0,0,1,.18486.0921A.33257.33257,0,0,1,44.17936,28.14215Z"/>
            <path class="cls-5" d="M44.19094,27.84889a.42592.42592,0,0,1-.06834-.0322c-.04324-.02179-.10666-.05167-.18718-.08294a1.85442,1.85442,0,0,0-1.31808-.01293c-.08113.02967-.14509.0583-.18875.07924a.422.422,0,0,1-.06894.03081.33719.33719,0,0,1,.06371-.041,1.53672,1.53672,0,0,1,.18661-.08846,1.76093,1.76093,0,0,1,1.33321.01311,1.52958,1.52958,0,0,1,.18487.09213A.3366.3366,0,0,1,44.19094,27.84889Z"/>
            <path class="cls-5" d="M44.18488,27.56937a.42439.42439,0,0,1-.06834-.03216c-.04323-.0218-.10666-.05168-.18714-.08291a1.85474,1.85474,0,0,0-1.31812-.013c-.08109.02966-.14508.0583-.18871.07924a.42608.42608,0,0,1-.06894.03084.33057.33057,0,0,1,.06371-.041,1.52967,1.52967,0,0,1,.18657-.08849,1.761,1.761,0,0,1,1.33322.0131,1.53,1.53,0,0,1,.18486.09213A.33777.33777,0,0,1,44.18488,27.56937Z"/>
          </g>
          <g>
            <path class="cls-8" d="M50.98569,35.238s-.71876,6.569.20516,10.16577l8.77736-.38365s-1.88086-6.48015-.726-9.35078Z"/>
            <g>
              <path class="cls-10" d="M51.02059,35.02686s.06011,7.09229.42076,9.25606l8.89541-.42072s-.78137-6.9721-.48084-8.83534Z"/>
              <path class="cls-11" d="M58.51526,38.0059c.002.03273-1.33282.13964-2.98092.23874-1.64871.09918-2.98641.153-2.98837.12027s1.33254-.1396,2.98121-.23875C57.17531,38.027,58.51327,37.97317,58.51526,38.0059Z"/>
              <path class="cls-11" d="M58.51765,39.5081c.002.03276-1.33283.13963-2.981.23878-1.64867.09918-2.98634.153-2.9883.12026s1.3325-.1396,2.98121-.23878C57.1777,39.52925,58.51565,39.4754,58.51765,39.5081Z"/>
              <path class="cls-11" d="M57.00562,40.98305a2.10568,2.10568,0,0,1-.49558.07187c-.307.02923-.73176.06146-1.20127.08967-.46966.02824-.89519.04718-1.20355.055a2.10052,2.10052,0,0,1-.50053-.012,2.10488,2.10488,0,0,1,.4955-.07183c.30709-.02924.7318-.06143,1.20149-.08971.46948-.02824.895-.04719,1.20334-.05495A2.10467,2.10467,0,0,1,57.00562,40.98305Z"/>
            </g>
          </g>
          <path class="cls-5" d="M71.30392,23.51078c0,.05124-5.203.09273-11.61972.09273-6.419,0-11.62082-.04149-11.62082-.09273s5.20185-.0927,11.62082-.0927C66.10093,23.41808,71.30392,23.4596,71.30392,23.51078Z"/>
          <path class="cls-5" d="M56.597,25.629c0,.05124-1.95113.09277-4.35738.09277-2.4071,0-4.3578-.04153-4.3578-.09277s1.9507-.0927,4.3578-.0927C54.64588,25.5363,56.597,25.57782,56.597,25.629Z"/>
          <path class="cls-5" d="M61.227,25.629a7.68185,7.68185,0,0,1-1.6794.09277A7.68189,7.68189,0,0,1,57.868,25.629a7.68916,7.68916,0,0,1,1.67959-.0927A7.68912,7.68912,0,0,1,61.227,25.629Z"/>
          <path class="cls-5" d="M109.80816,47.971a.27059.27059,0,0,1-.01435-.08074l-.02344-.23806-.07211-.91663c-.0557-.81374-.13426-1.96188-.23084-3.37337-.17792-2.86437-.422-6.79351-.69159-11.13389-.24854-4.34317-.4735-8.27384-.6375-11.13906-.07193-1.413-.13048-2.56223-.172-3.37676l-.03736-.91858-.005-.23917a.04128.04128,0,1,1,.01894-.00107l.02344.2381.07211.91659c.05566.81367.13422,1.9617.2308,3.37327.17792,2.86429.422,6.79368.6917,11.13546.24847,4.34156.47339,8.27173.63735,11.13688l.172,3.377.03739.9188.00506.23924A.274.274,0,0,1,109.80816,47.971Z"/>
        </g>
        <path class="cls-5" d="M107.92854,8.41566s-.06991.0062-.20637.009l-.60573.00787-2.32915.01229c-2.02972.00257-4.95467.0062-8.566.01072-7.23894-.00894-17.228-.02122-28.26072-.03479C56.36389,8.38354,45.923,8.35,38.70373,8.32688l.01488-.00178A7.04114,7.04114,0,0,0,34.999,10.64378a6.868,6.868,0,0,0-1.44586,2.98381,7.16031,7.16031,0,0,0-.13761,2.09617c.02172.23946.04388.42158.06485.54284.0187.12172.02383.1849.02383.1849a4.91362,4.91362,0,0,1-.124-.72443,7.02381,7.02381,0,0,1,1.54254-5.14661A7.12866,7.12866,0,0,1,38.689,8.20273l.00719-.00181.00787,0c7.21932.00848,17.66024.02073,29.25691.03437l28.26062.0891c3.61133.02037,6.53621.03682,8.56589.04825,1.00576.00973,1.78934.01731,2.32908.02251l.60569.01054C107.85867,8.40914,107.92854,8.41566,107.92854,8.41566Z"/>
      </g>
      <g>
        <g>
          <g>
            <path class="cls-5" d="M116.03,78.64492c-.09-.00306-1.17307,71.63335-1.17307,71.63335l8.65617-.29908,2.996-35.21861.71991-25.85494,5.89019,23.91268,7.34618,37.53178,8.64441-2.17L138.10806,78.17868l-10.35787-2.00393Z"/>
            <g>
              <path class="cls-5" d="M134.84522,34.38634c1.0355-2.04653,1.36267-5.719.17418-7.754a10.25242,10.25242,0,0,0-5.85113-4.17176,1.95268,1.95268,0,0,0-1.16014-.07408.77911.77911,0,0,0-.54925.909,4.94092,4.94092,0,0,0-1.41081-.81485,1.6735,1.6735,0,0,0-1.55433.21944,1.027,1.027,0,0,0-.149,1.44707,1.76617,1.76617,0,0,0-2.40248,2.176,5.61194,5.61194,0,0,0,1.15252,1.81124,1.58386,1.58386,0,0,1,.36335,1.58475"/>
              <g>
                <g>
                  <g>
                    <path class="cls-12" d="M126.311,51.23276c.06292-.98126.22165-9.86353.22019-9.904a3.93984,3.93984,0,0,1-3.43969-3.68754c-.06883-1.58411.05492-4.8578.20121-7.819a6.11539,6.11539,0,0,1,5.91869-5.80946l.31649-.00987c3.41938.09324,5.25053,3.04941,5.06275,6.465l-.468,19.00617"/>
                    <path class="cls-13" d="M126.53115,41.32877a7.92939,7.92939,0,0,0,4.23227-1.39571s-.98486,2.05212-4.26767,1.85853Z"/>
                  </g>
                  <g>
                    <g>
                      <g>
                        <path class="cls-5" d="M123.843,32.03782a.46866.46866,0,0,0,.46642.45865.44841.44841,0,0,0,.4698-.4375.469.469,0,0,0-.466-.45894A.44863.44863,0,0,0,123.843,32.03782Z"/>
                        <path class="cls-5" d="M124.04776,31.40673c.05994.05926.40669-.21446.911-.22877.50334-.02151.8814.22631.93414.16285.02607-.02817-.03653-.13661-.20128-.24886a1.28539,1.28539,0,0,0-.75024-.20594,1.23535,1.23535,0,0,0-.72272.25837C124.06731,31.26813,124.01827,31.38024,124.04776,31.40673Z"/>
                      </g>
                      <g>
                        <path class="cls-5" d="M128.89591,32.11075a.46883.46883,0,0,0,.46648.45861.44829.44829,0,0,0,.46977-.43742.469.469,0,0,0-.466-.459A.44866.44866,0,0,0,128.89591,32.11075Z"/>
                        <path class="cls-5" d="M129.00624,31.34662c.06007.05933.40726-.21435.9111-.22867.50335-.02158.88144.22628.93429.16278.02589-.02816-.03611-.13653-.2015-.24878a1.28638,1.28638,0,0,0-.75013-.20613,1.23688,1.23688,0,0,0-.72279.25844C129.02629,31.20805,128.977,31.32023,129.00624,31.34662Z"/>
                      </g>
                      <path class="cls-5" d="M127.29286,35.14242a3.33118,3.33118,0,0,0-.82339-.12229c-.12917-.00926-.25178-.03109-.27621-.1183a.65585.65585,0,0,1,.074-.38422q.16721-.473.35028-.99216a16.85966,16.85966,0,0,0,.77532-2.59069,16.87228,16.87228,0,0,0-.982,2.52228q-.17483.52211-.334.99743a.74576.74576,0,0,0-.05106.50736.32324.32324,0,0,0,.21751.18163.87555.87555,0,0,0,.21959.02361A3.28441,3.28441,0,0,0,127.29286,35.14242Z"/>
                      <path class="cls-5" d="M128.7874,35.445c-.08215-.00224-.06613.545-.52247.948-.45544.40424-1.04066.361-1.04258.43757-.00656.03455.13326.10224.37963.10128a1.36345,1.36345,0,0,0,.87128-.33429,1.18748,1.18748,0,0,0,.403-.7938C128.89,35.57429,128.82476,35.4406,128.7874,35.445Z"/>
                    </g>
                    <path class="cls-5" d="M128.81461,29.375c.054.1355.55537.05488,1.149.1078.59483.04092,1.07717.19928,1.15181.07393.03319-.06-.054-.18632-.251-.313a2.00575,2.00575,0,0,0-1.75284-.13846C128.89716,29.19948,128.79121,29.31059,128.81461,29.375Z"/>
                    <path class="cls-5" d="M124.18775,29.94189c.0922.11175.43579-.01791.85324-.0365.41677-.03316.77367.05295.85134-.06937.03384-.05919-.02535-.17223-.18326-.27582a1.23659,1.23659,0,0,0-1.37356.0854C124.19167,29.76782,124.14683,29.88726,124.18775,29.94189Z"/>
                  </g>
                </g>
                <g>
                  <path class="cls-14" d="M134.39826,32.9054c.05516-.026,2.23338-.73689,2.23146,1.50825a1.68761,1.68761,0,0,1-2.25935,1.71573C134.3666,36.065,134.39826,32.9054,134.39826,32.9054Z"/>
                  <path class="cls-12" d="M135.0569,35.27935c.0099-.00716.03914.02746.10521.0578a.39106.39106,0,0,0,.29233.00627.96778.96778,0,0,0,.4485-.86791,1.29157,1.29157,0,0,0-.109-.56A.4517.4517,0,0,0,135.5,33.615a.1992.1992,0,0,0-.23091.107c-.03013.06275-.01588.10759-.02781.11143-.00627.00563-.04815-.03764-.03-.13034a.24956.24956,0,0,1,.08846-.14063.29508.29508,0,0,1,.21631-.057.54961.54961,0,0,1,.40826.3484,1.32769,1.32769,0,0,1,.13508.62592,1.01529,1.01529,0,0,1-.57133.969.41884.41884,0,0,1-.35765-.05969C135.06089,35.33359,135.04911,35.28345,135.0569,35.27935Z"/>
                </g>
                <path class="cls-5" d="M121.861,25.58135a2.97665,2.97665,0,0,0,4.89583,2.49852,6.734,6.734,0,0,1,2.35294-2.03229,2.66612,2.66612,0,0,1,2.04642.21535l.01884.00976a3.41962,3.41962,0,0,1,1.61431,2.58413c.19985,1.43924-.03063,2.70849.343,4.03a.89191.89191,0,0,0,.27721.50936.71274.71274,0,0,0,.88767-.22521,2.771,2.771,0,0,0,.563-1.48133,9.23258,9.23258,0,0,0-.13479-3.6374,6.28492,6.28492,0,0,0-1.82485-3.11683,5.95374,5.95374,0,0,0-4.223-1.44756,7.31176,7.31176,0,0,0-4.19121,1.64724,4.28447,4.28447,0,0,0-1.328,1.62955"/>
              </g>
              <path class="cls-15" d="M124.23814,23.9805a.66068.66068,0,0,0-.3105.01307,1.54136,1.54136,0,0,0-.74187.41293,1.90551,1.90551,0,0,0-.55712,1.13072,2.15392,2.15392,0,0,0,.42927,1.47927,2.82273,2.82273,0,0,0,1.21487.94739,3.82325,3.82325,0,0,0,1.22457.2719,4.72962,4.72962,0,0,0,.84052-.02564.94024.94024,0,0,0,.30206-.062c-.00221-.03177-.43874.03158-1.13257-.034a3.98729,3.98729,0,0,1-1.17225-.29658,2.74895,2.74895,0,0,1-1.13742-.90216,2.04027,2.04027,0,0,1-.41093-1.36174,1.83367,1.83367,0,0,1,.486-1.06157,1.60893,1.60893,0,0,1,.67218-.43365A2.82246,2.82246,0,0,0,124.23814,23.9805Z"/>
              <path class="cls-15" d="M125.74055,22.95238c.00072-.00866-.08233-.025-.214.03782a.70884.70884,0,0,0-.3501.47923,1.30713,1.30713,0,0,0,.17108.85943,3.74829,3.74829,0,0,0,.61477.85893,3.88445,3.88445,0,0,0,1.60558,1.01766,1.848,1.848,0,0,0,.77606.13194c.00517-.03066-.29323-.06923-.73489-.24675a4.26155,4.26155,0,0,1-1.52164-1.02168,3.97042,3.97042,0,0,1-.59929-.81431,1.23978,1.23978,0,0,1-.19187-.76225.68071.68071,0,0,1,.2646-.44451C125.66591,22.97556,125.74291,22.9668,125.74055,22.95238Z"/>
            </g>
            <g>
              <path class="cls-12" d="M106.19123,52.02838l-15.43949-1.465-2.44442-.58689s-5.58347-.99861-6.10776-1.16285c-.60576-.18974-.8428.05662-.89753.28461-.08533.35534.26648.73568.78129.91456.17792.06186,3.0242.92432,3.0242.92432a7.01249,7.01249,0,0,0-.93782.3109,3.2449,3.2449,0,0,0-1.55629,2.16757c-.283,1.022-.2719,1.33318.12,1.4616a.525.525,0,0,0,.44391-.07938,1.03787,1.03787,0,0,0,.43806-.59551c.47561-1.63051,1.47791-1.79689,1.47791-1.79689l.31984.07678s-1.01082.76617-.95829,1.64319a.99751.99751,0,0,0,.09558.37325,1.32851,1.32851,0,0,0,1.54924,1.68881c.21959-.047.45385-.18711.47681-.41036a.7061.7061,0,0,0-.08475-.34106,1.0731,1.0731,0,0,1-.06176-.17756l.926.08963s2.0909.09028,2.99638.23248l14.553,3.7666a3.7272,3.7272,0,0,0,4.55808-2.73815v0A3.7272,3.7272,0,0,0,106.19123,52.02838Z"/>
              <g>
                <path class="cls-14" d="M90.411,50.969a.77435.77435,0,0,1-.63782.63863c-.31342.07853-.64425.04847-.96252.10424-.95181.1667-1.66167,1.06609-2.62039,1.187-.13365.01684-.30381-.00435-.34864-.13131-.04156-.11773.05683-.23465.14707-.3209q1.15657-1.10613,2.31323-2.21216"/>
                <path class="cls-13" d="M88.302,50.23448a1.28311,1.28311,0,0,0-.27471.21357c-.16866.14611-.40851.36189-.70224.63133-.30363.28241-.64864.6032-1.0252.95334l-.29452.27742c-.08664.09512-.24205.18073-.26257.40164a.26977.26977,0,0,0,.17437.24754.55386.55386,0,0,0,.25993.03226,2.09444,2.09444,0,0,0,.45886-.10983,12.2636,12.2636,0,0,0,1.50608-.83956,2.41032,2.41032,0,0,1,.67517-.25423c.22087-.04242.43964-.04395.6412-.06638a1.12662,1.12662,0,0,0,.86025-.4125c.13462-.19993.09843-.34533.09245-.34006a.936.936,0,0,1-.14875.29668,1.09094,1.09094,0,0,1-.81506.32724c-.19494.014-.41524.00709-.65676.046a2.48534,2.48534,0,0,0-.72606.25391,14.26473,14.26473,0,0,1-1.4897.81691,1.96691,1.96691,0,0,1-.41435.10093c-.132.01456-.248-.029-.23871-.1-.002-.07891.1042-.18073.20413-.27457q.148-.14358.29031-.28187c.36667-.36054.70252-.69084.99818-.98165.28226-.28134.50861-.51136.6621-.67325A1.27877,1.27877,0,0,0,88.302,50.23448Z"/>
              </g>
              <path class="cls-13" d="M85.43989,52.44874a1.32028,1.32028,0,0,0-.60445.01585,1.02,1.02,0,0,0-.51193.382,2.61108,2.61108,0,0,0-.34967.73241,4.16214,4.16214,0,0,1-.3198.77962,1.34222,1.34222,0,0,1-.48351.50334.52364.52364,0,0,1-.46951.02917c-.10221-.04943-.142-.09868-.13907-.1021.00627-.00965.05623.02649.15534.05922a.49416.49416,0,0,0,.41239-.0589A1.3311,1.3311,0,0,0,83.56,54.3045a4.59668,4.59668,0,0,0,.30249-.76378,2.53633,2.53633,0,0,1,.37486-.76007,1.06891,1.06891,0,0,1,.57517-.39612.95067.95067,0,0,1,.4699-.00388C85.39017,52.409,85.44252,52.44262,85.43989,52.44874Z"/>
              <path class="cls-13" d="M81.88585,49.94082a3.33061,3.33061,0,0,1,.56709.16777l1.35391.43817c.51079.15691.97286.29886,1.36057.41791a3.33054,3.33054,0,0,1,.56057.18786,2.64742,2.64742,0,0,1-.58237-.10744c-.35551-.08462-.84241-.21849-1.37424-.386-.53148-.16784-1.007-.33753-1.34678-.47222A2.65449,2.65449,0,0,1,81.88585,49.94082Z"/>
              <path class="cls-13" d="M85.87988,53.28884c.0063.00637-.0395.05527-.11539.14487a.54907.54907,0,0,0-.15687.4297.294.294,0,0,0,.19.22036,1.56439,1.56439,0,0,0,.37528.08779.66263.66263,0,0,1,.42325.20587.564.564,0,0,1,.08975.50239.64036.64036,0,0,1-.33084.38422.80151.80151,0,0,1-.46015.08668,2.59843,2.59843,0,0,1-.72279-.23775,1.52927,1.52927,0,0,1-.42225-.28989c-.0839-.0902-.10712-.15651-.1021-.15851.00926-.00552.04484.05.13344.125a1.80987,1.80987,0,0,0,.426.24782,2.788,2.788,0,0,0,.70038.20549.63414.63414,0,0,0,.665-.39558.45343.45343,0,0,0-.0666-.39779.56573.56573,0,0,0-.35334-.17133,1.56138,1.56138,0,0,1-.39722-.10627.38136.38136,0,0,1-.23023-.296.57352.57352,0,0,1,.20566-.47346C85.81962,53.31989,85.87482,53.28367,85.87988,53.28884Z"/>
              <path class="cls-13" d="M86.28355,55.19067c.00074-.00569.06588-.00245.15537.06571a.51447.51447,0,0,1,.18864.42026.68619.68619,0,0,1-.38572.56164,1.12216,1.12216,0,0,1-.83343.04448,1.358,1.358,0,0,1-.68209-.47884,1.29772,1.29772,0,0,1-.24832-.63312,1.22667,1.22667,0,0,1,.03191-.4548c.02906-.10385.05862-.15591.0651-.15353a2.13773,2.13773,0,0,0-.0145.59687,1.28023,1.28023,0,0,0,.252.57859,1.29413,1.29413,0,0,0,.6308.43233,1.04348,1.04348,0,0,0,.74988-.029.60922.60922,0,0,0,.35128-.4703.48826.48826,0,0,0-.136-.38037C86.33728,55.21909,86.2797,55.20018,86.28355,55.19067Z"/>
              <path class="cls-13" d="M88.79025,53.82769a.48261.48261,0,0,1,.08825-.27,1.11529,1.11529,0,0,1,.54188-.47938l-.002.10406a3.31911,3.31911,0,0,1-.35876-.1807,2.5389,2.5389,0,0,1-1.00216-.95444,6.42351,6.42351,0,0,0,1.06146.85266c.11759.06856.23475.12846.345.17924l.12186.05613-.12382.04793a1.16826,1.16826,0,0,0-.52357.41243C88.84,53.73417,88.80507,53.83274,88.79025,53.82769Z"/>
              <path class="cls-13" d="M83.94264,52.37485c.02155-.02258.19092.15042.21987.43311.03155.28252-.0974.48739-.12325.46987-.03152-.01353.035-.21168.00612-.45729C84.02163,52.57438,83.91469,52.39475,83.94264,52.37485Z"/>
            </g>
            <g>
              <path class="cls-10" d="M106.46787,59.57626l10.06976-2.32442s-.5209,18.46123-.51923,18.636a2.20923,2.20923,0,0,0-.76007,1.80433l.72378,1.59358,22.08108.29629.59565-17.92957,2.01505-13.90282-4.63206-2.866-1.63047-2.2122-6.369,6.71808-1.58382-5.733.04541-1.70618-1.57428,1.70853-8.49228,2.449-11.21954,5.23133L97.632,50.75965l-1.96943,6.63724Z"/>
              <path class="cls-5" d="M127.16312,47.3251a1.02676,1.02676,0,0,0-.45572.5084,2.05034,2.05034,0,0,0-.13868.77556,2.9227,2.9227,0,0,1-.15025,1.05609l-.076.18436-.07967-.1838a10.08118,10.08118,0,0,1-.49771-1.63349c-.26866-1.15366-.44028-2.20992-.55487-2.97545a7.41785,7.41785,0,0,1-.13355-1.24667,9.60959,9.60959,0,0,1,.26285,1.22481c.14736.75833.33924,1.80917.60609,2.95482a11.20542,11.20542,0,0,0,.47254,1.60618l-.15556.00057a2.94466,2.94466,0,0,0,.16389-.99479,2.03357,2.03357,0,0,1,.18739-.81167.92463.92463,0,0,1,.36382-.40645C127.09111,47.32253,127.16173,47.31858,127.16312,47.3251Z"/>
              <path class="cls-5" d="M135.33746,44.50884a1.47787,1.47787,0,0,1-.21546.30944c-.148.19138-.36673.46438-.64009.79914-.54665.66954-1.31157,1.58617-2.16516,2.59111l-1.3595,1.5861-.1053.12283-.03889-.15588c-.193-.77346-.35007-1.42794-.45516-1.88677-.0427-.2302-.17137-.362-.29555-.36442a.268.268,0,0,0-.171.04918c-.00905.00285.02454-.09423.17272-.10182a.31972.31972,0,0,1,.23415.096.69222.69222,0,0,1,.15548.29441c.13383.455.31279,1.10116.52062,1.8716l-.14412-.033c.4069-.48351.863-1.02538,1.34518-1.59831.85359-1.005,1.63432-1.90811,2.20657-2.55593.28611-.3239.52012-.58394.685-.761A1.48153,1.48153,0,0,1,135.33746,44.50884Z"/>
              <path class="cls-5" d="M125.94468,73.99659a1.15941,1.15941,0,0,1-.018-.23885l-.01545-.68514c-.011-.59509-.0114-1.4563.00139-2.52036.02464-2.128.12557-5.06809.3667-8.30709.2433-3.24.5808-6.1626.87289-8.27063.14562-1.05416.27414-1.90565.37343-2.4924l.1172-.67514a1.159,1.159,0,0,1,.05331-.23347,1.16181,1.16181,0,0,1-.01638.239l-.08269.68005-.31481,2.49877c-.25858,2.11063-.575,5.03166-.818,8.26764-.24084,3.235-.36235,6.17032-.42051,8.296l-.06032,2.51793-.01934.68486A1.161,1.161,0,0,1,125.94468,73.99659Z"/>
              <path class="cls-5" d="M124.147,78.32309a4.14618,4.14618,0,0,1-.16478-1.58446,5.71517,5.71517,0,0,1,.18347-1.58072,8.58114,8.58114,0,0,1,.00193,1.585C124.13964,77.6128,124.19755,78.31511,124.147,78.32309Z"/>
              <path class="cls-5" d="M133.194,73.14111a3.797,3.797,0,0,1-.5684.21432c-.36927.12813-.9089.29765-1.57994.49294a52.08174,52.08174,0,0,1-10.73863,1.908c-.69726.04779-1.26221.07457-1.653.08148a3.79575,3.79575,0,0,1-.60737-.00538,3.8063,3.8063,0,0,1,.60356-.0667c.41983-.03572.97478-.083,1.6461-.1401,1.38863-.12767,3.30287-.353,5.39808-.7241,2.0941-.37329,3.96863-.82112,5.31623-1.17962.64993-.1776,1.18721-.32443,1.59369-.43554A3.8137,3.8137,0,0,1,133.194,73.14111Z"/>
              <path class="cls-5" d="M116.42794,61.14547c-.05124-.00017-.08347-2.61992-.072-5.85059.01143-3.23182.06222-5.85074.11346-5.85053s.08344,2.61935.072,5.85117C116.52994,58.52623,116.47912,61.14565,116.42794,61.14547Z"/>
            </g>
          </g>
          <path class="cls-10" d="M140.26246,47.49515s2.78281,2.38662,2.96525,3.73761c.14106,1.04487,2.87765,10.85612,4.11048,15.24843a6.40625,6.40625,0,0,1-.23283,4.14228l-3.55518,8.79694-5.75263-3.40314,2.87634-8.25051-2.3819-7.00052Z"/>
          <path class="cls-5" d="M143.55022,79.42038a.51451.51451,0,0,1-.10841-.05178l-.30669-.16948-1.16327-.66581c-1.01531-.59188-2.45543-1.43136-4.21062-2.45454l-.05039-.02934.01927-.0557c.80484-2.32573,1.78317-5.15292,2.85734-8.257l.00068.062c-.33728-.90512-.68974-1.85092-1.04906-2.81522-.84181-2.26861-1.6455-4.43455-2.37784-6.40815l.00285.00677a15.12192,15.12192,0,0,1-1.53581-4.4255,6.20261,6.20261,0,0,1,.05926-1.98824,5.85485,5.85485,0,0,1,.57741-1.59942,6.651,6.651,0,0,1,1.48585-1.87541,5.31127,5.31127,0,0,1,.49957-.39619,1.26607,1.26607,0,0,1,.18462-.11923,1.27371,1.27371,0,0,1-.16734.14213c-.11293.08917-.27814.22475-.4792.41474a6.87132,6.87132,0,0,0-1.43023,1.8825,5.81329,5.81329,0,0,0-.54675,1.57524,6.11946,6.11946,0,0,0-.03967,1.94514,15.17361,15.17361,0,0,0,1.54795,4.37048l.0015.00314.00142.00377c.73615,1.97218,1.544,4.13655,2.39023,6.40355.35854.9646.71018,1.91067,1.04671,2.816l.01154.03109-.01089.031c-1.08842,3.09916-2.07973,5.92182-2.89521,8.24385l-.03109-.085,4.17874,2.50842,1.14369.69893.29626.18718A.51889.51889,0,0,1,143.55022,79.42038Z"/>
          <g class="cls-16">
            <path d="M128.72358,48.784a.85536.85536,0,0,1,.85537.62581c.07084.38376.0177.78561.11774,1.16285s.44341.74469.82553.66549a1.01847,1.01847,0,0,0,.54607-.42981,13.35974,13.35974,0,0,0,1.79429-3.3082c-.01064.02753-1.9721,2.26452-1.9721,2.26452a6.56018,6.56018,0,0,0-.4428-1.64761c-.06613-.17-.14138-.46057-.30723-.5365-.26766-.1225-.622.26927-.79907.50442a4.69634,4.69634,0,0,1-.61812.66431"/>
          </g>
          <g class="cls-16">
            <path d="M125.5079,46.75292a11.53925,11.53925,0,0,0,.71834,3.66211.82219.82219,0,0,0,.19248.31937.29532.29532,0,0,0,.34615.05,4.1286,4.1286,0,0,0,.35314-.75761c.1825-.50862.92068-.55545.92068-.55545a13.31305,13.31305,0,0,0-.48216-1.69532.47044.47044,0,0,0-.459-.29572.76317.76317,0,0,0-.506.58033,8.20951,8.20951,0,0,1-.23187,1.65181c-.34637-.97232-.62674-2.144-.85558-2.99328"/>
          </g>
          <g class="cls-16">
            <path d="M130.97025,73.73032a.7769.7769,0,0,0,.17019-1.09871,1.18705,1.18705,0,0,0-1.1117-.42283,2.51073,2.51073,0,0,0-1.12656.5078c-.33746.24377-.64943.52375-1.00409.74177a5.78367,5.78367,0,0,1-2.95991.67485,17.54563,17.54563,0,0,0-3.06537.13689,3.5246,3.5246,0,0,0-2.4956,1.61566S128.1311,75.249,130.97025,73.73032Z"/>
          </g>
          <path class="cls-12" d="M136.69415,86.592a7.24009,7.24009,0,0,1-2.29351-2.36352.0906.0906,0,0,0,.00281-.07721.12782.12782,0,0,0-.08721-.053,12.31234,12.31234,0,0,1-.67122-1.17641c.71488-.46481,1.6486-1.16805.63294-1.31253a3.24372,3.24372,0,0,1-2.2711-1.11812c-.12728-.33262.2891-.63126.61858-.41862a4.60077,4.60077,0,0,0,1.2032.41524,3.00748,3.00748,0,0,0,1.01908.06456c.21147-.02343.95679-.53454,1.75358-.90857a.618.618,0,0,1,.36271-.048l.30474-.021a.94435.94435,0,0,0,.77318-.5068l1.15494-2.22291,3.49014,2.06469-2.76216,3.83394A46.1327,46.1327,0,0,1,136.69415,86.592Z"/>
          <path class="cls-15" d="M137.41444,86.99354a2.85311,2.85311,0,0,1-.80481-.37977,7.28768,7.28768,0,0,1-2.8348-3.17052,2.853,2.853,0,0,1-.28768-.84206,9.30774,9.30774,0,0,0,3.92729,4.39235Z"/>
          <path class="cls-15" d="M126.41872,89.23968c-.00267.0058-.03579-.00463-.09769-.03063a1.154,1.154,0,0,1-.24739-.15744,2.08927,2.08927,0,0,1-.56991-.90519,14.8063,14.8063,0,0,1-.38728-1.52563c-.12785-.576-.26132-1.21093-.39223-1.87916-.2625-1.33684-.46261-2.554-.5906-3.43726-.06339-.44173-.10968-.79992-.13664-1.04817a1.56942,1.56942,0,0,1-.02283-.38832,1.57436,1.57436,0,0,1,.09416.37731l.19473,1.038c.16093.87685.38112,2.0882.64319,3.42281.1333.66395.26036,1.29653.37735,1.87911.12343.57614.2121,1.10171.3443,1.51905a2.18968,2.18968,0,0,0,.49451.89422C126.29764,89.16742,126.42687,89.22415,126.41872,89.23968Z"/>
          <path class="cls-15" d="M126.12118,81.24251c.00082-.01043.0589-.02147.1579.0114a.63068.63068,0,0,1,.29195.94063.71857.71857,0,0,1-.74818.2845.74319.74319,0,0,1-.52289-.6054.68476.68476,0,0,1,.224-.61193c.2954-.25427.56171-.17949.54775-.16261a1.10773,1.10773,0,0,0-.4552.25552.56454.56454,0,0,0-.148.49081.58808.58808,0,0,0,.4016.45427.56181.56181,0,0,0,.56289-.20594.48064.48064,0,0,0,.05338-.49388C126.35469,81.3027,126.1079,81.26965,126.12118,81.24251Z"/>
          <path class="cls-15" d="M118.54887,79.81272a2.072,2.072,0,0,1,.0933.82029,4.41694,4.41694,0,0,1-1.84068,3.42152,2.07261,2.07261,0,0,1-.73583.37418c-.01478-.02959.26717-.16891.65712-.47909a4.83456,4.83456,0,0,0,1.78848-3.32448C118.55521,80.12881,118.516,79.81671,118.54887,79.81272Z"/>
        </g>
        <path class="cls-5" d="M104.72935,54.82551a11.92246,11.92246,0,0,1,.17923-1.76908,11.92348,11.92348,0,0,1,.25894-1.75939,6.7485,6.7485,0,0,1-.07489,1.78222A6.74873,6.74873,0,0,1,104.72935,54.82551Z"/>
        <path class="cls-5" d="M97.632,50.75965a.4956.4956,0,0,1-.02414.12529l-.0938.35829-.3787,1.35366c-.34206,1.18147-.82193,2.83873-1.39633,4.82265l-.05719-.1c2.01341.49978,4.43971.9064,7.0273,1.38321,1.28934.23971,2.53346.50156,3.67978.78682l-.0416-.00036c2.901-.65612,5.41464-1.22463,7.22417-1.63392l2.10365-.45873.56446-.11513a.9655.9655,0,0,1,.19754-.02956.96667.96667,0,0,1-.19053.06l-.55779.14391-2.0919.50975c-1.80583.42528-4.3144,1.016-7.20939,1.69782l-.02055.0048-.02119-.00516c-1.14283-.27988-2.38328-.5386-3.67087-.778-2.5835-.47614-5.01478-.89315-7.03158-1.41074l-.0813-.02087.02411-.07924c.6006-1.97616,1.10234-3.6269,1.46-4.80374.17707-.56424.31827-1.01413.42094-1.34116l.11677-.35146A.4955.4955,0,0,1,97.632,50.75965Z"/>
      </g>
      <g>
        <polygon class="cls-10" points="182.49 56.233 180.982 53.661 179.55 56.233 159.246 56.233 159.246 66.849 190.863 66.849 190.863 56.233 182.49 56.233"/>
        <g>
          <path class="cls-6" d="M164.93172,61.634a1.55726,1.55726,0,0,0,.94017-1.43279,1.46358,1.46358,0,1,0-2.92085-.03832,1.555,1.555,0,0,0,.91826,1.4621c-2.25041.31951-2.16918,2.76308-2.16918,2.76308l5.31453.0697S167.15685,61.98941,164.93172,61.634Z"/>
          <path class="cls-6" d="M187.25513,59.37978c0,.03006-4.03537.05442-9.01211.05442-4.97849,0-9.013-.02436-9.013-.05442s4.03451-.05438,9.013-.05438C183.21976,59.3254,187.25513,59.34976,187.25513,59.37978Z"/>
          <path class="cls-6" d="M187.25513,60.99832c0,.03006-4.03537.05442-9.01211.05442-4.97849,0-9.013-.02436-9.013-.05442s4.03451-.05438,9.013-.05438C183.21976,60.94394,187.25513,60.9683,187.25513,60.99832Z"/>
          <path class="cls-6" d="M187.25513,62.61687c0,.03005-4.03537.05441-9.01211.05441-4.97849,0-9.013-.02436-9.013-.05441s4.03451-.05438,9.013-.05438C183.21976,62.56249,187.25513,62.58685,187.25513,62.61687Z"/>
          <path class="cls-6" d="M178.24259,64.21889c0,.03005-2.01772.05438-4.50609.05438-2.48923,0-4.50648-.02433-4.50648-.05438s2.01725-.05438,4.50648-.05438C176.22487,64.16451,178.24259,64.18886,178.24259,64.21889Z"/>
        </g>
      </g>
    </g>
    <g class="cls-17">
      <rect class="cls-9" x="-27.68001" y="107.87622" width="206.99263" height="140.5271"/>
    </g>
  </g>
</svg>
