<svg xmlns="http://www.w3.org/2000/svg" xmlns:xlink="http://www.w3.org/1999/xlink" width="67.66981mm" height="40.40003mm" viewBox="0 0 191.81995 114.51978">
  <defs>
    <style>
      .cls-1, .cls-10, .cls-13, .cls-14, .cls-15, .cls-16, .cls-17, .cls-21, .cls-22, .cls-23, .cls-24, .cls-26, .cls-27, .cls-29, .cls-30, .cls-31, .cls-32, .cls-33, .cls-34, .cls-37, .cls-38 {
        fill: none;
      }

      .cls-2 {
        clip-path: url(#clip-path);
      }

      .cls-3 {
        fill: #fedcd0;
      }

      .cls-4 {
        fill: #88d8fd;
      }

      .cls-5 {
        clip-path: url(#clip-path-2);
      }

      .cls-36, .cls-6 {
        fill: #fff;
      }

      .cls-10, .cls-12, .cls-13, .cls-14, .cls-15, .cls-16, .cls-17, .cls-18, .cls-19, .cls-20, .cls-21, .cls-22, .cls-23, .cls-24, .cls-25, .cls-26, .cls-27, .cls-28, .cls-29, .cls-30, .cls-31, .cls-32, .cls-33, .cls-34, .cls-35, .cls-36, .cls-6, .cls-7, .cls-9 {
        stroke: #2e3192;
      }

      .cls-10, .cls-12, .cls-18, .cls-19, .cls-20, .cls-21, .cls-25, .cls-28, .cls-35, .cls-37, .cls-38, .cls-6, .cls-7, .cls-9 {
        stroke-miterlimit: 10;
      }

      .cls-12, .cls-13, .cls-14, .cls-15, .cls-16, .cls-17, .cls-18, .cls-19, .cls-20, .cls-21, .cls-22, .cls-23, .cls-24, .cls-25, .cls-26, .cls-27, .cls-28, .cls-29, .cls-30, .cls-31, .cls-32, .cls-33, .cls-34, .cls-35, .cls-36, .cls-6, .cls-7, .cls-9 {
        stroke-width: 0.33698px;
      }

      .cls-7 {
        fill: #a8e6ce;
      }

      .cls-8 {
        fill: #fafbef;
      }

      .cls-9 {
        fill: #d5e963;
      }

      .cls-10 {
        stroke-width: 0.16849px;
      }

      .cls-11 {
        fill: #2e3192;
      }

      .cls-12 {
        fill: #fff8e8;
      }

      .cls-13, .cls-14, .cls-15, .cls-16, .cls-17, .cls-22, .cls-23, .cls-24, .cls-26, .cls-27, .cls-29, .cls-30, .cls-31, .cls-32, .cls-33, .cls-34, .cls-36 {
        stroke-linecap: round;
        stroke-linejoin: round;
      }

      .cls-14 {
        stroke-dasharray: 1.07702 1.07702;
      }

      .cls-15 {
        stroke-dasharray: 1.09945 1.09945;
      }

      .cls-16 {
        stroke-dasharray: 1.22624 1.22624;
      }

      .cls-17 {
        stroke-dasharray: 1.04661 1.04661;
      }

      .cls-18 {
        fill: #eb383f;
      }

      .cls-19 {
        fill: #87ccc2;
      }

      .cls-20 {
        fill: #ffdf9e;
      }

      .cls-22 {
        stroke-dasharray: 0.66699 0.66699;
      }

      .cls-23 {
        stroke-dasharray: 1.22121 1.22121;
      }

      .cls-24 {
        stroke-dasharray: 1.16726 1.16726;
      }

      .cls-25 {
        fill: #bf5459;
      }

      .cls-26 {
        stroke-dasharray: 1.1263 1.1263;
      }

      .cls-27 {
        stroke-dasharray: 1.10821 1.10821;
      }

      .cls-28 {
        fill: #ff8f75;
      }

      .cls-29 {
        stroke-dasharray: 1.06329 1.06329;
      }

      .cls-30 {
        stroke-dasharray: 1.15101 1.15101;
      }

      .cls-31 {
        stroke-dasharray: 0.88072 0.88072;
      }

      .cls-32 {
        stroke-dasharray: 1.13549 1.13549;
      }

      .cls-33 {
        stroke-dasharray: 1.12633 1.12633;
      }

      .cls-34 {
        stroke-dasharray: 1.07976 1.07976;
      }

      .cls-35 {
        fill: #ffd754;
      }

      .cls-37, .cls-38 {
        stroke: #fff;
      }

      .cls-37 {
        stroke-width: 0.5px;
      }

      .cls-38 {
        stroke-width: 0.43948px;
      }

      .cls-39 {
        clip-path: url(#clip-path-3);
      }

      .cls-40 {
        fill: #e8f2fa;
      }
    </style>
    <clipPath id="clip-path">
      <path class="cls-1" d="M464.66211,9.86V71.33a60.49616,60.49616,0,0,1-10.15,6c-16.32,7.56005-34.85,3.88-71.25-3.79C334.97217,63.36,332.42212,55.96,306.72217,55.35A124.03687,124.03687,0,0,0,272.842,59.14V9.86A9.86716,9.86716,0,0,1,282.70215,0h172.1A9.86071,9.86071,0,0,1,464.66211,9.86Z"/>
    </clipPath>
    <clipPath id="clip-path-2">
      <path class="cls-1" d="M154.92993,16.49c-.65991,14.2-4.8999,26.33984-8.08,32.08-14.92,26.95-73.67,34.18994-146.85,16.31994v-55.02A9.86909,9.86909,0,0,1,9.86,0H154.15991A91.4187,91.4187,0,0,1,154.92993,16.49Z"/>
    </clipPath>
    <clipPath id="clip-path-3">
      <path class="cls-1" d="M164.87,198.39793c-17.98,15.32984-47.79,8.07984-56.09,6.06006-27.51-6.69018-28.55994-20.36011-52.03992-25.26025C30.26,173.668,12.68005,187.09788,0,188.9077V140.21776a9.86062,9.86062,0,0,1,9.86-9.85987H174.55005C183.39,153.19774,181.93005,183.84788,164.87,198.39793Z"/>
    </clipPath>
  </defs>
  <title>cards</title>
  <g id="Layer_1" data-name="Layer 1">
    <g class="cls-2">
      <ellipse class="cls-3" cx="355.54085" cy="23.33684" rx="170.96704" ry="71.42526"/>
    </g>
    <g>
      <path class="cls-4" d="M154.92993,16.49c-.65991,14.2-4.8999,26.33984-8.08,32.08-14.92,26.95-73.67,34.18994-146.85,16.31994v-55.02A9.86909,9.86909,0,0,1,9.86,0H154.15991A91.4187,91.4187,0,0,1,154.92993,16.49Z"/>
      <g class="cls-5">
        <g>
          <path class="cls-6" d="M66.57334,20.79862H83.11557a2.51472,2.51472,0,0,1,2.51472,2.51472V58.51287a2.51467,2.51467,0,0,1-2.51467,2.51467H66.57317a2.51466,2.51466,0,0,1-2.51466-2.51466V23.31344A2.51483,2.51483,0,0,1,66.57334,20.79862Z"/>
          <path class="cls-7" d="M66.84285,23.98971H82.8461a.73961.73961,0,0,1,.73961.73961V55.34945a.73961.73961,0,0,1-.73961.73961H66.84266a.7396.7396,0,0,1-.7396-.7396v-30.62A.73978.73978,0,0,1,66.84285,23.98971Z"/>
          <path class="cls-7" d="M76.37972,58.41384a1.53524,1.53524,0,1,1-1.53532-1.53515A1.53505,1.53505,0,0,1,76.37972,58.41384Z"/>
          <path class="cls-7" d="M76.98127,22.39351a.351.351,0,0,1-.351.35113h-3.5715a.35115.35115,0,0,1-.35113-.35113h0a.3511.3511,0,0,1,.35113-.351h3.5715a.351.351,0,0,1,.351.351Z"/>
        </g>
        <g>
          <g>
            <path class="cls-8" d="M110.59587,66.2173c-1.50587-2.16552-4.909-3.806-4.63706-5.95009s3.30593-4.1153,1.72241-6.75287c-.90283-1.50323-1.7721-1.07788-1.5985-.15268a4.1886,4.1886,0,0,1-.77746,3.23221c.48408-3.85105-.66243-5.05647-1.57036-5.91355-1.37917-1.30217-3.28125-.94544-1.77422.84721,1.36287,1.62121,1.04219,4.32756.88571,4.81821-.92306-3.97757-3.20655-5.181-4.78942-5.48706-1.58254-.30638-2.90215,1.36041-.43669,2.21026a4.13491,4.13491,0,0,1,2.46349,5.56851,3.54729,3.54729,0,0,1-5.45513.98773c-1.67716-1.56559-1.007-2.72017-2.24928-2.91267-1.24209-.19269-.98476,3.44842,1.37556,5.063,2.36032,1.615,7.61226,3.89333,10.48035,8.78312C107.36431,68.51738,110.59587,66.2173,110.59587,66.2173Z"/>
            <path class="cls-9" d="M122.10359,81.4334c-1.98927-5.555-6.16544-13.40437-10.87818-17.69209-2.0663,2.23987-7.88606,7.04772-7.88606,7.04772a75.92445,75.92445,0,0,1,6.34712,10.64437Z"/>
            <path class="cls-10" d="M103.60673,50.72572c-.40395.74339-1.56494.454-2.05394-.66505"/>
            <path class="cls-10" d="M107.82174,53.76708c-.58971.40346-1.30941-.31329-1.47477-1.05355"/>
            <path class="cls-10" d="M97.82432,50.89324c.26984.58773-.47387,1.44564-1.49222.83882"/>
            <path class="cls-10" d="M92.05951,56.89646a1.39087,1.39087,0,0,1-.16059,2.26521"/>
            <path class="cls-11" d="M105.42186,55.44133c-.02246.47046-.12476.92407-.15576,1.38818a12.00155,12.00155,0,0,0-.14942,1.38282,4.71231,4.71231,0,0,1-.01709-1.40479A8.72786,8.72786,0,0,1,105.42186,55.44133Z"/>
            <path class="cls-11" d="M102.5891,55.58684a3.99184,3.99184,0,0,1,.29882,1.18628,5.12229,5.12229,0,0,1-.02026,1.22265c-.01636-.20288-.05469-.40258-.06811-.604l-.07886-.60107A11.98349,11.98349,0,0,0,102.5891,55.58684Z"/>
          </g>
          <path class="cls-12" d="M72.30226,50.40669a1.01694,1.01694,0,1,1-1.01686-1.017A1.017,1.017,0,0,1,72.30226,50.40669Z"/>
          <g>
            <line class="cls-13" x1="71.41478" y1="51.42375" x2="71.41478" y2="52.01335"/>
            <polyline class="cls-13" points="71.415 52.609 71.415 53.199 72.004 53.199"/>
            <line class="cls-14" x1="73.08153" y1="53.19865" x2="81.15916" y2="53.19865"/>
            <polyline class="cls-13" points="81.698 53.199 82.287 53.199 82.287 52.609"/>
            <line class="cls-15" x1="82.28734" y1="51.50969" x2="82.28734" y2="45.46257"/>
            <polyline class="cls-13" points="82.287 44.913 82.287 44.323 82.877 44.323"/>
            <line class="cls-16" x1="84.10326" y1="44.32317" x2="90.84764" y2="44.32317"/>
            <polyline class="cls-13" points="91.461 44.323 92.051 44.323 92.051 44.913"/>
            <line class="cls-17" x1="92.05052" y1="45.9594" x2="92.05052" y2="51.71574"/>
            <line class="cls-13" x1="92.05052" y1="52.23918" x2="92.05052" y2="52.82878"/>
          </g>
          <path class="cls-18" d="M93.7592,52.58831c-2.24266-2.0778-5.81745,1.5-.00527,4.65714l.00527.00295.00559-.00295C99.577,54.08827,96.002,50.51051,93.7592,52.58831Z"/>
        </g>
        <g>
          <g>
            <path class="cls-8" d="M31.94,26.29918c2.46537-.93671,6.20042-.3694,7.18667-2.29252s-.405-5.2633,2.39151-6.54588c1.59365-.73106,2.071.1109,1.40533.77663A4.18873,4.18873,0,0,0,41.74,21.34392c1.775-3.45156,3.40185-3.79923,4.635-3.994,1.87378-.29585,3.242,1.07231.9861,1.701-2.04013.56865-3.30355,2.98342-3.45147,3.47639,3.0077-2.76131,5.57181-2.46529,7.051-1.82441,1.47929.641,1.62722,2.76146-.88752,2.07106A4.13486,4.13486,0,0,0,44.89581,25.979a3.54762,3.54762,0,0,0,3.9446,3.89549c2.26826-.34537,2.367-1.67666,3.501-1.13435,1.134.5425-1.13418,3.40236-3.99412,3.40236-2.85977,0-8.48093-1.08482-13.60906,1.33129C33.30821,30.02222,31.94,26.29918,31.94,26.29918Z"/>
            <path class="cls-19" d="M-4.72848,51.70112c5.10921-3.4206,35.53527-15.95244,40.07615-17.53153,0,0-2.08875-7.25371-2.52955-10.26923-4.333.60271-33.24578,12.02948-37.5466,14.427Z"/>
            <path class="cls-10" d="M46.45533,17.45963c-.0863.84162,1.03536,1.25839,2.07072.61126"/>
            <path class="cls-10" d="M41.25924,17.59028c.25892.66554,1.25742.48061,1.81208-.037"/>
            <path class="cls-10" d="M51.13327,20.863c-.55466.33287-.42526,1.46078.75812,1.53483"/>
            <path class="cls-10" d="M52.50165,29.07282c-.85058-.11073-1.59026,1.18338-1.14649,1.96016"/>
            <path class="cls-11" d="M42.29466,20.32683a8.7074,8.7074,0,0,1-.50537,1.30957,4.7062,4.7062,0,0,1-.80737,1.14966,12.01259,12.01259,0,0,0,.65747-1.22559C41.876,21.16008,42.04759,20.728,42.29466,20.32683Z"/>
            <path class="cls-11" d="M44.55052,22.04655a11.9828,11.9828,0,0,0-.78833.91919l-.40454.45142c-.12476.15869-.26929.30176-.39722.46a5.12453,5.12453,0,0,1,.67359-1.02026A3.98651,3.98651,0,0,1,44.55052,22.04655Z"/>
          </g>
          <g>
            <rect class="cls-20" x="49.80198" y="22.93402" width="8.17284" height="5.73206" rx="0.59168"/>
            <path class="cls-21" d="M49.82781,23.36182l3.64233,3.64241a.59177.59177,0,0,0,.83677,0l3.64216-3.64208"/>
          </g>
          <g>
            <line class="cls-13" x1="58.52953" y1="25.66887" x2="59.11937" y2="25.66887"/>
            <line class="cls-22" x1="59.78636" y1="25.66887" x2="60.78685" y2="25.66887"/>
            <polyline class="cls-13" points="61.12 25.669 61.71 25.669 61.71 26.258"/>
            <line class="cls-23" x1="61.70995" y1="27.47966" x2="61.70995" y2="36.63884"/>
            <polyline class="cls-13" points="61.71 37.249 61.71 37.839 62.3 37.839"/>
            <line class="cls-24" x1="63.46703" y1="37.83904" x2="76.89037" y2="37.83904"/>
            <line class="cls-13" x1="77.47411" y1="37.83904" x2="78.06371" y2="37.83904"/>
          </g>
          <path class="cls-12" d="M79.33337,37.92982A1.01694,1.01694,0,1,1,78.31651,36.913,1.01693,1.01693,0,0,1,79.33337,37.92982Z"/>
        </g>
        <g>
          <g>
            <path class="cls-8" d="M30.68519,62.40162c2.10168-1.59339,5.84527-2.10117,6.2498-4.22439.40452-2.12306-1.8713-4.936.45059-6.95443,1.32322-1.15046,2.01832-.477,1.56707.349a4.18989,4.18989,0,0,0-.2603,3.31432c.73089-3.81188,2.19389-4.60381,3.32223-5.13807,1.71442-.81185,3.4127.11566,1.42531,1.35432-1.79735,1.12052-2.32939,3.7933-2.33234,4.308,2.10808-3.49681,4.65161-3.93513,6.25151-3.7367,1.5999.19811,2.33918,2.191-.26828,2.23709a4.13482,4.13482,0,0,0-4.0647,4.53355,3.54739,3.54739,0,0,0,4.88221,2.62655c2.079-.97014,1.79874-2.27542,3.03963-2.07451s-.12982,3.584-2.87369,4.38975c-2.7441.80557-8.44318,1.34822-12.68295,5.11108C33.04683,65.58809,30.68519,62.40162,30.68519,62.40162Z"/>
            <path class="cls-25" d="M30.85205,59.85224c-3.34254,1.508-12.45239,7.8089-15.54245,10.70643V87.68855C19.21075,82.2915,31.52954,72.3092,36.172,68.9934,36.172,68.9934,32.12442,62.62145,30.85205,59.85224Z"/>
            <path class="cls-10" d="M42.12243,49.8308c.15433.83174,1.3479.91583,2.15907.00313"/>
            <path class="cls-10" d="M37.17357,51.41976c.43594.56585,1.342.10711,1.72832-.54578"/>
            <path class="cls-10" d="M47.56976,51.77846c-.43843.47567.00345,1.5215,1.15976,1.25921"/>
            <path class="cls-10" d="M51.19538,59.27043a1.39048,1.39048,0,0,0-.54783,2.20351"/>
            <path class="cls-11" d="M38.93822,53.75383a8.72328,8.72328,0,0,1-.116,1.39893,4.7182,4.7182,0,0,1-.45117,1.33081,12.01586,12.01586,0,0,0,.28589-1.36133C38.771,54.67155,38.81419,54.20842,38.93822,53.75383Z"/>
            <path class="cls-11" d="M41.58714,54.76848a11.97758,11.97758,0,0,0-.49756,1.104l-.261.54712c-.075.1875-.17334.36548-.25171.55322a5.12027,5.12027,0,0,1,.35913-1.1687A3.98,3.98,0,0,1,41.58714,54.76848Z"/>
          </g>
          <g>
            <path class="cls-20" d="M56.52169,58.26937a.70568.70568,0,0,1-.5916.77992H49.32885a.70572.70572,0,0,1-.59169-.77992v-.19514a.70562.70562,0,0,1,.59169-.77992h6.60124a.70558.70558,0,0,1,.5916.77992Z"/>
            <path class="cls-7" d="M56.08377,58.03622c-.576,0-.576-.59151-1.15194-.59151-.5763,0-.5763.59151-1.15236.59151-.57638,0-.57638-.59151-1.1526-.59151s-.5763.59151-1.15234.59151c-.57655,0-.57655-.59151-1.1531-.59151s-.57664.59151-1.15317.59151a.6207.6207,0,0,1,.22188-1.2204c1.03545,0,5.8985.01844,6.63809.01844S56.731,58.03622,56.08377,58.03622Z"/>
            <path class="cls-18" d="M56.52169,56.28915a.63315.63315,0,0,1-.5916.66785H49.32885a.63321.63321,0,0,1-.59169-.66785v-.167a.63327.63327,0,0,1,.59169-.6677h6.60124a.63321.63321,0,0,1,.5916.6677Z"/>
            <path class="cls-7" d="M56.08377,56.08824c-.576,0-.576-.59168-1.152-.59168-.57621,0-.57621.59168-1.15227.59168-.57638,0-.57638-.59168-1.15268-.59168s-.57622.59168-1.15234.59168c-.57656,0-.57656-.59168-1.15311-.59168s-.57655.59168-1.15308.59168a.62061.62061,0,0,1,.22188-1.22023c1.03545,0,5.8985.01844,6.63809.01844S56.731,56.08824,56.08377,56.08824Z"/>
            <path class="cls-20" d="M52.66645,50.32556l-.037.00117-.03694-.00117a3.89087,3.89087,0,0,0-4.0865,3.86456c0,.49921.55475.7582.99851.7582h6.25c.44376,0,.99843-.259.99843-.7582A3.8908,3.8908,0,0,0,52.66645,50.32556Z"/>
          </g>
          <g>
            <line class="cls-13" x1="57.32616" y1="56.45378" x2="57.91576" y2="56.45378"/>
            <polyline class="cls-13" points="59.547 56.454 60.137 56.454 60.137 55.864"/>
            <line class="cls-26" x1="60.1367" y1="54.73772" x2="60.1367" y2="48.54314"/>
            <polyline class="cls-13" points="60.137 47.98 60.137 47.39 60.726 47.39"/>
            <line class="cls-27" x1="61.8347" y1="47.3903" x2="79.01195" y2="47.3903"/>
            <polyline class="cls-13" points="79.566 47.39 80.156 47.39 80.156 47.98"/>
            <line class="cls-13" x1="80.15575" y1="49.55705" x2="80.15575" y2="50.14665"/>
          </g>
          <path class="cls-12" d="M81.11729,50.46115a1.017,1.017,0,1,1-1.017-1.017A1.01717,1.01717,0,0,1,81.11729,50.46115Z"/>
          <path class="cls-21" d="M30.85205,59.85224S17.75884,72.159,23.7336,79.07607"/>
          <path class="cls-21" d="M36.172,68.9934S17.11083,69.651,15.3096,78.651"/>
        </g>
        <g>
          <g>
            <path class="cls-8" d="M112.99305,16.21159c-2.5344.7304-5.18119,3.42621-7.1244,2.47978-1.943-.94644-2.835-4.45293-5.84148-3.80038-1.71352.37187-1.5901,1.33179-.65816,1.46474a4.18819,4.18819,0,0,1,2.81116,1.7744c-3.49137-1.69541-5.00118-.99694-6.10459-.41251-1.67616.8877-1.94929,2.80343.23235,1.95226,1.97315-.7697,4.433.40346,4.84732.70917-4.06315-.40362-5.93642,1.3721-6.73493,2.77281-.79835,1.40041.35606,3.18533,1.95308,1.12365a4.13459,4.13459,0,0,1,6.06461-.544,3.54755,3.54755,0,0,1-.8171,5.48344c-2.02121,1.085-2.8992.07947-3.48084,1.19406-.58166,1.11443,2.94937,2.04046,5.23664.324,2.28758-1.71648,6.13254-5.958,11.68444-7.10317C114.13315,20.01065,112.99305,16.21159,112.99305,16.21159Z"/>
            <path class="cls-28" d="M157.83994,9.556c-33.4012.8743-41.65828,2.31321-46.9892,5.26389,1.45732,2.67656,4.14064,9.73235,4.14064,9.73235,3.94335-1.25938,9.837-2.44473,42.84856-3.62854Z"/>
            <path class="cls-10" d="M96.0774,17.85354c.57407.6213-.07289,1.628-1.28949,1.73161"/>
            <path class="cls-10" d="M100.31182,14.83917c.19251.68778-.71739,1.13911-1.47165,1.05815"/>
            <path class="cls-10" d="M94.37836,23.38322c.64351-.06647,1.21694.91335.31492,1.68274"/>
            <path class="cls-10" d="M98.21164,30.7712c.61374-.59925,1.9822-.0079,2.09327.87963"/>
            <path class="cls-11" d="M101.12621,17.64958c.43823.17261.835.415,1.2644.59351a11.98962,11.98962,0,0,0,1.26172.58545,4.7035,4.7035,0,0,1-1.33594-.43482A8.696,8.696,0,0,1,101.12621,17.64958Z"/>
            <path class="cls-11" d="M100.354,20.37907a3.98513,3.98513,0,0,1,1.21948.0979,5.12735,5.12735,0,0,1,1.15112.41163c-.19726-.04956-.39868-.07715-.594-.1294l-.59448-.11816A11.86237,11.86237,0,0,0,100.354,20.37907Z"/>
          </g>
          <g>
            <line class="cls-13" x1="75.35106" y1="44.58879" x2="75.35106" y2="43.99919"/>
            <line class="cls-29" x1="75.35106" y1="42.93596" x2="75.35106" y2="34.96111"/>
            <path class="cls-13" d="M75.35106,34.42961v-.58984h.58642"/>
            <path class="cls-30" d="M77.08714,33.83977H94.936"/>
            <path class="cls-13" d="M95.51268,33.83977h.585v-.5896"/>
            <line class="cls-31" x1="96.09764" y1="32.36931" x2="96.09764" y2="31.04826"/>
            <line class="cls-13" x1="96.09764" y1="30.60808" x2="96.09764" y2="30.01823"/>
          </g>
          <circle class="cls-12" cx="75.32025" cy="45.01424" r="1.01701"/>
          <g>
            <path class="cls-6" d="M99.14244,27.79962a2.98318,2.98318,0,1,1-2.98327-2.98328A2.98312,2.98312,0,0,1,99.14244,27.79962Z"/>
            <path class="cls-18" d="M96.04613,29.04682c-.48949.27858-.88671.04574-.88308-.51714l.00889-1.44779c.00361-.56272.40394-.7906.88982-.50612l1.24919.73154a.541.541,0,0,1-.00658,1.0236Z"/>
          </g>
        </g>
        <g>
          <g>
            <path class="cls-8" d="M84.04512-5.21442C82.81305-2.88255,82.91769.8938,80.88793,1.63636c-2.02976.7429-5.17378-1.048-6.79,1.57-.92109,1.49205-.14414,2.06877.59827,1.49008a4.19034,4.19034,0,0,1,3.22842-.79341c-3.64356,1.3382-4.18818,2.90971-4.53273,4.10987-.52389,1.8231.66639,3.349,1.56708,1.18748.81463-1.95506,3.36615-2.91268,3.87375-2.9989-3.10964,2.646-3.1307,5.22709-2.67606,6.77376.45444,1.547,2.5408,1.95408,2.16418-.62656A4.1349,4.1349,0,0,1,82.13712,7.604a3.54766,3.54766,0,0,1,3.38178,4.39289c-.62115,2.20878-1.9544,2.14312-1.5554,3.33521.39918,1.19209,3.51572-.708,3.86668-3.54616.35113-2.83831-.03537-8.55013,2.992-13.3425C87.57219-3.39954,84.04512-5.21442,84.04512-5.21442Z"/>
            <path class="cls-10" d="M73.4909,8.10605c.84573.0176,1.12183,1.18189.35211,2.13"/>
            <path class="cls-10" d="M74.258,2.96535c.6292.33845.32282,1.30693-.259,1.79381"/>
            <path class="cls-10" d="M76.294,13.16629c.39868-.50957,1.50224-.24286,1.43035.94084"/>
            <path class="cls-10" d="M84.274,15.532c-.00576-.85791,1.3698-1.433,2.08587-.89707"/>
            <path class="cls-11" d="M76.84691,4.32878c.42847-.1958.87842-.31348,1.30493-.499a12.01082,12.01082,0,0,0,1.29712-.502,4.721,4.721,0,0,1-1.24024.66016A8.70124,8.70124,0,0,1,76.84691,4.32878Z"/>
            <path class="cls-11" d="M78.2766,6.77873a3.99478,3.99478,0,0,1,.91674-.81006,5.13661,5.13661,0,0,1,1.09546-.54345l-.50537.33789-.4978.34619A11.93579,11.93579,0,0,0,78.2766,6.77873Z"/>
          </g>
          <g>
            <line class="cls-13" x1="80.97215" y1="17.0634" x2="80.97215" y2="17.65324"/>
            <line class="cls-32" x1="80.97215" y1="18.7885" x2="80.97215" y2="29.57585"/>
            <polyline class="cls-13" points="80.972 30.143 80.972 30.733 80.383 30.733"/>
            <line class="cls-33" x1="79.25609" y1="30.73308" x2="70.80858" y2="30.73308"/>
            <polyline class="cls-13" points="70.246 30.733 69.656 30.733 69.656 31.323"/>
            <line class="cls-34" x1="69.65575" y1="32.40276" x2="69.65575" y2="40.5009"/>
            <line class="cls-13" x1="69.65575" y1="41.0407" x2="69.65575" y2="41.63054"/>
          </g>
          <path class="cls-12" d="M70.61738,41.66125a1.017,1.017,0,1,1-1.017-1.01685A1.017,1.017,0,0,1,70.61738,41.66125Z"/>
          <g>
            <path class="cls-35" d="M83.61436,13.32179a2.22507,2.22507,0,1,1-2.22508-2.22507A2.22512,2.22512,0,0,1,83.61436,13.32179Z"/>
            <path class="cls-36" d="M84.3844,15.98617a1.282,1.282,0,0,0-1.27387-1.28982,1.25641,1.25641,0,0,0-.72413.2292,1.85666,1.85666,0,0,0,.0107-.19695,1.81469,1.81469,0,0,0-3.57841-.45232,1.17137,1.17137,0,0,0-.95944-.50233,1.184,1.184,0,0,0-1.171,1.06094,1.28712,1.28712,0,0,0-.48-.09313A1.31611,1.31611,0,0,0,74.90051,16.066c0,1.24144.957,1.3089,1.49484,1.3089H83.02A1.37527,1.37527,0,0,0,84.3844,15.98617Z"/>
          </g>
        </g>
        <rect class="cls-1" x="26.16933" y="-9.55776" width="84.24423" height="84.24423"/>
        <path class="cls-21" d="M111.22541,63.74131s-1.27494,4.20441.99874,6.80967"/>
        <path class="cls-21" d="M116.02873,69.48338s-12.14142,1.0676-11.85721,2.34655"/>
        <path class="cls-21" d="M122.3452,22.80362s4.42106-25.64211,15.1579-1.01053"/>
        <path class="cls-21" d="M154.59253,21.04353s-35.02627-9.98728-42.73154-4.42939"/>
        <path class="cls-21" d="M117.5452,23.68783S149.62942,15.351,149.75573,9.91941"/>
      </g>
      <path class="cls-21" d="M0,49.17853S27.07,23.90762,32.81812,23.90036"/>
      <path class="cls-21" d="M35.34767,34.16959s-12.33534,6.25075-18.27153-4.90235"/>
      <path class="cls-21" d="M6.08951,33.60042S27.74075,41.90954,34.314,30.41447"/>
      <path class="cls-37" d="M128.13269,39.85437h0a1.26854,1.26854,0,0,0,1.73981.72066h0a1.26854,1.26854,0,0,1,1.69029,1.69029h0a1.26854,1.26854,0,0,0,.72066,1.73981h0a1.26853,1.26853,0,0,1,0,2.39042h0a1.26854,1.26854,0,0,0-.72066,1.73981h0a1.26854,1.26854,0,0,1-1.69029,1.69028h0a1.26854,1.26854,0,0,0-1.73981.72065h0a1.26853,1.26853,0,0,1-2.39042,0h0a1.26854,1.26854,0,0,0-1.73981-.72065h0a1.26853,1.26853,0,0,1-1.69028-1.69028h0a1.26854,1.26854,0,0,0-.72065-1.73981h0a1.26853,1.26853,0,0,1,0-2.39042h0a1.26854,1.26854,0,0,0,.72065-1.73981h0a1.26854,1.26854,0,0,1,1.69028-1.69029h0a1.26854,1.26854,0,0,0,1.73981-.72066h0A1.26853,1.26853,0,0,1,128.13269,39.85437Z"/>
      <path class="cls-38" d="M29.86014,4.49279h0a1.115,1.115,0,0,0,1.52922.63343h0A1.115,1.115,0,0,1,32.87505,6.6119h0a1.115,1.115,0,0,0,.63343,1.52922h0a1.115,1.115,0,0,1,0,2.10107h0a1.115,1.115,0,0,0-.63343,1.52922h0a1.115,1.115,0,0,1-1.48569,1.48568h0a1.115,1.115,0,0,0-1.52922.63342h0a1.115,1.115,0,0,1-2.10107,0h0a1.115,1.115,0,0,0-1.52922-.63342h0a1.115,1.115,0,0,1-1.48568-1.48568h0a1.115,1.115,0,0,0-.63342-1.52922h0a1.115,1.115,0,0,1,0-2.10107h0a1.115,1.115,0,0,0,.63342-1.52922h0a1.115,1.115,0,0,1,1.48568-1.48569h0a1.115,1.115,0,0,0,1.52922-.63343h0A1.115,1.115,0,0,1,29.86014,4.49279Z"/>
      <circle class="cls-38" cx="28.80961" cy="9.19165" r="1.57354"/>
    </g>
    <g class="cls-39">
      <path class="cls-40" d="M-31.0244,207.54791l97.52526-.33309,25.996-.00513,8.61223-.002,26.04547-.00506,118.9917-.02142s27.21693-22.95681-1.85549-44.76069c-30.14274-22.60657-44.79943-4.19566-54.06487-36.01705C166.90334,46.3044-63.682,92.92388-3.20124,161.085,18.57586,185.62766-46.06773,172.583-31.0244,207.54791Z"/>
    </g>
  </g>
</svg>
