<svg xmlns="http://www.w3.org/2000/svg" xmlns:xlink="http://www.w3.org/1999/xlink" width="67.66981mm" height="40.40003mm" viewBox="0 0 191.81995 114.51978">
  <defs>
    <style>
      .cls-1, .cls-17 {
        fill: none;
      }

      .cls-2 {
        clip-path: url(#clip-path);
      }

      .cls-3 {
        fill: #fedcd0;
      }

      .cls-4 {
        clip-path: url(#clip-path-2);
      }

      .cls-5 {
        fill: #e0e0e0;
      }

      .cls-6 {
        fill: #f5f5f5;
      }

      .cls-16, .cls-7 {
        fill: #e8505b;
      }

      .cls-8 {
        opacity: 0.8;
      }

      .cls-9 {
        fill: #fff;
      }

      .cls-10 {
        fill: #455a64;
      }

      .cls-11 {
        fill: #263238;
      }

      .cls-12, .cls-13 {
        opacity: 0.4;
      }

      .cls-14 {
        fill: #ffbe9d;
      }

      .cls-15 {
        fill: #fafbef;
      }

      .cls-16, .cls-17 {
        stroke: #000;
        stroke-miterlimit: 10;
        stroke-width: 0.13px;
      }

      .cls-18 {
        fill: #eb996e;
      }

      .cls-19 {
        fill: #ffdc89;
      }

      .cls-20 {
        opacity: 0.2;
      }

      .cls-21 {
        fill: #618dd8;
      }
    </style>
    <clipPath id="clip-path">
      <path class="cls-1" d="M160.87,195.82529c-6.45,8.72-14.01,2.74-60.63,11.62-26.19,4.98-37.9,9.55-54.57,4.04-8.84-2.92-10.9-5.98-19.71-7.08-11.52-1.43-19.6,2.35-25.96,5.24v-57.68a9.86064,9.86064,0,0,1,9.86-9.86H151.83C164.11,160.5153,169.77,183.77525,160.87,195.82529Z"/>
    </clipPath>
    <clipPath id="clip-path-2">
      <path class="cls-1" d="M164.58,20.81c-1.47,17.92-20.10987,33.03-37.1399,35.62-10.97,1.67-14.26-2.91-28.8-5.3-26.84-4.42-35.98,7.87-66.68994,10.61C23.49011,62.49,11.5,63.56,0,62.22V9.86A9.85428,9.85428,0,0,1,9.86,0H154.59C161.11,6.04,165.22009,12.95,164.58,20.81Z"/>
    </clipPath>
  </defs>
  <title>cards</title>
  <g id="Layer_1" data-name="Layer 1">
    <g class="cls-2">
      <path class="cls-3" d="M53.21482,111.02832H97.08138a70.44833,70.44833,0,0,1,70.44833,70.44833v.00014a70.44839,70.44839,0,0,1-70.44839,70.44839H53.21482a70.44835,70.44835,0,0,1-70.44835-70.44835v-.00016a70.44835,70.44835,0,0,1,70.44835-70.44835Z"/>
    </g>
    <g class="cls-4">
      <g>
        <ellipse class="cls-3" cx="68.60735" cy="18.22258" rx="114.44211" ry="64.01975"/>
        <g>
          <path class="cls-5" d="M102.72279.3509h31.138s-2.75356-5.01081-10.76859-4.28146c-7.65474.69659-8.044-2.4651-11.93619-2.85433S104.02025-4.19008,102.72279.3509Z"/>
          <g>
            <path class="cls-6" d="M97.80854,59.141c-5.63839-6.32082-5.09581-15.44567-2.96283-23.2583.35585-1.30418.53978-2.72434,1.43835-3.72983a2.75116,2.75116,0,0,1,3.5905-.615c.8675.6909,1.024,1.92731,1.34775,2.99589A7.90315,7.90315,0,0,0,103.608,38.2091a3.01063,3.01063,0,0,0,2.64147.88365c1.2822-.35712,1.787-1.89208,2.08866-3.2018q.84277-3.66121,1.686-7.32171a12.52847,12.52847,0,0,1,1.3145-3.79,4.16778,4.16778,0,0,1,3.19863-2.13858,2.528,2.528,0,0,1,2.65434,2.37,12.40806,12.40806,0,0,1-.3485,1.63686,1.41359,1.41359,0,0,0,.49806,1.48528,1.6251,1.6251,0,0,0,1.57809-.25995,17.86813,17.86813,0,0,0,4.23756-3.973A24.78657,24.78657,0,0,1,127.22,19.72654a7.26681,7.26681,0,0,1,5.42746-1.55234,4.35088,4.35088,0,0,1,3.65695,3.91638c.03793,1.95587-1.48059,3.57137-3.00436,4.78633a29.99525,29.99525,0,0,1-7.449,4.35325,2.46814,2.46814,0,0,0-1.27543.85215c-.49058.80447.13037,1.86594.92319,2.35633a15.55144,15.55144,0,0,0,2.97026,1.0663,3.02187,3.02187,0,0,1,2.14663,2.12787c.219,1.4633-1.23054,2.59936-2.5477,3.25635a25.69608,25.69608,0,0,1-8.4115,2.51872,8.66575,8.66575,0,0,0-3.06631.68512,2.4874,2.4874,0,0,0-1.43186,2.58837,2.53231,2.53231,0,0,0,2.43536,1.66429,17.89425,17.89425,0,0,0,3.12892-.41627c1.95752-.25261,4.24868.421,5.03193,2.24654a4.25309,4.25309,0,0,1-.42631,3.76342,9.80292,9.80292,0,0,1-2.74783,2.762,25.83639,25.83639,0,0,1-12.52248,5.00158c-4.51057.45809-8.46559-.06564-12.24932-2.5619"/>
            <path class="cls-5" d="M98.95057,59.90072c1.02439-3.05244-.04707-1.52018,2.06058-5.21545A120.35626,120.35626,0,0,1,108.65,43.17256q1.09254-1.476,2.15732-2.91491c.71028-.955,1.41453-1.90231,2.16069-2.78609a60.11793,60.11793,0,0,1,4.57849-4.83313c1.53064-1.467,3.03661-2.80314,4.45369-4.04215,1.42063-1.23665,2.76625-2.36428,4.03657-3.33966a47.70847,47.70847,0,0,1,6.33109-4.15241c.78306-.43019,1.40131-.74384,1.82341-.95079.20264-.0977.36162-.17461.48129-.23248a1.02013,1.02013,0,0,1,.16755-.07132.92953.92953,0,0,1-.15623.09424c-.11692.06332-.27264.14728-.47026.25436-.41419.22139-1.02491.54859-1.8.99086a50.45492,50.45492,0,0,0-6.27109,4.20758c-1.26.98148-2.596,2.11413-4.0084,3.3558-1.4104,1.24513-2.90912,2.58482-4.43176,4.05239a60.79217,60.79217,0,0,0-4.54974,4.82417c-.74081.88009-1.43787,1.81962-2.14918,2.77752q-1.063,1.437-2.15534,2.91406a123.40133,123.40133,0,0,0-7.64034,11.4789c-2.11153,3.67765-1.05039,2.12356-2.09206,5.15795"/>
            <path class="cls-5" d="M113.039,37.47852a2.73038,2.73038,0,0,1,.00441-.588c.01681-.37768.05938-.92286.12185-1.5959.12341-1.34571.35746-3.1983.62313-5.23969.266-2.04253.47286-3.893.57563-5.23685.05309-.67172.09088-1.216.11191-1.5924a2.69547,2.69547,0,0,1,.06142-.585,2.67249,2.67249,0,0,1,.03462.587c.00838.378-.00261.92523-.034,1.60045-.05806,1.35144-.2383,3.21293-.50469,5.25726-.26723,2.01388-.50933,3.83572-.69426,5.2277-.07965.62939-.14624,1.15989-.19966,1.58568A2.6891,2.6891,0,0,1,113.039,37.47852Z"/>
            <path class="cls-5" d="M130.59428,38.31869a3.71575,3.71575,0,0,1-.68957-.07847c-.44048-.06375-1.07729-.15955-1.86764-.25247-1.5791-.19866-3.77009-.39638-6.19679-.5089-2.42773-.10816-4.62887-.11266-6.22094-.0698-.79665.01558-1.44071.04574-1.88615.06383a3.71546,3.71546,0,0,1-.69422.00564,3.68854,3.68854,0,0,1,.688-.10281c.44426-.0476,1.08879-.10466,1.88691-.1434,1.59515-.08814,3.80419-.11162,6.23917-.00341a60.917,60.917,0,0,1,6.20844.58377c.78987.11575,1.42442.23807,1.86091.332A3.66925,3.66925,0,0,1,130.59428,38.31869Z"/>
            <path class="cls-5" d="M101.29112,54.4249a.88762.88762,0,0,1-.06677-.23224c-.03874-.18294-.08605-.40609-.14335-.67631-.122-.5878-.27614-1.443-.45293-2.502-.3549-2.118-.753-5.059-1.14852-8.31031-.39605-3.25266-.76615-6.19342-1.07634-8.31561-.15372-1.03244-.2805-1.88161-.3746-2.51279-.0393-.27368-.0717-.49925-.09807-.68456a.88636.88636,0,0,1-.01762-.24195.91323.91323,0,0,1,.06668.23281l.14349.67584c.1219.58776.27614,1.443.45293,2.50209.3549,2.11788.753,5.059,1.14857,8.31164.39576,3.25166.7661,6.192,1.076,8.31466.1543,1.03206.28059,1.88166.37474,2.51241.0394.27363.07161.49967.09813.68455A.89792.89792,0,0,1,101.29112,54.4249Z"/>
            <path class="cls-5" d="M125.33579,52.51663a.92281.92281,0,0,1-.24332.03888c-.18853.01724-.42.03817-.70027.06379-.6453.05238-1.51635.123-2.57588.20852-2.175.17678-5.17608.4551-8.49192.76714-3.31688.3127-6.32356.5636-8.50277.69507-1.0897.0662-1.97178.11082-2.58188.1291-.28169.00681-.51388.01221-.70279.01709a.901.901,0,0,1-.24584-.01132.94278.94278,0,0,1,.24342-.0393c.188-.01682.4194-.0377.70018-.06327.6453-.05243,1.51573-.12271,2.5754-.20861,2.175-.17636,5.17661-.455,8.49334-.76724,3.316-.31247,6.3222-.56342,8.50144-.695,1.0897-.0663,1.97169-.11081,2.58222-.129.28178-.00681.5137-.01273.70279-.01709A.90032.90032,0,0,1,125.33579,52.51663Z"/>
          </g>
          <g>
            <path class="cls-5" d="M143.98667,100.71261a1.27639,1.27639,0,0,1-.07895.22121l-.25919.63137c-.24062.56663-.58112,1.36878-1.01065,2.38043-.89008,2.05944-2.14762,4.9689-3.64895,8.44248l-.02217.05129-.05574.00918c-3.36608.55608-7.29253,1.20469-11.46947,1.89459l-3.84516.62877-.17484.0286.04343-.17148c.93474-3.689,1.79546-7.08578,2.52657-9.9709l.054.11053c-2.80044-1.25175-5.11125-2.28457-6.74-3.0126-.791-.36039-1.41571-.645-1.85964-.84718l-.48446-.22859a.879.879,0,0,1-.16187-.08714.88374.88374,0,0,1,.17352.06057l.49574.203c.44895.1909,1.08065.45956,1.88056.79968l6.77308,2.93759.07379.03192-.01961.07871c-.7195,2.888-1.56659,6.28823-2.48651,9.981l-.13132-.14288c1.25147-.20562,2.53581-.4166,3.84468-.6317l11.47416-1.86608-.07776.06039c1.53331-3.45957,2.81759-6.35738,3.72662-8.40848.45188-1.0019.8101-1.79627,1.06322-2.35746l.28794-.61873A1.27284,1.27284,0,0,1,143.98667,100.71261Z"/>
            <polygon class="cls-5" points="124.941 113.617 124.627 114.443 125.129 115.169 124.247 115.126 123.712 115.828 123.481 114.976 122.648 114.684 123.386 114.2 123.407 113.317 124.095 113.871 124.941 113.617"/>
            <polygon class="cls-5" points="117.065 100.237 116.909 100.648 117.159 101.009 116.72 100.988 116.454 101.337 116.339 100.913 115.924 100.768 116.292 100.527 116.302 100.088 116.644 100.363 117.065 100.237"/>
            <polygon class="cls-5" points="139.309 111.872 139.153 112.282 139.403 112.643 138.964 112.622 138.698 112.971 138.583 112.547 138.168 112.402 138.536 112.161 138.546 111.722 138.888 111.998 139.309 111.872"/>
            <polygon class="cls-5" points="126.473 104.485 126.317 104.896 126.567 105.257 126.128 105.235 125.862 105.585 125.747 105.161 125.332 105.016 125.7 104.775 125.71 104.336 126.052 104.611 126.473 104.485"/>
            <polygon class="cls-5" points="144.52 100.302 144.364 100.713 144.614 101.074 144.176 101.052 143.909 101.402 143.794 100.978 143.38 100.832 143.747 100.592 143.757 100.153 144.1 100.428 144.52 100.302"/>
          </g>
          <path class="cls-6" d="M5.90409,37.1544H30.696s-2.19232-3.98959-8.57385-3.40889c-6.09473.55461-6.40459-1.96269-9.50362-2.27259S6.93705,33.53894,5.90409,37.1544Z"/>
          <path class="cls-6" d="M131.81819,54.395h20.36939s-1.80125-3.278-7.04444-2.80082c-5.00745.45568-5.26209-1.61257-7.80822-1.86717S132.66693,51.42442,131.81819,54.395Z"/>
          <g>
            <path class="cls-7" d="M91.14448,94.60008c1.01113-7.63314-4.35491-13.93028-11.06064-17.71438S65.5992,71.83487,58.19257,69.7303C51.20724,67.7455,44.26,64.85,39.08611,59.75429S30.80867,46.99872,32.6685,39.97905a7.67876,7.67876,0,0,1,2.81512-4.54955c1.5136-1.01658,3.82431-.99077,4.95327.4409,2.4043,3.04916-2.281,8.51044.65292,11.05411.67333.58368,1.59988.79873,2.29661,1.35423,1.85518,1.47922,1.2545,4.35553,1.51638,6.71374.518,4.66406,4.89142,7.9028,9.1868,9.79265,5.75291,2.53116,11.98568,3.721,18.08912,5.22126s12.25756,3.39024,17.34234,7.08455,9.49591,9.47753,9.46086,15.76254c-.0098,1.75631-.23323,3.91609-1.33553,5.2834a3.10813,3.10813,0,0,1-4.09524.90349,3.83448,3.83448,0,0,1-2.40667-4.44029"/>
            <g class="cls-8">
              <path class="cls-9" d="M91.14448,94.60008c1.01113-7.63314-4.35491-13.93028-11.06064-17.71438S65.5992,71.83487,58.19257,69.7303C51.20724,67.7455,44.26,64.85,39.08611,59.75429S30.80867,46.99872,32.6685,39.97905a7.67876,7.67876,0,0,1,2.81512-4.54955c1.5136-1.01658,3.82431-.99077,4.95327.4409,2.4043,3.04916-2.281,8.51044.65292,11.05411.67333.58368,1.59988.79873,2.29661,1.35423,1.85518,1.47922,1.2545,4.35553,1.51638,6.71374.518,4.66406,4.89142,7.9028,9.1868,9.79265,5.75291,2.53116,11.98568,3.721,18.08912,5.22126s12.25756,3.39024,17.34234,7.08455,9.49591,9.47753,9.46086,15.76254c-.0098,1.75631-.23323,3.91609-1.33553,5.2834a3.10813,3.10813,0,0,1-4.09524.90349,3.83448,3.83448,0,0,1-2.40667-4.44029"/>
            </g>
          </g>
          <g>
            <path class="cls-7" d="M58.703,33.92414c-.24177-2.827,1.86465-5.28889,4.26-6.60889s5.13877-1.85584,7.60842-3.02667C76.703,21.38178,80.60165,14.54079,80.88967,7.524S78.13645-6.50567,73.37739-11.65945c-1.93361-2.09406-4.31238-4.28809-4.34093-7.14531-.02979-2.9813,2.86186-5.33071,5.75006-5.29292s5.54959,1.97112,7.27876,4.40326a29.8539,29.8539,0,0,1,3.6166,8.17623c-.66362-1.18957.69886-2.66334,2.01156-2.53637A4.95218,4.95218,0,0,1,90.85262-11.742,24.64428,24.64428,0,0,1,95.57417,4.75861a23.23736,23.23736,0,0,1-7.3401,15.12847c-4.672,4.25849-10.85477,6.2566-16.84693,8.14739L58.87736,31.98182"/>
            <g class="cls-8">
              <path class="cls-9" d="M58.703,33.92414c-.24177-2.827,1.86465-5.28889,4.26-6.60889s5.13877-1.85584,7.60842-3.02667C76.703,21.38178,80.60165,14.54079,80.88967,7.524S78.13645-6.50567,73.37739-11.65945c-1.93361-2.09406-4.31238-4.28809-4.34093-7.14531-.02979-2.9813,2.86186-5.33071,5.75006-5.29292s5.54959,1.97112,7.27876,4.40326a29.8539,29.8539,0,0,1,3.6166,8.17623c-.66362-1.18957.69886-2.66334,2.01156-2.53637A4.95218,4.95218,0,0,1,90.85262-11.742,24.64428,24.64428,0,0,1,95.57417,4.75861a23.23736,23.23736,0,0,1-7.3401,15.12847c-4.672,4.25849-10.85477,6.2566-16.84693,8.14739L58.87736,31.98182"/>
            </g>
          </g>
          <path class="cls-7" d="M23.41275-13.69635h5.8202a0,0,0,0,1,0,0V-1.69826A2.56356,2.56356,0,0,1,26.66939.8653h-.69308a2.56356,2.56356,0,0,1-2.56356-2.56356V-13.69635A0,0,0,0,1,23.41275-13.69635Z"/>
          <path class="cls-7" d="M113.03291,53.66282a25.95038,25.95038,0,0,0-3.91562.177A16.29747,16.29747,0,0,0,94.89245,70.08292a28.8989,28.8989,0,0,0,1.01228,7.74188c2.27656,8.07707,2.97911,15.19832,2.71637,18.66527l7.623,4.09766s3.52933-5.0701,6.93807-7.25731S127.94,85.29706,132.43289,79.28635c2.89653-3.87508,3.45284-11.82737-3.45156-18.78235A23.40934,23.40934,0,0,0,113.03291,53.66282Z"/>
          <polygon class="cls-10" points="95.013 105.311 101.9 109.033 97.417 114.726 92.826 112.639 95.013 105.311"/>
          <path class="cls-11" d="M95.34747,105.54057c-.06114-.02206.62223-2.06621,1.52614-4.565.90415-2.49972,1.6864-4.50754,1.74755-4.48547s-.62219,2.06574-1.52639,4.56546C96.1909,103.5544,95.40846,105.56264,95.34747,105.54057Z"/>
          <path class="cls-11" d="M101.46535,108.75307c-.05588-.033,1.02311-1.96387,2.40979-4.31209,1.38715-2.34908,2.5566-4.226,2.61253-4.19295s-1.02287,1.9635-2.41,4.31253C102.691,106.90883,101.52128,108.78608,101.46535,108.75307Z"/>
          <g class="cls-12">
            <path d="M115.32928,53.87911c-.30934.01728-4.09842,4.45279-5.77464,7.45474-5.63929,10.09971-5.89265,19.929-7.458,31.39-.22367,1.63725-1.03756,5.16738-1.02212,5.085a30.30206,30.30206,0,0,0,3.63881,1.956s2.64435-3.19185,3.6955-4.79751c4.20871-6.42888,8.77725-11.44007,12.37989-18.22717s7.06977-12.80548,3.73551-19.72845C124.52427,57.01176,118.74992,53.68759,115.32928,53.87911Z"/>
          </g>
          <path class="cls-11" d="M132.46235,80.30254a1.27035,1.27035,0,0,1-.0986-.21836c-.0636-.14387-.13577-.36574-.26355-.64013a11.67909,11.67909,0,0,0-4.25579-4.968,11.14445,11.14445,0,0,0-4.79807-1.7762l-.0458-.00573-.02723-.0367a26.6826,26.6826,0,0,0-3.07673-3.53178,15.40068,15.40068,0,0,0-4.20033-2.892,10.867,10.867,0,0,0-4.96387-.94634,8.22086,8.22086,0,0,0-4.34478,1.44791l-.06857.04911-.06327-.0557a8.55227,8.55227,0,0,0-4.63953-2.0618,8.39685,8.39685,0,0,0-3.94483.50284,8.7492,8.7492,0,0,0-2.266,1.27539c-.23839.18625-.41589.33761-.53154.44393a1.2642,1.2642,0,0,1-.184.15325,1.25652,1.25652,0,0,1,.16035-.178,6.33882,6.33882,0,0,1,.51322-.4714,8.48567,8.48567,0,0,1,6.27227-1.9005,8.68753,8.68753,0,0,1,4.7601,2.07762l-.1318-.00658a8.40282,8.40282,0,0,1,4.45578-1.50474,11.04206,11.04206,0,0,1,5.07294.96055,15.52211,15.52211,0,0,1,4.26138,2.9402,26.50291,26.50291,0,0,1,3.0897,3.57274l-.07288-.04233a11.23814,11.23814,0,0,1,4.87048,1.84,11.57977,11.57977,0,0,1,2.92959,2.79987,10.851,10.851,0,0,1,1.29078,2.28808c.11877.28031.181.50706.23427.65505A1.25554,1.25554,0,0,1,132.46235,80.30254Z"/>
          <path class="cls-11" d="M118.29178,90.36617a4.86909,4.86909,0,0,0-.65709-1.65647,4.52337,4.52337,0,0,0-1.46387-1.405,4.08938,4.08938,0,0,0-2.52273-.59784l-.09548.00918-.01473-.09457a6.66607,6.66607,0,0,0-1.25061-2.94455,6.56565,6.56565,0,0,0-2.828-2.19554,6.75448,6.75448,0,0,0-5.59075.29077l-.07241.03793-.05588-.05981a4.80174,4.80174,0,0,0-2.64747-1.43384,5.30754,5.30754,0,0,0-2.37362.07449,5.62807,5.62807,0,0,0-1.88393.93527c-.00393-.00436.03045-.03917.101-.10263a3.75981,3.75981,0,0,1,.32283-.26766,4.67091,4.67091,0,0,1,1.42627-.687,5.33011,5.33011,0,0,1,2.43939-.1254,4.94435,4.94435,0,0,1,2.77188,1.46387l-.12819-.02188a6.9164,6.9164,0,0,1,5.77786-.3226,6.889,6.889,0,0,1,4.1909,5.32886l-.1101-.08529a4.22791,4.22791,0,0,1,2.63.658,4.54773,4.54773,0,0,1,1.4768,1.48234,3.98779,3.98779,0,0,1,.50478,1.247,3.33135,3.33135,0,0,1,.04911.351A.35411.35411,0,0,1,118.29178,90.36617Z"/>
          <path class="cls-11" d="M100.56859,110.82592c-.01757.01344-.07492-.09429-.2527-.16746a1.21935,1.21935,0,0,0-.80551.02448,2.28114,2.28114,0,0,1-.60911.11143.95851.95851,0,0,1-.68067-.30034c-.36565-.38042-.50459-.93071-.84983-1.31071a.7886.7886,0,0,0-.63469-.26743,4.0013,4.0013,0,0,0-.71775.14364,1.59325,1.59325,0,0,1-.72168.03835,1.27252,1.27252,0,0,1-.56426-.28873,1.34271,1.34271,0,0,1-.45341-.76535c-.03551-.21041-.0017-.32634.01-.32468a2.77557,2.77557,0,0,1,.0788.30252,1.366,1.366,0,0,0,.46974.65865,1.137,1.137,0,0,0,.49735.22632,1.4433,1.4433,0,0,0,.63156-.05754,3.86043,3.86043,0,0,1,.76056-.16343,1.0166,1.0166,0,0,1,.81479.33614c.40031.45577.526.997.835,1.322a.76319.76319,0,0,0,.5296.25563,2.29712,2.29712,0,0,0,.56455-.078,1.22128,1.22128,0,0,1,.88526.05493C100.54908,110.69076,100.57882,110.8253,100.56859,110.82592Z"/>
          <path class="cls-11" d="M101.35813,109.72068a29.91406,29.91406,0,0,1-3.35964-1.65884,29.90421,29.90421,0,0,1-3.2492-1.86664,29.93836,29.93836,0,0,1,3.36,1.65912A29.92276,29.92276,0,0,1,101.35813,109.72068Z"/>
          <path class="cls-11" d="M99.99035,111.45781c.004.018-.09613.04735-.26245.12459-.084.03732-.18015.09429-.31114.14719a1.06947,1.06947,0,0,1-.47467.06223,1.97724,1.97724,0,0,1-1.13478-.43749,1.57161,1.57161,0,0,1-.4327-.59538,2.26326,2.26326,0,0,0-.33326-.61986,1.59481,1.59481,0,0,0-1.24744-.3576,2.88823,2.88823,0,0,1-1.19763-.1146,1.11109,1.11109,0,0,1-.60518-.555c-.07729-.18579-.04982-.29987-.03855-.2984.02031-.00247.02709.10475.12.25663a1.10207,1.10207,0,0,0,.58321.44146,2.993,2.993,0,0,0,1.12986.05338,1.754,1.754,0,0,1,1.4293.41546,2.3366,2.3366,0,0,1,.37024.68489,1.38356,1.38356,0,0,0,.36432.52543,1.89881,1.89881,0,0,0,1.00815.4355,1.415,1.415,0,0,0,.738-.12947C99.88044,111.44279,99.98784,111.44422,99.99035,111.45781Z"/>
          <g>
            <path class="cls-7" d="M47.99577,67.22788l11.90835-1.76573-5.69361-8.066-3.05333.1801a5.446,5.446,0,0,0-4.68073,3.28146v0a5.44575,5.44575,0,0,0-.34557,3.18864Z"/>
            <path class="cls-13" d="M47.99577,67.22788l11.90835-1.76573-5.69361-8.066-3.05333.1801a5.446,5.446,0,0,0-4.68073,3.28146v0a5.44575,5.44575,0,0,0-.34557,3.18864Z"/>
            <g>
              <path class="cls-14" d="M99.15014,80.42406c.12284.34093.25668.7447.39235,1.22751a3.77615,3.77615,0,0,1,.12834,1.27572,5.77564,5.77564,0,0,1-.26847,1.57554c-.19606.45165.25909.90647.64511.68072a4.07276,4.07276,0,0,0,.92086-3.04221c-.03523-1.58486,1.58161.31479,2.18324.9965s2.562,2.70369,2.91817,2.68475c.52212-.0278.58875-.59235-.028-1.25924-.62426-.67489-2.32521-2.79689-1.9498-3.09728.36967-.29584,3.385,3.21648,3.385,3.21648s.52307.85514.96842.52245c.80327-.59993-2.67722-4.09766-3.01673-4.42244-.23593-.22575.16031-.56654.4006-.31085.24749.2634,2.92618,3.57341,3.74991,2.97036.63194-.46269-2.83614-2.90369-3.01033-3.89905s2.44176,2.1184,3.02729,1.65179c.21813-.17385.35665-.33378-1.40382-1.9051-.85447-.76279-4.10292-3.03605-4.10292-3.03605L94.31521,48.26757l-7.54832,4.3228Z"/>
              <path class="cls-15" d="M40.96464,27.49758,30.0421,14.46265l-.00071.00028a7.53,7.53,0,0,0-.53434-1.29958,4.0729,4.0729,0,0,0-2.57658-2.14952c-.69265-.15149-1.4858-.0787-2.02918-.53419-.243-.20364-.4051-.49361-.6596-.68266s-.67877-.22537-.84149.0467a.73722.73722,0,0,0,.04527.64984,6.07854,6.07854,0,0,0,1.896,2.44762c-1.0242.31124-2.48665.78188-2.48665.78188s-2.30892-2.50526-3.49163-2.49731.95563,2.23689.95563,2.23689-1.89383-1.75-2.48106-1.25682.91769,1.79243.91769,1.79243a2.5103,2.5103,0,0,0-1.53623-.43038c-.53476.08879-.99512.72016-.70719,1.17944a1.24928,1.24928,0,0,0,.48092.38539L19.90005,16.753a3.5213,3.5213,0,0,0,1.55427.56664c1.47448.04555,2.59624-.8676,4.071-.82843,0,0,8.23653,17.33817,9.06945,18.23224s18.9274,2.11176,18.9274,2.11176L63.99486,27.812Z"/>
              <path class="cls-11" d="M80.72426,123.1215,68.077,114.60822,72.2625,73.505l-11.98-6.99608L49.32709,63.97044s-4.5755,9.51839-6.61022,15.61184c-4.32743,12.9595-7.36495,17.60361-6.67088,26.99741.21965,2.973,11.19879,10.41029,18.13222,14.54214a21.71632,21.71632,0,0,0,.36787,2.461c2.36949,10.71063,9.60123,24.955,9.60123,24.955l10.99121-5.11-3.5466-12.14527,3.6938,2.15429Zm-27.186-26.504L55.014,90.02912c-.31218,4.18883-.59718,8.55922-.80114,12.75027A13.027,13.027,0,0,1,53.53827,96.61751Z"/>
              <path class="cls-10" d="M64.14731,148.53779a1.16806,1.16806,0,0,1-.08525-.17348c-.05564-.12677-.131-.29863-.2276-.51851-.199-.46955-.48437-1.14284-.84969-2.0046-.73006-1.74409-1.77529-4.27246-3.0332-7.41051-1.25095-3.14066-2.74058-6.88129-4.24068-11.095-.37384-1.05389-.74039-2.14023-1.08444-3.26147-.15226-.568-.34386-1.12753-.44379-1.72859-.02865-.14842-.06242-.29717-.08685-.4463l-.05257-.44834q-.05022-.44958-.10078-.90339-.19306-1.8159-.31455-3.70024-.0598-.94116-.0985-1.89723c-.02264-.63469-.05152-1.28325-.01477-1.92826.18564-5.16477.62014-10.06041.977-14.51666.37218-4.4518.70747-8.46171.98939-11.8338.27278-3.36892.4634-6.09719.57161-7.98387.059-.94313.09159-1.676.11375-2.17305l.03064-.56531a1.17116,1.17116,0,0,1,.01852-.19241,1.182,1.182,0,0,1,.00554.193l-.00729.56616c-.00692.49777-.02477,1.23182-.06976,2.17622-.08013,1.88928-.24555,4.62068-.49716,7.99206-.26767,3.37342-.58591,7.38494-.93929,11.83859-.34491,4.45474-.77278,9.35563-.95781,14.50377-.0367.64345-.008,1.277.0143,1.91448q.03666.9526.09728,1.8916.11727,1.87735.31019,3.69077.04986.45257.09926.90117l.05176.44719c.024.14657.05669.28983.08444.43432.09453.5789.28519,1.14231.4347,1.70388.34,1.11593.70316,2.2007,1.07359,3.25389,1.48665,4.21151,2.96009,7.95811,4.19081,11.10544,1.24783,3.13171,2.2592,5.66984,2.96336,7.43718.3477.86891.6193,1.54774.80877,2.02117l.20605.52742A1.17549,1.17549,0,0,1,64.14731,148.53779Z"/>
              <path class="cls-10" d="M55.69375,74.36784c-.01023.0125-.11092-.06924-.28841-.23367a3.00363,3.00363,0,0,1-.53467-.85944,9.285,9.285,0,0,1-.53916-3.261,27.674,27.674,0,0,1,.15684-3.29343,7.91708,7.91708,0,0,1,.19005-1.35125,7.76987,7.76987,0,0,1-.02425,1.36389c-.04224.83951-.11077,1.99868-.08751,3.27577a10.50406,10.50406,0,0,0,.45875,3.20507,3.55709,3.55709,0,0,0,.4499.86129C55.62413,74.24963,55.704,74.35538,55.69375,74.36784Z"/>
              <path class="cls-10" d="M50.96391,64.58509a2.79466,2.79466,0,0,1,.09405,1.15A5.28729,5.28729,0,0,1,48.033,70.174a2.79423,2.79423,0,0,1-1.10456.33312c-.01132-.03889.41556-.14947,1.02941-.48149a5.59733,5.59733,0,0,0,2.93446-4.30622C50.97684,65.02665,50.92361,64.58878,50.96391,64.58509Z"/>
              <path class="cls-10" d="M70.61682,88.4821a.4919.4919,0,0,1-.00245.1253l-.03074.36546c-.034.33832-.08108.80759-.14084,1.40316-.13464,1.236-.32611,2.99319-.56185,5.157-.49451,4.36727-1.17438,10.37126-1.92528,17.00326a30.98144,30.98144,0,0,0,.62285,9.33124,32.4881,32.4881,0,0,0,1.145,3.93338c.42527,1.2141.82166,2.34595,1.18422,3.381.71293,2.05665,1.29187,3.72666,1.699,4.90123l.4507,1.33657.11163.34954a.5006.5006,0,0,1,.03045.12181.49961.49961,0,0,1-.05314-.11376l-.13364-.34177c-.11868-.31867-.28329-.76071-.49228-1.32175-.424-1.16855-1.027-2.83009-1.76952-4.87622-.37081-1.03221-.77628-2.16083-1.21126-3.37153a32.06906,32.06906,0,0,1-1.17262-3.95114,30.80027,30.80027,0,0,1-.64582-9.39853c.73987-6.65057,1.47448-12.64916,1.99423-17.00047.267-2.16036.48366-3.91476.63615-5.14871.07847-.59377.14028-1.06162.18479-1.3989l.054-.36323A.50409.50409,0,0,1,70.61682,88.4821Z"/>
              <polyline class="cls-14" points="49.327 63.891 51.267 58.934 55.694 65.535 49.792 64.06"/>
              <path class="cls-16" d="M95.65,48.99a22.39676,22.39676,0,0,0-3.64,1.05c-1.96.76-6,5.49-6,5.49L82.86,47.9S74.74011,66.72,74.4,67.58c-1.08007,2.72-.7,7.78-2.07006,9.23,0,0-11.73-3.51-15.33985-8.92-3.06006-4.59-6.25-9.41-9.12011-7.58-2.74,1.75.05,6.6.05,6.6s-7.26-7.88,2.99-11.28l7.12-16.24-7.51-.71a35.38164,35.38164,0,0,0-.13-11.89l13.6001-1.34,7.6499.26-.08.08a9.618,9.618,0,0,1,2.88.71L87.61,33.92c.98,1.1,2.16,1.4,2.79,3.29Z"/>
              <path class="cls-17" d="M54.9419,26.3415S69.44626,51.603,52.4484,61.78574"/>
              <path class="cls-17" d="M60.70844,71.42613S81.157,29.05392,91.36694,39.3796"/>
              <path class="cls-17" d="M72.33,76.81S52.40844,33.879,66.619,25.45"/>
              <path class="cls-17" d="M50.91,55.63s25.08226,7.48579,35.50612-22.38263"/>
              <path class="cls-17" d="M50.39,26.79s41.17947,11.7331,35.62,28.74"/>
              <path class="cls-17" d="M50.91,60.49207S77.21793,29.32734,95.65,48.99"/>
              <path class="cls-17" d="M50.52,38.68S73.93991,13.005,66.30049,74.50775"/>
              <g>
                <g>
                  <g>
                    <g>
                      <path class="cls-15" d="M88.862,16.57669,81.24178,30.82038a5.02392,5.02392,0,0,1-6.482,2.21581h0a5.0239,5.0239,0,0,1-2.38957-6.93348c.71856-1.35888,1.31479-2.468,1.31479-2.468s-3.313-2.14714-1.76379-5.7269c1.38218-3.19375,6.45726-12.20812,7.535-14.1145L85.87866,6.6674A7.21843,7.21843,0,0,1,88.862,16.57669Z"/>
                      <path class="cls-18" d="M73.702,23.58073a9.07037,9.07037,0,0,0,5.23164.75791s-2.24362,2.07123-5.6527.16083Z"/>
                    </g>
                    <g>
                      <g>
                        <g>
                          <path class="cls-11" d="M76.14947,12.19242a.557.557,0,0,0,.26065.73239.53282.53282,0,0,0,.72921-.224.55709.55709,0,0,0-.26-.73234A.53311.53311,0,0,0,76.14947,12.19242Z"/>
                          <path class="cls-11" d="M76.17841,11.73893c.03343.09443.54607-.01819,1.09263.22807.54934.23821.82487.69933.91419.65888.04248-.01657.03177-.16494-.08605-.37047A1.52764,1.52764,0,0,0,77.404,11.646a1.468,1.468,0,0,0-.90666-.09888C76.27132,11.60093,76.16064,11.69536,76.17841,11.73893Z"/>
                        </g>
                        <g>
                          <path class="cls-11" d="M81.268,14.71028a.557.557,0,0,0,.26071.73229.53273.53273,0,0,0,.72921-.22386.55729.55729,0,0,0-.26014-.73243A.53305.53305,0,0,0,81.268,14.71028Z"/>
                          <path class="cls-11" d="M81.51044,14.24755c.03348.09453.54669-.01785,1.09268.22826.54935.23816.825.69924.91443.65879.04224-.01662.03225-.16471-.08633-.37057a1.52782,1.52782,0,0,0-.695-.6094,1.46844,1.46844,0,0,0-.90675-.09878C81.60387,14.10979,81.49292,14.20412,81.51044,14.24755Z"/>
                        </g>
                        <path class="cls-11" d="M77.70928,17.41634a3.96936,3.96936,0,0,0-.81682-.55792c-.13322-.077-.253-.1639-.2339-.2698.01222-.11564.1381-.2401.27851-.37232q.424-.41891.88923-.87891A20.02831,20.02831,0,0,0,79.9994,12.97a20.08033,20.08033,0,0,0-2.35855,2.18688q-.45783.46762-.87465.89307a.88651.88651,0,0,0-.31786.51586.3839.3839,0,0,0,.13833.30707,1.04,1.04,0,0,0,.22244.13919A3.89836,3.89836,0,0,0,77.70928,17.41634Z"/>
                        <path class="cls-11" d="M79.15,18.51537c-.08666-.045-.35352.5483-1.05034.74233-.69668.19582-1.29991-.15415-1.34169-.07322-.02491.03358.08937.17844.35334.30527a1.61989,1.61989,0,0,0,1.10485.09476,1.41124,1.41124,0,0,0,.84273-.63956C79.19262,18.70683,79.19224,18.53009,79.15,18.51537Z"/>
                      </g>
                      <path class="cls-11" d="M82.32873,12.04026c-.0126.173.56516.3469,1.17238.7115.61466.35239,1.04817.772,1.193.67665.06653-.04684.039-.22718-.10594-.46487a2.38327,2.38327,0,0,0-1.802-1.05744C82.508,11.89558,82.33706,11.95933,82.32873,12.04026Z"/>
                      <path class="cls-11" d="M77.08809,10.2456c.04073.16727.47524.207.93124.40377.46273.18072.79954.458.94607.36754.06691-.04579.06222-.19729-.05286-.38994A1.46937,1.46937,0,0,0,77.4,10.00545C77.18267,10.06152,77.0728,10.166,77.08809,10.2456Z"/>
                    </g>
                    <path class="cls-14" d="M86.466,18.71171c.07246.00085,2.76994.37119,1.603,2.77032a2.00536,2.00536,0,0,1-3.30556.66183C84.79275,22.07306,86.466,18.71171,86.466,18.71171Z"/>
                    <path class="cls-15" d="M85.93837,21.59143c.0143-.00256.02761.04963.0825.11631a.4648.4648,0,0,0,.30924.15841,1.14984,1.14984,0,0,0,.92977-.69507,1.53391,1.53391,0,0,0,.17409-.65528.53686.53686,0,0,0-.15827-.47372.23658.23658,0,0,0-.30243-.00549c-.06478.05147-.07283.10674-.08746.1047-.00967.0027-.032-.06526.03547-.155a.29682.29682,0,0,1,.1675-.10438.35107.35107,0,0,1,.26089.05129.65322.65322,0,0,1,.25564.58439,1.57848,1.57848,0,0,1-.18034.73916,1.20655,1.20655,0,0,1-1.11366.73949.4979.4979,0,0,1-.35139-.24939C85.9145,21.65153,85.928,21.59171,85.93837,21.59143Z"/>
                  </g>
                  <path class="cls-11" d="M87.85706,19.23515a1.40119,1.40119,0,0,0-1.44028.07611c-.31394.27671-.525.65495-.83833.93218a.943.943,0,0,1-1.1433.17783.82051.82051,0,0,1-.25867-.78239,2.255,2.255,0,0,1,.3441-.78827c.65211-1.07251,1.39544-2.09278,1.95345-3.21705a6.40622,6.40622,0,0,0,.76255-3.631,3.50406,3.50406,0,0,0-2.131-2.8746c-.78372-.27751-1.654-.19355-2.45265-.42461a3.25687,3.25687,0,0,1-2.10135-1.9302c-.04532-.11787-.31322-.53845-.31322-.53845.02637-.059.30957-.54239.59292-.638a7.89015,7.89015,0,0,1,9.707,7.30073c.0214,2.22467-1.37863,4.67912-2.6812,6.33772"/>
                </g>
                <path class="cls-11" d="M87.88027,18.99472A26.85879,26.85879,0,0,1,90.454,16.01626a3.54366,3.54366,0,0,0,.80508-3.64151c-.20085-.40193-.52212-.73864-.6901-1.15534a5.68714,5.68714,0,0,1-.2339-1.33013A4.63469,4.63469,0,0,0,88.04218,6.56c-.84306-.47-1.816-.66277-2.6703-1.1119-1.35324-.71146-2.343-2.02961-3.76469-2.592a1.8137,1.8137,0,0,0-1.475-.04461.886.886,0,0,0-.36432,1.27326.77067.77067,0,0,0-1.06341-.51421,1.1667,1.1667,0,0,0-.602,1.14118,2.52369,2.52369,0,0,0,.51658,1.25265A6.3794,6.3794,0,0,0,82.26551,8.4758l3.26909-.25493,2.67982,1.98627,1.98376,3.15695-3.597,4.67292Z"/>
              </g>
            </g>
          </g>
          <g>
            <path class="cls-19" d="M67.42748.36009A11.54508,11.54508,0,1,0,51.671,11.84548c.08818,1.36522.18777,2.90652.18777,2.90652l10.09782-.65254s-.04442-1.63521-.11593-3.09278A11.54121,11.54121,0,0,0,67.42748.36009Z"/>
            <path class="cls-11" d="M58.30192,14.28757s-.00166-.04854.00213-.14288c.00483-.1.01156-.23916.02031-.41859.02089-.36783.051-.91036.10817-1.608.05773-.69739.139-1.551.29636-2.534a17.11393,17.11393,0,0,1,.83828-3.27379,10.98256,10.98256,0,0,1,.8361-1.78519,2.12829,2.12829,0,0,1,.7419-.75843,1.19067,1.19067,0,0,1,1.09623-.035.78672.78672,0,0,1,.39416.43233.80611.80611,0,0,1-.00985.59438,1.64207,1.64207,0,0,1-.84036.82441,3.15783,3.15783,0,0,1-2.40614-.01473A3.1993,3.1993,0,0,1,57.6283,3.751a2.41633,2.41633,0,0,1-.154-1.32469,1.03751,1.03751,0,0,1,.99508-.86825.74571.74571,0,0,1,.61271.36844,1.04553,1.04553,0,0,1,.13843.7044,2.25656,2.25656,0,0,1-.73608,1.1971,3.44355,3.44355,0,0,1-2.635.9527,3.00052,3.00052,0,0,1-2.33511-1.51682,1.74434,1.74434,0,0,1-.16807-1.39051.88321.88321,0,0,1,.4723-.5422.86572.86572,0,0,1,.71358.01937,1.14959,1.14959,0,0,1,.5189.47414,1.79818,1.79818,0,0,1,.2186.65235,3.32667,3.32667,0,0,1-.08989,1.32805,3.4371,3.4371,0,0,1-1.49915,2.037,3.50023,3.50023,0,0,1-2.36285.48186,1.83148,1.83148,0,0,1-1.0727-.483.894.894,0,0,1-.13568-1.10566.75417.75417,0,0,1,.50137-.28656,1.086,1.086,0,0,1,.5565.07132,1.67,1.67,0,0,1,.75635.745c.32989.60613.60163,1.19824.87446,1.76284,1.07137,2.26255,1.84875,4.13365,2.37214,5.43115.26151.64894.45657,1.15605.58771,1.5002l.14581.39283c.03211.08879.04513.13563.04513.13563s-.02207-.04333-.05867-.13033l-.15889-.38767c-.14226-.34623-.34812-.84722-.61219-1.48977-.53884-1.2904-1.3298-3.15435-2.41154-5.40876-.27392-.56-.55281-1.15865-.8782-1.75043a1.56592,1.56592,0,0,0-.70459-.69521.78373.78373,0,0,0-.92044.17916.77723.77723,0,0,0,.12886.95283,1.71462,1.71462,0,0,0,1.0038.44327A3.37556,3.37556,0,0,0,53.61177,5.731a3.30571,3.30571,0,0,0,1.43716-1.96107,3.19288,3.19288,0,0,0,.08486-1.27236,1.25437,1.25437,0,0,0-.6587-1.02032.726.726,0,0,0-.60049-.01818.74307.74307,0,0,0-.39586.46022,1.60589,1.60589,0,0,0,.15983,1.2777,2.86175,2.86175,0,0,0,2.22415,1.44252,3.30471,3.30471,0,0,0,2.525-.91415A2.12748,2.12748,0,0,0,59.0819,2.61a.90623.90623,0,0,0-.11835-.60983.60507.60507,0,0,0-.4991-.30323.81194.81194,0,0,0-.56081.22192.99679.99679,0,0,0-.29513.53722,2.28725,2.28725,0,0,0,.14643,1.24683,3.06852,3.06852,0,0,0,1.67437,1.74456,3.037,3.037,0,0,0,2.30338.0224,1.52457,1.52457,0,0,0,.77993-.75521.6817.6817,0,0,0-.32487-.8782,1.077,1.077,0,0,0-.98769.02984,2.02136,2.02136,0,0,0-.7043.71742,10.95293,10.95293,0,0,0-.83478,1.762,17.24341,17.24341,0,0,0-.8539,3.25138c-.16419.97855-.25346,1.8299-.31957,2.52577-.05806.69227-.10338,1.23205-.13468,1.60509l-.03434.41765C58.31,14.23964,58.30192,14.28757,58.30192,14.28757Z"/>
            <path class="cls-11" d="M61.30017,16.0192l-8.66994.56024a.652.652,0,0,1-.6927-.6086h0a.652.652,0,0,1,.6086-.69274l8.66993-.56024a.652.652,0,0,1,.69275.60864h0A.652.652,0,0,1,61.30017,16.0192Z"/>
            <path class="cls-11" d="M61.33687,16.58739l-8.66994.56029A.652.652,0,0,0,52.751,18.449l.9516-.06147,1.418,2.32156a.83754.83754,0,0,0,.76876.39918l3.098-.20018a.83743.83743,0,0,0,.71448-.50284L60.774,17.93055l.647-.04182a.652.652,0,1,0-.08411-1.30134Z"/>
          </g>
          <g class="cls-20">
            <path class="cls-9" d="M48.03058-5.75827A8.49059,8.49059,0,0,1,50.23863-7.441a6.12828,6.12828,0,0,1,1.74228-.63071c.43314-.07345.68394-.04726.711.04309.0635.206-.78974.57246-1.91576,1.43442a10.01936,10.01936,0,0,0-3.26763,4.24456A10.019,10.019,0,0,0,47.05866,2.989c.25024,1.39587.633,2.24167.4472,2.35093-.08084.04854-.28376-.10125-.554-.44753a6.12841,6.12841,0,0,1-.8611-1.64056A8.49117,8.49117,0,0,1,45.595.52006a8.99308,8.99308,0,0,1,.59116-3.38275"/>
          </g>
          <path class="cls-10" d="M59.55372,20.621c-.00895.02216-.23333-.06341-.60746-.14487a4.83483,4.83483,0,0,0-2.92305.274c-.35248.1496-.557.27533-.56995.25525a1.77674,1.77674,0,0,1,.52809-.34642,4.22907,4.22907,0,0,1,2.98907-.28021A1.77927,1.77927,0,0,1,59.55372,20.621Z"/>
          <path class="cls-10" d="M60.79449,17.95882c.00251.03907-1.56285.17205-3.49589.297-1.93375.12493-3.5029.1945-3.50546.15538s1.56252-.172,3.49627-.29693C59.22245,17.98932,60.79193,17.91975,60.79449,17.95882Z"/>
          <path class="cls-10" d="M60.31831,19.02228a4.91416,4.91416,0,0,1-.84813.14193c-.52638.06744-1.25554.14492-2.06271.20861-.80749.06356-1.53987.10125-2.07033.11712a4.89766,4.89766,0,0,1-.85982-.00739,5.44809,5.44809,0,0,1,.85438-.09273c.571-.0438,1.28017-.09822,2.0646-.15836.78391-.06346,1.49276-.12081,2.0636-.167A5.43226,5.43226,0,0,1,60.31831,19.02228Z"/>
          <path class="cls-7" d="M-2.11824,77.02171l1.88266,3.016s8.03227-7.39138,16.0006-5.30215C15.765,74.73557,8.60408,68.66338-2.11824,77.02171Z"/>
          <path class="cls-7" d="M15.765,74.73557s5.89607-6.40213,14.54119-4.94181l2.35755.35523L31.911,68.78717S16.8749,63.63713,15.765,74.73557Z"/>
          <g>
            <path class="cls-6" d="M3.32012,53.14743S-8.48982,51.1156-16.23619,55.30627L-3.93658,78.46389S6.13131,68.75928,15.765,74.73557Z"/>
            <path class="cls-11" d="M3.32012,53.14748a.60154.60154,0,0,1,.063.09415l.17693.29181c.15907.269.38648.65368.68038,1.15065l2.56015,4.3838c2.20019,3.79443,5.32692,9.18679,9.05468,15.61558a.1042.1042,0,0,1-.03789.14231A.10544.10544,0,0,1,15.71,74.824a13.07219,13.07219,0,0,0-4.52767-1.73788A14.04292,14.04292,0,0,0,8.6298,72.909a15.75289,15.75289,0,0,0-2.6149.3289,22.47981,22.47981,0,0,0-9.76868,5.21634l-.10115.09424a.11754.11754,0,0,1-.16623-.00288.13663.13663,0,0,1-.01927-.02662c-4.569-8.61893-8.804-16.60806-12.2811-23.16737a.09491.09491,0,0,1,.03689-.12909l.00247-.00133a23.7459,23.7459,0,0,1,7.8721-2.3299,39.63592,39.63592,0,0,1,6.29932-.27391c1.74337.05782,3.1032.19776,4.0252.31142.46126.056.813.11006,1.04935.14908l.26809.04779a.439.439,0,0,1,.08823.02178A.548.548,0,0,1,3.22749,53.14l-.26805-.03277c-.23745-.02941-.59-.074-1.05162-.12072-.92286-.095-2.28188-.21708-4.02156-.25833a40.45221,40.45221,0,0,0-6.276.31834,23.72216,23.72216,0,0,0-7.80036,2.34481l.03931-.13033C-12.6632,61.81472-8.41542,69.797-3.83272,78.40867l-.18545-.02946.10527-.09822a24.92393,24.92393,0,0,1,4.709-3.30366,19.73314,19.73314,0,0,1,5.17087-1.96245,15.94164,15.94164,0,0,1,2.65619-.33008,14.23007,14.23007,0,0,1,2.59681.18483,13.26055,13.26055,0,0,1,4.6,1.77743l-.14515.14051c-3.68716-6.43377-6.78-11.8304-8.95631-15.62776-1.07871-1.89587-1.93006-3.39208-2.51691-4.42348-.28538-.50782-.50625-.90084-.66069-1.1757l-.16736-.30527A.75581.75581,0,0,1,3.32012,53.14748Z"/>
          </g>
          <g>
            <path class="cls-6" d="M21.884,48.39572s-8.93372-5.694-18.41214,4.75171L15.9168,74.73557s2.53974-8.76224,17.39751-5.71455Z"/>
            <path class="cls-11" d="M21.884,48.39576a.53282.53282,0,0,1,.05944.0906l.16381.27917q.22035.38644.62673,1.099c.54878.97651,1.34429,2.39189,2.35272,4.18608,2.01947,3.62233,4.89052,8.77208,8.31817,14.92014a.10353.10353,0,0,1-.10708.15258l-.0044-.00075q-1.0853-.17838-2.21212-.36347a9.71021,9.71021,0,0,0-1.14293-.12692q-.57831-.046-1.16618-.09292a8.70128,8.70128,0,0,0-1.18626-.02865q-.5982.00768-1.20515.01535c-.40434.00923-.80678.08221-1.21453.12047a8.53273,8.53273,0,0,0-1.2215.18446q-.60657.13725-1.22073.27614-.59358.20757-1.19412.4176c-.40084.13871-.76919.3594-1.15875.53623a3.596,3.596,0,0,0-.55749.31948l-.54447.34888c-.35883.23972-.68063.53486-1.01971.80745a10.66238,10.66238,0,0,0-.89543.95837,7.50662,7.50662,0,0,0-1.32431,2.27316l-.00218.00616a.11746.11746,0,0,1-.21263.01984c-.15851-.27481-.3299-.57212-.50171-.87024C10.91286,66.27713,6.81245,59.15142,3.386,53.197a.09942.09942,0,0,1,.01255-.11617,20.89124,20.89124,0,0,1,6.74182-5.06873,13.40906,13.40906,0,0,1,6.35937-1.19327,12.88546,12.88546,0,0,1,4.06825.91154,9.64315,9.64315,0,0,1,.99508.4679l.24365.14226a.43864.43864,0,0,1,.07733.05526.49732.49732,0,0,1-.08585-.04233l-.24953-.12806c-.22263-.10878-.55442-.26837-1.003-.4391a13.1927,13.1927,0,0,0-4.0522-.853A13.37174,13.37174,0,0,0,10.206,48.15945,20.8254,20.8254,0,0,0,3.54535,53.214l.01245-.116C6.99341,59.0471,11.1048,66.16641,15.517,73.80655c.17186.29807.3432.59538.50166.87025l-.21472.026a7.69947,7.69947,0,0,1,1.36878-2.35618,10.8591,10.8591,0,0,1,.91883-.98211c.34689-.2795.67726-.581,1.04433-.826l.55678-.35632a3.71459,3.71459,0,0,1,.56985-.32582c.39724-.18058.7743-.40477,1.18238-.5458q.61148-.213,1.2161-.42352.62362-.14037,1.23982-.279a8.67745,8.67745,0,0,1,1.23835-.18526c.41286-.03827.82109-.111,1.22969-.11972q.61318-.00675,1.21761-.01345a8.81089,8.81089,0,0,1,1.19734.0314q.59244.04845,1.17541.09623a9.78437,9.78437,0,0,1,1.151.13061q1.133.18924,2.22491.37176l-.11144.15173c-3.39193-6.15748-6.2331-11.31514-8.23159-14.94311-.98831-1.80877-1.768-3.23575-2.30589-4.22013q-.39027-.72485-.603-1.12l-.15183-.29035A.60252.60252,0,0,1,21.884,48.39576Z"/>
          </g>
          <g>
            <path class="cls-6" d="M-12.9097,44.17478.40938,69.81962s10.82452-.47349,15.40594,4.80144L3.4719,53.14743S-3.76647,44.17478-12.9097,44.17478Z"/>
            <path class="cls-11" d="M-12.90965,44.17478s.10982.002.33789.01071q.36321.0147,1.02672.04191c.11323.00682.23484.00791.36.02117l.389.06412q.40909.06806.89051.148a7.77286,7.77286,0,0,1,1.02.24366c.35741.10873.75157.18232,1.14246.338A27.17506,27.17506,0,0,1,3.547,53.08677l.007.00971.00161.00284c3.51431,6.10174,7.76858,13.48833,12.36165,21.46316a.11742.11742,0,0,1-.18446.14193l-.00625-.0063c-.1649-.16386-.34353-.3414-.5225-.51933a11.32342,11.32342,0,0,0-3.40936-2.25332,19.68064,19.68064,0,0,0-3.80987-1.24815,31.77941,31.77941,0,0,0-7.57058-.74782l-.003,0a.10949.10949,0,0,1-.09949-.05929c-3.88261-7.52924-7.19959-13.96162-9.551-18.5215-1.15984-2.25966-2.08132-4.05489-2.71781-5.29486-.30919-.60541-.54892-1.07487-.71614-1.4023l-.18057-.35854a1.18571,1.18571,0,0,1-.05593-.11826c.00265.00166.02685.0448.07189.12787l.19653.36759c.17466.33079.42508.80517.748,1.41689.652,1.24082,1.59591,3.03723,2.78392,5.29832C-6.7418,55.91136-3.40219,62.29582.50689,69.7689L.4046,69.70979a31.85466,31.85466,0,0,1,7.63157.742A19.865,19.865,0,0,1,11.89122,71.712a11.54155,11.54155,0,0,1,3.47732,2.29865c.18347.18265.36655.365.53553.53329l-.19067.13568c-4.57957-7.98255-8.82134-15.37639-12.32523-21.484l.00848.01241A31.20362,31.20362,0,0,0-2.433,47.9327a22.45643,22.45643,0,0,0-5.34639-2.78585c-.38734-.15875-.77766-.23561-1.13194-.34789A7.82479,7.82479,0,0,0-9.92276,44.544q-.47737-.08667-.88365-.1604l-.38644-.07066c-.12237-.0152-.2382-.01828-.34774-.02784C-12.35382,44.21963-12.73163,44.18918-12.90965,44.17478Z"/>
          </g>
          <path class="cls-7" d="M2.40716,19.22516l.28594.47519a3.25511,3.25511,0,0,0,1.34605,1.23958l.49716.24583-.47519.2859A3.25463,3.25463,0,0,0,2.82149,22.8178l-.24579.49711-.28594-.47523A3.2545,3.2545,0,0,0,.94367,21.60019l-.49716-.24588.47523-.286a3.25452,3.25452,0,0,0,1.23954-1.346Z"/>
          <path class="cls-7" d="M123.91985,36.07844l.286.47523a3.25538,3.25538,0,0,0,1.346,1.23954l.49716.24583-.47518.286a3.2541,3.2541,0,0,0-1.23964,1.346l-.24578.49711-.28595-.47518a3.25512,3.25512,0,0,0-1.34609-1.23954l-.49716-.24588.47524-.286a3.25456,3.25456,0,0,0,1.23953-1.34609Z"/>
          <path class="cls-7" d="M120.56437,17.74661l.137.055a.866.866,0,0,0,.48447.04741l.145-.02752-.05508.13691a.86566.86566,0,0,0-.04735.48447l.02746.145-.13691-.055a.86523.86523,0,0,0-.48447-.0474l-.145.02746.05507-.13686a.86575.86575,0,0,0,.04736-.48447Z"/>
          <path class="cls-7" d="M7.74668,6.46391l.13686.055a.86628.86628,0,0,0,.48452.0474l.145-.02751-.05512.13691a.8652.8652,0,0,0-.04731.48447l.02742.145-.13686-.055a.8655.8655,0,0,0-.48452-.04741l-.145.02747.05508-.13691a.86562.86562,0,0,0,.04735-.48447Z"/>
          <circle class="cls-21" cx="107.83078" cy="12.67353" r="7.79144" transform="translate(21.20687 78.1288) rotate(-43.77896)"/>
          <g class="cls-12">
            <path d="M110.36966,9.68929a1.27075,1.27075,0,1,1,1.2403,1.30053A1.27074,1.27074,0,0,1,110.36966,9.68929Z"/>
          </g>
          <g class="cls-12">
            <path d="M112.911,12.65605a.7392.7392,0,1,1,.72149.75649A.73915.73915,0,0,1,112.911,12.65605Z"/>
          </g>
          <g class="cls-12">
            <path d="M111.91916,14.9259a.2726.2726,0,1,1-.279.266A.27273.27273,0,0,1,111.91916,14.9259Z"/>
          </g>
        </g>
      </g>
    </g>
  </g>
</svg>
