<svg xmlns="http://www.w3.org/2000/svg" xmlns:xlink="http://www.w3.org/1999/xlink" width="67.66981mm" height="40.40003mm" viewBox="0 0 191.81995 114.51978">
  <defs>
    <style>
      .cls-1, .cls-12, .cls-16, .cls-18, .cls-25 {
        fill: none;
      }

      .cls-2 {
        fill: #c588ff;
      }

      .cls-20, .cls-3 {
        fill: #b99552;
      }

      .cls-25, .cls-3 {
        stroke: #7a8637;
        stroke-width: 0.07116px;
      }

      .cls-12, .cls-16, .cls-18, .cls-25, .cls-3, .cls-30, .cls-31, .cls-32, .cls-35, .cls-9 {
        stroke-miterlimit: 10;
      }

      .cls-4 {
        fill: #e2c4ff;
      }

      .cls-5 {
        isolation: isolate;
      }

      .cls-6 {
        fill: #fff;
      }

      .cls-7 {
        clip-path: url(#clip-path);
      }

      .cls-8 {
        fill: #f7c4be;
      }

      .cls-13, .cls-9 {
        fill: #984d25;
      }

      .cls-16, .cls-18, .cls-35, .cls-9 {
        stroke: #000;
      }

      .cls-12, .cls-18, .cls-30, .cls-31, .cls-32, .cls-35, .cls-9 {
        stroke-width: 0.14233px;
      }

      .cls-10 {
        fill: #df7f47;
      }

      .cls-11 {
        fill: #b2643d;
      }

      .cls-12 {
        stroke: #6c7f57;
      }

      .cls-14 {
        fill: #fafbef;
      }

      .cls-15 {
        fill: #90908f;
      }

      .cls-16 {
        stroke-width: 0.28466px;
      }

      .cls-17 {
        fill: #ff764d;
      }

      .cls-19 {
        fill: #f49092;
      }

      .cls-21 {
        clip-path: url(#clip-path-2);
      }

      .cls-22, .cls-23, .cls-30, .cls-31 {
        fill: #f2f2f2;
      }

      .cls-23, .cls-24, .cls-31 {
        mix-blend-mode: multiply;
      }

      .cls-26 {
        clip-path: url(#clip-path-3);
      }

      .cls-27 {
        clip-path: url(#clip-path-4);
      }

      .cls-28 {
        fill: #6d8237;
      }

      .cls-29 {
        clip-path: url(#clip-path-5);
      }

      .cls-30, .cls-31 {
        stroke: #b2d682;
      }

      .cls-32, .cls-33 {
        fill: #dfa770;
      }

      .cls-32 {
        stroke: #dfa770;
      }

      .cls-34 {
        fill: #b6673d;
      }

      .cls-35 {
        fill: #c46d3e;
      }

      .cls-36 {
        fill: #dddddc;
      }

      .cls-37 {
        fill: #e2e2e2;
      }

      .cls-38 {
        clip-path: url(#clip-path-6);
      }

      .cls-39 {
        clip-path: url(#clip-path-7);
      }

      .cls-40 {
        fill: #f8eee4;
      }

      .cls-41 {
        fill: #f79647;
      }

      .cls-42 {
        fill: #125661;
      }

      .cls-43 {
        fill: #2f5a61;
      }

      .cls-44 {
        fill: #233862;
      }

      .cls-45 {
        fill: #72cde0;
      }

      .cls-46 {
        fill: #1c97ac;
      }

      .cls-47 {
        fill: #2bc1de;
      }
    </style>
    <clipPath id="clip-path">
      <path class="cls-1" d="M147.86486,39.79c-8.09,5.3-17.45-1.51-28.42,5.68994-10.08,6.61005-6.9,15.46-14.78,22.73-12.9,11.91-31.5-2.45-69.35-2.27-16.71.08-27.27,2.95-35.31,4.8V9.86A9.85428,9.85428,0,0,1,9.86486,0h146.74C160.00487,15.84,156.84484,33.9,147.86486,39.79Z"/>
    </clipPath>
    <clipPath id="clip-path-2">
      <path class="cls-3" d="M138.14266,20.92091a14.3882,14.3882,0,1,0,14.388-14.38878A14.38822,14.38822,0,0,0,138.14266,20.92091Z"/>
    </clipPath>
    <clipPath id="clip-path-3">
      <path class="cls-4" d="M129.27372-6.45539A11.14329,11.14329,0,0,0,140.41711,4.688,11.143,11.143,0,0,0,151.56022-6.45539a11.14306,11.14306,0,0,0-11.14311-11.14343A11.14333,11.14333,0,0,0,129.27372-6.45539Z"/>
    </clipPath>
    <clipPath id="clip-path-4">
      <path class="cls-2" d="M118.68211,13.05471a5.93,5.93,0,1,0,5.9302-5.9302A5.92992,5.92992,0,0,0,118.68211,13.05471Z"/>
    </clipPath>
    <clipPath id="clip-path-5">
      <path class="cls-2" d="M108.24421-5.03237a8.42827,8.42827,0,0,0,8.4286,8.42811,8.42805,8.42805,0,0,0,8.42835-8.42811,8.42847,8.42847,0,0,0-8.42835-8.4286A8.42869,8.42869,0,0,0,108.24421-5.03237Z"/>
    </clipPath>
    <clipPath id="clip-path-6">
      <path class="cls-2" d="M138.14266,20.92091a14.3882,14.3882,0,1,0,14.388-14.38878A14.38822,14.38822,0,0,0,138.14266,20.92091Z"/>
    </clipPath>
    <clipPath id="clip-path-7">
      <path class="cls-1" d="M165.41-103.39787c-2.89,8.59-14.33,10.31-34.86,18.19-31.54,12.12-30.94,18.2-50.02,24.76-5.89,2.03-47.26,15.6-80.53-.87006v-59.18a9.86064,9.86064,0,0,1,9.86-9.86H153.84C160.61-123.00792,168.38-112.19786,165.41-103.39787Z"/>
    </clipPath>
  </defs>
  <title>cards</title>
  <g class="cls-5">
    <g id="Layer_1" data-name="Layer 1">
      <g>
        <path class="cls-6" d="M11.61582,63.72492a2.81985,2.81985,0,0,1-2,.54,1.19316,1.19316,0,0,0,.12-.22.24888.24888,0,0,0,.04-.07q1.09506-1.965,2.3-3.89a.60589.60589,0,0,1,.07-.1,1.73818,1.73818,0,0,1,.11-.18A2.841,2.841,0,0,1,11.61582,63.72492Z"/>
        <g class="cls-7">
          <g>
            <rect class="cls-8" x="-35.17042" y="-28.44402" width="229.50936" height="122.58266" rx="61.29127" transform="translate(159.16851 65.69462) rotate(-180)"/>
            <path class="cls-9" d="M9.12309,67.00867c0,.75914.03109,1.51206.09332,2.25461A27.14521,27.14521,0,0,0,31.36842,93.701c.141.02489.28413.04978.42521.07259a27.25842,27.25842,0,0,0,4.45944.36506h86.513a27.10959,27.10959,0,0,0,27.13-27.13.462.462,0,0,0-.12445-.31528l-.01037-.01244a.46108.46108,0,0,0-.32564-.13483H9.58562a.46179.46179,0,0,0-.46253.46255Z"/>
            <rect class="cls-10" x="85.60149" y="74.09832" width="23.63774" height="14.83049" transform="translate(194.84073 163.02714) rotate(-180)"/>
            <polygon class="cls-11" points="83.618 84.684 55.843 84.684 61.844 73.642 91.058 72.813 83.618 84.684"/>
            <polygon class="cls-10" points="83.715 83.636 55.94 83.636 61.941 72.594 91.155 71.765 83.715 83.636"/>
            <path class="cls-12" d="M83.9509,75.06841a9.81294,9.81294,0,0,1-1.965,2.98678c-2.79191,2.88446-7.52412,4.0541-8.41016,2.82958-1.0901-1.50655,3.11009-7.37188,4.95179-6.83816.936.27126,1.53494,2.27432.86459,3.22258-.27721.39213-.96306.87491-6.83816.1572-3.78-.46176-5.06313-.853-6.44518,0-1.14633.70755-2.07347,2.09385-1.72918,2.751.50731.9683,3.95923.70474,4.48017-.55018.43917-1.05791-1.12948-3.00123-3.93-4.716"/>
            <g>
              <path class="cls-13" d="M65.99329,76.6l2.90382-3.94089a29.125,29.125,0,0,0-4.75255-6.05256C59.42377,61.9397,52.3806,56.321,51.32071,55.147a1.55619,1.55619,0,0,1-.15764-.18668c-.307-.5455,1.28914-4.072,1.35344-4.17156h0c-.82966-.20741-10.78561-2.07415-10.78561-3.52606-.43694.98864-.38227,2.46542-.91269,4.16223a40.43458,40.43458,0,0,0-1.37413,6.09283C38.97006,61.60207,49.56852,69.75053,65.99329,76.6"/>
              <path class="cls-14" d="M73.19118,5.12648a3.92524,3.92524,0,0,1,1.18844,3.01613,38.49246,38.49246,0,0,1-.65167,5.56476,10.80037,10.80037,0,0,1-.97074,3.05091c-.52354,1.03032-1.39778,2.75081-3.18959,3.32827a4.9926,4.9926,0,0,1-2.63488,0,7.55452,7.55452,0,0,1-4.02165-2.08017,8.48483,8.48483,0,0,1-2.08017-5.26975,9.67206,9.67206,0,0,1,.55471-5.54711,7.43963,7.43963,0,0,1,3.883-4.16033c3.05268-1.18976,6.26933.52345,7.90463,2.08016Z"/>
              <path class="cls-14" d="M60.73639,9.89884c-.1994,2.55718-.305,5.32954-.26058,8.28964.02944,1.96111.12216,3.83291.26058,5.60721.31281,2.42443,2.53909,4.26438,4.60256,3.75007,2.04719-.51024,3.40991-3.75007,3.40991-3.75007V20.93335a9.15883,9.15883,0,0,1-4.476-2.45995,7.98132,7.98132,0,0,1-.77158-.923C62.05971,16.04872,60.85462,13.66965,60.73639,9.89884Z"/>
              <path class="cls-15" d="M62.92279,17.5504a8.86087,8.86087,0,0,0,.85663,1.02475,10.16844,10.16844,0,0,0,4.96944,2.73111v-.91652A9.4601,9.4601,0,0,1,62.92279,17.5504Z"/>
              <path class="cls-16" d="M55.0055,45.18854s-1.65933,5.80764-2.489,5.60022"/>
              <path class="cls-14" d="M78.65088,50.78876s5.09206,6.86961,8.29663,9.77758c1.03708.94166,1.87711,1.46849,2.28157,1.21545,1.65933-1.03708,9.12629-12.03011,10.16337-16.38583s5.60022-16.17843,6.6373-18.46,2.6964-5.60022,3.31865-6.01505-1.03708-4.14832-1.03708-4.14832-10.29764,8.73-13.40887,16.61182a54.09874,54.09874,0,0,1-4.01318,7.92347c.61394,2.67567,1.45105,6.36965,1.45105,6.36965Z"/>
              <path class="cls-14" d="M108.31132,16.77259s6.6373-3.73348,10.5782-3.73348,4.77056-.41483,4.77056-.41483,1.03708,1.45191-3.9409,2.489c0,0,0,3.73348-1.03707,4.35573s-8.08922.20741-9.12629,1.45191"/>
              <path class="cls-14" d="M65.37628,76.5083l2.90382-3.94089s-2.53669-2.49522-5.69149-5.61267c-4.72078-4.66685-10.825-10.72547-11.88491-11.89944a1.55619,1.55619,0,0,1-.15764-.18668c-.307-.5455,1.90408-3.97823,1.96837-4.07778l.00208-.00208c-.82966-.20741-10.78561-2.07415-10.78561-3.52606a38.46829,38.46829,0,0,0-1.52969,4.07053,40.43458,40.43458,0,0,0-1.37413,6.09283c-.474,4.08431,10.12444,12.23277,26.5492,19.08224"/>
              <path class="cls-17" d="M52.51651,50.78876l-.00208.00208L50.7037,55.0553c1.05989,1.174,6.83794,6.906,11.55872,11.57285l24.68509-.28321v-5.7786c-3.20457-2.908-8.29663-9.77758-8.29663-9.77758l13.68944-3.11123s-.44388-1.9829-1.05782-4.65856a45.60056,45.60056,0,0,0-4.502-11.18036c-.62225-1.03708-2.08289-4.40158-7.82067-5.87532-3.468-.89075-8.813-1.87307-10.26489-2.13856h0s-1.44633,3.59257-3.52606,3.73348c-4.01186.27182-4.56315-3.9409-4.56315-3.9409s-12.57485,1.07082-14.435,5.05112c-.78547,1.68069-4.43978,17.14236-4.43978,18.59427S51.68685,50.58135,52.51651,50.78876Z"/>
              <path class="cls-14" d="M65.37628,76.5083l2.90382-3.94089,7.05213-1.45191s3.9409,7.05213,2.90382,7.88179S72.01358,80.65662,65.37628,76.5083Z"/>
              <path class="cls-18" d="M69.56762,13.014s.55471,2.21884-.27736,2.35752a2.072,2.072,0,0,1-1.10942,0"/>
              <ellipse cx="72.47985" cy="11.62721" rx="0.27736" ry="0.55471"/>
              <ellipse cx="67.14076" cy="11.69655" rx="0.27736" ry="0.55471"/>
              <path class="cls-18" d="M69.42894,17.45167a1.46226,1.46226,0,0,1-2.35752,0"/>
              <path class="cls-18" d="M73.4506,9.547a1.29743,1.29743,0,0,0-1.80281-.27735"/>
              <path class="cls-18" d="M68.04216,9.547a1.29743,1.29743,0,0,0-1.80281-.27735"/>
              <ellipse class="cls-19" cx="72.06382" cy="14.40076" rx="1.10942" ry="0.41603"/>
              <ellipse class="cls-19" cx="65.962" cy="14.40076" rx="1.10942" ry="0.41603"/>
              <path d="M64.43654,5.66407c2.42176-.884,3.7522,1.34941,7.766,1.38677,3.5455.033,6.87545-1.66906,6.7952-2.4962-.05009-.51646-1.46225-1.02715-2.63487-.97074-.43163.02076-.75538.24521-.83207.13868-.11386-.1582,1.13273-.689,1.38678-1.66414A2.27077,2.27077,0,0,0,76.46376.29191a6.16352,6.16352,0,0,0-3.33393-1.88474s-2.95745-.5892-8.69329,3.65127c-.18128.134-.4056.29839-.69339.55471-3.211,2.85992-3.55871,7.43578-3.05091,7.62728C61.15647,10.41549,61.66781,6.67476,64.43654,5.66407Z"/>
              <path class="cls-16" d="M70.62819,66.62815a8.02642,8.02642,0,0,0,1.38539-3.187C73.65017,53.26219,58.02228,41.589,43.63167,38.15485"/>
              <path class="cls-16" d="M91.41547,47.88692c-7.76877-6.68514-26.348-16.75948-40.55829-7.26153a26.96279,26.96279,0,0,0-7.52712,7.6247"/>
              <path class="cls-16" d="M85.65062,29.99152c-4.1894-.0556-7.27335-.44806-9.48872,1.50759-8.69414,7.67488-5.86047,26.21328,2.00521,35.048"/>
              <path class="cls-16" d="M53.64066,24.68813c2.63625,12.48971,14.29529,30.14911,26.25472,27.76,6.60952-1.3204,10.48129-8.19909,11.38719-9.80854"/>
              <path class="cls-16" d="M45.56222,30.553c14.221,6.33179,25.87265-3.2296,28.94319-5.60878"/>
              <path class="cls-16" d="M54.163,58.38063c11.4533-.44157,29.88286-5.7474,32.78455-18.37748,1.16441-5.06832-1.23135-7.94666-2.67427-11.416"/>
            </g>
            <g>
              <path class="cls-20" d="M138.14266,20.92091a14.3882,14.3882,0,1,0,14.388-14.38878A14.38822,14.38822,0,0,0,138.14266,20.92091Z"/>
              <g class="cls-21">
                <g>
                  <rect class="cls-22" x="150.81795" y="27.65497" width="2.83064" height="1.68341"/>
                  <path class="cls-23" d="M151.85574,29.11343a1.48883,1.48883,0,0,0,1.16552-1.21355.58872.58872,0,0,0-.02358-.24491h.65091v1.68341H150.818v-.21112A1.91508,1.91508,0,0,0,151.85574,29.11343Z"/>
                  <g>
                    <ellipse class="cls-22" cx="146.45279" cy="22.25364" rx="1.30507" ry="1.26033"/>
                    <g class="cls-24">
                      <path class="cls-22" d="M146.28436,21.55228a.52422.52422,0,0,0-.08706-.00325.72063.72063,0,0,0-.2315.04637.56217.56217,0,0,0-.27744.21237c-.01829.02766-.03212.05982-.04883.09111-.01179.03216-.02074.06632-.03049.10052l-.01058.10452c0,.03458.00241.06919.004.10335a.86192.86192,0,0,0,.04153.19688.83116.83116,0,0,0,.08053.177.647.647,0,0,0,.24491.2429.514.514,0,0,0,.12531.05208.64272.64272,0,0,0,.10252.01666c.05611.00163.08706.00042.08706.00042s-.02928-.01142-.07973-.03258c-.026-.00975-.05291-.02845-.08465-.04391a.78625.78625,0,0,1-.096-.072.5898.5898,0,0,1-.09194-.10211.77682.77682,0,0,1-.07732-.13181,1.03958,1.03958,0,0,1-.05532-.15376.76089.76089,0,0,1-.02929-.16763l-.00691-.08257.00691-.07936c.0065-.02441.01058-.04961.01629-.07481.01054-.02279.01708-.0472.02887-.06836a.56405.56405,0,0,1,.19325-.20342,1.22591,1.22591,0,0,1,.19446-.09927C146.25341,21.56165,146.28436,21.55228,146.28436,21.55228Z"/>
                    </g>
                    <path class="cls-23" d="M146.11631,22.31588a.21324.21324,0,1,0,.21117-.2445A.22876.22876,0,0,0,146.11631,22.31588Z"/>
                  </g>
                  <g>
                    <path class="cls-22" d="M159.139,22.25364a1.30546,1.30546,0,1,1-1.30428-1.26033A1.28355,1.28355,0,0,1,159.139,22.25364Z"/>
                    <g class="cls-24">
                      <path class="cls-22" d="M158.00276,21.55228a.54778.54778,0,0,1,.08831-.00325.72434.72434,0,0,1,.23025.04637.56042.56042,0,0,1,.27744.21237,1.01435,1.01435,0,0,1,.04883.09111c.01137.03216.02116.06632.03049.10052l.01021.10452c0,.03458-.00246.06919-.00409.10335a.88279.88279,0,0,1-.0407.19688.86968.86968,0,0,1-.07973.177.65726.65726,0,0,1-.2457.2429.51945.51945,0,0,1-.1261.05208.62705.62705,0,0,1-.1009.01666c-.057.00163-.08831.00042-.08831.00042s.02891-.01142.07936-.03258c.026-.00975.05286-.02845.08544-.04391a.81988.81988,0,0,0,.096-.072.70606.70606,0,0,0,.168-.23392.99763.99763,0,0,0,.05657-.15376.7863.7863,0,0,0,.02929-.16763l.0057-.08257-.0057-.07936c-.00571-.02441-.011-.04961-.01708-.07481a.63963.63963,0,0,0-.0285-.06836.56429.56429,0,0,0-.19321-.20342,1.16361,1.16361,0,0,0-.19488-.09927C158.03409,21.56165,158.00276,21.55228,158.00276,21.55228Z"/>
                    </g>
                    <path class="cls-23" d="M158.17081,22.31588a.21378.21378,0,1,1-.21154-.2445A.22879.22879,0,0,1,158.17081,22.31588Z"/>
                  </g>
                  <path class="cls-22" d="M146.45279,20.59218c0,4.28181,2.008,7.28737,5.78046,7.28737,3.77083,0,5.77971-3.00556,5.77971-7.28737,0-4.28135-2.08537-7.75232-5.8574-7.75232C148.38515,12.83986,146.45279,16.31083,146.45279,20.59218Z"/>
                  <path class="cls-22" d="M153.59123,29.26886s3.59019.47432,4.8806,1.59147c1.31565,1.13785,1.70458,2.122,2.17811,4.37045H143.81577c.47353-2.2485.86246-3.2326,2.17769-4.37045,1.29087-1.11715,4.88144-1.59147,4.88144-1.59147Z"/>
                  <path class="cls-22" d="M154.67622,29.45353a8.45172,8.45172,0,0,1,3.79561,1.4068c1.31565,1.13785,1.70458,2.122,2.17811,4.37045H143.81577c.47353-2.2485.856-3.2403,2.17769-4.37045a9.3564,9.3564,0,0,1,3.54221-1.35515l1.33923-.23632h2.71633Z"/>
                  <g>
                    <path class="cls-22" d="M152.90491,31.45508a.22681.22681,0,0,0-.048-.048.66039.66039,0,0,1,.048.048l.463,3.7757H151.097l.46257-3.7757-.31285-1.29774a.58217.58217,0,0,1-.03012-.61471.67914.67914,0,0,1,.42308-.31531,3.37978,3.37978,0,0,1,.86245-.03008.74828.74828,0,0,1,.6672.24571.56961.56961,0,0,1,.048.71439Z"/>
                    <path class="cls-23" d="M152.957,31.25412s-.94056-.43978-1.39293.201a1.49781,1.49781,0,0,1,1.34415,0Z"/>
                  </g>
                  <path class="cls-22" d="M154.67622,29.45353a8.45172,8.45172,0,0,1,3.79561,1.4068c1.31565,1.13785,1.70458,2.122,2.17811,4.37045H143.81577c.47353-2.2485.856-3.2403,2.17769-4.37045a9.3564,9.3564,0,0,1,3.54221-1.35515l2.69758,5.5718Z"/>
                  <path class="cls-22" d="M154.64243,29.49219,152.23325,35.077l2.56136-1.65575-.57605-.98938,2.86522-2.36686A8.24,8.24,0,0,0,154.64243,29.49219Z"/>
                  <path class="cls-22" d="M149.53567,29.50518l2.69679,5.5718-2.56174-1.65575.57685-.98938L147.38114,30.065A5.97632,5.97632,0,0,1,149.53567,29.50518Z"/>
                  <polygon class="cls-23" points="155.18 29.502 153.011 31.012 153.193 30.257 155.18 29.502"/>
                  <polygon class="cls-23" points="149.081 29.528 151.456 31.044 151.249 30.163 149.081 29.528"/>
                  <g>
                    <polygon class="cls-22" points="153.649 28.77 155.18 29.502 153.368 30.584 152.101 29.185 153.649 28.77"/>
                    <path class="cls-23" d="M153.67055,29.30789a1.10588,1.10588,0,0,0-.80143-.32873l.77947-.20866,1.53128.731-1.36814.8165A.81346.81346,0,0,0,153.67055,29.30789Z"/>
                  </g>
                  <g>
                    <polygon class="cls-22" points="150.582 28.77 149.051 29.502 150.862 30.584 152.129 29.185 150.582 28.77"/>
                    <path class="cls-23" d="M150.56,29.30789a1.1015,1.1015,0,0,1,.80063-.32873l-.779-.20866-1.53044.731,1.36648.8165A.81479.81479,0,0,1,150.56,29.30789Z"/>
                  </g>
                  <path class="cls-22" d="M157.99505,21.63526l-.585.58543-.11268-4.71422a2.49337,2.49337,0,0,0-2.639-2.44822,6.62944,6.62944,0,0,1-4.85174.19242,2.31529,2.31529,0,0,0-2.7167,2.14065l.01949,4.92456L146.487,21.549l-.03416-.64033a19.11525,19.11525,0,0,1,0-5.12918s.4894-3.37823,3.54258-3.95183c0,0,4.986-1.28312,7.08841,1.85588a6.36156,6.36156,0,0,1,1.18059,4.80374Z"/>
                </g>
              </g>
              <path class="cls-25" d="M138.14266,20.92091a14.3882,14.3882,0,1,0,14.388-14.38878A14.38822,14.38822,0,0,0,138.14266,20.92091Z"/>
            </g>
            <g>
              <path class="cls-4" d="M129.27372-6.45539A11.14329,11.14329,0,0,0,140.41711,4.688,11.143,11.143,0,0,0,151.56022-6.45539a11.14306,11.14306,0,0,0-11.14311-11.14343A11.14333,11.14333,0,0,0,129.27372-6.45539Z"/>
              <g class="cls-26">
                <g>
                  <rect class="cls-22" x="139.32136" y="-1.17938" width="2.19219" height="1.30372"/>
                  <path class="cls-22" d="M141.46974.07014s2.77949.36737,3.77917,1.23284c1.01923.88124,1.32011,1.64305,1.68683,3.385H133.8982c.36737-1.742.66824-2.50378,1.68683-3.385.99968-.86547,3.78043-1.23284,3.78043-1.23284Z"/>
                  <path class="cls-22" d="M142.53842.26046A5.71942,5.71942,0,0,1,145.24891,1.303c1.01923.88124,1.32011,1.64305,1.68683,3.385H133.8982c.36737-1.742.66824-2.50378,1.68683-3.385A5.69385,5.69385,0,0,1,138.28919.26233l2.12792,2.1166Z"/>
                </g>
              </g>
            </g>
            <g>
              <path class="cls-2" d="M118.68211,13.05471a5.93,5.93,0,1,0,5.9302-5.9302A5.92992,5.92992,0,0,0,118.68211,13.05471Z"/>
              <g class="cls-27">
                <g>
                  <rect class="cls-22" x="124.02866" y="15.86263" width="1.16662" height="0.69346"/>
                  <path class="cls-23" d="M125.12839,16.38038a.793.793,0,0,0-.50989-.2297c-.16631-.01257-.45084.02314-.53953-.15041a.19773.19773,0,0,0-.05031-.06386v-.07378h1.16662v.59906A.6047.6047,0,0,0,125.12839,16.38038Z"/>
                  <g>
                    <path class="cls-22" d="M121.69205,13.63618a.5382.5382,0,1,0,.53787-.51944A.52912.52912,0,0,0,121.69205,13.63618Z"/>
                    <g class="cls-24">
                      <path class="cls-22" d="M122.16051,13.34712a.20992.20992,0,0,0-.03621-.00117.29852.29852,0,0,0-.09506.01894.23576.23576,0,0,0-.11469.08787c-.00754.01123-.01292.02447-.02013.03738-.00451.01325-.00855.02716-.01256.04141l-.004.04292c-.00035.01442.001.02852.00134.04293a.39485.39485,0,0,0,.01742.08081.33567.33567,0,0,0,.03287.07311.26777.26777,0,0,0,.10093.10009.22847.22847,0,0,0,.052.02146.30442.30442,0,0,0,.04191.00689c.02347.00067.03621.00015.03621.00015l-.03286-.01358c-.01006-.00384-.02146-.01155-.0352-.01792a.27349.27349,0,0,1-.03925-.02969.25656.25656,0,0,1-.03822-.04191.3483.3483,0,0,1-.03152-.05432.42705.42705,0,0,1-.0228-.06372.289.289,0,0,1-.01207-.06891l-.00252-.034.00218-.03252.00721-.03085a.24108.24108,0,0,1,.01174-.0285.23114.23114,0,0,1,.07963-.08349.51113.51113,0,0,1,.08015-.04126C122.14777,13.351,122.16051,13.34712,122.16051,13.34712Z"/>
                    </g>
                    <path class="cls-23" d="M122.09127,13.66183a.08806.08806,0,1,0,.17437,0,.0881.0881,0,1,0-.17437,0Z"/>
                  </g>
                  <g>
                    <path class="cls-22" d="M127.45879,13.63618a.5382.5382,0,1,1-.53788-.51944A.52944.52944,0,0,1,127.45879,13.63618Z"/>
                    <g class="cls-24">
                      <path class="cls-22" d="M126.99016,13.34712a.21357.21357,0,0,1,.03605-.00117.302.302,0,0,1,.09524.01894.23582.23582,0,0,1,.11434.08787.36036.36036,0,0,1,.02013.03738c.005.01325.00872.02716.01256.04141l.00419.04292c0,.01442-.001.02852-.00166.04293a.38381.38381,0,0,1-.01678.08081.36112.36112,0,0,1-.0332.07311.2713.2713,0,0,1-.10092.10009.23619.23619,0,0,1-.05165.02146.32579.32579,0,0,1-.04225.00689c-.02347.00067-.03605.00015-.03605.00015l.033-.01358c.01039-.00384.0218-.01155.03487-.01792a.30284.30284,0,0,0,.03923-.02969.29073.29073,0,0,0,.03824-.04191.3233.3233,0,0,0,.03152-.05432.46933.46933,0,0,0,.02314-.06372.31684.31684,0,0,0,.01173-.06891l.00268-.034-.00234-.03252-.00688-.03085c-.00419-.00972-.00721-.01978-.0119-.0285a.23549.23549,0,0,0-.07965-.08349.49.49,0,0,0-.0803-.04126C127.00274,13.351,126.99016,13.34712,126.99016,13.34712Z"/>
                    </g>
                    <path class="cls-23" d="M127.0594,13.66183a.088.088,0,1,1-.08684-.10077A.09448.09448,0,0,1,127.0594,13.66183Z"/>
                  </g>
                  <path class="cls-22" d="M122.22992,12.95142c0,1.76454.82761,3.00343,2.38206,3.00343s2.38271-1.23889,2.38271-3.00343-.8598-3.19472-2.41423-3.19472S122.22992,11.18691,122.22992,12.95142Z"/>
                  <path class="cls-22" d="M125.17216,16.52743a5.24027,5.24027,0,0,1,2.01132.65607,2.69868,2.69868,0,0,1,.89768,1.80141h-6.938a2.69458,2.69458,0,0,1,.898-1.80141,5.23591,5.23591,0,0,1,2.011-.65607Z"/>
                  <path class="cls-22" d="M123.47939,16.62971a3.02939,3.02939,0,0,0-1.43826.55379,2.69458,2.69458,0,0,0-.898,1.80141h6.938a2.69868,2.69868,0,0,0-.89768-1.80141,3.04681,3.04681,0,0,0-1.44227-.5548,1.13708,1.13708,0,1,1-2.26182.001Z"/>
                  <path class="cls-22" d="M125.55326,16.59148a.181.181,0,0,0-.001.06589,1.0563,1.0563,0,0,1-.19482.7565.99576.99576,0,0,1-.7961.28086h-.00855a.96018.96018,0,0,1-.64183-.25067,1.15561,1.15561,0,0,1-.24445-.85258l-.37927.0669a1.37961,1.37961,0,0,0,.35815,1.05528,1.33006,1.33006,0,0,0,.902.35915c.01542,0,.02112-.00016.02984,0a1.33923,1.33923,0,0,0,1.06787-.4138,1.39562,1.39562,0,0,0,.28722-1.00063Z"/>
                  <path class="cls-22" d="M127.0594,11.981l-.08585,1.43992-.21025.05935c.1846-2.32437-1.03986-2.85654-1.03986-2.85654l-.34239-1.45484a1.70783,1.70783,0,0,1,1.50415.83028S127.27267,10.39249,127.0594,11.981Z"/>
                  <path class="cls-22" d="M127.048,12.16741s.0104-.04542.02416-.12507c.01189-.07965.034-.19333.05112-.33013.01844-.13682.03606-.29661.05081-.46781.00654-.08584.01593-.17419.02045-.2644l.00788-.136.002-.0342c.001-.0275-.00017-.02733-.00034-.04242l-.00184-.06858a1.32513,1.32513,0,0,0-.04847-.28888.77715.77715,0,0,0-.04525-.13482,1.0199,1.0199,0,0,0-.05685-.12574,1.30842,1.30842,0,0,0-.13648-.22014,1.37,1.37,0,0,0-.14906-.17454,1.7402,1.7402,0,0,0-.26123-.217.87414.87414,0,0,0-.11015-.065s.0327.0332.086.09288a2.54909,2.54909,0,0,1,.20188.25855,2.1253,2.1253,0,0,1,.11434.18225,1.77433,1.77433,0,0,1,.10346.21278,1.43244,1.43244,0,0,1,.07661.23691.75943.75943,0,0,1,.02416.12256.79491.79491,0,0,1,.01224.12777l.00352.06857c.00033.00788.002.031.00134.02615l-.00134.03437-.0047.13615c-.00369.09-.00268.17906-.004.2649-.00134.172.00134.33283.007.47066.00436.13782.01593.253.02029.33348C127.0418,12.12132,127.048,12.16741,127.048,12.16741Z"/>
                  <path class="cls-22" d="M122.18281,12.263l.086,1.44009.21025.05918c-.21344-3.1005.942-3.15214.942-3.15214l.4403-1.15924a1.70787,1.70787,0,0,0-1.50465.8306S121.969,10.67468,122.18281,12.263Z"/>
                  <path class="cls-22" d="M125.70718,10.61483a3.57273,3.57273,0,0,0-2.71756.17806l-.10512-1.06367s.27012-2.07674,2.98079-1.41511a1.99046,1.99046,0,0,0-.48424.315,1.61761,1.61761,0,0,1,1.50415.87791,2.61022,2.61022,0,0,0-1.27276-.08384S126.46385,9.9844,125.70718,10.61483Z"/>
                  <path class="cls-22" d="M122.8845,9.72922a1.57252,1.57252,0,0,1,.05265-.15259,2.11179,2.11179,0,0,1,.18728-.37406,2.61762,2.61762,0,0,1,.15727-.22551,2.0796,2.0796,0,0,1,.21226-.2168,1.82694,1.82694,0,0,1,.25754-.19231,1.22635,1.22635,0,0,1,.14621-.077.93111.93111,0,0,1,.15224-.0679,1.90941,1.90941,0,0,1,.32041-.0944,2.15043,2.15043,0,0,1,.32293-.05046c.10681-.00386.20976-.02146.30867-.01895.0986.00436.19248.006.27967.00738.17421.002.31874.02783.42151.0347.10245.00973.16215.01276.16215.01276s-.05551-.01928-.15476-.0488l-.17957-.052a1.27349,1.27349,0,0,0-.23709-.05449c-.08835-.01358-.1846-.028-.28688-.04059a2.91418,2.91418,0,0,0-.3251-.0062,1.82813,1.82813,0,0,0-.34858.03789,2.04641,2.04641,0,0,0-.35176.09708,1.07172,1.07172,0,0,0-.167.078,1.38842,1.38842,0,0,0-.1603.0887,1.6608,1.6608,0,0,0-.27463.226,1.69573,1.69573,0,0,0-.21125.25419,1.83391,1.83391,0,0,0-.13967.25838,1.49552,1.49552,0,0,0-.08434.23121c-.01878.07058-.03387.13212-.04259.18342A.8995.8995,0,0,0,122.8845,9.72922Z"/>
                </g>
              </g>
            </g>
            <g>
              <path class="cls-28" d="M108.24421-5.03286a8.42853,8.42853,0,0,0,8.4286,8.4286,8.42792,8.42792,0,0,0,8.42789-8.4286,8.42782,8.42782,0,0,0-8.42789-8.42811A8.42843,8.42843,0,0,0,108.24421-5.03286Z"/>
              <g>
                <path class="cls-2" d="M108.24421-5.03237a8.42827,8.42827,0,0,0,8.4286,8.42811,8.42805,8.42805,0,0,0,8.42835-8.42811,8.42847,8.42847,0,0,0-8.42835-8.4286A8.42869,8.42869,0,0,0,108.24421-5.03237Z"/>
                <g class="cls-29">
                  <g>
                    <rect class="cls-30" x="115.84354" y="-1.04183" width="1.65758" height="0.98607"/>
                    <path class="cls-31" d="M117.40676-.30549a1.12646,1.12646,0,0,0-.72466-.32671c-.23662-.01787-.64079.03311-.76709-.21423a.27735.27735,0,0,0-.07147-.09009v-.10531h1.65758v.85166A.86964.86964,0,0,0,117.40676-.30549Z"/>
                    <path class="cls-30" d="M117.46825-.09676a7.44842,7.44842,0,0,1,2.85886.932,3.83461,3.83461,0,0,1,1.27584,2.5605h-9.86054a3.83644,3.83644,0,0,1,1.27538-2.5605,7.45077,7.45077,0,0,1,2.85886-.932Z"/>
                    <path class="cls-30" d="M114.85649.09414a4.79663,4.79663,0,0,0-1.8387.7411,3.83644,3.83644,0,0,0-1.27538,2.5605H121.603a3.83461,3.83461,0,0,0-1.27584-2.5605A4.90409,4.90409,0,0,0,118.43429.0815l-1.76148,1.899Z"/>
                    <path class="cls-30" d="M117.82664-9.80239s2.42658.08221,2.891,3.91786c0,0,.09056,3.29448.09056,7.19041,0,0-.555-.97321-3.30712-1.3981v-.9103s2.29457-.40344,2.265-3.40431c0,0-.01549-3.46319-1.77676-4.12018Z"/>
                    <path class="cls-30" d="M115.518-9.80239s-2.75593-.13892-3.22083,3.69625c0,0-.05339,3.40384.22542,7.45062,0,0,.764-1.09068,3.32093-1.4367v-.9103s-2.29386-.40344-2.26431-3.40431c0,0,.01476-3.46319,1.77627-4.12018Z"/>
                  </g>
                </g>
              </g>
            </g>
            <g>
              <path class="cls-6" d="M14.83,17.48783a8.20772,8.20772,0,1,0,8.20776-8.20777A8.20745,8.20745,0,0,0,14.83,17.48783Zm1.7433,0a6.46523,6.46523,0,1,1,6.46446,6.46522A6.46472,6.46472,0,0,1,16.57331,17.48783Z"/>
              <rect class="cls-6" x="21.92977" y="24.33556" width="2.21675" height="4.1807"/>
              <path class="cls-6" d="M20.78379,38.89044a2.16588,2.16588,0,0,0,2.16557,2.16463h0a2.16581,2.16581,0,0,0,2.16548-2.16463V29.76969a2.16552,2.16552,0,0,0-2.16548-2.16556h0a2.16559,2.16559,0,0,0-2.16557,2.16556Z"/>
            </g>
            <path class="cls-32" d="M130.82215,77.32345V89.94884h6.434a27.22221,27.22221,0,0,0,10.60931-12.62539Z"/>
            <path class="cls-33" d="M31.36842,79.30842V93.701c.141.02489.28413.04978.42521.07259a27.25842,27.25842,0,0,0,4.45944.36506H55.0055V79.30842Z"/>
            <path class="cls-20" d="M12.06423,79.30842A27.19381,27.19381,0,0,0,31.36842,93.701c.141.02489.28413.04978.42521.07259V79.30842Z"/>
            <rect class="cls-10" x="22.38667" y="69.26316" width="16.01031" height="10.04498" transform="translate(60.78364 148.5713) rotate(-180)"/>
            <path class="cls-34" d="M9.21641,69.26328a26.95736,26.95736,0,0,0,2.84782,10.04514H22.35V69.26328Z"/>
            <path class="cls-16" d="M130.8536,25.01721l-22.40626,1.929a4.60975,4.60975,0,0,1-4.996-4.30263l-.86863-13.774A4.60975,4.60975,0,0,1,106.83421,3.983l23.27488-1.76771a4.60975,4.60975,0,0,1,4.95885,4.59651V20.42445A4.60975,4.60975,0,0,1,130.8536,25.01721Z"/>
            <path class="cls-35" d="M75.20014,71.1155l-2.73853-7.33924s-2.24009-1.51326-1.63717.62879,2.13634,7.19869,2.13634,7.19869Z"/>
            <polygon class="cls-33" points="112.936 11.451 113.905 11.451 113.905 8.64 112.936 8.866 112.936 11.451"/>
            <polygon class="cls-33" points="111.574 11.451 112.544 11.451 112.544 6.589 111.574 6.686 111.574 11.451"/>
            <polygon class="cls-33" points="110.213 11.451 111.182 11.451 111.182 10.077 110.213 10.285 110.213 11.451"/>
            <polygon class="cls-33" points="108.851 11.451 109.821 11.451 109.821 6.686 108.851 6.827 108.851 11.451"/>
          </g>
        </g>
        <polygon class="cls-11" points="83.618 84.684 55.843 84.684 61.844 73.642 91.058 72.813 83.618 84.684"/>
        <polygon class="cls-10" points="83.715 83.636 55.94 83.636 61.941 72.594 91.155 71.765 83.715 83.636"/>
        <path class="cls-12" d="M83.9509,75.06841a9.81294,9.81294,0,0,1-1.965,2.98678c-2.79191,2.88446-7.52412,4.0541-8.41016,2.82958-1.0901-1.50655,3.11009-7.37188,4.95179-6.83816.936.27126,1.53494,2.27432.86459,3.22258-.27721.39213-.96306.87491-6.83816.1572-3.78-.46176-5.06313-.853-6.44518,0-1.14633.70755-2.07347,2.09385-1.72918,2.751.50731.9683,3.95923.70474,4.48017-.55018.43917-1.05791-1.12948-3.00123-3.93-4.716"/>
        <path class="cls-35" d="M75.20014,71.1155l-2.73853-7.33924s-2.24009-1.51326-1.63717.62879,2.13634,7.19869,2.13634,7.19869Z"/>
        <path class="cls-36" d="M62.58861,67.71265c-4.29443-4.24543-9.72089-9.63025-11.46619-11.45411a16.60006,16.60006,0,0,1-2.54547,5.96167v3.95612H45.08306A95.30272,95.30272,0,0,0,65.37627,77.26617l3.89325,1.21259,2.90381-3.94092S65.7434,70.83008,62.58861,67.71265Z"/>
        <path class="cls-14" d="M65.37628,76.5083l2.90382-3.94089s-2.53669-2.49522-5.69149-5.61267c-4.72078-4.66685-10.825-10.72547-11.88491-11.89944a1.55619,1.55619,0,0,1-.15764-.18668c-.307-.5455,1.90408-3.97823,1.96837-4.07778l.00208-.00208c-.82966-.20741-10.78561-2.07415-10.78561-3.52606a38.46829,38.46829,0,0,0-1.52969,4.07053,40.43458,40.43458,0,0,0-1.37413,6.09283c-.474,4.08431,10.12444,12.23277,26.5492,19.08224"/>
        <path class="cls-14" d="M65.37628,76.5083l2.90382-3.94089,7.05213-1.45191s3.9409,7.05213,2.90382,7.88179S72.01358,80.65662,65.37628,76.5083Z"/>
        <path class="cls-37" d="M157.44225,11.12567a24.51287,24.51287,0,0,1-.51355,5.26734,58.43676,58.43676,0,0,1-1.45648,5.6922c.07641.575.131,1.15631.15735,1.74377a15.02756,15.02756,0,0,1-.41987,4.18048v.00012l-.00006.00043-.00006.00037v.00012l-.00006.00043a17.3171,17.3171,0,0,1-5.83575,10.61718h0l-.00013.00012a14.01158,14.01158,0,0,0,3.157.37616,14.36852,14.36852,0,0,0,4.91156-27.87872Z"/>
        <g>
          <path class="cls-2" d="M138.14266,20.92091a14.3882,14.3882,0,1,0,14.388-14.38878A14.38822,14.38822,0,0,0,138.14266,20.92091Z"/>
          <g class="cls-38">
            <g>
              <rect class="cls-22" x="150.81795" y="27.65497" width="2.83064" height="1.68341"/>
              <path class="cls-23" d="M151.85574,29.11343a1.48883,1.48883,0,0,0,1.16552-1.21355.58872.58872,0,0,0-.02358-.24491h.65091v1.68341H150.818v-.21112A1.91508,1.91508,0,0,0,151.85574,29.11343Z"/>
              <g>
                <ellipse class="cls-22" cx="146.45279" cy="22.25364" rx="1.30507" ry="1.26033"/>
                <g class="cls-24">
                  <path class="cls-22" d="M146.28436,21.55228a.52422.52422,0,0,0-.08706-.00325.72063.72063,0,0,0-.2315.04637.56217.56217,0,0,0-.27744.21237c-.01829.02766-.03212.05982-.04883.09111-.01179.03216-.02074.06632-.03049.10052l-.01058.10452c0,.03458.00241.06919.004.10335a.86192.86192,0,0,0,.04153.19688.83116.83116,0,0,0,.08053.177.647.647,0,0,0,.24491.2429.514.514,0,0,0,.12531.05208.64272.64272,0,0,0,.10252.01666c.05611.00163.08706.00042.08706.00042s-.02928-.01142-.07973-.03258c-.026-.00975-.05291-.02845-.08465-.04391a.78625.78625,0,0,1-.096-.072.5898.5898,0,0,1-.09194-.10211.77682.77682,0,0,1-.07732-.13181,1.03958,1.03958,0,0,1-.05532-.15376.76089.76089,0,0,1-.02929-.16763l-.00691-.08257.00691-.07936c.0065-.02441.01058-.04961.01629-.07481.01054-.02279.01708-.0472.02887-.06836a.56405.56405,0,0,1,.19325-.20342,1.22591,1.22591,0,0,1,.19446-.09927C146.25341,21.56165,146.28436,21.55228,146.28436,21.55228Z"/>
                </g>
                <path class="cls-23" d="M146.11631,22.31588a.21324.21324,0,1,0,.21117-.2445A.22876.22876,0,0,0,146.11631,22.31588Z"/>
              </g>
              <g>
                <path class="cls-22" d="M159.139,22.25364a1.30546,1.30546,0,1,1-1.30428-1.26033A1.28355,1.28355,0,0,1,159.139,22.25364Z"/>
                <g class="cls-24">
                  <path class="cls-22" d="M158.00276,21.55228a.54778.54778,0,0,1,.08831-.00325.72434.72434,0,0,1,.23025.04637.56042.56042,0,0,1,.27744.21237,1.01435,1.01435,0,0,1,.04883.09111c.01137.03216.02116.06632.03049.10052l.01021.10452c0,.03458-.00246.06919-.00409.10335a.88279.88279,0,0,1-.0407.19688.86968.86968,0,0,1-.07973.177.65726.65726,0,0,1-.2457.2429.51945.51945,0,0,1-.1261.05208.62705.62705,0,0,1-.1009.01666c-.057.00163-.08831.00042-.08831.00042s.02891-.01142.07936-.03258c.026-.00975.05286-.02845.08544-.04391a.81988.81988,0,0,0,.096-.072.70606.70606,0,0,0,.168-.23392.99763.99763,0,0,0,.05657-.15376.7863.7863,0,0,0,.02929-.16763l.0057-.08257-.0057-.07936c-.00571-.02441-.011-.04961-.01708-.07481a.63963.63963,0,0,0-.0285-.06836.56429.56429,0,0,0-.19321-.20342,1.16361,1.16361,0,0,0-.19488-.09927C158.03409,21.56165,158.00276,21.55228,158.00276,21.55228Z"/>
                </g>
                <path class="cls-23" d="M158.17081,22.31588a.21378.21378,0,1,1-.21154-.2445A.22879.22879,0,0,1,158.17081,22.31588Z"/>
              </g>
              <path class="cls-22" d="M146.45279,20.59218c0,4.28181,2.008,7.28737,5.78046,7.28737,3.77083,0,5.77971-3.00556,5.77971-7.28737,0-4.28135-2.08537-7.75232-5.8574-7.75232C148.38515,12.83986,146.45279,16.31083,146.45279,20.59218Z"/>
              <path class="cls-22" d="M153.59123,29.26886s3.59019.47432,4.8806,1.59147c1.31565,1.13785,1.70458,2.122,2.17811,4.37045H143.81577c.47353-2.2485.86246-3.2326,2.17769-4.37045,1.29087-1.11715,4.88144-1.59147,4.88144-1.59147Z"/>
              <path class="cls-22" d="M154.67622,29.45353a8.45172,8.45172,0,0,1,3.79561,1.4068c1.31565,1.13785,1.70458,2.122,2.17811,4.37045H143.81577c.47353-2.2485.856-3.2403,2.17769-4.37045a9.3564,9.3564,0,0,1,3.54221-1.35515l1.33923-.23632h2.71633Z"/>
              <g>
                <path class="cls-22" d="M152.90491,31.45508a.22681.22681,0,0,0-.048-.048.66039.66039,0,0,1,.048.048l.463,3.7757H151.097l.46257-3.7757-.31285-1.29774a.58217.58217,0,0,1-.03012-.61471.67914.67914,0,0,1,.42308-.31531,3.37978,3.37978,0,0,1,.86245-.03008.74828.74828,0,0,1,.6672.24571.56961.56961,0,0,1,.048.71439Z"/>
                <path class="cls-23" d="M152.957,31.25412s-.94056-.43978-1.39293.201a1.49781,1.49781,0,0,1,1.34415,0Z"/>
              </g>
              <path class="cls-22" d="M154.67622,29.45353a8.45172,8.45172,0,0,1,3.79561,1.4068c1.31565,1.13785,1.70458,2.122,2.17811,4.37045H143.81577c.47353-2.2485.856-3.2403,2.17769-4.37045a9.3564,9.3564,0,0,1,3.54221-1.35515l2.69758,5.5718Z"/>
              <path class="cls-22" d="M154.64243,29.49219,152.23325,35.077l2.56136-1.65575-.57605-.98938,2.86522-2.36686A8.24,8.24,0,0,0,154.64243,29.49219Z"/>
              <path class="cls-22" d="M149.53567,29.50518l2.69679,5.5718-2.56174-1.65575.57685-.98938L147.38114,30.065A5.97632,5.97632,0,0,1,149.53567,29.50518Z"/>
              <polygon class="cls-23" points="155.18 29.502 153.011 31.012 153.193 30.257 155.18 29.502"/>
              <polygon class="cls-23" points="149.081 29.528 151.456 31.044 151.249 30.163 149.081 29.528"/>
              <g>
                <polygon class="cls-22" points="153.649 28.77 155.18 29.502 153.368 30.584 152.101 29.185 153.649 28.77"/>
                <path class="cls-23" d="M153.67055,29.30789a1.10588,1.10588,0,0,0-.80143-.32873l.77947-.20866,1.53128.731-1.36814.8165A.81346.81346,0,0,0,153.67055,29.30789Z"/>
              </g>
              <g>
                <polygon class="cls-22" points="150.582 28.77 149.051 29.502 150.862 30.584 152.129 29.185 150.582 28.77"/>
                <path class="cls-23" d="M150.56,29.30789a1.1015,1.1015,0,0,1,.80063-.32873l-.779-.20866-1.53044.731,1.36648.8165A.81479.81479,0,0,1,150.56,29.30789Z"/>
              </g>
              <path class="cls-22" d="M157.99505,21.63526l-.585.58543-.11268-4.71422a2.49337,2.49337,0,0,0-2.639-2.44822,6.62944,6.62944,0,0,1-4.85174.19242,2.31529,2.31529,0,0,0-2.7167,2.14065l.01949,4.92456L146.487,21.549l-.03416-.64033a19.11525,19.11525,0,0,1,0-5.12918s.4894-3.37823,3.54258-3.95183c0,0,4.986-1.28312,7.08841,1.85588a6.36156,6.36156,0,0,1,1.18059,4.80374Z"/>
            </g>
          </g>
        </g>
      </g>
      <g class="cls-39">
        <g>
          <path class="cls-40" d="M41.88694-144.706H133.6151a84.68329,84.68329,0,0,1,84.68329,84.68329v.00017a84.68331,84.68331,0,0,1-84.68331,84.68331H41.88694A84.68329,84.68329,0,0,1-42.79635-60.0225v-.00019A84.68329,84.68329,0,0,1,41.88694-144.706Z"/>
          <g id="man">
            <g>
              <path class="cls-41" d="M69.77307.36069c3.3558.81848,6.74314,1.59653,10.04579,2.61472,1.01267-12.861,1.79883-22.67047,1.79883-22.67047L52.14086-21.51838s.42133,7.7971,1.02587,18.43974C58.75878-2.24941,64.29293-.97581,69.77307.36069Z"/>
              <path class="cls-42" d="M69.77307.36069c3.3558.81848,6.74314,1.59653,10.04579,2.61472,1.01267-12.861,1.79883-22.67047,1.79883-22.67047L52.14086-21.51838s.42133,7.7971,1.02587,18.43974C58.75878-2.24941,64.29293-.97581,69.77307.36069Z"/>
              <path class="cls-43" d="M44.18811-3.96711c8.48307.36478,16.8292,2.20087,25.05469,4.19923C73.72837-10.43193,76.8-18.132,76.8-18.132L46.45308-26.72813S45.02041-14.355,44.75986-8.10326a28.53819,28.53819,0,0,1-.573,4.13605Z"/>
            </g>
            <g>
              <path class="cls-44" d="M21.856-22.53743H33.81808a6.5316,6.5316,0,0,1,6.5316,6.5316V11.5971a6.53178,6.53178,0,0,1-6.53178,6.53178h-11.962a6.53168,6.53168,0,0,1-6.53168-6.53168V-16.00565A6.53178,6.53178,0,0,1,21.856-22.53743Z" transform="translate(26.09199 25.66524) rotate(-81.88975)"/>
              <path class="cls-43" d="M44.80884-9.11437v-.0015a6.58,6.58,0,0,0-4.5272-3.95427H40.28l-.00486-.00169c-.206-.04993-.41521-.09181-.6309-.12229L34.203-13.96826l.36369-2.55579a2.14577,2.14577,0,0,0-.412-1.60286,2.15158,2.15158,0,0,0-1.4243-.84333l-1.41944-.2029-5.7134-.81434-1.03-.14641a2.16564,2.16564,0,0,0-2.4463,1.83645l-.36369,2.55558-9.39242-1.339A6.57705,6.57705,0,0,0,4.94889-11.5155L3.24288.46475a6.57459,6.57459,0,0,0,5.5653,7.41456l27.27775,3.88825a6.41045,6.41045,0,0,0,1.42261.04507h.00488a6.44869,6.44869,0,0,0,2.12925-.53738,6.56917,6.56917,0,0,0,3.8594-5.07457L45.20955-5.7781A6.49912,6.49912,0,0,0,44.80884-9.11437ZM23.46334-18.106a.80936.80936,0,0,1,.67122-.68234.81937.81937,0,0,1,.243-.00338l1.21345.17221,4.49665.64213,2.45118.34931a.8084.8084,0,0,1,.68559.9125l-.3638,2.5558-9.761-1.39215Z"/>
            </g>
          </g>
          <path class="cls-42" d="M184.03762-12.39732c0,1.04887-.043,2.08914-.12894,3.11509a37.24555,37.24555,0,0,1-3.9347,13.8789,37.616,37.616,0,0,1-6.91509,9.51148,37.44019,37.44019,0,0,1-19.75661,10.37408c-.19486.03439-.39258.06878-.5875.10029a37.66129,37.66129,0,0,1-6.1614.50438H27.0223A37.315,37.315,0,0,1,7.00206,19.29805,37.61144,37.61144,0,0,1-7.65634,1.85413a37.35246,37.35246,0,0,1-2.80558-14.25145.63828.63828,0,0,1,.17194-.4356.07584.07584,0,0,1,.01432-.01719.637.637,0,0,1,.44993-.18628H183.39856a.63511.63511,0,0,1,.33531.09457A.64028.64028,0,0,1,184.03762-12.39732Z"/>
          <rect class="cls-45" x="45.84766" y="-2.86069" width="32.65918" height="20.49061"/>
          <path class="cls-46" d="M16.02755,1.59532V19.03923H7.138A37.61158,37.61158,0,0,1-7.52045,1.59532Z"/>
          <path class="cls-43" d="M153.43817,4.33786V24.22341c-.19485.03439-.39257.06878-.58749.1003a37.6624,37.6624,0,0,1-6.1614.50437H120.77991V4.33786Z"/>
          <path class="cls-46" d="M180.10988,4.33786a37.616,37.616,0,0,1-6.9151,9.51147,37.44009,37.44009,0,0,1-19.75661,10.37408c-.19485.03439-.39257.06878-.58749.1003V4.33786Z"/>
          <rect class="cls-45" x="143.72714" y="-9.54121" width="22.1207" height="13.87869"/>
          <path class="cls-47" d="M184.04457-9.541a37.24583,37.24583,0,0,1-3.93469,13.87891H165.89852V-9.541Z"/>
        </g>
      </g>
    </g>
  </g>
</svg>
