<svg xmlns="http://www.w3.org/2000/svg" xmlns:xlink="http://www.w3.org/1999/xlink" width="67.66981mm" height="40.40003mm" viewBox="0 0 191.81995 114.51978">
  <defs>
    <style>
      .cls-1 {
        fill: #e2c0c0;
      }

      .cls-2 {
        clip-path: url(#clip-path);
      }

      .cls-3 {
        fill: #fafbef;
      }

      .cls-4 {
        fill: #5a489c;
      }

      .cls-5 {
        fill: #6a5ca7;
      }

      .cls-6 {
        fill: #302561;
      }

      .cls-7 {
        fill: #a695c7;
      }

      .cls-8 {
        fill: #b82a50;
        stroke-width: 0.36113px;
      }

      .cls-11, .cls-13, .cls-8, .cls-9 {
        stroke: #000;
      }

      .cls-11, .cls-13, .cls-14, .cls-8, .cls-9 {
        stroke-miterlimit: 10;
      }

      .cls-11, .cls-13, .cls-14, .cls-9 {
        fill: none;
      }

      .cls-9 {
        stroke-width: 0.17313px;
      }

      .cls-10 {
        fill: #494061;
      }

      .cls-11 {
        stroke-width: 0.34626px;
      }

      .cls-12 {
        fill: #f49092;
      }

      .cls-13 {
        stroke-width: 0.08657px;
      }

      .cls-14 {
        stroke: #302561;
        stroke-width: 0.69253px;
      }
    </style>
    <clipPath id="clip-path">
      <path class="cls-1" d="M127.44231,57.97c-9.8,5.79-19.24,7.52-47.74,7.96008-35.44995.53992-61.51.94-79.65-1.2301V9.86A9.85427,9.85427,0,0,1,9.91234,0h152.45C163.66234,20.26,147.67235,46.02991,127.44231,57.97Z"/>
    </clipPath>
  </defs>
  <title>cards</title>
  <g id="Layer_1" data-name="Layer 1">
    <g>
      <g>
        <path class="cls-1" d="M127.44231,57.97c-9.8,5.79-19.24,7.52-47.74,7.96008-35.44995.53992-61.51.94-79.65-1.2301V9.86A9.85427,9.85427,0,0,1,9.91234,0h152.45C163.66234,20.26,147.67235,46.02991,127.44231,57.97Z"/>
        <g class="cls-2">
          <g>
            <rect class="cls-1" x="-26.21009" y="-52.52227" width="195.53684" height="149.11261" rx="74.55623"/>
            <path class="cls-3" d="M9.983,23.82526c-.03779,4.19137,4.05947,7.71656,7.698,7.78547a5.59391,5.59391,0,0,0,4.28637-1.66207,4.71765,4.71765,0,0,0,.96228-2.44936c.43989-2.85574,1.0418-6.76325-1.837-9.01014a7.20425,7.20425,0,0,0-9.01017.52486A6.92157,6.92157,0,0,0,9.983,23.82526Z"/>
            <path class="cls-4" d="M16.45119,35.09731s-7.081,3.68654-6.46842,13.309,1.7498,16.35822,1.7498,16.35822l15.83336-1.31215s1.22468-19.867-3.41161-25.67941c0,0-2.038-2.80509-4.03694-3.259A5.32606,5.32606,0,0,0,16.45119,35.09731Z"/>
            <path class="cls-5" d="M35.284,31.74672s-4.84506,1.01515-6.84013,4.56817-5.49415,19.99847-3.65713,22.63786l4.1989-1.11666L28.89811,53.877l.08748,3.95909.79137,6.8015,12.3302-2.63939s1.43313-28.52573-4.13842-30.25148S35.284,31.74672,35.284,31.74672Z"/>
            <path d="M21.09265,18.48915s-7.57786,2.16576-7.18421,4.1104a12.3227,12.3227,0,0,1-.01484,4.10119l-3.81554-1.7142a6.90684,6.90684,0,0,1,11.01459-6.49739Z"/>
            <path class="cls-3" d="M19.851,31.3107l.36684,4.41145s-2.68933,1.97039-3.57532.63529l-.76624-5.04674Z"/>
            <path class="cls-6" d="M.80328,38.7361A11.90714,11.90714,0,0,0-5.66515,50.35577,134.8778,134.8778,0,0,0-3.91534,64.63759L11.918,63.492S13.1427,46.14675,8.50641,41.07216c0,0-2.038-2.449-4.037-2.84533A5.96869,5.96869,0,0,0,.80328,38.7361Z"/>
            <path class="cls-6" d="M157.799,63.9639c0,.92344-.03782,1.83931-.11352,2.74256a33.02009,33.02009,0,0,1-26.94625,29.72665c-.17155.03028-.34563.06055-.51724.0883a33.15805,33.15805,0,0,1-5.42457.44406H19.56073A32.97677,32.97677,0,0,1-13.44084,63.9639a.562.562,0,0,1,.15138-.38351.06745.06745,0,0,1,.01261-.01513.56087.56087,0,0,1,.39612-.164H157.23633a.56173.56173,0,0,1,.56263.56265Z"/>
            <rect class="cls-5" x="36.13482" y="72.36007" width="28.75354" height="18.04018"/>
            <path class="cls-7" d="M9.88082,76.28319V91.641H2.05431A33.11373,33.11373,0,0,1-10.85113,76.28319Z"/>
            <path class="cls-4" d="M130.85883,78.69776V96.20525c-.17155.03027-.34562.06055-.51724.0883a33.15906,33.15906,0,0,1-5.42457.44406H102.1061V78.69776Z"/>
            <path class="cls-7" d="M154.34093,78.69776a33.0792,33.0792,0,0,1-23.4821,17.50749c-.17155.03027-.34562.06055-.51724.0883V78.69776Z"/>
            <rect class="cls-5" x="122.30912" y="66.47845" width="19.47534" height="12.21897"/>
            <path class="cls-4" d="M157.80508,66.4786a32.79145,32.79145,0,0,1-3.46415,12.21916H141.82907V66.4786Z"/>
            <polygon class="cls-3" points="28.986 54.122 29.777 63.485 25.374 64.934 24.787 55.659 28.986 54.122"/>
            <path class="cls-3" d="M65.13854,9.07889a10.23864,10.23864,0,0,0,7.35136,6.79654,6.37389,6.37389,0,0,0,4.85467-.69352c1.94783-1.35917,2.23311-3.82475,2.49669-6.103.30553-2.64084.61816-5.3431-.971-7.62876-2.43882-3.50772-8.71756-5.115-12.206-2.08057C62.99783,2.55883,64.987,8.63736,65.13854,9.07889Z"/>
            <path d="M75.264,1.10337a13.51005,13.51005,0,0,1-3.9531,1.4564c-2.47305.48717-3.64208-.02455-4.36922.83223-.96993,1.14288.51375,2.75619-.5548,4.716a3.40547,3.40547,0,0,1-2.2886,1.73381c-1.96722.15587-4.03514-2.69394-3.60634-4.57726.33332-1.46406,1.97217-1.45092,2.358-3.0515.38283-1.58806-1.0185-2.48026-1.0403-3.95309-.03682-2.4883,3.23736-4.70458,5.89494-5.40948.48161-.12774,4.10488-1.08879,6.38044.83223,1.4528,1.22645,1.00662,2.4883,2.42734,3.32891,1.94205,1.14907,3.64887-.6921,5.27079.34676,1.65668,1.06111,2.18534,4.46115.69349,6.58848-.29342.41842-.95693,1.48129-2.01122,1.5951-1.40187.15134-2.74391-1.43408-4.23049-3.19021C75.808,1.84743,75.48115,1.40793,75.264,1.10337Z"/>
            <path class="cls-8" d="M104.542,43.31873c-.483-2.67791-2.49308-12.07889-10.52812-18.93187a27.65671,27.65671,0,0,0-13.93364-6.34829l-2.55716.09793.277,5.01874c-2.197,2.92085-6.91314.48775-6.91314.48775V18.39261l-3.27049.12617A27.43582,27.43582,0,0,0,54.93623,26.739C47.74952,34.95165,47.32709,44.95336,47.289,47.4938H59.69736c-.54189,4.67224-1.205,11.26912-.72022,11.87363.76007.94536,36.34383-2.59507,36.34383-2.59507l-3.11638-12.399Q98.37241,43.84509,104.542,43.31873ZM59.70775,47.40718c.2545-2.20335.48132-3.96039.54362-4.43308Z"/>
            <path class="cls-9" d="M59.70775,45.03848c.2545-2.02565.48132-3.641.54362-4.07553Z"/>
            <path class="cls-3" d="M77.8,22.74255c-2.197,2.68528-6.91314.44842-6.91314.44842v-7.7944l6.45783-.21468.17833,2.94671Z"/>
            <path class="cls-3" d="M38.04678,15.44655c-.29757-.1876-4.14413-2.54369-6.56079-.69982-2.32481,1.77377-1.271,5.86608-1.13719,6.38583a9.61294,9.61294,0,0,0,3.93646,5.24863c1.49817,1.144,2.88445,2.20251,4.37386,1.837,2.08917-.51265,2.9796-3.48314,3.14918-5.16115A8.22773,8.22773,0,0,0,38.04678,15.44655Z"/>
            <path d="M35.77235,18.59572c2.656-2.30266,5.73926-1.6863,6.1234-3.41161.3234-1.45262-1.61981-2.97858-1.837-3.14917-3.005-2.35977-9.391-2.63654-12.33425,1.57458-2.25507,3.22643-1.27917,7.356.2624,9.71.44788.68386,1.867,2.85091,3.32417,2.62432C33.27838,25.63787,32.53733,21.40036,35.77235,18.59572Z"/>
            <path class="cls-3" d="M117.80573,22.5497c.14405.78144,1.36853,6.93459,6.1234,8.74772a5.63942,5.63942,0,0,0,3.41162.34991c3.20974-.78945,5.70173-5.08738,4.89871-9.01015-.75669-3.69651-4.44614-7.09348-8.48528-6.38583A7.70849,7.70849,0,0,0,117.80573,22.5497Z"/>
            <path class="cls-10" d="M125.09848,33.52s-4.406.05185-6.15556,3.28851-8.74772,20.907-6.21088,25.45585,22.30667-8.66024,22.30667-8.66024S132.1325,35.74252,128.8181,33.52,125.09848,33.52,125.09848,33.52Z"/>
            <path class="cls-6" d="M120.33493,35.15935s-2.35339,10.01845-3.92885,11.00918-2.36188-.26243-2.012-1.57459S119.68939,35.60968,120.33493,35.15935Z"/>
            <path class="cls-3" d="M47.06986,45.31562s-.73227,7.28221,0,9.72317,23.6838,8.62474,23.5992,9.76386,3.45641-5.53286,3.45641-5.53286-8.42294-4.55646-12.97941-5.37012-1.668-8.584-1.668-8.584"/>
            <path class="cls-3" d="M104.54253,41.45349s.40681,7.41061-.32546,9.85157S80.00916,62.7382,80.09376,63.87732s-2.4931-5.31424-2.4931-5.31424S85.58441,50.9796,90.14087,50.166s2.06386-7.74421,2.06386-7.74421"/>
            <path class="cls-11" d="M89.71631,21.09862s-21.817,17.77947-15.37285,36.21485"/>
            <path class="cls-11" d="M81.6319,55.08907S64.28227,31.84817,51.42313,45.00424"/>
            <path class="cls-11" d="M63.12754,54.13585s12.877-23.75664,1.89844-34.79707"/>
            <path class="cls-11" d="M50.18477,32.91731S84.6694,56.20244,95.47035,25.09914"/>
            <path class="cls-11" d="M58.37644,22.993s10.68338,17.14724,45.29743,14.93833"/>
            <ellipse cx="69.7137" cy="7.27253" rx="0.25553" ry="0.51107"/>
            <ellipse cx="75.20766" cy="7.05498" rx="0.25553" ry="0.51107"/>
            <path class="cls-9" d="M72.269,12.86836a1.34721,1.34721,0,0,0,2.172,0"/>
            <path class="cls-9" d="M68.62768,5.82845a1.19536,1.19536,0,0,1,1.661-.25553"/>
            <path class="cls-9" d="M74.37718,5.82845a1.19535,1.19535,0,0,1,1.661-.25553"/>
            <ellipse class="cls-12" cx="69.84147" cy="10.05749" rx="1.02213" ry="0.3833"/>
            <ellipse class="cls-12" cx="75.4632" cy="10.05749" rx="1.02213" ry="0.3833"/>
            <path class="cls-13" d="M72.17708,9.67419s-.34625.15234-.28247.3833,2.05388.33764,2.07575,0a.33521.33521,0,0,0-.26243-.3833"/>
            <path d="M126.6087,18.78761c-1.36561-.70555-2.8388,1.32024-5.861,2.012-1.50189.34376-4.23036.55124-4.81122-.52486-.76764-1.42214,2.04187-5.40781,5.86095-6.56079a8.95761,8.95761,0,0,1,7.34809,1.04973c3.23287,2.23767,4.50341,6.73348,3.49907,7.61051-.7949.69415-3.5656-.39761-4.9862-2.18692C127.0365,19.40392,127.123,19.05333,126.6087,18.78761Z"/>
            <rect class="cls-6" x="122.82529" y="48.67049" width="16.13956" height="11.39223"/>
            <path class="cls-14" d="M128.8181,48.67049a1.75439,1.75439,0,0,1,1.89254-1.89253,2.09015,2.09015,0,0,1,2.08124,2.08124"/>
            <path class="cls-9" d="M8.92284,59.98325C34.16368,66.75495,40.865,48.10652,44.20628,51.3371c3.63881,3.51826.61518,9.72532,4.46132,14.43374,7.45375,9.12483,29.51932,7.19548,32.01662.52486,1.207-3.2241-1.83775-8.46-5.511-9.1851-4.468-.882-10.00513,4.88234-9.18512,8.13537.99593,3.95091,11.86478,6.163,20.73212,3.674,9.466-2.657,11.21193-9.14475,18.63259-13.384,14.08743-8.04781,17.53435,7.09088,24.7998.6456,1.63942-1.45435,4.08251-3.61569,3.17057-11.14313"/>
            <path class="cls-3" d="M71.319,58.036c5.74235-2.82046,8.49132,3.45748,8.49132,3.45748,3.0411,6.48592-3.30314,8.1239-3.30314,8.1239-13.1394-.85976-9.905-6.748-9.905-6.748A9.95494,9.95494,0,0,1,71.319,58.036Z"/>
            <path class="cls-3" d="M36.356,27.80377l-.43566,4.61334s-2.24742,1.04973-2.68482,0l.4672-6.48829S36.4109,27.22227,36.356,27.80377Z"/>
            <path class="cls-3" d="M-5.66489,27.55268c-.03778,4.19138,4.05947,7.71656,7.698,7.78547a5.59391,5.59391,0,0,0,4.28636-1.66206,4.71772,4.71772,0,0,0,.96229-2.44937c.43989-2.85574,1.04179-6.76325-1.837-9.01014a7.20425,7.20425,0,0,0-9.01017.52486A6.9216,6.9216,0,0,0-5.66489,27.55268Z"/>
            <path class="cls-3" d="M4.20308,35.03813l.36685,4.41145S1.88059,41.42.9946,40.08486L.22836,35.03813Z"/>
            <path class="cls-3" d="M125.09848,31.78119v3.54018s2.32972,1.04973,3.292,0,0-4.06935,0-4.06935"/>
            <path d="M-5.90689,39.3068a6.85717,6.85717,0,0,1,1.267-1.49729c2.555-2.22977,1.25649-4.35869,1.75321-6.0378.81785-2.76471.331-5.85467,1.18094-6.03592.45633-.09732.76007.75849,1.57459,1.44337C2.19367,29.134,7.6103,28.79694,8.79149,26.12943c.94259-2.12869-.812-5.24011-3.018-6.692-3.46894-2.28312-8.684-.90582-9.80837,1.44337-.41047.85761-.04633,1.36547-.49205,2.65712a7.5895,7.5895,0,0,1-3.28041,3.674c-2.238,1.51587-2.99925,1.01039-4.46132,2.001-2.69022,1.8228-4.33641,6.38658-2.72273,9.57875,1.26125,2.495,4.53626,4.19625,5.7735,3.3132A14.50888,14.50888,0,0,0-5.90689,39.3068Z"/>
          </g>
        </g>
      </g>
      <rect class="cls-6" x="122.82529" y="48.67049" width="16.13956" height="11.39223"/>
      <path class="cls-14" d="M128.8181,48.67049a1.75439,1.75439,0,0,1,1.89254-1.89253,2.09015,2.09015,0,0,1,2.08124,2.08124"/>
    </g>
  </g>
</svg>
