<svg xmlns="http://www.w3.org/2000/svg" xmlns:xlink="http://www.w3.org/1999/xlink" width="67.66981mm" height="40.40003mm" viewBox="0 0 191.81995 114.51978">
  <defs>
    <style>
      .cls-1, .cls-14, .cls-19 {
        fill: none;
      }

      .cls-2 {
        clip-path: url(#clip-path);
      }

      .cls-3 {
        fill: #fedcd0;
      }

      .cls-4 {
        fill: #192e35;
      }

      .cls-5 {
        fill: #fafbef;
      }

      .cls-6 {
        fill: #f7996e;
      }

      .cls-7 {
        fill: #fbbf9e;
      }

      .cls-8 {
        fill: #f5f5f5;
      }

      .cls-10, .cls-12, .cls-20, .cls-9 {
        fill: #f0515d;
      }

      .cls-10 {
        stroke: #020202;
      }

      .cls-10, .cls-12, .cls-14, .cls-19 {
        stroke-miterlimit: 10;
      }

      .cls-10, .cls-12, .cls-19 {
        stroke-width: 0.16359px;
      }

      .cls-11 {
        opacity: 0.4;
      }

      .cls-12 {
        stroke: #060606;
      }

      .cls-13, .cls-21 {
        fill: #670c14;
      }

      .cls-14 {
        stroke: #fff;
        stroke-width: 0.81796px;
      }

      .cls-15 {
        fill: #c32127;
      }

      .cls-16 {
        fill: #ed848f;
      }

      .cls-17 {
        fill: #9f1d28;
      }

      .cls-18 {
        fill: #f49092;
      }

      .cls-19 {
        stroke: #000;
      }

      .cls-20, .cls-21 {
        font-size: 33.54739px;
        font-family: Inter-ExtraBold, Inter;
        font-weight: 800;
      }

      .cls-22 {
        clip-path: url(#clip-path-2);
      }

      .cls-23 {
        clip-path: url(#clip-path-3);
      }

      .cls-24 {
        fill: #e8505b;
      }

      .cls-25, .cls-27 {
        fill: #fff;
      }

      .cls-25, .cls-26 {
        opacity: 0.6;
      }

      .cls-28 {
        fill: #263238;
      }

      .cls-29 {
        fill: #455a64;
      }
    </style>
    <clipPath id="clip-path">
      <path class="cls-1" d="M160.87,53.72c-6.45,8.72-14.01,2.74-60.63,11.62-26.19,4.98-37.9,9.55-54.57,4.04-8.84-2.92-10.9-5.98-19.71-7.08C14.44,60.87,6.36,64.65,0,67.54V9.86A9.86064,9.86064,0,0,1,9.86,0H151.83C164.11,18.41,169.77,41.67,160.87,53.72Z"/>
    </clipPath>
    <clipPath id="clip-path-2">
      <path class="cls-1" d="M464.66211,144.76525v61.47a60.49616,60.49616,0,0,1-10.15,6c-16.32,7.56006-34.85,3.88-71.25-3.79-48.28992-10.17993-50.84-17.58-76.53992-18.18994a124.03682,124.03682,0,0,0-33.88013,3.79v-49.28a9.86717,9.86717,0,0,1,9.86011-9.86h172.1A9.86072,9.86072,0,0,1,464.66211,144.76525Z"/>
    </clipPath>
    <clipPath id="clip-path-3">
      <path class="cls-1" d="M164.58-121.29527c-1.47,17.92-20.10987,33.03-37.1399,35.62-10.97,1.67-14.26-2.91-28.8-5.3-26.84-4.42-35.98,7.87-66.68994,10.61-8.46.75-20.45007,1.82-31.95007.48v-52.36a9.85427,9.85427,0,0,1,9.86-9.86H154.59C161.11-136.06529,165.22009-129.15525,164.58-121.29527Z"/>
    </clipPath>
  </defs>
  <title>cards</title>
  <g id="Layer_1" data-name="Layer 1">
    <g class="cls-2">
      <g>
        <path class="cls-3" d="M53.21482-31.07694H97.08138a70.44833,70.44833,0,0,1,70.44833,70.44833v.00014a70.44839,70.44839,0,0,1-70.44839,70.44839H53.21482A70.44835,70.44835,0,0,1-17.23353,39.37157v-.00016A70.44835,70.44835,0,0,1,53.21482-31.07694Z"/>
        <path class="cls-4" d="M90.44127,32.79535a3.56635,3.56635,0,0,1-.18322,1.04371q-.15214.52516-.31736,1.09115-.23069.7902-.4875,1.6507c-.24212.81469-.50225,1.67187-.77707,2.55694-.08343.27159-.17014.54477-.25685.82123-.44333,1.41179-.89321,2.75161-1.32674,3.977v.00328c-.49569,1.39868-.97011,2.64368-1.39053,3.66933-.39591.96031-.7329,1.73083-.97667,2.25763-.11942.25026-.21591.45148-.2879.60365l-.00655.01469c-.02782.05728-.05071.10313-.06872.1342l-.01472.0278-.00816.018-.01147.01143a1.37138,1.37138,0,0,1,.08016-.21919c.06544-.15537.15051-.35986.25849-.61675.22574-.53495.5464-1.31034.9292-2.27552.45806-1.1648.98974-2.61261,1.54758-4.24039v-.0016c.36644-1.0699.74271-2.21673,1.119-3.41252.57093-1.80607,1.0846-3.51724,1.53775-5.02233q.16933-.56194.32719-1.08788A3.47985,3.47985,0,0,0,90.317,32.797,1.03906,1.03906,0,0,0,89.4319,31.683h-.00328c-.036.00328-.072.00815-.10795.01143l-.0131-.0965h.00327v-.00167l.01638-.0016.12269-.00983c.21757-.018.41879-.03435.60529-.04745a1.10109,1.10109,0,0,0-.301-.9619,1.476,1.476,0,0,0-.301-.22742.75809.75809,0,0,1,.33046.19794,1.14135,1.14135,0,0,1,.34515,1.03556l-.00491.02947-.03107.0016c-.1096.01142-.22574.02452-.34682.03762A1.21726,1.21726,0,0,1,90.44127,32.79535Z"/>
        <g>
          <g>
            <g>
              <path class="cls-4" d="M76.58135,13.596c.9882-.38227,2.107.44581,3.12932.16743a6.1679,6.1679,0,0,0,1.59742-1.06026,3.242,3.242,0,0,1,2.87023-.31784,2.303,2.303,0,0,1,1.658,1.74041c.74635-.50347,2.11676.38272,2.62794,1.29646a4.28063,4.28063,0,0,1,.29328,2.93165A13.81825,13.81825,0,0,1,86.8302,23.37c-.08528.135-.22584.2877-.3749.23051-.10318-.03965-.14469-.161-.17-.26855a11.56389,11.56389,0,0,1-.15486-2.812,6.99327,6.99327,0,0,0-.37818-2.77839,2.732,2.732,0,0,0-2.05053-1.74734,2.98427,2.98427,0,0,0-1.96093.571c-.58013.38332-1.07868.87611-1.62656,1.30431a3.83623,3.83623,0,0,1-1.8615.88124,1.82113,1.82113,0,0,1-1.79833-.7986,1.21224,1.21224,0,0,1,.59376-1.71484,1.36678,1.36678,0,0,1-.46681-2.64124Z"/>
              <g>
                <g>
                  <path class="cls-5" d="M87.32157,18.74435l-.04418,1.93859-.00163.0115v.0016L87.23,22.6935v.00168l-.01472.66907-.12106,5.21044-.00817.39093v.00328l-.00818.32886a3.45031,3.45031,0,0,1-3.02319,3.16881c-.07036-.35179-.24867-.97828-.64946-1.03228a1.552,1.552,0,0,0-1.42327.458,3.39063,3.39063,0,0,1-1.18441-2.65016c0-.03275.00162-.06382.00162-.09489.00163-.0933.00491-.18325.00655-.27319v-.03115c.00163-.03435.00163-.0687.00327-.10137.00983-.427.018-.782.01965-.97668v-.02125c.00162-.072.00162-.11615,0-.1342h-.00327a3.19388,3.19388,0,0,1-2.8089-2.979c-.05889-1.20074.00981-3.599.10307-5.86968.00655-.1636.01471-.32551.02125-.48583.00655-.15049.01965-.29939.04089-.4466a4.91622,4.91622,0,0,1,1.22042-2.647c.06871-.0802.14069-.15545.21757-.23069l.00164-.0016a4.94979,4.94979,0,0,1,1.17133-.854,4.215,4.215,0,0,1,.41715-.19467,4.91759,4.91759,0,0,1,1.70955-.37295l.25683-.00983a4.24772,4.24772,0,0,1,1.28914.21919h.00163c.06379.02125.126.04417.18812.07037h.00164a4.253,4.253,0,0,1,2.49642,3.08694c.00983.0377.01963.07532.02616.11295a6.08748,6.08748,0,0,1,.144,1.132.91932.91932,0,0,1,.00327.09489Q87.33385,18.48671,87.32157,18.74435Z"/>
                  <path class="cls-6" d="M80.82342,27.5709a6.2012,6.2012,0,0,0,3.4371-1.11707,3.2852,3.2852,0,0,1-3.41745,1.80771Z"/>
                </g>
                <g>
                  <g>
                    <g>
                      <path class="cls-4" d="M79.17715,20.27244a.38079.38079,0,0,0,.38124.37028.36431.36431,0,0,0,.37947-.35781.38092.38092,0,0,0-.38089-.37046A.36451.36451,0,0,0,79.17715,20.27244Z"/>
                      <path class="cls-4" d="M78.76143,19.56111c.049.04781.3293-.1763.73891-.19048.40889-.02009.71725.17936.75977.12756.021-.023-.03039-.11083-.16478-.20122a1.04493,1.04493,0,0,0-.61058-.16349,1.0036,1.0036,0,0,0-.58579.21356C78.77663,19.44836,78.73736,19.5397,78.76143,19.56111Z"/>
                    </g>
                    <g>
                      <path class="cls-4" d="M83.10024,20.27244a.38083.38083,0,0,0,.3813.37025.36417.36417,0,0,0,.37941-.35778.381.381,0,0,0-.38095-.37043A.36442.36442,0,0,0,83.10024,20.27244Z"/>
                      <path class="cls-4" d="M82.78939,19.4871c.04913.04787.32984-.17621.73908-.19041.40879-.02.71722.17932.7598.12752.02091-.023-.03-.11074-.16491-.20113a1.04488,1.04488,0,0,0-.61048-.16358,1.005,1.005,0,0,0-.58592.21356C82.805,19.37441,82.76548,19.46578,82.78939,19.4871Z"/>
                    </g>
                    <path class="cls-4" d="M81.41671,22.5795a2.7089,2.7089,0,0,0-.66951-.09518c-.105-.00687-.20474-.024-.22506-.09467a.53288.53288,0,0,1,.05827-.31258q.13326-.385.27945-.80777a13.6907,13.6907,0,0,0,.61672-2.10867,13.71926,13.71926,0,0,0-.785,2.05409q-.13936.42513-.26632.812a.60616.60616,0,0,0-.0389.41245.26252.26252,0,0,0,.17763.14645.71049.71049,0,0,0,.17851.01808A2.67169,2.67169,0,0,0,81.41671,22.5795Z"/>
                  </g>
                  <path class="cls-4" d="M82.62376,17.88631c.04454.10979.45141.04176.934.08172.48347.03027.87611.15644.93614.05424.02665-.04891-.04482-.15108-.20553-.253a1.62948,1.62948,0,0,0-1.42468-.10355C82.6899,17.74329,82.60436,17.83409,82.62376,17.88631Z"/>
                  <path class="cls-4" d="M78.86768,18.37031c.07553.09036.354-.01675.69307-.034.33837-.0291.62875.03909.69124-.06069.02718-.04828-.02142-.13977-.15026-.22314a1.0047,1.0047,0,0,0-1.11543.07631C78.87005,18.22887,78.83424,18.32616,78.86768,18.37031Z"/>
                </g>
              </g>
              <g>
                <path class="cls-7" d="M87.17778,20.72606c.04472-.02136,1.81067-.60992,1.82056,1.214a1.37106,1.37106,0,0,1-1.8268,1.4053C87.16811,23.29309,87.17778,20.72606,87.17778,20.72606Z"/>
                <path class="cls-6" d="M87.72493,22.65137c.008-.00586.03193.022.08579.04639a.31768.31768,0,0,0,.2375.00359.7862.7862,0,0,0,.36-.70733,1.04958,1.04958,0,0,0-.0914-.45444.36717.36717,0,0,0-.24033-.2426.16175.16175,0,0,0-.187.08813c-.02415.05111-.01241.08746-.022.09067-.00511.00456-.03934-.03039-.025-.10579a.20266.20266,0,0,1,.07114-.11467A.23974.23974,0,0,1,88.089,21.208a.44658.44658,0,0,1,.33343.281,1.07873,1.07873,0,0,1,.11291.50781.82472.82472,0,0,1-.45925.79013.34025.34025,0,0,1-.29088-.04667C87.72845,22.69543,87.71866,22.6547,87.72493,22.65137Z"/>
              </g>
              <path class="cls-4" d="M77.55529,17.74244a3.85105,3.85105,0,0,0,3.39011-.89784c.62765-.57389,1.09827-1.38263,1.90125-1.663a2.166,2.166,0,0,1,1.66362.16456,4.18486,4.18486,0,0,1,1.29782,1.10639,7.22957,7.22957,0,0,0,.34121,4.26477.7248.7248,0,0,0,.22773.41242.57916.57916,0,0,0,.72006-.18745A2.25171,2.25171,0,0,0,87.547,19.736a7.49987,7.49987,0,0,0-.128-2.95439,5.10571,5.10571,0,0,0-1.49828-2.52282,4.83718,4.83718,0,0,0-3.43814-1.15461,5.94,5.94,0,0,0-3.3966,1.35955,3.47973,3.47973,0,0,0-1.07059,1.33057Z"/>
            </g>
            <path class="cls-4" d="M81.6075,24.60319c.54211.12529,1.27455-.50731.80689-1.15634-.2255-.0657-.67811.26065-.90886.29926-.65052.24572-.6738.1918-.0464-.10856.28477-.09609.64627-.39233.98178-.37614C83.18345,23.80072,82.33,25.05908,81.6075,24.60319Z"/>
            <g>
              <g>
                <path class="cls-8" d="M79.71123,50.50754a1.39646,1.39646,0,0,1-.126-.19307c-.0229-.03762-.04745-.08179-.07688-.13084-.06708-.11614-.15213-.26336-.24867-.44-.27482-.499-.66255-1.22535-1.08625-2.15123l.00491-.17837.00164-.0981c.03109.07357.0638.14554.09487.21752.409.9341.782,1.672,1.04047,2.1791.12431.24371.2241.43838.29935.58568A1.45647,1.45647,0,0,1,79.71123,50.50754Z"/>
                <path class="cls-8" d="M87.42136,31.93817,84.0448,49.76978v4.54129l-.6102.00487.34518-.66579L84.09225,36.468l-.72473-2.71733.72473-1.047s-.00983-.09649-.03762-.23716c-.07036-.35179-.24867-.97828-.64946-1.03228a1.552,1.552,0,0,0-1.42327.458,1.35563,1.35563,0,0,0-.25847.81141l.56111.89649s-1.047,2.54064-1.27112,3.36187c-.22248.82284-.89321,16.74206-.89321,16.74206l.3092.6364L79.69,54.3471l.37789-8.49372s-.85558-10.91982-.53-13.97576a1.233,1.233,0,0,1-.20613-.30594c.00983-.00814.08671.06542.2176.2029a3.13389,3.13389,0,0,1,.054-.33214l1.20241-2.56836V28.8724l.00982-.01965,2.197,2.215,4.0244-2.53241.04908.43023v.00328Z"/>
              </g>
              <g>
                <path class="cls-9" d="M80.80566,28.84293v.02947l.00982-.01965Z"/>
                <path class="cls-9" d="M73.23294,51.57912l-.02943-.06055a.25468.25468,0,0,0,.02782.0294Z"/>
                <path class="cls-9" d="M73.24932,51.55947c-.00328.0016-.00819-.00168-.018-.0115l-.00492-.054C73.246,51.53327,73.25423,51.5562,73.24932,51.55947Z"/>
              </g>
              <g>
                <path class="cls-9" d="M74.52371,53.57658c-.00164.23716-.00327.43023-.00491.58072a.89427.89427,0,0,1-.0131.2029L74.32577,49.683v-.0016c.02289-.04417.04252-.08675.06051-.12437.04254.68544.07361,1.31856.09326,1.883C74.51389,52.34141,74.527,53.071,74.52371,53.57658Z"/>
                <path class="cls-9" d="M79.54928,31.77458c-.00492.03267-.00819.067-.01147.103a1.233,1.233,0,0,1-.20613-.30594C79.34151,31.56354,79.41839,31.6371,79.54928,31.77458Z"/>
                <polygon class="cls-9" points="79.69 54.347 79.69 54.36 78.003 54.36 79.69 54.347"/>
                <polygon class="cls-9" points="80.904 28.665 80.815 28.853 80.806 28.843 80.752 28.787 80.809 28.742 80.904 28.665"/>
              </g>
              <g>
                <path class="cls-9" d="M87.03692,28.53539l.04908.43023.00817-.39093Zm19.15343,8.36448L105.837,36.895l-.79506-.00983-.19468-.0016-1.60809-.01965-.144-.00167-.28629-.00328-.02452.83434a2.86967,2.86967,0,0,0-.25194-.4891.7846.7846,0,0,0,.06216.24044,5.55811,5.55811,0,0,0,.25028.62657,2.32664,2.32664,0,0,0,.59878.81964,1.7903,1.7903,0,0,0,1.17131.42855,1.56964,1.56964,0,0,0,1.101-.584,2.07072,2.07072,0,0,0,.44825-.91286,2.79684,2.79684,0,0,0,.05563-.566v-.01142Z"/>
                <path class="cls-10" d="M106.2198,37.25653a2.79684,2.79684,0,0,1-.05563.566,2.07072,2.07072,0,0,1-.44825.91286,1.56964,1.56964,0,0,1-1.101.584,1.7903,1.7903,0,0,1-1.17131-.42855,2.32664,2.32664,0,0,1-.59878-.81964,5.55811,5.55811,0,0,1-.25028-.62657.7846.7846,0,0,1-.06216-.24044,2.86967,2.86967,0,0,1,.25194.4891l.02452-.83434-.10632-.0016-.17014.31409-1.294,2.39829-.00817-.00655-.10308-.08507-2.42769-2.01871A42.58893,42.58893,0,0,0,95.673,32.49764a.2158.2158,0,0,1,.01306-.04417c.13907-.211-3.177-.93906-3.177-.93906L89.43026,30.186l-2.33609-1.61133-.00817.39093v.00328l.33536,2.96927L84.0448,49.76978V54.3602H94.91717l-.31081-10.18533.00653-.07365.00491-.05719.00327-.03107v-.00168l.00653-.072c.0311-.38606.09981-1.22207.18652-2.27392l.00981-.11783c1.09117,1.24005,3.23421,3.57612,4.1765,3.92136,1.29077.47272,3.87553,1.41993,4.69349.9472.818-.47448,2.88414-4.95195,2.88414-4.95195Zm-10.67606-4.4857.0098-.06055c.02619-.02292.0409-.03267.04418-.02947C95.60425,32.68736,95.583,32.71683,95.54374,32.77083Zm5.53761,6.80707.01472.054c-.02616.01142-.05236.02452-.07852.036a5.48577,5.48577,0,0,0-1.96312,1.56883c.02944-.04417.05889-.08834.09162-.13092a4.52323,4.52323,0,0,1,1.32183-1.18764c.28137-.16687.49567-.27159.5922-.32719a.24321.24321,0,0,0,.01636-.0278c-.12759.03435-.2552.07525-.37953.11942a2.11553,2.11553,0,0,1,.38933-.13579c.01965-.00487.03109-.00487.03273-.0016C101.12061,39.5517,101.10917,39.56153,101.08135,39.5779Z"/>
                <path class="cls-9" d="M95.59772,32.68081c.00653.00655-.01472.036-.054.09l.0098-.06055C95.57973,32.68736,95.59444,32.67761,95.59772,32.68081Z"/>
              </g>
              <g>
                <path class="cls-9" d="M95.59772,32.68081c.00653.00655-.01472.036-.054.09l.0098-.06055C95.57973,32.68736,95.59444,32.67761,95.59772,32.68081Z"/>
                <path class="cls-9" d="M101.08135,39.5779l.01472.054c-.02616.01142-.05236.02452-.07852.036a5.48577,5.48577,0,0,0-1.96312,1.56883c.02944-.04417.05889-.08834.09162-.13092a4.52323,4.52323,0,0,1,1.32183-1.18764c.28137-.16687.49567-.27159.5922-.32719a.24321.24321,0,0,0,.01636-.0278c-.12759.03435-.2552.07525-.37953.11942a2.11553,2.11553,0,0,1,.38933-.13579c.01965-.00487.03109-.00487.03273-.0016C101.12061,39.5517,101.10917,39.56153,101.08135,39.5779Z"/>
              </g>
              <path class="cls-4" d="M73.24932,51.55947c-.00328.0016-.00819-.00168-.018-.0115l-.00492-.054C73.246,51.53327,73.25423,51.5562,73.24932,51.55947Z"/>
              <path class="cls-4" d="M79.71123,50.50754a1.39646,1.39646,0,0,1-.126-.19307c-.0229-.03762-.04745-.08179-.07688-.13084-.06708-.11614-.15213-.26336-.24867-.44-.27482-.499-.66255-1.22535-1.08625-2.15123l-.0049-.01151a25.62276,25.62276,0,0,1-1.26948-3.36179,19.97314,19.97314,0,0,1-.782-4.33034,41.598,41.598,0,0,1-.02128-4.682c.00163-.0278.00163-.05568.00327-.08348q.02457-.53977.04581-1.04857a3.49225,3.49225,0,0,1,.14071-.98323,1.39723,1.39723,0,0,1,.229-.42368,1.0816,1.0816,0,0,1,.37136-.27647.89081.89081,0,0,1,.37791-.08507c-.04745-.03275-.09326-.06222-.13907-.09162l-.0409-.0262.02455-.0393a4.50239,4.50239,0,0,1,.6053-.70174c.18975-.18819.35335-.34684.481-.48095.126-.1342.21923-.2422.2781-.31744.04254-.054.06872-.09.0818-.10464l.00982-.00823a.51959.51959,0,0,1-.07033.12924,3.07156,3.07156,0,0,1-.26176.33542c-.1227.14066-.28138.30585-.4646.49892a4.67051,4.67051,0,0,0-.54967.66092c.10306.06215.211.12925.32555.19954a.55566.55566,0,0,1,.162.09985l.00492.00327-.06217.08667-.00655-.00487c-.0409-.0262-.0818-.05072-.12106-.07524l-.00164-.00168a.71872.71872,0,0,0-.584.03107.97178.97178,0,0,0-.32391.24866,1.30193,1.30193,0,0,0-.20122.38446,3.43508,3.43508,0,0,0-.12433.94721q-.01719.50792-.03762,1.04866a45.04048,45.04048,0,0,0,.03271,4.74906q.027.43182.07361.854l.00163.00982a21.36562,21.36562,0,0,0,1.08952,4.69179c.23885.6904.49241,1.32184.73455,1.883.03109.07357.0638.14554.09487.21752.409.9341.782,1.672,1.04047,2.1791.12431.24371.2241.43838.29935.58568A1.45647,1.45647,0,0,1,79.71123,50.50754Z"/>
              <path class="cls-4" d="M95.59772,32.68081c.00653.00655-.01472.036-.054.09l.0098-.06055C95.57973,32.68736,95.59444,32.67761,95.59772,32.68081Z"/>
              <g>
                <path class="cls-4" d="M101.08135,39.5779l.01472.054c-.02616.01142-.05236.02452-.07852.036.01473-.0262.02943-.05072.04253-.07692a.24321.24321,0,0,0,.01636-.0278.08787.08787,0,0,0,.0098-.01637c.01965-.00487.03109-.00487.03273-.0016C101.12061,39.5517,101.10917,39.56153,101.08135,39.5779Z"/>
                <path class="cls-4" d="M101.79789,38.45568a5.56425,5.56425,0,0,1-.40571.80486c-.05072.0949-.1047.19634-.162.30266l-.10308-.08507c.05727-.09817.11125-.18979.16359-.27486A4.47781,4.47781,0,0,1,101.79789,38.45568Z"/>
              </g>
              <path class="cls-4" d="M101.119,39.54523c.00164.00647-.0098.0163-.03762.03267a.11587.11587,0,0,1-.02127.0131.24321.24321,0,0,0,.01636-.0278c-.12759.03435-.2552.07525-.37953.11942a2.11553,2.11553,0,0,1,.38933-.13579C101.10589,39.542,101.11733,39.542,101.119,39.54523Z"/>
              <polygon class="cls-9" points="83.435 54.316 83.412 54.36 82.051 56.984 82.02 57.045 81.879 57.315 81.565 56.672 81.565 56.67 81.509 56.556 81.509 56.554 80.439 54.36 80.429 54.341 83.435 54.316"/>
              <g class="cls-11">
                <path d="M83.36752,33.75071l.72473,2.71733-.31247,17.18211-.34518.66579-3.00519.02461-.3092-.6364s.67073-15.91922.89321-16.74206c.22414-.82123,1.27112-3.36187,1.27112-3.36187l-.56111-.89649a1.35563,1.35563,0,0,1,.25847-.81141,1.552,1.552,0,0,1,1.42327-.458c.40079.054.5791.68049.64946,1.03228.02779.14067.03762.23716.03762.23716Z"/>
                <polygon points="83.435 54.316 83.412 54.36 82.051 56.984 82.02 57.045 81.879 57.315 81.565 56.672 81.565 56.67 81.509 56.556 81.509 56.554 80.439 54.36 80.429 54.341 83.435 54.316"/>
              </g>
              <path class="cls-4" d="M74.52371,53.57658c-.00164.23716-.00327.43023-.00491.58072a.89427.89427,0,0,1-.0131.2029,1.11543,1.11543,0,0,1-.01961-.2029c-.00655-.15049-.01474-.34188-.0262-.58072-.01634-.50388-.04743-1.2319-.0965-2.13166-.0262-.49892-.05891-1.05025-.0998-1.64575.0229-.0409.04253-.08012.06218-.11614v-.0016c.02289-.04417.04252-.08675.06051-.12437.04254.68544.07361,1.31856.09326,1.883C74.51389,52.34141,74.527,53.071,74.52371,53.57658Z"/>
              <g class="cls-11">
                <g>
                  <path class="cls-12" d="M79.54928,31.77458a3.13389,3.13389,0,0,1,.054-.33214l1.20241-2.56836v-.03115l-.054-.0556-2.18724,1.7488-.00982.00823-.16523.13084-6.4341,2.30827L67.25855,49.28059l.47115,5.07961h5.91061l-.36647-2.84163s.65437-1.07813.98975-1.7194c.0229-.0409.04253-.08012.06218-.11614v-.0016c.02289-.04417.04252-.08675.06051-.12437.04254.68544.07361,1.31856.09326,1.883.03435.90136.04745,1.631.04417,2.13653-.00164.23716-.00327.43023-.00491.58072a.89427.89427,0,0,1-.0131.2029h3.49763L79.69,54.3471l.37789-8.49372s-.85558-10.91982-.53-13.97576a1.233,1.233,0,0,1-.20613-.30594C79.34151,31.56354,79.41839,31.6371,79.54928,31.77458ZM73.23294,51.57912l-.02943-.06055a.25468.25468,0,0,0,.02782.0294l-.00492-.054c.01963.0393.02782.06223.02291.0655-.00328.0016-.00819-.00168-.018-.0115Z"/>
                  <path d="M79.50838,50.18363c-.06708-.11614-.15213-.26336-.24867-.44-.27482-.499-.66255-1.22535-1.08625-2.15123l-.0049-.01151a25.62276,25.62276,0,0,1-1.26948-3.36179,19.97314,19.97314,0,0,1-.782-4.33034,41.598,41.598,0,0,1-.02128-4.682q.05892-.589.1178-1.1763a28.64512,28.64512,0,0,0,.14069,6.70083l.00163.00982a27.38355,27.38355,0,0,0,1.08952,4.69179q.32393,1.0012.73291,1.98109a26.8424,26.8424,0,0,0,1.26784,2.647C79.46748,50.10024,79.48875,50.14113,79.50838,50.18363Z"/>
                </g>
              </g>
              <g class="cls-11">
                <path d="M94.85666,41.69646l-.22906,2.24285c.0311-.38606.09981-1.22207.18652-2.27392C94.82882,41.67681,94.84192,41.68663,94.85666,41.69646Z"/>
              </g>
              <g class="cls-11">
                <path d="M73.23294,51.57912l-.02943-.06055a.25468.25468,0,0,0,.02782.0294Z"/>
              </g>
              <g class="cls-11">
                <path d="M101.09607,39.6319c-.02616.01142-.05236.02452-.07852.036a5.48577,5.48577,0,0,0-1.96312,1.56883c.02944-.04417.05889-.08834.09162-.13092a4.52323,4.52323,0,0,1,1.32183-1.18764c.28137-.16687.49567-.27159.5922-.32719a.24321.24321,0,0,0,.01636-.0278l.00491.0147Z"/>
              </g>
            </g>
            <g>
              <g>
                <path class="cls-5" d="M108.29087,29.17834c-.018.04745-.06378.25026-.11778.50548v.00655c-.10959.5284-.25358,1.26952-.25358,1.26952l-.07688.85558-.04745.0965-.32718.66907-1.67355,2.92829v.01478L105.837,36.895l.01965.61515a2.52094,2.52094,0,0,1-.13252.97005,1.10015,1.10015,0,0,1-.17178.30594,1.16823,1.16823,0,0,1-1.29892.38118,2.5829,2.5829,0,0,1-1.47233-1.33l.00328-.144.02452-.83434.0131-.4744V36.383l.01635-.5971a.50232.50232,0,0,1,.03763-.17669l.43025-1.03068.0229-.04905v-.00327l.01144-.02948s-.37952-.43183-.80813-.93411a15.06675,15.06675,0,0,1-1.17786-1.48048c-.09981-.26336-.03763-.54478.42859-.35011a8.80371,8.80371,0,0,1,1.4249,1.09443c.32064.27973.56114.50228.56114.50228l.02452-.04258.54969-.97341v-.0016l.0098-.018-.0098-.0115c-.12106-.12757-1.3611-1.45268-1.49035-1.5999-.13414-.157-.05725-.97341.44988-.70182a7.36456,7.36456,0,0,1,.93738.70022c.44661.37128.854.741.854.741l.08671-.08667.18488-.18492.04743-.04577.03109-.03275-1.01265-1.55741s-.35009-.54637.07691-.70182c.42859-.15536.62328.15545.93574.50716a9.4072,9.4072,0,0,1,.64619.88506c.08834.13412.1456.22414.1456.22414l.11125-.00982.18975-.01478.37136-.08835.09326-.02284-.036-.54151s-.62491-.90143-.72961-1.10265a1.94354,1.94354,0,0,1-.1456-.29771.2896.2896,0,0,1,.1456-.41058c.35009-.15544.5791-.18652.76562.13244.00653.0115.0147.02293.02289.036l.00327.00487a2.10435,2.10435,0,0,0,.35662.36976l.00655-.005a2.49005,2.49005,0,0,1,.61675-.42041C108.286,27.97105,108.61151,28.29,108.29087,29.17834Z"/>
                <path class="cls-6" d="M105.77841,33.11053a3.04916,3.04916,0,0,1-.11467-.44466l-.13205-.47979c-.02479-.091-.05055-.187-.0731-.2894a.38677.38677,0,0,1-.00885-.04831.10224.10224,0,0,1,.00494-.039c.00228-.005-.00217.00264.0058-.01244a.08287.08287,0,0,1,.07231-.04048.08147.08147,0,0,1,.05613.02385l.003.0033.0107.01468.0097.02.00892.02472a.12.12,0,0,1,.00771.051l-.00141.00951a.08281.08281,0,0,1-.05351.06028.082.082,0,0,1-.06674-.00567l-.00535-.00349a.09854.09854,0,0,1-.01943-.01786.08838.08838,0,0,1-.00955-.01386l-.00743-.01348-.01858-.03316a.91632.91632,0,0,0-.08214-.12106,7.05947,7.05947,0,0,0-.79447-.74963c-.21587-.18453-.34462-.3083-.32984-.3265a1.35249,1.35249,0,0,1,.40085.23485,4.406,4.406,0,0,1,.85218.73964,1.01325,1.01325,0,0,1,.0971.14538l.01955.036.00189.00384a.40253.40253,0,0,1-.04412.02734c-.01726.00686-.01732.02381-.02822.01908-.10311.01522-.06415.011-.07338.0058l-.004-.012-.00048-.00126c-.01114.00652.03484-.01821.04344-.0211.01521-.005.02585-.02161.03054-.01682.01793.00781.02079-.00227.05584-.00176.03849-.00186.01027-.0018.01944.00094l.00126.00724.00355.01792.06236.28531c.04189.1832.07735.3506.099.49311A.862.862,0,0,1,105.77841,33.11053Z"/>
                <path class="cls-6" d="M106.69884,32.08136a3.50949,3.50949,0,0,0-.13505-.98527c-.19255-.51455-.51572-.85544-.47264-.89191a1.72274,1.72274,0,0,1,.71319,1.58362C106.776,31.98124,106.71556,32.08568,106.69884,32.08136Z"/>
                <path class="cls-6" d="M103.97177,35.22062a3.73667,3.73667,0,0,1-.781-.77507,3.746,3.746,0,0,1-.65763-.88326,3.744,3.744,0,0,1,.781.77517A3.75349,3.75349,0,0,1,103.97177,35.22062Z"/>
                <path class="cls-6" d="M104.66055,34.24228a3.236,3.236,0,0,1-.78329-.64938,3.23194,3.23194,0,0,1-.66856-.76666,6.31169,6.31169,0,0,1,1.45185,1.416Z"/>
                <path class="cls-6" d="M103.453,37.11576c-.00693.01518-.17665-.04422-.36048-.25646a1.47325,1.47325,0,0,1-.349-1.01052,1.385,1.385,0,0,1,.1574-.581c.08605-.16135.17606-.29038.23987-.40357.13394-.2231.14654-.38539.17136-.38524.02094-.00419.04906.1822-.06759.437a2.347,2.347,0,0,0-.33718.9396,1.55269,1.55269,0,0,0,.27646.93223C103.329,37.0003,103.46909,37.09264,103.453,37.11576Z"/>
                <path class="cls-6" d="M105.79441,35.50958A9.05626,9.05626,0,0,1,105.118,36.766a2.00308,2.00308,0,0,1-.35138.45222,1.24524,1.24524,0,0,1-.40224.25117c-.2599.09385-.43324.04592-.42886.02831-.00019-.0267.16288-.02434.38275-.13473a1.63275,1.63275,0,0,0,.66025-.68324A4.78991,4.78991,0,0,1,105.79441,35.50958Z"/>
                <path class="cls-6" d="M106.96679,30.67552a2.88554,2.88554,0,0,1-.07719-.85047l.01392.04418a4.21392,4.21392,0,0,1-.23923-.36779c-.17892-.31113-.3135-.60025-.42017-.8043-.10409-.20547-.1724-.332-.153-.34577.01736-.01257.12056.09208.25269.28653.1345.193.28772.47786.46217.781.07578.13019.15146.25242.224.36187l.01446.02179-.00051.02249A2.886,2.886,0,0,1,106.96679,30.67552Z"/>
                <path class="cls-6" d="M107.79534,31.91148c-.0149-.00831.02513-.12541.03953-.343a8.52156,8.52156,0,0,0,.01241-.89123l-.00022-.00727.00148-.00838L108,29.81875l.012-.06337-.00126.0098a1.14258,1.14258,0,0,0-.30921-.65609l-.37485-.52952a2.2183,2.2183,0,0,1-.31138-.51065,2.22143,2.22143,0,0,1,.40281.44212l.40316.50829a3.1432,3.1432,0,0,1,.22937.31935.77089.77089,0,0,1,.12371.43708l-.00031.00482-.001.00513-.0119.0634-.16538.84027.00126-.01553a4.98984,4.98984,0,0,1-.07269.90716C107.88362,31.80248,107.80948,31.92058,107.79534,31.91148Z"/>
              </g>
              <path class="cls-6" d="M104.49329,33.60015c-.04579-.0137.01483-.30972-.02665-.6692-.03618-.36017-.15857-.63634-.11675-.65952.03477-.02516.23826.24229.2798.64192A.86619.86619,0,0,1,104.49329,33.60015Z"/>
              <path class="cls-6" d="M105.74169,32.45306a5.40926,5.40926,0,0,1-.16037-.6959,5.41682,5.41682,0,0,1-.22021-.67936c.033-.02747.26767.23022.37831.63565A1.01515,1.01515,0,0,1,105.74169,32.45306Z"/>
            </g>
          </g>
          <g>
            <path class="cls-13" d="M109.54236,91.83076V54.3602H65.70279V88.53462C80.32385,89.54461,94.88366,91.40308,109.54236,91.83076Z"/>
            <g>
              <path class="cls-4" d="M59.10541,54.87988a21.408,21.408,0,0,1,4.16932-13.94253l.18883.14147A21.17312,21.17312,0,0,0,59.341,54.86542Z"/>
              <path class="cls-4" d="M63.48979,38.92546h.05433a.8873.8873,0,0,1,.8873.8873v2.14234a.887.887,0,0,1-.887.887h-.05454a.88721.88721,0,0,1-.88721-.88721V39.81253A.88707.88707,0,0,1,63.48979,38.92546Z" transform="translate(35.82514 -29.39467) rotate(35.72599)"/>
            </g>
            <g>
              <path class="cls-9" d="M62.59408,88.33332c12.47585.74879,24.89879,2.233,37.3683,3.03781V54.3602H56.12116V88.02339Q59.3593,88.13675,62.59408,88.33332Z"/>
              <path class="cls-4" d="M68.60388,54.36907s-.01244.05821-.0423.16755l-.13382.47777-.09829.345c-.04041.12466-.09505.25643-.148.4a9.4643,9.4643,0,0,1-.39673.96112l-.26036.54645c-.09235.18906-.21089.3739-.32137.57178a13.79364,13.79364,0,0,1-.78519,1.21562,14.4734,14.4734,0,0,1-4.977,4.3049,13.79467,13.79467,0,0,1-1.31618.60192c-.21177.08081-.41176.17151-.61219.23564l-.57823.17891a9.473,9.473,0,0,1-1.00823.25413c-.14972.03172-.288.06683-.41717.08882l-.35554.04755-.492.06359c-.11249.01379-.17186.0177-.17186.0177s.05845-.01282.17038-.03083l.48959-.07568.35383-.0531c.1285-.02375.26607-.0606.415-.09389a9.76366,9.76366,0,0,0,1.00262-.26272l.57487-.18226c.19927-.06513.398-.15675.60853-.23832a13.99082,13.99082,0,0,0,1.30828-.60491,14.60725,14.60725,0,0,0,4.95642-4.2871,13.99889,13.99889,0,0,0,.787-1.20737c.111-.19652.23032-.38.32348-.56781l.26319-.54258a9.75926,9.75926,0,0,0,.40442-.95434c.05446-.14261.1107-.27347.15275-.39721l.10352-.34253.14544-.47365C68.58274,54.42513,68.60388,54.36907,68.60388,54.36907Z"/>
              <path class="cls-4" d="M64.16778,54.50759s-.00309.04368-.01531.12613l-.05669.36039a4.455,4.455,0,0,1-.116.56535,7.21331,7.21331,0,0,1-.20582.73656l-.14166.42209c-.05061.14629-.12012.292-.18292.44646a10.50168,10.50168,0,0,1-.46133.95941,10.99449,10.99449,0,0,1-3.20521,3.63111,10.495,10.495,0,0,1-.89481.57691c-.14548.08148-.28147.16856-.42036.2369l-.4012.193a7.2257,7.2257,0,0,1-.70532.29561,4.45739,4.45739,0,0,1-.54655.18525l-.3505.10093c-.08028.0224-.12324.03087-.12324.03087s.04066-.01713.11971-.04359l.34628-.11256a4.75847,4.75847,0,0,0,.5412-.19517,7.53891,7.53891,0,0,0,.69861-.30329l.39746-.19583c.13759-.0692.27229-.157.41644-.239.292-.159.579-.368.88673-.57887a11.14324,11.14324,0,0,0,3.18785-3.61145c.171-.33151.34282-.6422.46426-.95164.06355-.15318.13391-.29774.1855-.44284l.145-.41868a7.53583,7.53583,0,0,0,.21426-.73089,4.75892,4.75892,0,0,0,.12651-.56126l.06872-.35765C64.15581,54.55007,64.16778,54.50759,64.16778,54.50759Z"/>
              <path class="cls-4" d="M76.67407,61.57749a.44144.44144,0,0,0-.19539.117.53592.53592,0,0,0-.13451.25561.454.454,0,0,0,.08444.39022l-.00447-.00252a8.38209,8.38209,0,0,0,1.68979.14377,2.91909,2.91909,0,0,0,1.12268-.26752,1.917,1.917,0,0,0,.89422-.97657,1.56475,1.56475,0,0,0,.122-.72642,1.11163,1.11163,0,0,0-.32553-.6959,2.07082,2.07082,0,0,0-1.60425-.42558,10.48764,10.48764,0,0,0-3.77491,1.01009,9.75533,9.75533,0,0,0-1.85275,1.14948,3.96121,3.96121,0,0,0-1.33051,1.84478A1.83233,1.83233,0,0,0,71.3932,64.563a1.85571,1.85571,0,0,0,.76188.92348,4.60426,4.60426,0,0,0,2.45237.53234,12.0121,12.0121,0,0,0,5.23407-1.13121,6.91031,6.91031,0,0,0,2.18864-1.7486A5.02027,5.02027,0,0,0,83.168,60.53053a4.238,4.238,0,0,0-.84475-3.15772,4.39453,4.39453,0,0,0-2.817-1.48763,8.56616,8.56616,0,0,0-3.13624.17c-.4995.1314-.98911.28128-1.47538.4197-.47081.18468-.941.3561-1.39684.54557a27.92437,27.92437,0,0,0-4.83614,2.83229c-1.433,1.0206-2.725,2.03053-3.92123,2.93013-1.18935.909-2.2966,1.69049-3.2875,2.34828a28.55615,28.55615,0,0,1-2.639,1.52867l-1.005.47821c-.298.12236-.55449.216-.75961.29643-.41148.15813-.6285.238-.6285.238s.21413-.08831.62374-.25029c.20421-.08238.45966-.17788.75656-.302l1.0013-.48313a28.98642,28.98642,0,0,0,2.63043-1.53654c.98807-.66012,2.09233-1.44342,3.2796-2.35458,1.19417-.90178,2.48462-1.91394,3.9178-2.93757a27.911,27.911,0,0,1,4.84332-2.84324c.45717-.19051.92893-.363,1.40131-.54857.4881-.13946.97935-.29016,1.48118-.42244a8.6245,8.6245,0,0,1,3.15982-.17243,4.458,4.458,0,0,1,2.858,1.51,4.302,4.302,0,0,1,.85926,3.2064,5.0845,5.0845,0,0,1-1.15238,2.64225A6.97169,6.97169,0,0,1,79.87129,64.945a12.06331,12.06331,0,0,1-5.263,1.13562A4.658,4.658,0,0,1,72.123,65.5368a1.91493,1.91493,0,0,1-.78465-.95346,1.89049,1.89049,0,0,1-.02854-1.20513,4.01363,4.01363,0,0,1,1.351-1.87108A9.79554,9.79554,0,0,1,74.526,60.3535a10.51745,10.51745,0,0,1,3.79454-1.00766,2.10884,2.10884,0,0,1,1.63471.44123,1.1501,1.1501,0,0,1,.33484.72053,1.59924,1.59924,0,0,1-.12676.7433,1.94775,1.94775,0,0,1-.91343.99056,2.94018,2.94018,0,0,1-1.13465.26559,8.25181,8.25181,0,0,1-1.69351-.15442l-.00277-.00044-.0018-.00214a.46577.46577,0,0,1-.08405-.40247.53946.53946,0,0,1,.14018-.2585A.38056.38056,0,0,1,76.67407,61.57749Z"/>
              <path class="cls-4" d="M94.40282,54.42935s-.14377.06413-.41941.18006a5.96366,5.96366,0,0,0-1.1159.67514,6.89258,6.89258,0,0,0-1.38629,1.52322c-.46561.65874-.935,1.45189-1.53339,2.27594-.5994.82077-1.22293,1.74349-1.923,2.71349a21.7994,21.7994,0,0,1-2.45417,2.92358,13.66793,13.66793,0,0,1-1.596,1.31382,14.89144,14.89144,0,0,1-1.8587,1.0927,19.01316,19.01316,0,0,1-4.28008,1.46908,40.6475,40.6475,0,0,1-8.70758.72415c-2.68858.0022-5.1114.00028-7.13721.17671a9.554,9.554,0,0,0-4.51714,1.48836,8.07129,8.07129,0,0,0-1.026.80808c-.21475.208-.32656.31873-.32656.31873s.10525-.11691.31746-.3283a7.76422,7.76422,0,0,1,1.02089-.81974A9.52187,9.52187,0,0,1,61.98714,69.451c2.02782-.18257,4.45311-.18541,7.14086-.191a40.81862,40.81862,0,0,0,8.69364-.72774,18.99451,18.99451,0,0,0,4.26584-1.46266,14.85724,14.85724,0,0,0,1.85136-1.08646,13.63444,13.63444,0,0,0,1.58983-1.30591,21.838,21.838,0,0,0,2.45212-2.912c.70115-.9675,1.32726-1.88915,1.92956-2.70889.59927-.82017,1.07121-1.61118,1.541-2.26979a6.86562,6.86562,0,0,1,1.40055-1.52219,5.80686,5.80686,0,0,1,1.12612-.667C94.2559,54.48507,94.40282,54.42935,94.40282,54.42935Z"/>
              <path class="cls-4" d="M56.12142,83.64169s.04409-.18131.13432-.5253c.04211-.17287.10129-.38473.18679-.63051.07883-.24792.17212-.53314.30411-.84452a10.91219,10.91219,0,0,1,1.14413-2.17544,11.13318,11.13318,0,0,1,2.1984-2.39615,17.43855,17.43855,0,0,1,7.70348-3.3727c1.57021-.3002,3.24076-.465,4.96851-.63439a46.82546,46.82546,0,0,0,5.31844-.73684,14.45371,14.45371,0,0,0,4.95406-1.97737,16.1482,16.1482,0,0,0,3.66269-3.36989A43.72955,43.72955,0,0,0,89.32818,63.295c.77778-1.187,1.49251-2.30025,2.18362-3.29062.3472-.49411.67786-.96464,1.01661-1.39082.16764-.21422.32269-.42857.48718-.625l.48492-.565c.30282-.373.62529-.68292.91321-.97626.146-.14453.27869-.29032.418-.41563l.40621-.34786c.26074-.21441.47544-.4264.69149-.57165l.53969-.3762c.29195-.203.4469-.3066.4469-.3066s-.1502.11124-.43941.3175l-.53534.3808c-.21447.14663-.4276.35994-.68661.57543l-.40354.34936c-.13841.12579-.27015.27205-.41528.417-.28613.29416-.60661.60469-.90766.97824l-.48212.56561c-.16358.19665-.31778.41128-.48454.6257-.337.42649-.666.89743-1.0116,1.39186-.68809.99119-1.40008,2.1052-2.17626,3.294a43.52641,43.52641,0,0,1-2.63053,3.69208,16.183,16.183,0,0,1-3.67457,3.38557,14.50024,14.50024,0,0,1-4.97487,1.98745,46.678,46.678,0,0,1-5.32622.73675c-1.728.16859-3.3966.33192-4.96354.62982a17.4342,17.4342,0,0,0-7.6855,3.3493,11.10188,11.10188,0,0,0-3.34809,4.54516c-.13357.31-.22859.59408-.30925.841-.08733.24474-.14849.45578-.19258.628C56.1742,83.46249,56.12142,83.64169,56.12142,83.64169Z"/>
              <path class="cls-4" d="M95.37253,78.35171a5.57111,5.57111,0,0,1-.08308.82,3.81108,3.81108,0,0,1-.27973.95884,1.56139,1.56139,0,0,1-.96291.91516,1.31426,1.31426,0,0,1-.80647-.018,2.05762,2.05762,0,0,1-.75344-.48284,3.49715,3.49715,0,0,1-.59115-.7792,3.541,3.541,0,0,1-.22333-.46885c-.0638-.16422-.144-.32588-.19428-.5019a9.45406,9.45406,0,0,1-.22557-4.90114,14.77792,14.77792,0,0,1,.84572-2.75371,8.56984,8.56984,0,0,1,.68406-1.37394,3.13845,3.13845,0,0,1,1.13149-1.11134,1.5727,1.5727,0,0,1,1.59286.08362,3.21332,3.21332,0,0,1,1.03138,1.34288,25.43946,25.43946,0,0,1,1.1079,3.37024A29.42742,29.42742,0,0,1,98.5734,80.995q-.00855.99121-.08337,1.99753a9.90709,9.90709,0,0,1-.33422,2.00518,4.86609,4.86609,0,0,1-.9521,1.82431,3.25894,3.25894,0,0,1-1.75628,1.09735,4.02044,4.02044,0,0,1-2.07734-.11775,6.24465,6.24465,0,0,1-1.82651-.95586,17.428,17.428,0,0,1-1.55012-1.31539c-.49307-.45582-.98114-.9105-1.44156-1.3855a8.19216,8.19216,0,0,1-2.09232-3.25,7.6906,7.6906,0,0,1-.0302-3.70452,17.98172,17.98172,0,0,1,.44611-1.74258c.175-.5652.335-1.12687.53623-1.66614l.28467-.80786.3129-.78346c.19823-.52192.42971-1.02019.64992-1.51317a35.79087,35.79087,0,0,1,2.94166-5.22986,36.22081,36.22081,0,0,1,5.69458-6.54537c.76821-.68065,1.37948-1.19309,1.81131-1.51812.42661-.33169.65262-.50315.65262-.50315s-.22062.17861-.64444.51355c-.429.32823-1.03736.8436-1.80236,1.52665a36.49065,36.49065,0,0,0-5.67329,6.55246,35.85787,35.85787,0,0,0-2.93064,5.22645c-.21929.49248-.44993.99021-.64733,1.51151l-.31167.7825-.28345.80683c-.2004.53855-.3597,1.09943-.53392,1.66378-.174.56438-.32389,1.1445-.44363,1.73782a7.63322,7.63322,0,0,0,.031,3.67476,8.13354,8.13354,0,0,0,2.0785,3.22329c.45893.47313.94621.92687,1.43935,1.3825A17.38047,17.38047,0,0,0,91.582,86.793a6.1811,6.1811,0,0,0,1.80746.946,3.9559,3.9559,0,0,0,2.04329.11644,3.19315,3.19315,0,0,0,1.72123-1.076,4.80163,4.80163,0,0,0,.93922-1.8,9.84658,9.84658,0,0,0,.3322-1.992q.07573-1.00279.08375-1.99286a29.40393,29.40393,0,0,0-.92169-7.5279,25.43564,25.43564,0,0,0-1.1017-3.36108,3.16051,3.16051,0,0,0-1.00989-1.32027,1.51687,1.51687,0,0,0-1.53749-.08188,3.08783,3.08783,0,0,0-1.11191,1.09137,8.52933,8.52933,0,0,0-.68141,1.36474,14.75288,14.75288,0,0,0-.847,2.74325,9.42579,9.42579,0,0,0,.21477,4.88027c.04956.17529.129.33629.19208.49994a3.51038,3.51038,0,0,0,.22046.466,3.46841,3.46841,0,0,0,.58331.7735,2.02965,2.02965,0,0,0,.74074.4783,1.28774,1.28774,0,0,0,.79029.02041,1.54121,1.54121,0,0,0,.95229-.89885,3.8331,3.8331,0,0,0,.28442-.95286c.048-.26575.06419-.47144.0788-.609C95.36561,78.42239,95.37253,78.35171,95.37253,78.35171Z"/>
              <path class="cls-4" d="M83.595,73.85955s-.086.07272-.25406.20642a7.5069,7.5069,0,0,1-.77054.53635,11.0943,11.0943,0,0,1-3.18833,1.30021,23.31557,23.31557,0,0,1-5.08022.59162,52.24242,52.24242,0,0,0-6.25024.34684,16.15733,16.15733,0,0,0-5.8546,2.093,14.30062,14.30062,0,0,0-3.83,3.34023,13.38443,13.38443,0,0,0-1.77234,2.94522c-.18049.36558-.26868.67111-.35277.86833-.07687.20021-.12046.30436-.12046.30436s.03508-.107.108-.30883c.08015-.19886.16458-.50624.3418-.87413a13.158,13.158,0,0,1,1.75934-2.96368,14.26348,14.26348,0,0,1,3.83522-3.36328,16.1505,16.1505,0,0,1,5.8759-2.106,51.53713,51.53713,0,0,1,6.25839-.34241,23.50939,23.50939,0,0,0,5.0708-.57622,11.24343,11.24343,0,0,0,3.18619-1.277,8.08713,8.08713,0,0,0,.7758-.52507C83.50327,73.92538,83.595,73.85955,83.595,73.85955Z"/>
              <path class="cls-4" d="M59.69613,88.17532c.33734-.39923.7048-.80278,1.10916-1.205A23.68469,23.68469,0,0,1,69.1612,81.646a35.62409,35.62409,0,0,1,12.20026-2.15562,68.23364,68.23364,0,0,1-.5971,7.08529q-.22459,1.60319-.55624,3.15843l.06562.00591q.32969-1.552.55556-3.15507a68.19714,68.19714,0,0,0,.598-7.12635l.00128-.034-.034.00048A35.6405,35.6405,0,0,0,69.141,81.59319a23.68105,23.68105,0,0,0-8.36556,5.34744c-.41187.4113-.78519.82411-1.12737,1.23222Z"/>
              <path class="cls-4" d="M65.729,88.53646q.415-.28254.84127-.55524a18.54647,18.54647,0,0,1,3.41812-1.77356A8.14187,8.14187,0,0,1,73.76,85.64411a4.00011,4.00011,0,0,1,1.75239.6225,2.70456,2.70456,0,0,1,1.07134,1.45156,3.93734,3.93734,0,0,1,.08156,1.69816l.06344.00559a3.9962,3.9962,0,0,0-.08353-1.72244A2.76926,2.76926,0,0,0,75.549,86.21309a4.06338,4.06338,0,0,0-1.78051-.63368,8.20285,8.20285,0,0,0-3.803.56674,18.59846,18.59846,0,0,0-3.43021,1.78q-.462.29487-.90922.603Z"/>
              <path class="cls-4" d="M84.93214,90.1624a7.43739,7.43739,0,0,1,1.40534-1.06751,7.13225,7.13225,0,0,1,1.907-.74966,8.64215,8.64215,0,0,1,1.92563-.21088,11.01418,11.01418,0,0,1,3.42612.57337,19.87586,19.87586,0,0,1,2.63987,1.14922c.7552.38742,1.393.74551,1.91259,1.04091l.69272.39876.04375.00295q-.31061-.18319-.72375-.42384c-.51779-.29891-1.15409-.66044-1.90851-1.05145a19.76021,19.76021,0,0,0-2.64193-1.16056A11.03507,11.03507,0,0,0,90.17018,88.08a8.68435,8.68435,0,0,0-1.93883.20912,7.18367,7.18367,0,0,0-1.92413.75342,7.51917,7.51917,0,0,0-1.45766,1.1124Z"/>
            </g>
          </g>
          <path class="cls-4" d="M106.2198,37.24511v.01142a2.79684,2.79684,0,0,1-.05563.566,2.07072,2.07072,0,0,1-.44825.91286,1.56964,1.56964,0,0,1-1.101.584,1.7903,1.7903,0,0,1-1.17131-.42855,2.32664,2.32664,0,0,1-.59878-.81964,5.55811,5.55811,0,0,1-.25028-.62657.7846.7846,0,0,1-.06216-.24044,2.86967,2.86967,0,0,1,.25194.4891c.04906.09657.103.20617.16523.32559a2.31629,2.31629,0,0,0,.58891.75414,1.69254,1.69254,0,0,0,1.0699.38278,1.44875,1.44875,0,0,0,.993-.52017,1.495,1.495,0,0,0,.12269-.15545,2.051,2.051,0,0,0,.32719-.68377c.1276-.53663.10632-.89656.139-.89656a.658.658,0,0,1,.02781.24707C106.2198,37.17641,106.2198,37.20908,106.2198,37.24511Z"/>
        </g>
        <circle class="cls-14" cx="11.44523" cy="7.93013" r="11.94892"/>
        <circle class="cls-14" cx="11.44523" cy="8.42421" r="4.93244"/>
        <path class="cls-15" d="M156.63709,78.99115c0,.87255-.03573,1.738-.10727,2.59145a31.20076,31.20076,0,0,1-25.46158,28.08878c-.1621.02861-.32658.05722-.48874.08344a31.33156,31.33156,0,0,1-5.12569.41959H26.01544A31.15982,31.15982,0,0,1-5.16783,78.99115a.531.531,0,0,1,.143-.36238.0636.0636,0,0,1,.01192-.01431.53.53,0,0,1,.37429-.155h160.744a.53076.53076,0,0,1,.53163.53165Z"/>
        <rect class="cls-16" x="41.67634" y="86.92471" width="27.1693" height="17.04622"/>
        <path class="cls-17" d="M16.86887,90.63167v14.51166H9.47358A31.28911,31.28911,0,0,1-2.7208,90.63167Z"/>
        <path class="cls-9" d="M131.18129,92.9132v16.54287c-.16209.02861-.32658.05722-.48874.08344a31.33146,31.33146,0,0,1-5.12569.41959h-21.5541V92.9132Z"/>
        <path class="cls-16" d="M153.36959,92.9132a31.25657,31.25657,0,0,1-22.1883,16.54287c-.16209.02861-.32658.05722-.48874.08344V92.9132Z"/>
        <rect class="cls-13" x="123.10265" y="81.36715" width="18.4023" height="11.54574"/>
        <path class="cls-9" d="M156.64288,81.36729a30.98484,30.98484,0,0,1-3.27329,11.54591H141.54711V81.36729Z"/>
        <path class="cls-14" d="M105.18566,63.43045c1.64171-3.0732,3.58015-5.67783,5.46591-5.46591,2.5559.28722,3.27341,5.55281,5.55681,5.5568,2.35646.00412,3.24016-5.60105,5.60105-5.60106,2.36148,0,3.24864,5.6079,5.60124,5.60124,2.34523-.00664,3.24479-5.58456,5.55627-5.55626,2.20752.027,2.951,5.13249,5.15851,5.15851,2.30051.02712,3.17263-5.49628,5.51923-5.51922,2.446-.02392,3.626,5.95636,5.81739,5.81739,1.20655-.07651,2.07422-1.9671,2.61141-3.51485"/>
        <ellipse class="cls-18" cx="83.75193" cy="22.33391" rx="0.88165" ry="0.33062"/>
        <ellipse class="cls-18" cx="79.21141" cy="22.45707" rx="0.88165" ry="0.33062"/>
        <path class="cls-4" d="M90.44127,32.79535a3.56635,3.56635,0,0,1-.18322,1.04371q-.15214.52516-.31736,1.09115-.23069.7902-.4875,1.6507c-.24212.81469-.50225,1.67187-.77707,2.55694-.08343.27159-.17014.54477-.25685.82123-.44333,1.41179-.89321,2.75161-1.32674,3.977v.00328c-.49569,1.39868-.97011,2.64368-1.39053,3.66933-.39591.96031-.7329,1.73083-.97667,2.25763-.11942.25026-.21591.45148-.2879.60365l-.00655.01469c-.02782.05728-.05071.10313-.06872.1342l-.01472.0278-.00816.018-.01147.01143a1.37138,1.37138,0,0,1,.08016-.21919c.06544-.15537.15051-.35986.25849-.61675.22574-.53495.5464-1.31034.9292-2.27552.45806-1.1648.98974-2.61261,1.54758-4.24039v-.0016c.36644-1.0699.74271-2.21673,1.119-3.41252.57093-1.80607,1.0846-3.51724,1.53775-5.02233q.16933-.56194.32719-1.08788A3.47985,3.47985,0,0,0,90.317,32.797,1.03906,1.03906,0,0,0,89.4319,31.683h-.00328c-.036.00328-.072.00815-.10795.01143l-.0131-.0965h.00327v-.00167l.01638-.0016.12269-.00983c.21757-.018.41879-.03435.60529-.04745a1.10109,1.10109,0,0,0-.301-.9619,1.476,1.476,0,0,0-.301-.22742.75809.75809,0,0,1,.33046.19794,1.14135,1.14135,0,0,1,.34515,1.03556l-.00491.02947-.03107.0016c-.1096.01142-.22574.02452-.34682.03762A1.21726,1.21726,0,0,1,90.44127,32.79535Z"/>
        <path class="cls-19" d="M67.7297,54.3602s4.99982-21.72026,10.465-23.39376"/>
        <path class="cls-19" d="M73.48568,53.1612s-6.70438-7.64665-3.62746-12.22385c0,0,6.28917,5.51246,4.52806,8.61971"/>
        <path class="cls-19" d="M80.75168,28.78733S70.3886,52.00034,79.69,54.3471c0,0-11.69017-16.92918-7.73467-21.36363"/>
        <path class="cls-19" d="M74.5188,54.1573S81.36964,40.39448,77.64833,32.55"/>
        <path class="cls-19" d="M95.686,32.45347S85.59272,49.67081,94.91717,54.3602"/>
        <path class="cls-19" d="M84.0448,54.31107s8.89188-23.66495,16.65211-8.25435"/>
        <path class="cls-19" d="M105.34906,43.93931S88.53394,38.56483,87.09417,28.57469"/>
        <path class="cls-19" d="M88.99838,54.1573s-.38219-20.99,3.98991-22.58623"/>
        <text class="cls-20" transform="translate(26.69355 48.91212)">A</text>
        <text class="cls-21" transform="translate(124.50287 29.51282)">B</text>
      </g>
    </g>
    <g class="cls-22">
      <ellipse class="cls-3" cx="355.54085" cy="158.2421" rx="170.96704" ry="71.42526"/>
    </g>
    <g class="cls-23">
      <g>
        <path class="cls-24" d="M65.18009-1.05817l4.61333,9.6654,1.44469,8.69688a1.09719,1.09719,0,0,0,1.33544.88786h0a1.09026,1.09026,0,0,0,.76307-.65329c.848-2.09984,3.92925-9.83963,3.552-10.52806-.43683-.79727-4.18953-10.5184-4.18953-10.5184Z"/>
        <path class="cls-25" d="M72.57355,18.192,76.59235,6.3514l.186.41386a1.65087,1.65087,0,0,1,.08193,1.13743c-.29263,1.00767-1.16145,3.77274-3.4939,9.623a1.09618,1.09618,0,0,1-.79281.66627Z"/>
        <g class="cls-26">
          <path class="cls-27" d="M73.17115,4.10149a.6639.6639,0,0,0,.18976.86536.63834.63834,0,0,0,.85945-.18057.70025.70025,0,0,0-.20577-.91528.66214.66214,0,0,0-.87313.28684"/>
        </g>
        <path class="cls-28" d="M72.88771,12.92037a2.36747,2.36747,0,0,0-2.41945-.0843c-.01922-.02017.07024-.15169.28443-.28675a1.74969,1.74969,0,0,1,1.87124.06516C72.82819,12.76409,72.90832,12.90152,72.88771,12.92037Z"/>
        <path class="cls-28" d="M72.77988,14.54113a8.97138,8.97138,0,0,0-1.054-.03106,8.96215,8.96215,0,0,0-1.00915.30583c-.05062-.03718.32634-.45572.97817-.539A1.217,1.217,0,0,1,72.77988,14.54113Z"/>
        <path class="cls-28" d="M73.42915,10.66155a10.96991,10.96991,0,0,0-1.62341-.15784,10.96612,10.96612,0,0,0-1.60083.3136,2.99952,2.99952,0,0,1,3.22424-.15576Z"/>
        <path class="cls-28" d="M72.2723,7.60618c.00024.07028-.64084.08738-1.35437.37768-.71771.28055-1.19441.70928-1.24257.65808a2.122,2.122,0,0,1,1.15543-.87659A2.12271,2.12271,0,0,1,72.2723,7.60618Z"/>
        <path class="cls-28" d="M70.98981,4.73471a5.36126,5.36126,0,0,0-1.42025.35565,5.36166,5.36166,0,0,0-1.149.90761c-.02519-.01326.02643-.1838.19313-.41518a2.39086,2.39086,0,0,1,1.92953-.94867C70.82813,4.64335,70.99469,4.70667,70.98981,4.73471Z"/>
        <path class="cls-28" d="M69.34149,4.53685a.92427.92427,0,0,1-.1794-.36352,2.81476,2.81476,0,0,1-.14136-1.09974,1.24816,1.24816,0,0,1,.24375-.76283.44116.44116,0,0,1,.49375-.11428.71737.71737,0,0,1,.35272.37157,1.55118,1.55118,0,0,1-.65145,1.86627,1.79913,1.79913,0,0,1-1.99768-.13379.62428.62428,0,0,1-.23977-.46154.43246.43246,0,0,1,.319-.39445,1.53259,1.53259,0,0,1,.79386.04523,3.13784,3.13784,0,0,1,1.00777.45923c.21443.15026.31061.25966.30181.27A4.99413,4.99413,0,0,0,68.297,3.65164a1.43293,1.43293,0,0,0-.693-.0225.2305.2305,0,0,0-.17508.21387.42848.42848,0,0,0,.17536.29423,1.6058,1.6058,0,0,0,1.73329.09595,1.34664,1.34664,0,0,0,.57582-1.5763.52062.52062,0,0,0-.23527-.26979.239.239,0,0,0-.27335.05915,1.12854,1.12854,0,0,0-.21837.64217A4.15964,4.15964,0,0,0,69.34149,4.53685Z"/>
        <path class="cls-28" d="M80.72426-18.98376,68.077-27.497,72.2625-68.60028l-11.98-6.99609L49.32709-78.13483s-4.5755,9.5184-6.61022,15.61185C38.38944-49.56349,35.35192-44.91937,36.046-35.52557c.21965,2.973,11.19879,10.41028,18.13222,14.54214a21.71632,21.71632,0,0,0,.36787,2.461c2.36949,10.71062,9.60123,24.955,9.60123,24.955l10.99121-5.11-3.5466-12.14527,3.6938,2.15429Zm-27.186-26.504L55.014-52.07614c-.31218,4.18883-.59718,8.55922-.80114,12.75027A13.027,13.027,0,0,1,53.53827-45.48775Z"/>
        <path class="cls-29" d="M64.14731,6.43252a1.16818,1.16818,0,0,1-.08525-.17347c-.05564-.12677-.131-.29864-.2276-.51852-.199-.46955-.48437-1.14283-.84969-2.00459-.73006-1.74409-1.77529-4.27246-3.0332-7.41052-1.25095-3.14066-2.74058-6.88129-4.24068-11.095-.37384-1.0539-.74039-2.14023-1.08444-3.26147-.15226-.568-.34386-1.12754-.44379-1.7286-.02865-.14842-.06242-.29717-.08685-.4463l-.05257-.44833q-.05022-.4496-.10078-.90339-.19306-1.8159-.31455-3.70024-.0598-.94116-.0985-1.89724c-.02264-.63468-.05152-1.28325-.01477-1.92826.18564-5.16476.62014-10.0604.977-14.51665.37218-4.4518.70747-8.46171.98939-11.8338.27278-3.36893.4634-6.0972.57161-7.98387.059-.94313.09159-1.676.11375-2.17305l.03064-.56531a1.171,1.171,0,0,1,.01852-.19241,1.18187,1.18187,0,0,1,.00554.193l-.00729.56615c-.00692.49778-.02477,1.23182-.06976,2.17623-.08013,1.88928-.24555,4.62067-.49716,7.99206-.26767,3.37342-.58591,7.38494-.93929,11.83859-.34491,4.45473-.77278,9.35562-.95781,14.50377-.0367.64345-.008,1.277.0143,1.91448q.03666.95259.09728,1.8916.11727,1.87736.31019,3.69077.04986.45256.09926.90116l.05176.4472c.024.14657.05669.28983.08444.43432.09453.57889.28519,1.14231.4347,1.70387.34,1.11594.70316,2.20071,1.07359,3.25389,1.48665,4.21151,2.96009,7.95811,4.19081,11.10545C61.354-.60424,62.36534,1.93389,63.0695,3.70122c.3477.86892.6193,1.54774.80877,2.02118l.20605.52742A1.17565,1.17565,0,0,1,64.14731,6.43252Z"/>
      </g>
    </g>
  </g>
</svg>
