<svg xmlns="http://www.w3.org/2000/svg" xmlns:xlink="http://www.w3.org/1999/xlink" width="67.66981mm" height="40.40003mm" viewBox="0 0 191.81995 114.51978">
  <defs>
    <style>
      .cls-1, .cls-31 {
        fill: none;
      }

      .cls-2 {
        clip-path: url(#clip-path);
      }

      .cls-3 {
        fill: #cbdbff;
      }

      .cls-3, .cls-5 {
        fill-rule: evenodd;
      }

      .cls-4 {
        clip-path: url(#clip-path-2);
      }

      .cls-5 {
        fill: #b3c8f7;
      }

      .cls-6 {
        fill: #ebebeb;
      }

      .cls-7 {
        fill: #e6e6e6;
      }

      .cls-8 {
        fill: #f0f0f0;
      }

      .cls-9 {
        fill: #fafafa;
      }

      .cls-10, .cls-13, .cls-14, .cls-22, .cls-23, .cls-24, .cls-27 {
        fill: #fff;
      }

      .cls-11 {
        fill: #f5f5f5;
      }

      .cls-12, .cls-16 {
        fill: #407bff;
      }

      .cls-13, .cls-19, .cls-21 {
        opacity: 0.4;
      }

      .cls-13, .cls-14, .cls-16, .cls-18, .cls-19, .cls-22, .cls-23, .cls-24, .cls-25, .cls-27, .cls-32 {
        isolation: isolate;
      }

      .cls-14 {
        opacity: 0.6;
      }

      .cls-15, .cls-16, .cls-24 {
        opacity: 0.5;
      }

      .cls-17 {
        fill: #263238;
      }

      .cls-18, .cls-27 {
        opacity: 0.2;
      }

      .cls-20 {
        fill: #ffb573;
      }

      .cls-22 {
        opacity: 0.7;
      }

      .cls-23 {
        opacity: 0.8;
      }

      .cls-25 {
        opacity: 0.1;
      }

      .cls-26 {
        fill: #ed893e;
      }

      .cls-28 {
        fill: #ffc727;
      }

      .cls-29 {
        fill: #f5d098;
      }

      .cls-30 {
        fill: #b62828;
      }

      .cls-31 {
        stroke: #000;
        stroke-width: 0.36891px;
      }

      .cls-32 {
        opacity: 0.3;
      }

      .cls-33 {
        fill: #b55b52;
      }

      .cls-34 {
        fill: #a02724;
      }
    </style>
    <clipPath id="clip-path">
      <path class="cls-1" d="M180.79,159.15789c-2.22009,6.53992-5.13,14.45-8.63,23.98-11.33007,30.78-18.37,37.04992-22.74,40.16-8.09008,5.77-16.76,6.87988-34.10009,9.1-11.55994,1.48-31.36988,3.82-55.32984-2.28-15.84009-4.02991-14.74011-6.98-25.77-8.33-15.63012-1.92-26.25,2.97-34.22009,5.8999V169.01788a9.86072,9.86072,0,0,1,9.86-9.86Z"/>
    </clipPath>
    <clipPath id="clip-path-2">
      <path class="cls-1" d="M169.6499,55.52991c-4.78991,4.81994-8.7,2.36-29.30993,6.06006-32.08,5.75988-36.74,14.24-56.59,13.14-15.38-.86011-13.94006-6.03-31.32007-8.59009C25.49,62.16992,11.02,72.96,0,72.93994V9.86987A9.86267,9.86267,0,0,1,9.86,0H165.65991C176.34,20.5,179.72,45.37988,169.6499,55.52991Z"/>
    </clipPath>
  </defs>
  <title>cards</title>
  <g id="Layer_1" data-name="Layer 1">
    <g class="cls-2">
      <path class="cls-3" d="M57.69317,115.79838c29.39079-7.34223,62.446-17.98923,88.67876-5.13791,26.97131,13.21281,32.5712,41.5929,36.6956,66.55763,3.95777,23.95705,3.26181,49.08878-14.33705,68.7852-17.68024,19.78795-46.76128,32.22454-77.24353,33.71112-28.08573,1.3699-51.68926-12.85-74.15107-26.3268-21.71067-13.02569-45.84649-26.7606-49.95072-48.131-4.0779-21.23332,12.79293-40.55321,29.70183-57.30293C12.88919,132.30033,33.60291,121.81641,57.69317,115.79838Z"/>
    </g>
    <g class="cls-4">
      <g>
        <path class="cls-5" d="M87.36249-70.15355c34.95621-.1425,59.71182,20.68182,82.15648,38.144C189.44785-16.50507,186.66675,1.314,185.47545,21.523c-1.15414,19.58078-1.06712,35.52505-22.035,49.57173-21.36429,14.31309-45.66672,26.92331-76.078,29.37012-34.50675,2.7758-75.14323,1.93951-97.51111-15.40461-21.7592-16.87238-7.3827-41.59085-4.29525-63.53724C-11.79537,2.69736-10.78056-16.028,6.22749-31.34391,26.67322-49.7553,52.48588-70.01138,87.36249-70.15355Z"/>
        <path class="cls-6" d="M156.82927,69.08857H11.91153v.0723H156.82927Z"/>
        <path class="cls-6" d="M142.30879,73.75189h-25.187v.07268h25.187Z"/>
        <path class="cls-6" d="M118.09275,71.06221h-2.51852v.07267h2.51852Z"/>
        <path class="cls-6" d="M98.66215,73.46525h-5.562v.07231h5.562Z"/>
        <path class="cls-6" d="M33.37679,71.54916H27.11636v.07268h6.26043Z"/>
        <path class="cls-6" d="M44.05128,71.54916h-8.095v.07268h8.095Z"/>
        <path class="cls-6" d="M85.67743,72.73778H72.10172v.0723H85.67743Z"/>
        <path class="cls-6" d="M80.6024,56.16176H24.63824a1.6545,1.6545,0,0,1-1.65207-1.65491V-24.163a1.65517,1.65517,0,0,1,.4888-1.15987,1.65505,1.65505,0,0,1,1.16327-.48061H80.6024a1.656,1.656,0,0,1,1.17053.48474,1.65547,1.65547,0,0,1,.48474,1.17024v78.6554a1.65437,1.65437,0,0,1-1.65527,1.65491ZM24.63824-25.74554a1.5824,1.5824,0,0,0-1.11712.46453,1.58245,1.58245,0,0,0-.4625,1.118v78.6699a1.58241,1.58241,0,0,0,1.57962,1.58261H80.6024a1.58574,1.58574,0,0,0,1.5826-1.58261V-24.163a1.58535,1.58535,0,0,0-.46445-1.11815,1.58483,1.58483,0,0,0-1.11815-.46434Z"/>
        <path class="cls-6" d="M143.29672,56.16176h-55.967a1.65814,1.65814,0,0,1-1.65527-1.65491V-24.163a1.66,1.66,0,0,1,.49064-1.16,1.65841,1.65841,0,0,1,1.16463-.48046h55.967a1.65524,1.65524,0,0,1,1.16167.48164,1.65715,1.65715,0,0,1,.4877,1.15884v78.6699a1.655,1.655,0,0,1-1.64937,1.65491Zm-55.967-81.9073a1.58548,1.58548,0,0,0-1.11815.46434,1.58539,1.58539,0,0,0-.46445,1.11815v78.6699a1.58574,1.58574,0,0,0,1.5826,1.58261h55.967a1.58574,1.58574,0,0,0,1.5826-1.58261V-24.163a1.58543,1.58543,0,0,0-.46445-1.11815,1.5855,1.5855,0,0,0-1.11815-.46434Z"/>
        <path class="cls-7" d="M72.38283-20.60385H27.56561V43.48729H72.38283Z"/>
        <path class="cls-8" d="M73.72785-20.60385H28.19452V43.48729H73.72785Z"/>
        <path class="cls-7" d="M72.38283,43.48729H27.56561v1.17386H72.38283Z"/>
        <path class="cls-8" d="M74.44353,43.48729H28.91034v1.17386H74.44353Z"/>
        <path class="cls-9" d="M71.84681,41.60366V-18.7228H30.07852V41.60366Z"/>
        <path class="cls-10" d="M49.37569,41.60366,59.50841-18.71993h5.21705L54.59275,41.60366Z"/>
        <path class="cls-10" d="M36.21138,41.60366,46.344-18.71993h5.21705L41.42836,41.60366Z"/>
        <path class="cls-8" d="M30.948,11.3243c-.07824,0-.142-.09555-.142-.21434v-28.5372c0-.11883.06375-.21161.142-.21161s.145.09278.145.21161V11.11C31.0929,11.22875,31.04074,11.3243,30.948,11.3243Z"/>
        <path class="cls-10" d="M55.71421,41.60366,65.84694-18.71993h2.03192L57.74615,41.60366Z"/>
        <path class="cls-7" d="M71.84681,41.60661V-18.71993h-.23758V41.60661Z"/>
        <path class="cls-8" d="M91.23277,16.92686,82.3001,6.7864V51.55119L91.23277,61.692Z"/>
        <path class="cls-8" d="M128.06536,61.692H84.01588v.98536h44.04948Z"/>
        <path class="cls-11" d="M91.23019,61.692h38.54505V16.92686H91.23019Z"/>
        <path class="cls-6" d="M132.12369,48.55973H102.44158a1.06684,1.06684,0,0,1-1.06355-1.06392V40.56888a1.06618,1.06618,0,0,1,1.06355-1.0665h4.90718a1.07464,1.07464,0,0,1,.94771.59984,1.10684,1.10684,0,0,0,.9765.57955H125.2982a1.10255,1.10255,0,0,0,.7795-.32464,1.19638,1.19638,0,0,0,.20881-.28959,1.05126,1.05126,0,0,1,.93885-.57992h4.89833a1.06617,1.06617,0,0,1,1.0665,1.06687v6.94132a1.06618,1.06618,0,0,1-1.0665,1.06392Zm-29.68211-8.76481a.7765.7765,0,0,0-.77359.77691v6.924a.77649.77649,0,0,0,.77359.774h29.68211a.77712.77712,0,0,0,.77691-.774V40.56888a.77711.77711,0,0,0-.77691-.77691h-4.89833a.76543.76543,0,0,0-.681.4117,1.39625,1.39625,0,0,1-1.24616.771H109.273a1.39837,1.39837,0,0,1-1.23177-.73634.79457.79457,0,0,0-.69244-.44637Z"/>
        <path class="cls-6" d="M125.34359,54.24346H95.66148a1.06684,1.06684,0,0,1-1.06356-1.06393v-6.924a1.06683,1.06683,0,0,1,1.06356-1.06688h4.9068a1.0748,1.0748,0,0,1,.94771.60021,1.10687,1.10687,0,0,0,.97687.57955H118.5181a1.08156,1.08156,0,0,0,.77655-.32464,1.12888,1.12888,0,0,0,.21174-.29,1.05184,1.05184,0,0,1,.93887-.57954h4.89833a1.06682,1.06682,0,0,1,1.0665,1.0665v6.92435a1.06743,1.06743,0,0,1-1.0665,1.07831ZM95.66148,45.47864a.77713.77713,0,0,0-.774.77692v6.924a.77715.77715,0,0,0,.774.774h29.68211a.77712.77712,0,0,0,.77691-.774v-6.924a.77713.77713,0,0,0-.77691-.77692h-4.89833a.76543.76543,0,0,0-.681.4117,1.409,1.409,0,0,1-.26377.36226,1.37113,1.37113,0,0,1-.98239.40875H102.49286a1.3984,1.3984,0,0,1-1.23177-.73634.79389.79389,0,0,0-.69281-.44637Z"/>
        <path class="cls-6" d="M126.27654,59.62836H94.46438V57.05451h31.81216ZM94.754,59.33841h31.233V57.34448H94.754Z"/>
        <path class="cls-6" d="M132.12369,36.46776H102.44158a1.06684,1.06684,0,0,1-1.06355-1.06392v-6.924a1.06618,1.06618,0,0,1,1.06355-1.0665h4.90718a1.076,1.076,0,0,1,.94771.59688,1.10376,1.10376,0,0,0,.9765.57955H125.2982a1.10254,1.10254,0,0,0,.7795-.32463,1.19638,1.19638,0,0,0,.20881-.28959,1.05121,1.05121,0,0,1,.93885-.57992h4.89833a1.06658,1.06658,0,0,1,1.0665,1.06687v6.924a1.06651,1.06651,0,0,1-1.0665,1.08126ZM102.44158,27.703a.7765.7765,0,0,0-.77359.77691v6.924a.77649.77649,0,0,0,.77359.774h29.68211a.77712.77712,0,0,0,.77691-.774v-6.924a.77711.77711,0,0,0-.77691-.77691h-4.89833a.76543.76543,0,0,0-.681.4117,1.40029,1.40029,0,0,1-.26376.36226,1.37927,1.37927,0,0,1-.9824.40875H109.273a1.40145,1.40145,0,0,1-1.23177-.73634.79457.79457,0,0,0-.69244-.44637Z"/>
        <path class="cls-8" d="M137.7495,22.61648H98.01287v.72158H137.7495Z"/>
        <path class="cls-7" d="M87.83405,23.33806H98.01287v-.72158H87.83405Z"/>
        <path class="cls-7" d="M121.16758-15.11827H94.989V10.79344h26.17862Z"/>
        <path class="cls-11" d="M113.14537,10.4404a12.579,12.579,0,0,1-6.98854-2.1201,12.5765,12.5765,0,0,1-4.63272-5.645,12.58082,12.58082,0,0,1-.716-7.2678,12.57948,12.57948,0,0,1,3.44263-6.44061,12.57835,12.57835,0,0,1,6.44071-3.44254,12.57911,12.57911,0,0,1,7.26779.71578,12.57793,12.57793,0,0,1,5.645,4.63293,12.57819,12.57819,0,0,1,2.1201,6.98839,12.593,12.593,0,0,1-3.68868,8.89025A12.59145,12.59145,0,0,1,113.14537,10.4404Zm0-24.94038a12.36116,12.36116,0,0,0-6.86754,2.08328,12.36014,12.36014,0,0,0-4.553,5.5477,12.36145,12.36145,0,0,0-.7035,7.142,12.36238,12.36238,0,0,0,3.38323,6.3293,12.36226,12.36226,0,0,0,6.3293,3.38323,12.36155,12.36155,0,0,0,7.142-.7035,12.35979,12.35979,0,0,0,5.54759-4.553A12.36113,12.36113,0,0,0,125.507-2.13853a12.37494,12.37494,0,0,0-3.62413-8.73748A12.37332,12.37332,0,0,0,113.14537-14.5Z"/>
        <path class="cls-12" d="M29.05241,51.51134h89.82685l6.45547-55.88248H35.51183Z"/>
        <path class="cls-13" d="M29.05241,51.51134h89.82685l6.45547-55.88248H35.51183Z"/>
        <path class="cls-12" d="M136.52251,53.606H46.696L35.51194-4.37114H125.3351Z"/>
        <path class="cls-14" d="M136.52251,53.606H46.696L35.51194-4.37114H125.3351Z"/>
        <path class="cls-10" d="M133.0821,50.49538H48.93337L39.89889,3.6507h84.14873Z"/>
        <g class="cls-15">
          <path class="cls-16" d="M55.48439,15.01077h-8.7995L44.98646,6.20721H53.786Z"/>
          <path class="cls-16" d="M121.64494,15.01077h-8.80318L111.147,6.20721h8.79949Z"/>
          <path class="cls-16" d="M110.615,15.01077h-8.79949l-1.69844-8.80356h8.80356Z"/>
          <path class="cls-16" d="M99.58883,15.01077H90.78935L89.09091,6.20721h8.80355Z"/>
          <path class="cls-16" d="M88.56263,15.01077H79.76314L78.0647,6.20721h8.79986Z"/>
          <path class="cls-16" d="M77.5368,15.01077H68.73694L67.03886,6.20721h8.7995Z"/>
          <path class="cls-16" d="M66.51059,15.01077H57.7111L56.01266,6.20721h8.79949Z"/>
          <path class="cls-16" d="M57.60117,25.98532H48.8013l-1.69807-8.79949h8.7995Z"/>
          <path class="cls-16" d="M123.76135,25.98532h-8.7995l-1.69843-8.79949h8.79985Z"/>
          <path class="cls-16" d="M112.73514,25.98532h-8.79949l-1.69844-8.79949h8.79986Z"/>
          <path class="cls-16" d="M101.70931,25.98532H92.90576l-1.69439-8.79949h8.7995Z"/>
          <path class="cls-16" d="M90.67941,25.98532H81.87955l-1.69807-8.79949h8.80318Z"/>
          <path class="cls-16" d="M79.6532,25.98532H70.85371l-1.69844-8.79949h8.7995Z"/>
          <path class="cls-16" d="M68.627,25.98532H59.82751l-1.69844-8.79949h8.79986Z"/>
          <path class="cls-16" d="M59.71757,36.96025H50.91771l-1.69807-8.79949h8.79949Z"/>
          <path class="cls-16" d="M125.87776,36.96025h-8.7995l-1.69843-8.79949h8.79985Z"/>
          <path class="cls-16" d="M114.85192,36.96025h-8.79986L104.354,28.16076h8.79949Z"/>
          <path class="cls-16" d="M103.82572,36.96025H95.02585l-1.69807-8.79949h8.7995Z"/>
          <path class="cls-16" d="M92.79951,36.96025H83.99633l-1.69476-8.79949h8.79987Z"/>
          <path class="cls-16" d="M81.76961,36.96025H72.97012l-1.69844-8.79949h8.80319Z"/>
          <path class="cls-16" d="M70.74341,36.96025H61.94392l-1.69844-8.79949H69.045Z"/>
          <path class="cls-16" d="M61.834,47.93887H53.03412l-1.69807-8.80356h8.80319Z"/>
          <path class="cls-16" d="M127.99417,47.93887h-8.79949l-1.69844-8.80356h8.79986Z"/>
          <path class="cls-16" d="M116.96833,47.93887h-8.79986l-1.69807-8.80356h8.79949Z"/>
          <path class="cls-16" d="M105.94212,47.93887H97.14263l-1.69844-8.80356h8.79949Z"/>
          <path class="cls-16" d="M94.91592,47.93887h-8.7995L84.418,39.13531h8.7995Z"/>
          <path class="cls-16" d="M83.88971,47.93887H75.08653l-1.69475-8.80356h8.79949Z"/>
          <path class="cls-16" d="M72.86351,47.93887H64.06033l-1.69476-8.80356h8.79987Z"/>
        </g>
        <path class="cls-12" d="M78.538,13.77088H47.68241L45.984,4.97138h30.8556Z"/>
        <path class="cls-12" d="M91.688,24.74949H82.88482l-1.69476-8.80355h8.7995Z"/>
        <path class="cls-12" d="M119.22049,36.0177l-.477-.41465a14.52843,14.52843,0,0,0-3.239-2.14555l.30472-.89866a15.84555,15.84555,0,0,1,3.059,1.94008,20.11437,20.11437,0,0,1,6.2356-5.94565l.65665.895a19.29274,19.29274,0,0,0-6.25773,6.12936Z"/>
        <path class="cls-10" d="M88.46008,17.40238H87.664L86.3326,19.81207l-2.25585-2.40969h-.7961l2.75867,2.94534-1.625,2.94165h.79941l1.32806-2.406,2.25586,2.406H89.597l-2.762-2.94165Z"/>
        <path class="cls-12" d="M104.77159,38.48272l1.4675,7.633h-7.6297l-1.46713-7.633h7.62933Zm.477-.58323H96.4454l1.69806,8.80318H106.947l-1.69475-8.80318Z"/>
        <path class="cls-17" d="M82.77119,35.72405H62.94512l-1.69807-8.79949h19.8257Z"/>
        <path class="cls-10" d="M69.11469,30.43469a1.35346,1.35346,0,0,1-1.36457,1.69106,2.14611,2.14611,0,0,1-2.01718-1.69106A1.357,1.357,0,0,1,67.09715,28.744a2.14818,2.14818,0,0,1,2.01754,1.69069Z"/>
        <path class="cls-10" d="M69.522,32.03426a1.95052,1.95052,0,0,1-1.64347.81048,2.93318,2.93318,0,0,1-1.95114-.80679,1.75966,1.75966,0,0,0-.895,1.86334h6.10353a2.82951,2.82951,0,0,0-1.614-1.867Z"/>
        <path class="cls-10" d="M79.4658,30.77592H72.71668l-.187-.97206h6.74912Z"/>
        <path class="cls-10" d="M77.60652,32.84106H73.11658l-.187-.97207h4.48958Z"/>
        <path class="cls-17" d="M113.04318,5.79294a11.44283,11.44283,0,0,1,6.05963,1.46713,2.93365,2.93365,0,0,1,1.36089,1.83419,4.50728,4.50728,0,0,1-1.28748,3.86982,9.08582,9.08582,0,0,1-5.86891,2.36948c-.27852.02213-.56479.03283-.84737.03283a13.76656,13.76656,0,0,1-5.02523-.99752c-1.57337-.62714-3.24231-1.46714-3.71192-3.10323a2.68569,2.68569,0,0,1,.29-2.2743,3.45876,3.45876,0,0,1,1.07462-1.04879,14.23794,14.23794,0,0,1,6.73436-2.10941C112.229,5.80769,112.64,5.79294,113.04318,5.79294Zm-.10994-.5648a11.59439,11.59439,0,0,0-1.25427.0439,14.73,14.73,0,0,0-6.96936,2.17875A3.90187,3.90187,0,0,0,103.50292,8.632a3.19965,3.19965,0,0,0-.33385,2.68858c.55,1.90023,2.43181,2.88668,4.141,3.56546a14.3147,14.3147,0,0,0,5.25652,1.04179,8.80864,8.80864,0,0,0,.8839-.02951A9.6875,9.6875,0,0,0,119.62,13.39681c1.52616-1.54055,2.49822-4.80868-.27114-6.60267a12.06541,12.06541,0,0,0-6.41932-1.566Z"/>
        <path class="cls-17" d="M36.03239,72.18073l-1.73216.05091a.13785.13785,0,0,0-.13251.11288L33.89691,73.763a.231.231,0,0,0,.0335.17449.23432.23432,0,0,0,.064.06382.231.231,0,0,0,.08374.03469h.0487c.62544-.03137,1.16906-.0819,1.94845-.10331.91768-.02729.68778.08965,1.7672.07194.6509-.00959.74607-.75219.46939-.7795a2.46,2.46,0,0,1-1.90735-.93332A.559.559,0,0,0,36.03239,72.18073Z"/>
        <path class="cls-18" d="M34.35863,70.30854l.03121.978,1.42818-.02325.01948-.78724Z"/>
        <path class="cls-17" d="M28.83483,72.253l-1.7302-.0974a.1376.1376,0,0,0-.14221.10108l-.38972,1.39115a.22979.22979,0,0,0,.07744.24531.23506.23506,0,0,0,.08038.04132l.04873.00959c.62349.02361,1.18076.01956,1.94841.0642.91773.05275.67809.15015,1.75359.22614.64883.045.81056-.68765.53584-.73856a2.45458,2.45458,0,0,1-1.81985-1.0949A.552.552,0,0,0,28.83483,72.253Z"/>
        <path class="cls-18" d="M27.32881,70.24619l-.05456.97428,1.42626.10108.08574-.78319Z"/>
        <path class="cls-17" d="M31.36393,38.79851h2.41021s2.46473,12.70767,2.75506,17.00393c.25329,3.75657-.37559,16.76453-.37559,16.76453H34.15012s-.57084-7.418-.82413-11.89755c-.09743-1.72611-.01169-3.26924-.12664-4.23393-.48711-4.031-4.01181-10.32639-3.17594-15.92821C30.02341,40.50912,29.91819,38.81216,31.36393,38.79851Z"/>
        <path class="cls-19" d="M31.3639,46.11094l-1.08529-.31172c.793,3.9768,2.58363,7.8503,2.92265,10.63849A22.7098,22.7098,0,0,0,31.3639,46.11094Z"/>
        <path class="cls-17" d="M27.71067,38.79851h5.099l-1.89,18.56441L28.94115,72.23311H27.21774V61.78978c0-1.98139.18312-3.91224.15781-5.358C27.29177,52.02818,25.5674,46.53961,27.71067,38.79851Z"/>
        <path class="cls-17" d="M28.40233,22.21917s-1.812-.21433-1.49639,1.53723c.31563,1.75193-1.46131,1.58039-.41307,3.33379,1.04825,1.75378-.80469,1.70509.48711,3.45849,1.46134,1.98545,6.06546-.08374,5.99142-1.2469s-.63323-.7249-.37994-1.63093c.30981-1.10671.93913-.95657.37994-2.19978-.42085-.93886-.73065-1.10856-.63323-2.10792C32.43556,22.36342,30.7794,20.39162,28.40233,22.21917Z"/>
        <path class="cls-10" d="M27.43978,29.48291a.90326.90326,0,0,1,.36241-.07968,26.20879,26.20879,0,0,1,3.44676,0h.19485L32.82329,32.692l.82808,6.04008-3.9709.01181A69.08688,69.08688,0,0,0,27.43978,29.48291Z"/>
        <path class="cls-20" d="M28.0477,26.18232a1.03526,1.03526,0,0,0,.61374.51056c.35072.10514.53388-.20658.44232-.54155-.08186-.30029-.36437-.719-.719-.67805a.46941.46941,0,0,0-.39942.53565A.4226.4226,0,0,0,28.0477,26.18232Z"/>
        <path class="cls-12" d="M38.55939,34.22925c-.61755.63931-1.92882,1.92531-2.53283,1.9836-.81447.07784-2.51933-2.89922-2.51933-2.89922l-.83391-3.05122-.77938-.7131A3.08655,3.08655,0,0,1,34.082,30.82758c.73843,1.165,2.11013,3.63186,2.11013,3.63186l1.72633-1.06613Z"/>
        <path class="cls-17" d="M30.02337,38.48863l3.75073-.14609v.82819h-3.702Z"/>
        <g class="cls-21">
          <path class="cls-19" d="M30.02337,38.48863l3.75073-.14609v.82819h-3.702Z"/>
        </g>
        <path class="cls-17" d="M32.20754,38.10681a.58493.58493,0,0,0-.50462.31578l.50462-.01955v.76769H31.7107a.58539.58539,0,0,0,.49684.29992.68777.68777,0,0,0,0-1.36384Z"/>
        <path class="cls-22" d="M32.20754,38.10681a.58493.58493,0,0,0-.50462.31578l.50462-.01955v.76769H31.7107a.58539.58539,0,0,0,.49684.29992.68777.68777,0,0,0,0-1.36384Z"/>
        <path class="cls-20" d="M30.42876,31.44881l.67808-.15753.14222-1.8685a.89751.89751,0,0,1-.17534-.01955c-.96255-.19478-.86708-.871-.65275-1.51805l-1.49834-1.52726c.09352.86693.23577,2.62033-.52023,2.95751a2.27627,2.27627,0,0,1-.48319.10145Z"/>
        <path class="cls-12" d="M27.92884,29.38183l2.94795,1.84895.24355-1.84895.24356.0214.32345,2.50155-.69752-.47146-.63327.73079-2.646-2.76088Z"/>
        <path class="cls-23" d="M27.92884,29.38183l2.94795,1.84895.24355-1.84895.24356.0214.32345,2.50155-.69752-.47146-.63327.73079-2.646-2.76088Z"/>
        <path class="cls-12" d="M27.07733,41.19122s3.79943,1.16906,3.79943-1.36421a23.79248,23.79248,0,0,0-3.16617-10.42378s-1.70489.19478-1.851,1.46123S27.85671,34.90139,27.07733,41.19122Z"/>
        <path class="cls-12" d="M30.44624,36.49912a25.44029,25.44029,0,0,0-2.72779-7.09589,3.10607,3.10607,0,0,0-.45206.09923v1.92311l1.10672.53565-.44424.7972Z"/>
        <path class="cls-24" d="M30.44624,36.49912a25.44029,25.44029,0,0,0-2.72779-7.09589,3.10607,3.10607,0,0,0-.45206.09923v1.92311l1.10672.53565-.44424.7972Z"/>
        <path class="cls-25" d="M33.14674,32.01987l.35463,1.29376a18.9297,18.9297,0,0,0,1.169,1.7534,13.60383,13.60383,0,0,0-1.30153-3.80526Z"/>
        <path class="cls-12" d="M31.3639,29.40323a39.47159,39.47159,0,0,1,1.89971,8.86516c.19486,3.89711,1.31522,3.19177,1.31522,3.19177a12.10478,12.10478,0,0,1-.58453-4.653C34.09169,33.78693,33.79944,29.01329,31.3639,29.40323Z"/>
        <path class="cls-12" d="M32.72781,30.773l-1.15736-1.38929a1.49005,1.49005,0,0,0-.20655.01955,45.90238,45.90238,0,0,1,1.60746,6.33041V31.93613l-.60987-.55926Z"/>
        <path class="cls-24" d="M32.72781,30.773l-1.15736-1.38929a1.49005,1.49005,0,0,0-.20655.01955,45.90238,45.90238,0,0,1,1.60746,6.33041V31.93613l-.60987-.55926Z"/>
        <path class="cls-20" d="M37.934,33.39368l.53794-.3335.47736-.92927a.56893.56893,0,0,1,.17376-.20179.575.575,0,0,1,.24679-.10034l.608-.09149a.5652.5652,0,0,1,.44453.12285l.13613.111a.56711.56711,0,0,1,.17744.6216l-.05054.14609a.57078.57078,0,0,1-.46777.38.72254.72254,0,0,0-.5493.29808,1.138,1.138,0,0,1-.764.45781s-.12838.14019-.335.35452Z"/>
        <path class="cls-12" d="M37.63584,33.421l.34485-.25529.76979,1.08495-.31172.29623Z"/>
        <path class="cls-24" d="M37.63584,33.421l.34485-.25529.76979,1.08495-.31172.29623Z"/>
        <path class="cls-18" d="M29.5363,26.98727l.89238.90382a2.75865,2.75865,0,0,0-.12277.46371c-.3585-.08559-.87873-.456-.88264-.84147A1.53182,1.53182,0,0,1,29.5363,26.98727Z"/>
        <path class="cls-20" d="M28.16069,25.00957c.36238,1.38524.48515,1.97733,1.33271,2.558a1.82714,1.82714,0,0,0,2.95773-1.33839c.05453-1.3192-.54557-3.35925-2.02639-3.64736a1.94829,1.94829,0,0,0-2.26405,2.42776Z"/>
        <path class="cls-17" d="M31.43605,26.3889c.02144.11511.10131.19479.17534.18114s.115-.11879.09356-.23167c-.02143-.11326-.10134-.19516-.17538-.18151S31.41267,26.276,31.43605,26.3889Z"/>
        <path class="cls-26" d="M31.34634,24.99187a3.0184,3.0184,0,0,0,.54944.64889.4974.4974,0,0,1-.17722.12248.5037.5037,0,0,1-.21245.03542Z"/>
        <path class="cls-17" d="M29.98065,24.4872a.06784.06784,0,0,1-.0273,0,.05668.05668,0,0,1-.027-.05718.05482.05482,0,0,1,.00756-.02066.66087.66087,0,0,1,.5144-.33127.05612.05612,0,0,1,.03995.0166.05682.05682,0,0,1,.01653.03984.05556.05556,0,0,1-.01653.03984.05616.05616,0,0,1-.03995.0166.55217.55217,0,0,0-.42088.27889.06671.06671,0,0,1-.0214.014A.05921.05921,0,0,1,29.98065,24.4872Z"/>
        <path class="cls-17" d="M32.06349,23.95524a.0682.0682,0,0,1-.0273,0,.5535.5535,0,0,0-.50267-.0332.05376.05376,0,0,1-.021.007.05533.05533,0,0,1-.04143-.01291.05454.05454,0,0,1-.01354-.01735.06022.06022,0,0,1,.02535-.07783.67059.67059,0,0,1,.61179.035.05838.05838,0,0,1,.02531.076.06209.06209,0,0,1-.02306.02287.05921.05921,0,0,1-.03147.00812Z"/>
        <path class="cls-17" d="M30.50272,24.96456c.02339.11289.10134.19479.17734.17929s.1169-.11694.09352-.232c-.02339-.11473-.10134-.19478-.17538-.18113S30.48129,24.84762,30.50272,24.96456Z"/>
        <path class="cls-17" d="M31.79253,24.70928c.02338.11326.10134.19478.17537.17929s.11691-.11879.09548-.23388c-.02144-.11474-.10134-.19479-.17538-.1793C31.814,24.49126,31.76914,24.59455,31.79253,24.70928Z"/>
        <path class="cls-17" d="M31.8569,24.48905l.2572-.13244S32.01475,24.59824,31.8569,24.48905Z"/>
        <path class="cls-17" d="M30.567,24.74248l.25717-.13243S30.72484,24.85168,30.567,24.74248Z"/>
        <path class="cls-17" d="M29.01416,22.23688c-.24743.42461.37019,1.21185,1.66785,1.13586.97421-.05644,2.20369.99383,2.10431-.14019C32.7045,22.19187,30.24556,21.699,29.01416,22.23688Z"/>
        <path class="cls-17" d="M29.84806,22.53864c.77935.50466.26108,1.42435-.113,1.83937s-.95277.80089-.50658,1.41253c.44619.612.754,2.29939-.67413,2.00315s-1.36392-2.309-.947-3.23824S28.9206,21.94065,29.84806,22.53864Z"/>
        <path class="cls-12" d="M31.8939,22.0421a.80061.80061,0,0,0-.88264-.55336.598.598,0,0,0-.40919.67584.27505.27505,0,0,0-.19486-.02509.23356.23356,0,0,0-.15.11694.85155.85155,0,0,0-.26307-.26524.65012.65012,0,0,0-.52023-.09739.54575.54575,0,0,0-.36629.34308.77845.77845,0,0,0,0,.55114.66413.66413,0,0,0,.037.08412L28.5348,23.9593c.00974.07378.01948.15789.02922.24716l.66635-1.18824a.91217.91217,0,0,0,.23772.228.70606.70606,0,0,0,.37411.11473.50205.50205,0,0,0,.14612-.01955.53031.53031,0,0,0,.36629-.32906.75814.75814,0,0,0,0-.55152.14.14,0,0,1-.01284-.05976.13989.13989,0,0,1,.05165-.10772.13949.13949,0,0,1,.05474-.0273.17528.17528,0,0,1,.19482.11289.83393.83393,0,0,0,.73652.57106.54319.54319,0,0,0,.14612-.01955A.64137.64137,0,0,0,31.8939,22.0421Zm-1.65229.902a.44068.44068,0,0,1-.29615.26709.53509.53509,0,0,1-.21788.004.52717.52717,0,0,1-.201-.0841.75009.75009,0,0,1-.30394-.38957.65145.65145,0,0,1,0-.46593.4373.4373,0,0,1,.2942-.26672.50086.50086,0,0,1,.1169-.01586.5858.5858,0,0,1,.304.09371.76551.76551,0,0,1,.30394.38956.65148.65148,0,0,1,.00391.47183Zm1.24506-.13834a.65836.65836,0,0,1-.72483-.46556.52987.52987,0,0,1,.29229-.73264.44833.44833,0,0,1,.115-.01587.6954.6954,0,0,1,.60983.48143.535.535,0,0,1-.28837.7367Z"/>
        <path class="cls-17" d="M28.34765,22.5427s-.06625-1.32695.48906-1.286S28.59707,21.72447,28.34765,22.5427Z"/>
        <path class="cls-25" d="M27.0774,36.01991a10.64673,10.64673,0,0,0,.039-4.06644l-.48319,1.103s-.0273.27077-.0643.61164A17.15632,17.15632,0,0,1,27.0774,36.01991Z"/>
        <path class="cls-25" d="M28.99084,37.62944l-1.07167.19479-.67609.24753v1.09675A10.42526,10.42526,0,0,0,28.99084,37.62944Z"/>
        <path class="cls-12" d="M46.1485,26.64013h-.69538v8.881h.69538a.37155.37155,0,0,0,.37223-.37222V27.01235a.3722.3722,0,0,0-.37223-.37222Z"/>
        <path class="cls-27" d="M46.1485,26.64013h-.69538v8.881h.69538a.37155.37155,0,0,0,.37223-.37222V27.01235a.3722.3722,0,0,0-.37223-.37222Z"/>
        <path class="cls-12" d="M45.25244,27.96524H44.3073V28.91h.94514Z"/>
        <path class="cls-24" d="M45.25244,27.96524H44.3073V28.91h.94514Z"/>
        <path d="M45.36938,27.82874l-.6157.61571-.38-.38957c-.10735-.10514-.273.0605-.16563.16564l.46371.46371a.11895.11895,0,0,0,.16564,0l.6976-.69759a.11782.11782,0,0,0-.01882-.14609.1177.1177,0,0,0-.14682-.01181Z"/>
        <path class="cls-13" d="M45.36938,27.82874l-.6157.61571-.38-.38957c-.10735-.10514-.273.0605-.16563.16564l.46371.46371a.11895.11895,0,0,0,.16564,0l.6976-.69759a.11782.11782,0,0,0-.01882-.14609.1177.1177,0,0,0-.14682-.01181Z"/>
        <path class="cls-12" d="M45.25244,29.42647H44.3073v.94514h.94514Z"/>
        <path class="cls-24" d="M45.25244,29.42647H44.3073v.94514h.94514Z"/>
        <path d="M40.82558,30.01488H43.1423a.11714.11714,0,0,0,.11694-.117.11714.11714,0,0,0-.11694-.11694H40.82558a.11714.11714,0,0,0-.117.11694.11714.11714,0,0,0,.117.117Z"/>
        <g class="cls-21">
          <path class="cls-13" d="M40.82558,30.01488H43.1423a.11714.11714,0,0,0,.11694-.117.11714.11714,0,0,0-.11694-.11694H40.82558a.11714.11714,0,0,0-.117.11694.11714.11714,0,0,0,.117.117Z"/>
        </g>
        <path d="M45.36938,29.29l-.6157.61571-.38-.38957c-.10735-.10513-.273.06051-.16563.16564l.46371.46371a.11892.11892,0,0,0,.16564,0l.6976-.69759a.11665.11665,0,0,0-.09039-.17781A.11621.11621,0,0,0,45.36938,29.29Z"/>
        <path class="cls-13" d="M45.36938,29.29l-.6157.61571-.38-.38957c-.10735-.10513-.273.06051-.16563.16564l.46371.46371a.11892.11892,0,0,0,.16564,0l.6976-.69759a.11665.11665,0,0,0-.09039-.17781A.11621.11621,0,0,0,45.36938,29.29Z"/>
        <path class="cls-12" d="M45.25244,30.8877H44.3073v.94514h.94514Z"/>
        <path class="cls-24" d="M45.25244,30.8877H44.3073v.94514h.94514Z"/>
        <path d="M40.82558,31.47611H43.6097a.11687.11687,0,0,0,.08264-.19958.11732.11732,0,0,0-.08264-.03431H40.82558a.11714.11714,0,0,0-.117.11695.11714.11714,0,0,0,.117.11694Z"/>
        <g class="cls-21">
          <path class="cls-13" d="M40.82558,31.47611H43.6097a.11687.11687,0,0,0,.08264-.19958.11732.11732,0,0,0-.08264-.03431H40.82558a.11714.11714,0,0,0-.117.11695.11714.11714,0,0,0,.117.11694Z"/>
        </g>
        <path d="M45.36938,30.75158l-.6157.6157-.38-.38993c-.10735-.107-.273.05865-.16563.16379l.46371.46372a.11895.11895,0,0,0,.16564,0l.6976-.69761a.11662.11662,0,0,0,.014-.07525.115.115,0,0,0-.03541-.06788.11672.11672,0,0,0-.14424-.01254Z"/>
        <path class="cls-13" d="M45.36938,30.75158l-.6157.6157-.38-.38993c-.10735-.107-.273.05865-.16563.16379l.46371.46372a.11895.11895,0,0,0,.16564,0l.6976-.69761a.11662.11662,0,0,0,.014-.07525.115.115,0,0,0-.03541-.06788.11672.11672,0,0,0-.14424-.01254Z"/>
        <path class="cls-12" d="M45.25244,32.34894H44.3073v.94513h.94514Z"/>
        <path class="cls-24" d="M45.25244,32.34894H44.3073v.94513h.94514Z"/>
        <path d="M40.82558,32.93771H43.454a.11686.11686,0,0,0,.08264-.19958.11644.11644,0,0,0-.08264-.0343H40.82558a.11686.11686,0,0,0-.08264.19957A.11732.11732,0,0,0,40.82558,32.93771Z"/>
        <g class="cls-21">
          <path class="cls-13" d="M40.82558,32.93771H43.454a.11686.11686,0,0,0,.08264-.19958.11644.11644,0,0,0-.08264-.0343H40.82558a.11686.11686,0,0,0-.08264.19957A.11732.11732,0,0,0,40.82558,32.93771Z"/>
        </g>
        <path class="cls-20" d="M39.34073,31.97892a4.14682,4.14682,0,0,1,.97428,0c.04869.03321.02545.17929,0,.23205-.02545.05238-.17154.10107-.24348.12838a3.1713,3.1713,0,0,1-.55926.0664Z"/>
        <path class="cls-17" d="M32.97136,34.59741c0,.06825-.20455.12285-.454.12285s-.45593-.0546-.45593-.12285c0-.06788.19485-.12247.45593-.12247S32.97136,34.52953,32.97136,34.59741Z"/>
        <path class="cls-12" d="M28.99073,36.47772A6.25339,6.25339,0,0,1,26.526,37.117s.60206-3.41164.73261-4.55746c.07987-.70719.19486-2.90328-.67609-2.76088,0,0-1.03072.04279-1.42043,3.71377-.38968,3.6706-.58453,4.48108,0,5.09679.493.52052,2.92265-.25123,4.28656-1.05212Z"/>
        <path class="cls-20" d="M29.48458,37.43725a3.918,3.918,0,0,0,.71336-.27189l.73662-.21323a.86436.86436,0,0,0,.52783-.53638,1.04757,1.04757,0,0,1,.54056-.6098l.02985-.01439a.68581.68581,0,0,0,.352-.847l-.02837-.07784a.69051.69051,0,0,0-.52137-.44527L31.643,34.386a.689.689,0,0,0-.59652.17708l-.25.23757a.67836.67836,0,0,0-.12768.16822l-.63172,1.14545a7.31431,7.31431,0,0,1-.71552.16269Z"/>
        <path class="cls-12" d="M28.71213,36.46813l.37215-.17338.58258,1.317-.39359.20068Z"/>
        <path class="cls-24" d="M28.71213,36.46813l.37215-.17338.58258,1.317-.39359.20068Z"/>
        <rect class="cls-28" x="121.64273" y="15.02655" width="5.27767" height="29.79956" transform="translate(64.60597 142.97639) rotate(-75.7106)"/>
        <path class="cls-29" d="M103.90281,25.21505,109.2549,29.034l1.39039-5.37643Z"/>
        <path d="M105.86281,24.65763l-.422,1.65381-1.40553-1.06466Z"/>
        <path class="cls-30" d="M142.75,32.24306l-1.009,4.76625-1.85817-.44821-1.85817-.44822,1.30481-5.02228,1.71024.57623Z"/>
        <path class="cls-31" d="M138.53378,33.61391l-28.50751-7.39027"/>
        <rect class="cls-28" x="21.61915" y="33.39997" width="29.79956" height="5.27767" transform="translate(-12.99104 22.57809) rotate(-29.411)"/>
        <path class="cls-29" d="M54.50679,25.36557l-6.50785.937L50.70818,31.15Z"/>
        <path d="M53.47459,27.12266l-.837-1.48743,1.75119-.201Z"/>
        <path class="cls-30" d="M21.566,47.12359l-2.56327-4.1428,1.653-.9599,1.653-.95952,2.52645,4.53237-1.63462.76474Z"/>
        <path class="cls-31" d="M23.66724,43.21983,49.3827,28.86721"/>
        <path class="cls-12" d="M135.89279,28.82626l.14351.17708.12579.16674c.08337.10956.15937.22135.23574.33276.15567.21986.29549.44821.43752.67325.27631.45707.53121.92447.76842,1.417.117.239.22872.48695.33645.733.10809.24642.20547.50318.29586.76179a12.95545,12.95545,0,0,1,.47293,1.594l.04095.163a1.24379,1.24379,0,0,1,.02472.43383,6.13081,6.13081,0,0,1-.57918,1.87552,7.57212,7.57212,0,0,1-.41613.76879c-.1472.24459-.2977.47811-.45892.7083a12.78082,12.78082,0,0,1-1.03071,1.25576c-.17708.19514-.37038.38255-.56148.56885a7.71247,7.71247,0,0,1-.61275.53122.93515.93515,0,0,1-1.43468-1.13l.02841-.06013.308-.6323c.10809-.21286.20879-.42867.308-.64116.20032-.42682.39141-.84848.55262-1.26829a9.68929,9.68929,0,0,0,.40764-1.21665,3.51352,3.51352,0,0,0,.13281-1.006l.06345.59689c-.15937-.39178-.32943-.7795-.53122-1.16906s-.40026-.774-.62345-1.15652-.44969-.76511-.69059-1.13881l-.35452-.55631-.33976-.5065-.06382-.09407a1.85787,1.85787,0,0,1,3.011-2.1747Z"/>
        <path class="cls-18" d="M135.89279,28.82626l.14351.17708.12579.16674c.08337.10956.15937.22135.23574.33276.15567.21986.29549.44821.43752.67325.27631.45707.53121.92447.76842,1.417.117.239.22872.48695.33645.733.10809.24642.20547.50318.29586.76179a12.95545,12.95545,0,0,1,.47293,1.594l.04095.163a1.24379,1.24379,0,0,1,.02472.43383,6.13081,6.13081,0,0,1-.57918,1.87552,7.57212,7.57212,0,0,1-.41613.76879c-.1472.24459-.2977.47811-.45892.7083a12.78082,12.78082,0,0,1-1.03071,1.25576c-.17708.19514-.37038.38255-.56148.56885a7.71247,7.71247,0,0,1-.61275.53122.93515.93515,0,0,1-1.43468-1.13l.02841-.06013.308-.6323c.10809-.21286.20879-.42867.308-.64116.20032-.42682.39141-.84848.55262-1.26829a9.68929,9.68929,0,0,0,.40764-1.21665,3.51352,3.51352,0,0,0,.13281-1.006l.06345.59689c-.15937-.39178-.32943-.7795-.53122-1.16906s-.40026-.774-.62345-1.15652-.44969-.76511-.69059-1.13881l-.35452-.55631-.33976-.5065-.06382-.09407a1.85787,1.85787,0,0,1,3.011-2.1747Z"/>
        <path class="cls-12" d="M131.13576,76.11621s1.80985-.664,2.04557-1.10857h1.56934l-.09592,1.656h-1.28048l-.14166-.15235-.25159.15235a6.37375,6.37375,0,0,1-1.98544-.20732.38949.38949,0,0,1,.14018-.34013Z"/>
        <path class="cls-17" d="M135.19851,57.9089c-.2195-7.27408.34383-12.13624-.32943-15.72089l-6.29278-.0937s1.66118,11.54229,2.4794,16.34765c.81824,4.805,1.929,16.67194,1.929,16.67194h2.06513S136.36942,63.53581,135.19851,57.9089Z"/>
        <path class="cls-32" d="M130.95463,47.47478c.335,1.03995.48031,7.7116.11178,11.04318a.54392.54392,0,0,0-.01255-.076c-.287-1.68811-.67841-4.20994-1.06244-6.77125Z"/>
        <path class="cls-12" d="M119.63,74.67305s2.87635.26894,3.21464-.08522l1.48779.50135L123.80119,76.66l-.91563-.30988-.09406-.19109-.28.06529a19.306,19.306,0,0,1-3.11171-1.26792.35286.35286,0,0,1,.23019-.28332Z"/>
        <path class="cls-17" d="M128.95331,57.68386a74.56378,74.56378,0,0,0,4.44421-15.528l-6.87565-.958s-1.03994,11.72159-1.61028,16.6118c-.59688,5.085-2.29164,16.82613-2.29164,16.82613l2.136.72084S129.02452,63.65275,128.95331,57.68386Z"/>
        <path class="cls-33" d="M132.26719,23.98771a6.42421,6.42421,0,0,0,.61128,3.54222,4.51132,4.51132,0,0,1-3.11725,1.33728c-1.40811-.0214-1.15136-.97243-.774-1.46308,1.00932-.51019,1.04658-1.33027.80052-1.78365Z"/>
        <path class="cls-18" d="M129.83353,25.72156a1.12612,1.12612,0,0,1,.02508.774,1.55329,1.55329,0,0,0,1.0713-.519C130.49423,25.90933,130.101,25.76066,129.83353,25.72156Z"/>
        <path class="cls-17" d="M134.19251,27.85051a9.92072,9.92072,0,0,0-1.20965-.93,15.69147,15.69147,0,0,0-3.71966,0c-.63415.11694-1.40627,1.06281-1.40627,1.06281Z"/>
        <path class="cls-17" d="M128.40955,22.36157c-.0177.12948-.10071.22319-.18593.21064-.08484-.01217-.138-.12542-.12026-.25491.01771-.12912.09924-.225.17708-.21249S128.42578,22.23245,128.40955,22.36157Z"/>
        <path class="cls-17" d="M128.29113,21.58576a.07234.07234,0,0,0,.03763.00037.07155.07155,0,0,0,.0332-.01808.60351.60351,0,0,1,.53122-.16121.07375.07375,0,0,0,.05534-.00443.0745.0745,0,0,0,.03689-.04168.07807.07807,0,0,0-.055-.0937.75783.75783,0,0,0-.66957.19662.07753.07753,0,0,0-.02176.05387.07836.07836,0,0,0,.02176.05422A.07111.07111,0,0,0,128.29113,21.58576Z"/>
        <path class="cls-33" d="M132.83051,22.68215c-.35415,1.56231-.49765,2.49748-1.431,3.16521a2.14648,2.14648,0,0,1-3.34413-1.70915c-.10071-1.47894.512-3.78681,2.16437-4.13911a2.21008,2.21008,0,0,1,2.61074,2.68305Z"/>
        <path class="cls-17" d="M129.45835,24.03713a1.362,1.362,0,0,1,.21433.10293l.01144.01107a.03433.03433,0,0,1,.00664.01439.04753.04753,0,0,1,.00036.01622l-.00627.01476a.04626.04626,0,0,1-.02729.01808.04828.04828,0,0,1-.03284-.00369,1.20038,1.20038,0,0,0-1.0344-.09592.042.042,0,0,1-.05645-.01918.04579.04579,0,0,1,.00074-.03209.04458.04458,0,0,1,.02214-.02287A1.27763,1.27763,0,0,1,129.45835,24.03713Z"/>
        <path class="cls-17" d="M131.681,23.56236a3.201,3.201,0,0,1-.767-.76843s.30988-.978.767-1.20633c-.60389-.15235-1.16205-.53121-1.1211-.97944-1.25391.16306-1.73237.04427-1.94819-.5456-.21618-.58989.432-1.123,1.3015-1.2399a1.29349,1.29349,0,0,1,1.25575.45708,2.6068,2.6068,0,0,1,1.71283-.07452.75212.75212,0,0,1,.4412,1.12294s.90125-.4567,1.22552.85549a.99884.99884,0,0,1-.8555,1.39594s.50134.15753.32427.98277a.95131.95131,0,0,1-.9883.76695S131.71125,26.17494,131.681,23.56236Z"/>
        <path class="cls-17" d="M129.49745,22.60062c-.01771.12948-.09923.225-.17744.21249-.07784-.01218-.13981-.12727-.1221-.25676.01769-.12912.10107-.22318.17706-.21249C129.45134,22.35456,129.51663,22.47151,129.49745,22.60062Z"/>
        <path class="cls-17" d="M129.39637,21.45849a.07875.07875,0,0,0,.01807.03246.08181.08181,0,0,0,.03137.02066.60358.60358,0,0,1,.39324.38588.069.069,0,0,0,.01219.02693.07716.07716,0,0,0,.02213.02029.06867.06867,0,0,0,.028.00959.07464.07464,0,0,0,.02988-.00185.08077.08077,0,0,0,.02693-.01217.07746.07746,0,0,0,.0203-.02213.06973.06973,0,0,0,.01032-.028.0682.0682,0,0,0-.0011-.02989.75009.75009,0,0,0-.49213-.494.07515.07515,0,0,0-.02988-.004.07379.07379,0,0,0-.02914.00738.07582.07582,0,0,0-.02361.01844.08122.08122,0,0,0-.01512.02619A.07531.07531,0,0,0,129.39637,21.45849Z"/>
        <path class="cls-34" d="M128.45419,22.54234a4.51628,4.51628,0,0,1-.767,1.0167.75206.75206,0,0,0,.602.20547Z"/>
        <path class="cls-33" d="M132.338,23.76451a1.35067,1.35067,0,0,1-.82007.55595c-.42313.08152-.55263-.34346-.36633-.75626.16822-.37186.58951-.8625.98092-.75626S132.58962,23.403,132.338,23.76451Z"/>
        <path class="cls-12" d="M134.12168,27.67528a26.17335,26.17335,0,0,0-5.75271-.05681,3.35486,3.35486,0,0,0-2.97042,3.011,75.87268,75.87268,0,0,0,.48548,13.406,16.15353,16.15353,0,0,0,9.56423-.07083,37.66155,37.66155,0,0,0-.67288-6.66132c.27446-2.012.97207-4.31471,1.36531-6.98558a2.32322,2.32322,0,0,0-2.019-2.64247Z"/>
        <path class="cls-33" d="M118.08722,32.58836l-1.44168.17707-.39842-1.71283a2.01436,2.01436,0,0,1,2.17506.56517Z"/>
        <path class="cls-33" d="M115.66978,32.3423l.97576.41244-.39842-1.71247H115.496a.20207.20207,0,0,0-.16269.079.207.207,0,0,0-.03874.08485.19847.19847,0,0,0,.00332.093l.25492.91894a.19647.19647,0,0,0,.04427.07525A.19971.19971,0,0,0,115.66978,32.3423Z"/>
        <path class="cls-12" d="M129.13076,31.07917l-.2409.35451c-.0782.11141-.15936.2195-.23757.32944-.15937.21765-.32758.425-.49765.63378a16.19087,16.19087,0,0,1-1.0927,1.20115c-.19662.19294-.3951.38256-.60389.57033-.20918.1874-.42868.36485-.657.54007a9.00174,9.00174,0,0,1-1.5269.96875l-.16489.08337a1.41784,1.41784,0,0,1-1.00749.09739,11.81485,11.81485,0,0,1-1.50735-.54561c-.47293-.20179-.91931-.43752-1.35867-.67288-.439-.23573-.857-.4995-1.26793-.774a14.32469,14.32469,0,0,1-1.20262-.88573.94247.94247,0,0,1,.81121-1.64385l.03874.00886c.443.10292.89976.232,1.3443.35451.44489.12212.88574.239,1.32657.35416.44122.11509.87173.21617,1.293.31356.42166.0974.83594.16269,1.21518.21434l-1.17238.17707a8.70378,8.70378,0,0,0,.88537-.74925c.29586-.29032.58988-.60758.88574-.937.2955-.32944.57549-.67657.85365-1.03073l.418-.53122L126.0541,29l.06012-.08153a1.85974,1.85974,0,0,1,3.02355,2.16068Z"/>
      </g>
    </g>
  </g>
</svg>
