<svg xmlns="http://www.w3.org/2000/svg" xmlns:xlink="http://www.w3.org/1999/xlink" width="67.66981mm" height="40.40003mm" viewBox="0 0 191.81995 114.51978">
  <defs>
    <style>
      .cls-1, .cls-22, .cls-23 {
        fill: none;
      }

      .cls-2 {
        clip-path: url(#clip-path);
      }

      .cls-3 {
        fill: #e2c0c0;
      }

      .cls-4 {
        clip-path: url(#clip-path-2);
      }

      .cls-5 {
        fill: #93e5dd;
      }

      .cls-6 {
        fill: #d4ecff;
      }

      .cls-7 {
        fill: #173d7a;
      }

      .cls-8 {
        fill: #396caa;
      }

      .cls-9 {
        fill: #95d359;
      }

      .cls-10 {
        fill: #c13d1a;
      }

      .cls-11 {
        fill: #db5126;
      }

      .cls-12 {
        fill: #ef602e;
      }

      .cls-13, .cls-17 {
        fill: #5793ce;
      }

      .cls-14 {
        fill: #274f89;
      }

      .cls-15 {
        fill: #fff;
      }

      .cls-16 {
        fill: #ffc2b0;
      }

      .cls-17, .cls-22, .cls-23 {
        stroke: #000;
        stroke-miterlimit: 10;
        stroke-width: 0.13px;
      }

      .cls-18 {
        fill: #fafbef;
      }

      .cls-19 {
        opacity: 0.1;
      }

      .cls-20 {
        fill: #ff2c9c;
      }

      .cls-21 {
        fill: #d3008d;
      }

      .cls-23 {
        stroke-linecap: round;
      }

      .cls-24 {
        fill: #f49092;
      }
    </style>
    <clipPath id="clip-path">
      <path class="cls-1" d="M144.96008,222.73527c-18.49,3.78-27.03-15.6-60.25988-17.05-21.01026-.92-26.11011,6.46-47.74024,6.82a102.58031,102.58031,0,0,1-36.96-6.44v-54.1a9.86084,9.86084,0,0,1,9.86011-9.86005h172.09a9.58164,9.58164,0,0,1,2.59.35C194.25,171.59525,170.7301,217.47526,144.96008,222.73527Z"/>
    </clipPath>
    <clipPath id="clip-path-2">
      <path class="cls-1" d="M191.80994,9.87276v28.92c-15.43994,8.79-40.75989-.96-71.42994,19.17994-9.32006,6.12-14.99,12.27-28.04,15.91-7,1.95007-14.79993,2.82-36.37989,0C30.26,70.5428,14.13,68.44271,0,62.12276v-52.25a9.85424,9.85424,0,0,1,9.86-9.86H181.95007A9.85415,9.85415,0,0,1,191.80994,9.87276Z"/>
    </clipPath>
  </defs>
  <title>cards</title>
  <g id="Layer_1" data-name="Layer 1">
    <g class="cls-2">
      <ellipse class="cls-3" cx="90.62155" cy="216.35385" rx="148.65699" ry="102.85581"/>
    </g>
    <g class="cls-4">
      <ellipse class="cls-5" cx="85.89316" cy="14.01277" rx="164.84211" ry="69.72632"/>
      <g>
        <g>
          <g>
            <polygon class="cls-6" points="82.148 41.885 90.142 37.27 82.148 32.656 74.155 37.27 74.155 37.27 66.162 41.885 74.155 46.5 74.155 46.5 82.148 51.115 90.142 46.5 82.148 41.885 82.148 41.885"/>
            <polygon class="cls-7" points="82.148 30.39 82.148 -3.453 90.142 -8.068 90.142 25.775 82.148 30.39"/>
            <polygon class="cls-8" points="82.148 -3.453 74.155 -8.068 74.155 25.775 82.148 30.39 82.148 -3.453"/>
          </g>
          <polygon class="cls-9" points="90.142 31.928 82.148 27.313 82.148 30.39 90.142 35.005 90.142 31.928"/>
          <g>
            <polygon class="cls-10" points="74.155 35.005 74.155 10.392 82.148 5.777 82.148 30.39 74.155 35.005"/>
            <polygon class="cls-11" points="74.155 10.392 66.162 5.777 66.162 30.39 74.155 35.005 74.155 10.392"/>
            <polygon class="cls-12" points="82.148 5.777 74.155 1.162 66.162 5.777 74.155 10.392 82.148 5.777"/>
            <polygon class="cls-8" points="74.155 35.005 74.155 10.392 82.148 5.777 82.148 30.39 74.155 35.005"/>
            <polygon class="cls-13" points="74.155 10.392 66.162 5.777 66.162 30.39 74.155 35.005 74.155 10.392"/>
            <polygon class="cls-6" points="82.148 5.777 74.155 1.162 66.162 5.777 74.155 10.392 82.148 5.777"/>
          </g>
          <g>
            <polygon class="cls-7" points="82.148 39.62 82.148 25.775 90.142 21.16 90.142 35.005 82.148 39.62"/>
            <polygon class="cls-8" points="82.148 25.775 74.155 21.16 74.155 35.005 82.148 39.62 82.148 25.775"/>
            <polygon class="cls-6" points="90.142 21.16 82.148 16.545 74.155 21.16 82.148 25.775 90.142 21.16"/>
          </g>
        </g>
        <g>
          <g>
            <path class="cls-6" d="M115.72316,125.77909l-60.3668-34.8528c-1.70774-.98592-1.49354-2.7081.47835-3.84653L96.94,63.35552a7.405,7.405,0,0,1,6.66243-.2762l60.36681,34.85281c1.70768.986,1.49354,2.7081-.47835,3.84659L122.38561,125.503A7.405,7.405,0,0,1,115.72316,125.77909Z"/>
            <g>
              <path class="cls-7" d="M166.20234,29.37316,104.83949-6.02508a2.35188,2.35188,0,0,0-2.10082-.28243l.00241-.00712-.10053.04668-.02452.01133-1.99777.94006L102.78721-4.237c-.00082.04066-.00465.07848-.00465.1199l.01878,50.39983A8.25775,8.25775,0,0,0,106.288,52.8599l59.72642,34.4543.33945,2.81131,2.18095-1.04059a3.0057,3.0057,0,0,0,1.173-2.7348L169.689,35.95029A8.25776,8.25776,0,0,0,166.20234,29.37316Z"/>
              <path class="cls-8" d="M166.20234,29.37316,104.83949-6.02508a2.35188,2.35188,0,0,0-2.10082-.28243l.00241-.00712-.10053.04668-.02452.01133-1.99777.94006L102.78721-4.237c-.00082.04066-.00465.07848-.00465.1199l.01237,33.2166L130.7213,51.16431l37.91732-19.08239A6.88038,6.88038,0,0,0,166.20234,29.37316Z"/>
              <path class="cls-14" d="M167.2275,30.166l-6.01373,2.5297,4.54038,3.49815,3.79143-1.61415A8.8266,8.8266,0,0,0,167.2275,30.166Z"/>
              <path class="cls-6" d="M164.20447,89.8584,102.84161,54.4601A8.25762,8.25762,0,0,1,99.35494,47.883L99.33618-2.51685c-.00094-2.52226,1.5586-3.66693,3.48327-2.55673l61.36284,35.39824a8.25781,8.25781,0,0,1,3.48672,6.57718l.01872,50.39983C167.68871,89.82392,166.12917,90.96859,164.20447,89.8584Z"/>
              <path class="cls-15" d="M162.16312,86.10944,104.85334,53.06517a7.55664,7.55664,0,0,1-3.19061-6.01866l-.01713-46.12c-.00087-2.30807,1.42624-3.35555,3.18749-2.33959l57.30973,33.04427a7.55621,7.55621,0,0,1,3.19061,6.0186l.01718,46.12C165.35149,86.07792,163.92438,87.1254,162.16312,86.10944Z"/>
              <path class="cls-15" d="M162.16312,86.10944,104.85334,53.06517a7.55664,7.55664,0,0,1-3.19061-6.01866l-.01713-46.12c-.00087-2.30807,1.42624-3.35555,3.18749-2.33959l57.30973,33.04427a7.55621,7.55621,0,0,1,3.19061,6.0186l.01718,46.12C165.35149,86.07792,163.92438,87.1254,162.16312,86.10944Z"/>
            </g>
            <path class="cls-7" d="M165.12077,91.42368l-8.2517-1.08956-53.26663-30.7535a7.40519,7.40519,0,0,0-6.66243.27614L59.1955,81.64063l-4.98962-.65883v2.83107l.00487.0006a1.94318,1.94318,0,0,0,1.14561,1.74883l60.3668,34.8528a7.40505,7.40505,0,0,0,6.66245-.27619L163.4909,96.41472a2.68985,2.68985,0,0,0,1.62987-2.24047h0Z"/>
            <path class="cls-8" d="M125.09808,71.99116l-3.78437-2.18493H79.70708L59.1955,81.64063l-4.98962-.65883v2.83107l.00487.0006a1.94318,1.94318,0,0,0,1.14561,1.74883l60.3668,34.8528a6.24609,6.24609,0,0,0,3.43835.64439Z"/>
            <path class="cls-13" d="M56.42015,81.27414l-2.21427-.29234v2.83107l.00487.0006a1.94318,1.94318,0,0,0,1.14561,1.74883l1.06379.61423Z"/>
            <path class="cls-14" d="M116.3311,120.69754a7.73177,7.73177,0,0,0,5.66087-.3515v-6.31483H116.3311Z"/>
            <path class="cls-6" d="M115.72316,117.58732l-60.3668-34.8528c-1.70774-.98592-1.49354-2.7081.47835-3.84653L96.94,55.16375a7.405,7.405,0,0,1,6.66243-.2762l60.36681,34.85281c1.70768.986,1.49354,2.70809-.47835,3.84658l-41.10529,23.72424A7.405,7.405,0,0,1,115.72316,117.58732Z"/>
            <path class="cls-15" d="M163.4909,92.55281l-41.10529,23.72424a7.40588,7.40588,0,0,1-6.6625.27636L55.3563,81.7005a2.24653,2.24653,0,0,1-1.0616-1.16131,1.82608,1.82608,0,0,0,1.0616,2.19549l60.36681,34.85264a7.405,7.405,0,0,0,6.6625-.27608L163.4909,93.587c1.32539-.76527,1.85265-1.7936,1.54-2.68544A3.20971,3.20971,0,0,1,163.4909,92.55281Z"/>
            <g>
              <path class="cls-7" d="M81.0312,71.19623l-2.73136-1.57694c-.21933-.12663-.19181-.34783.0614-.494l3.22394-1.86134a.95086.95086,0,0,1,.85561-.03547l2.73136,1.57695c.21928.12663.19181.34777-.06146.494l-3.22393,1.86135A.9511.9511,0,0,1,81.0312,71.19623Z"/>
              <path class="cls-7" d="M85.2492,73.63147l-2.73136-1.57694c-.21928-.12658-.1918-.34777.06146-.49394l3.22393-1.86135a.95091.95091,0,0,1,.85562-.03546l2.73136,1.57694c.21928.12658.19175.34778-.06146.49395L86.10482,73.596A.95084.95084,0,0,1,85.2492,73.63147Z"/>
              <path class="cls-7" d="M89.46726,76.06677,86.7359,74.48983c-.21933-.12663-.19181-.34778.0614-.494l3.224-1.86135a.95118.95118,0,0,1,.85557-.03546l2.73135,1.577c.21934.12663.19181.34782-.0614.494l-3.224,1.86135A.95078.95078,0,0,1,89.46726,76.06677Z"/>
              <path class="cls-7" d="M95.301,74.05564,92.56965,72.4787c-.21928-.12663-.19181-.34777.06145-.494l2.7063-1.56249a.95085.95085,0,0,1,.85562-.03546l2.73135,1.57694c.21928.12663.19182.34777-.06145.494l-2.7063,1.56249A.9512.9512,0,0,1,95.301,74.05564Z"/>
              <path class="cls-7" d="M99.51906,76.49089l-2.73135-1.57695c-.21934-.12657-.19181-.34777.0614-.49394l2.70635-1.56249a.95076.95076,0,0,1,.85556-.03547l2.73136,1.57695c.21934.12657.19181.34777-.0614.49394l-2.70635,1.5625A.95081.95081,0,0,1,99.51906,76.49089Z"/>
              <path class="cls-7" d="M103.73707,78.92618l-2.73136-1.57694c-.21928-.12663-.19175-.34777.06146-.49394l2.70629-1.56255a.95123.95123,0,0,1,.85562-.03546l2.73136,1.577c.21928.12658.1918.34778-.06146.49395l-2.70629,1.56249A.95084.95084,0,0,1,103.73707,78.92618Z"/>
              <path class="cls-7" d="M107.95513,81.36148l-2.73136-1.57694c-.21928-.12663-.19181-.34778.0614-.494l2.70635-1.5625a.95109.95109,0,0,1,.85562-.03546l2.73135,1.57695c.21928.12663.19176.34777-.06145.494l-2.70635,1.5625A.95078.95078,0,0,1,107.95513,81.36148Z"/>
              <path class="cls-7" d="M112.17313,83.79678l-2.7313-1.57694c-.21934-.12664-.19181-.34778.0614-.494l2.70635-1.5625a.95078.95078,0,0,1,.85556-.03546l2.73136,1.57694c.21933.12663.19181.34778-.06141.494l-2.70634,1.5625A.95122.95122,0,0,1,112.17313,83.79678Z"/>
              <path class="cls-7" d="M116.39119,86.23207l-2.73136-1.577c-.21928-.12658-.19181-.34778.06146-.49395l2.70629-1.56249a.95084.95084,0,0,1,.85562-.03546l2.73135,1.57694c.21929.12658.19181.34777-.06144.49394l-2.7063,1.5625A.95108.95108,0,0,1,116.39119,86.23207Z"/>
              <path class="cls-7" d="M120.60925,88.66732l-2.73136-1.577c-.21934-.12657-.19181-.34777.0614-.49394l2.70635-1.56249a.95092.95092,0,0,1,.85556-.03552l2.73136,1.577c.21933.12657.19181.34777-.0614.49394l-2.70635,1.5625A.95078.95078,0,0,1,120.60925,88.66732Z"/>
              <path class="cls-7" d="M124.82725,91.10261l-2.73136-1.57694c-.21928-.12663-.19181-.34777.06146-.494l2.70629-1.56249a.95122.95122,0,0,1,.85562-.03546l2.73136,1.57694c.21928.12663.19181.34777-.06146.494l-2.70629,1.56249A.95085.95085,0,0,1,124.82725,91.10261Z"/>
              <path class="cls-7" d="M129.04531,93.53791,126.314,91.961c-.21934-.12663-.19181-.34778.0614-.494l2.70636-1.5625a.95076.95076,0,0,1,.85555-.03546l2.73136,1.57695c.21934.12663.19182.34777-.0614.494l-2.70635,1.5625A.95094.95094,0,0,1,129.04531,93.53791Z"/>
              <path class="cls-7" d="M133.26331,95.97321l-2.73136-1.577c-.21928-.12658-.19175-.34777.06146-.49394l2.70629-1.5625a.95091.95091,0,0,1,.85562-.03546l2.73136,1.57694c.21929.12663.19181.34778-.0614.494l-2.70635,1.56255A.95122.95122,0,0,1,133.26331,95.97321Z"/>
              <path class="cls-8" d="M101.516,72.90265l-2.73136-1.57694c-.21928-.12658-.19181-.34777.06146-.49394l2.70629-1.5625a.95091.95091,0,0,1,.85562-.03546l2.73135,1.57694c.21928.12658.19181.34778-.06145.49395l-2.70629,1.56249A.95085.95085,0,0,1,101.516,72.90265Z"/>
              <path class="cls-8" d="M97.235,70.431l-2.73136-1.57694c-.21928-.12658-.19181-.34778.06145-.49395l2.7063-1.56249a.95085.95085,0,0,1,.85562-.03546l2.73135,1.57694c.21928.12658.19181.34777-.06145.49394l-2.70629,1.5625A.95091.95091,0,0,1,97.235,70.431Z"/>
              <path class="cls-7" d="M92.947,67.95539,87.06441,64.559c-.21933-.12663-.1918-.34777.06141-.49394l2.70635-1.5625a.95105.95105,0,0,1,.85561-.03551l5.88262,3.39637c.21928.12663.19181.34777-.06146.494l-2.70629,1.5625A.95122.95122,0,0,1,92.947,67.95539Z"/>
              <path class="cls-7" d="M95.94435,64.94466,91.1704,62.18841c-.21928-.12658-.19181-.34778.06145-.49395l2.7063-1.56249a.95089.95089,0,0,1,.85561-.03546l4.77391,2.7562c.21933.12663.1918.34777-.06141.494L96.79991,64.9092A.95091.95091,0,0,1,95.94435,64.94466Z"/>
              <path class="cls-8" d="M105.73408,75.338,103.00272,73.761c-.21934-.12664-.19181-.34778.0614-.494l2.70635-1.5625a.95112.95112,0,0,1,.85557-.03546l2.73135,1.57694c.21933.12664.19181.34778-.0614.494l-2.70635,1.5625A.95078.95078,0,0,1,105.73408,75.338Z"/>
              <path class="cls-7" d="M109.95208,77.77325l-2.73136-1.577c-.21927-.12663-.19175-.34777.06146-.494l2.70629-1.5625a.95107.95107,0,0,1,.85562-.03546l2.73136,1.57694c.21928.12663.1918.34778-.06146.494l-2.70629,1.5625A.95109.95109,0,0,1,109.95208,77.77325Z"/>
              <path class="cls-7" d="M114.17014,80.20854l-2.73136-1.57694c-.21928-.12663-.1918-.34777.0614-.494l2.70635-1.56249a.95084.95084,0,0,1,.85562-.03546l2.73135,1.57694c.21928.12663.19176.34777-.06145.494l-2.70634,1.56249A.95112.95112,0,0,1,114.17014,80.20854Z"/>
              <path class="cls-7" d="M118.38814,82.64379l-2.73136-1.57695c-.21928-.12657-.19175-.34777.06146-.49394l2.70635-1.5625a.95078.95078,0,0,1,.85556-.03546l2.73136,1.57695c.21933.12657.19181.34777-.0614.49394l-2.70635,1.56249A.95088.95088,0,0,1,118.38814,82.64379Z"/>
              <path class="cls-7" d="M122.6062,85.07908l-2.73135-1.57694c-.21929-.12663-.19182-.34777.06145-.494l2.70629-1.56249a.95122.95122,0,0,1,.85562-.03546l2.73136,1.57694c.21928.12663.19181.34783-.06146.494l-2.70629,1.56249A.95085.95085,0,0,1,122.6062,85.07908Z"/>
              <path class="cls-7" d="M126.82426,87.51438l-2.73136-1.57694c-.21933-.12664-.19181-.34778.06141-.494l2.70634-1.5625a.95094.95094,0,0,1,.85556-.03546l2.73136,1.57694c.21934.12664.19181.34778-.0614.494l-2.70635,1.5625A.95094.95094,0,0,1,126.82426,87.51438Z"/>
              <path class="cls-7" d="M131.04226,89.94968l-2.73136-1.57695c-.21928-.12663-.1918-.34777.06146-.494l2.70629-1.5625a.95091.95091,0,0,1,.85562-.03546l2.73136,1.57694c.21928.12663.19181.34778-.06146.494l-2.70629,1.5625A.95129.95129,0,0,1,131.04226,89.94968Z"/>
              <path class="cls-7" d="M135.26032,92.385,132.529,90.808c-.21933-.12658-.19181-.34778.0614-.49395l2.70635-1.56249a.95072.95072,0,0,1,.85556-.03546l2.73136,1.57694c.21934.12658.19181.34777-.0614.49394l-2.70635,1.5625A.951.951,0,0,1,135.26032,92.385Z"/>
              <path class="cls-7" d="M139.47832,94.82022l-2.73135-1.577c-.21929-.12663-.19176-.34777.06145-.49394l2.70629-1.5625a.95108.95108,0,0,1,.85562-.03551l2.73136,1.577c.21928.12657.19181.34777-.06139.49394l-2.70636,1.56249A.95088.95088,0,0,1,139.47832,94.82022Z"/>
              <path class="cls-7" d="M146.97706,99.14964l-5.95956-3.44081c-.21933-.12657-.1918-.34777.06141-.49394l2.70634-1.5625a.95081.95081,0,0,1,.85557-.03546l5.95961,3.44075c.21928.12664.19181.34778-.06146.494l-2.70629,1.5625A.95122.95122,0,0,1,146.97706,99.14964Z"/>
              <path class="cls-7" d="M155.18908,94.40841,150.159,91.50429c-.21934-.12663-.19181-.34777.0614-.494l2.70634-1.56249a.95112.95112,0,0,1,.85557-.03546l5.03011,2.90417c.21934.12658.19181.34778-.0614.494L156.04465,94.373A.95074.95074,0,0,1,155.18908,94.40841Z"/>
              <path class="cls-7" d="M113.12075,74.86146l-2.73137-1.57694c-.21928-.12663-.19181-.34777.06146-.494l2.70629-1.56249a.95124.95124,0,0,1,.85563-.03546l2.73135,1.57694c.21928.12663.19181.34777-.06146.494L113.97636,74.826A.95083.95083,0,0,1,113.12075,74.86146Z"/>
              <path class="cls-7" d="M108.79777,72.36559l-2.73135-1.57695c-.21928-.12657-.19181-.34777.06145-.49394l2.7063-1.56249a.95086.95086,0,0,1,.85561-.03547l2.73136,1.57695c.21928.12657.19181.34777-.06145.49394l-2.70629,1.56249A.9509.9509,0,0,1,108.79777,72.36559Z"/>
              <path class="cls-8" d="M104.47482,69.86976l-2.73137-1.57694c-.21928-.12663-.19181-.34777.06146-.494l2.70629-1.56249a.95087.95087,0,0,1,.85563-.03546l2.73135,1.57694c.21928.12663.1918.34777-.06146.494l-2.70629,1.56249A.9512.9512,0,0,1,104.47482,69.86976Z"/>
              <path class="cls-7" d="M100.15184,67.37389l-2.73135-1.57695c-.21928-.12663-.19175-.34777.06145-.494l2.7063-1.5625a.951.951,0,0,1,.85561-.03546l2.73136,1.57694c.21928.12663.19181.34778-.06146.494l-2.70628,1.5625A.95111.95111,0,0,1,100.15184,67.37389Z"/>
              <path class="cls-7" d="M117.3388,77.29676l-2.73136-1.57694c-.21934-.12663-.19181-.34778.0614-.494l2.70635-1.5625a.951.951,0,0,1,.85556-.03546l2.73136,1.57695c.21934.12663.19181.34777-.0614.494l-2.70635,1.5625A.95094.95094,0,0,1,117.3388,77.29676Z"/>
              <path class="cls-7" d="M121.5568,79.73206l-2.73136-1.577c-.21928-.12663-.19174-.34777.06146-.494l2.7063-1.5625a.95089.95089,0,0,1,.85561-.03546l2.73136,1.57694c.21928.12663.19181.34778-.06146.494l-2.70628,1.5625A.95124.95124,0,0,1,121.5568,79.73206Z"/>
              <path class="cls-7" d="M125.77486,82.1673l-2.73136-1.57694c-.21928-.12658-.19181-.34778.0614-.49395l2.70635-1.56249a.95084.95084,0,0,1,.85562-.03546l2.73136,1.57694c.21928.12658.19175.34777-.06146.49394l-2.70635,1.5625A.95078.95078,0,0,1,125.77486,82.1673Z"/>
              <path class="cls-7" d="M129.99287,84.6026l-2.7313-1.57695c-.21935-.12663-.19182-.34777.06139-.494l2.70635-1.5625a.95112.95112,0,0,1,.85557-.03546l2.73135,1.57694c.21934.12663.19181.34783-.0614.494l-2.70635,1.56249A.95086.95086,0,0,1,129.99287,84.6026Z"/>
              <path class="cls-7" d="M134.21092,87.03789,131.47956,85.461c-.21927-.12663-.19181-.34777.06147-.494l2.70628-1.56249a.951.951,0,0,1,.85562-.03546l2.73136,1.57694c.21928.12663.19181.34777-.06146.494l-2.70629,1.56249A.951.951,0,0,1,134.21092,87.03789Z"/>
              <path class="cls-7" d="M138.429,89.47319l-2.73136-1.57694c-.21933-.12663-.1918-.34778.0614-.494l2.70635-1.5625a.95078.95078,0,0,1,.85556-.03546l2.73136,1.577c.21934.12663.19181.34777-.0614.494l-2.70634,1.5625A.95112.95112,0,0,1,138.429,89.47319Z"/>
              <path class="cls-7" d="M142.647,91.90843l-2.73135-1.57694c-.21928-.12658-.19181-.34777.06145-.49394l2.70629-1.5625a.95091.95091,0,0,1,.85562-.03546l2.73136,1.57694c.21928.12658.19181.34778-.06146.49395L143.5026,91.873A.95088.95088,0,0,1,142.647,91.90843Z"/>
              <path class="cls-7" d="M146.865,94.34373l-2.73135-1.57694c-.21934-.12664-.19181-.34778.0614-.49395l2.70634-1.56255a.95112.95112,0,0,1,.85557-.03546l2.73135,1.577c.21934.12658.19181.34777-.0614.49394l-2.70635,1.5625A.95078.95078,0,0,1,146.865,94.34373Z"/>
              <path class="cls-7" d="M151.083,96.779l-2.73135-1.577c-.21928-.12663-.19176-.34777.06146-.494l2.70629-1.5625a.95121.95121,0,0,1,.85561-.03546l2.73136,1.57694c.21928.12663.19181.34778-.0614.494l-2.70635,1.56249A.95088.95088,0,0,1,151.083,96.779Z"/>
              <path class="cls-7" d="M110.89969,68.83793,108.16833,67.261c-.21928-.12658-.19181-.34777.06146-.49394l2.70629-1.5625a.95107.95107,0,0,1,.85562-.03551l2.73136,1.577c.21928.12658.19175.34778-.06146.49395l-2.70629,1.56249A.95085.95085,0,0,1,110.89969,68.83793Z"/>
              <path class="cls-7" d="M106.70265,66.41478l-2.73136-1.57694c-.21928-.12663-.19181-.34777.0614-.494l2.70635-1.56249a.951.951,0,0,1,.85562-.03546l2.73135,1.57694c.21928.12663.19176.34777-.06145.494l-2.70635,1.56249A.95091.95091,0,0,1,106.70265,66.41478Z"/>
              <path class="cls-7" d="M102.5056,63.99164l-2.73136-1.577c-.21933-.12658-.1918-.34777.06141-.49394l2.70634-1.5625a.9508.9508,0,0,1,.85557-.03546l2.73135,1.57694c.21934.12663.19181.34778-.0614.494l-2.70634,1.56249A.951.951,0,0,1,102.5056,63.99164Z"/>
              <path class="cls-7" d="M98.30856,61.56843,95.5772,59.99149c-.21934-.12663-.19181-.34777.0614-.494L98.345,57.935a.9511.9511,0,0,1,.85556-.03546l2.73136,1.57694c.21934.12663.19181.34783-.0614.494L99.16412,61.533A.95072.95072,0,0,1,98.30856,61.56843Z"/>
              <path class="cls-7" d="M102.62435,59.07672l-2.73135-1.577c-.21928-.12658-.19176-.34778.06145-.49394l.89464-.51655a.95107.95107,0,0,1,.85562-.03546l2.73135,1.57694c.21929.12663.19181.34778-.06145.494l-.89464.51654A.95125.95125,0,0,1,102.62435,59.07672Z"/>
              <path class="cls-7" d="M108.10151,62.23892,105.37016,60.662c-.21928-.12664-.19181-.34778.06145-.494l.89464-.51649a.95084.95084,0,0,1,.85562-.03546l2.73135,1.57694c.21929.12658.19176.34777-.06145.49394l-.89464.51655A.9509.9509,0,0,1,108.10151,62.23892Z"/>
              <path class="cls-7" d="M112.2811,64.652l-2.73136-1.57694c-.21933-.12664-.19181-.34778.0614-.494l.8947-.51649a.95072.95072,0,0,1,.85556-.03546l2.73136,1.57694c.21934.12658.19181.34777-.0614.49394l-.8947.51655A.95078.95078,0,0,1,112.2811,64.652Z"/>
              <path class="cls-7" d="M116.46063,67.06508l-2.73135-1.57695c-.21929-.12663-.19176-.34777.06145-.494l.89464-.51649a.951.951,0,0,1,.85562-.03552l2.73135,1.577c.21928.12657.19181.34777-.06145.49394l-.89464.51655A.95109.95109,0,0,1,116.46063,67.06508Z"/>
              <path class="cls-7" d="M120.64022,69.47816l-2.73136-1.57695c-.21928-.12663-.1918-.34777.0614-.494l.8947-.51654a.95112.95112,0,0,1,.85557-.03546l2.73135,1.57694c.21933.12663.19181.34777-.06141.494l-.89463.51654A.95126.95126,0,0,1,120.64022,69.47816Z"/>
              <path class="cls-7" d="M143.97405,82.95l-2.73135-1.577c-.21928-.12658-.19181-.34777.06145-.49394l.89464-.51655a.95106.95106,0,0,1,.85562-.03546l2.73135,1.57694c.21929.12664.19176.34778-.06145.494l-.89464.51655A.95122.95122,0,0,1,143.97405,82.95Z"/>
              <path class="cls-7" d="M148.15364,85.363l-2.73136-1.57694c-.21933-.12658-.19181-.34777.0614-.49394l.8947-.51655a.95078.95078,0,0,1,.85556-.03546L149.9653,84.317c.21933.12664.19181.34778-.0614.494l-.8947.51649A.95072.95072,0,0,1,148.15364,85.363Z"/>
              <path class="cls-7" d="M152.33317,87.77607l-2.73135-1.57694c-.21929-.12658-.19176-.34777.06145-.49394l.89464-.51655a.95091.95091,0,0,1,.85562-.03546l2.73135,1.57694c.21928.12664.19176.34778-.06145.494l-.89464.51649A.95084.95084,0,0,1,152.33317,87.77607Z"/>
              <path class="cls-7" d="M156.51276,90.18915l-2.73136-1.57694c-.21928-.12663-.19181-.34778.0614-.494l.89469-.51649a.95081.95081,0,0,1,.85557-.03546l2.73136,1.57694c.21934.12663.1918.34778-.0614.49394l-.8947.51655A.95078.95078,0,0,1,156.51276,90.18915Z"/>
              <path class="cls-7" d="M115.11775,71.27323l-2.73136-1.57694c-.21934-.12664-.19181-.34778.0614-.494l2.70635-1.5625a.9511.9511,0,0,1,.85556-.03546l2.73136,1.57694c.21934.12664.19181.34778-.0614.494l-2.70635,1.5625A.95078.95078,0,0,1,115.11775,71.27323Z"/>
              <path class="cls-7" d="M119.33575,73.70853l-2.73136-1.57695c-.21928-.12663-.19181-.34777.06146-.494l2.70629-1.5625a.95091.95091,0,0,1,.85562-.03546l2.73136,1.57694c.21928.12663.19181.34778-.06146.494l-2.70629,1.5625A.9511.9511,0,0,1,119.33575,73.70853Z"/>
              <path class="cls-7" d="M123.55381,76.14382l-2.73136-1.577c-.21933-.12658-.19181-.34778.0614-.49395l2.70635-1.56249a.95072.95072,0,0,1,.85556-.03546l2.73136,1.57694c.21934.12663.19181.34777-.0614.494l-2.70635,1.56249A.9511.9511,0,0,1,123.55381,76.14382Z"/>
              <path class="cls-7" d="M127.77181,78.57907l-2.73135-1.57695c-.21929-.12657-.19176-.34777.06145-.49394l2.70629-1.5625a.95091.95091,0,0,1,.85562-.03546l2.73136,1.577c.21928.12657.19182.34777-.06146.49394l-2.70629,1.56249A.95088.95088,0,0,1,127.77181,78.57907Z"/>
              <path class="cls-7" d="M131.98987,81.01436l-2.73136-1.57694c-.21928-.12663-.19181-.34777.06141-.494l2.70634-1.56249a.95122.95122,0,0,1,.85562-.03546l2.73136,1.57694c.21929.12663.19175.34777-.06145.494l-2.70636,1.56249A.95072.95072,0,0,1,131.98987,81.01436Z"/>
              <path class="cls-7" d="M136.20787,83.44966l-2.7313-1.57694c-.21933-.12664-.19181-.34778.0614-.494l2.70635-1.5625a.95094.95094,0,0,1,.85556-.03546l2.73137,1.57694c.21933.12664.1918.34778-.06141.494l-2.70635,1.5625A.95106.95106,0,0,1,136.20787,83.44966Z"/>
              <path class="cls-7" d="M140.42593,85.885l-2.73135-1.577c-.21929-.12663-.19181-.34783.06145-.494l2.70629-1.5625a.95091.95091,0,0,1,.85562-.03546L144.0493,83.793c.21928.12663.19181.34778-.06146.494l-2.70629,1.5625A.95129.95129,0,0,1,140.42593,85.885Z"/>
              <path class="cls-7" d="M144.644,88.3202l-2.73136-1.57694c-.21933-.12658-.19181-.34778.06141-.494l2.70635-1.56249a.95072.95072,0,0,1,.85556-.03546l2.73135,1.57694c.21934.12658.19182.34777-.0614.49394l-2.70635,1.5625A.95078.95078,0,0,1,144.644,88.3202Z"/>
              <path class="cls-7" d="M148.862,90.7555l-2.73135-1.57695c-.21928-.12663-.19181-.34777.06145-.494l2.7063-1.56249a.9512.9512,0,0,1,.85561-.03546l2.73136,1.57694c.21929.12663.19181.34778-.06145.494L149.71761,90.72A.95088.95088,0,0,1,148.862,90.7555Z"/>
              <path class="cls-7" d="M91.00256,71.57389l-8.04413-4.64426c-.21933-.12663-.19181-.34777.0614-.494l2.70636-1.56249a.95092.95092,0,0,1,.85555-.03546L94.62587,69.482c.21933.12657.19181.34777-.0614.49394l-2.70635,1.56249A.95076.95076,0,0,1,91.00256,71.57389Z"/>
              <path class="cls-7" d="M142.8221,101.492,134.778,96.84765c-.21928-.12658-.19181-.34777.06145-.49394l2.7063-1.5625a.95089.95089,0,0,1,.85561-.03546L146.44547,99.4c.21928.12664.19181.34778-.06146.494l-2.70629,1.5625A.95107.95107,0,0,1,142.8221,101.492Z"/>
              <path class="cls-7" d="M125.95359,97.13216l-2.73136-1.57694c-.21928-.12658-.19181-.34777.06146-.49394l3.22393-1.86135a.95091.95091,0,0,1,.85562-.03546l2.73136,1.57694c.21928.12658.19175.34778-.06146.49395l-3.22393,1.86134A.95084.95084,0,0,1,125.95359,97.13216Z"/>
              <path class="cls-7" d="M95.32214,79.44711l-4.36823-2.522c-.21928-.12664-.19176-.34778.06145-.494l3.22393-1.86135a.95107.95107,0,0,1,.85562-.03546l4.36817,2.522c.21934.12663.19181.34778-.0614.494l-3.22393,1.86135A.95108.95108,0,0,1,95.32214,79.44711Z"/>
              <path class="cls-7" d="M121.88947,94.78574l-4.36822-2.522c-.21928-.12658-.19181-.34778.06145-.49394l3.22394-1.86135a.95078.95078,0,0,1,.85556-.03546l4.36822,2.522c.21934.12658.19181.34777-.0614.49394l-3.224,1.86135A.95081.95081,0,0,1,121.88947,94.78574Z"/>
              <path class="cls-7" d="M101.40788,82.9607l-4.36822-2.522c-.21928-.12664-.1918-.34778.0614-.494l3.224-1.86135a.9511.9511,0,0,1,.85556-.03546l4.36822,2.522c.21928.12663.19181.34777-.06145.494l-3.22394,1.86134A.95094.95094,0,0,1,101.40788,82.9607Z"/>
              <path class="cls-7" d="M101.21022,78.065l18.99166,10.96483a.26.26,0,0,1,0,.49268l-3.28758,1.89812a.943.943,0,0,1-.85338-.00005L97.06926,80.45579Z"/>
              <path class="cls-7" d="M137.74235,101.54761l3.04241,1.75655c.17977.10381.15723.28506-.05035.40491l-1.3188.76144a.77932.77932,0,0,1-.70129.029l-3.04247-1.75654c-.17977-.10376-.15723-.28506.05034-.40491l1.31881-.76144A.77982.77982,0,0,1,137.74235,101.54761Z"/>
              <path class="cls-7" d="M133.48932,99.09212l3.04247,1.75661c.17971.10375.15718.28506-.0504.40485l-1.31881.76144a.77931.77931,0,0,1-.70129.029l-3.04247-1.75654c-.17972-.10376-.15722-.28506.05035-.40491l1.31886-.76138A.77952.77952,0,0,1,133.48932,99.09212Z"/>
              <path class="cls-7" d="M129.27127,96.65688l3.04247,1.75655c.17976.10376.15721.28506-.05035.40491l-1.31881.76138a.77961.77961,0,0,1-.70135.02911l-3.04241-1.7566c-.17977-.10376-.15723-.28506.05035-.40485l1.3188-.76144A.77934.77934,0,0,1,129.27127,96.65688Z"/>
              <path class="cls-7" d="M135.81862,97.74732l3.04246,1.75655c.17972.10381.15717.28506-.0504.40491l-1.3188.76143a.7793.7793,0,0,1-.7013.02906l-3.04246-1.75654c-.17977-.10382-.15723-.28506.05034-.40491l1.31886-.76144A.77949.77949,0,0,1,135.81862,97.74732Z"/>
            </g>
          </g>
          <g>
            <path class="cls-6" d="M140.34675,37.78137l-2.61233-1.50826a1.0784,1.0784,0,0,1-.44841-.84265h0c-.00526-.3255.18693-.47589.42931-.33595l2.61233,1.50826a1.07868,1.07868,0,0,1,.44841.8427h0C140.78131,37.77092,140.58912,37.9213,140.34675,37.78137Z"/>
            <path class="cls-6" d="M146.56942,41.37409l-3.852-2.224a1.07842,1.07842,0,0,1-.44841-.8427h0c-.00531-.32545.18693-.47583.42925-.3359l3.852,2.224a1.0787,1.0787,0,0,1,.4484.8427h0C147.004,41.36364,146.81179,41.514,146.56942,41.37409Z"/>
            <path class="cls-6" d="M139.0524,51.71211l-2.61233-1.50832a1.07842,1.07842,0,0,1-.44841-.84265h0c-.00531-.32545.18694-.47589.42931-.3359l2.61233,1.50826a1.07859,1.07859,0,0,1,.44842.84265h0C139.487,51.7016,139.29478,51.852,139.0524,51.71211Z"/>
            <path class="cls-6" d="M144.5994,54.9147l-3.852-2.224a1.07849,1.07849,0,0,1-.44841-.8427h0c-.00526-.32545.18694-.47583.42931-.3359l3.85195,2.22395a1.07856,1.07856,0,0,1,.44841.84271h0C145.034,54.90424,144.84177,55.05463,144.5994,54.9147Z"/>
            <path class="cls-6" d="M133.18369,36.092l-1.63194-.94219a1.07858,1.07858,0,0,1-.44842-.84265h0c-.00525-.3255.18694-.47588.42932-.336l1.63194.94219a1.07881,1.07881,0,0,1,.44841.84271h0C133.61825,36.08157,133.42606,36.232,133.18369,36.092Z"/>
            <path class="cls-6" d="M138.75646,41.75591l-4.98613-2.87884a1.07864,1.07864,0,0,1-.44841-.84265h0c-.00525-.32545.18694-.47583.42931-.3359l4.98612,2.87878a1.07843,1.07843,0,0,1,.44842.84265h0C139.191,41.7454,138.99883,41.89584,138.75646,41.75591Z"/>
            <path class="cls-6" d="M135.48234,44.7582,133.8504,43.816a1.07845,1.07845,0,0,1-.44842-.84265h0c-.00524-.32545.18694-.47589.42932-.336l1.63194.94225a1.07855,1.07855,0,0,1,.44836.84265h0C135.9169,44.7477,135.72466,44.89813,135.48234,44.7582Z"/>
            <path class="cls-6" d="M146.52548,60.9194l-4.35876-2.51656a1.07841,1.07841,0,0,1-.44836-.84265h0c-.00531-.3255.18689-.47589.42926-.33595l4.35876,2.51656a1.07843,1.07843,0,0,1,.44836.8427h0C146.96,60.909,146.76785,61.05933,146.52548,60.9194Z"/>
            <path class="cls-6" d="M134.97794,49.35966l-1.04754-.60481a1.07857,1.07857,0,0,1-.44836-.84265h0c-.0053-.32545.18694-.47589.42926-.336l1.04754.60482a1.07835,1.07835,0,0,1,.44836.84265h0C135.41251,49.34915,135.22032,49.49959,134.97794,49.35966Z"/>
            <path class="cls-6" d="M135.31132,54.44483l-1.30085-.75109a1.07859,1.07859,0,0,1-.44842-.84265h0c-.00525-.3255.18694-.47589.42932-.336l1.30085.7511a1.07843,1.07843,0,0,1,.44842.84265h0C135.74589,54.43432,135.5537,54.58476,135.31132,54.44483Z"/>
            <path class="cls-6" d="M140.37208,57.36668l-3.42969-1.98015a1.07869,1.07869,0,0,1-.44842-.8427h0c-.00525-.32545.18694-.47583.42932-.3359l3.42969,1.98015a1.07835,1.07835,0,0,1,.44836.84265h0C140.80665,57.35623,140.61446,57.50661,140.37208,57.36668Z"/>
            <path class="cls-6" d="M136.51641,57.5869l-2.46594-1.42372a1.07852,1.07852,0,0,1-.44836-.84265h0c-.00531-.3255.18688-.47588.42926-.33595l2.46594,1.42377a1.07843,1.07843,0,0,1,.44842.84265h0C136.951,57.57644,136.75879,57.72683,136.51641,57.5869Z"/>
            <path class="cls-6" d="M150.26777,63.0906l-1.58369-.9144a1.07859,1.07859,0,0,1-.44841-.84264h0c-.00525-.32545.18694-.47589.42932-.336l1.58367.91439a1.0786,1.0786,0,0,1,.44841.84265h0C150.70233,63.08009,150.51013,63.23053,150.26777,63.0906Z"/>
            <path class="cls-6" d="M141.55277,48.263,137.194,45.74647a1.07862,1.07862,0,0,1-.44841-.8427h0c-.00526-.32545.18694-.47583.42932-.3359l4.35875,2.51656a1.07857,1.07857,0,0,1,.44836.84265h0C141.98733,48.25253,141.79514,48.403,141.55277,48.263Z"/>
            <path class="cls-6" d="M141.40709,45.73257l-7.59675-4.38606a1.07852,1.07852,0,0,1-.44836-.84265h0c-.00531-.32544.18694-.47588.42926-.3359L141.388,44.554a1.07839,1.07839,0,0,1,.44841.84264h0C141.84166,45.72212,141.64946,45.8725,141.40709,45.73257Z"/>
            <path class="cls-6" d="M138.24916,48.802,133.8904,46.2854a1.07854,1.07854,0,0,1-.44841-.84265h0c-.00526-.32544.18694-.47588.42931-.33595l4.35876,2.51656a1.07853,1.07853,0,0,1,.44835.8427h0C138.68372,48.79151,138.49147,48.94189,138.24916,48.802Z"/>
            <path class="cls-6" d="M144.85868,50.17172l-1.58368-.91434a1.07841,1.07841,0,0,1-.44836-.84265h0c-.0053-.3255.18689-.47588.42927-.33595l1.58367.91434a1.07852,1.07852,0,0,1,.44841.8427h0C145.29324,50.16127,145.101,50.31165,144.85868,50.17172Z"/>
            <path class="cls-6" d="M158.31829,48.15742l-9.3782-5.41456a1.07854,1.07854,0,0,1-.44836-.8427h0c-.00531-.32545.18688-.47583.42927-.3359l9.37819,5.41461a1.07857,1.07857,0,0,1,.44841.84265h0C158.75285,48.147,158.56066,48.2974,158.31829,48.15742Z"/>
            <path class="cls-6" d="M139.21,54.24941l-5.23949-3.02512a1.07839,1.07839,0,0,1-.4484-.84265h0c-.00526-.3255.18693-.47588.4293-.33595l5.23949,3.02512a1.07858,1.07858,0,0,1,.44842.84265h0C139.64452,54.2389,139.45233,54.38934,139.21,54.24941Z"/>
            <path class="cls-6" d="M135.36369,34.90439l-3.85195-2.224a1.07842,1.07842,0,0,1-.44841-.84265h0c-.00525-.3255.18694-.47589.42931-.336l3.852,2.224a1.07843,1.07843,0,0,1,.44842.84265h0C135.79826,34.89389,135.60607,35.04432,135.36369,34.90439Z"/>
            <path class="cls-6" d="M136.37325,59.95056l-4.46131-2.57578a1.0786,1.0786,0,0,1-.44841-.84265h0c-.00525-.32544.18695-.47588.42931-.336l4.46131,2.57578a1.07851,1.07851,0,0,1,.44836.8427h0C136.80782,59.94011,136.61557,60.09049,136.37325,59.95056Z"/>
          </g>
        </g>
        <g>
          <g>
            <path class="cls-6" d="M22.30531,63.82943,45.28425,50.45c4.552-2.62869,8.845-3.04416,12.08854-1.17307,3.24232,1.87234,5.02831,5.79834,5.02831,11.05458V62.015c-.16258.11-.33272.21742-.50675.32359V60.3315c0-5.06744-1.696-8.83758-4.77493-10.61553-3.08017-1.77734-7.1931-1.36121-11.58179,1.17248L22.55868,64.26783a.25318.25318,0,1,1-.25337-.4384Z"/>
            <path class="cls-6" d="M93.96606,47.89086V-3.89323c0-10.36527,7.30337-23.01517,16.28038-28.19753,4.39608-2.538,8.54322-2.94046,11.6762-1.13209,3.13265,1.80837,4.85784,5.60029,4.85784,10.677V-18.935l-.50675.50675v-4.11759c0-4.888-1.63544-8.524-4.60446-10.238-2.96969-1.71337-6.93607-1.31219-11.16945,1.13148-8.8373,5.10219-16.027,17.5547-16.027,27.75908V47.89086c0,8.59169-5.05557,18.76028-11.911,24.87925v-.67979C89.14641,66.03937,93.96606,56.21342,93.96606,47.89086Z"/>
            <path class="cls-7" d="M126.78048-17.35016h0A20.337,20.337,0,0,1,137.154-22.42871c6.41213-.98033,9.06178,6.51814,9.06178,6.51814a41.37883,41.37883,0,0,1,.71542,6.20012c-.02655,2.30522-.19165,10.67687-.19165,10.67687L126.41317-10.74283l.00011-.003a.25131.25131,0,0,1-.13955-.22322v-5.94314C126.44266-17.08108,126.61154-17.18122,126.78048-17.35016Z"/>
          </g>
          <g>
            <g>
              <path class="cls-6" d="M141.189-22.116,121.92258-33.2229l.0753.27674c-2.96941-1.918-7.45693-2.125-13.45994,2.27714C96.61461-21.92524,95.18242-9.75259,94.57432-7.47145c-.60794,2.281-.35762,16.73252-.35762,16.73252s-.03985,34.85587-.07952,38.90987a33.45716,33.45716,0,0,1-3.49761,13.513c-2.27764,4.911-8.12769,10.87021-8.12769,10.87021v7.09449c.934,7.67063,4.193,9.45913,9.04192,9.89644,3.91336.3527,8.08292-2.47268,11.41433-5.55214-.12285.12833-.20188.20955-.20188.20955v7.09432c.934,7.67074,4.19311,9.45914,9.04192,9.89644,4.84881.43709,10.09263-4.00414,13.64573-7.76355a40.714,40.714,0,0,0,8.21372-14.67882c1.66461-5.179,1.11293-11.87052,1.11293-11.87052s.03973-38.10169.07946-45.61334c.03978-7.51182.27822-6.20024,2.74236-13.75168s8.99616-12.8375,8.99616-12.8375l15.67339-4.66795Z"/>
              <path class="cls-7" d="M107.64916,100.55551c-.26415-.35937-3.69713-2.6612-4.57146-6.715a31.63169,31.63169,0,0,1-.43725-5.68347s.01417-1.90671.06008-3.63995c.0382-.03382.07771-.06479.1158-.09861v-.67984c-.03131.02873-.06387.05467-.09517.08329.01313-.39128.028-.75871.04515-1.0702.09932-1.80164-1.23207-5.64358-1.23207-5.64358a8.57261,8.57261,0,0,0-7.51176-5.34576c-4.99329-.17632-10.24893,3.41558-11.367,4.22484V73.66327c-.0742.05007-.15421.09845-.23121.14776.00629-.31161.01352-.62972.02178-.94214.03825-.03382.07766-.0648.1158-.09878v-.67984c-.0313.02878-.06381.05483-.09511.08329.01308-.39128.02791-.75854.04509-1.07.09932-1.80181-1.23206-5.64374-1.23206-5.64374a8.57225,8.57225,0,0,0-7.51177-5.34561c-4.99329-.17648-10.24892,3.41564-11.367,4.22485v-2.3241c-.16258.11-.33272.21748-.50669.32364v4.06888c0,4.92981,1.64234,8.6346,4.62488,10.47466l.012.01374.10414.05992c.028.01675.05407.036.08225.05232.018.0104.03766.01691.05572.02714l20.6213,11.87211c-.005-.007-.01883-.01926-.02622-.02764Z"/>
              <g>
                <path class="cls-6" d="M77.62722,60.9252s-.15449-.07951-.42685-.19028c-.08378-.04011-.16444-.08755-.24916-.12548L57.37279,49.277a10.50685,10.50685,0,0,0-7.94824-.298c-4.35093,1.59259-27.1483,15.26919-27.1483,15.26919L42.643,75.982l.00355-.00219a.26581.26581,0,0,0,.05456.01483L62.89745,87.63018S74.32372,80.5515,82.22868,75.98436l.50675-.292a51.23335,51.23335,0,0,1,6.60383-3.45969,12.52826,12.52826,0,0,1,9.14792.76675Z"/>
                <path class="cls-6" d="M98.48718,72.99941l.23575.13653S98.6369,73.0816,98.48718,72.99941Z"/>
              </g>
            </g>
            <path class="cls-7" d="M147.03491-5.70193h0a20.33647,20.33647,0,0,1,10.37353-5.07849c6.41213-.98039,9.06178,6.51807,9.06178,6.51807a41.38661,41.38661,0,0,1,.71541,6.20018c-.02654,2.30517-.1917,10.67682-.1917,10.67682L146.6676.9054l.0001-.003a.25124.25124,0,0,1-.13954-.22317V-5.26391C146.697-5.43285,146.866-5.533,147.03491-5.70193Z"/>
            <path class="cls-8" d="M111.61007,101.477a14.82134,14.82134,0,0,0,7.28909-2.23063c8.91211-5.14509,16.1624-17.70372,16.1624-27.99385v-51.784c0-10.20382,7.18971-22.65689,16.02729-27.75973,4.23343-2.443,8.19948-2.84546,11.16917-1.13149,2.969,1.71463,4.60446,5.35064,4.60446,10.23858V12.39274a.25338.25338,0,0,0,.50675,0V.81587c0-5.07674-1.72519-8.8686-4.85784-10.677-3.133-1.809-7.27946-1.40658-11.67592,1.13149-8.97729,5.18291-16.28066,17.83287-16.28066,28.19813v51.784c0,10.1293-7.13663,22.49048-15.909,27.5554-4.20109,2.42506-8.1383,2.825-11.08593,1.12278-2.947-1.70095-4.57-5.31025-4.57-10.16158v-6.0759c0-5.25624-1.78572-9.18229-5.02864-11.05458C94.71863,70.76752,90.4256,71.183,85.873,73.81174L62.89461,87.19112a.2532.2532,0,0,0,.25337.43846l22.9784-13.37944c4.38864-2.5337,8.50222-2.95042,11.58152-1.17242s4.77521,5.54808,4.77521,10.61552v6.0759c0,5.04013,1.713,8.80469,4.82337,10.60064A8.49816,8.49816,0,0,0,111.61007,101.477Z"/>
          </g>
          <path class="cls-13" d="M113.19637,32.16045l-3.397-1.96127a1.40273,1.40273,0,0,1-.58309-1.09581h0c-.00684-.42318.24309-.61877.55825-.43681l3.397,1.96127a1.40242,1.40242,0,0,1,.583,1.09581h0C113.76145,32.14682,113.51153,32.34241,113.19637,32.16045Z"/>
          <path class="cls-13" d="M120.40939,36.325l-5.00894-2.892a1.4024,1.4024,0,0,1-.583-1.09575h0c-.0069-.42324.243-.61882.55819-.43686l5.009,2.892a1.40242,1.40242,0,0,1,.583,1.09581h0C120.97453,36.31136,120.72455,36.507,120.40939,36.325Z"/>
          <path class="cls-13" d="M112.81155,19.21383l-6.48376-3.74344a1.40257,1.40257,0,0,1-.5831-1.09575h0c-.00683-.42324.24309-.61882.55825-.43686l6.48376,3.74349a1.40254,1.40254,0,0,1,.58309,1.09574h0C113.37663,19.20025,113.1267,19.39584,112.81155,19.21383Z"/>
          <path class="cls-13" d="M108.554,23.11793l-2.12211-1.22523a1.40258,1.40258,0,0,1-.58309-1.0958h0c-.00684-.42319.24308-.61877.55824-.43681l2.12211,1.22522a1.40258,1.40258,0,0,1,.58309,1.09575h0C109.11906,23.1043,108.86913,23.29989,108.554,23.11793Z"/>
          <path class="cls-13" d="M107.8981,29.10146,106.536,28.315a1.40264,1.40264,0,0,1-.58309-1.0958h0c-.00684-.42319.24309-.61877.55826-.43682l1.36214.78645a1.40236,1.40236,0,0,1,.583,1.09575h0C108.46319,29.08783,108.21326,29.28342,107.8981,29.10146Z"/>
          <path class="cls-13" d="M116.44766,27.67544,110.77979,24.403a1.4026,1.4026,0,0,1-.58309-1.09581h0c-.00684-.42318.24309-.61877.55824-.43681l5.66788,3.27242a1.40225,1.40225,0,0,1,.58309,1.09575h0C117.01276,27.66182,116.76282,27.8574,116.44766,27.67544Z"/>
          <path class="cls-13" d="M116.25832,24.385l-9.8785-5.70345a1.40254,1.40254,0,0,1-.58309-1.09575h0c-.00684-.42324.24309-.61877.55825-.43681l9.8785,5.70345a1.40258,1.40258,0,0,1,.58308,1.09575h0C116.82341,24.3714,116.57347,24.56693,116.25832,24.385Z"/>
          <path class="cls-13" d="M112.15179,28.37625l-5.66788-3.27242a1.40261,1.40261,0,0,1-.58309-1.09575h0c-.00684-.42324.24309-.61877.55825-.43681l5.66793,3.27242a1.40234,1.40234,0,0,1,.583,1.09575h0C112.71693,28.36268,112.467,28.55821,112.15179,28.37625Z"/>
          <path class="cls-13" d="M120.74661,30.15742l-2.05935-1.18894a1.40252,1.40252,0,0,1-.58309-1.09581h0c-.00684-.42318.24309-.61877.55825-.43681l2.05934,1.189a1.40242,1.40242,0,0,1,.583,1.09575h0C121.31169,30.14385,121.06176,30.33938,120.74661,30.15742Z"/>
          <g>
            <path class="cls-13" d="M114.87948,14.04559l-3.397-1.96128a1.40239,1.40239,0,0,1-.583-1.0958h0c-.0069-.42319.243-.61877.55819-.43681l3.397,1.96127a1.40258,1.40258,0,0,1,.58309,1.0958h0C115.44456,14.032,115.19464,14.22754,114.87948,14.04559Z"/>
            <path class="cls-13" d="M122.97116,18.71742l-5.00893-2.892a1.40233,1.40233,0,0,1-.5831-1.09581h0c-.00683-.42318.24309-.61877.55824-.43681l5.00894,2.892a1.40239,1.40239,0,0,1,.583,1.09575h0C123.53624,18.70379,123.28632,18.89938,122.97116,18.71742Z"/>
            <path class="cls-13" d="M113.19637,32.16045l-3.397-1.96127a1.40273,1.40273,0,0,1-.58309-1.09581h0c-.00684-.42318.24309-.61877.55825-.43681l3.397,1.96127a1.40242,1.40242,0,0,1,.583,1.09581h0C113.76145,32.14682,113.51153,32.34241,113.19637,32.16045Z"/>
            <path class="cls-13" d="M120.40939,36.325l-5.00894-2.892a1.4024,1.4024,0,0,1-.583-1.09575h0c-.0069-.42324.243-.61882.55819-.43686l5.009,2.892a1.40242,1.40242,0,0,1,.583,1.09581h0C120.97453,36.31136,120.72455,36.507,120.40939,36.325Z"/>
            <path class="cls-13" d="M105.56493,11.84883l-2.12212-1.22522a1.40229,1.40229,0,0,1-.583-1.09575h0c-.0069-.42319.243-.61877.55824-.43682l2.12206,1.22523a1.40234,1.40234,0,0,1,.58309,1.09575h0C106.13,11.83521,105.88008,12.03079,105.56493,11.84883Z"/>
            <path class="cls-13" d="M112.81155,19.21383l-6.48376-3.74344a1.40257,1.40257,0,0,1-.5831-1.09575h0c-.00683-.42324.24309-.61882.55825-.43686l6.48376,3.74349a1.40254,1.40254,0,0,1,.58309,1.09574h0C113.37663,19.20025,113.1267,19.39584,112.81155,19.21383Z"/>
            <path class="cls-13" d="M108.554,23.11793l-2.12211-1.22523a1.40258,1.40258,0,0,1-.58309-1.0958h0c-.00684-.42319.24308-.61877.55824-.43681l2.12211,1.22522a1.40258,1.40258,0,0,1,.58309,1.09575h0C109.11906,23.1043,108.86913,23.29989,108.554,23.11793Z"/>
            <path class="cls-13" d="M122.914,44.13325l-5.66788-3.27242a1.40255,1.40255,0,0,1-.58309-1.0958h0c-.00684-.42319.24309-.61877.55826-.43681l5.66786,3.27241a1.40241,1.40241,0,0,1,.58309,1.09575h0C123.47906,44.11962,123.22913,44.31521,122.914,44.13325Z"/>
            <path class="cls-13" d="M107.8981,29.10146,106.536,28.315a1.40264,1.40264,0,0,1-.58309-1.0958h0c-.00684-.42319.24309-.61877.55826-.43682l1.36214.78645a1.40236,1.40236,0,0,1,.583,1.09575h0C108.46319,29.08783,108.21326,29.28342,107.8981,29.10146Z"/>
            <path class="cls-13" d="M108.33163,35.71393,106.64,34.73732a1.40273,1.40273,0,0,1-.58309-1.09581h0c-.00684-.42318.24309-.61877.55825-.43681l1.69159.97667a1.40249,1.40249,0,0,1,.58309,1.09575h0C108.89672,35.70036,108.64679,35.896,108.33163,35.71393Z"/>
            <path class="cls-13" d="M114.91237,39.5134l-4.45978-2.5749a1.40244,1.40244,0,0,1-.58309-1.0958h0c-.00684-.42319.24309-.61877.55825-.43681l4.45977,2.575a1.40238,1.40238,0,0,1,.5831,1.09575h0C115.47745,39.49983,115.22752,39.69536,114.91237,39.5134Z"/>
            <path class="cls-13" d="M109.89867,39.79983l-3.20659-1.85138a1.40261,1.40261,0,0,1-.58309-1.09575h0c-.00684-.42324.24309-.61883.55825-.43687l3.20658,1.85139a1.40223,1.40223,0,0,1,.58309,1.09575h0C110.46375,39.7862,110.21383,39.98179,109.89867,39.79983Z"/>
            <path class="cls-13" d="M116.44766,27.67544,110.77979,24.403a1.4026,1.4026,0,0,1-.58309-1.09581h0c-.00684-.42318.24309-.61877.55824-.43681l5.66788,3.27242a1.40225,1.40225,0,0,1,.58309,1.09575h0C117.01276,27.66182,116.76282,27.8574,116.44766,27.67544Z"/>
            <path class="cls-13" d="M116.25832,24.385l-9.8785-5.70345a1.40254,1.40254,0,0,1-.58309-1.09575h0c-.00684-.42324.24309-.61877.55825-.43681l9.8785,5.70345a1.40258,1.40258,0,0,1,.58308,1.09575h0C116.82341,24.3714,116.57347,24.56693,116.25832,24.385Z"/>
            <path class="cls-13" d="M112.15179,28.37625l-5.66788-3.27242a1.40261,1.40261,0,0,1-.58309-1.09575h0c-.00684-.42324.24309-.61877.55825-.43681l5.66793,3.27242a1.40234,1.40234,0,0,1,.583,1.09575h0C112.71693,28.36268,112.467,28.55821,112.15179,28.37625Z"/>
            <path class="cls-13" d="M120.74661,30.15742l-2.05935-1.18894a1.40252,1.40252,0,0,1-.58309-1.09581h0c-.00684-.42318.24309-.61877.55825-.43681l2.05934,1.189a1.40242,1.40242,0,0,1,.583,1.09575h0C121.31169,30.14385,121.06176,30.33938,120.74661,30.15742Z"/>
            <path class="cls-13" d="M113.4012,35.45985l-6.8132-3.93371a1.40258,1.40258,0,0,1-.58309-1.09575h0c-.00684-.42324.24308-.61883.55824-.43687l6.81321,3.93371a1.40229,1.40229,0,0,1,.58309,1.09575h0C113.96629,35.44622,113.71636,35.64181,113.4012,35.45985Z"/>
            <path class="cls-13" d="M108.39971,10.30445l-5.00894-2.892a1.40239,1.40239,0,0,1-.583-1.09575h0c-.0069-.42324.243-.61883.55824-.43687l5.00894,2.892a1.40239,1.40239,0,0,1,.583,1.0958h0C108.96485,10.29083,108.71492,10.48641,108.39971,10.30445Z"/>
            <path class="cls-13" d="M109.7125,42.87338,103.9112,39.524a1.40235,1.40235,0,0,1-.583-1.09574h0c-.0069-.42324.243-.61878.55819-.43682l5.80129,3.34942a1.40241,1.40241,0,0,1,.583,1.09575h0C110.27758,42.85981,110.02765,43.05534,109.7125,42.87338Z"/>
          </g>
          <path class="cls-13" d="M112.39783,62.63348l-3.397-1.96127a1.40235,1.40235,0,0,1-.58309-1.0958h0c-.00684-.42319.24308-.61877.55824-.43682l3.397,1.96128a1.40258,1.40258,0,0,1,.58309,1.0958h0C112.96291,62.61986,112.713,62.81544,112.39783,62.63348Z"/>
          <path class="cls-13" d="M119.61091,66.798l-5.00894-2.892a1.40244,1.40244,0,0,1-.58309-1.09575h0c-.00684-.42324.24308-.61883.55824-.43687l5.00894,2.892a1.40257,1.40257,0,0,1,.58309,1.0958h0C120.176,66.78439,119.92606,66.98,119.61091,66.798Z"/>
          <path class="cls-13" d="M112.013,49.68691l-6.48377-3.74348a1.40239,1.40239,0,0,1-.583-1.09575h0c-.0069-.42324.24308-.61883.55824-.43687l6.48371,3.74349a1.40242,1.40242,0,0,1,.58309,1.09575h0C112.57809,49.67329,112.32816,49.86887,112.013,49.68691Z"/>
          <path class="cls-13" d="M107.75544,53.591l-2.12211-1.22522a1.40239,1.40239,0,0,1-.583-1.09575v-.00006c-.00689-.42318.243-.61877.55825-.43681l2.12205,1.22523a1.40242,1.40242,0,0,1,.58309,1.09575h0C108.32052,53.57734,108.07059,53.77292,107.75544,53.591Z"/>
          <path class="cls-13" d="M107.09956,59.57449l-1.36215-.78645a1.40239,1.40239,0,0,1-.583-1.0958h0c-.0069-.42319.243-.61877.55824-.43681l1.3621.78644a1.40261,1.40261,0,0,1,.58309,1.09575h0C107.66465,59.56086,107.41472,59.75645,107.09956,59.57449Z"/>
          <path class="cls-13" d="M115.64918,58.14848l-5.66793-3.27242a1.4024,1.4024,0,0,1-.583-1.0958h0c-.00689-.42319.243-.61877.55819-.43682l5.66793,3.27242a1.40258,1.40258,0,0,1,.58309,1.09575v.00006C116.21426,58.13485,115.96434,58.33044,115.64918,58.14848Z"/>
          <path class="cls-13" d="M115.45978,54.858l-9.8785-5.70345a1.40233,1.40233,0,0,1-.583-1.09575h0c-.0069-.42318.243-.61877.55824-.43681l9.87844,5.70345a1.40242,1.40242,0,0,1,.58309,1.09575h0C116.02486,54.84443,115.77493,55.04,115.45978,54.858Z"/>
          <path class="cls-13" d="M111.3533,58.84928l-5.66793-3.27242a1.40237,1.40237,0,0,1-.583-1.09575h0c-.0069-.42324.243-.61877.55824-.43681l5.66788,3.27242a1.40262,1.40262,0,0,1,.58309,1.09575h0C111.91839,58.83571,111.66846,59.03124,111.3533,58.84928Z"/>
          <path class="cls-13" d="M119.94806,60.63046l-2.05934-1.18895a1.40264,1.40264,0,0,1-.58309-1.0958h0c-.00684-.42319.24309-.61877.55825-.43682l2.05934,1.189a1.40261,1.40261,0,0,1,.58309,1.09575h0C120.51315,60.61688,120.26322,60.81241,119.94806,60.63046Z"/>
        </g>
        <path class="cls-13" d="M47.72289,97.22005s-1.94207-.9794-3.13478.47895-2.89767,4.901-2.95048,7.22725,1.84093,2.16923,2.96661,1.61864,4.41409-5.32064,4.61317-6.25534a3.24416,3.24416,0,0,0-.55113-2.4458C48.34992,97.5965,47.72289,97.22005,47.72289,97.22005Z"/>
        <path class="cls-6" d="M48.14662,96.75205l.08986,2.01211a1.141,1.141,0,0,1-.56848,1.04672,2.2393,2.2393,0,0,1-1.49814.23285c-1.463-.2351-1.59358-.65308-1.6981-2.66465S48.14662,96.75205,48.14662,96.75205Z"/>
        <g>
          <path class="cls-13" d="M40.61389,93.3513s-1.94206-.97941-3.13478.479-2.89767,4.901-2.95047,7.22725,1.84093,2.16923,2.96662,1.61864,4.41408-5.32065,4.61316-6.25534a3.244,3.244,0,0,0-.55113-2.44575C41.24093,93.72775,40.61389,93.3513,40.61389,93.3513Z"/>
          <path class="cls-6" d="M41.03763,92.8833l.08985,2.01211a1.14092,1.14092,0,0,1-.56847,1.04671,2.23951,2.23951,0,0,1-1.49814.23291c-1.463-.23515-1.59358-.65314-1.69811-2.6647S41.03763,92.8833,41.03763,92.8833Z"/>
          <path class="cls-7" d="M58.36686,55.9433c-.57477-9.35254-10.12858,1.376-10.12858,1.376l-6.53887,6.40912-5.88809,6.46828a5.8037,5.8037,0,0,0-1.46251,4.66258l2.38195,18.13709a1.78248,1.78248,0,0,0,1.78735,1.54919,6.06257,6.06257,0,0,0,.88238-.07732A2.2158,2.2158,0,0,0,41.36855,92.117L40.9331,75.15353l12.36556-7.4542S58.94158,65.29589,58.36686,55.9433Z"/>
        </g>
        <path class="cls-7" d="M65.47586,59.50674c-.57478-9.35259-10.12859,1.37594-10.12859,1.37594L48.8084,67.2918l-5.88808,6.46828a5.80371,5.80371,0,0,0-1.46252,4.66258l2.38194,18.13709a1.78251,1.78251,0,0,0,1.78736,1.54919,6.06315,6.06315,0,0,0,.88238-.07732,2.2158,2.2158,0,0,0,1.96806-2.35124l-.43545-16.96346,12.36556-7.4542S66.05057,68.85928,65.47586,59.50674Z"/>
        <path class="cls-16" d="M62.15414,33.28115c-.37887,1.47067-2.30566,2.24562-4.30366,1.73094S54.53987,32.888,54.91873,31.4174s2.3056-2.24557,4.30359-1.73088S62.53293,31.81054,62.15414,33.28115Z"/>
        <path class="cls-15" d="M59.07319,35.51594a5.25091,5.25091,0,0,1-1.30934-.16888,4.81518,4.81518,0,0,1-2.539-1.55516,2.76711,2.76711,0,0,1-.64126-2.461c.42537-1.6535,2.54491-2.54222,4.7253-1.97949a4.81508,4.81508,0,0,1,2.53905,1.55516,2.76733,2.76733,0,0,1,.64132,2.461h0A3.31021,3.31021,0,0,1,59.07319,35.51594ZM57.98242,29.873a2.6204,2.6204,0,0,0-2.72873,1.63106,2.0971,2.0971,0,0,0,.50768,1.85013A4.12815,4.12815,0,0,0,57.937,34.6769c1.80794.46549,3.55124-.1993,3.882-1.48249h0a2.09711,2.09711,0,0,0-.50768-1.85012,4.128,4.128,0,0,0-2.17563-1.32269A4.63046,4.63046,0,0,0,57.98242,29.873Z"/>
        <path class="cls-17" d="M66.08,49.90279c-.18995,4.34-.27991,9.06995-.09,13.04993.20007,4.38012-23.28992,4.71-19.77991-6.98a73.925,73.925,0,0,0,2.3899-11.24,10.70413,10.70413,0,0,1-5.25-4.23c1.74-4.31005,5.55-8.91992,6.97-10.56a1.61354,1.61354,0,0,1,.40014-.6c1.92993-1.68,7.23-.63,9.09986.14,3.97009,1.64,5.72009,3.67,6.49,5.17a.52947.52947,0,0,0,.03.04993c.29.47,2.67,4.57006,3.60009,14.38012A22.21643,22.21643,0,0,1,66.08,49.90279Z"/>
        <path class="cls-18" d="M56.91967,29.1581a17.85782,17.85782,0,0,1-.06277,2.58579c-.0394.72148,2.48713,1.39558,3.14021.74244s.39188-1.33232.54861-3.788S56.91967,29.1581,56.91967,29.1581Z"/>
        <path class="cls-19" d="M60.54572,28.6983a5.08845,5.08845,0,0,1-3.68925,3.15022l.04657-2.06941Z"/>
        <circle class="cls-18" cx="57.09091" cy="24.30885" r="5.57535" transform="translate(7.3923 61.46177) rotate(-59.8444)"/>
        <path class="cls-19" d="M58.37141,24.51335a17.26254,17.26254,0,0,1-5.19522,1.33008c-2.1255.0151-1.65712-1.76487-1.65712-1.76487l6.30952-.91187Z"/>
        <path class="cls-20" d="M52.54259,24.85987a9.95724,9.95724,0,0,1,5.01988-.66184,2.45873,2.45873,0,0,1,1.41764.84248.837.837,0,0,0,.429.31035c.41591.09418,1.0969-1.63167,1.90546-1.671s1.34808.53312.68515,1.59445-.43889,2.24923-.13386,2.41954,3.54046-2.30757.68658-7.96122S52.4489,17.12411,51.3213,18.26994c0,0-1.18791,1.03489-2.1538.11388C49.1675,18.38382,48.08467,26.49493,52.54259,24.85987Z"/>
        <path class="cls-8" d="M62.37593,39.67473a73.702,73.702,0,0,0-1.09362,8.14137,1.66145,1.66145,0,0,0,1.09362,1.60463h0Z"/>
        <g>
          <path class="cls-13" d="M60.11531,67.21437l-1.92575-.25426L45.75833,59.78294a1.728,1.728,0,0,0-1.55483.06441L35.39476,64.9312l-1.16448-.15372v1.15923l.00115.00017a.45355.45355,0,0,0,.26738.40813L48.587,74.47883a1.728,1.728,0,0,0,1.55484-.06441l9.593-5.5367a.62769.62769,0,0,0,.38039-.5229h0Z"/>
          <path class="cls-8" d="M50.77493,62.67923l-.8832-.50987H40.18168L35.39476,64.9312l-1.16448-.15372v1.15923l.00115.00017a.45355.45355,0,0,0,.26738.40813L48.587,74.47883a1.45727,1.45727,0,0,0,.80243.15038Z"/>
          <path class="cls-13" d="M34.747,64.84572l-.51676-.06824v1.15923l.00115.00017a.45355.45355,0,0,0,.26738.40813l.24823.14332Z"/>
          <path class="cls-15" d="M48.72889,74.54477a1.80441,1.80441,0,0,0,1.32116-.082V72.49047H48.72889Z"/>
          <path class="cls-15" d="M48.587,73.32037,34.49881,65.18655c-.39856-.23012-.3486-.632.11164-.8977l9.593-5.53671a1.72807,1.72807,0,0,1,1.55483-.06446L59.84656,66.8215c.39856.23011.3486.632-.11164.8977l-9.593,5.5367A1.72809,1.72809,0,0,1,48.587,73.32037Z"/>
          <path class="cls-6" d="M48.34872,72.08753,36.63444,65.32429c-.33142-.19132-.28983-.52552.09281-.74644l5.14066-2.89077a1.43694,1.43694,0,0,1,1.29286-.05358l11.71429,6.76324c.33135.19132.28982.52552-.09282.74645L49.64158,72.034A1.43716,1.43716,0,0,1,48.34872,72.08753Z"/>
        </g>
        <path class="cls-18" d="M44.74822,58.48509l-.14578.97213a7.18726,7.18726,0,0,0,.06348,2.49253l.17342.8565a1.20506,1.20506,0,0,0,.96518.94635h0a.66452.66452,0,0,0,.77939-.57986l.23252-2.07811s.53165.6967.78836.6967-.28725-2.08118-.86782-3.259S44.74822,58.48509,44.74822,58.48509Z"/>
        <polygon class="cls-13" points="49.52 43.033 48.57 44.913 44.58 42.073 44.93 40.103 49.52 43.033"/>
        <path class="cls-18" d="M48.57,44.91268,48.01,46.02278a5.8271,5.8271,0,0,0-.62,2.28l-.65,10.23-1.99-.05-.9-11.49a3.75624,3.75624,0,0,1,.05-1.06006L44.58,42.07283Z"/>
        <g>
          <path class="cls-7" d="M48.10979,74.10161l-1.18123-1.54208L34.50609,65.36725a1.72825,1.72825,0,0,1-.7199-1.37966l.01078-10.1705-.71427-.93246.67114-.38865.00072.00093a.45355.45355,0,0,1,.4871.028L48.32,60.676a1.72808,1.72808,0,0,1,.7199,1.3796L49.028,73.13178a.62788.62788,0,0,1-.26333.59054h0Z"/>
          <path class="cls-8" d="M39.51918,68.26967l-.88259-.511-4.84477-8.415.00515-5.52657-.71427-.93246.67114-.38865.00072.00093a.45355.45355,0,0,1,.4871.028L48.32,60.676a1.45738,1.45738,0,0,1,.53066.62035Z"/>
          <path class="cls-13" d="M33.39967,53.29846l-.317-.41383.67114-.38865.00072.00093a.45355.45355,0,0,1,.4871.028l.24807.14365Z"/>
          <path class="cls-14" d="M48.44788,60.766a1.80444,1.80444,0,0,1,.58807,1.18588l-1.37578.79433-.65916-1.145Z"/>
          <path class="cls-13" d="M47.6495,61.06426l-14.07833-8.151c-.39828-.2306-.72165.01325-.7223.54462L32.837,64.53407a1.72814,1.72814,0,0,0,.72,1.37966l14.07827,8.151c.39828.23055.72165-.0133.72231-.54467l.01187-11.07614A1.72807,1.72807,0,0,0,47.6495,61.06426Z"/>
        </g>
        <path class="cls-8" d="M48.65545,44.75005l.86826-8.38785-2.046,7.85861A11.73333,11.73333,0,0,0,48.65545,44.75005Z"/>
        <path d="M54.87872,28.14777l-1.43947-.39549A3.47421,3.47421,0,0,0,55.12974,29.109c1.00332.27565,1.1594-.57367,1.1594-.57367Z"/>
        <path class="cls-15" d="M62.56774,25.84349a.80177.80177,0,1,1-.80177-.80172A.80177.80177,0,0,1,62.56774,25.84349Z"/>
        <path class="cls-13" d="M35.082,7.41724a3.5571,3.5571,0,1,1,3.55709-3.5571A3.56121,3.56121,0,0,1,35.082,7.41724Zm0-6.0197a2.46261,2.46261,0,1,0,2.4626,2.4626A2.46532,2.46532,0,0,0,35.082,1.39754Z"/>
        <g>
          <g>
            <path class="cls-21" d="M141.80324,2.60717l-14.63258-8.448a.74906.74906,0,0,0-.75634-.06069l.001-.00946-1.41933.82s.62845.22914.9974.36447V5.92939A2.81963,2.81963,0,0,0,127.17066,8.179l13.986,8.07472V17.504l1.43388-.82579-.00771-.00274a1.04353,1.04353,0,0,0,.39773-.93852V4.85668A2.81956,2.81956,0,0,0,141.80324,2.60717Z"/>
            <path class="cls-20" d="M140.35791,17.46012,125.72533,9.012A2.81957,2.81957,0,0,1,124.548,6.76251V-4.11771c0-.867.52711-1.26545,1.17734-.89l14.63258,8.4481a2.81967,2.81967,0,0,1,1.17729,2.24951V16.57008C141.5352,17.437,141.00809,17.83553,140.35791,17.46012Z"/>
          </g>
          <g>
            <path class="cls-15" d="M130.64611,5.26268c0,.62961-.44207.88479-.98729.57a2.18217,2.18217,0,0,1-.98734-1.71c0-.62961.44207-.88479.98734-.57A2.1824,2.1824,0,0,1,130.64611,5.26268Z"/>
            <path class="cls-15" d="M133.637,6.98946c0,.6296-.44206.88478-.98727.57a2.18229,2.18229,0,0,1-.98735-1.71c0-.62961.44206-.88479.98735-.57A2.18224,2.18224,0,0,1,133.637,6.98946Z"/>
            <path class="cls-15" d="M136.62794,8.71629c0,.62961-.44206.88479-.98734.57a2.18243,2.18243,0,0,1-.98729-1.71c0-.62961.44208-.88479.98729-.57A2.1823,2.1823,0,0,1,136.62794,8.71629Z"/>
          </g>
        </g>
        <g>
          <path class="cls-13" d="M70.6545-14.01273,56.29943-22.30054a.73486.73486,0,0,0-.742-.05954l.001-.00925-1.39241.80451s.61647.22469.97848.35751V-10.7535a2.76609,2.76609,0,0,0,1.155,2.20688L70.02013-.625V.60157l1.40669-.81009-.00755-.00273a1.02366,1.02366,0,0,0,.39019-.92069V-11.80585A2.76613,2.76613,0,0,0,70.6545-14.01273Z"/>
          <path class="cls-6" d="M69.23653.5585,54.88146-7.72937a2.766,2.766,0,0,1-1.155-2.20682V-20.61c0-.85052.51709-1.24148,1.155-.87318l14.35507,8.28787a2.76614,2.76614,0,0,1,1.155,2.20682V-.31463C70.39149.53585,69.8744.9268,69.23653.5585Z"/>
        </g>
        <polygon class="cls-1" points="67.81 45.823 67.4 49.703 62.86 50.443 62.86 48.233 67.81 45.823"/>
        <path class="cls-18" d="M54.57166,63.21313l-.22557.4674a3.131,3.131,0,0,1-1.1768,1.30441l-1.39837.862a1.3922,1.3922,0,0,1-1.42749.03295l-.04767-.02873a.84132.84132,0,0,1-.11892-1.29249l1.46137-1.50235s-.821.62906-1.0511.37568c-.16865-.18568.79619-1.09159,1.53694-1.12125a2.92407,2.92407,0,0,0,1.45759-.6116Z"/>
        <polyline class="cls-22" points="48.58 44.913 48.57 44.913 44.58 42.073"/>
        <path class="cls-22" d="M62.69843,50.44271l4.70159-.74-4.54.74s-1.084-8.36185,5.47984-10.57484"/>
        <path class="cls-22" d="M47.173,33.91868S60.651,30.3376,51.51419,61.94361"/>
        <path class="cls-22" d="M69.94006,49.08284S58.91205,24.277,43.35,40.50276"/>
        <path class="cls-22" d="M50.72009,29.34273S52.84383,63.117,65.958,63.27013"/>
        <path class="cls-22" d="M46.74,58.53279S51.98839,34.97766,66.16183,34.39"/>
        <path class="cls-18" d="M67.4,49.70272l-.37,3.52a2.33067,2.33067,0,0,1-.95007,1.65l-11.51,8.34-.99-1.51,8.71008-7.95a1.71367,1.71367,0,0,0,.57-1.27v-2.04Z"/>
      </g>
    </g>
    <ellipse cx="56.13396" cy="25.65846" rx="0.14307" ry="0.41788"/>
    <ellipse cx="53.85136" cy="25.47121" rx="0.14307" ry="0.41788"/>
    <path class="cls-23" d="M54.4139,26.70882a.56582.56582,0,0,0,.93623.107"/>
    <ellipse class="cls-24" cx="56.17848" cy="26.70882" rx="0.30934" ry="0.15591"/>
    <ellipse class="cls-24" cx="53.70829" cy="26.61408" rx="0.30934" ry="0.15591"/>
  </g>
</svg>
