<svg xmlns="http://www.w3.org/2000/svg" xmlns:xlink="http://www.w3.org/1999/xlink" width="67.66981mm" height="40.40003mm" viewBox="0 0 191.81995 114.51978">
  <defs>
    <style>
      .cls-1, .cls-22 {
        fill: none;
      }

      .cls-2 {
        clip-path: url(#clip-path);
      }

      .cls-3 {
        fill: #ff8b8b;
      }

      .cls-4 {
        fill: #263238;
      }

      .cls-5 {
        fill: #ffc3bd;
      }

      .cls-6 {
        fill: #f4752e;
      }

      .cls-11, .cls-13, .cls-7 {
        fill: #fff;
      }

      .cls-11, .cls-19, .cls-20, .cls-8 {
        opacity: 0.2;
      }

      .cls-11, .cls-14, .cls-16, .cls-17, .cls-20, .cls-8 {
        isolation: isolate;
      }

      .cls-15, .cls-20, .cls-9 {
        fill: #407bff;
      }

      .cls-10 {
        fill: #efece0;
      }

      .cls-12 {
        fill: #446af3;
      }

      .cls-13, .cls-15, .cls-18 {
        fill-rule: evenodd;
      }

      .cls-14 {
        fill: #d9d9d9;
        opacity: 0.3;
      }

      .cls-16 {
        fill: #ed847e;
        opacity: 0.9;
      }

      .cls-17 {
        fill: #1c1515;
        opacity: 0.8;
      }

      .cls-18 {
        fill: #ff1616;
      }

      .cls-21 {
        fill: #f3cc44;
      }

      .cls-22 {
        stroke: #000;
        stroke-width: 0.67917px;
      }
    </style>
    <clipPath id="clip-path">
      <path class="cls-1" d="M169.67,58.84683c-15.28,16.15-36.74,17.32007-39.41,17.42993-20.06006.8-39.15986-9.39668-59.61894-16.20755C36.07656,48.56262,18.52,47.25686,0,46.73684v-36.87a9.86075,9.86075,0,0,1,9.86011-9.86H181.96a10.11737,10.11737,0,0,1,2.08008.22C188,19.85684,184.27,43.4169,169.67,58.84683Z"/>
    </clipPath>
  </defs>
  <title>cards</title>
  <g id="Layer_1" data-name="Layer 1">
    <g class="cls-2">
      <g>
        <path class="cls-3" d="M91.4424-39.09778C64.10425-59.49435,18.61639-52.80265-15.406-26.59045-43.80253,16.704-8.2503,6.89731-8.25036,25.35514c-.00006,11.626-4.33172,16.50656,0,41.52135S28.39223,73.468,46.2,89.82375c17.80839,16.35575,50.53637,8.17787,72.19524,6.735,21.65827-1.44347,17.32662,31.268,57.75559,12.98824s23.10235-70.71451,23.58351-90.43776c.48117-19.72289,0-27.94808-36.0973-42.81334C154.46325-27.48206,125.61446-13.602,91.4424-39.09778Z"/>
        <path class="cls-4" d="M138.67048,21.85516c-.66932-.89413-2.78121-1.67314-3.87061-.35589-1.45343,1.75839.30528,2.425-.38815,4.03362a3.13606,3.13606,0,0,0-.0669,3.10518c.37762.76-.22208.84829-.26759,2.1411-.0455,1.29314,1.27141,1.60624,2.32073,1.38415-.581-.60514.46829-.672,1.42661-1.51795S140.67812,23.61626,138.67048,21.85516Z"/>
        <path class="cls-4" d="M137.40178,93.67949a10.67249,10.67249,0,0,0-2.31292.50055,10.044,10.044,0,0,1-2.43314.5783c-.92062.12022-.88056.98481.73622.98481s2.65795-.16843,3.31641-.16843,1.07072.02139,1.12437-.42313C137.886,94.70741,137.96108,93.59662,137.40178,93.67949Z"/>
        <path class="cls-5" d="M133.71591,47.16627s.75762,16.65708.90194,23.40229c.15247,7.01858,1.2232,23.40534,1.2232,23.40534h1.76958s1.82257-13.61913.9848-23.40534c1.26632-7.51336,2.12005-23.40229,2.12005-23.40229Z"/>
        <path class="cls-5" d="M135.84105,93.81328c-.93149.471-1.9781.65065-2.38764.86187-.40954.21157,4.15722-.28084,4.15722-.70125Z"/>
        <path class="cls-4" d="M148.99732,92.75071c-.48732.32126-.71483.18474-1.14577.67986a3.98114,3.98114,0,0,1-1.66738,1.48025c-.64249.2007-.67747.84864.48426.82181a6.16883,6.16883,0,0,0,2.90415-1.18856c.38034-.27846.57016-.42041.38034-.82452C149.76275,93.31544,149.33452,92.53134,148.99732,92.75071Z"/>
        <path class="cls-5" d="M147.83559,93.54568c0,.198-.72536.94236-.26759.86187.8218-.147,1.85482-1.07071,1.69963-1.43747Z"/>
        <path class="cls-5" d="M136.06347,47.16627s4.21835,17.44389,5.94209,23.96736c1.812,6.84947,5.62119,21.9784,5.84327,22.4416l1.40793-.60515s-.9634-16.88187-3.38874-22.96625c0-7.618-3.169-22.83756-3.169-22.83756Z"/>
        <path class="cls-5" d="M134.45179,36.778c-.08014.78139-.20341,1.5149-.33449,2.26708s-.30257,1.48807-.48459,2.22973a20.25327,20.25327,0,0,1-1.58451,4.3844l-.016.03226a.97878.97878,0,0,1-.26759.32906,2.09,2.09,0,0,1-.8354.35861,2.45894,2.45894,0,0,1-.74674.02682,4.30776,4.30776,0,0,1-1.1563-.31038,9.49013,9.49013,0,0,1-1.78011-1.00925c-.53519-.38272-1.03846-.78682-1.523-1.20452a17.15994,17.15994,0,0,1-1.38381-1.3383.5622.5622,0,0,1,.7335-.84592h0c.4924.34264,1.0011.69344,1.51218,1.01469.51142.32125,1.02522.64216,1.54478.91519a8.92684,8.92684,0,0,0,1.539.67747,2.23015,2.23015,0,0,0,.653.12022.61513.61513,0,0,0,.17931-.0214c.02955,0,.02139-.02139,0-.016l-.29442.3586a17.56519,17.56519,0,0,0,.70668-1.94311c.20069-.67476.37219-1.36243.53552-2.05858.163-.69581.289-1.40521.41464-2.11189.126-.70668.23567-1.432.3294-2.11732v-.01868a1.13222,1.13222,0,0,1,2.24569.26759Z"/>
        <path class="cls-4" d="M133.32776,33.77466c-2.55641,1.07072-2.12786,4.72705-2.12786,4.72705a18.28534,18.28534,0,0,0,3.98,2.0073C136.38439,38.53906,136.23191,32.562,133.32776,33.77466Z"/>
        <path class="cls-5" d="M124.96034,42.99852l-2.23245.10425,1.37058-1.7852s1.40249.21393,1.71049,1.07071Z"/>
        <path class="cls-5" d="M121.213,42.027l1.22591-1.432,1.65684.72265-1.36786,1.7852Z"/>
        <path class="cls-6" d="M132.39627,36.31749c-.091,1.6059.06418,5.11248,1.19127,12.04515h9.3923a43.97654,43.97654,0,0,1,1.27684-12.20034,2.28323,2.28323,0,0,0-1.94311-2.74658c-.59971-.07471-1.23949-.13889-1.83649-.16844a28.7919,28.7919,0,0,0-4.07912,0c-.88054.08014-1.43475.16844-2.14143.28084C132.92365,33.737,132.46317,35.11841,132.39627,36.31749Z"/>
        <path class="cls-7" d="M136.398,33.24728h4.07946a48.84928,48.84928,0,0,1-4.12225,3.23355,2.76823,2.76823,0,0,1,.04279-3.23355Z"/>
        <path class="cls-5" d="M140.073,28.654c-.2676,1.31149-.5138,3.7178.4041,4.59325a9.69466,9.69466,0,0,1-3.999,2.50276c-1.306-.80313-.08014-2.50276-.08014-2.50276,1.46159-.35079,1.42389-1.43475,1.16954-2.45453Z"/>
        <path class="cls-8" d="M139.05048,29.52643,137.57022,30.79a4.64165,4.64165,0,0,1,.126.72536,1.817,1.817,0,0,0,1.38654-1.28228A1.93349,1.93349,0,0,0,139.05048,29.52643Z"/>
        <path class="cls-5" d="M141.45679,26.245c-.5138,2.14144-.68766,3.04881-1.97266,3.964-1.9353,1.376-5.378,1.79675-4.86866-1.08974-.12055-2.02088,1.033-6.05143,3.29739-6.536a2.99516,2.99516,0,0,1,3.54393,3.66176Z"/>
        <path class="cls-5" d="M141.75664,27.46276a1.63008,1.63008,0,0,1-.87.86459c-.522.20884-.84558-.24349-.75185-.76815.08558-.471.45742-1.15086,1.0062-1.13761a.7223.7223,0,0,1,.61566,1.04117Z"/>
        <path class="cls-4" d="M137.34541,21.609c-2.50547.86968.64793,3.05934,2.61244,3.346-1.33831,1.0225,0,2.27761-.74131,3.17989-.74132.902.80108,7.30553,3.23626,5.29824,3.21181,2.94422,1.58179-7.03285.87783-8.14364s-.03463-1.51252-.87783-3.23354C141.54543,20.20375,134.74893,18.81973,137.34541,21.609Z"/>
        <path class="cls-4" d="M137.69349,26.26911c-.02955.17659-.14738.30224-.2676.28084-.12055-.02139-.18473-.1793-.15281-.35589.03226-.17658.1501-.29985.26793-.26759C137.65851,25.95839,137.71216,26.09219,137.69349,26.26911Z"/>
        <path class="cls-4" d="M135.694,25.91832c-.02955.17421-.14738.29985-.26759.28118-.12056-.01868-.18474-.1793-.15282-.35589.03226-.17692.1501-.30257.26793-.26793C135.659,25.61065,135.72592,25.74173,135.694,25.91832Z"/>
        <path class="cls-4" d="M136.50765,29.23608a1.67813,1.67813,0,0,1-.29986-.02682.04278.04278,0,0,1-.019-.0068.04661.04661,0,0,1-.0146-.01358.04536.04536,0,0,1-.00849-.01834.04973.04973,0,0,1-.00069-.02.05359.05359,0,0,1,.06147-.04279,1.42138,1.42138,0,0,0,1.23134-.34264.04931.04931,0,0,1,.01631-.01155.05073.05073,0,0,1,.039-.0017.05113.05113,0,0,1,.017.01053.04941.04941,0,0,1,.01155.0163.04789.04789,0,0,1,.00475.01936.049.049,0,0,1-.00306.01969.0592.0592,0,0,1-.01052.017,1.45313,1.45313,0,0,1-1.02522.40139Z"/>
        <path class="cls-4" d="M133.5872,48.36264l.38578,23.41315,12.43838-2.23211c.48188-12.24346-1.6273-18.58728-3.43152-21.181Z"/>
        <path class="cls-8" d="M137.55154,62.42866l1.483-4.82858-1.285-3.65124Z"/>
        <path class="cls-5" d="M144.4978,35.27631c.26759.57017.49239,1.1186.7172,1.686.22481.56779.43909,1.12981.63434,1.70507a28.53985,28.53985,0,0,1,1.00926,3.54427c.056.3131.12836.61295.16605.9342l.06691.47372.04006.48969.01868.2462a2.1236,2.1236,0,0,1-.02411.42822,2.166,2.166,0,0,1-.26759.74437,3.32586,3.32586,0,0,1-.82723.9179,6.97661,6.97661,0,0,1-1.76382.95051,10.68657,10.68657,0,0,1-1.81746.5138.56488.56488,0,0,1-.36948-1.05476h.02683c.4924-.2676,1.00382-.53519,1.46939-.8432a6.52663,6.52663,0,0,0,1.22862-.95288,1.31894,1.31894,0,0,0,.308-.43875.15116.15116,0,0,0,0-.09644V44.5107l-.02683-.198a14.57763,14.57763,0,0,0-.31853-1.60591c-.28389-1.08667-.64521-2.1815-1.04389-3.2658-.399-1.084-.83776-2.17336-1.285-3.21182a1.13226,1.13226,0,0,1,2.06366-.92639Z"/>
        <path class="cls-4" d="M142.482,33.45341c2.71431.38,3.47974,3.9185,3.47974,3.9185a15.83173,15.83173,0,0,1-2.94422,3.04881C141.216,38.78527,139.40127,33.01433,142.482,33.45341Z"/>
        <path class="cls-5" d="M142.34277,46.76182l-2.38492.15825,1.56075,1.61915s1.373-.36913,1.58179-1.26327Z"/>
        <path class="cls-5" d="M139.18428,48.17518l.672.94779a.41228.41228,0,0,0,.53519.12021l1.46157-.81908-1.90032-1.50166-.72026.71755a.41446.41446,0,0,0-.04822.53519Z"/>
        <path class="cls-9" d="M120.68562,8.11324a3.9105,3.9105,0,0,0-3.84649-3.6109V4.23465a4.18365,4.18365,0,0,1,4.11409,3.86252Z"/>
        <path class="cls-9" d="M121.16987,11.03443l-.26759.01606.1056,1.75859.26761-.01606Z"/>
        <path class="cls-10" d="M119.78605,50.95674H49.335a3.24118,3.24118,0,0,1-3.17724-2.99516L43.59611,8.15874A2.77571,2.77571,0,0,1,46.3906,5.17153h70.44853A3.24108,3.24108,0,0,1,120.019,8.15874l2.56185,39.80284a2.77567,2.77567,0,0,1-2.79481,2.99516Z"/>
        <path class="cls-7" d="M118.753,49.43641H61.28645A2.67672,2.67672,0,0,1,58.674,46.98187L56.55141,13.986a2.28057,2.28057,0,0,1,2.2968-2.45456H116.3226a2.66089,2.66089,0,0,1,2.61245,2.45456l2.12275,32.99589a2.27746,2.27746,0,0,1-2.30477,2.45454Z"/>
        <path class="cls-7" d="M65.27761,9.09828H57.16709A1.02253,1.02253,0,0,1,56.166,8.15874a.87533.87533,0,0,1,.88065-.94222h8.0999a1.02035,1.02035,0,0,1,1.0011.94222h0a.873.873,0,0,1-.87.93954Z"/>
        <path class="cls-7" d="M76.06187,9.09828H70.68451a1.01725,1.01725,0,0,1-.99839-.93954.87412.87412,0,0,1,.23126-.6645.87289.87289,0,0,1,.64658-.27772h5.3777a1.01759,1.01759,0,0,1,.99838.94222h0a.87.87,0,0,1-.87817.93954Z"/>
        <path class="cls-7" d="M86.84375,9.09828H81.46911a1.02212,1.02212,0,0,1-1.0011-.93954h0a.87525.87525,0,0,1,.88055-.94222h5.375a1.02308,1.02308,0,0,1,1.0011.94222h0a.87564.87564,0,0,1-.88089.93954Z"/>
        <path class="cls-11" d="M47.18561,48.55314h-.01875a.60246.60246,0,0,1-.59156-.55964L44.011,8.13463a.51389.51389,0,0,1,.53535-.55675h.01607a.60223.60223,0,0,1,.59421.55675L47.72093,47.9935a.51926.51926,0,0,1-.53532.55964Z"/>
        <path class="cls-7" d="M114.3204,9.58008a1.53381,1.53381,0,0,1-1.5098-1.41332,1.33863,1.33863,0,0,1,1.33831-1.432A1.53378,1.53378,0,0,1,115.656,8.14805h0a1.32936,1.32936,0,0,1-1.3356,1.432Zm-.16877-2.59641a1.07087,1.07087,0,0,0-1.09211,1.16438,1.28235,1.28235,0,0,0,1.26088,1.18308,1.07055,1.07055,0,0,0,1.0894-1.16437,1.27681,1.27681,0,0,0-1.25817-1.18309Z"/>
        <path class="cls-7" d="M110.52484,9.58008a1.53378,1.53378,0,0,1-1.50708-1.41332,1.33823,1.33823,0,0,1,1.33831-1.432,1.53378,1.53378,0,0,1,1.50708,1.41333h0a1.33823,1.33823,0,0,1-1.33831,1.432Zm-.166-2.59641a1.0709,1.0709,0,0,0-1.09212,1.16438,1.28228,1.28228,0,0,0,1.25817,1.18308A1.07087,1.07087,0,0,0,111.617,8.16676h0a1.28226,1.28226,0,0,0-1.25816-1.18309Z"/>
        <path class="cls-11" d="M53.0931,7.46547a.82976.82976,0,0,1,.803.75749l2.58836,40.23917a.66924.66924,0,0,1-.6772.72536h-4.984a.82973.82973,0,0,1-.803-.75762l-2.591-40.239a.66918.66918,0,0,1,.67721-.7254Zm0-.24895H48.10637a.92084.92084,0,0,0-.92616.99041l2.5884,40.23924a1.07048,1.07048,0,0,0,1.05462.99024H55.81a.91825.91825,0,0,0,.92616-.99024L54.14772,8.20693a1.07066,1.07066,0,0,0-1.05462-.99041Z"/>
        <path class="cls-12" d="M71.4822,30.48271H61.90755a1.28982,1.28982,0,0,1-1.266-1.18584L59.8758,17.39343A1.10818,1.10818,0,0,1,60.98931,16.205h9.5614a1.29276,1.29276,0,0,1,1.266,1.18848l.76543,11.90344a1.103,1.103,0,0,1-1.09992,1.18584Z"/>
        <path class="cls-13" d="M67.18337,21.19433h.7386l-.072-1.12675c-.11512,0-.23839-.02955-.35894-.035-.22481,0-.4469-.02139-.669-.016a1.54314,1.54314,0,0,0-.92368.2917,1.29724,1.29724,0,0,0-.50564.93964,3.59957,3.59957,0,0,0,0,.48425c0,.26794.03192.506.04822.76034v.09372H64.37023l.08286,1.26055h1.07072l.2007,3.1079h1.31691l-.20613-3.10518H67.906c.02954-.41736.05638-.83233.08558-1.26327H66.747s-.03735-.62654-.04822-.89685C66.67467,21.32031,66.88623,21.20791,67.18337,21.19433Z"/>
        <path class="cls-14" d="M86.22027,30.48271H76.64562a1.29047,1.29047,0,0,1-1.26632-1.18584l-.76543-11.90344A1.10818,1.10818,0,0,1,75.72738,16.205h9.57193a1.29344,1.29344,0,0,1,1.26632,1.18848l.76543,11.90344a1.1002,1.1002,0,0,1-1.11079,1.18584Z"/>
        <path class="cls-15" d="M79.89513,24.559a1.3161,1.3161,0,0,1-1.18041-.83776,1.17069,1.17069,0,0,0,.51923-.016h.016a1.30683,1.30683,0,0,1-.8218-.5542,1.25564,1.25564,0,0,1-.21665-.6425,1.24167,1.24167,0,0,0,.53518.14738,1.31785,1.31785,0,0,1-.53518-.73351,1.16475,1.16475,0,0,1,.07233-.87546,3.71843,3.71843,0,0,0,2.57508,1.26361.71279.71279,0,0,0-.02954-.1338,1.13089,1.13089,0,0,1,.12565-.78954,1.07059,1.07059,0,0,1,.78444-.53553,1.23953,1.23953,0,0,1,1.07072.33721.06478.06478,0,0,0,.03056.01936.06319.06319,0,0,0,.03634-.00068,2.22951,2.22951,0,0,0,.68528-.26759h.016a1.137,1.137,0,0,1-.44689.62925,2.22621,2.22621,0,0,0,.66083-.182c-.04278.06147-.08286.12293-.12564.182a2.18127,2.18127,0,0,1-.41226.41735.03478.03478,0,0,0-.01562.01562.03542.03542,0,0,0-.00306.02208,3.27285,3.27285,0,0,1,0,.53518,3.3285,3.3285,0,0,1-.24076,1.07072,3.16317,3.16317,0,0,1-.59157.95288,2.99066,2.99066,0,0,1-1.60624.92606,3.69664,3.69664,0,0,1-.669.08048,3.60379,3.60379,0,0,1-1.96485-.51923l-.03226-.019a2.38369,2.38369,0,0,0,1.19942-.16572,2.23245,2.23245,0,0,0,.56474-.32668Z"/>
        <path class="cls-16" d="M100.95834,30.48271H91.38369a1.29047,1.29047,0,0,1-1.26632-1.18584l-.76543-11.90344A1.10818,1.10818,0,0,1,90.46545,16.205h9.57193a1.29,1.29,0,0,1,1.266,1.18848l.76577,11.90344a1.10057,1.10057,0,0,1-1.11079,1.18584Z"/>
        <path class="cls-7" d="M98.715,21.63341a1.81559,1.81559,0,0,0-.58069-1.07071,1.8741,1.8741,0,0,0-1.19128-.471,22.74773,22.74773,0,0,0-3.129.03463A1.46918,1.46918,0,0,0,92.524,21.355a17.58387,17.58387,0,0,0,.19527,3.55479A1.7442,1.7442,0,0,0,94.079,26.28a18.6768,18.6768,0,0,0,3.50657.02139,1.4725,1.4725,0,0,0,1.30368-1.266A19.83269,19.83269,0,0,0,98.715,21.63341Zm-.38,3.16122a.99031.99031,0,0,1-.94507.95831,19.03171,19.03171,0,0,1-3.26818-.0455,1.13566,1.13566,0,0,1-.84591-.89685,21.46164,21.46164,0,0,1-.20613-3.19348.98825.98825,0,0,1,.94235-.95288,22.43508,22.43508,0,0,1,3.11843,0,1.16169,1.16169,0,0,1,1.01706,1.00925A22.51346,22.51346,0,0,1,98.335,24.79463Zm-2.73571-3.21216A1.50422,1.50422,0,0,0,94.079,23.20468a1.75634,1.75634,0,0,0,1.72646,1.62458,1.50414,1.50414,0,0,0,1.52033-1.62186,1.7559,1.7559,0,0,0-1.72646-1.62221ZM95.76,24.2591A1.13191,1.13191,0,0,1,94.65187,23.202a.971.971,0,0,1,.99024-1.04117,1.13471,1.13471,0,0,1,1.10841,1.07038A.97158.97158,0,0,1,95.76,24.25638Zm1.90066-2.733a.3538.3538,0,0,1-.35622.38034.41283.41283,0,0,1-.40411-.38034.352.352,0,0,1,.019-.144.35939.35939,0,0,1,.07538-.12429.35541.35541,0,0,1,.26148-.11172.41037.41037,0,0,1,.40445.37762Z"/>
        <path class="cls-17" d="M115.69607,30.48271h-9.57431a1.28522,1.28522,0,0,1-1.26361-1.18584L104.09,17.39343a1.10818,1.10818,0,0,1,1.11351-1.18848h9.57193a1.29034,1.29034,0,0,1,1.27956,1.18848l.76543,11.90344a1.10031,1.10031,0,0,1-1.12437,1.18584Z"/>
        <path class="cls-18" d="M108.08627,25.66431a.86383.86383,0,0,1-.55421-.50565c-.26759-.6211-.50055-3.21215-.09882-3.73409a.78205.78205,0,0,1,.53519-.30258,31.65544,31.65544,0,0,1,5.21979.04279.87984.87984,0,0,1,.53519.49274,8.18651,8.18651,0,0,1,.198,3.6.72437.72437,0,0,1-.34264.37219A24.07015,24.07015,0,0,1,108.08627,25.66431Zm1.78521-1.21776,2.04261-1.09483-2.18422-1.10264C109.77809,22.98225,109.8236,23.71032,109.87148,24.44655Z"/>
        <path class="cls-3" d="M100.41466,33.84461a1.83878,1.83878,0,0,1,1.80694,1.69692l.63435,9.85312a1.54787,1.54787,0,0,1-1.55768,1.665H63.73045a1.83692,1.83692,0,0,1-1.80422-1.69726l-.63435-9.85277a1.54137,1.54137,0,0,1,1.558-1.665Zm0-.24891H62.8499A1.79367,1.79367,0,0,0,61.043,35.52557l.63435,9.85277a2.09288,2.09288,0,0,0,2.05314,1.93022h37.56782a1.79345,1.79345,0,0,0,1.80388-1.93022l-.63163-9.85277a2.09545,2.09545,0,0,0-2.05586-1.92987Z"/>
        <g class="cls-19">
          <path class="cls-20" d="M67.93793,33.7132l-.21394.01392.86629,13.46529.2136-.01358Z"/>
          <path class="cls-20" d="M74.84,33.71184l-.21359.01392.86594,13.4653.21394-.01358Z"/>
          <path class="cls-20" d="M81.74791,33.71285l-.2136.01393.86595,13.4653.2136-.01359Z"/>
          <path class="cls-20" d="M88.65035,33.71422l-.2136.01358.86595,13.46564.2136-.01359Z"/>
          <path class="cls-20" d="M95.55551,33.71252l-.21393.01392.86628,13.4653.2136-.01359Z"/>
        </g>
        <path class="cls-3" d="M64.66194,44.39864a2.44416,2.44416,0,0,1-1.51252-.64488c-.20342-.17387-.396-.3586-.58613-.53553a7.2942,7.2942,0,0,0-.97971-.835l.13923-.20885a8.13638,8.13638,0,0,1,1.01469.86187c.18439.17965.37456.36166.57254.53553a1.86652,1.86652,0,0,0,1.76959.50836,1.6708,1.6708,0,0,0,.82689-1.3142c.03226-.18983.05638-.38543.07505-.57526a4.58894,4.58894,0,0,1,.24077-1.18584A2.01335,2.01335,0,0,1,67.577,39.768a1.87315,1.87315,0,0,1,1.82019.55149,3.852,3.852,0,0,1,.62076,1.14577c.233.58069.45233,1.12674.97971,1.28737a.827.827,0,0,0,.688-.09373,1.97584,1.97584,0,0,0,.80313-1.27956,9.99315,9.99315,0,0,0,.147-1.52576A8.262,8.262,0,0,1,72.87689,37.94a2.753,2.753,0,0,1,1.33831-1.66228,1.67825,1.67825,0,0,1,1.36785-.091,2.50535,2.50535,0,0,1,1.33831,1.48535,8.80921,8.80921,0,0,1,.33178,1.07072c.06962.26759.14195.53553.23567.80312a5.65786,5.65786,0,0,0,1.5149,2.29662,1.72984,1.72984,0,0,0,.60243.396c.75218.24111,1.39706-.53518,1.71831-1.033.37728-.581.95559-1.4643,1.85244-1.3974a2.13471,2.13471,0,0,1,1.44528.98786c.09645.13108.18474.26759.2676.40411a4.10138,4.10138,0,0,0,.74437.92367,1.09184,1.09184,0,0,0,1.35428.17387,1.36258,1.36258,0,0,0,.33177-.779l.07234-.38815a5.26607,5.26607,0,0,1,.95559-2.61244,1.06347,1.06347,0,0,1,1.33832-.34808,1.29729,1.29729,0,0,1,.42821.59156c.07234.16063.142.31854.21156.47916a8.61488,8.61488,0,0,0,1.00926,1.87384,2.58469,2.58469,0,0,0,2.17335,1.12166,3.61518,3.61518,0,0,0,.8432-.25164,2.23032,2.23032,0,0,1,1.41608-.2248,2.54441,2.54441,0,0,1,1.07071.7386c.10969.107.22209.21428.33721.3131a1.45578,1.45578,0,0,0,.97428.38034.50918.50918,0,0,0,.1956-.051.49938.49938,0,0,0,.16029-.12326,1.16175,1.16175,0,0,0,.16877-.7145,5.39983,5.39983,0,0,1,.8887-3.17479,2.279,2.279,0,0,1,3.03013-.58069l-.14195.20612a2.02208,2.02208,0,0,0-2.69292.53519,5.138,5.138,0,0,0-.835,3.02742,1.38615,1.38615,0,0,1-.22753.8673.74164.74164,0,0,1-.53519.2676,1.69111,1.69111,0,0,1-1.15391-.43637c-.12022-.10154-.23534-.21394-.35046-.32635a2.3831,2.3831,0,0,0-.96646-.67747,2.063,2.063,0,0,0-1.266.217,3.72052,3.72052,0,0,1-.90194.26759,2.874,2.874,0,0,1-2.409-1.215,8.678,8.678,0,0,1-1.04151-1.9353l-.20851-.47373a1.11477,1.11477,0,0,0-.33993-.49c-.34536-.23023-.80312.05638-1.00653.30529a5.15346,5.15346,0,0,0-.89957,2.49189c-.02411.13108-.0455.2676-.07233.39087a1.58762,1.58762,0,0,1-.40683.92062A1.3423,1.3423,0,0,1,85.4545,42.319a4.47634,4.47634,0,0,1-.80278-.977c-.0883-.13379-.17421-.26759-.2676-.39358a1.89029,1.89029,0,0,0-1.2636-.886c-.69581-.0455-1.18312.60752-1.62458,1.285-.61839.94744-1.33865,1.33831-2.00221,1.13218a1.9639,1.9639,0,0,1-.69615-.4469,5.93472,5.93472,0,0,1-1.58179-2.409c-.09645-.26793-.16878-.5542-.24111-.82451a8.478,8.478,0,0,0-.32091-1.03065,2.32657,2.32657,0,0,0-1.20723-1.33831,1.43827,1.43827,0,0,0-1.16988.08014,2.54433,2.54433,0,0,0-1.2018,1.50981,8.09383,8.09383,0,0,0-.23023,1.85482,10.31049,10.31049,0,0,1-.15248,1.56618,2.23523,2.23523,0,0,1-.88327,1.43441,1.08649,1.08649,0,0,1-.8887.11784c-.63978-.19255-.89413-.82418-1.14033-1.432a3.72688,3.72688,0,0,0-.57288-1.07072,1.6224,1.6224,0,0,0-1.574-.47372,1.772,1.772,0,0,0-1.18583,1.08667,4.30164,4.30164,0,0,0-.22209,1.12166c-.0214.19289-.04551.3963-.07743.59156a1.86359,1.86359,0,0,1-.977,1.50165A1.318,1.318,0,0,1,64.66194,44.39864Z"/>
        <path class="cls-21" d="M115.48214,45.82014h-7.17378a1.9302,1.9302,0,0,1-1.89252-1.77739l-.46014-7.17343a1.65175,1.65175,0,0,1,1.66228-1.7774h7.17343a1.9302,1.9302,0,0,1,1.89252,1.7774l.46048,7.17343a1.65172,1.65172,0,0,1-1.66227,1.77739Z"/>
        <path class="cls-7" d="M111.83632,38.20763l.58613,1.05441a.26743.26743,0,0,0,.1956.13414l1.18584.17115a.26923.26923,0,0,1,.13109.05943.26579.26579,0,0,1,.0815.1192.26959.26959,0,0,1,.00781.144.2651.2651,0,0,1-.06792.127l-.76543.80312a.26723.26723,0,0,0-.06962.24892l.2676,1.10264a.267.267,0,0,1-.00781.15043.27034.27034,0,0,1-.08761.12225.26719.26719,0,0,1-.2873.02717l-1.03879-.53519a.2661.2661,0,0,0-.24892,0l-.99567.53519a.26784.26784,0,0,1-.39358-.26759l.12327-1.16445a.268.268,0,0,0-.08286-.2248l-.8836-.80279a.27055.27055,0,0,1-.07777-.128.26439.26439,0,0,1,.00272-.14976.268.268,0,0,1,.21971-.18541l1.09211-.16063a.27093.27093,0,0,0,.12361-.05229.26508.26508,0,0,0,.08252-.10562l.43094-1.00653a.27015.27015,0,0,1,.09508-.10969.26744.26744,0,0,1,.38135.09373Z"/>
        <line class="cls-22" x1="105.59336" y1="32.04786" x2="125.93631" y2="44.09335"/>
        <path class="cls-7" d="M109.31625,24.582V21.86535l3.05628,1.48977Z"/>
      </g>
    </g>
  </g>
</svg>
