<svg xmlns="http://www.w3.org/2000/svg" xmlns:xlink="http://www.w3.org/1999/xlink" width="67.66981mm" height="40.40003mm" viewBox="0 0 191.81995 114.51978">
  <defs>
    <style>
      .cls-1, .cls-24, .cls-27, .cls-29, .cls-5 {
        fill: none;
      }

      .cls-2 {
        clip-path: url(#clip-path);
      }

      .cls-3 {
        fill: #f7c4be;
      }

      .cls-4 {
        fill: #e2c4ff;
      }

      .cls-24, .cls-5 {
        stroke: #fff;
      }

      .cls-22, .cls-24, .cls-27, .cls-29, .cls-5 {
        stroke-miterlimit: 10;
      }

      .cls-5 {
        stroke-width: 0.71164px;
      }

      .cls-6 {
        clip-path: url(#clip-path-2);
      }

      .cls-7 {
        fill: #e2c0c0;
      }

      .cls-8 {
        fill: #171228;
      }

      .cls-9 {
        fill: #072743;
      }

      .cls-10 {
        fill: #5a5a90;
      }

      .cls-11 {
        fill: #574a84;
      }

      .cls-12 {
        clip-path: url(#clip-path-3);
      }

      .cls-13 {
        fill: #f8eee4;
      }

      .cls-14 {
        fill: #fafbef;
      }

      .cls-15 {
        fill: #2bc1de;
      }

      .cls-16 {
        fill: #1c97ac;
      }

      .cls-17 {
        fill: #f79647;
      }

      .cls-18 {
        fill: #125661;
      }

      .cls-19 {
        fill: #2f5a61;
      }

      .cls-20 {
        opacity: 0.1;
      }

      .cls-21 {
        fill: #233862;
      }

      .cls-22 {
        fill: #5e79da;
        stroke-width: 0.19665px;
      }

      .cls-22, .cls-27, .cls-29 {
        stroke: #000;
      }

      .cls-23 {
        fill: #de6d61;
      }

      .cls-24 {
        stroke-width: 0.98324px;
      }

      .cls-25 {
        fill: #535263;
      }

      .cls-26 {
        fill: #fff;
      }

      .cls-27 {
        stroke-width: 0.13596px;
      }

      .cls-28 {
        fill: #f49092;
      }

      .cls-29 {
        stroke-width: 0.3933px;
      }
    </style>
    <clipPath id="clip-path">
      <path class="cls-1" d="M147.86486,170.14793c-8.09,5.3-17.45-1.51-28.42,5.69-10.08,6.61-6.9,15.46-14.78,22.73-12.9,11.91-31.5-2.45-69.35-2.27-16.71.08-27.27,2.95-35.31,4.8v-60.88a9.85428,9.85428,0,0,1,9.86-9.86h146.74C160.00487,146.19792,156.84484,164.25792,147.86486,170.14793Z"/>
    </clipPath>
    <clipPath id="clip-path-2">
      <path class="cls-1" d="M144.96008-54.27526c-18.49,3.78-27.03-15.6-60.25988-17.05-21.01026-.92-26.11011,6.46-47.74024,6.82A102.58009,102.58009,0,0,1,0-70.94524v-54.1a9.86083,9.86083,0,0,1,9.86011-9.86h172.09a9.58164,9.58164,0,0,1,2.59.35C194.25-105.41527,170.7301-59.53527,144.96008-54.27526Z"/>
    </clipPath>
    <clipPath id="clip-path-3">
      <path class="cls-1" d="M165.41,26.96c-2.89,8.59-14.33,10.31-34.86,18.19C99.01,57.27,99.61,63.35,80.53,69.91,74.64,71.94,33.27,85.51,0,69.04V9.86A9.86064,9.86064,0,0,1,9.86,0H153.84C160.61,7.35,168.38,18.16,165.41,26.96Z"/>
    </clipPath>
  </defs>
  <title>cards</title>
  <g id="Layer_1" data-name="Layer 1">
    <g class="cls-2">
      <g>
        <rect class="cls-3" x="-35.17042" y="101.91387" width="229.50936" height="122.58266" rx="61.29127" transform="translate(159.16851 326.41041) rotate(-180)"/>
        <g>
          <path class="cls-4" d="M87.527,118.21829a11.14293,11.14293,0,1,0,11.14275-11.14342A11.14275,11.14275,0,0,0,87.527,118.21829Z"/>
          <path class="cls-4" d="M129.27372,123.9025a11.14325,11.14325,0,1,0,11.14339-11.14342A11.1433,11.1433,0,0,0,129.27372,123.9025Z"/>
        </g>
        <path class="cls-5" d="M91.41786,114.56514c-1.42831-2.67374-3.11479-4.93981-4.75543-4.75544-2.22368.24989-2.84793,4.831-4.83452,4.83451-2.05017.00359-2.819-4.873-4.873-4.873-2.05453,0-2.82637,4.879-4.87317,4.87317-2.04039-.00578-2.823-4.85866-4.834-4.834-1.92058.02351-2.5674,4.46535-4.488,4.488-2.00147.02359-2.76023-4.78185-4.80181-4.80182-2.128-.02081-3.15465,5.18214-5.06123,5.06124-1.04972-.06658-1.80461-1.71142-2.272-3.058"/>
      </g>
    </g>
    <g class="cls-6">
      <g>
        <ellipse class="cls-7" cx="90.62155" cy="-60.65668" rx="148.65699" ry="102.85581"/>
        <g>
          <g>
            <path class="cls-8" d="M120.58228-3.58521a7.73465,7.73465,0,0,1-2.24509,1.978c-1.11483.49467-4.86407.89507-5.90219,1.06859-.69185.11577-.7718.99546-.7718.99546l8.768,2.5136s2.16477-1.8938,2.48042-1.43856a4.15461,4.15461,0,0,1,.15773,1.87013l2.9586.8381a48.52576,48.52576,0,0,0,.78737-6.10364Z"/>
            <path class="cls-8" d="M141.99719,1.46849a7.736,7.736,0,0,1-2.2449,1.97838c-1.115.4947-4.86426.89473-5.90237,1.06895-.69186.11581-.77177.99476-.77177.99476l8.768,2.51393s2.16481-1.8938,2.48042-1.43819a4.153,4.153,0,0,1,.15773,1.8698l2.95864.83809a48.56342,48.56342,0,0,0,.78737-6.10363Z"/>
            <polygon class="cls-9" points="126.416 -42.58 138.013 2.108 150.607 3.828 138.082 -43.003 126.416 -42.58"/>
          </g>
          <g>
            <path class="cls-10" d="M194.12807,19.07037H-47.70254s19.3756-56.65133,33.0399-56.92843C-4.6506-38.06024,194.12807,19.07037,194.12807,19.07037Z"/>
            <path class="cls-11" d="M99.51755,19.07037H-47.70254s19.3756-56.65133,33.0399-56.92843c0,0,1.1903,6.27964,0,8.32651-1.193,2.04723-9.97548,23.03234-6.03859,22.63587C-16.76435-7.29142,1.10336-28.787,5.343-24.37639,9.58276-19.9615,2.0119,4.28963,8.67441,1.86673,15.33673-.56046,52.39236-10.51835,55.9722-1.776,59.5517,6.96272,53.51292,9.734,58.04667,10.922,60.19657,11.48446,79.6602,15.2613,99.51755,19.07037Z"/>
          </g>
        </g>
      </g>
    </g>
    <g class="cls-12">
      <g>
        <path class="cls-13" d="M41.88694-14.34808H133.6151A84.68329,84.68329,0,0,1,218.29839,70.3352v.00017a84.68331,84.68331,0,0,1-84.68331,84.68331H41.88694A84.68329,84.68329,0,0,1-42.79635,70.3354v-.00019A84.68329,84.68329,0,0,1,41.88694-14.34808Z"/>
        <g id="man">
          <path class="cls-14" d="M120.47566,53.92766c-.92583,2.48916-2.5304,5.37816-4.2143,6.09644a6.52236,6.52236,0,0,0-2.70548,1.9651l-1.54172-.895-1.84122-1.07014s.04348-.20437.13361-.5376c.08855-.33154.22692-.79339.41363-1.30518a1.782,1.782,0,0,0,.21888-1.63841,3.80374,3.80374,0,0,1,.31375-3.17845c.59072-.85793,1.16049-2.97259,1.51614-2.90987.861.148-.42327,3.05459-.05471,3.59366a.63584.63584,0,0,0,.82715.28331l.01449-.00806c2.41574-1.06208,5.34536-6.78785,6.64262-6.0153C120.68291,48.59784,120.87,52.86727,120.47566,53.92766Z"/>
          <g>
            <path class="cls-15" d="M111.04,50.22936h13.48168a.475.475,0,0,1,.475.475V54.403a.475.475,0,0,1-.475.475H111.04a.475.475,0,0,1-.475-.475V50.70441a.475.475,0,0,1,.475-.475Z" transform="translate(7.05941 118.69733) rotate(-54.89995)"/>
            <path class="cls-16" d="M113.0709,52.61511h13.70871a.36143.36143,0,0,1,.36143.36143V55.1448a.36152.36152,0,0,1-.36152.36152H113.07083a.36152.36152,0,0,1-.36152-.36152V52.97669A.36158.36158,0,0,1,113.0709,52.61511Z" transform="translate(6.73975 121.09554) rotate(-54.90166)"/>
          </g>
          <g>
            <path class="cls-17" d="M69.77307,130.71859c3.3558.81847,6.74314,1.59652,10.04579,2.61471,1.01267-12.861,1.79883-22.67047,1.79883-22.67047l-29.47683-1.82332s.42133,7.7971,1.02587,18.43974C58.75878,128.10848,64.29293,129.38209,69.77307,130.71859Z"/>
            <path class="cls-18" d="M69.77307,130.71859c3.3558.81847,6.74314,1.59652,10.04579,2.61471,1.01267-12.861,1.79883-22.67047,1.79883-22.67047l-29.47683-1.82332s.42133,7.7971,1.02587,18.43974C58.75878,128.10848,64.29293,129.38209,69.77307,130.71859Z"/>
            <path class="cls-19" d="M44.18811,126.39078c8.48307.36478,16.8292,2.20087,25.05469,4.19924C73.72837,119.926,76.8,112.22584,76.8,112.22584l-30.34692-8.59608s-1.43267,12.37312-1.69322,18.62487a28.5383,28.5383,0,0,1-.573,4.13606Z"/>
          </g>
          <path class="cls-14" d="M71.24055,42.77533c-6.84009,2.15851-18.67582-3.6667-18.67582-3.6667s6.30674-4.7334,5.97644-14.575L63.83,28.7959l3.59271,2.89487a43.0575,43.0575,0,0,1-.40744,4.69777c-.10371.78672-.23264,1.66372-.39555,2.62221A16.36948,16.36948,0,0,1,71.24055,42.77533Z"/>
          <path class="cls-20" d="M67.42272,31.69077a43.0575,43.0575,0,0,1-.40744,4.69777c-3.98077-.68292-8.49641-7.117-8.49641-7.117A12.68177,12.68177,0,0,1,63.83,28.7959Z"/>
          <path class="cls-14" d="M69.51461,31.52865S58.216,33.40573,57.15546,26.3516s-3.23318-11.5627,3.93577-13.0594,8.97843.98382,9.90519,3.25226S72.42623,30.85858,69.51461,31.52865Z"/>
          <g>
            <path class="cls-21" d="M21.856,107.82046H33.81808a6.5316,6.5316,0,0,1,6.5316,6.5316V141.955a6.53178,6.53178,0,0,1-6.53178,6.53178h-11.962a6.53168,6.53168,0,0,1-6.53168-6.53168V114.35224a6.53178,6.53178,0,0,1,6.53178-6.53178Z" transform="translate(-102.96212 137.63245) rotate(-81.88975)"/>
            <path class="cls-19" d="M44.80884,121.24352V121.242a6.57992,6.57992,0,0,0-4.5272-3.95427H40.28l-.00486-.00169c-.206-.04994-.41521-.09182-.6309-.1223l-5.44133-.77413.36369-2.5558a2.16461,2.16461,0,0,0-1.83633-2.44619l-1.41944-.20289-5.7134-.81434-1.03-.14642a2.16564,2.16564,0,0,0-2.4463,1.83646l-.36369,2.55557L12.365,113.277a6.577,6.577,0,0,0-7.41613,5.5654l-1.706,11.98026a6.57458,6.57458,0,0,0,5.5653,7.41455l27.27775,3.88826a6.40983,6.40983,0,0,0,1.42261.04506h.00488a6.44844,6.44844,0,0,0,2.12925-.53738,6.56917,6.56917,0,0,0,3.8594-5.07456l1.70748-11.97878A6.49916,6.49916,0,0,0,44.80884,121.24352Zm-21.3455-8.99159a.80938.80938,0,0,1,.67122-.68234.81937.81937,0,0,1,.243-.00338l1.21345.17222,4.49665.64213,2.45118.3493a.80841.80841,0,0,1,.68559.91251l-.3638,2.55579-9.761-1.39215Z"/>
          </g>
          <path class="cls-14" d="M33.18868,103.33227a9.48924,9.48924,0,0,0-1.49211,2.67553c-.3857,5.177,1.97979,5.89312-4.14481,8.76882,0,0-2.61471.99713-2.65914-1.03228s1.81455-2.063,1.47456-4.90486c-.39205-3.2781-.3526-3.30835,1.79889-5.0204l1.42462-2.35457Z"/>
          <path class="cls-22" d="M114.44721,61.98943s-12.438,25.3402-24.68531,26.41582c-2.29881.20058-4.77069-.74329-7.27206-2.40895.0472,1.75409.08258,3.48859.09833,5.18565v.14748c.03538.409.03538.85736.03538,1.26641.14945,10.60529,0,19.01394-.18681,19.16344a1.2,1.2,0,0,1-.78069.2969c-2.79043-.03736-10.92777,1.51221-17.81244.80627a51.309,51.309,0,0,1-16.45948-4.75106c-.73152-.32838-2.41879-1.227-2.37947-2.047.02363-.89673.11211-2.19655.22421-3.83465a209.49877,209.49877,0,0,0,.4995-25.0727,50.63478,50.63478,0,0,0-3.64981,4.81588c-.881,1.93115-7.73027,23.09248-7.73027,23.09248a20.9747,20.9747,0,0,1-4.81-.26742,8.84149,8.84149,0,0,1-3.172-1.34908S27.59344,85.141,31.12524,76.9761c1.36276-3.14839,10.40269-18.56764,16.78393-29.342,1.51226-5.43732,3.72062-9.618,6.62119-11.78509.5211-.37361,3.72058,1.18969,6.66046,2.64093a12.17842,12.17842,0,0,0,7.99965.96951l2.56628,2.26741a25.64844,25.64844,0,0,1,8.039,12.8391,61.18127,61.18127,0,0,1,1.20543,7.18949c3.38431,5.19553,6.67424,9.82657,8.68989,11.61014L110.174,58.0939A7.48037,7.48037,0,0,1,114.44721,61.98943Z"/>
          <path class="cls-23" d="M57.1462,25.67267s1.1594-.19389.97243-1.7908-.18471-3.68443,1.11373-3.2954,1.36312,1.42863,1.89666.82158.54317-3.16483,4.40659-3.34292,5.43355,1.1667,7.23019.37685,1.89148-3.50925,1.89148-3.50925a3.09185,3.09185,0,0,1-1.28286,1.27986s2.99742-4.09965-.47288-6.91088-7.00857-.97078-9.01719-.84915c-4.42471.26778-7.283.53334-8.72836,3.44089S54.30693,22.874,57.1462,25.67267Z"/>
          <path class="cls-14" d="M30.92486,105.609s1.382,1.44062,1.46915,2.03978c.28,1.92383.92245,2.75488.60044,2.96412-.66921.435-1.55515-.98931-1.97818-2.26741A5.8421,5.8421,0,0,1,30.92486,105.609Z"/>
        </g>
        <circle class="cls-24" cx="9.508" cy="32.54084" r="14.36334"/>
        <circle class="cls-24" cx="9.508" cy="33.13475" r="5.9291"/>
        <path class="cls-24" d="M122.18981,99.25566c1.97343-3.69418,4.30356-6.82511,6.57036-6.57037,3.07235.34526,3.93485,6.67482,6.67963,6.67962,2.83262.005,3.89488-6.73281,6.73282-6.73282,2.83863,0,3.90506,6.74105,6.733,6.733,2.81912-.008,3.90045-6.713,6.679-6.679,2.65358.03249,3.54726,6.16958,6.20085,6.20086,2.76535.0326,3.81369-6.60687,6.63445-6.63445,2.94021-.02875,4.35863,7.15992,6.99286,6.99287,1.45036-.092,2.49335-2.36458,3.13909-4.22507"/>
        <path class="cls-25" d="M85.23147,5.80577h39.76976a3.83788,3.83788,0,0,1,3.66723,3.50545V23.19277a3.56451,3.56451,0,0,1-3.66723,3.79783H101.56056L95.175,36.24826V26.9906H85.23147c-2.02535,0-3.66723-1.28735-3.66723-2.87536V10.01916C81.56424,7.34814,83.20612,5.80577,85.23147,5.80577Z"/>
        <g>
          <path class="cls-26" d="M88.176,18.524V13.65078h1.67009a2.93311,2.93311,0,0,1,.70956.07867,1.49674,1.49674,0,0,1,.5322.23928,1.04947,1.04947,0,0,1,.333.41,1.39517,1.39517,0,0,1,.11551.59076,1.0523,1.0523,0,0,1-.18077.60246,1.16333,1.16333,0,0,1-.5288.415,1.16235,1.16235,0,0,1,.36646.16566,1.02423,1.02423,0,0,1,.25773.256,1.08332,1.08332,0,0,1,.15226.32469,1.34371,1.34371,0,0,1,.05023.36816,1.53856,1.53856,0,0,1-.11549.61749,1.16369,1.16369,0,0,1-.33464.4452,1.47816,1.47816,0,0,1-.53219.26937,2.55015,2.55015,0,0,1-.70788.09038Zm.8468-2.82151h.83006a.96025.96025,0,0,0,.6175-.17906.61347.61347,0,0,0,.22253-.50707.62183.62183,0,0,0-.20581-.52211,1.03961,1.03961,0,0,0-.641-.16065h-.82329Zm0,.62255v1.52288h.94048a1.14746,1.14746,0,0,0,.36646-.05352.73059.73059,0,0,0,.26613-.15233.62523.62523,0,0,0,.16058-.23593.83215.83215,0,0,0,.05363-.30458.70311.70311,0,0,0-.81-.77652Z"/>
          <path class="cls-26" d="M97.075,16.21459a3.16,3.16,0,0,1-.14571.99574,2.16777,2.16777,0,0,1-.41.74639,1.77815,1.77815,0,0,1-.63584.47025,2.14038,2.14038,0,0,1-1.64335,0,1.827,1.827,0,0,1-.64106-.47025,2.16509,2.16509,0,0,1-.41832-.74639,3.09523,3.09523,0,0,1-.14894-.99574v-.24768a3.11075,3.11075,0,0,1,.14894-.99739,2.21346,2.21346,0,0,1,.415-.74975,1.78625,1.78625,0,0,1,.6376-.4719,2.00865,2.00865,0,0,1,.82006-.164,2.029,2.029,0,0,1,.825.164,1.78265,1.78265,0,0,1,.63929.4719,2.16923,2.16923,0,0,1,.41161.74975,3.17583,3.17583,0,0,1,.14571.99739Zm-.8468-.25435a2.97719,2.97719,0,0,0-.07867-.72131,1.53939,1.53939,0,0,0-.2293-.5238.99421.99421,0,0,0-.36985-.31965,1.10441,1.10441,0,0,0-.497-.10876,1.079,1.079,0,0,0-.48874.10876,1.01141,1.01141,0,0,0-.36977.31965,1.56444,1.56444,0,0,0-.23438.5238,2.85906,2.85906,0,0,0-.08192.72131v.25435a2.87842,2.87842,0,0,0,.08192.723,1.56348,1.56348,0,0,0,.236.52715,1.01528,1.01528,0,0,0,.37316.3213,1.08829,1.08829,0,0,0,.49043.1088.9958.9958,0,0,0,.86514-.42844,2.15993,2.15993,0,0,0,.303-1.25178Z"/>
          <path class="cls-26" d="M102.4696,18.524h-.8468l-2.17215-3.45745V18.524h-.8468V13.65078h.8468l2.17886,3.47086V13.65078h.84009Z"/>
          <path class="cls-26" d="M106.15068,13.65078h.84348v3.4173a1.66369,1.66369,0,0,1-.11881.646,1.33526,1.33526,0,0,1-.3314.4786,1.44657,1.44657,0,0,1-.50369.29619,1.91145,1.91145,0,0,1-.636.10209,2.24318,2.24318,0,0,1-.641-.087,1.35619,1.35619,0,0,1-.50369-.26775,1.23618,1.23618,0,0,1-.3297-.45518,1.617,1.617,0,0,1-.11882-.646h.84349a1.03775,1.03775,0,0,0,.05524.35984.5859.5859,0,0,0,.39.37654,1.00438,1.00438,0,0,0,.30451.04346.80041.80041,0,0,0,.30126-.05516.64367.64367,0,0,0,.23594-.16235.75109.75109,0,0,0,.15395-.2644,1.1,1.1,0,0,0,.05524-.36485Z"/>
          <path class="cls-26" d="M112.536,16.21459a3.16239,3.16239,0,0,1-.14555.99574,2.16906,2.16906,0,0,1-.41006.74639,1.7784,1.7784,0,0,1-.63591.47025,2.14038,2.14038,0,0,1-1.64335,0,1.8267,1.8267,0,0,1-.641-.47025,2.16491,2.16491,0,0,1-.41831-.74639,3.09522,3.09522,0,0,1-.14895-.99574v-.24768a3.11074,3.11074,0,0,1,.14895-.99739,2.21328,2.21328,0,0,1,.415-.74975,1.78694,1.78694,0,0,1,.6376-.4719,2.00845,2.00845,0,0,1,.82006-.164,2.029,2.029,0,0,1,.825.164,1.78277,1.78277,0,0,1,.6393.4719,2.17082,2.17082,0,0,1,.41168.74975,3.17828,3.17828,0,0,1,.14555.99739Zm-.84679-.25435a2.9774,2.9774,0,0,0-.0786-.72131,1.54074,1.54074,0,0,0-.2293-.5238.99509.99509,0,0,0-.36978-.31965,1.10489,1.10489,0,0,0-.49705-.10876,1.07883,1.07883,0,0,0-.48874.10876,1.01066,1.01066,0,0,0-.36976.31965,1.563,1.563,0,0,0-.23432.5238,2.8557,2.8557,0,0,0-.082.72131v.25435a2.875,2.875,0,0,0,.082.723,1.56188,1.56188,0,0,0,.23594.52715,1.0143,1.0143,0,0,0,.37323.3213,1.08765,1.08765,0,0,0,.49028.1088.99591.99591,0,0,0,.86521-.42844,2.15942,2.15942,0,0,0,.30289-1.25178Z"/>
          <path class="cls-26" d="M117.62956,13.65078v3.26a1.76606,1.76606,0,0,1-.14224.733,1.48068,1.48068,0,0,1-.39.52545,1.65641,1.65641,0,0,1-.579.31629,2.32715,2.32715,0,0,1-.70964.10545,2.388,2.388,0,0,1-.7246-.10545,1.61947,1.61947,0,0,1-.57742-.31629,1.445,1.445,0,0,1-.38148-.52545,1.81906,1.81906,0,0,1-.13723-.733v-3.26h.8434v3.26a1.31967,1.31967,0,0,0,.06866.45018.81627.81627,0,0,0,.19579.313.77684.77684,0,0,0,.308.18241,1.30954,1.30954,0,0,0,.40491.05852,1.32694,1.32694,0,0,0,.40668-.05852.762.762,0,0,0,.30789-.18241.82654.82654,0,0,0,.19409-.313,1.32138,1.32138,0,0,0,.06866-.45018v-3.26Z"/>
          <path class="cls-26" d="M121.00945,16.64635h-.94389V18.524h-.84679V13.65078h1.71363a2.67658,2.67658,0,0,1,.74639.09539,1.535,1.535,0,0,1,.55392.28116,1.19212,1.19212,0,0,1,.343.46023,1.609,1.609,0,0,1,.11719.63591,1.36949,1.36949,0,0,1-.236.81832,1.50068,1.50068,0,0,1-.65771.50712l1.09451,2.03161V18.524h-.907Zm-.94389-.67944h.87015a1.197,1.197,0,0,0,.39835-.06022.79375.79375,0,0,0,.28448-.16739.68213.68213,0,0,0,.17067-.25435.89206.89206,0,0,0,.05693-.32465,1.02054,1.02054,0,0,0-.05354-.33972.676.676,0,0,0-.164-.2611.73114.73114,0,0,0-.28278-.16735,1.29268,1.29268,0,0,0-.41338-.05852h-.86684Z"/>
        </g>
        <g>
          <path class="cls-27" d="M67.31018,23.79917s.5299,2.1196-.26495,2.25208a1.97941,1.97941,0,0,1-1.0598,0"/>
          <ellipse cx="69.64878" cy="22.70257" rx="0.26495" ry="0.5299"/>
          <ellipse cx="64.54848" cy="22.7688" rx="0.26495" ry="0.5299"/>
          <path class="cls-27" d="M67.86036,28.56092a1.39686,1.39686,0,0,1-2.25208,0"/>
          <path class="cls-27" d="M70.5761,20.71544a1.23939,1.23939,0,0,0-1.72217-.265"/>
          <path class="cls-27" d="M65.40957,20.71544a1.2394,1.2394,0,0,0-1.72218-.265"/>
          <ellipse class="cls-28" cx="69.71501" cy="25.1828" rx="1.0598" ry="0.39743"/>
          <ellipse class="cls-28" cx="64.25703" cy="25.33085" rx="1.0598" ry="0.39743"/>
        </g>
        <path class="cls-29" d="M82.48984,85.9963s22.21975-27.39156,31.95737-24.00687"/>
        <path class="cls-29" d="M54.53036,35.849C37.03952,58.18942,95.96217,85.9963,95.96217,85.9963"/>
        <path class="cls-29" d="M69.19047,39.45943S89.8249,99.06212,45.00466,106.06435c0,0,13.38029-57.76418,35.99654-44.30892"/>
        <path class="cls-29" d="M81.656,112.05618S54.107,54.25152,36.68418,66.81764"/>
        <path class="cls-29" d="M26.36631,103.44886S61.194,49.33169,59.17012,37.50218"/>
        <path class="cls-29" d="M63.84361,112.86245s10.28115-49.73551,41.27274-35.94361"/>
      </g>
    </g>
  </g>
</svg>
