<svg xmlns="http://www.w3.org/2000/svg" xmlns:xlink="http://www.w3.org/1999/xlink" width="67.66981mm" height="40.40003mm" viewBox="0 0 191.81995 114.51978">
  <defs>
    <style>
      .cls-1, .cls-14, .cls-21 {
        fill: none;
      }

      .cls-2 {
        clip-path: url(#clip-path);
      }

      .cls-3 {
        fill: #98a6f9;
      }

      .cls-4 {
        fill: #cdd5ff;
      }

      .cls-5 {
        fill: #fff;
      }

      .cls-6 {
        fill: #cdd5fe;
      }

      .cls-7 {
        fill: #ebebeb;
      }

      .cls-8 {
        fill: #c7c7c7;
      }

      .cls-9 {
        fill: #a6a6a6;
      }

      .cls-10 {
        fill: #37474f;
      }

      .cls-11 {
        fill: #263238;
      }

      .cls-12 {
        fill: #663dff;
      }

      .cls-13, .cls-25 {
        fill: #fafbef;
      }

      .cls-14 {
        stroke: #f4a69d;
        stroke-linecap: round;
        stroke-linejoin: round;
        stroke-width: 0;
      }

      .cls-15 {
        fill: #f49092;
      }

      .cls-16 {
        fill: #455a64;
      }

      .cls-17 {
        fill: #fa203a;
      }

      .cls-18 {
        opacity: 0.1;
      }

      .cls-19, .cls-22 {
        fill: #fd515f;
      }

      .cls-20 {
        fill: #f7a9a0;
      }

      .cls-21 {
        stroke: #000;
      }

      .cls-21, .cls-22, .cls-25 {
        stroke-miterlimit: 10;
        stroke-width: 0.13px;
      }

      .cls-22 {
        stroke: #020202;
      }

      .cls-23 {
        fill: #ea8181;
      }

      .cls-24 {
        fill: #ad6359;
      }

      .cls-25 {
        stroke: #ccc;
      }

      .cls-26 {
        clip-path: url(#clip-path-2);
      }

      .cls-27 {
        fill: #01e3c8;
        fill-rule: evenodd;
        opacity: 0.3;
        isolation: isolate;
      }
    </style>
    <clipPath id="clip-path">
      <path class="cls-1" d="M166.43005,52.64c-8.94006,11.38-24,14.48-60.63,15.16A738.91875,738.91875,0,0,1,0,62.08V9.86A9.86284,9.86284,0,0,1,9.87012,0h159.5C176.33008,17.67,176.9801,39.22,166.43005,52.64Z"/>
    </clipPath>
    <clipPath id="clip-path-2">
      <path class="cls-1" d="M158.03,210.71539C119.40991,252.59552,41.73,256.70539,0,218.9455v-51.9a9.85423,9.85423,0,0,1,9.86-9.86H181.95a7.59131,7.59131,0,0,1,.83008.03991C185.08,181.38544,161.84,206.58551,158.03,210.71539Z"/>
    </clipPath>
  </defs>
  <title>cards</title>
  <g id="Layer_1" data-name="Layer 1">
    <g class="cls-2">
      <g>
        <ellipse class="cls-3" cx="89.96971" cy="45.529" rx="135.07456" ry="80.80267"/>
        <g>
          <circle class="cls-4" cx="80.40363" cy="19.47029" r="14.63216" transform="translate(42.092 92.79187) rotate(-76.02478)"/>
          <circle class="cls-5" cx="80.40363" cy="19.47029" r="11.16856" transform="translate(41.9781 92.73225) rotate(-75.93574)"/>
          <circle class="cls-6" cx="80.40363" cy="19.47029" r="7.9812" transform="translate(41.87218 92.67659) rotate(-75.85287)"/>
          <circle class="cls-5" cx="80.40363" cy="19.47029" r="4.41231" transform="translate(41.75232 92.61338) rotate(-75.75901)"/>
          <circle class="cls-7" cx="80.40363" cy="19.47029" r="1.9945" transform="translate(41.67037 92.57001) rotate(-75.6948)"/>
          <g>
            <g>
              <rect class="cls-8" x="78.08659" y="9.65146" width="23.70299" height="0.56863" transform="translate(19.31644 66.50575) rotate(-44.99984)"/>
              <polygon class="cls-9" points="82.594 18.883 80.404 19.47 80.99 17.279 82.594 18.883"/>
            </g>
            <polygon class="cls-9" points="101.122 0.465 97.98 3.607 95.515 4.359 96.266 1.894 99.409 -1.248 98.657 1.217 101.122 0.465"/>
          </g>
        </g>
        <g>
          <polygon class="cls-10" points="57.506 80.848 23.218 80.848 20.564 57.561 54.852 57.561 57.506 80.848"/>
          <polygon class="cls-5" points="55.638 79.286 24.731 79.286 22.432 59.123 53.339 59.123 55.638 79.286"/>
          <g>
            <rect class="cls-10" x="41.69436" y="79.28607" width="35.19133" height="1.56331"/>
            <rect class="cls-11" x="59.17342" y="79.28607" width="17.71226" height="1.56331"/>
          </g>
          <g>
            <polygon class="cls-7" points="44.72 59.124 24.714 79.129 24.117 73.897 38.888 59.124 44.72 59.124"/>
            <polygon class="cls-7" points="55.114 74.693 50.522 79.286 44.69 79.286 54.517 69.459 55.114 74.693"/>
            <polygon class="cls-7" points="26.261 59.124 22.826 62.559 22.622 60.776 24.274 59.124 26.261 59.124"/>
            <polygon class="cls-7" points="54.134 66.095 40.943 79.286 38.953 79.286 53.93 64.309 54.134 66.095"/>
            <polygon class="cls-7" points="28.854 59.124 23.089 64.888 23.04 64.44 28.356 59.124 28.854 59.124"/>
            <polygon class="cls-7" points="47.578 59.124 27.416 79.286 26.918 79.286 47.081 59.124 47.578 59.124"/>
            <polygon class="cls-7" points="53.798 63.147 37.659 79.286 37.161 79.286 53.749 62.699 53.798 63.147"/>
          </g>
        </g>
        <g>
          <polygon class="cls-10" points="117.57 80.848 151.858 80.848 154.512 57.561 120.225 57.561 117.57 80.848"/>
          <polygon class="cls-5" points="119.439 79.286 150.346 79.286 152.644 59.123 121.737 59.123 119.439 79.286"/>
          <g>
            <rect class="cls-10" x="98.19053" y="79.28607" width="35.19136" height="1.56331"/>
            <rect class="cls-11" x="98.19053" y="79.28607" width="17.71229" height="1.56331"/>
          </g>
          <g>
            <polygon class="cls-7" points="151.755 66.933 151.003 73.516 145.234 79.286 139.402 79.286 151.755 66.933"/>
            <polygon class="cls-7" points="140.795 59.124 120.635 79.286 119.438 79.286 120.035 74.054 134.966 59.124 140.795 59.124"/>
            <polygon class="cls-7" points="127.661 59.124 120.976 65.809 121.232 63.562 125.671 59.124 127.661 59.124"/>
            <polygon class="cls-7" points="149.652 59.124 129.49 79.286 127.499 79.286 147.662 59.124 149.652 59.124"/>
            <polygon class="cls-7" points="152.041 64.42 151.978 64.983 137.675 79.286 137.178 79.286 152.041 64.42"/>
            <polygon class="cls-7" points="151.74 59.124 131.58 79.286 131.082 79.286 151.245 59.124 151.74 59.124"/>
            <polygon class="cls-7" points="132.96 59.124 120.292 71.792 120.356 71.23 132.463 59.124 132.96 59.124"/>
          </g>
        </g>
        <g>
          <g>
            <path class="cls-12" d="M55.07592,45.77845c4.2537,8.58558,10.55,17.15364,12.23766,18.77358,4.53258,4.35048,16.63408,7.47764,20.20106,7.57666,1.53945.04284,3.66947-10.18855,2.53456-11.38158s-16.07829-4.44125-16.87859-5.05446c-.55639-.42636-7.68359-7.20088-12.40857-11.2224C54.88982,39.47225,53.95877,43.52375,55.07592,45.77845Z"/>
            <path class="cls-12" d="M86.74807,59.32849l-3.857,12.17828S70.2456,68.1665,66.86222,64.92435s-10.392-14.90193-11.7611-18.74213-.47692-6.876,5.71076-1.892,11.45671,10.08242,12.5554,10.9032S86.74807,59.32849,86.74807,59.32849Z"/>
            <g>
              <path class="cls-12" d="M82.83181,59.81551a.622.622,0,1,0,.52155-.7084A.622.622,0,0,0,82.83181,59.81551Z"/>
              <path class="cls-12" d="M79.73419,58.92315a.622.622,0,1,0,.52155-.7084A.622.622,0,0,0,79.73419,58.92315Z"/>
            </g>
            <path class="cls-12" d="M73.56271,68.48829c-2.76911-1.0748-5.40884-2.32625-6.70009-3.56277C63.479,61.68121,56.47037,50.0226,55.102,46.18117c-.87576-2.45562-.82849-4.58034.938-4.49327Z"/>
          </g>
          <path class="cls-12" d="M34.90967,79.28214l31.92152.0063c.12808-1.16664-6.44048-33.69286-9.56673-37.77019-.66924-.87183-2.87527-1.114-4.751-.88064a8.36145,8.36145,0,0,0-1.44418.295.23484.23484,0,0,1-.0485.01321,3.45389,3.45389,0,0,0-1.06114.51957C44.74185,45.63081,34.65873,78.99595,34.90967,79.28214Z"/>
          <g>
            <polygon class="cls-11" points="54.668 48.871 56.025 46.228 57.775 48.14 57.347 50.042 55.618 50.264 54.668 48.871"/>
            <polygon class="cls-11" points="55.618 50.264 54.791 69.702 58.434 76.131 60.325 68.896 57.347 50.042 55.618 50.264"/>
          </g>
          <g>
            <g>
              <path class="cls-13" d="M55.56846,45.87563c-.50277-.01978-3.83675-2.62794-4.86209-4.65939-.06951-.13968.18837-1.57427.41923-3.33229.136-1.06746.26218-2.25917.29885-3.35495.00639-.225.75846.214.75846.214l1.40655.39,4.65175,1.29553a17.47728,17.47728,0,0,0-.80459,4.18521,2.45673,2.45673,0,0,0,.0322.45124c.00162.02073.00677.04593.00744.07477C57.587,41.99855,56.39043,45.908,55.56846,45.87563Z"/>
              <path class="cls-11" d="M57.46882,41.06494c.00162.02073.00677.04593.00744.07477a4.33505,4.33505,0,0,1-.70768.01383c-4.62414-.2578-5.00549-6.16115-5.00549-6.16115l1.82637.14057,4.65175,1.29553a17.47728,17.47728,0,0,0-.80459,4.18521A2.45673,2.45673,0,0,0,57.46882,41.06494Z"/>
            </g>
            <g>
              <path class="cls-14" d="M53.9727,39.28677l-.0006-.00262"/>
              <g>
                <path class="cls-13" d="M50.34378,26.47861c-.6974,2.452.72419,9.46975,2.488,11.00692,2.55711,2.22835,6.67656,2.3675,8.55289-.69089,1.819-2.96456-.19553-12.07759-2.15951-13.46756C56.33241,21.27988,51.374,22.8567,50.34378,26.47861Z"/>
                <ellipse class="cls-15" cx="56.64953" cy="33.25264" rx="0.74854" ry="0.24409" transform="matrix(0.96302, -0.26942, 0.26942, 0.96302, -6.86414, 16.49193)"/>
                <ellipse class="cls-15" cx="61.2485" cy="32.33651" rx="0.74854" ry="0.24409" transform="translate(-6.44726 17.69709) rotate(-15.6296)"/>
              </g>
              <g>
                <g>
                  <path class="cls-11" d="M57.29416,30.56326c-.00721-.0172-.03259.0298-.028.04908.10843.47013.15344,1.02694-.24367,1.26847-.01231.00746-.00622.031.00921.0257C57.53955,31.72981,57.47233,30.99134,57.29416,30.56326Z"/>
                  <path class="cls-11" d="M56.77405,30.15262c-.77234.0925-.5306,1.63056.185,1.54488C57.66343,31.61305,57.42152,30.07509,56.77405,30.15262Z"/>
                </g>
                <g>
                  <path class="cls-11" d="M60.06447,30.20755c.00072-.01881.04077.0166.04329.03623.05976.47878.20881,1.017.66466,1.10754.0142.00279.01662.02694.0003.02717C60.23512,31.3872,60.04434,30.67061,60.06447,30.20755Z"/>
                  <path class="cls-11" d="M60.41166,29.64306c.75711-.17864,1.05868,1.34877.35732,1.5142C60.07865,31.32027,59.777,29.79271,60.41166,29.64306Z"/>
                </g>
                <path class="cls-11" d="M56.05655,29.54481a6.05486,6.05486,0,0,0,.5627-.30346,1.03307,1.03307,0,0,0,.51481-.41888.32939.32939,0,0,0-.11422-.38543.81639.81639,0,0,0-.826.04463,1.19893,1.19893,0,0,0-.602.61983A.35116.35116,0,0,0,56.05655,29.54481Z"/>
                <path class="cls-11" d="M60.88462,28.7751a6.03964,6.03964,0,0,1-.63617-.06249,1.03292,1.03292,0,0,1-.63667-.18742.32927.32927,0,0,1-.04364-.39972.81648.81648,0,0,1,.779-.27786,1.19881,1.19881,0,0,1,.79491.339A.35121.35121,0,0,1,60.88462,28.7751Z"/>
                <path class="cls-11" d="M57.54888,35.05456c.13171.0936.2697.22927.44488.21663a1.2729,1.2729,0,0,0,.49326-.20041.01693.01693,0,0,1,.02451.02122.64928.64928,0,0,1-.56408.35374.51339.51339,0,0,1-.44094-.36242C57.49484,35.0568,57.52975,35.041,57.54888,35.05456Z"/>
                <path class="cls-5" d="M59.36383,33.88392a1.94939,1.94939,0,0,1-.6767.71845.8773.8773,0,0,1-.52078.11542c-.39621-.04018-.4606-.3878-.43774-.69755a2.09625,2.09625,0,0,1,.09863-.48411A2.52278,2.52278,0,0,0,59.36383,33.88392Z"/>
                <path class="cls-11" d="M57.82542,33.54936a1.6419,1.6419,0,0,0,1.19629.55154,2.06415,2.06415,0,0,0,.58771-.06506.58766.58766,0,0,0,.10949-.03028c.03414-.0097.06484-.01871.10186-.03247a.12.12,0,0,0,.07879-.12169l-.00059-.00348a.22833.22833,0,0,0-.01219-.04807l-.00053-.0035-.00746-.04165c-.04765-.36837-.171-.92065-.171-.92065.1446.046.87626.246.83531.056a24.71132,24.71132,0,0,0-1.4013-4.81056.04469.04469,0,0,0-.08506.02585c.271,1.52353.80809,2.9891,1.10473,4.51519a2.87794,2.87794,0,0,0-.80229-.112c-.04966.02324.25743,1.06311.26554,1.23032a.06091.06091,0,0,1-.00035.018,2.27632,2.27632,0,0,1-1.76118-.2573C57.8235,33.478,57.79089,33.51595,57.82542,33.54936Z"/>
              </g>
              <g>
                <path class="cls-11" d="M51.16991,31.95162c1.67525-.25059,1.55654-3.3409,1.55654-3.3409s2.80927-.89173,2.91137-3.11931c0,0,2.98609,1.34514,5.02023.2526s1.22855-3.45583.91485-3.94071-1.36366.654-1.36366.654-.33677-1.35475-.72467-1.44113-.66533.80379-.66533.80379a18.03884,18.03884,0,0,0-5.4029-.08636c-2.5004.438-3.37413,3.15041-3.37413,3.15041a2.8126,2.8126,0,0,0-1.59872,1.4849C48.14553,27.37284,50.10205,32.11142,51.16991,31.95162Z"/>
                <path class="cls-11" d="M52.05192,28.73079c2.26912-.02953,3.52992-1.72408,3.542-3.90389a.02106.02106,0,0,1,.042-.00281c.22608,1.99567-1.30576,4.4803-3.59091,4.00814A.05155.05155,0,0,1,52.05192,28.73079Z"/>
                <path class="cls-11" d="M50.0965,24.83456a.02376.02376,0,0,1,.02112.0419,4.39629,4.39629,0,0,0-1.6178,1.33228,2.73445,2.73445,0,0,0,.12756,2.397,6.10866,6.10866,0,0,0,2.517,3.19368c.0681.03175.01674.13142-.05158.10363-1.40689-.57455-2.45719-2.50031-2.84347-3.89624C47.81667,26.44378,48.675,25.39256,50.0965,24.83456Z"/>
                <path class="cls-11" d="M58.16692,25.75665a3.31818,3.31818,0,0,0,3.38834-.55141c1.05049-.98916.60524-2.30241-.066-3.35313-.033-.05165.03826-.12283.08412-.07437a2.59532,2.59532,0,0,1,.27989,3.37329,3.45766,3.45766,0,0,1-3.76019.7539C57.99475,25.86383,58.06884,25.71538,58.16692,25.75665Z"/>
              </g>
              <g>
                <path class="cls-16" d="M56.8979,33.3552a2.06423,2.06423,0,1,1,1.90146-2.64762v.00015A2.06513,2.06513,0,0,1,56.8979,33.3552Zm-.14594-3.85a1.78826,1.78826,0,1,0,1.78278,1.28056A1.78383,1.78383,0,0,0,56.752,29.50522Z"/>
                <path class="cls-16" d="M61.57441,32.60045A1.92517,1.92517,0,0,1,59.87247,30.785a2.46325,2.46325,0,0,1,.20859-1.4931,1.28584,1.28584,0,0,1,2.175-.33933,2.46511,2.46511,0,0,1,.653,1.35855,1.86272,1.86272,0,0,1-1.19982,2.27637A1.19813,1.19813,0,0,1,61.57441,32.60045Zm-.35478-3.82913a.88047.88047,0,0,0-.1043.01,1.10076,1.10076,0,0,0-.789.63625,2.19373,2.19373,0,0,0-.1815,1.32472c.15232.97411.83245,1.68057,1.52162,1.57235.68678-.10711,1.12172-.98693.97013-1.96092a2.1901,2.1901,0,0,0-.57641-1.20664A1.13683,1.13683,0,0,0,61.21963,28.77132Z"/>
                <path class="cls-16" d="M58.76776,30.95439l-.20792-.18157a1.12689,1.12689,0,0,1,1.5107-.31354l-.17018.21713C59.38037,30.26776,58.79259,30.92647,58.76776,30.95439Z"/>
                <path class="cls-16" d="M49.76259,32.89665l-.26174-.08738c.04106-.12206.41559-1.19806,1.009-1.39194.555-.17954,4.26319-.40724,4.42067-.41669l.01657.27544c-1.0632.06417-3.92317.26365-4.35145.40368C50.20375,31.80766,49.86161,32.60155,49.76259,32.89665Z"/>
              </g>
              <g>
                <path class="cls-13" d="M52.23605,32.26378s-1.68057-2.21367-2.69111-1.60571.31543,3.86033,1.5456,4.2642a1.23394,1.23394,0,0,0,1.62616-.72758Z"/>
                <path class="cls-11" d="M49.94819,31.58088a.01679.01679,0,0,0-.00512.03272,3.11878,3.11878,0,0,1,1.68746,1.88693.68123.68123,0,0,0-1.02581-.14622c-.0215.01669.00111.0506.02483.04456a.75887.75887,0,0,1,.84508.232,3.66035,3.66035,0,0,1,.42622.65956c.04277.07444.17841.02838.146-.058l-.00769-.01939C52.01816,33.1283,51.11622,31.64435,49.94819,31.58088Z"/>
              </g>
            </g>
            <g>
              <path class="cls-12" d="M57.49233,41.23067l-1.662,4.07773-5.03617-5.15007-1.43377,1.64594S54.28,49.97983,54.31189,49.611l1.68151-3.49748,2.41127,2.44094-.183-6.11547Z"/>
              <path class="cls-11" d="M58.48508,45.52654c-.06409-1.00867-.10042-2.02637-.21111-3.031-.0039-.0357-.05976-.05172-.06859-.00972a55.6774,55.6774,0,0,0,.055,5.754l-.0106-.01063c-.10062-.10554-2.23514-2.148-2.25642-2.11571-.36423.55511-1.59817,3.102-1.68268,3.33377-.77794-1.29859-3.76044-6.01988-4.68189-7.24824a.035.035,0,0,0-.06053.03488c.68671,1.37107,4.63315,7.72867,4.694,7.711a39.42577,39.42577,0,0,0,1.7584-3.69774,26.7268,26.7268,0,0,0,2.52267,2.5992A31.72846,31.72846,0,0,0,58.48508,45.52654Z"/>
            </g>
          </g>
          <g>
            <g>
              <g>
                <polygon class="cls-17" points="67.927 83.77 43.069 86.231 42.99 66.96 67.848 64.499 67.927 83.77"/>
                <polygon class="cls-17" points="51.104 64.025 42.969 64.83 42.99 66.96 51.697 66.098 51.104 64.025"/>
              </g>
              <g class="cls-18">
                <polygon class="cls-17" points="67.938 83.853 43.08 86.314 43.001 67.043 67.859 64.582 67.938 83.853"/>
                <polygon class="cls-17" points="51.115 64.108 42.98 64.913 43.001 67.043 51.707 66.181 51.115 64.108"/>
              </g>
            </g>
            <polygon class="cls-7" points="67.911 83.772 43.937 86.145 40.507 66.822 66.061 64.676 67.911 83.772"/>
            <polygon class="cls-5" points="67.911 83.772 43.326 86.205 39.651 67.633 65.493 65.074 67.911 83.772"/>
            <polygon class="cls-19" points="67.866 83.776 42.954 86.242 39.32 68.07 64.231 65.604 67.866 83.776"/>
          </g>
          <g>
            <path class="cls-20" d="M46.61688,44.37046c-8.49649,7.70872-14.62746,20.99792-14.43947,24.57811.2484,4.73024,8.81813,12.81751,14.39782,15.15893,1.41219.59261,6.87087-10.96091,4.80556-11.56275-2.17929-.635-7.21892-5.20446-7.4643-5.41168-.52394-.44243,3.53669-10.55115,5.23622-16.68742C51.07168,43.51711,50.193,41.126,46.61688,44.37046Z"/>
            <g>
              <path class="cls-20" d="M43.42016,82.3401a27.20693,27.20693,0,0,0,14.01925,4.619c1.08065-.10611,1.63651-.17137,1.63651-.17137a3.66926,3.66926,0,0,0,2.64-1.07361s2.29766.48426,2.82093-.85584c.59132-1.50111-2.75119-1.88749-4.45936-3.22405-3.91382-3.06237-8.62048-8.51-9.66145-9.50538Z"/>
              <path class="cls-11" d="M53.72052,81.30742A31.97788,31.97788,0,0,0,57.299,83.79429a32.08761,32.08761,0,0,0,4.39248,1.87023.03879.03879,0,0,1-.02187.07439,16.94221,16.94221,0,0,1-8.02934-4.33326C53.5899,81.35581,53.66173,81.26326,53.72052,81.30742Z"/>
              <path class="cls-11" d="M51.5288,83.401a23.54973,23.54973,0,0,0,7.56006,3.34092c.014.00383.01194.02876-.004.02657a15.19754,15.19754,0,0,1-7.63169-3.24565C51.38313,83.46713,51.45,83.34848,51.5288,83.401Z"/>
              <path class="cls-20" d="M55.595,77.64568c-.35168-.60074-.03877-.78933,1.11262-.3364,1.166.45567,5.32494,3.22311,6.16811,1.68558.849-1.54135-5.101-5.3609-7.07622-5.96829a32.82048,32.82048,0,0,0-5.38352-.89773C51.424,73.10489,53.64242,75.70546,55.595,77.64568Z"/>
            </g>
            <g>
              <path class="cls-12" d="M43.61579,83.20982l6.76854-11.36367s-6.33459-4.44174-6.36489-4.88664,4.45164-12.68756,5.806-18.71315.68307-8.90045-5.24717-2.18217-13.537,18.0199-13.13341,22.86343S43.61579,83.20982,43.61579,83.20982Z"/>
              <path class="cls-11" d="M48.70005,54.00742c-.24611.43144-.509.853-.73228,1.29718q-.1088.2163-.2174.43353c.05546-.17391.11223-.34735.16762-.5213.34754-1.092.684-2.18961.97682-3.29761.00712-.02692-.03543-.04528-.04665-.01831-.78256,1.88046-1.42819,3.81978-2.07006,5.75193q-.96975,2.91914-1.83242,5.873c-.32291,1.099-.65677,2.2024-.90992,3.31982a.01946.01946,0,0,0,.03774.00941c.37228-.95715.68917-1.93965,1.01283-2.91419s.65005-1.94792.96707-2.92453q.758-2.335,1.50266-4.67379a5.23107,5.23107,0,0,0,.54295-.93712c.22966-.45224.41556-.92383.61978-1.38762A.01071.01071,0,0,0,48.70005,54.00742Z"/>
              <g>
                <path class="cls-11" d="M42.4139,80.35707a.622.622,0,1,0,.78429-.39848A.62207.62207,0,0,0,42.4139,80.35707Z"/>
                <path class="cls-11" d="M40.0477,78.16785a.622.622,0,1,0,.78425-.39847A.622.622,0,0,0,40.0477,78.16785Z"/>
              </g>
              <path class="cls-11" d="M35.7925,75.92667c.7849.66862,1.52045,1.38366,2.25034,2.10425.36185.36334.72341.72681,1.07879,1.09659.35814.36713.7065.74386,1.05758,1.12113a21.74386,21.74386,0,0,1-2.31174-2.04145A28.33082,28.33082,0,0,1,35.7925,75.92667Z"/>
            </g>
          </g>
          <path class="cls-21" d="M31.42947,67.04287s12.05791-6.0975,13.65686-3.102"/>
          <path class="cls-21" d="M49.36038,41.80427S31.3961,70.65009,45.72018,78.983"/>
          <path class="cls-21" d="M34.90507,74.92466S44.451,41.08422,55.56343,53.30528"/>
          <path class="cls-21" d="M38.88568,53.28234s13.19273-11.435,16.06143,10.82555"/>
          <path class="cls-21" d="M50.416,72.12884s-20.60054-2.6605-12.78087-17.042"/>
          <path class="cls-21" d="M58.20538,42.48585s6.48775,26.00167,29.30926,29.64284"/>
          <path class="cls-21" d="M90.0492,60.74711s-28.22755-11.41081-31.011,0"/>
          <path class="cls-21" d="M64.05387,46.975s-6.07379,10.23793-2.05748,18.042"/>
          <path class="cls-21" d="M57.34728,50.042s30.47144,8.38061,32.40527,17.00092"/>
        </g>
        <g>
          <g>
            <path class="cls-11" d="M122.45834,24.63445c.53242-1.7106,2.86107-5.47813,6.62041-4.34143,5.36473,1.62211,5.15927,12.23765,7.57,15.77974,4.36847,6.41843,3.97221,12.32527-.15968,12.88426-4.63046.62638-8.57911-4.652-7.41716-15.15562.72661-6.56794-.85277-9.65924-2.18334-9.58729s-2.20339,1.66274-2.20339,1.66274Z"/>
            <path class="cls-11" d="M122.7034,23.996a10.62306,10.62306,0,0,1,1.31487-2.21237,6.29385,6.29385,0,0,1,1.96734-1.71013,4.29122,4.29122,0,0,1,2.59718-.49327,5.55616,5.55616,0,0,1,2.47421.94463,6.24506,6.24506,0,0,1,1.75265,1.974,11.48571,11.48571,0,0,1,1.01007,2.40171,23.05318,23.05318,0,0,1,.79615,5.08006,33.96875,33.96875,0,0,0-1.15564-4.96559,12.22581,12.22581,0,0,0-1.04315-2.28074,5.875,5.875,0,0,0-1.63907-1.81495,5.1691,5.1691,0,0,0-2.25647-.88671,4.00818,4.00818,0,0,0-2.36543.37581,6.42694,6.42694,0,0,0-1.958,1.52743,10.38037,10.38037,0,0,0-.79979.98641Q123.03372,23.44515,122.7034,23.996Z"/>
            <path class="cls-11" d="M129.38322,30.17342c-.04232,1.0492-.20087,2.08889-.3197,3.12909-.13418,1.0385-.26283,2.07608-.36183,3.11421-.09312,1.03843-.16607,2.07755-.15845,3.11447a15.78975,15.78975,0,0,0,.27213,3.07749,8.08353,8.08353,0,0,0,1.07455,2.83742,8.79589,8.79589,0,0,0,2.10338,2.20146,6.55564,6.55564,0,0,0,2.79536,1.19673,5.936,5.936,0,0,0,1.54239.06293,5.33833,5.33833,0,0,0,.76773-.12483,2.75345,2.75345,0,0,0,.73443-.26073,3.87058,3.87058,0,0,1-1.48609.51249,6.11739,6.11739,0,0,1-1.59033.04461,6.514,6.514,0,0,1-1.5573-.37538,7.053,7.053,0,0,1-1.42227-.747,8.28384,8.28384,0,0,1-1.23642-1.02462l-.27808-.2894-.26487-.301a6.01235,6.01235,0,0,1-.49162-.64615,8.42451,8.42451,0,0,1-1.16494-2.9928,20.27725,20.27725,0,0,1-.01331-6.32717c.13231-1.04383.31244-2.07852.50252-3.10914C129.02844,32.23626,129.2325,31.21065,129.38322,30.17342Z"/>
            <path class="cls-16" d="M122.14239,24.63428a1.38745,1.38745,0,0,1,.659-1.21266c.31841-.08793,2.67822.92587,2.88072,1.53122s-.84686,1.13986-.84686,1.13986Z"/>
          </g>
          <path class="cls-13" d="M123.96356,46.35914c-1.4019,3.05035-11.832,17.38987-17.01026,17.7813-5.419.40962-18.41758-8.44637-19.6634-9.18358-3.41613-2.02157,6.10853-11.34623,7.756-9.69009,2.75288,2.76752,9.332,7.98342,10.941,7.63092,3.38155-.74091,10.426-6.6574,15.42313-9.73591C124.42508,41.30431,125.51458,42.98429,123.96356,46.35914Z"/>
          <g>
            <g>
              <path class="cls-13" d="M88.10851,55.43241c-.589-.39123-5.32937-3.02527-7.1081-5.565-.942-1.345-3.11421-5.33448-2.36765-6.00981.68151-.6165,1.54561.33042,1.54561.33042s-.94247-1.79283.01487-2.63874,2.33265.82723,2.33265.82723-.83365-1.91183.1816-2.68728,2.11621,1.13844,2.11621,1.13844-.8437-1.71234.26161-1.99923c1.32957-.34525,2.52837,2.98743,3.81734,4.26918.29278.29114,6.3535,5.47706,6.3535,5.47706Z"/>
              <g>
                <path class="cls-11" d="M84.8974,40.82627A9.14915,9.14915,0,0,0,88.62205,45.765c.03954.03067.00284.09653-.04147.06819-2.12351-1.359-3.30783-2.36337-3.804-4.97009C84.75237,40.73561,84.85522,40.70981,84.8974,40.82627Z"/>
                <path class="cls-11" d="M82.60043,42.36515a13.72986,13.72986,0,0,0,4.01575,5.26875c.02834.02557-.01189.07611-.04264.05269-2.11015-1.60419-3.26877-2.63331-4.08838-5.24423C82.44809,42.32425,82.5481,42.25252,82.60043,42.36515Z"/>
                <path class="cls-11" d="M80.27756,44.27223a12.31865,12.31865,0,0,0,4.35437,4.9465.04849.04849,0,0,1-.05038.0828,8.74387,8.74387,0,0,1-4.36992-4.98285C80.15247,44.165,80.19707,44.12726,80.27756,44.27223Z"/>
              </g>
            </g>
            <g>
              <path class="cls-13" d="M97.3082,47.82575a31.94138,31.94138,0,0,0-2.22407-4.14941c-.879-1.17584-5.76791-4.3524-6.51383-3.33557-.96326,1.31305,1.49774,3.70277,2.856,4.71569,0,0-2.231,3.03515-.83586,5.13243S97.3082,47.82575,97.3082,47.82575Z"/>
              <path class="cls-11" d="M88.42379,40.7884c-.01458,1.83093,1.85408,3.04558,3.09832,4.12675a.15066.15066,0,0,1-.01533.24715c-.85014,1.33467-1.66077,3.46485-1.01751,5.00622a.03818.03818,0,0,1-.06772.0352c-.9144-1.55938-.28878-3.71727.736-5.11944-1.29322-1.08876-3.114-2.38917-2.75137-4.2969A.00881.00881,0,0,1,88.42379,40.7884Z"/>
            </g>
          </g>
          <g>
            <path class="cls-22" d="M114.38013,79.28h30.03s-10.29-26.04-16.69007-34.15c0,0-2.01,1.49-4.25,2.79h-.01l-.02.02c-1.85,1.07-3.86,2.01-5.02,1.88a1.52706,1.52706,0,0,1-1.30993-.89,2.6307,2.6307,0,0,1-.24-1.13,7.78441,7.78441,0,0,1,.38989-2.3c-4.3999,2.82-10.52991,6.75-11.17993,6.75-.86-.03-6.36-3.99-6.36-3.99L91.78,60.34A89.31523,89.31523,0,0,0,100.87012,63.41c.05993.02.12988.04.18994.06h.02a2.30241,2.30241,0,0,1,.12.43l.04993.16L105,76l.25.79a51.09868,51.09868,0,0,0,9.13013-.9,2.22813,2.22813,0,0,0,.25-.05c-.08008.02-.17.04-.25.06Zm.30993-3.45c1.25-.3,2.52-.57,3.76-.91C117.29,75.26,116.03,75.57,114.69006,75.83Zm-2.21-13.34c.03992-.01.08-.01.12-.02a.00979.00979,0,0,1-.01-.01H112.67c-.00988,0-.00988.01-.01989.01a.13818.13818,0,0,0-.04.03v.01h-.02c-.04,0-.07007.01-.11.01C112.46008,62.53,112.46008,62.49,112.4801,62.49Zm-8.13,1.72c-.37-.07-.74-.14-1.12-.22.38.08.75.15,1.12.21Z"/>
            <path class="cls-19" d="M104.3501,64.2v.01c-.37-.07-.74-.14-1.12-.22C103.61011,64.07,103.9801,64.14,104.3501,64.2Z"/>
            <path class="cls-19" d="M124.91016,43.95a3.74529,3.74529,0,0,1-.13013.82q-.10492.40494-.27.87a15.02763,15.02763,0,0,1-.68994,1.59c-.05.1-.11.21-.16992.33-.07007.12-.14014.25-.21009.38-1.85,1.07-3.86,2.01-5.02,1.88a1.52706,1.52706,0,0,1-1.30993-.89,2.6307,2.6307,0,0,1-.24-1.13,7.78441,7.78441,0,0,1,.38989-2.3l.01-.01a.29381.29381,0,0,1,.04-.03c.91-.59,1.75-1.12,2.43994-1.57a.05506.05506,0,0,1,.05-.03c.22-.14.43-.28.62-.4a.583.583,0,0,0,.08-.04c.27-.18.49-.32.68-.44.12-.07.24-.13995.35-.2a4.4183,4.4183,0,0,1,1.84009-.61,1.682,1.682,0,0,1,.72.09,1.08752,1.08752,0,0,1,.51.36h.01l.09.12a.59059.59059,0,0,1,.05994.14.0098.0098,0,0,1,.01.01c.03.06.05.13.08008.21A2.5025,2.5025,0,0,1,124.91016,43.95Z"/>
            <path class="cls-19" d="M112.67,62.46c-.00988,0-.00988.01-.01989.01a.13818.13818,0,0,0-.04.03.035.035,0,0,0-.02.01c-.04,0-.07007.01-.11.01-.02.00995-.02-.03,0-.03.03992-.01.08-.01.12-.02a.00979.00979,0,0,1-.01-.01Z"/>
            <path class="cls-19" d="M124.91016,43.95a3.74529,3.74529,0,0,1-.13013.82,6.06014,6.06014,0,0,1-.27.87,15.02763,15.02763,0,0,1-.68994,1.59c-.05.1-.11.21-.16992.33-.06006.11-.12012.24-.18006.36h-.01l-.02.02c-1.85,1.07-3.86,2.01-5.02,1.88a1.52706,1.52706,0,0,1-1.30993-.89c2.1499-2.33,4.15991-4.5,5.73-6.18q.15-.165.3-.33c.07995-.08.1499-.17.23-.25a1.682,1.682,0,0,1,.72.09,1.08752,1.08752,0,0,1,.51.36,1.05678,1.05678,0,0,1,.1.12.59059.59059,0,0,1,.05994.14.0098.0098,0,0,1,.01.01c.03.06.05.13.08008.21A2.5025,2.5025,0,0,1,124.91016,43.95Z"/>
          </g>
          <g>
            <path class="cls-19" d="M112.59009,62.46H112.67c-.00988,0-.00988.01-.01989.01a.13818.13818,0,0,0-.04.03c-.01-.01-.02-.02-.01-.03A.00979.00979,0,0,1,112.59009,62.46Z"/>
            <path class="cls-19" d="M114.38013,75.89a2.22813,2.22813,0,0,0,.25-.05c-.08008.02-.17.04-.25.06Z"/>
            <path class="cls-19" d="M114.69006,75.83c1.25-.3,2.52-.57,3.76-.91C117.29,75.26,116.03,75.57,114.69006,75.83Z"/>
            <path class="cls-19" d="M127.72009,45.13s-2.01,1.49-4.25,2.79h-.01l-.02.02c-1.85,1.07-3.86,2.01-5.02,1.88a1.52706,1.52706,0,0,1-1.30993-.89,2.6307,2.6307,0,0,1-.24-1.13,30.59022,30.59022,0,0,1,1.74-2.79A5.25886,5.25886,0,0,1,119.75,43.89a.05506.05506,0,0,1,.05-.03c.22-.14.43-.28.62-.4a.583.583,0,0,0,.08-.04,6.39188,6.39188,0,0,1,2.34009-.67,6.05694,6.05694,0,0,1,1.91992.13.0098.0098,0,0,1,.01.01,3.73328,3.73328,0,0,1,1.75.89,13.564,13.564,0,0,1,1.18,1.32A.12366.12366,0,0,0,127.72009,45.13Z"/>
          </g>
          <g>
            <g>
              <path class="cls-13" d="M124.52218,44.06762c-.16627.44336-2.73343,3.1274-4.81018,2.75814-.67616-.12144-.17811-3.8416-.17811-3.8416l-.02616-.283-.3612-3.96209,4.89963-2.315.70345-.29923s.02739,1.09053.04777,2.44876c.00132.063.00261.126.003.19339.00318.0768.00708.14933.00666.22106.00578.20284.0106.41006.01117.61652.0011.15711.003.31-.00194.47492-.00065.16575-.0047.32645-.00532.49225A25.62147,25.62147,0,0,1,124.52218,44.06762Z"/>
              <path class="cls-11" d="M124.79738,38.57359a7.98089,7.98089,0,0,1-5.28965,4.12754l-.3612-3.96209,4.89963-2.315.70345-.29923S124.777,37.21536,124.79738,38.57359Z"/>
            </g>
            <g>
              <path class="cls-13" d="M114.10772,32.903c-.55379,6.96048,3.55265,8.07823,5.05374,8.19593,1.36261.10686,6.01595.29774,7.28611-6.56826,1.26991-6.86607-1.79121-9.32388-4.89475-9.73327S114.6615,25.94235,114.10772,32.903Z"/>
              <g>
                <path class="cls-11" d="M115.28108,31.42364a4.58378,4.58378,0,0,0,.47276-.095.77915.77915,0,0,0,.46371-.189.24834.24834,0,0,0,.00251-.30321.61589.61589,0,0,0-.60585-.14965.90494.90494,0,0,0-.571.31466A.265.265,0,0,0,115.28108,31.42364Z"/>
                <path class="cls-11" d="M119.91432,31.52289a4.594,4.594,0,0,1-.47088-.10405.77965.77965,0,0,1-.4601-.19764.2483.2483,0,0,1,.00331-.30316.61579.61579,0,0,1,.60849-.13828.905.905,0,0,1,.56491.3254A.265.265,0,0,1,119.91432,31.52289Z"/>
                <g>
                  <g>
                    <path class="cls-11" d="M118.82392,33.27765c.00423-.01806.03637.02369.03518.04314-.03071.47466.01408,1.02343.43882,1.19532.01312.00538.01095.02911-.00485.0264C118.7709,34.45148,118.71877,33.72238,118.82392,33.27765Z"/>
                    <path class="cls-11" d="M119.26446,32.79529c.76622-.033.77575,1.50183.06591,1.53229C118.63184,34.35766,118.62234,32.82288,119.26446,32.79529Z"/>
                  </g>
                  <path class="cls-11" d="M119.56638,32.87453c.13452.086.26683.23847.42853.2534.18711.01736.32736-.1442.44852-.2995.01262-.0161.0259-.00282.02638.01754.00627.294-.105.59636-.42.64219-.28734.04182-.49548-.2173-.57064-.51252C119.46514,32.921,119.51221,32.83987,119.56638,32.87453Z"/>
                </g>
                <g>
                  <g>
                    <path class="cls-11" d="M116.18523,33.17271c-.00393-.01809-.03682.023-.036.0425.02175.47515-.03341,1.023-.46124,1.18691-.01329.005-.01157.02886.00433.02642C116.21613,34.3474,116.282,33.61933,116.18523,33.17271Z"/>
                    <path class="cls-11" d="M115.75384,32.68221c-.76547-.04742-.80391,1.48686-.09484,1.53079C116.35687,34.2562,116.39539,32.72187,115.75384,32.68221Z"/>
                  </g>
                  <path class="cls-11" d="M115.43135,32.77506c-.12323.0783-.24693.223-.392.22892-.16806.00679-.288-.16224-.3913-.32406-.0107-.01674-.02316-.00418-.02419.01607-.01545.29308.0739.60095.35424.66431.25561.05785.45067-.18916.5279-.47948C115.52039,32.82706,115.481,32.74354,115.43135,32.77506Z"/>
                </g>
                <path class="cls-11" d="M118.85865,37.03946c-.10793.117-.21349.27594-.38506.29933a1.25611,1.25611,0,0,1-.51653-.0931.01662.01662,0,0,0-.01928.02538.64032.64032,0,0,0,.61594.22675.50611.50611,0,0,0,.3517-.43918C118.91137,37.03068,118.87437,37.02242,118.85865,37.03946Z"/>
                <path class="cls-11" d="M116.88054,35.30993s-.102.70954-.10405,1.04447c0,.03135.08091.04667.19461.05394.00545.00181.00846.004.01312.0005a1.59179,1.59179,0,0,0,1.54965-.58612c.02334-.03262-.019-.06737-.04954-.04662a2.39924,2.39924,0,0,1-1.45625.40847c-.02317-.09285.2153-1.20928.16226-1.21361a2.91821,2.91821,0,0,0-.76157.16809c.16968-1.48415.576-2.929.72281-4.4093a.04564.04564,0,0,0-.0873-.02214,24.18447,24.18447,0,0,0-.98046,4.716C116.05523,35.61388,116.74614,35.3662,116.88054,35.30993Z"/>
                <g>
                  <path class="cls-11" d="M117.04236,36.33895a1.94956,1.94956,0,0,0,.77269.614.8773.8773,0,0,0,.53192.03961c.38638-.09654.40029-.44983.33327-.75309a2.0967,2.0967,0,0,0-.167-.465A2.52291,2.52291,0,0,1,117.04236,36.33895Z"/>
                  <path class="cls-23" d="M117.81505,36.953a.8773.8773,0,0,0,.53192.03961c.38638-.09654.40029-.44983.33327-.75309A.90537.90537,0,0,0,117.81505,36.953Z"/>
                </g>
              </g>
              <g>
                <path class="cls-11" d="M126.13752,35.22421a2.86255,2.86255,0,0,1-1.59183-2.33873,7.4729,7.4729,0,0,1-3.0335-2.46466c.04615.14333.37728,1.17862.56283,1.70087a7.7275,7.7275,0,0,1-5.75149-4.222,7.58313,7.58313,0,0,0-1.93412,2.78513A8.28314,8.28314,0,0,1,115.7679,26.177c1.71119-2.20894,7.45892-2.7814,10.10478.12183C128.721,29.43033,126.13752,35.22421,126.13752,35.22421Z"/>
                <path class="cls-11" d="M118.7286,31.37682a8.13066,8.13066,0,0,0,2.25677.84046c.00651.00142.00808-.00831.00188-.01a6.90758,6.90758,0,0,1-3.22592-1.97057,6.55067,6.55067,0,0,1-.945-1.33338,4.53287,4.53287,0,0,1-.57793-1.68289.03418.03418,0,0,0-.0681.00555,5.30207,5.30207,0,0,0,.3418,1.73819,4.8381,4.8381,0,0,0,.97237,1.4634,5.56209,5.56209,0,0,0,1.24418.94926"/>
              </g>
              <g>
                <g>
                  <path class="cls-13" d="M125.29885,34.97723s1.50823-2.19033,2.50116-1.654c.99272.53635-.13052,3.70381-1.28847,4.14431a1.18078,1.18078,0,0,1-1.58668-.62337Z"/>
                  <path class="cls-11" d="M127.4554,34.22318a.016.016,0,0,1,.00634.031,2.98522,2.98522,0,0,0-1.52943,1.87834.65188.65188,0,0,1,.97407-.18515c.02129.015.00122.04831-.02172.04369a.72619.72619,0,0,0-.7975.25917,3.50836,3.50836,0,0,0-.37819.64928c-.03755.0731-.16926.035-.14214-.049l.00652-.01883C125.54538,35.79383,126.34171,34.33569,127.4554,34.22318Z"/>
                </g>
                <path class="cls-5" d="M125.54175,37.30941a.50907.50907,0,1,0,.509-.509A.509.509,0,0,0,125.54175,37.30941Z"/>
              </g>
            </g>
          </g>
          <path class="cls-13" d="M127.72009,45.13s-2.01,1.49-4.25,2.79h-.01l-.02.02c-1.85,1.07-3.86,2.01-5.02,1.88a1.52706,1.52706,0,0,1-1.30993-.89,2.6307,2.6307,0,0,1-.24-1.13,7.78441,7.78441,0,0,1,.38989-2.3l.01-.01a.29381.29381,0,0,1,.04-.03A16.20478,16.20478,0,0,1,121.53,42.78a5.31512,5.31512,0,0,1,1.34009-.35,1.21993,1.21993,0,0,1,.27-.01,3.83042,3.83042,0,0,1,1.46.2h.01a6.55106,6.55106,0,0,1,3.09,2.48A.12366.12366,0,0,0,127.72009,45.13Z"/>
          <path class="cls-24" d="M104.3501,64.21c-.37-.07-.74-.14-1.12-.22.38.08.75.15,1.12.21Z"/>
          <path class="cls-24" d="M105,76c-1.36987.03-2.49.03-3.22.04-1.54.03-3.55994-10.23-2.40991-11.41a4.53564,4.53564,0,0,1,1.87988-.57Z"/>
          <g>
            <path class="cls-13" d="M102.11338,64.08563s-4.65618-.515-7.71692-.70864a18.7863,18.7863,0,0,0-5.94252.46236c-1.93076.73965-9.53327,5.06593-8.52407,6.93178.91363,1.68913,3.23637-.17916,3.23637-.17916s-2.73032,1.80358-1.30924,3.20032c1.434,1.40948,4.22253-1.31907,4.22253-1.31907S83.048,74.187,84.70716,75.53327C86.14747,76.702,89.7,73.90915,89.7,73.90915s-3.37978,1.44976-2.0215,2.7916C89.17946,78.18348,95.0322,74.665,95.0322,74.665a21.98781,21.98781,0,0,0,9.18125,1.33221C104.74821,75.96344,102.11338,64.08563,102.11338,64.08563Z"/>
            <g>
              <path class="cls-11" d="M85.231,73.08947c.22827-.20489.46157-.404.69021-.60834a15.07838,15.07838,0,0,1,1.38321-1.13459c.4769-.33438.96675-.64557,1.46723-.94338.52857-.31456,1.09219-.57669,1.61208-.90368a.03426.03426,0,1,1,.03463.05881,15.93494,15.93494,0,0,0-1.4944,1.04089c-.48152.35-.95858.70679-1.435,1.06354-.46622.34911-.95207.66344-1.42762.99869-.23693.167-.46667.34491-.69611.522a4.87993,4.87993,0,0,1-.66528.49259c-.024.01264-.04479-.01986-.0306-.03941A3.78158,3.78158,0,0,1,85.231,73.08947Z"/>
              <path class="cls-11" d="M82.60505,70.97857a23.89,23.89,0,0,1,2.51984-2.16411,16.68567,16.68567,0,0,1,2.87368-1.67838.03456.03456,0,0,1,.03463.05882c-.89815.65528-1.80756,1.29847-2.71534,1.94166-.44383.31448-2.41549,1.804-2.64135,1.934C82.62212,71.1019,82.57084,71.023,82.60505,70.97857Z"/>
              <path class="cls-11" d="M87.64662,75.13793a23.53091,23.53091,0,0,1,2.40646-1.99171,21.411,21.411,0,0,1,2.86308-1.41956c.0369-.01172.06822.03883.03466.05881-.91433.54387-1.83532,1.07008-2.72326,1.65736-.43248.286-2.091,1.52615-2.52784,1.76342C87.66021,75.22772,87.61856,75.1709,87.64662,75.13793Z"/>
            </g>
          </g>
          <g>
            <path class="cls-19" d="M101.08008,63.47a2.30241,2.30241,0,0,1,.12.43l-.14-.43Z"/>
            <path class="cls-19" d="M103.2301,63.99c.38.08.75.15,1.12.21,0,0-.01.01,0,.01C103.9801,64.14,103.61011,64.07,103.2301,63.99Z"/>
            <path class="cls-19" d="M112.59009,62.46H112.67c-.00988,0-.00988.01-.01989.01a.13818.13818,0,0,0-.04.03c-.01.01,0,.01,0,.01h-.02c-.04,0-.07007.01-.11.01-.02.00995-.02-.03,0-.03.03992-.01.08-.01.12-.02A.00979.00979,0,0,1,112.59009,62.46Z"/>
            <path class="cls-19" d="M118.45007,74.92c-1.16.34-2.42.65-3.76.91C115.94006,75.53,117.21008,75.26,118.45007,74.92Z"/>
            <path class="cls-11" d="M112.65015,62.47a.13818.13818,0,0,0-.04.03c-.01.01,0,.01,0,.01h-.02c-.04,0-.07007.01-.11.01-.02.00995-.02-.03,0-.03.03992-.01.08-.01.12-.02Z"/>
            <path class="cls-11" d="M114.30005,75.92c.03-.01.05-.01.08008-.02v.05c-.03,0-.05.01-.08008.01C114.28,75.96,114.28,75.93,114.30005,75.92Z"/>
            <path class="cls-11" d="M118.45007,74.92c-1.16.34-2.42.65-3.76.91C115.94006,75.53,117.21008,75.26,118.45007,74.92Z"/>
            <path class="cls-11" d="M101.22009,64.03c0,.02-.02.03-.04.01a2.46359,2.46359,0,0,1-.30993-.63c.05993.02.12988.04.18994.06h.02a2.30241,2.30241,0,0,1,.12.43A.68722.68722,0,0,1,101.22009,64.03Z"/>
          </g>
          <g>
            <path class="cls-25" d="M88.62424,60.05956c.92267.45786,5.13985.63191,6.37064,2.14365.8183,1.00509.73749,2.02237,1.21433,5.02654.41368,2.60617-1.74777,1.98565-2.36747.65225-.97484-2.09756-1.81388-4.39726-1.81388-4.39726a16.55923,16.55923,0,0,0-2.15851.03279Z"/>
            <g>
              <path class="cls-20" d="M91.66511,69.91885c1.45977-.92565,6.13137,4.96917,3.79719,6.53134S90.01176,70.9674,91.66511,69.91885Z"/>
              <path class="cls-20" d="M89.29813,71.1746c1.45975-.9257,6.13138,4.96912,3.79717,6.53129S87.64476,72.22311,89.29813,71.1746Z"/>
              <path class="cls-20" d="M87.62294,71.40608c1.45566-.638,4.88022,5.37028,2.54121,6.46491S85.97421,72.12866,87.62294,71.40608Z"/>
              <path class="cls-20" d="M85.90815,71.24058c1.53112-.18209,3.01739,6.36074.53748,6.71781S84.17394,71.44686,85.90815,71.24058Z"/>
              <path class="cls-11" d="M91.33178,71.95918a7.2552,7.2552,0,0,1,.726.94874c.24242.35033.48122.70556.68864,1.078a10.20494,10.20494,0,0,1,.54785,1.09971c.16383.402.28022.8284.45547,1.22386a.03425.03425,0,1,1-.06319.02575,8.85382,8.85382,0,0,0-.594-1.11543c-.20493-.36029-.39248-.731-.59375-1.09354-.19616-.35327-.383-.71146-.58488-1.06157-.20667-.35856-.4428-.701-.62851-1.07069A.02938.02938,0,0,1,91.33178,71.95918Z"/>
              <path class="cls-11" d="M88.9,71.926c.15159.44338.65182,2.1349.822,2.57249.17129.44044.355.8776.54655,1.30961.19451.43861.36573.90351.59893,1.32273a.03441.03441,0,0,1-.05984.03391c-.23516-.42268-.50689-.81777-.72178-1.25311-.21212-.42982-.40116-.86758-.57173-1.31549a22.62558,22.62558,0,0,1-.68519-2.66091C88.82331,71.89248,88.88757,71.88982,88.9,71.926Z"/>
              <path class="cls-11" d="M87.06777,72.348c.11641.63157.19314,1.27036.31232,1.9023.05881.31172.11957.62276.17662.93486.02761.151.05227.30251.07946.45355a2.71515,2.71515,0,0,0,.09746.51685c.017.0418-.06081.0627-.0677.00878a3.75443,3.75443,0,0,0-.17717-.55441c-.04391-.14657-.08628-.29334-.1234-.44187-.07718-.30826-.13806-.61771-.188-.93164a12.47947,12.47947,0,0,1-.19416-1.8774C86.983,72.31148,87.05879,72.299,87.06777,72.348Z"/>
            </g>
          </g>
          <path class="cls-21" d="M144.40834,79.28214s-9.93621-12.75866-18.44488-9.46776"/>
          <path class="cls-21" d="M127.72139,45.1324s8.375,28.57924,2.0384,34.14974"/>
          <path class="cls-21" d="M104.22323,62.96018s18.54066-.09949,20.48085,9.71228"/>
          <path class="cls-21" d="M105.251,76.79273s23.42262-28.48794,26.48164-25.32454"/>
          <path class="cls-21" d="M99.72242,48.25562s9.56342,16.68265,30.03737-.17069"/>
          <path class="cls-21" d="M117.26951,45.48768s-15.997,14.31637-16.2427,17.84067c0,0,19.198,12.71483,23.63933-16.13307"/>
          <path class="cls-21" d="M91.78386,60.3442s40.00683-12.72314,43.402-1.63892c4.32916,14.13322-20.80126,20.57686-20.80126,20.57686"/>
        </g>
        <g>
          <path class="cls-19" d="M109.83362,30.50847a5.60153,5.60153,0,0,0,.95794-3.09436c0-3.92-4.30483-7.09849-9.61169-7.09849s-9.60768,3.17845-9.60768,7.09849,4.30082,7.09857,9.60768,7.09857a11.54114,11.54114,0,0,0,6.62956-1.96408l3.31082.84178Z"/>
          <g>
            <path class="cls-11" d="M97.72394,27.41374a.99654.99654,0,1,1-.99649-.99653A.99652.99652,0,0,1,97.72394,27.41374Z"/>
            <circle class="cls-11" cx="101.18102" cy="27.41374" r="0.99653"/>
            <path class="cls-11" d="M106.63113,27.41374a.99654.99654,0,1,1-.99655-.99653A.99654.99654,0,0,1,106.63113,27.41374Z"/>
          </g>
        </g>
        <g>
          <g>
            <path class="cls-17" d="M75.14185,9.21647c-.554,4.64118-3.53829,5.48756-4.04081,6.72458a21.56778,21.56778,0,0,0-.62625,2.37255l-4.85041-.01145a20.86682,20.86682,0,0,0-.615-2.37548c-.49361-1.23936-3.477-2.0998-4.006-6.74359-.34968-3.05132,1.955-7.86223,7.08782-7.85011S75.50283,6.16679,75.14185,9.21647Z"/>
            <g>
              <rect class="cls-5" x="66.02282" y="10.83786" width="0.24876" height="7.84883" transform="translate(-1.57954 12.21943) rotate(-10.43051)"/>
              <rect class="cls-5" x="66.04675" y="14.6469" width="7.84886" height="0.24874" transform="translate(42.47353 80.7867) rotate(-79.30704)"/>
              <path class="cls-5" d="M68.06413,13.47487h-.00182c-.38023-.00084-.76338-.30383-1.07863-.853q-.02154-.03735-.0423-.07605a.58384.58384,0,0,1-.41581.22717H66.5247c-.72743-.00171-1.01487-1.50019-1.02664-1.564l.12221-.02282c.00279.01456.27977,1.46094.90468,1.46241h.00062a.50669.50669,0,0,0,.35471-.22233,2.41075,2.41075,0,0,1-.25925-1.83244.37162.37162,0,0,1,.33568-.1962h.00109a.43893.43893,0,0,1,.39967.22865,2.01244,2.01244,0,0,1-.23143,1.66126,1.72027,1.72027,0,0,1-.09949.15331q.03133.0605.065.11905c.1692.29485.52043.78953.971.79063H68.064c.30045,0,.60294-.23629.85221-.66561q.03082-.053.05978-.1085a1.39911,1.39911,0,0,1-.1707-.239,1.93921,1.93921,0,0,1-.13131-1.689.44389.44389,0,0,1,.39215-.24588h.0011a.34336.34336,0,0,1,.30589.18916,2.59773,2.59773,0,0,1-.24588,1.96084.70064.70064,0,0,0,.4858.203h.00074c.44376,0,.838-1.05873.95242-1.46691l.11977.03351c-.01786.06367-.44378,1.55767-1.07219,1.5578h-.001a.81318.81318,0,0,1-.54447-.21213q-.02187.04027-.04458.07947A1.23893,1.23893,0,0,1,68.06413,13.47487Zm1.002-2.94791a.3218.3218,0,0,0-.28452.18393,1.83162,1.83162,0,0,0,.13156,1.56458,1.3279,1.3279,0,0,0,.12283.17931,2.47688,2.47688,0,0,0,.22925-1.80124A.22021.22021,0,0,0,69.067,10.527Zm-2.10942-.005a.24686.24686,0,0,0-.228.13425,2.25239,2.25239,0,0,0,.23494,1.65714c.01858-.02782.03692-.05735.0549-.08833a1.91591,1.91591,0,0,0,.23106-1.53686.31282.31282,0,0,0-.292-.1662Z"/>
            </g>
            <g>
              <rect class="cls-16" x="65.05762" y="18.1002" width="5.98467" height="1.16957" transform="translate(0.04431 -0.16063) rotate(0.13529)"/>
              <rect class="cls-16" x="65.05442" y="19.45897" width="5.98465" height="1.16956" transform="matrix(1, 0.00236, -0.00236, 1, 0.04752, -0.16062)"/>
              <rect class="cls-16" x="65.05122" y="20.81772" width="5.98466" height="1.16956" transform="translate(0.05055 -0.16005) rotate(0.13482)"/>
            </g>
          </g>
          <g>
            <path class="cls-11" d="M62.88764-1.14955a3.41814,3.41814,0,0,1,.5791.78423,3.38053,3.38053,0,0,1,.36185.90525,3.37961,3.37961,0,0,1-.5791-.78426A3.41822,3.41822,0,0,1,62.88764-1.14955Z"/>
            <path class="cls-11" d="M58.85273,2.71086a3.41861,3.41861,0,0,1,.89362.38964,3.379,3.379,0,0,1,.766.603,3.38,3.38,0,0,1-.89363-.38962A3.4183,3.4183,0,0,1,58.85273,2.71086Z"/>
            <path class="cls-11" d="M57.28857,8.07156a3.41837,3.41837,0,0,1,.96874-.1094,3.3789,3.3789,0,0,1,.96488.13925,3.37932,3.37932,0,0,1-.96874.10937A3.41753,3.41753,0,0,1,57.28857,8.07156Z"/>
            <path class="cls-11" d="M58.61433,13.49612a3.419,3.419,0,0,1,.78423-.5791,3.38079,3.38079,0,0,1,.90525-.36185,3.379,3.379,0,0,1-.78426.5791A3.41748,3.41748,0,0,1,58.61433,13.49612Z"/>
            <path class="cls-11" d="M77.29494,13.909a3.41794,3.41794,0,0,1-.89363-.38964,3.37928,3.37928,0,0,1-.766-.603,3.37841,3.37841,0,0,1,.8936.38964A3.41737,3.41737,0,0,1,77.29494,13.909Z"/>
            <path class="cls-11" d="M78.8591,8.54832a3.41765,3.41765,0,0,1-.96872.10938,3.37963,3.37963,0,0,1-.96491-.13923,3.37955,3.37955,0,0,1,.96874-.1094A3.41878,3.41878,0,0,1,78.8591,8.54832Z"/>
            <path class="cls-11" d="M77.53333,3.12376a3.41751,3.41751,0,0,1-.78426.57907,3.37888,3.37888,0,0,1-.90522.36188,3.37961,3.37961,0,0,1,.78426-.5791A3.41781,3.41781,0,0,1,77.53333,3.12376Z"/>
            <path class="cls-11" d="M73.6729-.91118a3.41857,3.41857,0,0,1-.38964.89363,3.37965,3.37965,0,0,1-.603.766,3.37967,3.37967,0,0,1,.38964-.89363A3.41715,3.41715,0,0,1,73.6729-.91118Z"/>
          </g>
        </g>
      </g>
    </g>
    <g class="cls-26">
      <path class="cls-27" d="M-10.97432,163.16572C-.60664,147.034,33.203,157.52286,51.03425,147.10559c17.321-10.11857,14.96143-39.28661,36.70838-41.61045,20.94264-2.23785,36.42561,20.32555,54.55131,31.859,17.66987,11.24295,40.06513,18.34193,50.09581,34.72759a58.82476,58.82476,0,0,1,4.17548,53.92436c-6.82714,15.88045-24.45191,25.26281-41.75463,33.4885-15.77894,7.50151-33.44843,11.2826-52.4772,11.31022-19.84745.02879-40.63181-1.38961-58.14495-11.1496C26.17633,249.61716,15.29158,233.33768,6.02786,217.134-3.98516,199.61935-20.96583,178.71208-10.97432,163.16572Z"/>
    </g>
  </g>
</svg>
