<svg xmlns="http://www.w3.org/2000/svg" xmlns:xlink="http://www.w3.org/1999/xlink" width="67.66981mm" height="40.40003mm" viewBox="0 0 191.81995 114.51978">
  <defs>
    <style>
      .cls-1, .cls-20 {
        fill: none;
      }

      .cls-2 {
        clip-path: url(#clip-path);
      }

      .cls-3 {
        fill: #fedcd0;
      }

      .cls-4 {
        fill: #f5f5f5;
      }

      .cls-5 {
        fill: #e0e0e0;
      }

      .cls-6 {
        fill: #ebebeb;
      }

      .cls-7 {
        fill: #e8505b;
      }

      .cls-8 {
        opacity: 0.2;
      }

      .cls-9 {
        opacity: 0.3;
      }

      .cls-10 {
        fill: #fff;
      }

      .cls-11 {
        fill: #fafafa;
      }

      .cls-12 {
        fill: #263238;
      }

      .cls-13 {
        fill: #455a64;
      }

      .cls-14 {
        opacity: 0.4;
      }

      .cls-15 {
        opacity: 0.8;
      }

      .cls-16 {
        fill: #fafbef;
      }

      .cls-17 {
        fill: #448de8;
      }

      .cls-18 {
        opacity: 0.6;
      }

      .cls-19 {
        fill: #eb996e;
      }

      .cls-20 {
        stroke: #000;
        stroke-miterlimit: 10;
        stroke-width: 0.1px;
      }
    </style>
    <clipPath id="clip-path">
      <path class="cls-1" d="M161.12994,44.93994c-14.63,25.16992-51.37,27.72-61.39,28.41992-25.09,1.74-28.05-7.40991-56.84-7.96-18.96-.36011-32.6,3.31983-42.8999,6.43994v-61.98A9.86051,9.86051,0,0,1,9.85986,0H164.22C168.84,15.34985,168.71,31.88989,161.12994,44.93994Z"/>
    </clipPath>
  </defs>
  <title>cards</title>
  <g id="Layer_1" data-name="Layer 1">
    <g class="cls-2">
      <g>
        <rect class="cls-3" x="-27.96481" y="-27.28854" width="206.65263" height="119.85743"/>
        <path class="cls-4" d="M25.71706,88.69467c.1066-.77439-.98631-1.41143-1.80755-1.47762a4.65063,4.65063,0,0,1-1.16942-.101c-.80386-.28016-1.125-1.31866-1.90932-1.64951a2.2441,2.2441,0,0,0-1.83.259,4.77606,4.77606,0,0,1-1.76541.68684c-.55244.03537-1.15237-.16952-1.6357.10037-.36017.20109-.54886.6161-.88083.861a2.101,2.101,0,0,1-1.15141.31218,3.2431,3.2431,0,0,0-1.18707.194.93816.93816,0,0,0-.59433.9523Z"/>
        <path class="cls-4" d="M137.85992,20.25711c.17538-1.27405-1.6227-2.32213-2.97379-2.431a7.65217,7.65217,0,0,1-1.924-.16618c-1.32248-.46094-1.85076-2.1695-3.14121-2.7138a3.692,3.692,0,0,0-3.01071.42605,7.85764,7.85764,0,0,1-2.90447,1.13c-.90891.05817-1.89588-.27889-2.69109.16508-.59257.33085-.903,1.01367-1.44914,1.4165a3.45645,3.45645,0,0,1-1.89429.51361,5.33629,5.33629,0,0,0-1.953.31916,1.54352,1.54352,0,0,0-.9778,1.56676Z"/>
        <g>
          <path class="cls-4" d="M5.35271,52.1228l5.76442-.8808a5.8592,5.8592,0,0,1-4.88361,6.64522A5.83131,5.83131,0,1,1,5.993,46.32675Z"/>
          <path class="cls-5" d="M7.22305,46.3452l-.69986,4.46843,4.3862-.8237A5.86244,5.86244,0,0,0,7.22305,46.3452Z"/>
        </g>
        <g>
          <path class="cls-6" d="M115.0336,69.30689a5.67935,5.67935,0,0,1,1.4939.22991l.97347-1.00827,1.98252,1.20226L119.03961,71.06a5.67743,5.67743,0,0,1,.89459,1.21839l1.40068-.02459.55172,2.25207-1.25314.62561a5.67706,5.67706,0,0,1-.23007,1.49416l1.00815.97336-1.20222,1.98256-1.32927-.44385a5.68215,5.68215,0,0,1-1.21835.89447l.02445,1.40068-2.2519.55189-.62568-1.25326a5.68124,5.68124,0,0,1-1.494-.23005l-.97351,1.0082-1.98248-1.20224.4439-1.3293a5.68111,5.68111,0,0,1-.89447-1.21839l-1.40073.02459-.55175-2.252,1.25319-.62563a5.67621,5.67621,0,0,1,.23-1.49407l-1.00818-.97345,1.20222-1.98249,1.32937.44381a5.6846,5.6846,0,0,1,1.21829-.89445l-.02449-1.40068,2.2519-.55187.62585,1.25343Zm-.60212,3.27135a2.48723,2.48723,0,1,0,3.0077,1.82379A2.48719,2.48719,0,0,0,114.43148,72.57824Z"/>
          <path class="cls-6" d="M114.43148,72.57824a1.88035,1.88035,0,0,1,.6085-.09673,2.47642,2.47642,0,0,1,1.57718.54111,2.50727,2.50727,0,0,1,.72383.91971,2.546,2.546,0,0,1,.21832,1.32569,2.5495,2.5495,0,0,1-.57768,1.36632,2.53774,2.53774,0,0,1-2.936.71962,2.54942,2.54942,0,0,1-1.14412-.94461,2.54676,2.54676,0,0,1-.41936-1.27661,2.50761,2.50761,0,0,1,.21672-1.15014,2.47651,2.47651,0,0,1,1.1484-1.20884,1.87825,1.87825,0,0,1,.58425-.19552c.00528.01682-.21407.058-.55832.24456a2.4801,2.4801,0,0,0-1.08192,1.20009,2.43045,2.43045,0,0,0,.21954,2.31355,2.42915,2.42915,0,0,0,1.08839.88852,2.41008,2.41008,0,0,0,2.77533-.68024,2.43107,2.43107,0,0,0,.55417-1.29082,2.43,2.43,0,0,0-.87481-2.15285,2.47937,2.47937,0,0,0-1.51421-.564C114.64806,72.53069,114.43446,72.59569,114.43148,72.57824Z"/>
        </g>
        <g>
          <path class="cls-6" d="M59.51962,76.99422a2.05707,2.05707,0,0,1-.05243-.46214,3.7981,3.7981,0,0,0-.06192-.55493,5.43574,5.43574,0,0,0-.14577-.74564,6.989,6.989,0,0,0-.77434-1.91828,7.18607,7.18607,0,0,0-1.78381-2.05466,7.10775,7.10775,0,0,0-6.69966-1.15145,6.66042,6.66042,0,0,0-1.81218.92446A6.47645,6.47645,0,0,0,46.65991,72.5a7.05106,7.05106,0,0,0-.20348,8.35827,6.47657,6.47657,0,0,0,1.45669,1.54136,6.65973,6.65973,0,0,0,1.76546,1.01157A7.16177,7.16177,0,0,0,58.308,80.62029a6.98933,6.98933,0,0,0,.86635-1.87834,5.439,5.439,0,0,0,.18176-.7376,3.795,3.795,0,0,0,.08875-.55117,2.05611,2.05611,0,0,1,.0748-.459,2.02822,2.02822,0,0,1,.00545.466,3.25285,3.25285,0,0,1-.05176.56357,5.04685,5.04685,0,0,1-.1491.7597,6.839,6.839,0,0,1-.82713,1.95575,7.3681,7.3681,0,0,1-5.04969,3.41258,7.43483,7.43483,0,0,1-3.9027-.39766,6.98978,6.98978,0,0,1-1.866-1.05341,6.8238,6.8238,0,0,1-1.5432-1.61838,7.409,7.409,0,0,1,.21476-8.82189,6.82041,6.82041,0,0,1,1.61969-1.54107,6.991,6.991,0,0,1,1.91467-.96139,7.43461,7.43461,0,0,1,3.917-.20785,7.36844,7.36844,0,0,1,4.87826,3.65334,6.83926,6.83926,0,0,1,.7314,1.99377,5.0419,5.0419,0,0,1,.1121.76615,3.25144,3.25144,0,0,1,.02435.56551A2.02882,2.02882,0,0,1,59.51962,76.99422Z"/>
          <path class="cls-6" d="M58.06556,72.45309c.016.02247-.11509.13641-.36818.32469l-.46778.33572c-.09269.0634-.18966.13528-.2976.20288l-.358.18707a8.20383,8.20383,0,0,1-4.27322,1.07611l-.64683-.0288-.62074-.09711c-.10152-.01711-.20279-.03071-.30167-.05064l-.28982-.07718c-.19058-.05289-.37924-.09769-.5588-.15526a9.36133,9.36133,0,0,1-1.813-.83533,4.15,4.15,0,0,1-1.41134-1.15918c.03929-.045.56874.40347,1.54987.91288a10.92917,10.92917,0,0,0,1.78474.73028c.1738.05049.35575.08873.53911.13587l.27851.06909.289.04366.59319.08729.61655.02488a8.84752,8.84752,0,0,0,4.1378-.92917l.36208-.1572c.11026-.05761.21041-.11946.30672-.17267l.496-.27338C57.8881,72.50156,58.04952,72.43068,58.06556,72.45309Z"/>
          <path class="cls-6" d="M46.43729,81.29047c-.01606-.02246.11506-.1364.36815-.3247l.46776-.33568c.09272-.06345.18969-.13528.29765-.20291l.358-.18706A8.20361,8.20361,0,0,1,52.202,79.164l.64681.02877.62079.09712c.10147.01711.20276.03068.30165.05061l.28982.07719c.19057.05293.37923.09774.55879.15528a9.3623,9.3623,0,0,1,1.813.83533,4.1493,4.1493,0,0,1,1.41134,1.15915c-.03929.045-.56869-.40344-1.54984-.91285a10.9319,10.9319,0,0,0-1.78475-.7303c-.17382-.05045-.35577-.08871-.53913-.13583l-.27851-.06911-.289-.04368-.59318-.08725-.61654-.02492a8.84711,8.84711,0,0,0-4.13782.92922l-.36208.15714c-.11026.05766-.21041.11951-.30671.1727l-.496.27338C46.61472,81.242,46.45328,81.31291,46.43729,81.29047Z"/>
          <path class="cls-6" d="M59.51546,77.163a66.25965,66.25965,0,0,1-7.27136.02333,66.26839,66.26839,0,0,1-7.26233-.37628,66.29882,66.29882,0,0,1,7.272-.02323A66.30943,66.30943,0,0,1,59.51546,77.163Z"/>
          <path class="cls-6" d="M51.91356,84.07787a66.22657,66.22657,0,0,1-.02337-7.26892A66.22062,66.22062,0,0,1,52.2664,69.549a66.257,66.257,0,0,1,.02329,7.26964A66.25519,66.25519,0,0,1,51.91356,84.07787Z"/>
          <path class="cls-6" d="M51.9138,84.067a5.83357,5.83357,0,0,1-1.75229-1.72987,9.77536,9.77536,0,0,1-1.299-2.35867,8.7641,8.7641,0,0,1-.56243-3.25663,8.3367,8.3367,0,0,1,.7337-3.2238,10.1013,10.1013,0,0,1,1.41953-2.286,6.193,6.193,0,0,1,1.81313-1.665c.03922.04543-.692.64033-1.59048,1.83908a10.88437,10.88437,0,0,0-1.30423,2.25814,8.37554,8.37554,0,0,0-.67207,3.08517,8.84954,8.84954,0,0,0,.50869,3.12257,10.48239,10.48239,0,0,0,1.18371,2.3217C51.23332,83.41252,51.95428,84.023,51.9138,84.067Z"/>
          <path class="cls-6" d="M52.4292,69.551a5.8334,5.8334,0,0,1,1.75227,1.72987,9.77605,9.77605,0,0,1,1.299,2.35867,8.76451,8.76451,0,0,1,.56241,3.25663,8.3367,8.3367,0,0,1-.73368,3.2238,10.10033,10.10033,0,0,1-1.41953,2.286,6.19259,6.19259,0,0,1-1.81313,1.665c-.03921-.04545.692-.64036,1.59054-1.83911a10.88731,10.88731,0,0,0,1.30418-2.25811,8.37507,8.37507,0,0,0,.67207-3.08517,8.85006,8.85006,0,0,0-.50869-3.12257,10.48582,10.48582,0,0,0-1.18367-2.3217C53.10968,70.2054,52.3887,69.59492,52.4292,69.551Z"/>
        </g>
        <g>
          <g>
            <rect class="cls-4" x="30.20508" y="35.82477" width="12.15546" height="8.19319" transform="translate(-3.39001 3.36695) rotate(-5.07628)"/>
            <path class="cls-5" d="M41.97421,35.303a.84275.84275,0,0,1-.10306.11865l-.3109.32531-1.15879,1.18312c-.994.99964-2.35456,2.36794-3.86155,3.88353l-.03178.032-.03774-.025-.09114-.06039c-1.7993-1.19978-3.42759-2.2855-4.61809-3.07934-.5805-.39344-1.05368-.7141-1.39246-.9437l-.37549-.26124a.8685.8685,0,0,1-.12677-.09733.86887.86887,0,0,1,.13906.07881l.38691.244c.34349.22248.82326.5332,1.41186.91445l4.63594,3.05241.09114.06039-.06944.007,3.88473-3.86031,1.18348-1.15844.32542-.31077A.84682.84682,0,0,1,41.97421,35.303Z"/>
          </g>
          <path class="cls-5" d="M30.59139,44.53966c-.025-.01749.78618-1.21708,1.81144-2.679,1.02567-1.4624,1.87706-2.63336,1.902-2.61584s-.786,1.21679-1.81162,2.67921C31.46792,43.386,30.61632,44.55716,30.59139,44.53966Z"/>
          <path class="cls-5" d="M38.32045,38.78524c.02224-.02082,1.02057,1.0098,2.22955,2.30162,1.20938,1.29229,2.17141,2.35643,2.14919,2.37726s-1.02039-1.00956-2.22977-2.30184C39.26044,39.87043,38.2982,38.80607,38.32045,38.78524Z"/>
        </g>
        <path class="cls-6" d="M41.90848,18.79007c.268-1.94712-2.47995-3.54889-4.54483-3.7153a11.69291,11.69291,0,0,1-2.94041-.254c-2.02115-.70444-2.8285-3.31565-4.80069-4.14747-1.47442-.62186-3.17187-.06827-4.60124.65114a12.00967,12.00967,0,0,1-4.4389,1.727c-1.38906.08889-2.89749-.42625-4.1128.2523-.90561.50565-1.38,1.54917-2.21474,2.16482a5.28259,5.28259,0,0,1-2.895.785,8.155,8.155,0,0,0-2.98476.48775,2.359,2.359,0,0,0-1.49437,2.39447Z"/>
        <path class="cls-6" d="M87.10485,92.35224c.168-1.22044-1.5544-2.22441-2.84864-2.32872a7.32875,7.32875,0,0,1-1.843-.1592c-1.26683-.44154-1.77289-2.07822-3.009-2.5996a3.53655,3.53655,0,0,0-2.884.40813,7.5278,7.5278,0,0,1-2.78226,1.08245c-.87067.0557-1.81612-.26716-2.57787.15815-.56762.31692-.865.971-1.38818,1.35687a3.311,3.311,0,0,1-1.81459.492,5.11171,5.11171,0,0,0-1.87082.30573,1.47858,1.47858,0,0,0-.93665,1.50083Z"/>
        <path class="cls-4" d="M83.67475,9.18423c.17541-1.274-1.62267-2.32213-2.97376-2.431A7.65009,7.65009,0,0,1,78.777,6.587c-1.32246-.46092-1.85075-2.1695-3.14119-2.71377a3.69193,3.69193,0,0,0-3.01071.426,7.85842,7.85842,0,0,1-2.90447,1.13c-.90891.05816-1.89588-.2789-2.69109.1651-.59257.33085-.903,1.01365-1.44917,1.41647a3.45621,3.45621,0,0,1-1.89425.51364,5.33589,5.33589,0,0,0-1.953.31916,1.54352,1.54352,0,0,0-.9778,1.56676Z"/>
        <g>
          <g>
            <path class="cls-7" d="M72.48236,41.69683,64.76923,45.753a1.09036,1.09036,0,0,1-1.47258-.45757l-5.6143-10.676a1.0904,1.0904,0,0,1,.45752-1.47263l4.89167-2.57245,5.839,1.9115,4.06943,7.7383A1.09041,1.09041,0,0,1,72.48236,41.69683Z"/>
            <path class="cls-7" d="M63.03154,30.5744l1.58011,3.00467a1.01419,1.01419,0,0,0,1.36954.42567l2.88932-1.51884Z"/>
            <g class="cls-8">
              <path d="M64.78973,33.822a1.12761,1.12761,0,0,0,1.30084.552,1.04158,1.04158,0,0,0,.10624-.02856c.41267-.13093,3.12831-.99513,3.0983-1.05215l-.4246-.80741-2.88908,1.5193A1.039,1.039,0,0,1,64.78973,33.822Z"/>
            </g>
            <g class="cls-9">
              <path class="cls-10" d="M63.03154,30.5744l1.58011,3.00467a1.01419,1.01419,0,0,0,1.36954.42567l2.88932-1.51884Z"/>
            </g>
          </g>
          <path class="cls-11" d="M63.90039,33.79658A12.93607,12.93607,0,0,1,62.153,34.80473a12.935,12.935,0,0,1-1.821.86843,12.92843,12.92843,0,0,1,1.74751-1.00825A12.93146,12.93146,0,0,1,63.90039,33.79658Z"/>
          <path class="cls-11" d="M67.09838,34.28345c.02029.03859-1.27806.76132-2.89964,1.61407-1.6221.853-2.95309,1.513-2.97341,1.47445s1.27778-.76123,2.89988-1.61427C65.74677,34.905,67.07807,34.24483,67.09838,34.28345Z"/>
          <path class="cls-11" d="M68.37329,35.42387c.02031.03864-1.39647.82364-3.16405,1.75317-1.76821.92987-3.21756,1.65214-3.2379,1.6135s1.39618-.82343,3.16439-1.75329C66.90329,36.10772,68.353,35.3853,68.37329,35.42387Z"/>
          <path class="cls-11" d="M69.07712,36.76227c.02034.03864-1.39647.82367-3.164,1.75317-1.76823.92989-3.21761,1.65212-3.23794,1.6135s1.39618-.82345,3.16439-1.75332C67.60712,37.44609,69.05683,36.72368,69.07712,36.76227Z"/>
          <path class="cls-11" d="M69.781,38.10065c.02031.03864-1.39647.82367-3.164,1.7532-1.76821.92989-3.21761,1.65211-3.23792,1.6135s1.39618-.82346,3.16439-1.75332C68.311,38.7845,69.76068,38.06208,69.781,38.10065Z"/>
          <path class="cls-11" d="M70.48482,39.43907c.02031.03862-1.39649.82365-3.16405,1.75318-1.76821.92986-3.21759,1.65212-3.2379,1.6135s1.39616-.82346,3.16437-1.75332C69.0148,40.1229,70.46451,39.40046,70.48482,39.43907Z"/>
        </g>
        <g>
          <g>
            <g>
              <rect class="cls-12" x="43.18582" y="50.04613" width="0.78085" height="1.21861" transform="translate(-21.23974 66.89581) rotate(-63.36281)"/>
              <path class="cls-13" d="M43.72015,49.82239,42.99907,51.26,41.825,50.67113a3.06722,3.06722,0,0,1,.72111-1.43762Z"/>
            </g>
            <path class="cls-12" d="M43.11977,51.01938a5.04269,5.04269,0,0,1-1.2269-.60671,5.04653,5.04653,0,0,1,1.2269.60671Z"/>
            <path class="cls-12" d="M43.25722,50.74533a2.72748,2.72748,0,0,1-.63985-.28862,3.62384,3.62384,0,0,1-.60208-.35946,2.11708,2.11708,0,0,1,.64574.277A2.61812,2.61812,0,0,1,43.25722,50.74533Z"/>
            <path class="cls-12" d="M43.44018,50.3806a2.76221,2.76221,0,0,1-.64512-.29486,3.27187,3.27187,0,0,1-.60477-.3698,2.33684,2.33684,0,0,1,.64889.28761A2.69229,2.69229,0,0,1,43.44018,50.3806Z"/>
            <path class="cls-12" d="M43.60432,50.04179a5.07714,5.07714,0,0,1-1.225-.62033,5.07663,5.07663,0,0,1,1.225.62033Z"/>
          </g>
          <g>
            <g>
              <rect class="cls-12" x="52.16833" y="46.43431" width="0.78083" height="1.21859" transform="translate(23.26697 -17.12426) rotate(23.63325)"/>
              <path class="cls-13" d="M53.39819,47.14368l-1.47347-.6448.52656-1.20332a3.06781,3.06781,0,0,1,1.47347.64478Z"/>
            </g>
            <path class="cls-12" d="M52.17138,46.60682a5.04527,5.04527,0,0,1,.54157-1.257,5.0423,5.0423,0,0,1-.54157,1.257Z"/>
            <path class="cls-12" d="M52.45226,46.72972a2.7263,2.7263,0,0,1,.25469-.6541,3.621,3.621,0,0,1,.32741-.62,2.1168,2.1168,0,0,1-.24281.65933A2.61789,2.61789,0,0,1,52.45226,46.72972Z"/>
            <path class="cls-12" d="M52.82608,46.89329a2.761,2.761,0,0,1,.26064-.65962,3.27335,3.27335,0,0,1,.33759-.62334,2.33594,2.33594,0,0,1-.25321.66308A2.69292,2.69292,0,0,1,52.82608,46.89329Z"/>
            <path class="cls-12" d="M53.173,47.03947a5.07687,5.07687,0,0,1,.55531-1.25575,5.0771,5.0771,0,0,1-.55531,1.25575Z"/>
          </g>
          <g>
            <g>
              <rect class="cls-12" x="46.91678" y="46.19532" width="0.92436" height="1.44256" transform="translate(-14.42094 21.88252) rotate(-22.66704)"/>
              <path class="cls-7" d="M48.15111,46.28l-1.75686.73375-.5992-1.43478a3.63112,3.63112,0,0,1,1.75685-.73372Z"/>
            </g>
            <path class="cls-12" d="M47.57508,44.84265a2.06746,2.06746,0,0,1-1.78276.75458,3.25354,3.25354,0,0,0,1.78276-.75458Z"/>
            <path class="cls-12" d="M46.973,46.76733a4.78823,4.78823,0,0,1-.51385-1.23036,4.78777,4.78777,0,0,1,.51385,1.23036Z"/>
            <path class="cls-12" d="M47.31071,46.63607a4.83152,4.83152,0,0,1-.51614-1.23591,4.83144,4.83144,0,0,1,.51614,1.23591Z"/>
            <path class="cls-12" d="M47.64269,46.49089a4.82884,4.82884,0,0,1-.51617-1.23591,4.83334,4.83334,0,0,1,.51617,1.23591Z"/>
            <path class="cls-12" d="M47.921,46.37464a5.639,5.639,0,0,1-.55789-1.33585,5.64108,5.64108,0,0,1,.55789,1.33585Z"/>
            <path class="cls-12" d="M46.65454,46.89358a5.63706,5.63706,0,0,1-.55792-1.33587,5.64362,5.64362,0,0,1,.55792,1.33587Z"/>
          </g>
          <circle class="cls-7" cx="49.97354" cy="53.41939" r="6.72494"/>
          <g>
            <circle class="cls-11" cx="49.9529" cy="53.36996" r="5.64795"/>
            <path class="cls-12" d="M55.16463,51.19337s-.01635-.02674-.0439-.08073l-.12-.24025-.08729-.17734c-.035-.06371-.0796-.12992-.12426-.20355a4.10835,4.10835,0,0,0-.33353-.4917,5.38835,5.38835,0,0,0-1.15471-1.13924,5.64032,5.64032,0,0,0-4.51608-.97379,5.20959,5.20959,0,0,0-.6859.19789c-.11315.04279-.23015.07888-.34268.128l-.335.1608c-.0557.028-.11389.05186-.16816.08345l-.16137.09864c-.10713.06722-.21858.12964-.32433.202a5.93078,5.93078,0,0,0-.605.49062,5.843,5.843,0,0,0-.5505.5782c-.08443.10486-.1603.2176-.2416.32691a2.857,2.857,0,0,0-.22217.34533,5.1262,5.1262,0,0,0-.6344,1.55435,5.42485,5.42485,0,0,0-.14415,1.73268,5.55209,5.55209,0,0,0,1.362,3.26227,5.42617,5.42617,0,0,0,1.33384,1.116,5.1261,5.1261,0,0,0,1.55172.6417,2.85758,2.85758,0,0,0,.40187.08481c.1349.019.26846.0443.4024.058a5.84238,5.84238,0,0,0,.79836.015,5.92667,5.92667,0,0,0,.7743-.08543c.12581-.02437.24857-.05976.37171-.0887l.18365-.04545c.06057-.0164.11848-.041.17752-.06094l.3499-.1252c.114-.04557.22195-.10335.33195-.15377a5.21936,5.21936,0,0,0,.623-.34877,5.64047,5.64047,0,0,0,2.48183-3.89666,5.38861,5.38861,0,0,0,.00139-1.622,4.10932,4.10932,0,0,0-.11523-.58274c-.021-.08354-.03673-.16178-.05743-.23144l-.06476-.18673-.08646-.25423c-.019-.05752-.02654-.08794-.02654-.08794s.01343.028.03539.0844l.09539.25163.06928.186c.0222.06952.03948.14771.062.23127a4.01789,4.01789,0,0,1,.12431.58437,5.353,5.353,0,0,1,.01432,1.63475,5.67954,5.67954,0,0,1-2.49106,3.954,5.28846,5.28846,0,0,1-.63042.35582c-.11135.05149-.22071.11035-.33622.1569l-.35451.12809c-.05984.02043-.11855.04545-.18.06227l-.1862.04672c-.12486.02978-.24939.06591-.377.09095a6.00635,6.00635,0,0,1-.78593.08866,5.91567,5.91567,0,0,1-.81084-.01358c-.13607-.01362-.27175-.03892-.40882-.05806a2.92947,2.92947,0,0,1-.40837-.08543,5.20836,5.20836,0,0,1-1.57749-.6499,5.50909,5.50909,0,0,1-1.35675-1.13334,5.63682,5.63682,0,0,1-1.3846-3.31635,5.5083,5.5083,0,0,1,.1479-1.76114,5.207,5.207,0,0,1,.64671-1.57842,2.91747,2.91747,0,0,1,.22628-.35039c.08275-.11093.16008-.22523.24606-.33154a5.9133,5.9133,0,0,1,.56026-.58614,6.00645,6.00645,0,0,1,.61543-.49657c.10751-.07315.22078-.13631.32968-.2042l.1641-.09958c.05515-.03187.1142-.056.17079-.08423l.34026-.16209c.11432-.04947.233-.08581.34794-.12883a5.27842,5.27842,0,0,1,.69618-.19824,5.67955,5.67955,0,0,1,4.5633,1.00752,5.353,5.353,0,0,1,1.15274,1.15942,4.01214,4.01214,0,0,1,.32827.49925c.04366.07475.08711.142.12094.20668l.08364.18006.11193.24478C55.15418,51.16414,55.16463,51.19337,55.16463,51.19337Z"/>
          </g>
          <g>
            <path class="cls-12" d="M54.36944,51.42975a3.21428,3.21428,0,0,1-.88441.31,3.21249,3.21249,0,0,1,.80928-.47263,2.06054,2.06054,0,0,1,.88415-.30984C55.20384,51.01228,54.84142,51.22391,54.36944,51.42975Z"/>
            <path class="cls-12" d="M54.45738,55.096a3.22716,3.22716,0,0,1-.8467-.40165,3.22762,3.22762,0,0,1,.90764.23332c.48789.1647.86709.34454.84646.40161A2.05838,2.05838,0,0,1,54.45738,55.096Z"/>
            <path class="cls-12" d="M51.94171,57.7648a3.206,3.206,0,0,1-.31933-.88057,3.21061,3.21061,0,0,1,.48111.80369,2.063,2.063,0,0,1,.31964.88119C52.36834,58.59482,52.15267,58.23453,51.94171,57.7648Z"/>
            <path class="cls-12" d="M48.27659,57.89319a3.2273,3.2273,0,0,1,.39236-.851,3.22664,3.22664,0,0,1-.22336.91015c-.15932.48966-.335.87079-.39229.85079A2.05789,2.05789,0,0,1,48.27659,57.89319Z"/>
            <path class="cls-12" d="M45.58026,55.40706a3.2061,3.2061,0,0,1,.87691-.32877,3.20383,3.20383,0,0,1-.79826.48971,2.06654,2.06654,0,0,1-.87787.3292C44.75442,55.84286,45.113,55.62306,45.58026,55.40706Z"/>
            <path class="cls-12" d="M45.41151,51.74354a3.22782,3.22782,0,0,1,.8553.383,3.2248,3.2248,0,0,1-.91254-.21339c-.49138-.15394-.87442-.32547-.85507-.383A2.05813,2.05813,0,0,1,45.41151,51.74354Z"/>
            <path class="cls-12" d="M47.86786,49.02a3.21548,3.21548,0,0,1,.33843.87371,3.21182,3.21182,0,0,1-.49851-.79337c-.24088-.45511-.39255-.84652-.33847-.87381S47.6467,48.55477,47.86786,49.02Z"/>
            <path class="cls-12" d="M51.52935,48.811a3.22744,3.22744,0,0,1-.37367.85944,3.22568,3.22568,0,0,1,.20343-.91481c.14857-.493.31589-.87794.3736-.85918A2.05772,2.05772,0,0,1,51.52935,48.811Z"/>
            <path class="cls-12" d="M54.27966,51.23717a3.21921,3.21921,0,0,1-.87015.348,3.21738,3.21738,0,0,1,.78811-.50709c.45249-.2458.84215-.40165.86991-.34786S54.7423,51.01111,54.27966,51.23717Z"/>
          </g>
          <path class="cls-10" d="M45.57443,48.57674a2.61542,2.61542,0,0,1-.21934.23418,7.02484,7.02484,0,0,0-.56177.66536,6.50531,6.50531,0,0,0-1.1246,5.43758,7.02959,7.02959,0,0,0,.25176.83356,2.6136,2.6136,0,0,1,.10841.302.28286.28286,0,0,1-.0416-.07227c-.02337-.04918-.06161-.12027-.10053-.21626a5.75007,5.75007,0,0,1-.28205-.83113,6.32437,6.32437,0,0,1,1.13611-5.49338,5.75172,5.75172,0,0,1,.58863-.65111c.07384-.07269.13716-.12278.17812-.15867A.28111.28111,0,0,1,45.57443,48.57674Z"/>
          <path class="cls-10" d="M47.16616,47.51733a9.21579,9.21579,0,0,1-1.15882.67054,3.28546,3.28546,0,0,1,1.15882-.67054Z"/>
          <g class="cls-14">
            <path d="M47.09588,58.24215s4.48074,3.13421,7.75871-.7986C58.276,53.33876,53.67871,49.124,53.67871,49.124a5.759,5.759,0,0,1,.66669,7.798,5.131,5.131,0,0,1-2.85388,1.88272A5.81425,5.81425,0,0,1,47.09588,58.24215Z"/>
          </g>
          <path class="cls-5" d="M50.24892,49.99337a19.30611,19.30611,0,0,1,.88738,2.31984,3.08842,3.08842,0,0,1,.17445.87866,1.16347,1.16347,0,0,1-.29288.82586.72664.72664,0,0,1-.82231.16924Z"/>
          <g>
            <g>
              <polygon class="cls-7" points="49.668 53.006 50.23 49.026 50.591 53.104 50.08 53.522 49.668 53.006"/>
              <g class="cls-14">
                <polygon points="50.23 49.026 50.186 52.871 50.591 53.104 50.23 49.026"/>
              </g>
            </g>
            <g>
              <g>
                <path class="cls-11" d="M50.68917,53.26781a.66063.66063,0,1,1-.8642-.355A.66063.66063,0,0,1,50.68917,53.26781Z"/>
                <path class="cls-12" d="M50.68917,53.26781c-.00769.00354-.031-.05076-.09578-.13a.65973.65973,0,0,0-.3557-.22207.62067.62067,0,1,0,.38455.92064.65976.65976,0,0,0,.09207-.40906c-.0108-.10178-.033-.1565-.02514-.15951a.32532.32532,0,0,1,.061.15409.65749.65749,0,0,1-.07085.44748.69091.69091,0,0,1-.56628.35523.70082.70082,0,0,1-.50936-1.21964.6908.6908,0,0,1,.65066-.15306.65748.65748,0,0,1,.3681.26416A.32544.32544,0,0,1,50.68917,53.26781Z"/>
              </g>
              <path class="cls-13" d="M50.53327,53.33293a.49168.49168,0,1,1-.64318-.26423A.4917.4917,0,0,1,50.53327,53.33293Z"/>
            </g>
          </g>
        </g>
        <g>
          <path class="cls-7" d="M41.19915,70.041a.69556.69556,0,0,0,.29675-.1992.63692.63692,0,0,0,.14462-.39993,1.03127,1.03127,0,0,0-.04753-.27362l-.07874-.31312c-.22092-.89189-.538-2.17172-.92907-3.75067l-.30555-1.24336-.16223-.66149a1.934,1.934,0,0,0-.09406-.326.57875.57875,0,0,0-.21731-.24023.54565.54565,0,0,0-.31735-.07841,2.85076,2.85076,0,0,0-.34958.08058l-.73074.18981q-.74192.19253-1.52546.3958l-6.794,1.756a.57184.57184,0,0,0-.40763.64748l.21233.88614.4211,1.74022c.27543,1.141.54114,2.24153.7943,3.29023l.09418.39074a.60073.60073,0,0,0,.17.31768.54759.54759,0,0,0,.31628.15035.94982.94982,0,0,0,.35971-.05491l1.4403-.36815,2.58578-.65893,3.7462-.94594,1.02-.25133.266-.06241a.54323.54323,0,0,1,.09164-.01733.5355.5355,0,0,1-.08858.02916l-.26306.07393-1.01443.273c-.88853.23366-2.1636.569-3.73674.98275-.78986.20587-1.65436.43121-2.58213.67307q-.69639.181-1.43881.37394a1.04318,1.04318,0,0,1-.39805.0589.65462.65462,0,0,1-.37871-.17834.71052.71052,0,0,1-.20133-.36978l-.0953-.39049c-.25531-1.04813-.52327-2.14819-.80109-3.28856q-.2079-.85551-.42282-1.73979l-.2146-.89488a.69151.69151,0,0,1,.4956-.78252c2.41042-.61957,4.70667-1.20977,6.79631-1.74687l1.52671-.3909.73145-.18706a2.79578,2.79578,0,0,1,.36868-.082.6453.6453,0,0,1,.37546.0943.67713.67713,0,0,1,.25343.28243,1.9746,1.9746,0,0,1,.09936.34578l.15879.66232.298,1.24521c.37561,1.58267.68005,2.86556.89221,3.75958l.07343.31441a1.05312,1.05312,0,0,1,.04314.28387.65729.65729,0,0,1-.16188.41508.59946.59946,0,0,1-.22489.1582A.34826.34826,0,0,1,41.19915,70.041Z"/>
          <polygon class="cls-7" points="35.866 66.742 37.322 67.182 36.23 68.268 35.138 69.355 34.774 67.829 34.409 66.302 35.866 66.742"/>
        </g>
        <g>
          <g>
            <g>
              <rect class="cls-6" x="14.68768" y="56.33876" width="7.89436" height="6.3113" transform="translate(-14.3849 6.61211) rotate(-14.58908)"/>
              <path class="cls-12" d="M21.65991,55.44627l-.03675.01078-.10689.02906-.41444.11035c-.36289.09578-.892.23541-1.56272.41236-1.34129.35169-3.24762.85154-5.51384,1.44573l.01465-.025c.47385,1.81775,1.01707,3.90153,1.59188,6.10657l.00016.00065-.02788-.0164c2.82871-.73475,5.45748-1.41759,7.64075-1.98471l-.0136.02321c-.47473-1.84019-.86823-3.36553-1.14345-4.4323l-.31749-1.23933-.08292-.32717c-.01859-.07427-.02746-.11382-.02746-.11382s.01087.03616.03049.10883l.08622.32258c.0754.28525.18554.70177.3259,1.23268.28053,1.0684.68163,2.596,1.16554,4.43892l.00482.01842-.01847.00481c-2.18269.56924-4.81082,1.25464-7.63882,1.99219l-.02217.00578-.00576-.02218-.00017-.00064L14.00028,57.4399,13.99512,57.42l.01983-.00512c2.27362-.58743,4.18616-1.08156,5.53185-1.42921l1.561-.40067.41176-.10467.10531-.02619Z"/>
            </g>
            <rect class="cls-7" x="14.96001" y="56.73736" width="7.33973" height="5.5167" transform="translate(-14.38518 6.61076) rotate(-14.58886)"/>
            <polygon class="cls-7" points="15.773 63.089 17.39 59.125 19.468 60.801 20.221 59.42 22.876 61.241 15.773 63.089"/>
            <path class="cls-7" d="M19.47366,58.14889a.57792.57792,0,1,1-.70483-.4137A.57792.57792,0,0,1,19.47366,58.14889Z"/>
            <g class="cls-8">
              <polygon points="15.773 63.089 17.39 59.125 19.468 60.801 20.221 59.42 22.876 61.241 15.773 63.089"/>
            </g>
            <g class="cls-8">
              <path d="M19.47366,58.14889a.57792.57792,0,1,1-.70483-.4137A.57792.57792,0,0,1,19.47366,58.14889Z"/>
            </g>
          </g>
          <g>
            <g>
              <rect class="cls-6" x="18.13922" y="50.57149" width="11.92871" height="9.53668" transform="translate(-3.83138 1.83172) rotate(-4.03188)"/>
              <path class="cls-12" d="M29.7179,50.1639s-.01993.00263-.05757.00586l-.16684.01355-.64619.04925-2.43552.17989c-2.08983.1511-5.06.36583-8.59089.62107l.0287-.033c.20066,2.83137.43067,6.07715.67408,9.51179l.00007.001-.03689-.032c4.40539-.30836,8.4994-.59493,11.89956-.83291l-.02665.03068c-.19571-2.86494-.358-5.23972-.47145-6.90058-.05535-.83077-.09877-1.48252-.12854-1.92886l-.03257-.509c-.00708-.11547-.0093-.17669-.0093-.17669s.00612.05673.01517.1701l.03874.50309.14285,1.92134c.12095,1.66471.29386,4.045.50248,6.91654l.00208.02868-.02877.002c-3.39992.24133-7.49365.53189-11.89875.84455l-.03451.00247-.00244-.03456-.00007-.001c-.24081-3.43481-.46835-6.68078-.66686-9.51229l-.00215-.03095.03088-.00213,8.613-.59156c1.04283-.07,1.86547-.12519,2.42971-.163l.64065-.04146.16369-.00975C29.70014,50.164,29.7179,50.1639,29.7179,50.1639Z"/>
            </g>
            <rect class="cls-7" x="18.55049" y="51.17238" width="11.09065" height="8.33597" transform="translate(-3.8314 1.83116) rotate(-4.03185)"/>
            <polygon class="cls-7" points="18.857 59.888 22.357 54.447 24.979 57.512 26.48 55.669 29.92 59.108 18.857 59.888"/>
            <path class="cls-7" d="M25.7221,53.57333a.87326.87326,0,1,1-.9325-.80967A.87327.87327,0,0,1,25.7221,53.57333Z"/>
            <g class="cls-8">
              <polygon points="18.857 59.888 22.357 54.447 24.979 57.512 26.48 55.669 29.92 59.108 18.857 59.888"/>
            </g>
            <g class="cls-8">
              <path d="M25.7221,53.57333a.87326.87326,0,1,1-.9325-.80967A.87327.87327,0,0,1,25.7221,53.57333Z"/>
            </g>
          </g>
        </g>
        <g>
          <g>
            <path class="cls-7" d="M6.97847,64.72359A3.5382,3.5382,0,1,0,3.113,69.28051l.26545.85222,2.96079-.92222s-.1311-.48388-.25746-.91289A3.53707,3.53707,0,0,0,6.97847,64.72359Z"/>
            <path class="cls-12" d="M5.26415,69.53s-.004-.01433-.00968-.0427l-.02411-.12617c-.02029-.11105-.05045-.27484-.08371-.48675-.03305-.21189-.07035-.472-.09437-.77617A5.24548,5.24548,0,0,1,5.066,67.06259a3.364,3.364,0,0,1,.12037-.592.65216.65216,0,0,1,.16632-.2794.36486.36486,0,0,1,.324-.08943.24114.24114,0,0,1,.14858.10037.247.247,0,0,1,.03989.17777.50311.50311,0,0,1-.19089.30611.96768.96768,0,0,1-.71778.16907A.98042.98042,0,0,1,4.304,66.44a.74059.74059,0,0,1-.14135-.38347.318.318,0,0,1,.23383-.33037.22851.22851,0,0,1,.20905.06559.32048.32048,0,0,1,.092.19983.69155.69155,0,0,1-.133.40966,1.05531,1.05531,0,0,1-.71623.4737.91959.91959,0,0,1-.80491-.28349.53455.53455,0,0,1-.15028-.40208.27073.27073,0,0,1,.1016-.19555.26532.26532,0,0,1,.214-.04566.35221.35221,0,0,1,.18874.10383.55106.55106,0,0,1,.11214.17855,1.01974,1.01974,0,0,1,.06894.40206,1.05337,1.05337,0,0,1-.29971.71485,1.07288,1.07288,0,0,1-.6691.31386.56122.56122,0,0,1-.35434-.0666.274.274,0,0,1-.12011-.31955.23105.23105,0,0,1,.12871-.12149.33314.33314,0,0,1,.17089-.01888.5118.5118,0,0,1,.279.1674c.142.15676.26556.31355.38755.46206.48221.59673.84862,1.098,1.09805,1.4468.1247.17445.21935.31144.2832.4045l.07176.10648c.016.02416.02321.03716.02321.03716s-.0097-.0113-.02686-.0346l-.07528-.104-.28974-.39965c-.25352-.34552-.62347-.84371-1.10818-1.43726-.12195-.14706-.24819-.30528-.38775-.45812a.48.48,0,0,0-.26-.15629.212.212,0,0,0-.15418.39425.5254.5254,0,0,0,.33094.05967,1.03456,1.03456,0,0,0,.64375-.30389,1.0131,1.0131,0,0,0,.28672-.68775.97819.97819,0,0,0-.06644-.38512A.38442.38442,0,0,0,3.20087,65.99a.22246.22246,0,0,0-.18018.03788.22761.22761,0,0,0-.08476.1656.49215.49215,0,0,0,.13972.36908.877.877,0,0,0,.76648.26937,1.0129,1.0129,0,0,0,.68622-.4543.6522.6522,0,0,0,.12641-.38228.27766.27766,0,0,0-.07924-.1731.18533.18533,0,0,0-.17052-.05435.2486.2486,0,0,0-.151.10651.30522.30522,0,0,0-.0492.18128.70115.70115,0,0,0,.13348.36086.9404.9404,0,0,0,.62449.399.93068.93068,0,0,0,.68772-.15937.467.467,0,0,0,.17789-.28117.20891.20891,0,0,0-.16006-.23817.33015.33015,0,0,0-.29206.0801.61966.61966,0,0,0-.15808.26446,3.3563,3.3563,0,0,0-.12163.585,5.28444,5.28444,0,0,0-.02,1.03c.02163.30332.05642.56333.08687.77539l.07558.48781.01989.12689C5.2631,69.5151,5.26415,69.53,5.26415,69.53Z"/>
            <path class="cls-12" d="M6.28205,69.82965l-2.54215.79182a.19982.19982,0,0,1-.25019-.13136h0a.1998.1998,0,0,1,.13136-.25022l2.54212-.79182a.19984.19984,0,0,1,.25022.13136h0A.19982.19982,0,0,1,6.28205,69.82965Z"/>
            <path class="cls-12" d="M6.33393,69.99626l-2.54212.79181a.19982.19982,0,0,0,.11884.38156l.279-.08691.58969.58934a.25678.25678,0,0,0,.25778.06349l.90838-.28294a.25664.25664,0,0,0,.17655-.20128l.141-.81442.18971-.05909a.19982.19982,0,1,0-.11886-.38156Z"/>
          </g>
          <g class="cls-8">
            <path class="cls-10" d="M.75969,64.29928a2.60174,2.60174,0,0,1,.53643-.66038,1.87826,1.87826,0,0,1,.47351-.31348c.12371-.0531.20032-.06337.21488-.0384.03376.05675-.194.22742-.46725.56535a2.90974,2.90974,0,0,0-.41657,3.1225c.17516.39773.35013.6221.30267.668-.02059.02028-.09183-.00971-.19726-.09339a1.87774,1.87774,0,0,1-.37478-.42658,2.60219,2.60219,0,0,1-.34455-.778A2.75556,2.75556,0,0,1,.419,65.29474"/>
          </g>
          <g class="cls-8">
            <path class="cls-10" d="M2.84232,63.1797c-.21476.06471-.42192.06505-.47915-.04156a.18323.18323,0,0,1,.05676-.19638.71012.71012,0,0,1,.63937-.19555c.09167.02364.1495.07184.15693.131"/>
          </g>
          <path class="cls-13" d="M6.09353,71.32627c-.00107.00724-.07408-.00208-.19139.00062a1.48187,1.48187,0,0,0-.851.29231c-.0942.07-.146.12218-.15133.11712a.544.544,0,0,1,.13231-.14126,1.29593,1.29593,0,0,1,.87015-.29892A.54508.54508,0,0,1,6.09353,71.32627Z"/>
          <path class="cls-13" d="M6.27123,70.44384c.00356.01147-.45313.16391-1.01994.34046-.567.17659-1.02937.31044-1.03293.299s.453-.16386,1.02-.34048C5.80517,70.56627,6.26767,70.4324,6.27123,70.44384Z"/>
          <path class="cls-13" d="M6.206,70.79493a1.50037,1.50037,0,0,1-.24241.10343c-.15191.058-.36352.13367-.59938.21081s-.45138.14118-.60824.18413a1.497,1.497,0,0,1-.25665.05976,1.67476,1.67476,0,0,1,.24781-.08918l.60358-.196.60263-.19849A1.67379,1.67379,0,0,1,6.206,70.79493Z"/>
        </g>
        <g>
          <g>
            <g>
              <path class="cls-7" d="M82.39488,48.8855a6.92106,6.92106,0,0,0-9.60145.58865c-.91207,1.08053-1.5297,2.49483-2.78257,3.15036-1.92091,1.00507-4.24488-.26384-6.405-.07926a4.92823,4.92823,0,0,0-4.29635,5.308c.14235,1.13609.68115,2.3494.147,3.36218-.68172,1.29267-2.65247,1.34409-3.48147,2.54762a2.62314,2.62314,0,0,0,.92033,3.44148,6.148,6.148,0,0,0,3.807.782,14.78009,14.78009,0,0,1,3.94359.04832,27.67884,27.67884,0,0,1,3.98731,1.73078c3.24356,1.30029,7.04114.576,10.04564-1.20845a25.30835,25.30835,0,0,0,7.35531-7.36131"/>
              <g class="cls-15">
                <path class="cls-10" d="M82.39488,48.8855a6.92106,6.92106,0,0,0-9.60145.58865c-.91207,1.08053-1.5297,2.49483-2.78257,3.15036-1.92091,1.00507-4.24488-.26384-6.405-.07926a4.92823,4.92823,0,0,0-4.29635,5.308c.14235,1.13609.68115,2.3494.147,3.36218-.68172,1.29267-2.65247,1.34409-3.48147,2.54762a2.62314,2.62314,0,0,0,.92033,3.44148,6.148,6.148,0,0,0,3.807.782,14.78009,14.78009,0,0,1,3.94359.04832,27.67884,27.67884,0,0,1,3.98731,1.73078c3.24356,1.30029,7.04114.576,10.04564-1.20845a25.30835,25.30835,0,0,0,7.35531-7.36131"/>
              </g>
            </g>
            <path class="cls-7" d="M81.75705,52.20106a5.51765,5.51765,0,0,0-7.92257.58812c-1.10275,1.4603-1.73434,3.6916-3.54774,3.93685-1.22969.1663-2.39427-.75917-3.63149-.66406-1.64717.1266-2.646,2.13438-2.22237,3.73115A5.97821,5.97821,0,0,0,67.735,63.28831a13.24578,13.24578,0,0,0,15.61888-3.14549"/>
          </g>
          <g>
            <g>
              <polyline class="cls-16" points="130.438 57.543 127.673 53.624 131.269 51.074 133.788 56.19 130.604 57.508"/>
              <g>
                <g>
                  <path class="cls-17" d="M133.63805,55.48924l1.95616,3.52989s4.24495-.80278,4.67-.18563l-6.7081,4.03865-3.27362-5.375Z"/>
                  <g class="cls-18">
                    <path class="cls-10" d="M133.345,59.97731a.31979.31979,0,0,0-.00119.4267.30741.30741,0,0,0,.42292.00488.33731.33731,0,0,0-.0011-.45182.31894.31894,0,0,0-.44049.04366"/>
                  </g>
                  <g class="cls-18">
                    <path class="cls-10" d="M133.55611,62.87217l-.30877-.55468,6.54711-3.66481s.37685-.04985.46976.18082Z"/>
                  </g>
                  <path class="cls-12" d="M135.68239,58.91958c.01866.0334-.13621.14687-.23395.34922-.10309.19983-.1007.39172-.13867.39688-.034.01183-.10309-.2134.01959-.45633C135.44985,58.96541,135.67139,58.88524,135.68239,58.91958Z"/>
                  <path class="cls-12" d="M136.56118,58.787c.02663.02722-.08172.16838-.10954.37389-.03391.20468.02822.37138-.00525.38959-.02768.02368-.16587-.15452-.12637-.40938C136.35725,58.88591,136.54166,58.7562,136.56118,58.787Z"/>
                  <path class="cls-12" d="M137.46777,59.38845c-.02556.02493-.16971-.11131-.19356-.34131-.02554-.22991.08629-.39365.11659-.3747.03473.01579-.00678.17191.01575.36048C137.42459,59.22189,137.49836,59.36568,137.46777,59.38845Z"/>
                  <path class="cls-12" d="M135.14734,58.16459c.00423.03809-.17323.0834-.35085.20744-.18008.12042-.28671.26929-.32069.25152-.03321-.01229.03443-.21823.24566-.36139C134.93146,58.11744,135.14794,58.12917,135.14734,58.16459Z"/>
                </g>
                <path class="cls-12" d="M134.73955,57.45971c.00855.01333-.10876.1115-.337.20054a1.7615,1.7615,0,0,1-.41651.10364,1.84212,1.84212,0,0,1-.25453.01376.48191.48191,0,0,1-.149-.0179.16671.16671,0,0,1-.11993-.16524.2098.2098,0,0,1,.09845-.1613.51067.51067,0,0,1,.13645-.05843,1.40555,1.40555,0,0,1,.252-.0541,1.38268,1.38268,0,0,1,.43222.01682.65441.65441,0,0,1,.3618.15389c-.00834.01974-.1458-.0372-.37582-.06081a1.56394,1.56394,0,0,0-.40125.01156,1.46062,1.46062,0,0,0-.22872.05664c-.0823.02413-.143.06-.14221.10259.00065.01606.00266.02134.03.03319a.39269.39269,0,0,0,.10933.01276,2.0569,2.0569,0,0,0,.23853-.0054,2.17408,2.17408,0,0,0,.39974-.071A2.703,2.703,0,0,1,134.73955,57.45971Z"/>
                <path class="cls-12" d="M134.72518,57.53235c-.00858.01205-.14423-.06624-.284-.27113a1.2688,1.2688,0,0,1-.21285-.65089.32417.32417,0,0,1,.11217-.29866.18323.18323,0,0,1,.19674.00922.53069.53069,0,0,1,.10863.1024.87038.87038,0,0,1,.13643.22613.90185.90185,0,0,1,.0655.43344c-.02647.25275-.13958.3742-.149.36476a3.20068,3.20068,0,0,0,.055-.3693.903.903,0,0,0-.08378-.37967.80934.80934,0,0,0-.123-.19039c-.05341-.065-.1148-.10641-.1371-.083a.2245.2245,0,0,0-.05126.1808,1.30339,1.30339,0,0,0,.02641.23218,1.41025,1.41025,0,0,0,.13676.37444C134.63115,57.41507,134.74,57.51663,134.72518,57.53235Z"/>
              </g>
              <polyline class="cls-12" points="120.199 43.613 128.786 57.11 133.484 53.917 125.572 37.656"/>
              <path class="cls-13" d="M120.89358,40.65178c.03517.01577-.22076.56353-.34349,1.28893-.12911.72457-.07286,1.32639-.11129,1.3294a3.76454,3.76454,0,0,1,.45478-2.61833Z"/>
              <path class="cls-13" d="M120.01132,40.69051c.03756.00271.00184.59252.098,1.3087.09157.71707.278,1.27766.24243,1.28994a4.45176,4.45176,0,0,1-.34047-2.59864Z"/>
            </g>
            <g>
              <path class="cls-12" d="M86.7085,43.57245,80.817,41.75468c-7.10628,9.04946-6.63232,18.99218,4.80812,24.87748l6.34759-7.116Z"/>
              <g>
                <path class="cls-5" d="M87.28231,42.13017c-3.77032,2.19908-5.64489,6.83515-5.186,11.36815A12.46373,12.46373,0,0,0,91.91378,64.6654l40.51272-8.099a12.31055,12.31055,0,0,0,9.40848-15.506h0a12.31055,12.31055,0,0,0-14.70617-8.53358Z"/>
                <path class="cls-12" d="M87.28231,42.13019s.12641-.03482.37551-.097l1.10682-.273c.97584-.23791,2.41179-.588,4.2606-1.03881,3.70412-.89753,9.06084-2.19555,15.67963-3.79937,3.311-.80039,6.93745-1.677,10.83052-2.61816q2.92014-.70533,6.03411-1.45751.77791-.18732,1.56707-.37732l.80355-.15292c.13451-.02449.26867-.0535.40419-.07439l.41085-.03718c.27448-.02211.54943-.05563.82616-.06849l.83475.00588a6.4396,6.4396,0,0,1,.83729.05871l.41987.04357.21031.02268.20773.04174.83416.16776c.2767.06492.54685.15958.82183.23837.13657.04258.27527.07981.41067.127l.3995.16236.40065.1629a3.17358,3.17358,0,0,1,.395.17812l.77315.40166c.25486.14046.49327.31085.74175.46555.1218.08116.24938.15447.36688.24234l.34717.27211.34808.2729.174.13709.16114.15258a12.44323,12.44323,0,0,1,3.71879,6.0999,12.29369,12.29369,0,0,1-.363,7.38478,12.43215,12.43215,0,0,1-4.69839,5.985,12.05327,12.05327,0,0,1-2.93194,1.44906,24.68024,24.68024,0,0,1-3.1481.73819q-3.14733.62888-6.21417,1.24163c-4.08642.816-8.05464,1.60841-11.872,2.37071l-20.833,4.15486-.01059.00212-.0097-.00234A14.67263,14.67263,0,0,1,88.82684,63.621a13.40117,13.40117,0,0,1-2.57142-1.73974,13.55967,13.55967,0,0,1-1.94812-2.19988,14.00811,14.00811,0,0,1-1.313-2.43325c-.08739-.20544-.154-.41716-.231-.62267a6.02121,6.02121,0,0,1-.20238-.62029l-.17385-.61727-.12966-.616a5.68068,5.68068,0,0,1-.10649-.60822l-.08125-.60045c-.02177-.1987-.02927-.39685-.04437-.59218-.01568-.19543-.02665-.389-.023-.58109a13.00536,13.00536,0,0,1,.58948-4.14526,11.80053,11.80053,0,0,1,1.43906-3.03181,9.67906,9.67906,0,0,1,1.60585-1.87416c.12515-.11124.23794-.22174.3525-.31455l.32755-.25063.27938-.2129.2447-.15523c.29108-.18427.44149-.27517.44149-.27517s-.14668.10013-.434.28784l-.24161.15752-.27666.21533-.32456.25276c-.11351.09346-.2252.20455-.3492.31629a9.73521,9.73521,0,0,0-1.59,1.87646,11.80047,11.80047,0,0,0-1.42152,3.02467,12.97436,12.97436,0,0,0-.5749,4.12762c-.00323.19112.00819.3837.0243.5781.01551.19428.02342.39136.04552.589l.08225.59711a5.645,5.645,0,0,0,.10732.6047l.13029.6124.17423.61343a5.967,5.967,0,0,0,.2025.61629c.077.20415.14362.41451.23091.61852a13.94287,13.94287,0,0,0,1.3092,2.41535,13.48766,13.48766,0,0,0,1.938,2.181A13.32156,13.32156,0,0,0,88.869,63.53736a14.588,14.588,0,0,0,3.05545,1.0802l-.02022-.00022c6.16571-1.23552,13.19577-2.64428,20.82921-4.17392l11.871-2.37581q3.06468-.613,6.21391-1.24291a24.58945,24.58945,0,0,0,3.13261-.73444,11.93133,11.93133,0,0,0,2.90222-1.43446,12.31134,12.31134,0,0,0,4.65179-5.92479,12.1738,12.1738,0,0,0,.36115-7.31112,12.32622,12.32622,0,0,0-3.68006-6.042l-.15944-.15125-.17236-.13583-.34464-.27043-.34366-.26977c-.11633-.08713-.24272-.15973-.36329-.24016-.2461-.15332-.48207-.32239-.73445-.46166l-.76562-.39829a3.12317,3.12317,0,0,0-.39121-.17666l-.39678-.16159-.39563-.16119c-.13411-.04681-.27147-.08371-.40675-.126-.27237-.07814-.53989-.17227-.814-.23674l-.82627-.16675-.20577-.04156-.20833-.02253-.41592-.0434a6.34907,6.34907,0,0,0-.8295-.05883l-.82706-.00652c-.2742.01257-.54667.04569-.81868.06734l-.40715.03637c-.13432.02062-.26728.04934-.40063.07353l-.79654.15076-1.56662.3758q-3.11055.748-6.03342,1.45088L108.7312,37.00594,93.04237,40.76667c-1.85225.44121-3.29087.78391-4.26851,1.0168l-1.11131.26153C87.4119,42.10328,87.28231,42.13019,87.28231,42.13019Z"/>
              </g>
              <path class="cls-7" d="M91.91378,64.66542l-5.34232,12.1507s25.20991-2.43163,24.13609-15.90784Z"/>
              <path class="cls-7" d="M106.36123,37.532s-12.12154-11.76348-27.53116-6.8082l8.45224,11.40634Z"/>
              <path class="cls-7" d="M128.4934,32.35948c5.20174,3.837,8.38284,18.77453,5.87623,23.52231,14.74471-4.314,17.83589-16.97205,17.83589-16.97205A27.043,27.043,0,0,0,128.4934,32.35948Z"/>
              <path class="cls-13" d="M84.33358,59.10884c.02588.02263-.78483.99209-1.81055,2.1651-1.02607,1.17342-1.87856,2.106-1.90444,2.08338s.7847-.99187,1.81077-2.16529C83.45505,60.019,84.30773,59.08623,84.33358,59.10884Z"/>
              <path class="cls-12" d="M152.20552,38.90971s-.02906.0554-.09122.16045l-.27866.46476-.45678.75394-.2923.48066-.36607.52563c-.26143.36946-.5459.785-.86941,1.23074l-1.12484,1.39619c-.212.24167-.44159.483-.673.73692-.2372.24843-.4629.52336-.73.7721-.52955.502-1.07461,1.04928-1.70957,1.554a23.10714,23.10714,0,0,1-4.41485,2.91324,22.24452,22.24452,0,0,1-2.714,1.16132c-.47591.17469-.97092.32507-1.45564.50245a14.628,14.628,0,0,1-1.54048.39547c-4.17772.9238-8.78339,1.8712-13.61634,2.87484-9.67087,1.99885-18.43072,3.77939-24.7726,5.06152l-7.51195,1.5095L87.544,61.807l-.53213.10178c-.12.02224-.18214.03049-.18214.03049s.06041-.01661.17961-.043l.52967-.11389L89.578,61.356l7.504-1.54826,24.765-5.09715c4.83245-1.00357,9.43986-1.94777,13.61625-2.86485a14.51283,14.51283,0,0,0,1.52534-.38823c.494-.17982.98385-.32733,1.45937-.50092a22.21679,22.21679,0,0,0,2.70441-1.15045,23.124,23.124,0,0,0,4.405-2.88877c.63448-.50073,1.17975-1.04416,1.70987-1.54238.26743-.24688.49361-.52.73133-.7667.232-.25216.46214-.49172.67494-.73169L149.8039,42.49c.32567-.4428.61259-.85549.8767-1.22226l.37025-.52174.29678-.477.46651-.747.28915-.45824C152.16905,38.96085,152.20552,38.90971,152.20552,38.90971Z"/>
              <path class="cls-12" d="M113.8353,60.30056a.24531.24531,0,0,1-.043-.04767l-.11643-.14766-.43838-.57552-.31458-.418c-.11085-.15571-.22188-.33142-.34616-.51683-.24265-.37461-.539-.78921-.80941-1.28256l-.442-.7639c-.15195-.26659-.28616-.55677-.43812-.85032-.31273-.58341-.5831-1.23669-.88109-1.918a30.72749,30.72749,0,0,1-1.4511-4.61016,30.72658,30.72658,0,0,1-.64186-4.79153c-.01917-.74347-.05143-1.44984-.01572-2.11084.01309-.33032.01151-.65006.03606-.95594l.07618-.87925c.0356-.5615.12811-1.06261.1889-1.50477.03391-.22061.05989-.42682.09425-.61481l.10753-.51189.15282-.707.0428-.18307a.24471.24471,0,0,1,.01871-.06139.24949.24949,0,0,1-.00631.06421l-.0307.18565-.12974.71076-.09666.51277c-.0308.18819-.05331.39444-.08388.615-.05408.442-.14025.94236-.17009,1.50259l-.068.87689c-.02194.305-.01792.62368-.02875.95283-.03119.65869.00492,1.36223.02707,2.10252a31.45189,31.45189,0,0,0,.64882,4.77029,31.45236,31.45236,0,0,0,1.43578,4.59389c.29393.67969.55966,1.332.8673,1.91527.14941.29345.281.58372.43019.8506l.43351.76526c.26468.49466.555.91125.79146,1.28856.12122.18675.22912.364.33684.52137l.30509.42338.41906.58869.10657.15511A.25187.25187,0,0,1,113.8353,60.30056Z"/>
              <path class="cls-7" d="M102.45482,47.762,77.047,53.02172s-.11368,2.48131.50955,2.502c.522.01728,19.41261-3.3922,25.53956-4.501a1.65549,1.65549,0,0,0,1.26662-2.17473h0A1.66162,1.66162,0,0,0,102.45482,47.762Z"/>
            </g>
            <g>
              <ellipse class="cls-11" cx="121.91646" cy="45.41544" rx="5.64538" ry="6.07308" transform="translate(76.32935 167.26781) rotate(-89.9193)"/>
              <path class="cls-12" d="M127.98954,45.424a.54721.54721,0,0,1-.0114-.09482l-.02089-.27782-.014-.20446-.04265-.24368-.04916-.28405c-.02215-.10025-.05649-.20463-.08679-.31642a5.45572,5.45572,0,0,0-.26074-.72486,5.79384,5.79384,0,0,0-2.01565-2.36691,6.13021,6.13021,0,0,0-2.48986-.99384,5.57454,5.57454,0,0,0-.73607-.07744c-.12533-.00407-.25165-.01554-.379-.01375l-.38472.01829-.19444.00955-.19411.02768-.39224.0557-.39059.09279-.19706.04744-.19306.06576a5.98734,5.98734,0,0,0-2.79557,1.88788,5.24885,5.24885,0,0,0-.00991,6.75488,5.98737,5.98737,0,0,0,2.79064,1.89625l.19292.06631.197.048.39037.09389.39215.05683.194.02822.19445.01009.38471.01938c.12729.00208.25366-.009.379-.01272a5.57577,5.57577,0,0,0,.73633-.07541,6.13079,6.13079,0,0,0,2.49268-.987,5.84209,5.84209,0,0,0,1.57077-1.565,5.78368,5.78368,0,0,0,.45127-.79626,5.44709,5.44709,0,0,0,.26272-.72405c.03059-.11169.06526-.21595.08767-.31613l.04992-.28389.04335-.24353.01453-.20436.02168-.27773a.5456.5456,0,0,1,.01166-.09475.53287.53287,0,0,1,.00107.095l-.00939.27928-.00863.206-.03773.2459-.04464.28709c-.02072.10142-.05376.207-.08285.32029a5.36906,5.36906,0,0,1-.25521.73508,5.761,5.761,0,0,1-.44754.81065,5.87246,5.87246,0,0,1-1.57909,1.59914,6.19677,6.19677,0,0,1-2.52532,1.01611,5.65984,5.65984,0,0,1-.74789.07991c-.1274.00435-.25581.016-.38522.01436l-.39116-.01814-.19777-.00965-.19746-.02789-.39914-.05659-.39762-.0942-.20061-.04834-.19665-.06684a6.09059,6.09059,0,0,1-2.84941-1.92808,5.36254,5.36254,0,0,1,.01016-6.90949,6.09051,6.09051,0,0,1,2.85438-1.91952l.19682-.06629.2007-.04777.39783-.0931.39924-.05544.19754-.02734.19774-.0091.39116-.017c.1294-.00129.2578.01073.38517.01544a5.653,5.653,0,0,1,.74758.082,6.19626,6.19626,0,0,1,2.52245,1.023,5.87287,5.87287,0,0,1,1.57474,1.60348,5.76536,5.76536,0,0,1,.44537.81194,5.37805,5.37805,0,0,1,.25318.7359c.02877.11331.06151.21906.082.32052l.04385.28729.037.246.00807.20609.00861.27933A.53241.53241,0,0,1,127.98954,45.424Z"/>
            </g>
          </g>
        </g>
        <g>
          <path class="cls-7" d="M50.08275,65.81808a4.395,4.395,0,0,1-2.26361.18749,7.53413,7.53413,0,0,0-2.288-.06275c-1.16639.2306-2.194,1.10773-3.38135,1.046-1.64647-.0856-2.63211-1.85811-4.085-2.63745-1.76847-.9486-4.141-.35864-5.56507-2.1181a3.40131,3.40131,0,0,1-.34186-3.76573c1.03455-1.85884,3.41795-2.16873,5.28815-1.49635a12.78661,12.78661,0,0,1,4.16635,2.90157c.4245.39293.8512.79064,1.291,1.17074a6.83331,6.83331,0,0,0,5.14408,1.6211h0a3.47763,3.47763,0,0,1,2.49512.72852,1.47638,1.47638,0,0,1,.43537.57027h0a1.38657,1.38657,0,0,1,.125.688A1.44653,1.44653,0,0,1,50.08275,65.81808Z"/>
          <g class="cls-15">
            <path class="cls-10" d="M50.08275,65.81808a4.395,4.395,0,0,1-2.26361.18749,7.53413,7.53413,0,0,0-2.288-.06275c-1.16639.2306-2.194,1.10773-3.38135,1.046-1.64647-.0856-2.63211-1.85811-4.085-2.63745-1.76847-.9486-4.141-.35864-5.56507-2.1181a3.40131,3.40131,0,0,1-.34186-3.76573c1.03455-1.85884,3.41795-2.16873,5.28815-1.49635a12.78661,12.78661,0,0,1,4.16635,2.90157c.4245.39293.8512.79064,1.291,1.17074a6.83331,6.83331,0,0,0,5.14408,1.6211h0a3.47763,3.47763,0,0,1,2.49512.72852,1.47638,1.47638,0,0,1,.43537.57027h0a1.38657,1.38657,0,0,1,.125.688A1.44653,1.44653,0,0,1,50.08275,65.81808Z"/>
          </g>
        </g>
        <g>
          <path class="cls-7" d="M23.04384,65.025c-.47366-.82993-1.91788-.84859-2.77655-.42928a6.26247,6.26247,0,0,0-2.03423,1.98084,4.9445,4.9445,0,0,1-2.14125,1.84107,9.6513,9.6513,0,0,1-3.05676.07453c-1.02572.00875-2.2304.49817-2.382,1.51266a1.899,1.899,0,0,0,.51208,1.63481,4.68666,4.68666,0,0,0,1.41387.916,11.63338,11.63338,0,0,0,4.30932.84179A6.18107,6.18107,0,0,0,21.74479,70.905c1.11342-1.52349,2.60719-4.17776,1.29905-5.88"/>
          <g class="cls-15">
            <path class="cls-10" d="M23.04384,65.025c-.47366-.82993-1.91788-.84859-2.77655-.42928a6.26247,6.26247,0,0,0-2.03423,1.98084,4.9445,4.9445,0,0,1-2.14125,1.84107,9.6513,9.6513,0,0,1-3.05676.07453c-1.02572.00875-2.2304.49817-2.382,1.51266a1.899,1.899,0,0,0,.51208,1.63481,4.68666,4.68666,0,0,0,1.41387.916,11.63338,11.63338,0,0,0,4.30932.84179A6.18107,6.18107,0,0,0,21.74479,70.905c1.11342-1.52349,2.60719-4.17776,1.29905-5.88"/>
          </g>
        </g>
        <g>
          <path class="cls-13" d="M101.34031,30.89531c-1.95415-.0968-2.91551,1.37685-4.00763,1.67382a5.261,5.261,0,0,1-3.3343-.07867c-1.36146-.55256-2.29266-1.80756-3.48525-2.66581a6.97679,6.97679,0,0,0-8.2262.23693c-.05405,1.30206,1.06168,2.33081,2.13942,3.06345s4.06964,1.78336,4.45125,3.02943c.28576.933-1.72491,1.71628-1.21961,2.55111.4857.80252,2.18147.7492,3.10594.59,5.8357-1.00486,3.78919.78041,5.59553.61486,0,0,3.783-.96316,6.74839-1.44807"/>
          <g>
            <polyline class="cls-16" points="121.009 65.254 119.114 60.849 123.159 59.097 124.567 64.623 121.179 65.255"/>
            <g>
              <g>
                <path class="cls-17" d="M124.565,63.90654l1.18441,3.858s4.31922.09181,4.60753.78349L122.959,71.11314l-2.09213-5.93552Z"/>
                <g class="cls-18">
                  <path class="cls-10" d="M123.35065,68.23716a.31978.31978,0,0,0-.08935.41721.30743.30743,0,0,0,.41279.09219.33729.33729,0,0,0,.09229-.4423.31894.31894,0,0,0-.44-.04832"/>
                </g>
                <g class="cls-18">
                  <path class="cls-10" d="M122.959,71.11316l-.18747-.60652,7.16313-2.23263s.379.0291.42225.274Z"/>
                </g>
                <path class="cls-12" d="M125.85621,67.68531c.01138.03656-.16359.11554-.30105.29333-.14215.17421-.17951.36247-.21769.35967-.03575.00452-.05678-.2301.11348-.44244C125.61923,67.68209,125.85256,67.64944,125.85621,67.68531Z"/>
                <path class="cls-12" d="M126.74347,67.73719c.02039.03214-.11477.14785-.18446.34318-.07546.19323-.04915.36918-.08567.3801-.032.01745-.13035-.18546-.039-.42667C126.52346,67.79184,126.73071,67.703,126.74347,67.73719Z"/>
                <path class="cls-12" d="M127.50616,68.513c-.03016.01912-.143-.144-.11884-.374.02251-.23022.16579-.36732.19153-.34249.03071.02263-.04218.16677-.05912.35594C127.49834,68.34116,127.54081,68.49708,127.50616,68.513Z"/>
                <path class="cls-12" d="M125.48876,66.836c-.00373.03816-.18673.04583-.38613.13047-.20109.08061-.3362.20425-.36578.1798-.02994-.01888.07881-.20637.315-.30282C125.28728,66.74531,125.49667,66.80152,125.48876,66.836Z"/>
              </g>
              <path class="cls-12" d="M125.23545,66.06211a.73455.73455,0,0,1-.37118.12656,1.7626,1.7626,0,0,1-.42893.01534,1.84642,1.84642,0,0,1-.25187-.03914.4824.4824,0,0,1-.14211-.04832.16677.16677,0,0,1-.08321-.18644.20977.20977,0,0,1,.12967-.13748.51073.51073,0,0,1,.1456-.029,1.40518,1.40518,0,0,1,.25775-.00084,1.38309,1.38309,0,0,1,.41941.10577c.22673.09946.33209.21409.32217.22535-.01223.01761-.13494-.06653-.35513-.13717a1.565,1.565,0,0,0-.395-.07162,1.46205,1.46205,0,0,0-.23548.00815c-.0855.0066-.15234.02915-.16035.071-.00269.01584-.00181.02141.02251.03866a.39232.39232,0,0,0,.10432.03508,2.0547,2.0547,0,0,0,.23451.044,2.174,2.174,0,0,0,.40579.0131A2.70364,2.70364,0,0,1,125.23545,66.06211Z"/>
              <path class="cls-12" d="M125.20637,66.13022c-.01087.01-.12744-.09464-.22181-.324a1.26885,1.26885,0,0,1-.07374-.68084.32412.32412,0,0,1,.17148-.269.18329.18329,0,0,1,.19057.04968.53155.53155,0,0,1,.08512.12266.87055.87055,0,0,1,.08677.24944.90169.90169,0,0,1-.0255.43759c-.07814.24184-.21389.33728-.22118.32612a3.20825,3.20825,0,0,0,.13014-.35.903.903,0,0,0-.00351-.38879.80839.80839,0,0,0-.081-.2117c-.0388-.07463-.09033-.12783-.117-.10957-.037.01216-.079.093-.08751.1663a1.30331,1.30331,0,0,0-.02215.23263,1.4108,1.4108,0,0,0,.05642.3946C125.1386,65.996,125.2241,66.11788,125.20637,66.13022Z"/>
            </g>
            <path class="cls-12" d="M101.65947,31.043s-3.505,6.94257-1.14909,8.56945,13.36,9.89705,13.36,9.89705L119.483,64.48966l5.25576-2.15358-4.38047-17.54493L109.301,34.85969Z"/>
            <path class="cls-13" d="M115.16205,46.75555c.03113.0227-.33245.50572-.60246,1.19012-.27608.68223-.3454,1.2827-.38364,1.27768a3.76454,3.76454,0,0,1,.9861-2.4678Z"/>
            <path class="cls-13" d="M114.29082,46.61109c.03621.01042-.12068.58012-.17454,1.30075-.05862.72048.008,1.3075-.02939,1.31216a4.45157,4.45157,0,0,1,.20393-2.61291Z"/>
            <path class="cls-13" d="M120.0148,64.27175a.43384.43384,0,0,1-.03457-.07451l-.09069-.22334-.3379-.86637c-.29068-.7553-.7076-1.8539-1.215-3.22611-.5052-1.373-1.10713-3.01743-1.73476-4.87633q-.23514-.69714-.46593-1.43649a15.451,15.451,0,0,0-.498-1.49414c-.39919-.99525-.88128-2.00567-1.40517-3.0283l.01467.0184c-.58936-.50042-1.21414-1.02416-1.853-1.54991-.49973-.40942-.99482-.81318-1.49421-1.19383l-1.48133-1.12438c-.97-.73843-1.90807-1.44687-2.82138-2.09382-.90969-.652-1.811-1.21715-2.63336-1.78307a15.56092,15.56092,0,0,1-2.16938-1.73258,5.33454,5.33454,0,0,1-.76825-.942,3.45905,3.45905,0,0,1-.4198-1.00069,4.09325,4.09325,0,0,1-.02184-1.7257,6.20962,6.20962,0,0,1,.30488-1.04966c.04289-.11733.0837-.20362.10813-.26271a.55164.55164,0,0,1,.04163-.08744.5619.5619,0,0,1-.02983.09221c-.02052.06058-.05745.14824-.0964.26657a6.76384,6.76384,0,0,0-.28073,1.04971,4.08858,4.08858,0,0,0,.04165,1.7,3.4033,3.4033,0,0,0,.41957.97594,5.28481,5.28481,0,0,0,.76317.92145,15.659,15.659,0,0,0,2.16553,1.70974c.82164.56006,1.72742,1.1235,2.6412,1.77454.917.64573,1.85777,1.35314,2.829,2.09038L110.975,46.2222c.50245.38247.99793.7863,1.49839,1.19631.63967.5264,1.26437,1.05055,1.85405,1.55216l.00932.00793.0054.01052c.52512,1.02739,1.00607,2.03912,1.40584,3.04185a15.46194,15.46194,0,0,1,.49735,1.50412q.22673.7377.46049,1.43531c.62031,1.85906,1.21345,3.50637,1.70818,4.88275.49889,1.3697.90035,2.472,1.17959,3.23863l.31753.874.08.22735A.43534.43534,0,0,1,120.0148,64.27175Z"/>
          </g>
          <polygon class="cls-12" points="105.983 33.264 112.758 34.225 116.234 35.107 111.477 36.814 105.983 33.264"/>
          <path class="cls-12" d="M97.68537,32.77354c.006.00616-.04409.06359-.14025.16262a4.81086,4.81086,0,0,1-.43444.39075,6.87977,6.87977,0,0,1-3.5211,1.47055,4.81363,4.81363,0,0,1-.58326.0343.71464.71464,0,0,1-.21421-.01456c-.00062-.02136.30336-.03243.78576-.107a7.827,7.827,0,0,0,3.479-1.453C97.449,32.96655,97.6706,32.75808,97.68537,32.77354Z"/>
          <g>
            <path class="cls-17" d="M102.55012,22.85137l-1.30585,9.82556a23.5684,23.5684,0,0,1,7.4096.73465,16.64759,16.64759,0,0,0,4.9472.98918l-.64033-6.11329L115.247,23.279l1.00628,5.86648,4.69775,4.837,3.06082-.69281L120.83962,27.974l-2.203-10.82909-.00253-.01242a4.04413,4.04413,0,0,0-1.38624-2.29943l-.08792-.07281-4.6132-2.57066-1.54764.031a24.2831,24.2831,0,0,0-3.90136.39993,3.94866,3.94866,0,0,0-2.10986,1.131h0a4.8926,4.8926,0,0,0-1.07635,2.01047Z"/>
            <path class="cls-12" d="M117.20091,18.74249a1.73382,1.73382,0,0,1-.113.3157l-.35016.84231c-.30053.70908-.72335,1.68526-1.19639,2.76073L114.31687,25.41l-.38.82895a2.41388,2.41388,0,0,1-.14948.29971,1.38443,1.38443,0,0,1,.10491-.31868c.07776-.20107.19531-.48979.34389-.84511.29713-.71064.7181-1.68784,1.19127-2.76376.47309-1.07554.90867-2.04613,1.22982-2.74613l.38636-.82637A1.72873,1.72873,0,0,1,117.20091,18.74249Z"/>
            <g>
              <path class="cls-17" d="M104.174,17.03116c.89873,2.50279,2.62552,8.22283,3.47015,10.42653a4.00589,4.00589,0,0,0,1.25177,1.70521l9.32466,6.59244,2.15433-2.79885L113.39,26.21881,109.6252,15.06194a3.0657,3.0657,0,0,0-4.09913-1.50076h0A3.257,3.257,0,0,0,104.174,17.03116Z"/>
              <path class="cls-12" d="M109.78834,15.52424s.02765.06469.07365.19275l.19946.56742c.17321.5036.42431,1.23381.74357,2.16212.636,1.87183,1.54322,4.54158,2.63525,7.75534l-.01343-.02122,6.991,6.7313.03986.03838-.03379.04392c-.49442.64255-1.01821,1.32323-1.54869,2.01264l-.60535.78635-.03673.04774-.04886-.0352c-2.54569-1.83394-4.96147-3.57429-7.154-5.15381q-.82149-.59269-1.59966-1.15418l-.3857-.27842a3.1583,3.1583,0,0,1-.37068-.29355,3.60528,3.60528,0,0,1-.594-.70875,4.1017,4.1017,0,0,1-.38942-.80091l-.30751-.793c-.19686-.51975-.3827-1.01938-.55406-1.49813-.68794-1.91412-1.1923-3.47626-1.53586-4.5556l-.38641-1.2448-.09607-.32466c-.021-.07331-.02874-.11179-.02874-.11179s.0157.036.04057.10806l.10754.321.40808,1.2376c.35733,1.07456.874,2.632,1.5719,4.54077q.2608.71607.561,1.4938l.31056.79064a4.00551,4.00551,0,0,0,.38373.78224,3.50618,3.50618,0,0,0,.57942.68643,3.08108,3.08108,0,0,0,.364.286l.38653.27713,1.60253,1.14959,7.15881,5.14349-.08555.01252.60525-.78639c.5307-.68928,1.05465-1.3698,1.54929-2.01222l.00607.08221c-2.55257-2.46668-4.93343-4.76745-6.97877-6.744l-.00939-.00906-.00406-.01221-2.59315-7.76951c-.30735-.93235-.54912-1.66569-.71587-2.17146l-.18443-.57249C109.80545,15.59249,109.78834,15.52424,109.78834,15.52424Z"/>
            </g>
            <path class="cls-12" d="M108.89848,14.16249c-.01511.01534-.17081-.14885-.47459-.33675a2.69528,2.69528,0,0,0-2.64882-.12723c-.32038.15791-.49108.30641-.50463.2897a1.36914,1.36914,0,0,1,.46355-.3675,2.56251,2.56251,0,0,1,2.73824.13152A1.36956,1.36956,0,0,1,108.89848,14.16249Z"/>
            <path class="cls-12" d="M121.04224,28.11066c-.00368.03774-.44116-.008-.956.12006-.51655.12185-.88448.36275-.905.33085a2.08462,2.08462,0,0,1,1.861-.45091Z"/>
            <path class="cls-1" d="M105.39189,20.79636a.3564.3564,0,0,1-.09279.02476,2.50427,2.50427,0,0,1-.25849.03952,2.54669,2.54669,0,0,1-.86064-.05479,2.489,2.489,0,0,1-.78483-.35769,2.40868,2.40868,0,0,1-.20827-.15817.357.357,0,0,1-.06956-.06619,3.50892,3.50892,0,0,0,1.0747.53375A3.65564,3.65564,0,0,0,105.39189,20.79636Z"/>
            <g class="cls-14">
              <path d="M104.91453,19.30808s.25055,3.7381.51834,5.46434a8.36168,8.36168,0,0,0,2.06168,4.72157,9.08994,9.08994,0,0,0,4.743,2.14245q-.8358-.62979-1.64012-1.29993a15.23548,15.23548,0,0,1-2.26081-1.84178c-1.07095-1.36058-1.30251-3.078-1.85385-4.71942-.50823-1.513-1.06-2.95424-1.56824-4.46723"/>
            </g>
            <path class="cls-1" d="M119.38618,21.291a1.582,1.582,0,0,0-.53084-.053,2.24679,2.24679,0,0,0-.56535.1274c-.20689.07243-.4256.177-.65818.28179a3.58436,3.58436,0,0,1-.6794.24427,1.66809,1.66809,0,0,1-.58994.03,1.08882,1.08882,0,0,1-.37859-.12349.57109.57109,0,0,1-.11875-.08486,1.26348,1.26348,0,0,0,.50185.17344,1.70107,1.70107,0,0,0,.57527-.03986,3.7474,3.7474,0,0,0,.66918-.245c.23182-.10441.4525-.20848.66358-.27971a2.16139,2.16139,0,0,1,.57808-.11917,1.29594,1.29594,0,0,1,.39638.0372A.63318.63318,0,0,1,119.38618,21.291Z"/>
            <g class="cls-14">
              <path d="M115.789,26.43866a29.7039,29.7039,0,0,0,.65327-6.09122,15.43369,15.43369,0,0,1-.87018,1.9892c-.12811.32241-.33149.90492-.33149.90492l.54035,3.15008"/>
            </g>
          </g>
          <g>
            <g>
              <path class="cls-12" d="M112.63443,3.41656a.99126.99126,0,0,1-.66012.7942c-.19679.06419-.411.06445-.60466.13765a.45285.45285,0,0,0-.3297.46422c.03252.15148.17313.24974.28822.35345s.21925.26449.15334.40469c-.0725.15428-.29388.167-.40892.2928a.39794.39794,0,0,0,.02708.49512,1.76967,1.76967,0,0,0,.42244.33123.6927.6927,0,0,1,.32392.41317"/>
              <g>
                <path class="cls-12" d="M119.72279,6.52064a3.22623,3.22623,0,0,0-.67659-3.41218,6.62259,6.62259,0,0,0-3.175-1.77542c-.16967-.04889-.38029-.08417-.49889.04662a.33351.33351,0,0,0,.03.42507.97224.97224,0,0,0,.396.23636A3.69155,3.69155,0,0,0,114.26,1.62125a.97721.97721,0,0,0-.54121.11641.444.444,0,0,0-.21278.47721.2917.2917,0,0,0,.445.15163,2.26293,2.26293,0,0,0-1.45889.34193.93544.93544,0,0,0-.51117.89211,5.27537,5.27537,0,0,0,.26833.58126,1.71267,1.71267,0,0,1-.20013,1.13034,3.50714,3.50714,0,0,0-.25046,1.78644,2.07156,2.07156,0,0,0,.95123,1.486"/>
                <g>
                  <path class="cls-16" d="M112.39477,15.89012a2.44578,2.44578,0,0,1-1.71418-3.05533L112.87378,5.406a3.50945,3.50945,0,0,1,4.38959-2.45875l.172.06223a3.53238,3.53238,0,0,1,2.20781,4.25133c-.45124,1.65271-.97106,3.47335-1.29326,4.33109a2.2761,2.2761,0,0,1-2.55073,1.40761l-.4629,1.33114a2.44578,2.44578,0,0,1-2.94155,1.55949Z"/>
                  <path class="cls-19" d="M115.81148,12.97485a4.40961,4.40961,0,0,1-2.08586-1.50142,2.33618,2.33618,0,0,0,1.92291,1.96494Z"/>
                </g>
                <path class="cls-12" d="M115.47378,4.027a5.32056,5.32056,0,0,0-.57842-1.26979c-.24872-.25056-.65185-.16756-.9914-.0716a1.1465,1.1465,0,0,0-.76166.71306c-.46818,1.285-.52649,2.49722-.876,3.76116a.46289.46289,0,0,0-.02076.256c.066.21461.30136.29051.52357.32293.54747.07989.8273-.31921,1.08565-.80013a5.71132,5.71132,0,0,0,.18974-.88852,2.41761,2.41761,0,0,1,1.344-1.98244Z"/>
                <g>
                  <path class="cls-16" d="M113.18319,6.43024c-.02567-.02416-1.09422-.80549-1.49614.4277a.975.975,0,0,0,.93275,1.34772C112.63347,8.171,113.18319,6.43024,113.18319,6.43024Z"/>
                  <path class="cls-19" d="M112.39537,7.61565c-.00414-.00569-.02643.00805-.06813.01288a.22594.22594,0,0,1-.16166-.04906.559.559,0,0,1-.09052-.55708.74585.74585,0,0,1,.16037-.288.2608.2608,0,0,1,.21533-.11222.11494.11494,0,0,1,.1076.10017c.00531.03986-.01053.06192-.00473.06617.00246.00423.03322-.012.03989-.06622a.14432.14432,0,0,0-.0233-.09307.17083.17083,0,0,0-.10861-.07012.31767.31767,0,0,0-.28674.11808.76666.76666,0,0,0-.18649.31945.58668.58668,0,0,0,.13982.63472.242.242,0,0,0,.20711.0314C112.38344,7.64476,112.39893,7.61931,112.39537,7.61565Z"/>
                </g>
                <path class="cls-12" d="M114.9984,4.304a1.4885,1.4885,0,0,1,1.65071.03266c.4179.24327.77279.58719,1.20238.80921a1.3118,1.3118,0,0,0,1.37315.00347,1.31468,1.31468,0,0,0,.43528-.9487,2.60585,2.60585,0,0,0-.62492-1.90979c-.11822-.1355-.29864-.26846-.46276-.195-.20322.091-.17158.38559-.1062.59842A6.306,6.306,0,0,0,115.1262,2.37C113.86035,2.81167,114.9984,4.304,114.9984,4.304Z"/>
                <path class="cls-13" d="M115.77841,1.30981c.01111-.002.024.08863.0877.237a1.88354,1.88354,0,0,0,.395.55206,3.06139,3.06139,0,0,0,.82694.578,2.41037,2.41037,0,0,0,.56336.1895c.20343.04492.42053.07671.64062.13764a1.48788,1.48788,0,0,1,.59835.30244,1.32351,1.32351,0,0,1,.36144.5117,1.15331,1.15331,0,0,1,.07508.56257,1.08115,1.08115,0,0,1-.74017.87968.78243.78243,0,0,1-.18946.03076c-.04392.00014-.0666-.00165-.06674-.00538-.00084-.01044.09176-.011.24289-.06536a1.05994,1.05994,0,0,0,.51117-.4211.99577.99577,0,0,0,.15315-.42885,1.07732,1.07732,0,0,0-.07855-.51531,1.23982,1.23982,0,0,0-.33811-.46842,1.40189,1.40189,0,0,0-.55815-.27847c-.21106-.05854-.42677-.09114-.6346-.13841a2.44624,2.44624,0,0,1-.58372-.20319,2.98264,2.98264,0,0,1-.83851-.61462,1.74492,1.74492,0,0,1-.3792-.58967.94578.94578,0,0,1-.04516-.186C115.776,1.33309,115.77473,1.31038,115.77841,1.30981Z"/>
                <path class="cls-13" d="M114.40842,1.68042c.00927-.00222.03.0911.10029.24511a1.83007,1.83007,0,0,0,.42574.56719,2.587,2.587,0,0,0,.915.51765,8.81106,8.81106,0,0,0,1.27553.29624,4.92822,4.92822,0,0,1,1.27849.36713.87791.87791,0,0,1,.41745.42478.82491.82491,0,0,1,.0287.51858,1.02223,1.02223,0,0,1-.44172.58363,1.07351,1.07351,0,0,1-.17619.0942c-.04215.01745-.06553.02337-.06691.02022-.00431-.00865.08373-.04708.21882-.14883a1.01975,1.01975,0,0,0,.39166-.56743.75487.75487,0,0,0-.03692-.46514.793.793,0,0,0-.3816-.37188,5.11172,5.11172,0,0,0-1.2518-.34889,8.16681,8.16681,0,0,1-1.28877-.30858,2.56555,2.56555,0,0,1-.93415-.55593,1.71735,1.71735,0,0,1-.41209-.60647,1.19873,1.19873,0,0,1-.05525-.192C114.407,1.705,114.40479,1.68121,114.40842,1.68042Z"/>
              </g>
            </g>
            <g>
              <g>
                <g>
                  <path class="cls-12" d="M118.45519,8.11915a.29409.29409,0,0,1-.36526.18726.28133.28133,0,0,1-.19934-.35.29422.29422,0,0,1,.365-.18752A.28151.28151,0,0,1,118.45519,8.11915Z"/>
                  <path class="cls-12" d="M118.98412,7.96234c-.047.02423-.20336-.20462-.50264-.30767-.29742-.10722-.57022-.02965-.58991-.07752-.01033-.02177.04748-.075.16715-.11133a.80684.80684,0,0,1,.48785.01728.7748.7748,0,0,1,.38433.2901C118.99836,7.87567,119.0067,7.952,118.98412,7.96234Z"/>
                </g>
                <g>
                  <path class="cls-12" d="M115.50033,7.26848a.29406.29406,0,0,1-.36524.18721.28124.28124,0,0,1-.19937-.34994.29425.29425,0,0,1,.36507-.18747A.28145.28145,0,0,1,115.50033,7.26848Z"/>
                  <path class="cls-12" d="M116.02619,6.9973c-.04709.02426-.20374-.20467-.50273-.30764-.29737-.10723-.57022-.02968-.59-.07757-.01023-.02172.0472-.075.16725-.11122a.80674.80674,0,0,1,.4878.01714.77577.77577,0,0,1,.38443.29017C116.04013,6.91058,116.04868,6.987,116.02619,6.9973Z"/>
                </g>
                <path class="cls-12" d="M116.341,9.59128a2.09128,2.09128,0,0,1,.51595.081c.07909.01867.15662.02858.18756-.01907a.41129.41129,0,0,0,.02767-.244q-.01146-.31449-.02384-.65971a10.57452,10.57452,0,0,1,.02114-1.69661,10.58847,10.58847,0,0,1,.11542,1.69434q.00686.34544.01317.65988a.46792.46792,0,0,1-.0645.31336.20277.20277,0,0,1-.16428.068.54928.54928,0,0,1-.13593-.027A2.06078,2.06078,0,0,1,116.341,9.59128Z"/>
                <path class="cls-12" d="M115.38935,9.49244c.04959.01406-.06251.33876.13523.66555.197.32741.55553.41112.54233.45736-.00255.02191-.09895.03625-.24632-.01049a.8554.8554,0,0,1-.45908-.3634.74488.74488,0,0,1-.09258-.55084C115.30368,9.55063,115.3678,9.48281,115.38935,9.49244Z"/>
              </g>
              <path class="cls-12" d="M116.51036,5.85256c-.05773.071-.34286-.07119-.70824-.15072-.36385-.087-.68235-.08249-.70357-.17153-.00862-.0421.06725-.10146.209-.14041a1.25849,1.25849,0,0,1,1.07554.24551C116.49378,5.732,116.53644,5.81839,116.51036,5.85256Z"/>
              <path class="cls-12" d="M119.17474,7.059c-.07616.04965-.2576-.09239-.50412-.18174-.24331-.09795-.47315-.11322-.49676-.201-.00918-.0418.04746-.09838.16142-.13081a.77594.77594,0,0,1,.80648.30846C119.205,6.954,119.20946,7.03391,119.17474,7.059Z"/>
            </g>
          </g>
          <g>
            <path class="cls-13" d="M113.54374,33.57255a1.1805,1.1805,0,0,1,.76348,1.3476l-1.6136.63847-.3687-1.55462Z"/>
            <g>
              <path class="cls-13" d="M99.98446,33.56741a15.09008,15.09008,0,0,1,5.26639.38c2.03389.71509,4.55775,1.24633,5.67344.996a2.84253,2.84253,0,0,0,1.5221-.949,35.30327,35.30327,0,0,1-4.73842-.877c-1.02139-.33025-3.03666-2.61558-6.76908-2.06393Z"/>
              <path class="cls-12" d="M82.08314,30.87087a1.29379,1.29379,0,0,1,.164-.12835,3.06758,3.06758,0,0,1,.5241-.2876,3.45711,3.45711,0,0,1,2.16771-.16708,3.234,3.234,0,0,1,1.34992.69725,6.9813,6.9813,0,0,1,1.135,1.324,18.67462,18.67462,0,0,0,1.14273,1.532,13.69259,13.69259,0,0,0,1.43574,1.45942,10.05247,10.05247,0,0,0,3.35518,2.0401,5.30042,5.30042,0,0,0,1.687.28028,2.65168,2.65168,0,0,0,1.42316-.35211,3.35184,3.35184,0,0,0,.88786-.8442c.22247-.28975.39749-.553.53925-.76883l.32738-.497a1.29978,1.29978,0,0,1,.12082-.16919,1.29832,1.29832,0,0,1-.09955.18253l-.30784.50976c-.13571.22014-.30525.48811-.5247.78486a3.37533,3.37533,0,0,1-.897.877,2.72959,2.72959,0,0,1-1.46847.38041,5.36032,5.36032,0,0,1-1.72324-.27443,10.04162,10.04162,0,0,1-3.40168-2.05546,13.58839,13.58839,0,0,1-1.447-1.4745A18.31322,18.31322,0,0,1,87.33,32.375,6.964,6.964,0,0,0,86.2217,31.0634a3.16314,3.16314,0,0,0-1.30432-.69028,3.471,3.471,0,0,0-2.12778.12663A4.826,4.826,0,0,0,82.08314,30.87087Z"/>
            </g>
          </g>
          <g>
            <path class="cls-16" d="M120.10571,33.39483s1.07888.22367,1.53906.32573c.14919.0331.303.01049.45368.036a5.63914,5.63914,0,0,0,1.99462-.03577c.45751-.16845.47639.41577-.0167.66657a2.46022,2.46022,0,0,1-.79518.27818l1.18647.95436a.31239.31239,0,0,1,.11336.19872l.30358,2.10259a.35891.35891,0,0,1-.23235.41526.17822.17822,0,0,1-.22718-.08214l.03351.28268a.37118.37118,0,0,1-.73108.12373l-.00294-.01749-.41711.23562s-.27689.2875-.5756-.11152c-.24676-.32966-.98669-1.63888-.98669-1.63888s-3.15034-1.32708-3.09994-1.85708Z"/>
            <path class="cls-19" d="M123.7275,38.66078a3.16646,3.16646,0,0,1-.08483-.50854c-.04867-.3102-.13815-.748-.201-1.22518-.04387-.23235-.09807-.46735-.15052-.65606a.37661.37661,0,0,0-.16924-.19452l-.22-.13972a2.1436,2.1436,0,0,1-.42058-.30141,2.14645,2.14645,0,0,1,.46559.22578l.22775.12667a.47688.47688,0,0,1,.223.24071,5.97513,5.97513,0,0,1,.16646.67652c.06436.48644.13822.91426.16592,1.23667A1.62578,1.62578,0,0,1,123.7275,38.66078Z"/>
            <path class="cls-19" d="M124.42505,38.25437c-.04844.00892-.12716-.75456-.3211-1.66676a1.45262,1.45262,0,0,0-.2024-.592,3.63141,3.63141,0,0,0-.38615-.36416,2.002,2.002,0,0,0-.29207-.20525c-.07329-.04005-.11872-.05057-.1179-.06075-.00017-.007.05209-.01257.13731.01635a1.37746,1.37746,0,0,1,.3258.17949,2.917,2.917,0,0,1,.41819.35758,1.42776,1.42776,0,0,1,.23878.642,9.52,9.52,0,0,1,.17987,1.19442A2.28081,2.28081,0,0,1,124.42505,38.25437Z"/>
            <path class="cls-19" d="M121.84959,36.26381a1.671,1.671,0,0,1,.41224.19466l.20078.11093a.73039.73039,0,0,1,.22654.165.68991.68991,0,0,1,.13272.27885l.09277.29873a9.68905,9.68905,0,0,1,.39431,1.50128,9.70152,9.70152,0,0,1-.51227-1.46156l-.0899-.29826a.61647.61647,0,0,0-.10591-.24584.66418.66418,0,0,0-.19112-.14957l-.193-.124A1.67039,1.67039,0,0,1,121.84959,36.26381Z"/>
            <path class="cls-19" d="M121.93253,33.99277a2.55749,2.55749,0,0,1,.9584.4159,2.801,2.801,0,0,1,.84167.62c-.01929.02234-.4046-.23-.90383-.51223l-.63583-.36447A1.42469,1.42469,0,0,1,121.93253,33.99277Z"/>
          </g>
        </g>
        <path class="cls-20" d="M104.08569,15.38018s7.56344,18.992,15.81505,18.19237"/>
        <path class="cls-20" d="M102.59772,23.16213s2.72436,9.31289,10.85528,9.825"/>
        <path class="cls-20" d="M101.47146,30.968s1.74146-12.68872,2.29443-14.44751c.53028-1.68628.33765-4.30493,7.09693-4.30249,0,0-1.21436,2.749,1.532,3.67212a2.49847,2.49847,0,0,0,3.1123-2.05078c1.18921.83178,2.39206.90325,3.02707,2.90594.08984.28345.37626,1.75079.46122,2.1629.92993,4.50879,1.84423,9.06592,1.84423,9.06592h0q1.58607,2.658,3.17212,5.31568s-8.29347-4.33652-8.77117-10.04818l1.032,5.67909"/>
        <path class="cls-20" d="M102.73129,30.968s.11145-18.772,8.26625-16.07826"/>
        <path class="cls-20" d="M112.62806,31.66064s-2.74778-4.93545.79878-5.48"/>
        <path class="cls-20" d="M113.42684,15.93725s3.52273,3.27275,2.23206,6.19828"/>
        <path class="cls-20" d="M111.28918,19.9519s6.43155-5.33684,7.921,0"/>
        <path class="cls-20" d="M120.4577,25.92032s-3.2011,2.30225-2.28481,4.83008"/>
      </g>
    </g>
  </g>
</svg>
