<svg xmlns="http://www.w3.org/2000/svg" viewBox="0 0 178 130.25"><defs><style>.cls-1{fill:none;}.cls-2{fill:#ffedcf;}.cls-3{fill:#1c1b22;}.cls-4{fill:#19233e;}.cls-5{fill:#d8e5ff;}.cls-6{fill:#f3f8ff;}.cls-7{fill:#fff;}.cls-8{fill:#666;}.cls-9{fill:#2158cb;}.cls-10{fill:#feb692;}.cls-11{fill:#e5877b;}.cls-12{fill:#ff9800;}.cls-13{fill:#ffa726;}.cls-14{fill:#ffb74d;}.cls-15{fill:#424242;}.cls-16{fill:#784719;}.cls-17{fill:#d32f2f;}.cls-18{fill:#546e7a;}</style></defs><title>Asset 1</title><g id="Layer_2" data-name="Layer 2"><g id="Layer_1-2" data-name="Layer 1"><line class="cls-1" x1="79.5" y1="27.75" x2="88.5" y2="27.75"/><line class="cls-1" x1="79.5" y1="31.75" x2="90.5" y2="31.75"/><line class="cls-1" x1="79.5" y1="35.75" x2="88.5" y2="35.75"/><line class="cls-1" x1="79.5" y1="39.75" x2="87.5" y2="39.75"/><line class="cls-1" x1="79.5" y1="43.75" x2="88.5" y2="43.75"/><path class="cls-2" d="M26.59,8.16H41.33A20.17,20.17,0,0,1,61.5,28.34v0a0,0,0,0,1,0,0H26.59A10.09,10.09,0,0,1,16.5,18.25v0A10.09,10.09,0,0,1,26.59,8.16Z"/><path class="cls-2" d="M155.72,41.9a31.23,31.23,0,0,0-3-1.07c-1-.29-2-.54-3-.76a36.06,36.06,0,0,0-4.06-.57c-1-.1-2-.14-3-.14H88.22c-.79,0-1.57,0-2.35.06A70.8,70.8,0,0,0,38.76,60.12c-.46.46-.91.92-1.36,1.4-.75.79-1.48,1.6-2.18,2.42-.5.58-1,1.16-1.46,1.75a69.18,69.18,0,0,0-4.41,6.08A70.52,70.52,0,0,0,18,110.25H142.56A35.44,35.44,0,0,0,155.72,41.9ZM92.37,81.72l-.29.31.35-.64.12.14Zm-.13-6,.19-.39.27.13Z"/><path class="cls-3" d="M47,73.88H24a7,7,0,0,1,0-14h9.5A13.51,13.51,0,0,1,47,73.38Zm-23-13a6,6,0,0,0,0,12H46a12.5,12.5,0,0,0-12.49-12Z"/><rect class="cls-3" x="25.5" y="65.88" width="2" height="2"/><rect class="cls-3" x="31.5" y="65.88" width="2" height="2"/><rect class="cls-3" x="37.5" y="65.88" width="2" height="2"/><path class="cls-4" d="M97.27,77.38l-.46.25.19-.38Z"/><path class="cls-4" d="M97.12,83.39l-.18.19-.29.3.35-.63Z"/><path class="cls-4" d="M97.27,77.38l-.46.25.19-.38Z"/><path class="cls-4" d="M97.12,83.39l-.18.19-.29.3.35-.63Z"/><rect class="cls-3" x="110.5" y="0.75" width="46" height="88" rx="2.65"/><rect class="cls-5" x="154.5" y="11.75" width="1" height="15"/><rect class="cls-6" x="108" y="0.25" width="46" height="88" rx="2.65"/><path class="cls-3" d="M151.35,88.5h-40.7a2.9,2.9,0,0,1-2.9-2.9V2.9a2.9,2.9,0,0,1,2.9-2.9h40.7a2.9,2.9,0,0,1,2.9,2.9V85.6A2.9,2.9,0,0,1,151.35,88.5ZM110.65.5a2.41,2.41,0,0,0-2.4,2.4V85.6a2.41,2.41,0,0,0,2.4,2.4h40.7a2.41,2.41,0,0,0,2.4-2.4V2.9a2.41,2.41,0,0,0-2.4-2.4Z"/><rect class="cls-5" x="113" y="57.25" width="38" height="17" rx="3.12"/><path class="cls-3" d="M147.88,74.5H116.12a3.37,3.37,0,0,1-3.37-3.37V60.37A3.37,3.37,0,0,1,116.12,57h31.76a3.37,3.37,0,0,1,3.37,3.37V71.13A3.37,3.37,0,0,1,147.88,74.5Zm-31.76-17a2.88,2.88,0,0,0-2.87,2.87V71.13A2.88,2.88,0,0,0,116.12,74h31.76a2.88,2.88,0,0,0,2.87-2.87V60.37a2.88,2.88,0,0,0-2.87-2.87Z"/><rect class="cls-5" x="114" y="35.25" width="37" height="17" rx="3.12"/><path class="cls-3" d="M147.88,52.5H117.12a3.37,3.37,0,0,1-3.37-3.37V38.37A3.37,3.37,0,0,1,117.12,35h30.76a3.37,3.37,0,0,1,3.37,3.37V49.13A3.37,3.37,0,0,1,147.88,52.5Zm-30.76-17a2.88,2.88,0,0,0-2.87,2.87V49.13A2.88,2.88,0,0,0,117.12,52h30.76a2.88,2.88,0,0,0,2.87-2.87V38.37a2.88,2.88,0,0,0-2.87-2.87Z"/><rect class="cls-5" x="114" y="12.25" width="37" height="17" rx="3.12"/><path class="cls-3" d="M147.88,29.5H117.12a3.37,3.37,0,0,1-3.37-3.37V15.37A3.37,3.37,0,0,1,117.12,12h30.76a3.37,3.37,0,0,1,3.37,3.37V26.13A3.37,3.37,0,0,1,147.88,29.5Zm-30.76-17a2.88,2.88,0,0,0-2.87,2.87V26.13A2.88,2.88,0,0,0,117.12,29h30.76a2.88,2.88,0,0,0,2.87-2.87V15.37a2.88,2.88,0,0,0-2.87-2.87Z"/><rect class="cls-5" x="131.5" y="-4.25" width="1" height="15" transform="translate(135.25 -128.75) rotate(90)"/><circle class="cls-6" cx="143" cy="66.25" r="6"/><line class="cls-3" x1="135" y1="62.75" x2="126" y2="62.75"/><path class="cls-3" d="M135,63h-9a.25.25,0,0,1,0-.5h9a.25.25,0,0,1,0,.5Z"/><line class="cls-3" x1="135" y1="66.25" x2="126" y2="66.25"/><path class="cls-3" d="M135,66.5h-9a.25.25,0,0,1,0-.5h9a.25.25,0,0,1,0,.5Z"/><line class="cls-3" x1="135" y1="69.75" x2="118" y2="69.75"/><path class="cls-3" d="M135,70H118a.25.25,0,0,1,0-.5h17a.25.25,0,0,1,0,.5Z"/><rect class="cls-7" x="43" y="19.25" width="106" height="32" rx="2.43"/><path class="cls-8" d="M146.57,51.63H45.43a2.8,2.8,0,0,1-2.8-2.81V21.68a2.8,2.8,0,0,1,2.8-2.8H146.57a2.8,2.8,0,0,1,2.81,2.8V48.82A2.81,2.81,0,0,1,146.57,51.63Zm-101.14-32a2.05,2.05,0,0,0-2,2.05V48.82a2.06,2.06,0,0,0,2,2.06H146.57a2.07,2.07,0,0,0,2.06-2.06V21.68a2.06,2.06,0,0,0-2.06-2.05Z"/><path class="cls-8" d="M88,29.25H76a.5.5,0,0,1,0-1H88a.5.5,0,0,1,0,1Z"/><path class="cls-8" d="M93,37.25H76a.5.5,0,0,1,0-1H93a.5.5,0,0,1,0,1Z"/><path class="cls-8" d="M82.5,33.25H76a.5.5,0,0,1,0-1h6.5a.5.5,0,0,1,0,1Z"/><path class="cls-8" d="M88,41.25H76a.5.5,0,0,1,0-1H88a.5.5,0,0,1,0,1Z"/><path class="cls-8" d="M82.5,45.25H76a.5.5,0,0,1,0-1h6.5a.5.5,0,0,1,0,1Z"/><rect class="cls-5" x="94.25" y="60" width="6" height="10" transform="translate(74.45 -49.73) rotate(45)"/><rect class="cls-3" x="65.55" y="56.86" width="8" height="71.67" transform="translate(85.92 -22.03) rotate(45)"/><path class="cls-7" d="M138,45.25A24,24,0,0,1,93.1,57,23.74,23.74,0,0,1,90,45.25a24,24,0,0,1,42.9-14.78,23.35,23.35,0,0,1,2,3A23.84,23.84,0,0,1,138,45.25Z"/><path class="cls-8" d="M114,69.38a24,24,0,0,1-19-9.31,24.92,24.92,0,0,1-2-3,24.12,24.12,0,0,1,40-26.7,23.64,23.64,0,0,1,2,3,24.11,24.11,0,0,1-21,36Zm0-48A23.86,23.86,0,0,0,93.21,57a23.18,23.18,0,0,0,2,2.94A23.67,23.67,0,0,0,114,69.13a23.86,23.86,0,0,0,20.79-35.6,22.08,22.08,0,0,0-2-3A23.72,23.72,0,0,0,114,21.38Z"/><path class="cls-9" d="M140,48.25A24,24,0,0,1,95.1,60s0,0,0,0A24,24,0,0,0,134.9,33.47,23.92,23.92,0,0,1,140,48.25Z"/><path class="cls-8" d="M116,72.38A24.17,24.17,0,0,1,95,60.11h0l0-.05a0,0,0,0,0,0,0l.19-.17,0,0a23.86,23.86,0,0,0,39.6-26.4l.21-.14a24.12,24.12,0,0,1-19,39Zm-20-11a23.87,23.87,0,0,0,43.83-13.1,23.66,23.66,0,0,0-4.1-13.36A24.11,24.11,0,0,1,96.05,61.35Z"/><path class="cls-8" d="M114,69.38a24,24,0,0,1-19-9.31l.2-.16A23.67,23.67,0,0,0,114,69.13a23.86,23.86,0,0,0,20.79-35.6l.22-.12a24.11,24.11,0,0,1-21,36Z"/><path class="cls-8" d="M114,64.25a19,19,0,1,1,19-19A19,19,0,0,1,114,64.25Zm0-37a18,18,0,1,0,18,18A18,18,0,0,0,114,27.25Z"/><line class="cls-10" x1="107.5" y1="51.75" x2="120.5" y2="38.75"/><rect class="cls-11" x="104.81" y="42.75" width="18.38" height="5" transform="translate(1.39 93.86) rotate(-45)"/><line class="cls-10" x1="107.5" y1="38.75" x2="120.5" y2="51.75"/><rect class="cls-11" x="111.5" y="36.06" width="5" height="18.38" transform="translate(1.39 93.86) rotate(-45)"/><path class="cls-10" d="M88,86.25a1.68,1.68,0,0,1-1,1l-5.73,3.13L81,90.25l-.19.38.46-.25A3,3,0,0,1,83,92.25c.24,1-.38,2-1,3a8.3,8.3,0,0,1-.88,1.14L81,96.25l-.35.63.29-.3.18-.19A3.48,3.48,0,0,1,82,98.25a4.32,4.32,0,0,1-1,3,8.48,8.48,0,0,1-.81,1l.81,0a2.29,2.29,0,0,1,1,1c.8,1.64-1.38,4.12-3,6a24.36,24.36,0,0,1-3,3l-2,1q-7.11,0-14.07.38-4.5.24-8.93.62c-.21.23-.51.54-.88.89l-.12.11c-1.09,1-1.77,1.23-2,2a1.84,1.84,0,0,0,0,1,20.59,20.59,0,0,0-11-14c3.65-3.27,7.65-6.62,12-10,3.76-2.92,7.45-5.58,11-8a12,12,0,0,1,2-1,14.79,14.79,0,0,1,10,0c-2.33,1-1.67,2-4,3,1.7-.25.61-.6,2.67-1.1,1.07-.26,2.18-.55,3.33-.9a63.22,63.22,0,0,0,7.48-2.77l.52-.23v-1h0a6.24,6.24,0,0,1,4,1C86.26,83.43,88.4,84.92,88,86.25Z"/><path class="cls-4" d="M0,130.25l36-28a21.19,21.19,0,0,1,13,17l-8,11Z"/><path class="cls-12" d="M58.14,41.83l-2.77-3.32V35.19h5.54v3.32Z"/><path class="cls-13" d="M63.12,33A1.11,1.11,0,1,0,62,31.87,1.11,1.11,0,0,0,63.12,33Z"/><path class="cls-13" d="M53.16,33a1.11,1.11,0,1,0-1.11-1.11A1.11,1.11,0,0,0,53.16,33Z"/><path class="cls-14" d="M63.12,28.55c0-4.21-10-2.77-10,0v3.87a5,5,0,1,0,10,0Z"/><path class="cls-15" d="M58.14,23.57c-3.37,0-5.53,2.71-5.53,6.09v1.27l1.1.94V29.1l6.65-2.21,2.21,2.21v2.77l1.11-.94V29.66c0-2.22-.56-4.43-3.32-5l-.56-1.1Z"/><path class="cls-16" d="M60.36,32.42a.55.55,0,1,0-.56-.55A.55.55,0,0,0,60.36,32.42Z"/><path class="cls-16" d="M55.93,32.42a.55.55,0,1,0-.56-.55A.55.55,0,0,0,55.93,32.42Z"/><path class="cls-7" d="M58.14,45.16l-2.77-6.65,2.77.56,2.77-.56Z"/><path class="cls-17" d="M57.59,40.73l-.39,2.49.94,2.21.94-2.21-.38-2.49.55-.56-1.11-1.1L57,40.17Z"/><path class="cls-18" d="M60.91,38.51l-2.77,6.65-2.77-6.65s-6.08,1.11-6.08,7.2H67C67,39.62,60.91,38.51,60.91,38.51Z"/></g></g></svg>