<svg xmlns="http://www.w3.org/2000/svg" xmlns:xlink="http://www.w3.org/1999/xlink" width="67.66981mm" height="40.40003mm" viewBox="0 0 191.81995 114.51978">
  <defs>
    <style>
      .cls-1 {
        fill: #e2c0c0;
      }

      .cls-2, .cls-28, .cls-39, .cls-4 {
        fill: none;
      }

      .cls-3 {
        clip-path: url(#clip-path);
      }

      .cls-39, .cls-4 {
        stroke: #fff;
      }

      .cls-26, .cls-27, .cls-28, .cls-35, .cls-39, .cls-4 {
        stroke-miterlimit: 10;
      }

      .cls-4 {
        stroke-width: 0.86566px;
      }

      .cls-5 {
        fill: #ffdc89;
      }

      .cls-6 {
        clip-path: url(#clip-path-2);
      }

      .cls-17, .cls-32, .cls-7 {
        fill: #fff;
      }

      .cls-8 {
        fill: #3a6592;
      }

      .cls-26, .cls-27, .cls-37, .cls-38, .cls-9 {
        fill: #728db7;
      }

      .cls-10, .cls-35 {
        fill: #55d2d0;
      }

      .cls-11 {
        fill: #48b7b3;
      }

      .cls-12, .cls-24 {
        fill: #aceee5;
      }

      .cls-12, .cls-23, .cls-27, .cls-31, .cls-32 {
        opacity: 0.2;
      }

      .cls-13, .cls-15 {
        fill: #ccc;
      }

      .cls-14 {
        fill: #424242;
      }

      .cls-15, .cls-16, .cls-17 {
        fill-rule: evenodd;
      }

      .cls-16 {
        fill: #707070;
      }

      .cls-18, .cls-21, .cls-29, .cls-31 {
        fill: #213d5d;
      }

      .cls-18, .cls-38 {
        opacity: 0.1;
      }

      .cls-19 {
        fill: #fa7454;
      }

      .cls-20 {
        fill: #fafbef;
      }

      .cls-22 {
        fill: #f49092;
      }

      .cls-23 {
        fill: #091e30;
      }

      .cls-25 {
        fill: #d6d6d6;
      }

      .cls-26, .cls-27, .cls-28, .cls-35 {
        stroke: #000;
      }

      .cls-26, .cls-28, .cls-35 {
        stroke-width: 0.13px;
      }

      .cls-27 {
        stroke-width: 0.23391px;
      }

      .cls-29 {
        opacity: 0.5;
      }

      .cls-30 {
        fill: #ffc309;
      }

      .cls-33 {
        fill: #ed6347;
      }

      .cls-34 {
        fill: #f19b94;
      }

      .cls-36 {
        fill: #e85e41;
      }

      .cls-37 {
        opacity: 0.3;
      }
    </style>
    <clipPath id="clip-path">
      <path class="cls-1" d="M127.44231,188.32787c-9.8,5.79-19.24,7.52-47.74,7.96008-35.44995.53992-61.51.93994-79.65-1.2301v-54.84a9.85428,9.85428,0,0,1,9.86-9.86h152.45C163.66234,150.6179,147.67235,176.3878,127.44231,188.32787Z"/>
    </clipPath>
    <clipPath id="clip-path-2">
      <path class="cls-2" d="M168.03,22.86011a30.35683,30.35683,0,0,1-9.1,9.85986c-38.00988,28.08008-38.6,36-54.30993,42.94006C73.49011,89.42,26.66016,80.13013,0,54.62012v-44.76A9.85445,9.85445,0,0,1,9.86011,0h161.29C172.31006,7.22,172.09009,15.56006,168.03,22.86011Z"/>
    </clipPath>
  </defs>
  <title>cards</title>
  <g id="Layer_1" data-name="Layer 1">
    <g>
      <path class="cls-1" d="M127.44231,188.32787c-9.8,5.79-19.24,7.52-47.74,7.96008-35.44995.53992-61.51.93994-79.65-1.2301v-54.84a9.85428,9.85428,0,0,1,9.86-9.86h152.45C163.66234,150.6179,147.67235,176.3878,127.44231,188.32787Z"/>
      <g class="cls-3">
        <g>
          <rect class="cls-1" x="-26.21009" y="77.83562" width="195.53684" height="149.11261" rx="74.55623"/>
          <path class="cls-4" d="M17.4616,106.86983c1.73744-3.2524,3.78891-6.00891,5.78463-5.78463,2.70494.304,3.46429,5.8766,5.88082,5.88082,2.49388.00436,3.42911-5.92765,5.92766-5.92765,2.49917,0,3.43807,5.93489,5.92784,5.92785,2.482-.007,3.434-5.91021,5.88026-5.88026,2.33625.02861,3.123,5.43178,5.45931,5.45931,2.43465.0287,3.35762-5.81677,5.84105-5.841,2.5886-.02531,3.83739,6.30368,6.1566,6.15661,1.27692-.081,2.19517-2.08181,2.76369-3.71981"/>
          <circle class="cls-4" cx="120.33493" cy="112.40215" r="12.64566"/>
          <circle class="cls-4" cx="120.33493" cy="112.92504" r="5.22005"/>
        </g>
      </g>
    </g>
    <g>
      <path class="cls-5" d="M168.03,22.86011a30.35683,30.35683,0,0,1-9.1,9.85986c-38.00988,28.08008-38.6,36-54.30993,42.94006C73.49011,89.42,26.66016,80.13013,0,54.62012v-44.76A9.85445,9.85445,0,0,1,9.86011,0h161.29C172.31006,7.22,172.09009,15.56006,168.03,22.86011Z"/>
      <g class="cls-6">
        <g>
          <g>
            <g>
              <rect class="cls-7" x="51.57341" y="40.66189" width="40.66346" height="5.88792" rx="0.98137"/>
              <path class="cls-8" d="M91.25551,40.66189H84.93833v5.88792h6.31718a.98137.98137,0,0,0,.98137-.98137V41.64326A.98138.98138,0,0,0,91.25551,40.66189Z"/>
              <g>
                <path class="cls-7" d="M87.53912,41.28863a2.14667,2.14667,0,1,0,2.70038,1.38718A2.14669,2.14669,0,0,0,87.53912,41.28863Zm2.36217,1.49584a1.79143,1.79143,0,1,1-2.25351-1.15762A1.79143,1.79143,0,0,1,89.90129,42.78447Z"/>
                <path class="cls-7" d="M91.14226,45.4575a.20353.20353,0,0,1,.02954.28632h0a.20354.20354,0,0,1-.28632.02954l-1.178-.9496a.20355.20355,0,0,1-.02954-.28633h0a.20357.20357,0,0,1,.28634-.02954Z"/>
              </g>
            </g>
            <g>
              <polygon class="cls-9" points="77.219 48.474 76.297 44.73 79.811 46.357 79.017 47.092 79.87 48.144 79.017 48.839 78.183 47.767 77.219 48.474"/>
              <polygon class="cls-8" points="77.219 48.474 76.297 44.73 79.449 48.487 79.017 48.839 78.183 47.767 77.219 48.474"/>
            </g>
          </g>
          <g>
            <path class="cls-10" d="M66.55685,69.29137a11.69682,11.69682,0,0,1,.40721-8.85887,54.29628,54.29628,0,0,1-.09948,6.1769s-.15713-2.05351,1.9924-5.54653A37.93356,37.93356,0,0,1,67.15176,68.264s.76382-3.08148,2.16319-4.13593A7.31246,7.31246,0,0,1,66.55685,69.29137Z"/>
            <g>
              <path class="cls-8" d="M62.1882,57.39784c1.25859-.17151,2.82286-.32841,3.30692,1.16177.42656,1.31317-.4719,2.661.44253,3.87757.7333.97559,2.127.84573,2.89031,1.80063.87409,1.09349.62141,2.73115.37381,3.99978-.01881.09634.12887.1376.14778.04074a5.76376,5.76376,0,0,0-.15686-3.76974,2.59193,2.59193,0,0,0-1.315-1.15471c-.74742-.31382-1.50584-.45255-1.95247-1.21418-.79694-1.359.41139-3.02021-.64519-4.32671-.74259-.91823-2.10907-.7024-3.13258-.56293-.09728.01325-.05586.16094.04074.14778Z"/>
              <path class="cls-8" d="M62.40353,57.27744s.1078,1.61839-1.99932.97557C60.40421,58.253,61.10069,56.58885,62.40353,57.27744Z"/>
              <path class="cls-8" d="M67.12834,63.23335s1.21858,1.07044-.72785,2.1022C66.40049,65.33555,65.71937,63.665,67.12834,63.23335Z"/>
              <path class="cls-8" d="M65.96454,62.47331s.1078,1.61837-1.99933.97556C63.96521,63.44887,64.6617,61.78471,65.96454,62.47331Z"/>
              <path class="cls-8" d="M66.44355,62.73655s-.64162-1.48966,1.55922-1.58676C68.00277,61.14979,67.90148,62.951,66.44355,62.73655Z"/>
              <path class="cls-8" d="M65.53051,61.22293s-.81594,1.4018-2.203-.30971C63.32753,60.91322,64.83574,59.92336,65.53051,61.22293Z"/>
              <path class="cls-8" d="M65.6852,60.13628s.74355-1.44151,2.21587.1972C67.90107,60.33348,66.44518,61.3988,65.6852,60.13628Z"/>
              <path class="cls-8" d="M65.631,58.58433s.285-1.59673,2.17537-.46553C67.80637,58.1188,66.72974,59.56634,65.631,58.58433Z"/>
              <path class="cls-8" d="M65.62811,59.23431s-.40789,1.56985-2.20492.29556C63.42319,59.52987,64.60878,58.17012,65.62811,59.23431Z"/>
              <path class="cls-8" d="M65.06621,57.62323s-.78255-1.42071,1.39862-1.73C66.46483,55.89324,66.538,57.69578,65.06621,57.62323Z"/>
              <path class="cls-8" d="M64.06777,57.328s1.03111,1.252-1.05562,1.95823C63.01215,59.28625,62.60779,57.52812,64.06777,57.328Z"/>
              <path class="cls-8" d="M63.58337,57.17067s-1.62187-.01746-.81831-2.06866C62.76506,55.102,64.37048,55.92488,63.58337,57.17067Z"/>
            </g>
            <path class="cls-10" d="M68.28213,81.5831S62.44759,76.54218,55.648,76.62216a69.118,69.118,0,0,0,7.28178,2.97s-2.3258-1.21007-7.48958-.43874a48.28785,48.28785,0,0,0,9.28331,1.60173s-3.98955-.64544-5.92336.4661C58.80015,81.22124,64.7565,83.69679,68.28213,81.5831Z"/>
            <path class="cls-10" d="M66.53285,69.62106A11.69681,11.69681,0,0,0,63.48,61.29487a54.29435,54.29435,0,0,0,1.95267,5.861s-.46777-2.00569-3.56835-4.69046a37.93265,37.93265,0,0,0,3.79212,6.3548s-1.65526-2.70907-3.307-3.29381A7.3124,7.3124,0,0,0,66.53285,69.62106Z"/>
            <path class="cls-10" d="M80.50974,58.22792a11.69683,11.69683,0,0,0,2.5791-8.4849,54.29665,54.29665,0,0,0-1.97212,5.85446s.83488-1.88271-.02262-5.89349a37.93346,37.93346,0,0,0-.8014,7.35675s.31077-3.15951-.65536-4.62125A7.31241,7.31241,0,0,0,80.50974,58.22792Z"/>
            <path class="cls-10" d="M86.5258,65.03648A12.668,12.668,0,0,1,89.43107,56.658a59.1745,59.1745,0,0,1-1.86343,5.88992s.45216-2.00754,3.34764-4.79431a40.97275,40.97275,0,0,1-3.57067,6.45357s1.558-2.75273,3.09235-3.399A7.62457,7.62457,0,0,1,86.5258,65.03648Z"/>
            <path class="cls-10" d="M82.15647,81.45187a13.47564,13.47564,0,0,1,7.05472-8.76933,61.97539,61.97539,0,0,1-4.70888,6.26824,20.119,20.119,0,0,1,7.9078-5.1377,73.3285,73.3285,0,0,1-8.81176,7.07835s3.16251-2.5317,5.54067-2.44937A8.88837,8.88837,0,0,1,82.15647,81.45187Z"/>
            <g>
              <path class="cls-8" d="M53.70339,73.46957A5.37646,5.37646,0,0,0,55.99705,75.484c1.16831.424,2.52587-.08768,3.62244.47418.94167.4825,1.47288,1.494,2.37825,2.03661a4.62979,4.62979,0,0,0,4.13355-.07806c.14191-.05433.08031-.285-.06341-.23-1.48946.57021-3.09877.87208-4.42125-.2394a9.79286,9.79286,0,0,0-2.02307-1.75153c-.96185-.43893-2.06664-.0984-3.08184-.30656a4.62977,4.62977,0,0,1-2.63237-2.04009c-.0915-.12082-.29871-.00211-.206.12039Z"/>
              <path class="cls-8" d="M54.24666,73.91921s-1.69417.33092-1.29817-1.97991C52.94849,71.9393,54.79887,72.45137,54.24666,73.91921Z"/>
              <path class="cls-8" d="M60.69557,76.501s-1.58113-.69261.06017-2.3668C60.75574,74.13415,61.98532,75.6087,60.69557,76.501Z"/>
              <path class="cls-8" d="M62.474,78.16867s1.32413,1.1074-.72011,2.25539C61.75385,80.42406,60.98605,78.66434,62.474,78.16867Z"/>
              <path class="cls-8" d="M61.27478,77.39185s.36237,1.68771-1.95543,1.33477C59.31935,78.72662,59.79691,76.867,61.27478,77.39185Z"/>
              <path class="cls-8" d="M59.49705,75.8407s.7426,1.55827-1.594,1.75054C57.903,77.59124,57.9379,75.67164,59.49705,75.8407Z"/>
              <path class="cls-8" d="M57.90236,75.52917s-1.46263-.5491-.06065-2.14193C57.84171,73.38724,59.02461,74.66012,57.90236,75.52917Z"/>
              <path class="cls-8" d="M56.42923,75.61514s1.47671.89388-.36987,2.33849C56.05936,77.95363,55.03367,76.33063,56.42923,75.61514Z"/>
              <path class="cls-8" d="M54.67828,74.581s-.06287,1.725-2.22319.81409C52.45509,75.39512,53.3744,73.70958,54.67828,74.581Z"/>
              <path class="cls-8" d="M55.74521,75.14063s-1.34743-1.07894.67187-2.27021C56.41708,72.87042,57.22221,74.61337,55.74521,75.14063Z"/>
            </g>
            <g>
              <path class="cls-11" d="M69.57677,80.81206s1.52395-6.94247-2.03195-7.53512c-4.29906-.71652-1.33959-4.64287-4.82586-5.24918s-1.38015-4.88793-3.957-6.10055-2.42523,2.501-.75788,4.69889-2.34945,3.78943,2.27364,6.66938-1.59154,5.002,6.21468,7.65465S69.57677,80.81206,69.57677,80.81206Z"/>
              <path class="cls-12" d="M69.7738,81.94547c-.09111-.12166-.18408-.24478-.2817-.37143a119.37957,119.37957,0,0,1-12.022-19.81075c-1.15005.47329-.77617,3.13575.534,4.86281,1.66735,2.19787-2.34945,3.78942,2.27364,6.66938s-1.59154,5.002,6.21468,7.65465C68.02751,81.47176,69.07647,81.78221,69.7738,81.94547Z"/>
            </g>
            <g>
              <path class="cls-11" d="M70.18838,81.18864s5.797-4.11278,3.56408-6.94292c-2.69959-3.42162,2.13127-4.33688-.04095-7.1303s2.26606-4.54552,1.17467-7.176-3.47687.21976-3.72115,2.96766-4.28731,1.2242-2.803,6.4648-4.542,2.63131-.5491,9.8445S70.18838,81.18864,70.18838,81.18864Z"/>
              <path class="cls-12" d="M69.5719,82.15992c.01441-.15131.02841-.305.04135-.46433a119.37931,119.37931,0,0,1,4.4271-22.7463C72.871,58.52605,71.357,60.74785,71.165,62.90712c-.24429,2.74791-4.28731,1.22419-2.803,6.4648s-4.542,2.63131-.5491,9.8445C68.59817,80.63487,69.16567,81.57012,69.5719,82.15992Z"/>
            </g>
            <g>
              <path class="cls-11" d="M77.23545,70.60463s-1.4491-6.60143,1.93213-7.165c4.08788-.6813,1.27378-4.4148,4.5888-4.99132s1.31235-4.64782,3.76258-5.80087,2.3061,2.37817.72066,4.46806,2.234,3.60329-2.162,6.34177,1.51339,4.75634-5.90937,7.27862S77.23545,70.60463,77.23545,70.60463Z"/>
              <path class="cls-12" d="M77.0481,71.68236c.08663-.11569.175-.23275.26786-.35318A113.51613,113.51613,0,0,0,88.7474,52.49161c1.09354.45.738,2.9817-.50779,4.62391-1.58544,2.08991,2.234,3.60328-2.162,6.34177s1.51339,4.75632-5.90937,7.27862C78.70861,71.23191,77.71115,71.52712,77.0481,71.68236Z"/>
            </g>
          </g>
          <g>
            <g>
              <rect class="cls-13" x="72.05062" y="46.81081" width="8.12962" height="20.70465"/>
              <rect class="cls-7" x="73.91572" y="46.81081" width="2.19966" height="20.70465"/>
              <path class="cls-14" d="M72.05036,58.29266h8.12987a1.98718,1.98718,0,0,1,1.98718,1.98718V81.23639a1.987,1.987,0,0,1-1.987,1.987H72.05054a1.9872,1.9872,0,0,1-1.9872-1.9872V60.27968a1.987,1.987,0,0,1,1.987-1.987Z"/>
              <path class="cls-15" d="M76.11538-.42125a24.75012,24.75012,0,1,1,0,49.50023v-5.4196a19.33044,19.33044,0,0,0,0-38.66088Zm0,49.50023a24.75012,24.75012,0,1,1,0-49.50023V4.9985a19.33044,19.33044,0,1,0,0,38.66088Z"/>
              <path class="cls-16" d="M73.44155,81.0531h2.67383V60.463H73.44155a1.51716,1.51716,0,0,0-1.60183,1.404V79.64911A1.51717,1.51717,0,0,0,73.44155,81.0531Z"/>
              <path class="cls-17" d="M76.11546,2.06255a22.26636,22.26636,0,1,1,0,44.53272V45.24885a20.91987,20.91987,0,0,0,0-41.83974Zm-.00008,0h.00008V3.40911h-.00008a20.91987,20.91987,0,1,0,0,41.83974h.00008v1.34642h-.00008a22.26636,22.26636,0,0,1,0-44.53272Z"/>
            </g>
            <path class="cls-14" d="M84.58963,33.11568V31.03014h.64708q.91116,0,.91092-1.00681V18.99616A.90056.90056,0,0,0,85.117,17.98935h-.52735V15.90383h1.1027q2.75682,0,2.75669,2.94853V30.19112q0,2.92464-2.78076,2.92456ZM69.27136,20.5304V19.02015a.90065.90065,0,0,0-1.00681-1.0308H67.905q-.98291,0-.98291,1.0308V21.8728a.845.845,0,0,0,.19186.64731,4.85256,4.85256,0,0,0,.62318.43147l2.18149,1.17461a10.03515,10.03515,0,0,1,1.01884.63528,1.62706,1.62706,0,0,1,.46742.55136,3.038,3.038,0,0,1,.16779,1.23462v3.66768q0,2.90065-2.78076,2.90055H67.37762q-2.75683,0-2.75676-3.16425v-.863h2.30122v.93491a.90064.90064,0,0,0,1.0308,1.00681h.40756q.9109,0,.91092-1.00681V27.09871a.84553.84553,0,0,0-.19178-.64723,4.86414,4.86414,0,0,0-.62325-.43148l-2.18149-1.22257a6.87907,6.87907,0,0,1-1.04275-.64725,1.4794,1.4794,0,0,1-.46751-.68319,3.43388,3.43388,0,0,1-.14372-1.09074V18.85236q0-2.94857,2.75676-2.94853h1.43829q2.75683,0,2.75675,2.94853v1.678Zm15.31827-4.62657v2.08552h-.55144a.88989.88989,0,0,0-1.00673,1.00681V30.02333a.90054.90054,0,0,0,1.03065,1.00681h.52752v2.08554H83.51084q-2.78091,0-2.78074-2.92456V18.85236q0-2.94857,2.75683-2.94853ZM73.49047,33.11568V15.90383h5.70537v2.08552H75.79176v5.22592h3.02052v2.08552H75.79176v5.72935h3.40408v2.08554Z"/>
          </g>
          <g>
            <ellipse class="cls-18" cx="47.50826" cy="83.42018" rx="9.78264" ry="1.3243"/>
            <g>
              <g>
                <g>
                  <path class="cls-19" d="M43.15714,39.69231l-.37772,2.75511L40.847,42.626a11.656,11.656,0,0,0,4.1771,1.95522,2.68715,2.68715,0,0,0,2.7551-1.13314l-2.29008-.5287.3555-2.644Z"/>
                  <path class="cls-20" d="M43.15714,39.69231l-.37772,2.75511L40.847,42.626a11.656,11.656,0,0,0,4.1771,1.95522,2.68715,2.68715,0,0,0,2.7551-1.13314l-2.29008-.5287.3555-2.644Z"/>
                </g>
                <g>
                  <path class="cls-20" d="M42.66492,36.4897s-.44659-1.02079-1.14839-.06381.5104,2.25424,1.10586,2.552S42.66492,36.4897,42.66492,36.4897Z"/>
                  <path class="cls-20" d="M49.56087,35.53444s-.43977,5.40929-2.11094,6.3768-5.10315.13443-4.88157-4.002C42.83224,32.98372,45.383,32.5,46.39446,32.5S49.69281,33.81929,49.56087,35.53444Z"/>
                  <path class="cls-21" d="M45.68473,34.04406a3.25439,3.25439,0,0,0,2.50943,2.48817l-.68053-.85065a9.1199,9.1199,0,0,0,2.25423,1.29724l-.17013-.82938.3828.55291a3.55518,3.55518,0,0,0-.02126-1.5099L50.576,36.3621a3.79083,3.79083,0,0,0-2.36056-3.82794c-2.70082-1.19092-3.70035.319-3.70035.319l.57419-.06381a1.485,1.485,0,0,0-2.33928.319,3.88391,3.88391,0,0,0-.55293,2.89222c.42533.29773.46786,1.12712.46786,1.12712l-.04253,1.23344.59545.12759.17014-2.27548a2.70053,2.70053,0,0,0,1.276-2.19044s.0638,1.61625,2.55195,2.552Z"/>
                </g>
              </g>
              <g>
                <path class="cls-21" d="M44.38118,37.85243a1.79007,1.79007,0,0,1,.16064-.69311.62436.62436,0,0,1,.626-.41138.64554.64554,0,0,1,.49658.5603,1.58385,1.58385,0,0,1-.043.71119,2.6362,2.6362,0,0,0-.09961-.6753.50209.50209,0,0,0-.38428-.40722c-.18554-.04761-.34961.11108-.46777.29394A3.271,3.271,0,0,0,44.38118,37.85243Z"/>
                <path class="cls-21" d="M47.33723,38.46938a1.79026,1.79026,0,0,1,.16065-.69336.62415.62415,0,0,1,.626-.41113.645.645,0,0,1,.49658.56,1.58371,1.58371,0,0,1-.043.71119,2.615,2.615,0,0,0-.10009-.6753.50085.50085,0,0,0-.38428-.40722c-.18506-.04761-.34912.11108-.46729.29394A3.23705,3.23705,0,0,0,47.33723,38.46938Z"/>
                <path class="cls-21" d="M47.19465,37.234a13.62286,13.62286,0,0,1,.23,2.54785l.00049.05078-.043.01074c-.16552.04151-.3374.06226-.50635.09155.15674-.07006.311-.14868.4712-.20629l-.042.06127A13.62651,13.62651,0,0,1,47.19465,37.234Z"/>
                <path class="cls-22" d="M44.51508,39.786l3.08362.638A2.55472,2.55472,0,0,1,44.51508,39.786Z"/>
                <path class="cls-21" d="M44.12385,36.37905a1.41882,1.41882,0,0,1,1.09668-.52955,1.21675,1.21675,0,0,1,.62305.2.94785.94785,0,0,1,.36719.50634,2.73257,2.73257,0,0,0-.5044-.24585,1.2964,1.2964,0,0,0-.49072-.07812A5.37394,5.37394,0,0,0,44.12385,36.37905Z"/>
                <path class="cls-21" d="M47.471,36.95766a1.14832,1.14832,0,0,1,1.01221-.4751.94714.94714,0,0,1,.55175.26294.87465.87465,0,0,1,.249.51514,1.50448,1.50448,0,0,0-.8374-.40552A3.46719,3.46719,0,0,0,47.471,36.95766Z"/>
              </g>
            </g>
            <g>
              <g>
                <g>
                  <g>
                    <path class="cls-19" d="M44.71619,78.32289s.23313,4.36291-.09992,4.76258-7.95982,2.36462-1.56532-.96584l-.63279-5.62849,1.99828,2.39794"/>
                    <path class="cls-21" d="M40.513,83.8131c-.19179.66858,3.86244-.43861,4.1033-.72763a.57659.57659,0,0,0,.08307-.22957A12.66231,12.66231,0,0,1,40.513,83.8131Z"/>
                    <path class="cls-21" d="M41.2858,83.02718l.39966-.23313.95751.75768-.58283.24978s-.39133-.75767-1.11571.03332Z"/>
                  </g>
                  <path class="cls-23" d="M44.794,81.40157c.01307-1.37538-.07778-3.07868-.07778-3.07868l-.29975.56618-1.99828-2.39793.55889,4.97125Q43.88544,81.42854,44.794,81.40157Z"/>
                </g>
                <g>
                  <g>
                    <path class="cls-19" d="M48.87224,78.32289s-.23313,4.36291.09991,4.76258,8.12706,2.28789,1.73256-1.04257l-.157-6.7495L49.172,78.88908"/>
                    <path class="cls-21" d="M53.07546,83.8131c.19179.66858-3.86246-.43861-4.10331-.72763a.5763.5763,0,0,1-.08306-.22957A12.66213,12.66213,0,0,0,53.07546,83.8131Z"/>
                    <path class="cls-21" d="M52.46271,82.95328l-.39965-.23312-1.1176.83157.58282.24978s.39134-.75767,1.11571.03332Z"/>
                  </g>
                  <path class="cls-23" d="M50.68889,81.36221l-.14115-6.06881L49.172,78.88907l-.29975-.56618s-.11666,2.18637-.06659,3.605C49.44147,81.76409,50.073,81.58588,50.68889,81.36221Z"/>
                </g>
              </g>
              <g>
                <polygon class="cls-10" points="39.981 59.112 42.647 80.842 44.998 80.825 44.508 61.32 45.612 61.381 48.679 80.579 51.112 80.375 49.68 57.129 39.981 59.112"/>
                <path class="cls-23" d="M49.53494,58.9634l-.156-2.11747-9.39846,2.26631.14546,1.18554C43.27139,59.91214,46.4189,59.54262,49.53494,58.9634Z"/>
                <polygon class="cls-24" points="42.114 79.909 45.132 79.839 45.245 80.943 42.502 81.196 42.114 79.909"/>
                <polygon class="cls-24" points="51.212 79.668 48.399 80.099 48.529 81.201 51.27 80.943 51.212 79.668"/>
              </g>
            </g>
            <g>
              <g>
                <path class="cls-20" d="M50.50291,46.89683l2.4615,3.15294s5.85817-3.86114,6.22837-3.81488-5.48,7.5057-6.47385,7.77276-5.47782-5.81122-5.47782-5.81122Z"/>
                <path class="cls-25" d="M51.26178,47.86888l-.75887-.972-3.2618,1.2996s.56223.762,1.33234,1.73433A25.67151,25.67151,0,0,0,51.26178,47.86888Z"/>
                <path class="cls-25" d="M54.97673,51.8203c1.99121-2.29014,4.46059-5.55486,4.216-5.58541a45.47955,45.47955,0,0,0-4.95659,2.98446C54.50528,50.08053,54.77341,50.942,54.97673,51.8203Z"/>
              </g>
              <g>
                <path class="cls-26" d="M50.12605,58.01384c.03278.34617.05385.54733.05385.54733a34.48935,34.48935,0,0,1-10.46505.65261c-.0912-.4725-.18708-1.10875-.28536-1.85255-.00931-.07952-.01868-.1567-.03038-.23859-.04917-.39295-.09828-.80931-.145-1.24672-.00931-.09122-.02108-.18011-.03038-.27134-.04677-.44674-.0936-.91221-.138-1.38705-.01405-.14271-.0257-.2877-.03975-.43275-.007-.0725-.014-.145-.01873-.21752-.014-.14736-.02569-.29472-.0374-.43974-.01873-.22223-.03741-.44443-.0538-.66663-.007-.09591-.01638-.19416-.02341-.29239-.02575-.35554-.05145-.71108-.07487-1.06663-.014-.21283-.02569-.42569-.03974-.63856-.00468-.07252-.00937-.145-.01171-.21752-.00931-.14739-.01639-.29238-.02335-.43509-.00469-.07249-.00937-.145-.01171-.21517-.00234-.07955-.007-.15673-.00937-.23391a20.42592,20.42592,0,0,1,.17309-5.34714c.66666-1.8268,3.39868-1.56716,3.39868-1.56716a2.75138,2.75138,0,0,0,2.1987,1.9578,2.67664,2.67664,0,0,0,2.79986-1.23969s1.97188-.27134,3.51329,3.24894l.43041.98243L49.3799,48.58972c.02575.70172.08189,1.61162.15435,2.5987.04449.61283.0936,1.25608.1474,1.89464.01639.21286.03506.42338.05379.63391.03044.37424.06316.74149.0936,1.097.007.07018.014.14268.01867.21286.07487.8444.14739,1.614.20587,2.21743.007.09357.01633.18246.02335.26666.01405.12863.02576.25027.03513.35788C50.11674,57.92027,50.12142,57.96707,50.12605,58.01384Z"/>
                <path class="cls-27" d="M38.74181,49.36162c.00235.07718.007.15436.00937.23391-.00468-.07955-.007-.15673-.01171-.23391Z"/>
                <path class="cls-28" d="M39.71485,59.21378s12.04853-12.97112,7.59729-16.04835"/>
                <path class="cls-28" d="M50.1799,58.56117s-9.07007-8.24925-6.35311-14.37807"/>
                <path class="cls-28" d="M38.67467,47.40165s10.06392-.0903,10.95008,4.98306-4.02837,6.70115-4.02837,6.70115S37.325,43.65356,40.37122,42.6855"/>
              </g>
              <g>
                <g>
                  <rect class="cls-8" x="51.69135" y="50.95585" width="8.03496" height="1.53339" transform="translate(-18.03644 70.17058) rotate(-56.9198)"/>
                  <rect class="cls-29" x="51.69135" y="50.95585" width="8.03496" height="1.53339" transform="translate(-18.03644 70.17058) rotate(-56.9198)"/>
                  <circle class="cls-8" cx="61.61171" cy="43.01006" r="7.36752"/>
                  <circle class="cls-10" cx="61.61171" cy="43.01006" r="5.88697"/>
                  <path class="cls-30" d="M45.16331,56.37151H57.79845a.98136.98136,0,0,1,.98136.98136v1.16538a.98138.98138,0,0,1-.98138.98138H45.16331a.98136.98136,0,0,1-.98136-.98136V57.35288A.98137.98137,0,0,1,45.16331,56.37151Z" transform="translate(-25.16263 69.45008) rotate(-56.92)"/>
                  <path class="cls-31" d="M54.97645,51.50168l.41115.26782a.98137.98137,0,0,0-1.35793.28666L47.13331,62.64327A.98138.98138,0,0,0,47.42,64.00121l-.41115-.26782a.98139.98139,0,0,1-.28666-1.35794l6.89635-10.58711A.98138.98138,0,0,1,54.97645,51.50168Z"/>
                  <g>
                    <path class="cls-32" d="M66.82708,40.2803,55.79285,43.89665a5.89576,5.89576,0,0,1-.02065-1.64291l10.4272-2.93295A5.85221,5.85221,0,0,1,66.82708,40.2803Z"/>
                    <path class="cls-32" d="M67.388,41.88151a5.91646,5.91646,0,0,1,.10708.95066l-10.49289,3.8395a5.86493,5.86493,0,0,1-.81737-1.37927Z"/>
                  </g>
                </g>
                <g>
                  <path class="cls-20" d="M39.785,48.93022l3.6188-.92s.368,3.00545.8587,5.45887c.79736.85871,3.718,5.56065,4.04815,6.01089,0,0,3.06678,0,.49069.368,0,0,3.55746,3.00545-.24534.49069,0,0,3.98681,3.37346-.24535.368,0,0,3.43479,3.06679-.30668.368,0,0,2.14675,2.63744-.30667.24535-1.37812-1.34365-4.6858-4.17277-6.13356-6.56291C40.434,52.89209,40.40327,50.30125,39.785,48.93022Z"/>
                  <path class="cls-25" d="M43.54617,48.65028c-.08828-.3985-.14242-.6401-.14242-.6401l-3.6188.92a7.85171,7.85171,0,0,1,.31988.88437A32.89614,32.89614,0,0,1,43.54617,48.65028Z"/>
                </g>
              </g>
            </g>
          </g>
          <g>
            <ellipse class="cls-18" cx="87.42824" cy="83.22341" rx="24.64883" ry="1.32429"/>
            <g>
              <g>
                <g>
                  <path class="cls-21" d="M86.3885,82.022s-7.11038,2.48817,1.1152,1.015l.20733-1.46653Z"/>
                  <path class="cls-21" d="M105.41192,81.50751s6.81485,4.96249,1.07069-1.10669l-1.3399.63118Z"/>
                </g>
                <g>
                  <path class="cls-8" d="M99.76759,63.6585s2.48749,3.45445,1.26891,7.284-3.81807,6.63619-4.34507,7.84774a6.70379,6.70379,0,0,1,3.85663-.23494,28.03121,28.03121,0,0,1,5.15814,1.99963l.095,1.61871s-12.019,1.13126-13.59472.4707S93.373,70.71425,93.373,70.71425a21.83919,21.83919,0,0,1-6.06223-.426,9.81305,9.81305,0,0,1,1.33079,4.76456,23.048,23.048,0,0,1-.94388,6.96725l-1.77976.00836S82.88738,70.46329,83.53229,67.353s9.64629-2.474,9.64629-2.474l1.02259-2.05588Z"/>
                  <path class="cls-29" d="M95.74473,64.59065c1.32227.13073,3.10595.30505,4.37026-.36057-.13148-.21816-.407-.61921-.407-.61921l-5.50688-.78775-.68623,1.37966A15.73917,15.73917,0,0,0,95.74473,64.59065Z"/>
                  <path class="cls-29" d="M93.373,70.71425l-.0181.10722a.37488.37488,0,0,1,.09245-.07944c-1.232-1.62183-1.52959-3.94214-1.96762-5.91623-2.64144-.01209-7.48083.27709-7.94739,2.52721-.64491,3.11028,2.38558,14.6754,2.38558,14.6754l1.77976-.00836a23.048,23.048,0,0,0,.94388-6.96725,9.81305,9.81305,0,0,0-1.33079-4.76456A21.83919,21.83919,0,0,0,93.373,70.71425Z"/>
                </g>
              </g>
              <g>
                <g>
                  <g>
                    <path class="cls-33" d="M99.83757,46.6036s-2.88265-1.18069-4.0277,1.02227-.3575,3.65179-2.61192,5.05184a3.38569,3.38569,0,0,0,.02556,5.86142c2.25336,1.48419,6.34494-.74636,6.34494-.74636Z"/>
                    <path class="cls-33" d="M99.9803,46.79921a4.5486,4.5486,0,0,0-2.124-.3772,2.33009,2.33009,0,0,0-1.80713,1.02076,6.93671,6.93671,0,0,0-.86865,1.97973,5.86845,5.86845,0,0,1-.83691,2.02906,5.90563,5.90563,0,0,1-1.74414,1.32421,3.45081,3.45081,0,0,0-1.26856,1.69751,3.55682,3.55682,0,0,0,1.33594,3.84595A3.90848,3.90848,0,0,1,91.327,56.61659a3.3499,3.3499,0,0,1-.07862-2.16943,3.54675,3.54675,0,0,1,1.28809-1.75976,5.84362,5.84362,0,0,0,1.7041-1.31519,5.77039,5.77039,0,0,0,.83594-1.98071,7.03051,7.03051,0,0,1,.90185-1.99854,2.401,2.401,0,0,1,1.873-1.03418A4.57966,4.57966,0,0,1,99.9803,46.79921Z"/>
                  </g>
                  <g>
                    <path class="cls-20" d="M97.609,53.84121s.0409,1.67651-.20444,1.84006-2.1672-1.02225-3.39391.04089,2.04453,5.27487,2.985,5.31575,4.53883-1.06314,4.498-2.249S99.49,56.37641,99.65357,53.923,97.609,53.84121,97.609,53.84121Z"/>
                    <path class="cls-25" d="M97.56484,55.14594a4.9221,4.9221,0,0,0,2.09781-.4328,5.11578,5.11578,0,0,1-.00909-.79016c.16356-2.45342-2.04452-.08177-2.04452-.08177A11.62879,11.62879,0,0,1,97.56484,55.14594Z"/>
                    <path class="cls-20" d="M99.23444,47.45205a2.95786,2.95786,0,0,0-2.86233,1.97466c-.86892,2.20639-.828,4.584,1.29828,4.94673a3.85526,3.85526,0,0,0,4.24236-3.14333C102.03542,49.61813,101.72875,47.65354,99.23444,47.45205Z"/>
                  </g>
                  <g>
                    <g>
                      <path class="cls-19" d="M98.53931,47.60542s-.33736,1.53339,1.93206,2.88277c0,0-2.82143,5.12153-.42935,6.71625s-.15456,3.85239.91881,5.04843,4.63354.53376,6.04279-2.62567c1.90139-4.26282-4.32417-5.02952-3.22013-8.64832,0,0,.88937-2.63744-1.07337-4.10949C100.80955,45.444,98.846,45.8267,98.53931,47.60542Z"/>
                      <path class="cls-19" d="M107.36067,59.68324a3.43081,3.43081,0,0,0,.07812-2.376,5.17259,5.17259,0,0,0-1.43554-1.9209,14.45165,14.45165,0,0,1-1.7417-1.75562,2.79784,2.79784,0,0,1-.55274-2.40942,4.6841,4.6841,0,0,0,.04932-2.37012,3.03962,3.03962,0,0,0-1.40137-1.85376,3.47822,3.47822,0,0,0-2.27246-.62182,1.79969,1.79969,0,0,0-1.06494.49634,1.95547,1.95547,0,0,0-.522,1.08032,1.99093,1.99093,0,0,1,.47558-1.124,1.8945,1.8945,0,0,1,1.09229-.57885,3.60662,3.60662,0,0,1,2.3833.60083,3.23921,3.23921,0,0,1,1.519,1.94262,4.90179,4.90179,0,0,1-.00586,2.49024,2.555,2.555,0,0,0,.4751,2.2207,14.38827,14.38827,0,0,0,1.686,1.75757,5.26294,5.26294,0,0,1,1.43554,2.00415A3.49616,3.49616,0,0,1,107.36067,59.68324Z"/>
                    </g>
                    <path class="cls-20" d="M101.05406,50.97888l-.58269,1.53339s.65538.563,1.22671-.42935C102.28077,51.07088,101.66741,50.51886,101.05406,50.97888Z"/>
                  </g>
                </g>
                <g>
                  <path class="cls-7" d="M101.2074,52.60427a.276.276,0,1,1-.276-.276A.276.276,0,0,1,101.2074,52.60427Z"/>
                  <g>
                    <path class="cls-21" d="M97.93635,50.12026a5.53284,5.53284,0,0,1-.42139.67871,4.88244,4.88244,0,0,1-.48779.62817l-.01758-.09473a3.763,3.763,0,0,1,.49707.38257,3.79075,3.79075,0,0,1-.56543-.27173l-.05859-.03344.04053-.06153a4.92753,4.92753,0,0,1,.47314-.6394A5.479,5.479,0,0,1,97.93635,50.12026Z"/>
                    <path class="cls-21" d="M96.58235,49.609a1.75344,1.75344,0,0,0-.07617.53711.34815.34815,0,0,0,.28222.332.52736.52736,0,0,0,.47461-.032,1.39828,1.39828,0,0,0,.374-.38745.80473.80473,0,0,1-.30567.489.6791.6791,0,0,1-.6001.105.50493.50493,0,0,1-.34668-.502A.89828.89828,0,0,1,96.58235,49.609Z"/>
                    <path class="cls-21" d="M98.6678,50.46767a1.75344,1.75344,0,0,0-.07617.53711.34791.34791,0,0,0,.28222.33227.52621.52621,0,0,0,.47412-.032,1.396,1.396,0,0,0,.37451-.38745.80552.80552,0,0,1-.30615.48877.67778.67778,0,0,1-.59961.105.50585.50585,0,0,1-.34717-.50171A.90255.90255,0,0,1,98.6678,50.46767Z"/>
                    <path class="cls-34" d="M96.83235,52.41005a2.01968,2.01968,0,0,0,.73779.2146,2.90622,2.90622,0,0,0,.7749.01026,1.35312,1.35312,0,0,1-.79931.17163A1.15888,1.15888,0,0,1,96.83235,52.41005Z"/>
                    <path class="cls-33" d="M98.77424,49.67031a1.01606,1.01606,0,0,1,1.00489.02368,1.06062,1.06062,0,0,1,.5288.85547,4.59912,4.59912,0,0,0-.71289-.53711A3.48826,3.48826,0,0,0,98.77424,49.67031Z"/>
                    <path class="cls-33" d="M96.7469,48.81728a.74656.74656,0,0,1,.87842-.05469,1.14085,1.14085,0,0,1,.32177.32764.86254.86254,0,0,1,.12549.42749c-.26269-.16211-.42822-.335-.63476-.439A1.94933,1.94933,0,0,0,96.7469,48.81728Z"/>
                  </g>
                </g>
              </g>
              <g>
                <g>
                  <g>
                    <path class="cls-20" d="M92.31374,58.03247l-1.9014,2.08542-6.99226-2.57611-.24534,1.5334s6.74692,3.68013,7.4216,3.68013,3.92548-3.49612,3.92548-3.49612Z"/>
                    <path class="cls-25" d="M86.48743,58.67186l-3.06735-1.13008-.24534,1.5334s2.58856,1.41189,4.71931,2.48666C87.45245,60.58461,87.00364,59.61121,86.48743,58.67186Z"/>
                    <path class="cls-25" d="M93.98962,59.81968c.32282-.33538.5322-.56049.5322-.56049l-2.20808-1.22672-.4489.49234A20.78206,20.78206,0,0,0,93.98962,59.81968Z"/>
                    <path class="cls-25" d="M84.32321,58.11014s-.026-3.09434-.416-.46806S84.32321,58.11014,84.32321,58.11014Z"/>
                  </g>
                  <path class="cls-25" d="M93.45372,59.20081,91.85384,58.044s1.72294-2.63364,3.09732-2.73071A18.49519,18.49519,0,0,0,93.45372,59.20081Z"/>
                </g>
                <g>
                  <path class="cls-10" d="M100.45584,62.2265c-.03746.10993-.07721.21752-.11464.32045-.0187.0538-.03743.10291-.05613.152-.23391.6409-.428,1.07828-.428,1.07828a13.41075,13.41075,0,0,1-5.7237-.89817s-.12164-.931-.16375-1.78474a6.48588,6.48588,0,0,0,1.47594.44443c.9684.20116,1.95548.35086,2.94022.47952h.00234c.14034.0187.28068.03509.421.0538.17309.02338.34852.04211.52395.06081C99.70732,62.17271,100.08157,62.20309,100.45584,62.2265Z"/>
                  <path class="cls-35" d="M100.45584,62.2265c-.03746.10993-.07721.21752-.11464.32045-.0187.0538-.03743.10291-.05613.152-.23391.6409-.428,1.07828-.428,1.07828a13.41075,13.41075,0,0,1-5.7237-.89817s-.12164-.931-.16375-1.78474V61.078s-2.32971-1.083,0-3.8431l.04211-1.51337a1.15363,1.15363,0,0,1,.94031-.40934,2.49715,2.49715,0,0,0,1.83848,2.90513c2.37185.94029,3.394-1.34964,4.17058-.04211C101.43356,58.97051,100.926,60.86046,100.45584,62.2265Z"/>
                  <path class="cls-28" d="M100.96106,58.17522s-5.90776.775-6.99148,2.91915"/>
                  <path class="cls-28" d="M96.32913,63.5536s3.61122-2.58,2.68924-5.30808"/>
                  <path class="cls-28" d="M97.31412,60.16531s-.92973-2.48645-4.37141-.60949"/>
                </g>
              </g>
              <g>
                <g>
                  <g>
                    <polygon class="cls-36" points="69.266 82.132 65.935 83.012 64.237 67.611 70.398 67.611 70.712 68.743 78.256 68.743 79.01 81.629 69.266 82.132"/>
                    <polygon class="cls-7" points="66.5 82.447 66.123 69.308 83.096 69.245 79.576 82.069 66.5 82.447"/>
                    <polygon class="cls-37" points="66.5 82.447 66.123 69.308 83.096 69.245 79.576 82.069 66.5 82.447"/>
                    <polygon class="cls-7" points="67.695 82.132 67.318 69.685 84.291 69.623 80.77 82.447 67.695 82.132"/>
                    <polygon class="cls-38" points="67.695 82.132 67.318 69.685 84.291 69.623 80.77 82.447 67.695 82.132"/>
                  </g>
                  <g>
                    <polygon class="cls-7" points="73.566 75.531 73.189 63.084 90.162 63.021 89.596 75.908 73.566 75.531"/>
                    <polygon class="cls-38" points="73.382 70.295 73.566 75.531 89.596 75.908 89.959 67.64 73.382 70.295"/>
                  </g>
                  <g>
                    <polygon class="cls-7" points="67.626 66.479 67.249 54.033 84.222 53.97 83.656 66.857 67.626 66.479"/>
                    <polygon class="cls-38" points="67.556 64.164 67.626 66.479 83.656 66.857 84.203 54.404 67.556 64.164"/>
                  </g>
                  <polygon class="cls-19" points="65.935 83.012 82.656 83.012 87.622 69.497 82.09 69.497 81.588 70.44 70.209 70.44 65.935 83.012"/>
                </g>
                <g>
                  <path class="cls-20" d="M97.31412,60.16531l-3.177,3.46042s-4.1554.45244-5.09552.55989c-.08326.00951-.15336.018-.21456.02568-1.07788-.83675-.62181-.22547-.37492.07718-3.08064.70029-.47148.40748-.47148.40748-2.76658.97643.17581.27237.17581.27237-2.15631,1.58671.20341.24412.20341.24412-1.60135,1.57858.32548.12205.32548.12205s5.61452.56959,6.75369.08137A18.41618,18.41618,0,0,0,98.938,62.40519,5.6675,5.6675,0,0,1,97.31412,60.16531Z"/>
                  <path class="cls-25" d="M98.61507,62.74177c.20081-.20615.32291-.33658.32291-.33658a5.66741,5.66741,0,0,1-1.62384-2.23987l-.91365.99515C97.12905,61.702,97.86342,62.23461,98.61507,62.74177Z"/>
                  <path class="cls-10" d="M99.33308,62.13293c-.18948.21053-.3158.3415-.3158.3415l-.6292-.45611c.14034.0187.28068.03509.421.0538C98.98222,62.0955,99.15765,62.11423,99.33308,62.13293Z"/>
                </g>
              </g>
            </g>
          </g>
          <ellipse class="cls-22" cx="98.47178" cy="51.96359" rx="0.17952" ry="0.31769" transform="translate(13.81259 124.28044) rotate(-68.32496)"/>
          <ellipse class="cls-22" cx="96.42202" cy="51.10305" rx="0.17952" ry="0.31769" transform="translate(13.31958 121.83291) rotate(-68.32496)"/>
          <ellipse class="cls-22" cx="45.02049" cy="38.81816" rx="0.43765" ry="0.18197"/>
          <ellipse class="cls-22" cx="48.07834" cy="39.34695" rx="0.2991" ry="0.14404"/>
        </g>
      </g>
      <path class="cls-39" d="M28.69461,26.0991l-2.01188-.60831a1.26939,1.26939,0,0,0-1.16.22358L23.881,27.02685a1.26936,1.26936,0,0,1-2.06174-.96538l-.04316-2.1014a1.26936,1.26936,0,0,0-.5711-1.03415l-1.75555-1.15575a1.26936,1.26936,0,0,1,.281-2.25915l1.9852-.69042a1.26938,1.26938,0,0,0,.80707-.86272l.55669-2.02678a1.26935,1.26935,0,0,1,2.23541-.43084L26.585,17.175a1.26933,1.26933,0,0,0,1.06989.501l2.0996-.09686A1.26936,1.26936,0,0,1,30.855,19.57192l-1.20024,1.72543a1.26934,1.26934,0,0,0-.14583,1.17234l.74093,1.96691A1.26935,1.26935,0,0,1,28.69461,26.0991Z"/>
      <path class="cls-39" d="M125.90015,23.18005a.94967.94967,0,0,1-.95008.95008.84164.84164,0,0,1-.27-.04,2.37486,2.37486,0,0,1,.27,1.09,2.26342,2.26342,0,0,1-1.42,2.1,5.1162,5.1162,0,0,1,.29,1.71A5.305,5.305,0,1,1,118.51,23.69006a5.10784,5.10784,0,0,1,2.14014.46,2.26694,2.26694,0,0,1,2.0299-1.25,2.17182,2.17182,0,0,1,1.35.45008.88142.88142,0,0,1-.02-.17.94508.94508,0,1,1,1.89014,0Z"/>
    </g>
  </g>
</svg>
