<svg xmlns="http://www.w3.org/2000/svg" xmlns:xlink="http://www.w3.org/1999/xlink" width="67.66981mm" height="40.40003mm" viewBox="0 0 191.81995 114.51978">
  <defs>
    <style>
      .cls-1, .cls-29, .cls-9 {
        fill: none;
      }

      .cls-2 {
        clip-path: url(#clip-path);
      }

      .cls-17, .cls-3 {
        fill: #01e3c8;
      }

      .cls-3 {
        fill-rule: evenodd;
        opacity: 0.3;
      }

      .cls-14, .cls-15, .cls-19, .cls-20, .cls-21, .cls-22, .cls-24, .cls-25, .cls-3 {
        isolation: isolate;
      }

      .cls-4 {
        fill: #0e0e0e;
      }

      .cls-5 {
        fill: #5e5c5c;
      }

      .cls-19, .cls-20, .cls-21, .cls-24, .cls-25, .cls-6, .cls-8 {
        fill: #fff;
      }

      .cls-7 {
        fill: #4d4b4b;
      }

      .cls-29, .cls-8 {
        stroke: #000;
        stroke-width: 0.2815px;
      }

      .cls-9 {
        stroke: #01e3c8;
        stroke-width: 1.126px;
      }

      .cls-10 {
        fill: #8d7f7f;
      }

      .cls-11 {
        fill: #d54848;
      }

      .cls-12 {
        fill: #407bff;
      }

      .cls-13 {
        fill: #263238;
      }

      .cls-14, .cls-24 {
        opacity: 0.2;
      }

      .cls-15, .cls-18, .cls-25 {
        opacity: 0.4;
      }

      .cls-16 {
        fill: #ffb573;
      }

      .cls-19 {
        opacity: 0.7;
      }

      .cls-20 {
        opacity: 0.8;
      }

      .cls-21 {
        opacity: 0.5;
      }

      .cls-22 {
        opacity: 0.1;
      }

      .cls-23 {
        fill: #ed893e;
      }

      .cls-26 {
        fill: #ffc727;
      }

      .cls-27 {
        fill: #f5d098;
      }

      .cls-28 {
        fill: #b62828;
      }

      .cls-30 {
        fill: #00baa4;
      }

      .cls-31 {
        fill: #c4c4c4;
      }

      .cls-32 {
        fill: #2e2727;
      }

      .cls-33 {
        fill: #aadcd6;
      }
    </style>
    <clipPath id="clip-path">
      <path class="cls-1" d="M158.03,53.52991C119.40991,95.41,41.73,99.5199,0,61.76V9.86A9.85424,9.85424,0,0,1,9.86,0H181.95A7.5888,7.5888,0,0,1,182.78.03992C185.08,24.2,161.84,49.4,158.03,53.52991Z"/>
    </clipPath>
  </defs>
  <title>cards</title>
  <g id="Layer_1" data-name="Layer 1">
    <g class="cls-2">
      <g>
        <path class="cls-3" d="M-10.97432,5.98023C-.60664-10.15146,33.203.33737,51.03425-10.0799c17.321-10.11857,14.96143-39.2866,36.70838-41.61045,20.94264-2.23785,36.42561,20.32555,54.55131,31.859,17.66987,11.243,40.06513,18.34193,50.09581,34.72759a58.82478,58.82478,0,0,1,4.17548,53.92437c-6.82714,15.88044-24.45191,25.2628-41.75463,33.48849-15.77894,7.50152-33.44843,11.28261-52.4772,11.31023-19.84745.02878-40.63181-1.38962-58.14495-11.14961C26.17633,92.43168,15.29158,76.15219,6.02786,59.94855-3.98516,42.43386-20.96583,21.52659-10.97432,5.98023Z"/>
        <path class="cls-4" d="M41.43831,85.139c4.52737-4.63547,4.95863-9.80973,3.23387-12.39672,17.10371-.71867,43.33422-.10781,39.45373,1.72475-4.63717,2.18979,1.32953,7.65345,3.3417,10.672Z"/>
        <path class="cls-5" d="M17.29174,9.04653a2.815,2.815,0,0,1,2.815-2.815h94.62109a2.815,2.815,0,0,1,2.815,2.815V70.89728a2.815,2.815,0,0,1-2.815,2.815H20.10675a2.815,2.815,0,0,1-2.815-2.815Z"/>
        <path class="cls-6" d="M20.74125,11.41817a2.815,2.815,0,0,1,2.815-2.815h87.50645a2.815,2.815,0,0,1,2.815,2.815V68.52593a2.815,2.815,0,0,1-2.815,2.815H23.55626a2.815,2.815,0,0,1-2.815-2.815Z"/>
        <path class="cls-7" d="M45.64223,6.23152a3.88077,3.88077,0,1,1,7.76154,0Z"/>
        <path class="cls-8" d="M49.19956,2.36088a4.06732,4.06732,0,0,1,.57145,0h53.42741c1.555,0,3.99591,1.62482,3.99591,3.44079V82.2882a1.12607,1.12607,0,0,1-1.126,1.126H54.42956a1.12605,1.12605,0,0,1-1.126-1.126V5.80167A3.52326,3.52326,0,0,0,49.771,2.36088Z"/>
        <path class="cls-9" d="M55.77513,2.24293c.86252.64689,2.0482,1.186,2.0482,3.01853"/>
        <path class="cls-9" d="M99.21744,2.35075a2.46724,2.46724,0,0,1,1.61694,2.47946"/>
        <path class="cls-9" d="M57.82333,4.938V79.10218H100.9422V77.9165"/>
        <path class="cls-9" d="M100.83438,4.83021l.10416,74.272"/>
        <rect class="cls-10" x="62.56634" y="8.38753" width="33.20131" height="1.07797"/>
        <rect class="cls-10" x="62.78196" y="40.07972" width="33.20131" height="1.07797"/>
        <rect class="cls-10" x="62.56634" y="58.1895" width="33.20131" height="1.07797"/>
        <rect class="cls-10" x="62.56634" y="12.9149" width="33.20131" height="1.07797"/>
        <rect class="cls-10" x="62.78196" y="44.60709" width="33.20131" height="1.07797"/>
        <rect class="cls-10" x="62.56634" y="62.71716" width="33.20131" height="1.07797"/>
        <rect class="cls-10" x="62.78196" y="17.44228" width="33.20131" height="1.07797"/>
        <rect class="cls-10" x="62.9976" y="49.13475" width="33.20131" height="1.07797"/>
        <rect class="cls-10" x="62.78196" y="67.24453" width="33.20131" height="1.07797"/>
        <rect class="cls-10" x="62.78196" y="21.96994" width="33.20131" height="1.07797"/>
        <rect class="cls-10" x="62.9976" y="53.66213" width="33.20131" height="1.07797"/>
        <rect class="cls-10" x="62.78196" y="71.7719" width="33.20131" height="1.07797"/>
        <rect class="cls-11" x="62.56634" y="26.49731" width="33.20131" height="1.07797"/>
        <rect class="cls-10" x="62.56634" y="31.02469" width="33.20131" height="1.07797"/>
        <rect class="cls-12" x="62.56634" y="35.55234" width="33.20131" height="1.07797"/>
        <path class="cls-13" d="M49.17676,87.3006l-2.0437.05968a.16308.16308,0,0,0-.15623.13343l-.31978,1.67353a.27116.27116,0,0,0,.11513.28122.26929.26929,0,0,0,.09881.04054h.05742c.7381-.0366,1.37936-.09656,2.299-.12162,1.08265-.03236.81156.10557,2.08507.085.76794-.01155.88054-.88729.554-.91966a2.90365,2.90365,0,0,1-2.2506-1.10124A.65754.65754,0,0,0,49.17676,87.3006Z"/>
        <path class="cls-14" d="M47.202,85.09139l.0366,1.15387,1.68506-.02758.02308-.92868Z"/>
        <path class="cls-13" d="M40.68445,87.38562,38.643,87.27077a.16321.16321,0,0,0-.16777.11936l-.45969,1.64143a.27186.27186,0,0,0,.02252.208.26872.26872,0,0,0,.06868.08135.27393.27393,0,0,0,.09487.04871l.05743.01154c.73584.02759,1.39314.0228,2.299.07572,1.08265.06193.8.17706,2.069.26658.7654.05293.95626-.81128.63225-.87124a2.89669,2.89669,0,0,1-2.14728-1.29181A.65205.65205,0,0,0,40.68445,87.38562Z"/>
        <path class="cls-14" d="M38.90761,85.01764l-.06446,1.14964,1.68281.11936.10106-.92416Z"/>
        <path class="cls-13" d="M43.66835,47.91332h2.844s2.90791,14.99356,3.25049,20.06255c.299,4.43223-.44308,19.78021-.44308,19.78021H46.956s-.67363-8.75214-.97259-14.0376c-.11485-2.03665-.01379-3.8574-.14947-4.99551-.57454-4.75623-4.73343-12.18419-3.74706-18.79354C42.08688,49.932,41.96274,47.92936,43.66835,47.91332Z"/>
        <path class="cls-15" d="M43.66835,56.541l-1.28026-.36764c.93542,4.69205,3.04809,9.26221,3.4481,12.55183A26.79312,26.79312,0,0,0,43.66835,56.541Z"/>
        <path class="cls-13" d="M39.358,47.91332h6.01623L43.1442,69.81745,40.80972,87.362H38.77643V75.04041c0-2.33787.2162-4.61605.18608-6.32194C38.8637,63.52309,36.8293,57.04689,39.358,47.91332Z"/>
        <path class="cls-13" d="M40.17409,28.35212s-2.138-.25307-1.76558,1.81371-1.72419,1.86438-.48727,3.93341-.94951,2.0116.57482,4.08063c1.72419,2.34265,7.15631-.09881,7.069-1.4714-.08727-1.37232-.74711-.8552-.44815-1.92406.36538-1.30588,1.108-1.12882.44815-2.59544-.49657-1.10827-.862-1.30813-.74711-2.48762C44.93286,28.52215,42.979,26.19554,40.17409,28.35212Z"/>
        <path class="cls-6" d="M39.03851,36.9224a1.07231,1.07231,0,0,1,.4276-.0943,30.92589,30.92589,0,0,1,4.06684,0h.22971l1.62763,3.88049.97709,7.12675-4.68529.01379S40.34186,40.23032,39.03851,36.9224Z"/>
        <path class="cls-16" d="M39.75578,33.02785a1.22237,1.22237,0,0,0,.724.60241c.4138.12414.63-.24378.5219-.639-.09655-.35413-.42985-.84844-.84816-.8a.55463.55463,0,0,0-.47152.63225A.49835.49835,0,0,0,39.75578,33.02785Z"/>
        <path class="cls-17" d="M52.15841,42.5223c-.7288.75414-2.27593,2.27143-2.98869,2.3404-.96076.09205-2.97237-3.4208-2.97237-3.4208l-.98384-3.60011-.91966-.84141a3.64246,3.64246,0,0,1,2.58164,1.50828c.87125,1.37457,2.48988,4.285,2.48988,4.285L51.402,41.5362Z"/>
        <path class="cls-13" d="M42.08688,47.54793l4.42519-.17256v.97709H42.14431Z"/>
        <g class="cls-18">
          <path class="cls-15" d="M42.08688,47.54793l4.42519-.17256v.97709H42.14431Z"/>
        </g>
        <path class="cls-13" d="M44.66374,47.09725a.68992.68992,0,0,0-.59537.37242l.59537-.02308v.90587h-.58609a.6893.6893,0,0,0,.58609.35413.81156.81156,0,0,0,0-1.60934Z"/>
        <path class="cls-19" d="M44.66374,47.09725a.68992.68992,0,0,0-.59537.37242l.59537-.02308v.90587h-.58609a.6893.6893,0,0,0,.58609.35413.81156.81156,0,0,0,0-1.60934Z"/>
        <path class="cls-16" d="M42.56515,39.242l.8-.18635.16777-2.20443a1.04649,1.04649,0,0,1-.2069-.02309c-1.13557-.23-1.023-1.02775-.77019-1.7909L40.788,33.23475c.11035,1.02325.27812,3.09228-.61367,3.48976a2.68459,2.68459,0,0,1-.57032.11964Z"/>
        <path class="cls-17" d="M39.61559,36.80277l3.47822,2.18163.28741-2.18163.28742.02533.38143,2.95182-.82283-.55653-.7471.86224L39.358,36.8281Z"/>
        <path class="cls-20" d="M39.61559,36.80277l3.47822,2.18163.28741-2.18163.28742.02533.38143,2.95182-.82283-.55653-.7471.86224L39.358,36.8281Z"/>
        <path class="cls-17" d="M38.61091,50.73649s4.4829,1.37935,4.4829-1.60934A28.07127,28.07127,0,0,0,39.358,36.8281s-2.01161.22971-2.18388,1.7242C37.00157,40.0465,39.53057,43.31557,38.61091,50.73649Z"/>
        <path class="cls-17" d="M42.5857,45.20078a30.02384,30.02384,0,0,0-3.21839-8.37268,3.67212,3.67212,0,0,0-.53345.11711v2.26918l1.30588.632-.52415.9405Z"/>
        <path class="cls-21" d="M42.5857,45.20078a30.02384,30.02384,0,0,0-3.21839-8.37268,3.67212,3.67212,0,0,0-.53345.11711v2.26918l1.30588.632-.52415.9405Z"/>
        <path class="cls-22" d="M45.772,39.91532l.41831,1.52658a22.38891,22.38891,0,0,0,1.37935,2.069,16.05235,16.05235,0,0,0-1.53558-4.48965Z"/>
        <path class="cls-17" d="M43.66864,36.8281a46.58368,46.58368,0,0,1,2.2413,10.46c.23,4.59775,1.55192,3.76563,1.55192,3.76563a14.27792,14.27792,0,0,1-.68968-5.48982C46.887,42.00067,46.54219,36.36813,43.66864,36.8281Z"/>
        <path class="cls-17" d="M45.27769,38.4442,43.91213,36.805a1.76432,1.76432,0,0,0-.24349.02308,54.16073,54.16073,0,0,1,1.89647,7.46906V39.81652l-.71952-.65956Z"/>
        <path class="cls-21" d="M45.27769,38.4442,43.91213,36.805a1.76432,1.76432,0,0,0-.24349.02308,54.16073,54.16073,0,0,1,1.89647,7.46906V39.81652l-.71952-.65956Z"/>
        <path class="cls-16" d="M51.42032,41.5362l.6345-.393.56328-1.09673a.67266.67266,0,0,1,.49657-.35638l.71726-.10809a.67451.67451,0,0,1,.27757.0166.66736.66736,0,0,1,.24659.12836l.161.1309a.6695.6695,0,0,1,.20915.7336l-.05967.17228a.67186.67186,0,0,1-.55175.44842.85068.85068,0,0,0-.64829.3516,1.34208,1.34208,0,0,1-.90137.5402s-.15173.16552-.39522.41859Z"/>
        <path class="cls-17" d="M51.06872,41.5683l.40677-.30093.90813,1.28027-.36764.34962Z"/>
        <path class="cls-21" d="M51.06872,41.5683l.40677-.30093.90813,1.28027-.36764.34962Z"/>
        <path class="cls-14" d="M41.51206,33.97735l1.05309,1.06688a3.24911,3.24911,0,0,0-.145.547c-.42282-.10106-1.03677-.53795-1.04127-.99313A1.81625,1.81625,0,0,1,41.51206,33.97735Z"/>
        <path class="cls-16" d="M39.88893,31.644c.4276,1.63439.57257,2.33336,1.57246,3.01853a2.156,2.156,0,0,0,3.48976-1.5795c.06446-1.55614-.64351-3.96325-2.39078-4.30358A2.29908,2.29908,0,0,0,39.88893,31.644Z"/>
        <path class="cls-13" d="M43.75365,33.27162c.02505.13569.11936.23.2069.21366.08727-.016.1354-.14018.11035-.27334-.02534-.13343-.11964-.23-.2069-.21393C43.77645,33.01405,43.72606,33.13819,43.75365,33.27162Z"/>
        <path class="cls-23" d="M43.6478,31.62344a3.568,3.568,0,0,0,.6483.7654.58422.58422,0,0,1-.45969.18635Z"/>
        <path class="cls-13" d="M42.03621,31.02778a.07679.07679,0,0,1-.03209,0,.06673.06673,0,0,1-.03068-.0411.06836.06836,0,0,1-.00113-.02618A.06251.06251,0,0,1,41.981,30.936a.7804.7804,0,0,1,.60692-.391.0668.0668,0,0,1,.06671.06671.06631.06631,0,0,1-.06671.06672.65066.65066,0,0,0-.49657.32879.06853.06853,0,0,1-.02505.01661A.07233.07233,0,0,1,42.03621,31.02778Z"/>
        <path class="cls-13" d="M44.49372,30.40032a.07712.07712,0,0,1-.03209,0,.65107.65107,0,0,0-.59313-.03913.06428.06428,0,0,1-.02477.00816.06861.06861,0,0,1-.02618-.00253.06078.06078,0,0,1-.0228-.01267.0634.0634,0,0,1-.016-.02055.07132.07132,0,0,1,.02984-.09205.7952.7952,0,0,1,.722.04138.06936.06936,0,0,1,.02984.0898.07412.07412,0,0,1-.0273.027.075.075,0,0,1-.03716.00985Z"/>
        <path class="cls-13" d="M42.65242,31.59107c.02758.13343.11963.23.20915.21168.0898-.01857.13794-.13793.11035-.27362s-.11935-.23-.2069-.21393C42.67775,31.33124,42.62708,31.45313,42.65242,31.59107Z"/>
        <path class="cls-13" d="M44.17421,31.28986c.02759.13343.11964.23.2069.21169.08727-.01858.13794-.14047.11261-.27587-.02534-.13569-.11964-.23-.20691-.21169C44.19954,31.03257,44.14662,31.15418,44.17421,31.28986Z"/>
        <path class="cls-13" d="M44.25022,31.03031l.30345-.15651S44.43629,31.159,44.25022,31.03031Z"/>
        <path class="cls-13" d="M42.72814,31.329l.30346-.15623S42.9145,31.45792,42.72814,31.329Z"/>
        <path class="cls-13" d="M40.89614,28.37267c-.29192.50107.4366,1.43,1.96768,1.34022,1.14965-.06671,2.60023,1.17245,2.48284-.16552C45.25011,28.31975,42.349,27.73817,40.89614,28.37267Z"/>
        <path class="cls-13" d="M41.88,28.72905c.91966.59537.308,1.68056-.13343,2.17009-.4414.48981-1.124.945-.59763,1.66676s.88983,2.71283-.79552,2.3632c-1.68506-.34934-1.60906-2.72408-1.11727-3.82081C39.72819,30.01185,40.78579,28.02333,41.88,28.72905Z"/>
        <path class="cls-17" d="M44.29385,28.14268a.945.945,0,0,0-1.04155-.6528.70572.70572,0,0,0-.48278.79778.3226.3226,0,0,0-.2297-.02984.27466.27466,0,0,0-.103.0501.278.278,0,0,0-.074.08783,1.00679,1.00679,0,0,0-.31049-.31274.76674.76674,0,0,0-.61367-.11486.64309.64309,0,0,0-.43239.40452.92139.92139,0,0,0,0,.65055.77627.77627,0,0,0,.04392.0988l-.7198,1.2828c.01154.08755.02308.18635.03462.29192l.78623-1.40216a1.07469,1.07469,0,0,0,.28038.26884.83007.83007,0,0,0,.44139.13568.60625.60625,0,0,0,.17256-.02308.62466.62466,0,0,0,.43211-.38847.8947.8947,0,0,0,0-.65055.16431.16431,0,0,1-.0152-.07066.16828.16828,0,0,1,.01632-.07009.16618.16618,0,0,1,.04476-.05687A.16794.16794,0,0,1,42.588,28.407a.20726.20726,0,0,1,.23.13344.98379.98379,0,0,0,.869.67362.63484.63484,0,0,0,.17228-.02308A.75692.75692,0,0,0,44.29385,28.14268ZM42.34418,29.207a.51866.51866,0,0,1-.34935.315.618.618,0,0,1-.257.00506.6262.6262,0,0,1-.2373-.09937.88355.88355,0,0,1-.35864-.45969.77031.77031,0,0,1,0-.54949.51512.51512,0,0,1,.34709-.315.58472.58472,0,0,1,.13794-.0183.69042.69042,0,0,1,.35863.11035.90257.90257,0,0,1,.35864.45968.76709.76709,0,0,1,.00478.55653Zm1.46915-.163a.77729.77729,0,0,1-.8552-.54949.62531.62531,0,0,1,.34483-.86449.53846.53846,0,0,1,.13569-.0183.82008.82008,0,0,1,.71952.56779.631.631,0,0,1-.34034.869Z"/>
        <path class="cls-13" d="M40.1099,28.73355s-.07825-1.56542.5768-1.51729C41.342,27.26468,40.40407,27.768,40.1099,28.73355Z"/>
        <path class="cls-22" d="M38.61091,44.63524c.4597-3.568.04589-4.7979.04589-4.7979l-.57,1.3011s-.03209.31951-.076.72177A20.217,20.217,0,0,1,38.61091,44.63524Z"/>
        <path class="cls-22" d="M40.86855,46.534l-1.2645.23-.79778.29192V48.3502A12.3053,12.3053,0,0,0,40.86855,46.534Z"/>
        <path class="cls-17" d="M61.11267,33.56833h-.82086V44.04662h.82086a.43922.43922,0,0,0,.43914-.43914V34.00719a.43874.43874,0,0,0-.43914-.43886Z"/>
        <path class="cls-24" d="M61.11267,33.56833h-.82086V44.04662h.82086a.43922.43922,0,0,0,.43914-.43914V34.00719a.43874.43874,0,0,0-.43914-.43886Z"/>
        <path class="cls-17" d="M60.05507,35.1315h-1.115v1.115h1.115Z"/>
        <path class="cls-21" d="M60.05507,35.1315h-1.115v1.115h1.115Z"/>
        <path d="M60.193,34.97048l-.72626.72655-.44844-.46c-.12639-.12414-.32176.07151-.19536.19565l.54724.547a.14.14,0,0,0,.19536,0l.82283-.82282a.13758.13758,0,0,0-.10613-.21A.1378.1378,0,0,0,60.193,34.97048Z"/>
        <path class="cls-25" d="M60.193,34.97048l-.72626.72655-.44844-.46c-.12639-.12414-.32176.07151-.19536.19565l.54724.547a.14.14,0,0,0,.19536,0l.82283-.82282a.13758.13758,0,0,0-.10613-.21A.1378.1378,0,0,0,60.193,34.97048Z"/>
        <path class="cls-17" d="M60.05507,36.85569h-1.115v1.115h1.115Z"/>
        <path class="cls-21" d="M60.05507,36.85569h-1.115v1.115h1.115Z"/>
        <path d="M54.83182,37.54987H57.5652a.13744.13744,0,0,0,.13793-.13793.13793.13793,0,0,0-.13793-.13794H54.83182a.13794.13794,0,1,0,0,.27587Z"/>
        <g class="cls-18">
          <path class="cls-25" d="M54.83182,37.54987H57.5652a.13744.13744,0,0,0,.13793-.13793.13793.13793,0,0,0-.13793-.13794H54.83182a.13794.13794,0,1,0,0,.27587Z"/>
        </g>
        <path d="M60.193,36.69467l-.72626.72655-.44844-.46c-.12639-.12414-.32176.07151-.19536.19565l.54724.547a.14.14,0,0,0,.19536,0l.82283-.82282a.13759.13759,0,0,0-.10613-.21A.1378.1378,0,0,0,60.193,36.69467Z"/>
        <path class="cls-25" d="M60.193,36.69467l-.72626.72655-.44844-.46c-.12639-.12414-.32176.07151-.19536.19565l.54724.547a.14.14,0,0,0,.19536,0l.82283-.82282a.13759.13759,0,0,0-.10613-.21A.1378.1378,0,0,0,60.193,36.69467Z"/>
        <path class="cls-17" d="M60.05507,38.57988h-1.115v1.115h1.115Z"/>
        <path class="cls-21" d="M60.05507,38.57988h-1.115v1.115h1.115Z"/>
        <path d="M54.83182,39.27407h3.28512a.13744.13744,0,0,0,.13793-.13794.13691.13691,0,0,0-.04025-.0974.13831.13831,0,0,0-.09768-.04054H54.83182a.13794.13794,0,0,0,0,.27588Z"/>
        <g class="cls-18">
          <path class="cls-25" d="M54.83182,39.27407h3.28512a.13744.13744,0,0,0,.13793-.13794.13691.13691,0,0,0-.04025-.0974.13831.13831,0,0,0-.09768-.04054H54.83182a.13794.13794,0,0,0,0,.27588Z"/>
        </g>
        <path d="M60.193,38.41886l-.72626.72656-.44844-.46c-.12639-.12639-.32176.069-.19536.19311l.54724.54725a.14007.14007,0,0,0,.19536,0l.82283-.82312a.1381.1381,0,0,0-.10753-.20606A.14019.14019,0,0,0,60.193,38.41886Z"/>
        <path class="cls-25" d="M60.193,38.41886l-.72626.72656-.44844-.46c-.12639-.12639-.32176.069-.19536.19311l.54724.54725a.14007.14007,0,0,0,.19536,0l.82283-.82312a.1381.1381,0,0,0-.10753-.20606A.14019.14019,0,0,0,60.193,38.41886Z"/>
        <path class="cls-17" d="M60.05507,40.30408h-1.115v1.11474h1.115Z"/>
        <path class="cls-21" d="M60.05507,40.30408h-1.115v1.11474h1.115Z"/>
        <path d="M54.83182,40.99826h3.1013a.13794.13794,0,1,0,0-.27588h-3.1013a.13794.13794,0,0,0,0,.27588Z"/>
        <g class="cls-18">
          <path class="cls-25" d="M54.83182,40.99826h3.1013a.13794.13794,0,1,0,0-.27588h-3.1013a.13794.13794,0,0,0,0,.27588Z"/>
        </g>
        <path class="cls-16" d="M53.08033,39.86719a4.89877,4.89877,0,0,1,1.14937,0c.05742.03913.02984.21141,0,.27361-.02984.06193-.2024.11964-.28742.15173a3.74052,3.74052,0,0,1-.65983.07826Z"/>
        <path class="cls-13" d="M45.56511,42.95693c0,.08052-.24125.1447-.5357.1447-.29417,0-.538-.06418-.538-.1447s.23-.145.538-.145C45.33765,42.812,45.56511,42.87643,45.56511,42.95693Z"/>
        <path class="cls-17" d="M40.86827,45.17544a7.37934,7.37934,0,0,1-2.9079.75386s.71022-4.02518.8642-5.37694c.09431-.83465.23-3.42558-.79749-3.25753,0,0-1.21636.05039-1.676,4.38156s-.68968,5.28743,0,6.014c.58158.61395,3.44838-.29642,5.05772-1.24142Z"/>
        <path class="cls-16" d="M41.45126,46.30736a4.63483,4.63483,0,0,0,.8414-.32064l.86928-.25165a1.02079,1.02079,0,0,0,.62267-.6331,1.23719,1.23719,0,0,1,.63788-.71924l.03519-.01717a.80906.80906,0,0,0,.4155-.99932l-.0335-.09177a.81394.81394,0,0,0-.61536-.52556l-.22661-.04138a.81251.81251,0,0,0-.70375.20859l-.295.28037a.79862.79862,0,0,0-.1506.19874l-.74541,1.35148s-.33414.09937-.84422.19171Z"/>
        <path class="cls-17" d="M40.53976,45.1639l.43914-.20465.68742,1.55416-.46447.23675Z"/>
        <path class="cls-21" d="M40.53976,45.1639l.43914-.20465.68742,1.55416-.46447.23675Z"/>
        <rect class="cls-26" x="36.76848" y="42.6021" width="26.51632" height="4.69619" transform="translate(-15.62628 30.35983) rotate(-29.411)"/>
        <path class="cls-27" d="M66.033,35.45325l-5.791.83353,2.41077,4.31344Z"/>
        <path d="M65.11448,37.01671l-.74513-1.32362,1.55867-.179Z"/>
        <path class="cls-28" d="M36.72148,54.81374l-2.281-3.68624,1.47084-.8538,1.47112-.85407,2.24807,4.03306-1.45452.68066Z"/>
        <path class="cls-29" d="M38.59121,51.34,61.47355,38.56891"/>
        <path class="cls-30" d="M113.87771,84.49208c0-18.46166,33.20131-20.04145,33.20131,0Z"/>
        <rect class="cls-31" x="113.87771" y="84.49208" width="33.2013" height="1.94034"/>
        <rect class="cls-32" x="127.02322" y="60.86511" width="18.56894" height="1.3828" transform="translate(41.56965 177.28763) rotate(-75)"/>
        <polygon class="cls-32" points="140.105 31.47 138.73 31.828 143.678 49.764 145.053 49.406 140.105 31.47"/>
        <rect class="cls-32" x="131.78199" y="61.88752" width="18.56894" height="1.3828" transform="translate(44.10918 182.64204) rotate(-75)"/>
        <polygon class="cls-32" points="135.205 32.492 133.829 32.85 138.778 50.787 140.153 50.429 135.205 32.492"/>
        <path class="cls-33" d="M144.47289,53.87775l-6.66425-1.40862.90869-3.11875h7.0682Z"/>
        <path class="cls-33" d="M127.50826,26.68226s7.07946-.1492,10.37075-1.55445c1.81682-.77553,4.25433,5.69842,2.07439,6.62934a25.272,25.272,0,0,0-8.02389,5.28039Z"/>
        <path class="cls-30" d="M121.77943,25.79046c7.38883-3.85008,16.21021,11.537,8.18915,15.71646Z"/>
        <path class="cls-31" d="M118.62072,27.11324l2.98081-1.47817,8.44586,15.67058-2.58361,1.57669Z"/>
      </g>
    </g>
  </g>
</svg>
