<svg xmlns="http://www.w3.org/2000/svg" xmlns:xlink="http://www.w3.org/1999/xlink" width="67.66981mm" height="40.40003mm" viewBox="0 0 191.81995 114.51978">
  <defs>
    <style>
      .cls-1 {
        fill: none;
        clip-rule: evenodd;
      }

      .cls-2 {
        clip-path: url(#clip-path);
      }

      .cls-3, .cls-4 {
        fill: #ffe392;
      }

      .cls-3 {
        fill-rule: evenodd;
      }

      .cls-5 {
        fill: #455a64;
      }

      .cls-6 {
        fill: #c4c4c4;
      }

      .cls-7 {
        fill: #e3e3e3;
      }

      .cls-11, .cls-8, .cls-9 {
        opacity: 0.5;
      }

      .cls-17, .cls-19, .cls-9 {
        fill: #fff;
      }

      .cls-11, .cls-12, .cls-13, .cls-14, .cls-15, .cls-19, .cls-21, .cls-23, .cls-24, .cls-9 {
        isolation: isolate;
      }

      .cls-10, .cls-24 {
        fill: #407bff;
      }

      .cls-11, .cls-12, .cls-13, .cls-14, .cls-15, .cls-16 {
        fill: #ffc727;
      }

      .cls-12 {
        opacity: 0.6;
      }

      .cls-13 {
        opacity: 0.7;
      }

      .cls-14, .cls-19 {
        opacity: 0.8;
      }

      .cls-15 {
        opacity: 0.9;
      }

      .cls-18 {
        fill: #ff8b7b;
      }

      .cls-20 {
        fill: #263238;
      }

      .cls-21 {
        opacity: 0.2;
      }

      .cls-22 {
        fill: #f8b700;
      }

      .cls-23 {
        opacity: 0.4;
      }

      .cls-24 {
        opacity: 0.1;
      }
    </style>
    <clipPath id="clip-path">
      <path class="cls-1" d="M160.82007,0a88.84661,88.84661,0,0,0-20.77,20.94006c-16.62988,23.28992-10.75,36.00989-24.25,47.75C97.1001,84.95,63.49011,79.98,42.28,69.45,24.59009,60.66,8.24011,44.38,0,28.03992V9.86A9.85442,9.85442,0,0,1,9.86011,0Z"/>
    </clipPath>
  </defs>
  <title>cards</title>
  <g id="Layer_1" data-name="Layer 1">
    <g class="cls-2">
      <g>
        <path class="cls-3" d="M89.67153-23.30686c36.32712-2.5237,44.29377,5.34972,74.00059,20.456C193.443,12.2876,192.7146,19.645,191.28429,25.47257c-3.03734,12.37618-23.90992,10.01589-33.1346,24.38967-4.40856,6.86883,5.37387,19.93539-15.46281,33.04405-22.38683,14.08384-33.67634-4.20368-62.95573,0-35.739,5.13047-30.53685,15.63927-59.64227,0-29.133-15.65463-39.867-8.57691-43.62722-19.291-3.58958-10.22792,4.5644-8.02184,11.59711-27.91476,7.68667-21.74337-6.921-33.01533,15.46281-48.77931C27.1471-29.71752,56.606-21.0097,89.67153-23.30686Z"/>
        <path class="cls-4" d="M45.82447,70.55991c-.82915.82617-2.85844.13584-4.33794-1.3472s-2.51917-3.94662-2.124-4.3403c.82926-.82639,3.64759-.13472,5.12707,1.3481C45.9691,67.70356,46.65384,69.73375,45.82447,70.55991Z"/>
        <path class="cls-4" d="M123.49456,19.25887c-.82915.82616-2.8584.13583-4.33792-1.34721s-2.51914-3.94662-2.1241-4.3403c.82938-.82639,3.64759-.13472,5.12712,1.34811C123.63919,16.40251,124.32393,18.4327,123.49456,19.25887Z"/>
        <path class="cls-5" d="M107.31753,76.11493l-3.11886.1432L89.58978,8.77554l1.09251.05681Z"/>
        <path class="cls-5" d="M80.40774,76.75842l2.86443-.1316,7.67661-62.94527-.99453.14387Z"/>
        <path class="cls-6" d="M79.323,7.88232A2.90051,2.90051,0,0,1,82.22451,4.9827H102.758a2.9005,2.9005,0,0,1,2.90147,2.89962V51.37667a2.90046,2.90046,0,0,1-2.90147,2.89962H82.22451A2.90046,2.90046,0,0,1,79.323,51.37667Z"/>
        <path class="cls-7" d="M84.90236,12.56631h17.186a.66957.66957,0,0,1,.66957.66957v8.02931a.66914.66914,0,0,1-.66914.66914h-17.186a.66957.66957,0,0,1-.66957-.66957V13.23545A.66914.66914,0,0,1,84.90236,12.56631Z"/>
        <g class="cls-8">
          <path class="cls-9" d="M85.61253,26.40644H83.61721l.20311-1.99182H85.8134Z"/>
          <path class="cls-9" d="M88.90458,26.40644H86.9115l.20087-1.99182h1.99308Z"/>
          <path class="cls-9" d="M92.19887,26.40644H90.20355l.20087-1.99182h1.99532Z"/>
          <path class="cls-9" d="M95.49092,26.40644H93.4956l.20311-1.99182h1.99308Z"/>
          <path class="cls-9" d="M98.783,26.40644H96.78989l.20087-1.99182h1.99308Z"/>
          <path class="cls-9" d="M102.07726,26.40644h-1.99532l.20087-1.99182h1.99532Z"/>
          <path class="cls-9" d="M85.28,29.69863H83.2869l.20087-1.99405h1.99308Z"/>
          <path class="cls-9" d="M88.57427,29.69863H86.579l.20087-1.99405h1.99532Z"/>
          <path class="cls-9" d="M91.86632,29.69863H89.871l.2031-1.99405h1.99309Z"/>
          <path class="cls-9" d="M95.15837,29.69863H93.16528l.20087-1.99405h1.99309Z"/>
          <path class="cls-9" d="M98.45265,29.69863H96.45733l.20088-1.99405h1.99531Z"/>
          <path class="cls-9" d="M101.7447,29.69863H99.74938l.20088-1.99405h1.99531Z"/>
          <path class="cls-9" d="M84.94966,32.98859H82.95434l.20088-1.99405h1.99531Z"/>
          <path class="cls-9" d="M88.24171,32.98859H86.24639l.20088-1.99405h1.99531Z"/>
          <path class="cls-9" d="M91.53376,32.98859H89.54068l.20087-1.99405h1.99308Z"/>
          <path class="cls-9" d="M94.82805,32.98859H92.83273l.20087-1.99405h1.99532Z"/>
          <path class="cls-9" d="M98.1201,32.98859H96.12478l.20087-1.99405H98.321Z"/>
          <path class="cls-9" d="M101.41215,32.98859H99.41906l.20087-1.99405H101.613Z"/>
          <path class="cls-9" d="M84.61711,36.27854H82.62179l.20087-1.99181H84.818Z"/>
          <path class="cls-9" d="M87.90916,36.27854H85.91607l.20087-1.99181H88.11Z"/>
          <path class="cls-9" d="M91.20121,36.27854H89.20813l.20087-1.99181h1.99308Z"/>
          <path class="cls-9" d="M94.4955,36.27854H92.50018l.20087-1.99181h1.99531Z"/>
          <path class="cls-9" d="M97.78755,36.27854H95.79446l.20087-1.99181h1.99309Z"/>
          <path class="cls-9" d="M101.0796,36.27854H99.08651l.20087-1.99181h1.99309Z"/>
          <path class="cls-9" d="M84.28456,39.57074H82.29147l.20087-1.99405h1.99309Z"/>
          <path class="cls-9" d="M87.57661,39.57074H85.58352l.20087-1.99405h1.99309Z"/>
          <path class="cls-9" d="M90.87089,39.57074H88.87557l.20087-1.99405h1.99532Z"/>
          <path class="cls-9" d="M94.16294,39.57074H92.16762l.2031-1.99405h1.99309Z"/>
          <path class="cls-9" d="M97.455,39.57074H95.4619l.20087-1.99405h1.9931Z"/>
          <path class="cls-9" d="M100.74927,39.57074H98.754l.20087-1.99405h1.99531Z"/>
          <path class="cls-9" d="M83.952,42.86069H81.95891l.20087-1.99405h1.9931Z"/>
          <path class="cls-9" d="M87.24628,42.86069H85.251l.20087-1.99405h1.99531Z"/>
          <path class="cls-9" d="M90.53834,42.86069H88.543l.2031-1.99405h1.99309Z"/>
          <path class="cls-9" d="M93.83039,42.86069H91.8373l.20087-1.99405h1.99309Z"/>
          <path class="cls-9" d="M97.12467,42.86069H95.12935l.20087-1.99405h1.99532Z"/>
          <path class="cls-9" d="M100.41672,42.86069H98.42141l.2031-1.99405h1.99308Z"/>
        </g>
        <path class="cls-10" d="M84.98537,40.86664a.94148.94148,0,0,1-.91508.832.73822.73822,0,0,1-.74768-.832.93706.93706,0,0,1,.91507-.82973.73616.73616,0,0,1,.74769.82973Z"/>
        <path class="cls-10" d="M89.27508,30.99454a.94418.94418,0,0,1-.91731.832.738.738,0,0,1-.75215-.832.94405.94405,0,0,1,.91731-.82974.74026.74026,0,0,1,.75215.82974Z"/>
        <path class="cls-10" d="M95.52886,34.28673a.94418.94418,0,0,1-.91731.832.73825.73825,0,0,1-.74769-.832.94394.94394,0,0,1,.91508-.832.74044.74044,0,0,1,.74992.832Z"/>
        <path class="cls-10" d="M102.78253,27.70458a.94413.94413,0,0,1-.91731.832.73822.73822,0,0,1-.74768-.832.94415.94415,0,0,1,.91731-.832.73822.73822,0,0,1,.74768.832Z"/>
        <path class="cls-10" d="M84.15288,41.112a.24367.24367,0,0,1-.20423-.11019.24286.24286,0,0,1-.019-.23107l4.2897-9.87211a.24033.24033,0,0,1,.14284-.13383.24566.24566,0,0,1,.19418.01561l6.102,3.20966,7.122-6.46839a.24561.24561,0,0,1,.346.01784.24306.24306,0,0,1,.04865.08164.24.24,0,0,1,.01362.0939.2429.2429,0,0,1-.02322.0919.24741.24741,0,0,1-.05691.07606L94.85929,34.4674a.23866.23866,0,0,1-.27675.03346l-6.02613-3.16729-4.17812,9.63122a.24509.24509,0,0,1-.22541.14721Z"/>
        <path class="cls-11" d="M85.55674,50.79451H83.56365l.10044-.997h1.99308Z"/>
        <path class="cls-12" d="M88.851,50.79451H86.8557l.34594-3.4327H89.197Z"/>
        <path class="cls-13" d="M92.14307,50.79451H90.14775l.20311-1.99405h1.99308Z"/>
        <path class="cls-14" d="M95.43512,50.79451H93.442l.26336-2.62081h1.99532Z"/>
        <path class="cls-15" d="M98.72941,50.79451H96.73409l.1607-1.59033h1.99532Z"/>
        <path class="cls-16" d="M102.02146,50.79451h-1.99532l.10267-.997h1.99308Z"/>
        <path class="cls-16" d="M90.18346,16.44958l1.43288-3.07807a2.89964,2.89964,0,0,1,1.848,3.07807,3.74378,3.74378,0,0,1-3.03538,3.2275Z"/>
        <path class="cls-17" d="M90.18346,16.44958l.24551,3.2275a3.34384,3.34384,0,0,1-.57583.04907,2.92234,2.92234,0,0,1-2.94834-3.27657A3.73121,3.73121,0,0,1,90.50709,13.173a3.09478,3.09478,0,0,1,1.10033.19851Z"/>
        <path class="cls-17" d="M97.97725,15.65329h1.24317l-.41067,4.0684H97.56658Z"/>
        <path class="cls-17" d="M99.87214,17.81686h1.24317l-.19195,1.90483H99.68019Z"/>
        <path class="cls-16" d="M99.87214,17.81686h1.24317l.11829-1.16208H99.99043Z"/>
        <path class="cls-16" d="M97.97725,15.65329h1.24317l.25-2.48029H98.22723Z"/>
        <path class="cls-17" d="M95.79,16.39381h1.24317l-.33478,3.32788H95.45521Z"/>
        <path class="cls-16" d="M95.79,16.39381h1.24317l.154-1.52564H95.944Z"/>
        <path class="cls-18" d="M54.06732,25.94874c-.09821.16283-.22319.368-.31916.5554s-.22319.39033-.3147.58661c-.20087.397-.404.79182-.58922,1.19777a20.80688,20.80688,0,0,0-.96418,2.45353l-.09374.31226-.04464.15837-.01339.03792a.586.586,0,0,0,.03348.29442,5.104,5.104,0,0,0,.50887,1.06171,24.37959,24.37959,0,0,0,1.54448,2.197l-.70752.74721A12.64064,12.64064,0,0,1,50.965,33.54353a5.74128,5.74128,0,0,1-.87937-1.36282,2.43618,2.43618,0,0,1-.22319-1.0684,1.71111,1.71111,0,0,1,.02009-.17844l.01562-.09368v-.04461l.03794-.1829.07812-.3658a17.89909,17.89909,0,0,1,.92624-2.79925c.19194-.4461.395-.89219.6227-1.32491.11159-.22305.22319-.43271.34818-.64684s.24327-.41709.39281-.64907Z"/>
        <path class="cls-18" d="M53.304,34.40227l1.67839.06914-.66957,1.43866a2.31319,2.31319,0,0,1-1.64268-.78959Z"/>
        <path class="cls-18" d="M55.39753,35.11825l-.41513,1.28922-.67627-.49517.67627-1.44089Z"/>
        <path class="cls-10" d="M57.05449,78.696a2.51976,2.51976,0,0,1-.54012-.07361.05128.05128,0,0,1-.03794-.03792.04818.04818,0,0,1,.00268-.02743.0498.0498,0,0,1,.01741-.02164c.06919-.04683.68519-.44609.924-.339a.16935.16935,0,0,1,.067.05509.172.172,0,0,1,.03125.081.27049.27049,0,0,1-.07589.2565.5778.5778,0,0,1-.38835.10707Zm-.404-.14276a.965.965,0,0,0,.72537-.03568.17306.17306,0,0,0,.04709-.07941.17525.17525,0,0,0-.00022-.09234.07574.07574,0,0,0-.01206-.03635.077.077,0,0,0-.02812-.0261C57.25536,78.22764,56.90049,78.39938,56.65052,78.55328Z"/>
        <path class="cls-10" d="M56.52553,78.62243a.04176.04176,0,0,1-.02455,0,.05312.05312,0,0,1-.01785-.01807.05085.05085,0,0,1-.0067-.02431c0-.02453,0-.61338.22319-.80966a.25067.25067,0,0,1,.09419-.05487.25373.25373,0,0,1,.10891-.00982.1746.1746,0,0,1,.16516.13606c.0491.22305-.31693.66914-.50887.78067A.048.048,0,0,1,56.52553,78.62243Zm.337-.82527a.16009.16009,0,0,0-.10713.04014,1.09188,1.09188,0,0,0-.18079.64461c.19195-.15613.4196-.48625.38835-.62677,0-.0223-.01785-.05129-.08035-.058Z"/>
        <path class="cls-10" d="M66.291,79.04422a.05288.05288,0,0,1-.02477-.00469.05133.05133,0,0,1-.01986-.01539.04705.04705,0,0,1,0-.05576c.06249-.0803.61153-.76952.90838-.78959h.02009a.15851.15851,0,0,1,.13168.07807.25064.25064,0,0,1,.04173.11888.24758.24758,0,0,1-.02165.12424c-.11605.27212-.69412.4461-1.0289.542Zm.86821-.76952c-.16293.01115-.50664.35688-.741.63792.44638-.1316.75438-.29442.82134-.4461a.16645.16645,0,0,0-.01562-.16059.063.063,0,0,0-.02255-.02276.06528.06528,0,0,0-.031-.00847Z"/>
        <path class="cls-10" d="M66.291,79.04422a.04709.04709,0,0,1-.03794-.029,1.33816,1.33816,0,0,1-.06026-.82081.36408.36408,0,0,1,.212-.1896c.12945-.04684.19641,0,.22319.04015.13615.18513-.11829.78067-.29684.98364a.0489.0489,0,0,1-.04018.01562Zm.18525-.977a.25811.25811,0,0,0-.058.01338.26942.26942,0,0,0-.15623.14052,1.05881,1.05881,0,0,0,.03348.66914c.16516-.23866.31693-.68476.23658-.79628a.056.056,0,0,0-.02411-.02141.05729.05729,0,0,0-.03169-.00535Z"/>
        <path class="cls-18" d="M56.71881,17.73612c.22319,1.21338.74992,3.86542-.10266,4.655,0,0,.32362,1.23568,2.57784,1.2803,2.47964.04683,1.19183-1.20447,1.19183-1.20447-1.35029-.35018-1.31012-1.34944-1.06907-2.28624Z"/>
        <path class="cls-10" d="M56.00907,23.00674l-.433-2.139a7.97217,7.97217,0,0,0,1.91051.31227,14.60725,14.60725,0,0,0,3.68486-.39257,12.30806,12.30806,0,0,0,1.6159,1.33829l-.60708,1.02379Z"/>
        <path class="cls-19" d="M56.00907,23.00674l-.433-2.139a7.97217,7.97217,0,0,0,1.91051.31227,14.60725,14.60725,0,0,0,3.68486-.39257,12.30806,12.30806,0,0,0,1.6159,1.33829l-.60708,1.02379Z"/>
        <path class="cls-20" d="M61.55757,15.40526a.112.112,0,0,1-.0424-.01561.098.098,0,0,1-.029-.13383.94828.94828,0,0,1,.75438-.44609.097.097,0,0,1,.00224.19405.75209.75209,0,0,0-.59369.36134.094.094,0,0,1-.09151.04014Z"/>
        <path class="cls-20" d="M62.0352,16.26177c0,.16505.09151.29888.19864.29888s.19417-.13383.18971-.29888-.09151-.29888-.19864-.29888S62.0352,16.09671,62.0352,16.26177Z"/>
        <path class="cls-20" d="M62.16911,15.97181l.395-.11376S62.36552,16.16809,62.16911,15.97181Z"/>
        <path class="cls-20" d="M56.35145,78.33916H54.05482a.16167.16167,0,0,0-.10646.039.15937.15937,0,0,0-.05424.09926l-.23658,1.81561a.33247.33247,0,0,0,.08638.25472.334.334,0,0,0,.24618.10885c.80125-.01339,1.18513-.06022,2.194-.06022.6227,0,1.52885.06245,2.38813.06245s.89276-.84535.53343-.92342a4.07016,4.07016,0,0,1-2.41268-1.27137A.54877.54877,0,0,0,56.35145,78.33916Z"/>
        <path class="cls-20" d="M66.17113,78.796l-2.348-.031a.15837.15837,0,0,0-.16761.13405l-.25846,1.77078a.33508.33508,0,0,0,.20311.33279.33565.33565,0,0,0,.13525.02654c.81754,0,1.21237-.04015,2.24663-.021.63408.00959,1.94331.09123,2.82491.10774.88138.0165.91843-.8148.55329-.89644a5.92968,5.92968,0,0,1-2.84567-1.29278A.57357.57357,0,0,0,66.17113,78.796Z"/>
        <path class="cls-21" d="M66.262,77.47552l.74992,2.35538-2.00871.59331-.72091-2.26839Z"/>
        <path class="cls-21" d="M53.65888,76.39775h2.04219l.11606,2.43569H53.77494Z"/>
        <path class="cls-22" d="M53.08751,22.78593c-.85035.16951-2.66756,5.79478-2.66756,5.79478l1.89711,1.04877s3.38178-3.87256,2.98227-4.93426C54.89312,23.59559,54.09187,22.58741,53.08751,22.78593Z"/>
        <path class="cls-23" d="M54.42219,24.75321c.43076-.38365.7209-.261.91731.05353.18971.91-.97757,2.78364-1.4485,3.49293C53.6812,27.43871,53.44462,25.62533,54.42219,24.75321Z"/>
        <path class="cls-16" d="M64.0015,23.49076c.15177.89219-.46914,7.9298-1.86408,16.17588H54.77215a68.20659,68.20659,0,0,0-1.68464-16.87179,24.44307,24.44307,0,0,1,3.52864-.3948,26.71741,26.71741,0,0,1,3.76967.07584c1.20746.1316,2.53321.39479,3.12466.5197a.6225.6225,0,0,1,.491.49517Z"/>
        <path class="cls-18" d="M56.92861,15.7153c.15847,2.02305.183,2.88178,1.22085,3.91673a2.57593,2.57593,0,0,0,4.4638-1.06617c.404-1.82008.07588-4.8223-1.9172-5.62305a2.72678,2.72678,0,0,0-3.76745,2.77249Z"/>
        <path class="cls-20" d="M57.01789,11.99709c-2.19619.16283-2.70506,2.74126-1.85024,4.38736-1.36146,2.06988-1.61188,4.84505-1.17666,5.32683,1.17666,5.68772,4.79858,3.56877,6.43724,0,1.02891-.774,0-5.44951,0-5.44951S61.53748,11.65583,57.01789,11.99709Z"/>
        <path class="cls-20" d="M54.61637,19.76585c-.62271,0-.84366-.3078-.91508-.57992-.22319-.89219.89276-2.623,2.00871-3.1026a.124.124,0,0,1,.08726.0058.12259.12259,0,0,1,.01094.21725c-.98873.426-2.0712,2.0565-1.8681,2.8171.08258.31226.38612.44609.89276.38364a.12292.12292,0,0,1,.13391.10929.1169.1169,0,0,1-.00379.04729.12306.12306,0,0,1-.02165.04193.12008.12008,0,0,1-.08169.04461A2.3383,2.3383,0,0,1,54.61637,19.76585Z"/>
        <path class="cls-20" d="M57.29018,12.73315a3.444,3.444,0,0,1,4.34328-.8632c1.5958.939,1.56233,2.82379-1.13158,3.87881C57.5714,16.90415,57.29018,12.73315,57.29018,12.73315Z"/>
        <path class="cls-18" d="M60.95719,15.72645a2.02393,2.02393,0,0,1,.65172,1.07956c.12052.53308-.22319.46171-.61824.24312-.35711-.19628-.91508-.58439-.89276-1.02825A.49073.49073,0,0,1,60.95719,15.72645Z"/>
        <path class="cls-20" d="M60.3519,39.21654s-1.163,12.70682-2.33635,19.8593c-.94767,5.77561-1.74981,19.28964-1.74981,19.28964H53.706s-.835-13.18147-.33859-18.91224c1.25947-14.47738-1.35163-15.71039,1.36816-20.34422Z"/>
        <path class="cls-23" d="M57.76558,39.97624a12.06551,12.06551,0,0,1,2.00871,3.5933c-.25,2.35762-.54236,4.965-.85929,7.47211A20.84506,20.84506,0,0,1,57.76558,39.97624Z"/>
        <path class="cls-20" d="M62.46707,39.85s1.084,14.11738,1.56545,19.779c.50017,5.886,2.27119,19.0541,2.27119,19.0541l-2.64882,1.04454s-3.66724-16.05322-3.99867-19.0298c-1.03806-6.254-4.25757-21.69075-4.25757-21.69075Z"/>
        <path class="cls-18" d="M65.055,24.53685c.2522.426.52.89219.79455,1.31822s.54682.87658.83473,1.30037.58476.84312.89276,1.24683a14.6767,14.6767,0,0,0,.94856,1.13532,2.14613,2.14613,0,0,0,.95972.53531,6.86233,6.86233,0,0,0,1.3927.2409,18.096,18.096,0,0,0,3.04654-.04907l.22319,1.00817a12.88411,12.88411,0,0,1-3.301.61339,7.61694,7.61694,0,0,1-1.78552-.11376,4.8258,4.8258,0,0,1-.94186-.28773,3.30038,3.30038,0,0,1-.92178-.59331,16.6707,16.6707,0,0,1-2.21181-2.55613A25.69927,25.69927,0,0,1,63.2181,25.5428Z"/>
        <path class="cls-22" d="M63.86536,23.04466c1.98192.3145,4.18659,5.91568,4.18659,5.91568l-1.78552.89219s-4.67761-3.848-4.67761-5.42274C61.58882,23.25879,62.78511,22.87291,63.86536,23.04466Z"/>
        <path class="cls-20" d="M76.27248,28.98c-.02678.35465-.07365.70483-.125,1.05278s-.11383.69368-.17856,1.03718-.13837.687-.22319,1.02825-.06918.70483-.44638.96134a.31472.31472,0,0,1-.37719-.05354.32973.32973,0,0,1-.0491-.06468c-.22319-.42379-.029-.73383.03348-1.07732s.17632-.66914.27229-1.01264.19864-.66914.308-1.00148.22319-.66915.35934-.98811a.23373.23373,0,0,1,.42629.11822Z"/>
        <path class="cls-20" d="M76.3015,29.35692l-.66957-.10929c-.10044-.01785-.14954-.14052-.1116-.27435a.29143.29143,0,0,1,.25221-.22305l.66957.11152c.10043.01562.14953.13829.11159.27435C76.51576,29.27885,76.40193,29.37476,76.3015,29.35692Z"/>
        <path class="cls-10" d="M77.41745,24.064c-1.01775-.29442-2.19619.56431-2.62918,1.92044s.04017,2.69442,1.05792,2.98885,2.19619-.56654,2.63141-1.92045S78.43743,24.35841,77.41745,24.064Zm-1.44627,4.52118a1.89134,1.89134,0,0,1-.89276-2.516,2.02079,2.02079,0,0,1,2.214-1.6171,1.89135,1.89135,0,0,1,.89276,2.516C77.81919,28.11008,76.82823,28.83276,75.97118,28.58517Z"/>
        <path class="cls-24" d="M76.20776,28.72569a1.77058,1.77058,0,0,1-.837-2.35761c.34148-1.06841,1.27218-1.75093,2.07789-1.51673a1.77043,1.77043,0,0,1,.83473,2.35762A1.90675,1.90675,0,0,1,76.20776,28.72569Z"/>
        <path class="cls-18" d="M73.28174,31.34651l2.18726.40818.22319-1.83346a5.33643,5.33643,0,0,0-2.41715.66914Z"/>
        <path class="cls-18" d="M76.01805,31.75023l.38611-1.21785a.18682.18682,0,0,0-.08034-.22305l-.62494-.39479L75.47569,31.748l.30131.116a.1895.1895,0,0,0,.24105-.11375Z"/>
        <rect class="cls-20" x="82.22451" y="53.60715" width="20.53347" height="1.78438"/>
      </g>
    </g>
  </g>
</svg>
