<svg xmlns="http://www.w3.org/2000/svg" xmlns:xlink="http://www.w3.org/1999/xlink" width="67.66981mm" height="40.40003mm" viewBox="0 0 191.81995 114.51978">
  <defs>
    <style>
      .cls-1, .cls-2, .cls-33 {
        fill: none;
      }

      .cls-1 {
        clip-rule: evenodd;
      }

      .cls-3 {
        isolation: isolate;
      }

      .cls-4 {
        clip-path: url(#clip-path);
      }

      .cls-5 {
        fill: #e5c4c4;
        fill-rule: evenodd;
      }

      .cls-6 {
        clip-path: url(#clip-path-2);
      }

      .cls-7 {
        fill: #93e5dd;
      }

      .cls-8 {
        mix-blend-mode: hard-light;
      }

      .cls-9 {
        fill: url(#linear-gradient);
      }

      .cls-10 {
        fill: url(#linear-gradient-2);
      }

      .cls-11 {
        fill: url(#linear-gradient-3);
      }

      .cls-12 {
        fill: url(#linear-gradient-4);
      }

      .cls-13 {
        fill: url(#linear-gradient-5);
      }

      .cls-14 {
        fill: #1a8979;
      }

      .cls-15 {
        fill: #fff;
      }

      .cls-16 {
        fill: #22b2ae;
      }

      .cls-17 {
        fill: #3acccc;
      }

      .cls-18 {
        fill: #fafbef;
      }

      .cls-19 {
        fill: #292c47;
      }

      .cls-20 {
        fill: #cac7d1;
      }

      .cls-21 {
        fill: #1d2033;
      }

      .cls-22 {
        fill: #353a3d;
      }

      .cls-23 {
        fill: #e2e2e0;
      }

      .cls-24 {
        fill: #a09ea6;
      }

      .cls-25 {
        fill: #eae6f2;
      }

      .cls-26, .cls-27 {
        fill: #7280c4;
      }

      .cls-26, .cls-33 {
        stroke: #000;
        stroke-miterlimit: 10;
        stroke-width: 0.13px;
      }

      .cls-28 {
        fill: #3a4066;
      }

      .cls-29 {
        fill: #eddad3;
      }

      .cls-30 {
        fill: #f2dfd8;
      }

      .cls-31 {
        fill: #d6c5be;
      }

      .cls-32 {
        fill: #c9bab3;
      }
    </style>
    <clipPath id="clip-path">
      <path class="cls-1" d="M154.7301,191.44781c-4.74,5.4801-7.94006,5.21008-21.7301,15.66-16.17,12.25-16.93994,16.54-24.75989,21.73-19.29,12.79-44.58008,6.58007-61.13012,2.52-13.86-3.4-32.92994-8.08008-47.11-22.67005v-39.66a9.86917,9.86917,0,0,1,9.86-9.86988H164.31006C164.91,170.40789,161.95007,183.08783,154.7301,191.44781Z"/>
    </clipPath>
    <clipPath id="clip-path-2">
      <path class="cls-2" d="M162.63475,63.58c-8.22,11.09-21.99,13.86-32.21,15.92-36.34,7.32-45.55993-15.24-82.61-9.1001-11.44007,1.9-21.75,5.91-38.2699,3.41a97.0262,97.0262,0,0,1-9.54-1.79v-62.16A9.86053,9.86053,0,0,1,9.86486,0H158.0548C169.51488,19.97,174.77489,47.23,162.63475,63.58Z"/>
    </clipPath>
    <linearGradient id="linear-gradient" x1="97.01561" y1="37.84175" x2="97.01561" y2="178.32345" gradientUnits="userSpaceOnUse">
      <stop offset="0" stop-color="#44607d"/>
      <stop offset="1" stop-color="#f5f5f5"/>
    </linearGradient>
    <linearGradient id="linear-gradient-2" x1="112.34096" y1="26.05714" x2="114.62271" y2="26.05714" gradientUnits="userSpaceOnUse">
      <stop offset="0" stop-color="#d5e4ff"/>
      <stop offset="1" stop-color="#edfffe"/>
    </linearGradient>
    <linearGradient id="linear-gradient-3" x1="116.34701" y1="24.36644" x2="118.62865" y2="24.36644" xlink:href="#linear-gradient-2"/>
    <linearGradient id="linear-gradient-4" x1="120.55086" y1="25.25089" x2="122.83261" y2="25.25089" xlink:href="#linear-gradient-2"/>
    <linearGradient id="linear-gradient-5" x1="124.87013" y1="27.30448" x2="127.15188" y2="27.30448" xlink:href="#linear-gradient-2"/>
  </defs>
  <title>cards</title>
  <g class="cls-3">
    <g id="Layer_1" data-name="Layer 1">
      <g class="cls-4">
        <path class="cls-5" d="M76.42542,100.207c20.67613,3.04571,31.70607,24.95823,49.14465,36.50672,18.69286,12.37846,45.39588,13.88767,56.45436,33.42243,11.674,20.623,13.717,48.93086,1.73961,69.37726-11.63549,19.86344-38.551,22.22917-60.09226,30.236-15.44866,5.74271-31.214,5.85359-47.24636,9.66214-22.98078,5.45853-47.70118,31.2539-66.89068,17.44922C-9.6096,283.08866,12.71983,250.129,4.79265,227.88059c-8.36673-23.48208-43.73759-35.30812-41.255-60.11882,2.39389-23.925,31.40761-34.93429,51.99875-47.25638C34.36336,109.23869,54.73275,97.01162,76.42542,100.207Z"/>
      </g>
      <g class="cls-6">
        <g>
          <ellipse class="cls-7" cx="63.17487" cy="22.58064" rx="133.44362" ry="70.05954"/>
          <g>
            <g>
              <g class="cls-8">
                <path class="cls-9" d="M64.69664,9.96275h64.6378a4.17267,4.17267,0,0,1,4.17267,4.17267V57.82213a4.17261,4.17261,0,0,1-4.17261,4.17261H64.69678a4.17267,4.17267,0,0,1-4.17267-4.17267V14.13528A4.17253,4.17253,0,0,1,64.69664,9.96275Z"/>
              </g>
              <g>
                <rect class="cls-10" x="112.34096" y="19.71539" width="2.28175" height="12.6835"/>
                <rect class="cls-11" x="116.34701" y="16.33399" width="2.28164" height="16.0649"/>
                <rect class="cls-12" x="120.55086" y="18.10289" width="2.28175" height="14.29599"/>
                <rect class="cls-13" x="124.87013" y="22.21007" width="2.28175" height="10.18881"/>
                <rect class="cls-14" x="112.34096" y="24.35472" width="2.28175" height="8.04416"/>
                <rect class="cls-14" x="116.34701" y="22.21007" width="2.28164" height="10.18881"/>
                <rect class="cls-14" x="120.55086" y="23.33206" width="2.28175" height="9.06683"/>
                <rect class="cls-14" x="124.87013" y="26.05725" width="2.28175" height="6.34164"/>
              </g>
              <path class="cls-15" d="M113.867,36.74115h11.7588a.8999.8999,0,0,1,.8999.8999v1.81579a.8999.8999,0,0,1-.8999.8999H113.867a.89988.89988,0,0,1-.89988-.89988V37.641A.8999.8999,0,0,1,113.867,36.74115Z"/>
              <path class="cls-15" d="M113.867,43.51057h11.7588a.8999.8999,0,0,1,.8999.8999v1.81591a.8999.8999,0,0,1-.8999.8999H113.867a.89988.89988,0,0,1-.89988-.89988V44.41047A.8999.8999,0,0,1,113.867,43.51057Z"/>
              <path class="cls-15" d="M113.867,50.28024h11.7588a.8999.8999,0,0,1,.8999.8999v1.81579a.89977.89977,0,0,1-.89977.89977H113.867a.89988.89988,0,0,1-.89988-.89988V51.18014A.8999.8999,0,0,1,113.867,50.28024Z"/>
              <g>
                <path class="cls-15" d="M106.4116,28.67652A20.14439,20.14439,0,1,0,68.47594,42.24379q.22842.63989.49594,1.256A20.145,20.145,0,0,0,106.4116,28.67652ZM92.52981,49.68127a15.08536,15.08536,0,0,1-18.9346-8.1939q-.20025-.46113-.37243-.94153a15.10324,15.10324,0,1,1,19.307,9.13543Z"/>
                <path class="cls-14" d="M73.02633,30.95877l-4.81292-1.503A20.17316,20.17316,0,0,1,86.84156,15.31914l.15046,5.04011A15.12644,15.12644,0,0,0,73.02633,30.95877Z"/>
                <path class="cls-16" d="M73.59521,41.48737l-4.62333,2.01237q-.26668-.61461-.49594-1.256a20.05372,20.05372,0,0,1-.26253-12.788l4.81292,1.503a15.03522,15.03522,0,0,0,.19645,9.58707Q73.39449,41.02575,73.59521,41.48737Z"/>
                <path class="cls-17" d="M72.09466,48.51416a20.03936,20.03936,0,0,1-3.12278-5.01442l4.62333-2.01237a15.01516,15.01516,0,0,0,2.34048,3.7604Z"/>
              </g>
            </g>
            <g>
              <path class="cls-18" d="M85.84115,44.94359s4.72107-.9938,5.07415-.7888c.35293.20532.37516.472-.06371.5838-.4387.112-4.54224,1.09629-4.54224,1.09629s5.72465-.20864,6.05281-.10849c.19222.05851.26461.57069.03389.65285-.23085.08232-5.91182.62669-5.91182.62669s5.34475-.18482,5.5906-.0142a.3976.3976,0,0,1-.22976.68534c-.39692.04195-5.36447.50527-5.36447.50527s3.8845.12016,4.00356.39675c.073.16936.15565.60776-.844.544s-3.38711.04511-3.38711.04511Z"/>
              <path class="cls-19" d="M60.53677,67.28471s1.62742,15.802,2.47361,21.21157c.98938,6.325,1.32479,11.551,1.60076,14.8246.34708,4.11757.4141,24.37223.65695,25.57608.243,1.204-5.38969.33272-5.38969.33272s-2.771-26.46531-3.80471-30.85034c-.96258-4.08319-4.53483-21.66257-5.413-20.5475-.87821,1.1149-1.96724,20.5147-2.61773,23.735s-2.62863,28.43178-2.62863,28.43178-4.48279.89287-5.67529-.11638c0,0-.54278-21.72739-.12836-27.765.15785-2.30078-2.69595-27.58844.96352-37.7686C42.50814,58.96836,60.53677,67.28471,60.53677,67.28471Z"/>
              <path class="cls-20" d="M32.64825,69.52794a12.79438,12.79438,0,0,0,3.89239.62257c1.15038-.211.56816-14.30925.61343-17.243a74.86018,74.86018,0,0,1,1.3371-8.66156l.00172.01041.00175.00709.00173.01056c.129.47057,1.886,6.98968,1.94705,10.12213.0645,3.251-.42356,15.68624-.42356,15.68624l4.843.47152,13.91863.34093,2.90349-.34219s-.34692-5.3178-.47593-7.84344c-.08011-1.60566-.39218-4.48-.31207-7.27936a25.7864,25.7864,0,0,1,.24238-4.22181c.03137-5.60937.37121-11.16466.37121-11.16466q.28242-3.81471.39407-7.13979c-.61359-.32422-1.351-.70428-1.94184-.98482-1.82674-.86968-4.37179-2.041-6.005-2.79072-.95706-.43934-1.893-.76009-1.893-.76009s-6.52794-.62573-7.05795-.59261a16.56729,16.56729,0,0,0-2.05334.70268,74.93584,74.93584,0,0,0-7.48832,3.17755c-1.04237.74607-3.24568,18.47681-3.345,19.718C31.94052,53.60988,32.64825,69.52794,32.64825,69.52794Z"/>
              <path class="cls-21" d="M61.266,68.33071a115.662,115.662,0,0,1-17.92031,0v2.74546s12.56545,1.81445,18.3393-.52353Z"/>
              <path class="cls-20" d="M52.62773,30.67061s.17425,2.49852-1.93918,2.55656c-2.11357.05834-3.7913-1.9712-3.7913-1.9712l3.50794.90487,2.13534-1.80972Z"/>
              <path class="cls-18" d="M80.54023,46.9605s1.53925-.42892,1.7449-1.34923a5.69389,5.69389,0,0,1,1.172-1.9756c.31334-.37594.88215-1.87942,1.31991-1.499s-.82521,2.51871-1.007,3.01733c-.1815.49849,1.95053-.37688,2.444-.22439.49358.15264,1.48785,3.83372-.03265,4.262s-3.35984-.14446-3.61579-.01452a9.71125,9.71125,0,0,1-1.09707.35638Z"/>
              <path class="cls-18" d="M49.77456,11.53274s4.84707.81781,4.02485,8.40641c-.82206,7.58859-5.10048,6.91934-5.38686,6.90862-.28637-.011-4.3035.09146-4.51545-9.187C43.8971,17.66077,43.83529,10.80072,49.77456,11.53274Z"/>
              <path class="cls-18" d="M51.89825,24.64793s-.00049,3.12613.12787,3.80265c.13815.72808-3.89206,2.83063-6.49387.38084a26.84425,26.84425,0,0,0,.3627-4.61937C45.73158,23.00663,51.89825,24.64793,51.89825,24.64793Z"/>
              <path class="cls-18" d="M53.81834,18.17187s.53774-.5622.72666.015c.18859.577-.68172,3.01608-.79384,3.25073,0,0-.09952.222-.22583.09777A27.85522,27.85522,0,0,1,53.81834,18.17187Z"/>
              <path class="cls-18" d="M43.95262,17.58981s-.51425-.5838-.72651-.01514c-.21225.569.56282,3.123.65948,3.28068,0,0,.16684.2621.298.14335A27.98523,27.98523,0,0,0,43.95262,17.58981Z"/>
              <path class="cls-22" d="M54.20784,17.14936c-.167,1.03843-.3247,1.80987-.3247,1.80987l-.70552.92158a18.59764,18.59764,0,0,0-.06592-2.35724c-.04084-.12127-.08878-.33589-.13829-.56865-.08106-.38382-.16385-.81717-.22077-.9613-.09069-.23087-4.15433-1.41752-7.77359.24853,0,0,.03075.3135.02855.66326-.00126.40654-.04589.86213-.23245.93072-.34708.12678-.20216,2.384-.20216,2.384l-.56408-.65128s-.1632-1.17892-.32375-2.53415l-.00156-.00979c-.03629-.316-.07333-.641-.10883-.96352-.08074-1.36311.0541-3.83829,1.82912-5.29256,1.19753-.5125,3.11005-.94837,6.298.02776a3.755,3.755,0,0,1,.99964.42372C54.68676,13.40521,54.20784,17.14936,54.20784,17.14936Z"/>
              <path class="cls-23" d="M46.22753,25.83316a3.08666,3.08666,0,0,0,2.571,1.03386,3.498,3.498,0,0,0,2.57754-.97772,3.13694,3.13694,0,0,1-2.586,1.76083A3.17306,3.17306,0,0,1,46.22753,25.83316Z"/>
              <path class="cls-24" d="M52.21379,30.82327l-1.8086,1.33757s1.51923-3.22078,1.55061-4.51071Z"/>
              <polygon class="cls-25" points="51.956 27.65 53.186 28.794 54.48 32.653 52.214 30.823 51.956 27.65"/>
              <path class="cls-26" d="M82.57219,50.52649S71.902,53.33655,69.29191,52.69641c-1.1997-.28992-2.78979-1.96-4.2998-3.91992-.5-.64-.99-1.32007-1.4502-1.99-.75-1.08008-1.43994-2.14-1.98-3.02-.08984,2.36-.23,5.57007-.41992,8.68994a11.58724,11.58724,0,0,0-.11987,2.64c.08984,1.17.22,2.45007.36987,3.79a.10836.10836,0,0,0,.01.04992c.03.31006.07007.63013.11011.96009v.01a139.27105,139.27105,0,0,0,2.90991,16.67c.15015.49-.38013.93994-.75,1.27991l-2.61011,1.65s-1.07983-9.91992-1.43994-13.28c-.16992-1.62-.52978-3.53-.8999-5.55-.37012-2.0299-.77-4.17993-1-6.29992-.61011-5.39-1.43994-10.67-1.87988-13.79993-1.13013-7.91016-2.62012-11.58008-2.71021-11.80005,1.11011.32,6.90991,2.95,6.90991,2.95a13.09038,13.09038,0,0,1,2.01026,1.14c.98.71008,3.33984,5.23,3.73,6.06994.37988.83008,4.54,8.61011,4.81982,8.78.28.18006,3.8501-.46,5.73-.62a29.95832,29.95832,0,0,0,5.63013-1.02991Z"/>
              <path class="cls-18" d="M51.723,28.801a21.30942,21.30942,0,0,1-1.31785,3.35986s-1.89787-1.66274-2.49506-2.25536C47.31293,29.31318,51.723,28.801,51.723,28.801Z"/>
              <path class="cls-24" d="M48.41965,30.30224l1.98554,1.8586a8.87582,8.87582,0,0,1-2.786-.5469Z"/>
              <path class="cls-25" d="M45.78535,26.87742a18.79566,18.79566,0,0,0,2.6343,3.42482l-1.7621,2.92493-2.82478-5.13141Z"/>
              <path class="cls-27" d="M37.622,69.02649a11.30519,11.30519,0,0,1-.1499,1.34l-.01,2.26a9.39548,9.39548,0,0,1-.97-.1v-.01c.15991-.45.33008-.93994.5-1.46.15991-.5.31982-1.02.49-1.57007l.05-8.83C37.642,63.74646,37.7321,67.00647,37.622,69.02649Z"/>
              <rect class="cls-28" x="49.96364" y="68.49913" width="4.50281" height="3.34786"/>
              <g>
                <polygon class="cls-29" points="39.87 86.177 25.056 86.177 28.532 76.312 43.346 76.312 39.87 86.177"/>
                <polygon class="cls-30" points="39.87 86.177 25.056 86.177 28.532 76.312 43.346 76.312 39.87 86.177"/>
                <polygon class="cls-31" points="28.532 96.042 43.346 96.042 39.87 86.177 25.056 86.177 28.532 96.042"/>
                <polygon class="cls-30" points="39.87 105.908 25.056 105.908 28.532 96.042 43.346 96.042 39.87 105.908"/>
                <polygon class="cls-31" points="28.532 115.773 43.346 115.773 39.87 105.908 25.056 105.908 28.532 115.773"/>
                <rect class="cls-32" x="29.40005" y="77.95957" width="8.44867" height="0.36522"/>
                <rect class="cls-32" x="28.89779" y="79.2839" width="8.44851" height="0.36538"/>
                <rect class="cls-32" x="28.34964" y="80.60821" width="6.83513" height="0.36554"/>
                <rect class="cls-32" x="29.40005" y="97.62035" width="8.44867" height="0.36538"/>
                <rect class="cls-32" x="28.89779" y="98.94468" width="4.22434" height="0.36553"/>
              </g>
              <path class="cls-18" d="M36.30819,71.22788s.0798.252.21888.67431c.24033.72918,1.01461,1.56182.53759,2.55718-.47719.995-4.06208.36932-4.60723-.09494-.5453-.46425-.32059-1.98789.93151-3.94269S36.30819,71.22788,36.30819,71.22788Z"/>
              <path class="cls-18" d="M37.17646,74.10109a31.83285,31.83285,0,0,1-.299,3.46361c-.23181,1.59872-.74274,3.55067-1.14581,3.49736-.612-.08106-.00993-1.6334.1126-3.23369.1129-1.47334-.159-1.20164-.159-1.20164s.08169-.07317-.35687,1.509c-.47151,1.70106-1.04914,3.50824-1.38014,3.47072-.41017-.04636-.45747-.08673-.38825-.732-.12031.36237-.23764.381-.39518.3455-.81512-.184-.51582-2.79073-.39676-3.82584-.09635.79448-.25326,1.36754-.6792.93246-.48728-.49753.10409-4.16425.18829-5.49741C32.36913,71.37454,37.17646,74.10109,37.17646,74.10109Z"/>
              <g>
                <path class="cls-26" d="M47.912,56.39649c-.42993,4.14-.8999,7.38-1.25,10.84-.68994,6.83008-1.16992,12.27-1.16992,12.27l-6.79-3.03c-1.1001-.55-2.62012-2.8-2.21-3.95a9.39548,9.39548,0,0,0,.97.1l.01-2.26a11.30519,11.30519,0,0,0,.1499-1.34c1.25-4.21,2.41992-9.33008,2.41992-12.3,0,0-.75976-9.44995-1.35986-11.53A58.51975,58.51975,0,0,0,37.352,53.0365c-.07983,1.11.06006,4.26.18018,7.62l-.05,8.83c-.17017.55-.33008,1.07007-.49,1.57007a29.43541,29.43541,0,0,1-5.21-.73s-.01-.19006-.02-.53v-.03c-.09009-2.87-.49-15.88-.34009-17.39.11987-1.24,2.1001-19.83,3.13989-20.58.6001-.43005,5.06006-2.01,7.25-2.88013.40015-.1499,1.66016-.68994,2.02-.81994.46.52,4.51026,10,4.89014,17.4A98.88132,98.88132,0,0,1,47.912,56.39649Z"/>
                <path class="cls-26" d="M37.4821,69.48645l-.01.88-.01,2.26a9.39548,9.39548,0,0,1-.97-.1,23.2285,23.2285,0,0,1-4.71-1.22l-.02-1.51c.01.34.02.53.02.53a29.43541,29.43541,0,0,0,5.21.73C37.152,70.55652,37.31193,70.0365,37.4821,69.48645Z"/>
              </g>
            </g>
            <path class="cls-33" d="M33.81434,34.27869s15.10625-12.727,11.67777,45.22778"/>
            <path class="cls-33" d="M36.99211,71.05652S30.06343,36.58429,43.832,28.09644"/>
            <path class="cls-33" d="M31.76213,69.79651s1.64361-24.52806,6.91992-24.6001c0,0,6.89384-3.54116,8.31572-9.21767"/>
            <path class="cls-33" d="M36.49211,73.46955s10.421-17.87779,11.92754-31.98218"/>
            <path class="cls-33" d="M53.132,28.77649s9.01924,25.40114,29.16491,19.73767"/>
            <path class="cls-33" d="M55.71038,39.69209c8.29594-7.471,5.85155,4.07439,5.85155,4.07439s13.18281,12.96852,20.40015,2.3"/>
            <path class="cls-33" d="M61.06193,79.50647s-5.171-43.22937.99024-46.64"/>
            <path class="cls-33" d="M82.57219,50.52649S70.08768,51.95059,70.602,47.71643"/>
          </g>
        </g>
      </g>
    </g>
  </g>
</svg>
