<svg xmlns="http://www.w3.org/2000/svg" xmlns:xlink="http://www.w3.org/1999/xlink" width="67.66981mm" height="40.40003mm" viewBox="0 0 191.81995 114.51978">
  <defs>
    <style>
      .cls-1, .cls-14 {
        fill: none;
      }

      .cls-2 {
        clip-path: url(#clip-path);
      }

      .cls-3 {
        fill: #df7f47;
        stroke-width: 0.21206px;
      }

      .cls-11, .cls-14, .cls-3 {
        stroke: #000;
      }

      .cls-11, .cls-14, .cls-3, .cls-8 {
        stroke-miterlimit: 10;
      }

      .cls-4 {
        clip-path: url(#clip-path-2);
      }

      .cls-5 {
        fill: #f2f2f2;
      }

      .cls-6 {
        fill: #c1c0ff;
      }

      .cls-16, .cls-7, .cls-9 {
        fill: #6c63ff;
      }

      .cls-7 {
        opacity: 0.3;
      }

      .cls-16, .cls-7 {
        isolation: isolate;
      }

      .cls-8 {
        fill: #fd515f;
        stroke: #fd515f;
      }

      .cls-11, .cls-14, .cls-8 {
        stroke-width: 0.13px;
      }

      .cls-10 {
        fill: #fafbef;
      }

      .cls-11 {
        fill: #6353f9;
      }

      .cls-12 {
        fill: #2f2e41;
      }

      .cls-13 {
        fill: #fff;
      }

      .cls-15 {
        fill: #3f3d56;
      }

      .cls-16 {
        opacity: 0.4;
      }
    </style>
    <clipPath id="clip-path">
      <path class="cls-1" d="M155.08232,142.08449c-1.06,12.09-6.48,25.77-13.39,28.63-8.3,3.43-16.63995-9.64-24.31-3.56006-3.6,2.85-3.12,6.8-6.95,13.05-2.45,4-7.43005,10.21-20.84,14.24-32.88,9.87-65,19.52-89.54,11.15v-52.49a11.02148,11.02148,0,0,1,11.02-11.02Z"/>
    </clipPath>
    <clipPath id="clip-path-2">
      <path class="cls-1" d="M176.03992,51.9C171.57,57.52,164.5,58.87,160.88,59.47,123.29993,65.78,37.61,62.9,0,61.24V9.86A9.86713,9.86713,0,0,1,9.86,0H168.62C178.05994,18.07,185.12,40.46008,176.03992,51.9Z"/>
    </clipPath>
  </defs>
  <title>cards</title>
  <g id="Layer_1" data-name="Layer 1">
    <g class="cls-2">
      <path class="cls-3" d="M45.2,77.14328H167.92137a78.302,78.302,0,0,1,78.302,78.302v.00016a78.302,78.302,0,0,1-78.302,78.302H45.2a78.302,78.302,0,0,1-78.302-78.302v-.00018A78.302,78.302,0,0,1,45.2,77.14328Z"/>
    </g>
    <g>
      <g class="cls-4">
        <g>
          <polygon class="cls-5" points="11.26 -37.874 -4.212 -7.697 -1.089 -7.697 -1.089 16.911 -16.828 16.911 -25.896 34.597 86.461 92.203 123.617 19.731 11.26 -37.874"/>
          <rect class="cls-6" x="-15.45792" y="-18.24385" width="195.70899" height="86.4219"/>
          <rect class="cls-7" x="32.30849" y="20.13333" width="127.14273" height="0.29296"/>
          <rect class="cls-7" x="32.30849" y="34.78111" width="127.14273" height="0.29296"/>
          <rect class="cls-7" x="32.30849" y="41.22613" width="127.14273" height="0.29296"/>
          <rect class="cls-7" x="32.30849" y="27.45722" width="127.14273" height="0.29296"/>
          <polygon class="cls-8" points="35.836 41.438 35.432 41.014 54.357 22.976 71.039 34.976 84.53 20.019 90.446 25.047 106.538 15.392 124.412 27.406 152.466 11.449 152.755 11.958 124.386 28.095 106.52 16.086 90.387 25.766 84.584 20.834 71.123 35.758 54.409 23.736 35.836 41.438"/>
          <circle class="cls-9" cx="152.27381" cy="12.95592" r="3.80842"/>
          <path class="cls-10" d="M114.61451,51.80408s-8.60938,8.25066-7.53322,12.55536,9.68556,16.86,9.68556,16.86,8.25066,4.30468,9.32682,0-5.73958-3.22852-5.73958-3.22852l-5.38086-12.91407,6.09832-8.60938Z"/>
          <path class="cls-10" d="M153.08358,39.25173s7.84281-5.04341,7.6613-8.50833-4.90949-14.38991-4.90949-14.38991-3.69867-7.68988-5.16907-4.54719,1.93257,6.488,1.93257,6.488l2.19644,10.717L148.826,34.706Z"/>
          <circle class="cls-10" cx="133.62691" cy="25.61719" r="6.45704"/>
          <path class="cls-10" d="M130.39839,29.56316l1.07618,6.81577,7.89194-1.4349s-.35872-6.81577-.35872-7.53321S130.39839,29.56316,130.39839,29.56316Z"/>
          <path class="cls-11" d="M151.20477,79.78577c.72,3.23,4.65991,3.59-3.59009,4.3-8.25.72-9.67993-.3601-15.41992,1.08-5.74,1.43005-10.40991-.72009-8.97-2.15,1.42993-1.43994,3.95-24.4,1.08008-26.55a3.76965,3.76965,0,0,1-.91016-1.06995l-3.04,3.22-7.53-5.38s2.15015-3.58,3.22-5.02c1.08008-1.42993,4.31006-5.02,4.31006-5.02s9.68018-5.0199,9.68018-6.82c0,0,8.96973-2.15,10.0498-1.43s6.46,1.43,6.46,1.43l2.15015-2.15s6.99,3.05,6.63989,4.13012c-.35986,1.07-2.7,7.34986-2.7,7.34986l-1.79,11.84009S150.4848,76.55579,151.20477,79.78577Z"/>
          <path class="cls-12" d="M135.88031,17.79442l-.06618-.51726a4.06641,4.06641,0,0,0-1.29228.20306,2.12309,2.12309,0,0,1,.07978-.9295,4.133,4.133,0,0,0-1.1961.52l-.26086-.944-3.5861,1.76735a7.56272,7.56272,0,0,0-3.38032,2.56366,5.44167,5.44167,0,0,0-.11682,4.63735,37.66407,37.66407,0,0,0,2.23967,4.23936,10.59092,10.59092,0,0,0,1.01782,1.73233,4.8391,4.8391,0,0,0,5.897,1.00991A3.41267,3.41267,0,0,0,136.85,30.39514a10.93053,10.93053,0,0,0,.32641-1.39254c.23607-.96426.51011-2.95475,1.29332-3.56476.34463-.26843,1.02793.62143,1.31354.29088a3.05493,3.05493,0,0,0,.12409-3.18547,23.24182,23.24182,0,0,0-1.53015-2.98455A14.1433,14.1433,0,0,0,135.88031,17.79442Z"/>
          <path class="cls-13" d="M11.61778,63.728a2.8199,2.8199,0,0,1-2,.54,1.19284,1.19284,0,0,0,.12-.22.24854.24854,0,0,0,.04-.07q1.09507-1.965,2.30005-3.89a.60541.60541,0,0,1,.07-.1,1.7383,1.7383,0,0,1,.11-.18A2.841,2.841,0,0,1,11.61778,63.728Z"/>
          <path class="cls-14" d="M120.35413,58.61983s12.24745-27.82808,34.9756-20.26791"/>
          <path class="cls-14" d="M152.75535,83.02259s-60.42462-13.51923-1.97684-20.34118"/>
          <path class="cls-14" d="M123.22389,83.0131s50.74225-30.22-2.86978-39.81841"/>
          <path class="cls-14" d="M134.88245,84.61887S118.33778,41.11305,139.36651,34.944"/>
          <path class="cls-14" d="M112.82091,53.239S144.33155,31.76532,146.7,57.265c.85263,7.68918-.85264,26.99256-.85264,26.99256"/>
          <path class="cls-14" d="M125.61462,63.35785s19.73253-11.66584,20.93-26.98212"/>
          <path class="cls-14" d="M152.6347,45.70569s-30.42178.76217-36.03615,10.22638"/>
        </g>
      </g>
      <path class="cls-15" d="M8.86676,59.91813c1.26727,4.68455,5.60791,7.58581,5.60791,7.58581s2.286-4.6939,1.01875-9.37844-5.60791-7.58581-5.60791-7.58581S7.59949,55.23358,8.86676,59.91813Z"/>
      <path class="cls-9" d="M10.7289,58.91137c3.47739,3.38508,3.90211,8.58875,3.90211,8.58875s-5.2132-.28464-8.69057-3.66973-3.9021-8.58875-3.9021-8.58875S7.25154,55.52628,10.7289,58.91137Z"/>
      <circle class="cls-16" cx="182.78729" cy="48.37137" r="9.03266"/>
      <circle class="cls-16" cx="166.07013" cy="52.68547" r="6.33634"/>
    </g>
  </g>
</svg>
