<svg xmlns="http://www.w3.org/2000/svg" xmlns:xlink="http://www.w3.org/1999/xlink" width="67.66981mm" height="40.40003mm" viewBox="0 0 191.81995 114.51978">
  <defs>
    <style>
      .cls-1, .cls-23 {
        fill: none;
      }

      .cls-2 {
        clip-path: url(#clip-path);
      }

      .cls-3 {
        fill: #93e5dd;
      }

      .cls-4 {
        clip-path: url(#clip-path-2);
      }

      .cls-5 {
        fill: #f8eee4;
      }

      .cls-6 {
        fill: #a8d29f;
      }

      .cls-10, .cls-7 {
        fill: #d86713;
      }

      .cls-8 {
        fill: #ee9849;
      }

      .cls-9 {
        fill: #f1a34f;
      }

      .cls-10 {
        opacity: 0.4;
      }

      .cls-11, .cls-22 {
        fill: #699dee;
      }

      .cls-12 {
        fill: #e9f3fe;
      }

      .cls-13 {
        fill: #afcdfb;
      }

      .cls-14 {
        fill: #ebf2f9;
      }

      .cls-15 {
        fill: #4a75cb;
      }

      .cls-16 {
        fill: #c95c12;
      }

      .cls-17 {
        fill: #fafbef;
      }

      .cls-18 {
        fill: #c65447;
      }

      .cls-19 {
        fill: #aa413e;
      }

      .cls-20 {
        fill: #b5453c;
      }

      .cls-21 {
        fill: #d68d5d;
      }

      .cls-22, .cls-23 {
        stroke: #000;
        stroke-miterlimit: 10;
        stroke-width: 0.1px;
      }

      .cls-24 {
        fill: #1c468a;
      }

      .cls-25 {
        fill: #163560;
      }

      .cls-26 {
        fill: #82b378;
      }

      .cls-27 {
        fill: #ffb973;
      }
    </style>
    <clipPath id="clip-path">
      <path class="cls-1" d="M162.63475,220.76544c-8.22,11.09-21.99,13.86-32.21,15.92-36.34,7.31994-45.55993-15.24-82.61-9.1001-11.44007,1.9-21.75,5.91-38.2699,3.41a97.02294,97.02294,0,0,1-9.54-1.79v-62.16a9.86053,9.86053,0,0,1,9.86-9.85986H158.0548C169.51488,177.15546,174.77489,204.41547,162.63475,220.76544Z"/>
    </clipPath>
    <clipPath id="clip-path-2">
      <path class="cls-1" d="M156.96483,62.91992c-5.98,11.16992-19.26,14.04-32.33008,16.66992-21.82983,4.40015-35.88989.95-60.12988-2.01977C22.86486,72.47,8.89476,75.85986.00487,73.5V9.85986A9.86053,9.86053,0,0,1,9.86486,0H97.05492a75.82913,75.82913,0,0,0,15.96,9.35986c19.41992,8.71021,27.95,5.79,36.87988,15.15992C158.97484,34.05005,163.38475,50.95,156.96483,62.91992Z"/>
    </clipPath>
  </defs>
  <title>cards</title>
  <g id="Layer_1" data-name="Layer 1">
    <g class="cls-2">
      <ellipse class="cls-3" cx="63.17487" cy="179.76613" rx="133.44362" ry="70.05954"/>
    </g>
    <g class="cls-4">
      <g>
        <path class="cls-5" d="M171.66271,97.47106s28.99907,5.32563,38.23035-14.82219c11.97641-26.139-12.62887-45.95853-31.5-42.26593-41.12062,8.04628-31.21873-80.721-97.21189-62.60462C62.62482-17.12759,12.48789-47.38882-1.49518,1.13256-4.82027,12.67068-16.601,13.94132-33.70277,21.2625c-33.46967,14.32817-18.166,76.45027,5.74938,76.69413S171.66271,97.47106,171.66271,97.47106Z"/>
        <path class="cls-6" d="M98.12239,67.19153c-3.57522-2.67942-7.00748.82024-12.01287-1.46794s5.29141-13.586,1.14409-17.01825-11.01182,3.86129-11.01182,3.86129,12.0129-15.0161,7.43654-16.889-33.52057-6.66112-33.52057-6.66112L44.92788,59.18336c-1.06962-1.3836-3.336-3.16806-5.29872-.91669-2.61092,2.99486,6.14332,9.44538,4.76106,10.75085S39.70594,64.794,36.91227,66.9564s.78967,5.87237.78967,5.87237l7.84016.10912.00342-.27376h55.29724S101.69767,69.87091,98.12239,67.19153Z"/>
        <g>
          <g>
            <path class="cls-7" d="M60.7248,27.37,57.124,70.18452s-.37729,2.59533,1.55322,2.59991c3.1741.00759,15.79862,0,15.79862,0s-2.389-.54027-2.36-1.75579c.03411-1.43281,4.2086-44.06382,4.2086-44.06382Z"/>
            <path class="cls-8" d="M75.50013,72.00765c-.62429.00187-12.68226.03966-15.77332,0-1.34713-.01675-1.58332-1.19773-1.5945-1.9621a3.8267,3.8267,0,0,1,.04094-.63732l.09359-1.1128.23869-2.83629.21077-2.50581.27092-3.22.22814-2.71785L61.77389,26.5928,77.37361,26.188s-1.75818,17.84086-3.00178,30.82751c-.13887,1.447-.27092,2.83435-.393,4.12944q-.05952.62026-.11471,1.21138c-.1153,1.22877-.2207,2.357-.31245,3.35329-.04836.5251-.093,1.013-.13329,1.46-.1587,1.75136-.25168,2.86978-.25294,3.0824a1.801,1.801,0,0,0,.03037.34657C73.45184,71.963,75.26579,72.00765,75.50013,72.00765Z"/>
            <polygon class="cls-9" points="97.734 4.072 22.84 4.072 31.611 39.303 32.812 44.128 36.897 60.538 112.791 60.538 97.734 4.072"/>
            <polygon class="cls-8" points="22.84 4.072 21.625 4.477 35.281 61.763 36.897 60.538 22.84 4.072"/>
            <polygon class="cls-7" points="35.281 61.763 110.708 61.763 112.791 60.538 36.897 60.538 35.281 61.763"/>
            <rect class="cls-9" x="61.76884" y="72.02474" width="16.33108" height="0.77609" transform="translate(139.86876 144.82558) rotate(180)"/>
            <polygon class="cls-7" points="73.948 61.763 73.864 62.356 58.506 65.459 58.716 62.953 58.817 61.763 73.948 61.763"/>
            <path class="cls-10" d="M75.50013,72.00765c-.62429.00187-12.68226.03966-15.77332,0-1.34713-.01675-1.58332-1.19773-1.5945-1.9621l15.286-2.876c-.1587,1.75136-.25168,2.86978-.25294,3.0824a1.801,1.801,0,0,0,.03037.34657C73.45184,71.963,75.26579,72.00765,75.50013,72.00765Z"/>
            <polygon class="cls-10" points="69.25 49.445 36.897 60.538 34.134 49.438 69.25 49.445"/>
            <polygon class="cls-11" points="97.734 4.072 22.84 4.072 34.128 49.438 109.886 49.453 97.734 4.072"/>
          </g>
          <path class="cls-7" d="M76.8562,55.18926a2.56651,2.56651,0,0,0-2.40688-2.01511,1.61265,1.61265,0,0,0-1.62341,2.01511,2.56645,2.56645,0,0,0,2.40685,2.01515A1.6127,1.6127,0,0,0,76.8562,55.18926Z"/>
          <polygon class="cls-12" points="106.354 47.486 36.23 47.486 28.289 15.85 27.68 13.424 27.16 11.355 25.942 6.503 95.055 6.503 96.393 11.355 96.963 13.424 97.632 15.85 106.354 47.486"/>
          <polygon class="cls-13" points="95.055 6.503 25.942 6.503 27.16 11.355 96.393 11.355 95.055 6.503"/>
          <polygon class="cls-6" points="50.66 19.053 57.651 19.053 58.558 22.557 51.567 22.557 50.66 19.053"/>
          <polygon class="cls-6" points="37.668 22.557 44.659 22.557 45.525 25.902 38.552 25.902 37.668 22.557"/>
          <polygon class="cls-6" points="71.704 19.053 78.695 19.053 79.602 22.557 72.611 22.557 71.704 19.053"/>
          <polygon class="cls-6" points="73.477 26.142 80.468 26.142 81.333 29.486 74.361 29.486 73.477 26.142"/>
          <polygon class="cls-6" points="68.27 33.07 82.29 33.07 83.159 36.575 69.177 36.575 68.27 33.07"/>
          <g>
            <rect class="cls-13" x="28.98903" y="18.95113" width="69.63195" height="0.20355"/>
            <rect class="cls-13" x="29.98858" y="22.45548" width="69.57851" height="0.20356"/>
            <rect class="cls-13" x="30.67918" y="25.95987" width="69.83405" height="0.20355"/>
            <rect class="cls-13" x="31.70802" y="29.46423" width="69.75137" height="0.20356"/>
            <rect class="cls-13" x="32.59379" y="32.96856" width="69.81169" height="0.20356"/>
            <rect class="cls-13" x="33.42742" y="36.47295" width="69.9242" height="0.20355"/>
            <rect class="cls-13" x="34.28711" y="39.97733" width="70.01062" height="0.20356"/>
            <rect class="cls-13" x="35.22871" y="43.48167" width="70.01517" height="0.20355"/>
          </g>
          <g>
            <path class="cls-12" d="M29.2569,8.089a.45826.45826,0,0,0-.45531.60656.82851.82851,0,0,0,.75779.60655.45826.45826,0,0,0,.45531-.60655A.82856.82856,0,0,0,29.2569,8.089Z"/>
            <path class="cls-12" d="M31.27228,8.089a.45826.45826,0,0,0-.45531.60656.82856.82856,0,0,0,.75779.60655.45827.45827,0,0,0,.45533-.60655A.82854.82854,0,0,0,31.27228,8.089Z"/>
            <path class="cls-12" d="M34.20024,8.69555a.82851.82851,0,0,0-.75779-.60656.45827.45827,0,0,0-.45532.60656.82857.82857,0,0,0,.75779.60655A.45826.45826,0,0,0,34.20024,8.69555Z"/>
          </g>
          <polygon class="cls-13" points="99.867 47.511 100.064 47.46 91.883 15.85 97.632 15.85 96.963 13.424 91.255 13.424 91.248 13.399 91.15 13.424 84.264 13.424 84.257 13.399 84.159 13.424 77.273 13.424 77.266 13.399 77.167 13.424 70.281 13.424 70.275 13.399 70.176 13.424 63.29 13.424 63.284 13.399 63.185 13.424 56.299 13.424 56.293 13.399 56.194 13.424 49.308 13.424 49.302 13.399 49.203 13.424 42.317 13.424 42.31 13.399 42.212 13.424 35.326 13.424 35.319 13.399 35.221 13.424 27.68 13.424 28.289 15.85 35.744 15.85 43.938 47.511 44.135 47.46 35.954 15.85 42.735 15.85 50.929 47.511 51.126 47.46 42.945 15.85 49.726 15.85 57.92 47.511 58.117 47.46 49.936 15.85 56.717 15.85 64.911 47.511 65.108 47.46 56.927 15.85 63.708 15.85 71.903 47.511 72.1 47.46 63.918 15.85 70.699 15.85 78.894 47.511 79.091 47.46 70.909 15.85 77.69 15.85 85.885 47.511 86.082 47.46 77.9 15.85 84.681 15.85 92.876 47.511 93.073 47.46 84.892 15.85 91.672 15.85 99.867 47.511"/>
        </g>
        <g>
          <g>
            <rect class="cls-7" x="133.38063" y="34.03093" width="14.63244" height="14.63249"/>
            <rect class="cls-8" x="137.89235" y="34.03093" width="14.63249" height="14.63249"/>
          </g>
          <g>
            <path class="cls-14" d="M145.36414,43.78892a1.06863,1.06863,0,0,0-1.06423,1.0731h0a1.06864,1.06864,0,0,0,1.073,1.06419h0a1.06872,1.06872,0,0,0,1.06423-1.073h0A1.0687,1.0687,0,0,0,145.36414,43.78892Z"/>
            <path class="cls-14" d="M145.373,38.74172h0a1.06873,1.06873,0,0,0,1.06423-1.07311h0a1.06867,1.06867,0,1,0-1.06428,1.07311Z"/>
            <rect class="cls-14" x="140.77489" y="40.2785" width="9.1582" height="2.13732" transform="translate(-0.17022 0.60316) rotate(-0.23761)"/>
          </g>
        </g>
        <g>
          <g>
            <rect class="cls-15" x="7.97674" y="44.16899" width="12.5087" height="12.5087"/>
            <rect class="cls-11" x="11.83363" y="44.16899" width="12.50871" height="12.5087"/>
          </g>
          <rect class="cls-14" x="14.2978" y="49.5098" width="7.82895" height="1.82712"/>
        </g>
        <g>
          <g>
            <g>
              <rect class="cls-7" x="126.1684" y="48.66341" width="24.22935" height="24.2294" transform="translate(276.56616 121.55622) rotate(180)"/>
              <rect class="cls-9" x="118.6976" y="48.66341" width="24.2294" height="24.2294"/>
            </g>
            <polygon class="cls-14" points="138.154 59.009 132.341 59.009 132.341 53.196 128.802 53.196 128.802 59.009 122.989 59.009 122.989 62.548 128.802 62.548 128.802 68.36 132.341 68.36 132.341 62.548 138.154 62.548 138.154 59.009"/>
          </g>
          <polygon class="cls-16" points="142.927 48.663 150.398 52.302 150.398 48.663 142.927 48.663"/>
        </g>
        <g>
          <g>
            <path class="cls-17" d="M121.51032,58.62526a.43231.43231,0,0,1,.0771.46239l-.00118.00231a2.87406,2.87406,0,0,1-.90807.9961c-.05468.04414-.1033.08429-.14572.12144l-.03271.02936-.02517.02276c-.39913.36789-.24893.45218-.966,1.19877-.81767.85072-1.3806.866-1.54071.78855-.13547-.06606.13976-.51726.44475-1.02438l.04443-.07394c.04065-.06739.081-.13587.12134-.20365.35745-.61032.26562-.89669.18089-1.805-.06887-.73807-1.14827-4.12353-1.14827-4.12353l1.56686-.26991s.47184,2.69582.99172,3.111c.278.22128.58919.22409.85639.38814q.0283.01707.05557.03508A2.05791,2.05791,0,0,1,121.51032,58.62526Z"/>
            <path class="cls-18" d="M121.51032,58.62526a.43231.43231,0,0,1,.0771.46239l-.00118.00231a3.32862,3.32862,0,0,1-.90955.993c-.054.04488-.10177.08606-.14424.12459l-.03271.02936-.02517.02276c-.39913.36789-.24893.45218-.966,1.19877-.81767.85072-1.3806.866-1.54071.78855-.13547-.06606.13976-.51726.44475-1.02438a3.48379,3.48379,0,0,0,1.45745-1.07393c.49233-.62825.82067-1.43543,1.15591-1.903q.0283.01707.05557.03508A2.05791,2.05791,0,0,1,121.51032,58.62526Z"/>
            <path class="cls-17" d="M108.8761,57.6467c-.09676.48361-.78614.40292-1.55637.21474s-.58717.03551-1.68338-.08582-1.42828-.53012-1.46173-.69308c-.0299-.14464.51174-.19563,1.0927-.26258.07306-.00817.14646-.01724.21987-.02625a4.74478,4.74478,0,0,0,1.73214-.85319,6.96023,6.96023,0,0,0,1.40661-1.67081l1.50331.11907s-.78885,1.19822-1.094,1.71919a1.816,1.816,0,0,0-.14759,1.02447A1.92841,1.92841,0,0,1,108.8761,57.6467Z"/>
            <path class="cls-18" d="M107.31973,57.86144c-.77023-.18824-.58717.03551-1.68338-.08582s-1.42828-.53012-1.46173-.69308c-.0299-.14464.51174-.19563,1.0927-.26258l.00542.01119a3.09027,3.09027,0,0,0,1.56992.48795c.74368.01808,1.53145-.195,2.045-.18666a1.92841,1.92841,0,0,1-.01158.51426C108.77934,58.13031,108.09,58.04962,107.31973,57.86144Z"/>
            <path class="cls-17" d="M112.22116,35.56611s-.35814-.87757-.75214-.91339-1.64766-.23281-1.73722-.05369a1.23934,1.23934,0,0,0,.26863,1.05659,9.58048,9.58048,0,0,0,1.93422.609Z"/>
            <path class="cls-19" d="M114.63738,48.03383l3.24,8.71948a2.967,2.967,0,0,0,.975-.08931,4.19871,4.19871,0,0,0,.94231-.45889s-.80373-8.37223-2.27724-10.11363S114.63738,48.03383,114.63738,48.03383Z"/>
            <path class="cls-18" d="M127.4524,44.50634s-9.3099-3.14792-11.3862-2.47818-8.3104,13.073-8.3104,13.073a1.20375,1.20375,0,0,0,.52466.3312,4.95186,4.95186,0,0,0,1.22192.12533s5.6261-4.82238,6.29588-6.22889.93773-2.74608,1.60751-2.61213,8.64012,3.28191,10.44847,1.40651a5.22,5.22,0,0,0,1.33548-4.312Z"/>
            <path class="cls-20" d="M121.7631,29.86173a5.29286,5.29286,0,0,1-.39623-1.82409,5.59643,5.59643,0,0,0,.65141,2.01617c1.93614,1.27118,5.64723,5.5157,5.57383,6.32,0,0,1.3072-2.21709,1.32971-2.23034,0,0,2.41128-3.06624-.44657-4.82264a2.84694,2.84694,0,0,1-1.38439-3.03353c.06113-.99534-.39618-5.27951-3.30576-4.15835a1.89451,1.89451,0,0,0-.67609-.17639.5712.5712,0,0,1,.2577.12232,2.25788,2.25788,0,0,0-1.222.23378C121.07809,22.91476,120.12357,28.35275,121.7631,29.86173Z"/>
            <path class="cls-17" d="M122.13286,30.11706a2.68221,2.68221,0,0,0,1.64535.30049,2.13509,2.13509,0,0,0,1.09571-1.05069c-.283-.05621-.3646-.44512-.35864-2.11637l-.12793.0252-2.15128.426s.049.677.0504,1.31479C122.288,29.552,122.25548,30.05989,122.13286,30.11706Z"/>
            <path class="cls-21" d="M122.23607,27.70169s.049.677.0504,1.31479a2.55219,2.55219,0,0,0,2.10088-1.74079Z"/>
            <path class="cls-20" d="M124.60952,27.04149a6.32711,6.32711,0,0,0,.7823-1.84914,2.17185,2.17185,0,0,0-2.46848-2.53925,3.07919,3.07919,0,0,0-1.2771.48278c-.49214.33241-1.20241,1.05-.40829,3.01826l.20632.6649Z"/>
            <path class="cls-17" d="M121.83408,28.30561s2.8482.047,2.85017-1.72722.3709-2.96295-1.44754-3.068-2.17251.57161-2.3172,1.16363S121.09322,28.24765,121.83408,28.30561Z"/>
            <path class="cls-20" d="M124.52355,23.841s-1.94535-1.33-2.56084-.41033c-.18661-.16-.519-.27585-.95852.2569-.66027.80031-.07276,2.2151-.07276,2.2151.2711.03162.33495-.89844.477-1.35023a2.26012,2.26012,0,0,1,.63382-.83922c.24849.56022.932,1.90077,1.87387,2.14294a2.35646,2.35646,0,0,0,1.71594-.0129A3.38915,3.38915,0,0,1,124.52355,23.841Z"/>
            <path class="cls-11" d="M127.84651,37.72058c-.14014.12988-2.40992.52979-3.58985.87988a8.35655,8.35655,0,0,1,2.38989-3A9.07324,9.07324,0,0,1,127.84651,37.72058Z"/>
            <path class="cls-11" d="M129.63654,44.55042c-.1499.42993-.62011.54-1.26.47-.83008-.36988-4.42994-1.76-4.3899-2.71.0398-1.01.3899-1.31982.40991-2.06982a23.43341,23.43341,0,0,0,4.30982.29981C129.17658,42.18054,129.91657,43.7804,129.63654,44.55042Z"/>
            <path class="cls-11" d="M120.32649,36.43054c-.66993,1.08985-1.91993,2.93994-2.72,3.12988a4.52607,4.52607,0,0,1-2.15992-.7,5.81017,5.81017,0,0,0,1.98.11011c.68995-.07007.8899-.92016,1.98-2.19018C120.11653,35.95056,120.29646,36.16052,120.32649,36.43054Z"/>
            <path class="cls-15" d="M120.32649,36.43054c-.66993,1.08985-1.91993,2.93994-2.72,3.12988a4.52607,4.52607,0,0,1-2.15992-.7,5.81017,5.81017,0,0,0,1.98.11011c.68995-.07007.8899-.92016,1.98-2.19018C120.11653,35.95056,120.29646,36.16052,120.32649,36.43054Z"/>
            <path class="cls-22" d="M130.55647,40.12048a3.68727,3.68727,0,0,1-1.8501.41993c.47021,1.64013,1.2102,3.24.93017,4.01-.1499.42993-.62011.54-1.26.47a18.79059,18.79059,0,0,1-4.28-1.51c-1.96-.84986-2.85987-.05-3.48-.58985-.6001-.52.57006-1.62011-.29-6.49-.03-.27-.21-.48-.91993.34986-1.09008,1.27-1.29,2.12011-1.98,2.19018a5.81017,5.81017,0,0,1-1.98-.11011,44.30415,44.30415,0,0,1-3.82006-2.28,1.83762,1.83762,0,0,1,.56-1.45s4.2,1.57007,4.61988,1.59986c.91015.07007,1.83007-4.31983,2.68017-5.77979.61988-1.06006,2.77979-1.3501,2.77979-1.3501s.18017,1.10987,2.61011-.23c0,0,2.32006.1399,3.11987,1.26C129.12654,32.21033,131.84651,39.23035,130.55647,40.12048Z"/>
            <path class="cls-23" d="M120.32649,36.43054s-2.17366,3.99119-4.87989,2.42993"/>
            <path class="cls-23" d="M117.45456,36.12555s9.08329-6.897,12.10867-2.24065"/>
            <path class="cls-23" d="M112.18659,35.13049s4.90428,2.08652,5.24,3.84009"/>
            <path class="cls-23" d="M112.34774,37.05054s1.56192-1.19727,2.73034-.925"/>
            <path class="cls-23" d="M117.904,35.13049s9.83726-2.57484,10.62674,9.90941"/>
            <path class="cls-23" d="M122.38072,43.096s1.14327-8.34692,7.87821-7.22253"/>
            <path class="cls-23" d="M120.37568,36.72012s4.2943-3.21591.38256-6.7112"/>
            <path class="cls-17" d="M123.66377,39.11124a1.7168,1.7168,0,0,0-1.17217-.35721c-.56934.11163-.84841.50234-.8261.681a1.01553,1.01553,0,0,0,.75915.72565,8.21907,8.21907,0,0,0,1.67451-.26794Z"/>
            <path class="cls-15" d="M127.84651,37.72058c-.14014.12988-2.40992.52979-3.58985.87988a8.35655,8.35655,0,0,1,2.38989-3A9.07324,9.07324,0,0,1,127.84651,37.72058Z"/>
            <path class="cls-15" d="M129.63654,44.55042c-.1499.42993-.62011.54-1.26.47-.83008-.36988-4.42994-1.76-4.3899-2.71.0398-1.01.3899-1.31982.40991-2.06982a23.43341,23.43341,0,0,0,4.30982.29981C129.17658,42.18054,129.91657,43.7804,129.63654,44.55042Z"/>
            <path class="cls-23" d="M130.55647,40.12048a3.68727,3.68727,0,0,1-1.8501.41993c.47021,1.64013,1.2102,3.24.93017,4.01-.1499.42993-.62011.54-1.26.47a18.79059,18.79059,0,0,1-4.28-1.51c-1.96-.84986-2.85987-.05-3.48-.58985-.6001-.52.57006-1.62011-.29-6.49-.03-.27-.21-.48-.91993.34986-1.09008,1.27-1.29,2.12011-1.98,2.19018a5.81017,5.81017,0,0,1-1.98-.11011,44.30415,44.30415,0,0,1-3.82006-2.28,1.83762,1.83762,0,0,1,.56-1.45s4.2,1.57007,4.61988,1.59986c.91015.07007,1.83007-4.31983,2.68017-5.77979.61988-1.06006,2.77979-1.3501,2.77979-1.3501s.18017,1.10987,2.61011-.23c0,0,2.32006.1399,3.11987,1.26C129.12654,32.21033,131.84651,39.23035,130.55647,40.12048Z"/>
          </g>
          <g>
            <g>
              <polygon class="cls-24" points="123.058 42.265 114.507 42.265 112.966 36.889 121.503 36.889 123.058 42.265"/>
              <rect class="cls-25" x="114.53659" y="42.0554" width="11.1783" height="0.20942"/>
            </g>
            <path class="cls-25" d="M117.22246,39.48987a.249.249,0,0,1,.244-.34213.49027.49027,0,0,1,.44027.34213.249.249,0,0,1-.24405.34213A.49024.49024,0,0,1,117.22246,39.48987Z"/>
          </g>
        </g>
        <g>
          <g>
            <rect class="cls-7" x="9.36946" y="56.67769" width="15.98605" height="15.9861"/>
            <rect class="cls-9" x="14.29853" y="56.67769" width="15.98605" height="15.9861"/>
            <polygon class="cls-14" points="26.857 67.311 24.101 64.644 26.768 61.888 25.091 60.264 22.423 63.02 19.668 60.353 18.044 62.031 20.8 64.698 18.132 67.454 19.81 69.077 22.477 66.322 25.233 68.989 26.857 67.311"/>
          </g>
          <polygon class="cls-16" points="14.299 56.678 9.369 59.666 9.369 56.678 14.299 56.678"/>
        </g>
        <g>
          <g>
            <path class="cls-26" d="M16.77142,36.30915s-1.26111-1.47125-.07776-2.40577a3.35663,3.35663,0,0,1,1.56916-.48081s-.99869,1.67466-.6756,1.84121.97827-1.94628.97827-1.94628a7.94189,7.94189,0,0,1,2.59976.1135s-1.68152,1.37606-1.32739,1.458,2.17043-1.26873,2.17043-1.26873,1.83072.31155,1.73308,1.42834-.7284,1.46164-1.00565,1.43193-1.89907-.64879-1.9344-.42164.94093.9696,1.62456,1.00433c0,0-1.2907,1.42341-2.1485,1.01261s-.931-1.062-1.46575-1.30622-.99117-.24361-.7704.00547,1.1885.49115,1.49428,1.03206.58017.90571-.30733.7722-2.3301-.78294-2.39343-1.52656Z"/>
            <g>
              <path class="cls-26" d="M22.84185,35.07875s-4.97235-.19163-6.07043,1.2304a3.59635,3.59635,0,0,1-.99014,1.38962l-.11648.31744s.86164-.9085,1.17-.96343C16.83475,37.05278,16.35259,35.291,22.84185,35.07875Z"/>
              <path class="cls-26" d="M15.78128,37.69877a3.12223,3.12223,0,0,0-1.1414,2.1996l.1937.01733a5.04722,5.04722,0,0,1,.957-2.02851C16.40666,37.31692,15.78128,37.69877,15.78128,37.69877Z"/>
            </g>
          </g>
          <g>
            <path class="cls-6" d="M12.36217,34.45887s2.0061-1.1234,1.0699-2.648a3.98284,3.98284,0,0,0-1.55137-1.1769s.428,2.27359,0,2.3271-.29423-2.56782-.29423-2.56782A9.42239,9.42239,0,0,0,8.64421,29.457s1.31065,2.22006.88267,2.16657-1.89909-2.30032-1.89909-2.30032-2.1666-.40123-2.51432.88267.214,1.92587.535,2.00612,2.38054.05345,2.32707.32095-1.44439.69544-2.22009.4547c0,0,.85594,2.11309,1.97934,2.00609s1.47115-.8024,2.16659-.85589,1.20365.1337.85593.32094-1.52462.06139-2.08632.53889-1.01642.77176.02675.98576,2.91552.08025,3.29-.7222Z"/>
            <g>
              <path class="cls-26" d="M6.10314,30.60719s5.61706,1.81884,6.259,3.85168a4.26712,4.26712,0,0,0,.53495,1.9526v.40125a5.84362,5.84362,0,0,0-.90942-1.5514S13.24484,33.496,6.10314,30.60719Z"/>
              <path class="cls-26" d="M12.89712,36.41147a3.70481,3.70481,0,0,1,.37241,2.91672l-.22287-.0599a5.98849,5.98849,0,0,0-.23688-2.65071C12.35656,35.73055,12.89712,36.41147,12.89712,36.41147Z"/>
            </g>
          </g>
          <g>
            <path class="cls-6" d="M15.55369,32.90955s-2.6444-1.48088-1.41033-3.49062a5.25,5.25,0,0,1,2.045-1.55137s-.56416,2.997,0,3.0675.38782-3.38486.38782-3.38486,2.78544-1.3398,3.87847-1.234c0,0-1.72768,2.92648-1.16353,2.856s2.50336-3.03224,2.50336-3.03224,2.856-.52889,3.31433,1.16352-.28208,2.53863-.70518,2.64442-3.138.07052-3.06752.4231,1.904.91673,2.92648.59938c0,0-1.12827,2.78544-2.60915,2.64445s-1.93922-1.05778-2.856-1.12832-1.58664.17631-1.12827.42312,2.00974.08089,2.75019.71037,1.33983,1.01728-.03527,1.29937-3.84319.10576-4.33681-.952Z"/>
            <g>
              <path class="cls-26" d="M23.80423,27.83229s-7.40432,2.39759-8.25054,5.07726a5.62489,5.62489,0,0,1-.70515,2.5739v.52889a7.70206,7.70206,0,0,1,1.19879-2.045S14.39016,31.64023,23.80423,27.83229Z"/>
              <path class="cls-26" d="M14.84854,35.48345a4.88351,4.88351,0,0,0-.49091,3.84474l.29375-.07892a7.89438,7.89438,0,0,1,.31228-3.49413C15.56108,34.58583,14.84854,35.48345,14.84854,35.48345Z"/>
            </g>
          </g>
          <path class="cls-9" d="M15.4646,43.90543a5.18,5.18,0,0,0,5.18-5.18H10.28462A5.18,5.18,0,0,0,15.4646,43.90543Z"/>
          <path class="cls-27" d="M16.73923,43.86577A5.1833,5.1833,0,0,1,10.916,38.72541h1.28686A5.18082,5.18082,0,0,0,16.73923,43.86577Z"/>
          <path class="cls-9" d="M20.077,43.53H10.85216a.63906.63906,0,0,0-.63907.639h10.503A.63907.63907,0,0,0,20.077,43.53Z"/>
          <rect class="cls-7" x="10.11429" y="38.72541" width="10.64806" height="0.15892"/>
        </g>
      </g>
    </g>
  </g>
</svg>
