<svg xmlns="http://www.w3.org/2000/svg" xmlns:xlink="http://www.w3.org/1999/xlink" width="67.66981mm" height="40.40003mm" viewBox="0 0 191.81995 114.51978">
  <defs>
    <style>
      .cls-1, .cls-11, .cls-12, .cls-5 {
        fill: none;
      }

      .cls-2 {
        fill: #e2e2e2;
      }

      .cls-3 {
        clip-path: url(#clip-path);
      }

      .cls-14, .cls-4, .cls-7 {
        fill: #df7f47;
      }

      .cls-11, .cls-14, .cls-4, .cls-6 {
        stroke: #000;
      }

      .cls-11, .cls-12, .cls-14, .cls-4, .cls-5, .cls-6 {
        stroke-miterlimit: 10;
      }

      .cls-4 {
        stroke-width: 0.21206px;
      }

      .cls-12, .cls-5 {
        stroke: #fff;
      }

      .cls-5 {
        stroke-width: 0.64919px;
      }

      .cls-6 {
        fill: #984d25;
      }

      .cls-11, .cls-14, .cls-6 {
        stroke-width: 0.14108px;
      }

      .cls-8 {
        fill: #dfa770;
      }

      .cls-9 {
        fill: #b99552;
      }

      .cls-10 {
        fill: #b6673d;
      }

      .cls-12 {
        stroke-width: 0.70539px;
      }

      .cls-13 {
        fill: #fafbef;
      }

      .cls-15 {
        fill: #30302f;
      }

      .cls-16 {
        fill: #1e3f4b;
      }

      .cls-17 {
        fill: #335b6f;
      }

      .cls-18 {
        fill: #a9bcc6;
      }

      .cls-19 {
        fill: #bacfda;
      }

      .cls-20 {
        fill: #f79422;
      }

      .cls-21 {
        fill: #fff;
      }

      .cls-22 {
        fill: #f49092;
      }
    </style>
    <clipPath id="clip-path">
      <path class="cls-1" d="M155.08232-.02078c-1.06,12.09-6.48,25.77-13.39,28.63-8.3,3.43-16.63995-9.64-24.31-3.56006-3.6,2.85-3.12,6.8-6.95,13.05005-2.45,4-7.43005,10.21-20.84,14.24-32.88,9.87-65,19.52-89.54,11.15v-52.49a11.02149,11.02149,0,0,1,11.02-11.02Z"/>
    </clipPath>
  </defs>
  <title>cards</title>
  <g id="Layer_1" data-name="Layer 1">
    <g>
      <g>
        <g>
          <path class="cls-2" d="M90.50712,30.28538h7.22764A1.49158,1.49158,0,0,1,99.22634,31.777v.90923a1.49158,1.49158,0,0,1-1.49158,1.49158H90.50712a1.49159,1.49159,0,0,1-1.49159-1.49159V31.777A1.49159,1.49159,0,0,1,90.50712,30.28538Z" transform="translate(93.75961 131.71772) rotate(-108.6956)"/>
          <path class="cls-2" d="M92.42684,34.03308q2.46832-.04383,4.937-.0383c.466.001.51216.72824.04171.72718q-2.46875-.0055-4.937.03832C92.00173,34.76857,91.95638,34.04144,92.42684,34.03308Z"/>
          <path class="cls-2" d="M91.6932,31.86509q2.46833-.04384,4.937-.0383c.466.001.51216.72823.04171.72718q-2.46874-.00552-4.937.03831C91.26809,32.60057,91.22274,31.87345,91.6932,31.86509Z"/>
          <path class="cls-2" d="M91.26686,29.89524q2.46833-.04383,4.937-.0383c.466.001.51216.72824.04171.7272q-2.46874-.00554-4.937.0383C90.84175,30.63073,90.7964,29.9036,91.26686,29.89524Z"/>
        </g>
        <path class="cls-2" d="M91.67255,28.0349q1.37859-.194,2.76411-.349c.6811-.075,1.70711-.38309,2.3801-.02165.6429.34533.97215,1.32331,1.26833,1.9472A22.30184,22.30184,0,0,1,99.145,32.27062a23.31158,23.31158,0,0,1,.6504,2.474c.13566.65268.24182,1.30213-.302,1.7488-1.18.96931-3.27988.83918-4.741.81939-.8701-.01181-1.00467-1.40385-.128-1.392a11.01628,11.01628,0,0,0,3.56637-.35234c.43148-.13887.37744-.15229.28434-.62269-.07-.35358-.15489-.7054-.24672-1.055q-.24147-.9193-.56316-1.819-.32178-.898-.71966-1.76883a8.139,8.139,0,0,0-.47842-.97408c-.25838-.40271-.26441-.3562-.66917-.37817a11.34851,11.34851,0,0,0-1.84881.197q-1.07671.12631-2.14853.279C90.94428,29.54733,90.8206,28.15477,91.67255,28.0349Z"/>
        <path class="cls-2" d="M88.46014,28.894c.65058-.1841,1.31267-.27135,1.96162-.46248.10064-.034.2011-.06644.30041-.0966.85954-.2611,1.3837,1.02856.51855,1.33507q-.33552.11887-.67492.21972c-.52725.204-.98847.51506-.95995,1.16389a8.29355,8.29355,0,0,0,.6954,2.55485,11.69141,11.69141,0,0,0,1.27088,2.365c.30433.43632.27179.53132.78379.46784.45607-.05657.91135-.11969,1.367-.17952a.66169.66169,0,0,1,.75931.64988.62252.62252,0,0,1-.19127.87231c-1.01543.68106-2.3971,1.35146-3.53331.44241A4.79587,4.79587,0,0,1,89.66226,36.27L88.641,33.90536c-.48089-1.1134-1.57647-2.72506-1.25027-3.98988A1.418,1.418,0,0,1,88.46014,28.894Z"/>
        <path class="cls-2" d="M101.49917,33.195c1.89332-.19864,3.73471-.54083,5.5988-.92331a34.63253,34.63253,0,0,0,3.68648-.86381c1.19377-.38359,2.37672-.80209,3.58294-1.146.90159-.25707,3.72286-1.339,4.30138-.16789.34967.70823-.369,1.57-.7894,2.073-.62284.74524-1.27606,1.50274-1.94347,2.19953a33.63012,33.63012,0,0,1-6.73673,5.42594,20.37015,20.37015,0,0,1-6.28652,2.6709q-.38544.08229-.776.14319a.576.576,0,0,1-.32591-.01392.59123.59123,0,0,1-.26073-.39274,64.35554,64.35554,0,0,1-1.91725-7.63643,1.50255,1.50255,0,0,1,.042-.98382C99.93194,33.10032,101.03676,33.24349,101.49917,33.195Z"/>
        <g>
          <path class="cls-2" d="M88.75956,29.07693a.59148.59148,0,0,0-.46523.806l2.39385,6.91693a.67823.67823,0,0,0,.7197.461l3.0401-.44125,2.24575,6.57413-.00009.00008c-.07213-.09811-1.00547-.1055-1.32933-.23494a5.83389,5.83389,0,0,0-1.70215-.36646c-3.96259-.39586-8.172-.51749-11.54991,1.93813-5.433,3.94957-10.772,8.04279-16.11217,12.1165-5.41731,4.13253-10.791,8.32336-16.06869,12.63325q-.1584.12936-.31664.25883c-2.60989,2.13522-5.19637,4.2988-7.78958,6.45417q-2.02254,1.681-4.05455,3.3508c-1.45782,1.19471-2.36107,2.44368-4.41835,1.80163a10.76616,10.76616,0,0,1-4.87627-3.3583,9.80077,9.80077,0,0,1-1.97052-4.17408c-.35179-1.65418-.98981-3.71244.71048-4.79423.746-.47465,1.48319-.94672,2.19584-1.47179C40.38487,60.09092,51.55266,52.665,62.36664,44.89341q1.1498-.82634,2.30146-1.65006c2.84012-2.02841,7.55763-5.66526,10.33111-7.78712,5.4036-4.134,6.032-7.187,9.14327-12.20663,1.25618-2.02669,2.43025-4.10355,3.5488-6.2093l3.98784,11.67385Z"/>
          <path class="cls-2" d="M97.177,11.42973c4.088-.77237,14.14338,4.23867,16.78953,5.34306a1.91394,1.91394,0,0,1,.92361,3.18793c-.474.07138-.9472.1485-1.42013.22662q-1.91937.317-3.83009.6842-1.39611.26984-2.78821.5599c-.46408.0961-.929.18956-1.39188.2912-.37023.08129-.70967.27135-1.07636.38482-.40814.12631-.81684.25281-1.21265.4136a7.71837,7.71837,0,0,0-2.18562,1.28328c-.21485.192-.54777.69114-.43034,1.01772.01389.03862,6.44216,17.91771,6.44216,17.91771a.33014.33014,0,0,1-.30366.44173l-9.99968.21227c.0014-.00053.46161-.35623.34843-1.616a18.05578,18.05578,0,0,0-.45041-2.55569c-.209-.8785-.46361-1.74439-.7251-2.60832l2.52983-.36719a1.22321,1.22321,0,0,0,.91726-1.70162L97.024,28.57785a.67812.67812,0,0,0-.6998-.44091l-2.9495.36651Q91.19491,22.00153,88.375,15.73862q-.33805.65276-.68375,1.30168l-.17946-.52533C89.10236,14.52866,93.08906,12.2021,97.177,11.42973Z"/>
          <path class="cls-2" d="M95.86665,36.61375c.26149.86393.51609,1.72982.7251,2.60832a18.05578,18.05578,0,0,1,.45041,2.55569c.11318,1.25978-.347,1.61548-.34843,1.616L94.448,36.81964Z"/>
          <path class="cls-2" d="M93.37472,28.50345l-1.6956.2107L87.69128,17.0403q.34489-.6493.68375-1.30168Q91.19116,21.99094,93.37472,28.50345Z"/>
        </g>
        <g>
          <path class="cls-2" d="M66.91754,56.798l-.29332.22377c-5.77043,4.4019-11.49444,8.86593-17.11612,13.45675q-.16869.13777-.33727.27569c-2.78,2.27441-5.53508,4.579-8.29733,6.87488q-2.15436,1.79061-4.31883,3.56921c-1.55285,1.27258-2.515,2.603-4.70638,1.91907a11.46764,11.46764,0,0,1-5.1941-3.57721,10.44,10.44,0,0,1-2.099-4.44615c-.3747-1.762-1.05428-3.95443.75682-5.10675.79463-.50558,1.57988-1.00842,2.339-1.56772,10.41734-7.0788,21.4477-14.47056,31.78085-21.7814Z"/>
          <circle class="cls-2" cx="32.16261" cy="74.901" r="2.91787" transform="translate(-45.19075 49.1901) rotate(-48.37534)"/>
        </g>
        <path class="cls-2" d="M66.16812,52.2094l-2.27983-3.09426a1.30259,1.30259,0,0,1,.27543-1.82219C67.87151,44.562,80.173,35.45567,80.92942,34.29363c.6688-1.02748,1.38041-2.02841,2.08427-3.032.40268-.57414,1.72322-3.19643,2.35284-3.37514,1.41452-.4015,2.08268,3.52911,2.39836,4.44776.62634,1.82272,1.22852,3.65386,1.821,5.48826a.91379.91379,0,0,1-.82346,1.19367,10.90216,10.90216,0,0,0-5.0962,1.38685c-2.07093,1.33749-12.30059,9.41168-15.64037,12.0559A1.3026,1.3026,0,0,1,66.16812,52.2094Z"/>
        <path class="cls-2" d="M30.39484,72.46377a3.10427,3.10427,0,1,1-.65781,4.34061A3.10784,3.10784,0,0,1,30.39484,72.46377Zm.19446.26394a2.77644,2.77644,0,1,0,3.88221.58833A2.77965,2.77965,0,0,0,30.5893,72.72771Z"/>
      </g>
      <g class="cls-3">
        <g>
          <path class="cls-4" d="M45.2-64.962H167.92137a78.302,78.302,0,0,1,78.302,78.302v.00016a78.302,78.302,0,0,1-78.302,78.302H45.2a78.302,78.302,0,0,1-78.302-78.302V13.34A78.302,78.302,0,0,1,45.2-64.962Z"/>
          <path class="cls-5" d="M37.57494,12.775c1.303-2.4391,2.84145-4.50631,4.33811-4.33811,2.02853.228,2.598,4.40708,4.41025,4.41025,1.87025.00327,2.57161-4.44537,4.44538-4.44538,1.87422,0,2.57833,4.45081,4.44551,4.44552C57.07552,12.84205,57.78947,8.415,59.624,8.4375c1.752.02145,2.3421,4.07349,4.09415,4.09414,1.82583.02152,2.518-4.36221,4.38042-4.38042,1.94129-.019,2.8778,4.72736,4.61707,4.61707.9576-.06073,1.64624-1.56123,2.07259-2.78962"/>
          <path class="cls-6" d="M119.845,65.14459c0,.75247-.03082,1.49878-.09251,2.2348a26.9067,26.9067,0,0,1-21.95738,24.223c-.13979.02467-.28164.04934-.42147.072a27.01856,27.01856,0,0,1-4.42026.36185H7.20037a26.77015,26.77015,0,0,1-14.36274-4.153A26.9829,26.9829,0,0,1-17.67848,75.36875a26.79721,26.79721,0,0,1-2.01275-10.22416.45791.45791,0,0,1,.12335-.3125l.01028-.01234a.457.457,0,0,1,.32278-.13364H119.38649a.45774.45774,0,0,1,.45847.45848Z"/>
          <rect class="cls-7" x="20.70591" y="71.98628" width="23.43007" height="14.7002"/>
          <path class="cls-8" d="M97.89256,77.1506V91.41672c-.13978.02467-.28163.04934-.42147.072a27.01967,27.01967,0,0,1-4.42026.36184H74.46316V77.1506Z"/>
          <path class="cls-9" d="M117.02715,77.1506A26.95489,26.95489,0,0,1,97.89256,91.41672c-.13978.02467-.28163.04934-.42147.072V77.1506Z"/>
          <rect class="cls-7" x="90.92576" y="67.1936" width="15.86964" height="9.95673"/>
          <path class="cls-10" d="M119.84994,67.19371a26.72031,26.72031,0,0,1-2.82279,9.95689H106.83176V67.19371Z"/>
          <path class="cls-11" d="M52.87107,53.39121c.24218-1.92761.458-3.46475.5173-3.87828Z"/>
          <circle class="cls-12" cx="89.31708" cy="-1.60832" r="10.30443"/>
          <circle class="cls-12" cx="89.31708" cy="-1.18224" r="4.2536"/>
          <g>
            <g>
              <polygon class="cls-13" points="58.103 36.61 61.053 37.443 63.415 36.107 63.952 36.454 63.54 37.127 65.817 36.569 67.523 37.38 67.937 39.836 66.69 42.109 64.168 42.277 61.484 40.971 57.394 40.004 58.103 36.61"/>
              <path class="cls-14" d="M60.63029,36.46039,41.47871,31.7666a9.0967,9.0967,0,0,1-2.02389-1.24184Q37.4132,29.272,35.37157,28.01931c-.93084-.57116-2.56388-2.03439-3.693-2.03385-1.83958.00084-2.81273,2.74575-2.82607,4.219-.04094,4.52163,4.18317,6.45963,7.33208,8.88434l3.03729,1.57177,21.2645.42435Z"/>
            </g>
            <g>
              <path class="cls-13" d="M38.85345,11.61648c-2.7471.91646-5.678-1.08868-8.32831.23608-1.7232.86135-2.89514,3.03026-3.17712,5.22022a5.96,5.96,0,0,0,.27938,2.98078,4.536,4.536,0,0,0,1.0169,1.475,5.47253,5.47253,0,0,0,1.87587,1.22716,14.88586,14.88586,0,0,1-.95747,2.11758q2.02893.38158,4.05789.7632l.52541-2.76461a5.70039,5.70039,0,0,0,1.11953-.48152,8.624,8.624,0,0,0,3.94366-6.85085A17.34665,17.34665,0,0,0,38.85345,11.61648Z"/>
              <path class="cls-15" d="M24.94711,17.48575c-.11629-.19786-.22768-.39864-.32808-.60585-1.2177-2.51316-1.87105-5.46393-.06975-7.88624A8.5178,8.5178,0,0,1,33.013,6.1791c1.58238.403,3.255.94479,4.80642.43537a2.16212,2.16212,0,0,0,1.17714-.82313c.244-.38146.30683-.85844.55884-1.23469a1.5119,1.5119,0,0,1,2.544.32925,5.13637,5.13637,0,0,0,.26119.89131c.33919.59886,1.1668.62488,1.8492.71455a.88654.88654,0,0,1,.594.2537c.25378.31224.01209.80485-.33713,1.00479-.48205.276-1.32305.19863-1.62794.7394-.22049.39107.117,1.14091.06046,1.59233a4.75324,4.75324,0,0,1-3.00281,3.55411c-1.38041.5155-2.61635-.04418-3.99526-.39724a12.43172,12.43172,0,0,0-1.18905-.397,4.11125,4.11125,0,0,0-1.418.27178,5.89072,5.89072,0,0,1-1.7603.00749,3.78786,3.78786,0,0,0-1.744.15439,1.46588,1.46588,0,0,0-.975,1.33859c.04007.71225.75738,1.26656.74388,1.9798-.01169.61851-.56152,1.08007-.79677,1.65221-.1821.44292-.18727.979-.51929,1.32417-.1474.15324-.3469.25205-.48082.41719-.17514.216-.229.53314-.46249.684a.66406.66406,0,0,1-.82131-.1996,2.45778,2.45778,0,0,1-.37928-.83543A11.78509,11.78509,0,0,0,24.94711,17.48575Z"/>
            </g>
            <g>
              <path class="cls-14" d="M29.70643,24.70089a2.74863,2.74863,0,0,0-1.60383.158,2.57015,2.57015,0,0,0-.91737,1.099,63.48617,63.48617,0,0,0-7.49206,36.56322,110.71164,110.71164,0,0,1,22.04645-1.723q-1.00935-7.317-2.01867-14.63388c-.49632-3.59807-.9937-7.20188-1.81856-10.74233a59.67209,59.67209,0,0,0-2.90894-9.10572C34.22723,24.44953,31.437,24.87759,29.70643,24.70089Z"/>
              <g>
                <polygon class="cls-6" points="19.029 60.316 21.751 53.731 31.231 50.586 29.423 38.58 38.881 37.049 40.518 53.943 42.837 60.859 19.981 65.034 19.029 60.316"/>
                <path class="cls-6" d="M29.93419,33.34158c.01539-1.85668-.08066-3.97029-1.49828-5.16937a1.78922,1.78922,0,0,0-1.1295-.47864c-.85324.00486-1.43253.839-1.85817,1.57854a4.53149,4.53149,0,0,1,.42544-3.22693,2.93911,2.93911,0,0,1,3.81844-.55557,5.12282,5.12282,0,0,1,2.14458,3.51852,23.18585,23.18585,0,0,1,.15229,4.23579,58.4757,58.4757,0,0,0,.43054,6.17233,21.71921,21.71921,0,0,0-2.4373.14854C29.49062,37.75165,29.91836,35.25167,29.93419,33.34158Z"/>
                <path class="cls-6" d="M36.32581,31.41969c-.20564-1.78844-.63813-3.762-2.12358-4.77893-.36824-.25212-.84386-.5289-.82122-.9746a.80458.80458,0,0,1,.43666-.611,1.91778,1.91778,0,0,1,2.32491.61221,5.31089,5.31089,0,0,1,.91613,2.42176A68.42075,68.42075,0,0,1,38.243,38.42716c.01975.52108-1.25079.23034-1.46432-.00479-.34956-.38492-.15467-1.28941-.15677-1.75222A47.82437,47.82437,0,0,0,36.32581,31.41969Z"/>
              </g>
            </g>
            <g>
              <g>
                <path class="cls-16" d="M87.95754,27.75172h7.22764a1.49158,1.49158,0,0,1,1.49158,1.49158v.90923a1.49158,1.49158,0,0,1-1.49158,1.49158H87.95754A1.49159,1.49159,0,0,1,86.466,30.15252v-.90921A1.49159,1.49159,0,0,1,87.95754,27.75172Z" transform="translate(92.79276 125.95688) rotate(-108.6956)"/>
                <path class="cls-17" d="M89.87726,31.49943q2.46834-.04383,4.937-.0383c.466.001.51216.72824.04171.72718q-2.46874-.00552-4.937.03832C89.45216,32.23492,89.40681,31.50779,89.87726,31.49943Z"/>
                <path class="cls-17" d="M89.14362,29.33143q2.46834-.04383,4.937-.0383c.466.001.51216.72824.04171.72718q-2.46875-.00552-4.937.03832C88.71852,30.06692,88.67317,29.33979,89.14362,29.33143Z"/>
                <path class="cls-17" d="M88.71728,27.36159q2.46834-.04383,4.937-.0383c.466.001.51216.72824.04171.7272q-2.46874-.00555-4.937.0383C88.29218,28.09708,88.24683,27.37,88.71728,27.36159Z"/>
              </g>
              <path class="cls-18" d="M89.123,25.50125q1.37859-.194,2.76412-.349c.68109-.075,1.7071-.38309,2.38009-.02166.6429.34533.97216,1.32332,1.26833,1.94721a22.3,22.3,0,0,1,1.05986,2.6592,23.30935,23.30935,0,0,1,.6504,2.474c.13566.65268.24182,1.30213-.302,1.7488-1.18.9693-3.27988.83917-4.741.81938-.8701-.0118-1.00466-1.40384-.128-1.392a11.01575,11.01575,0,0,0,3.56637-.35234c.43147-.13887.37744-.15228.28433-.62268-.07-.35358-.15488-.70541-.24672-1.055q-.24147-.91931-.56316-1.819-.32176-.898-.71966-1.76884a8.1396,8.1396,0,0,0-.47842-.97407c-.25838-.40272-.26441-.3562-.66917-.37818a11.34841,11.34841,0,0,0-1.8488.197q-1.07673.1263-2.14854.279C88.3947,27.01368,88.271,25.62112,89.123,25.50125Z"/>
              <path class="cls-16" d="M85.91056,26.36037c.65058-.18409,1.31268-.27135,1.96162-.46247.10064-.034.2011-.06645.30041-.0966.85954-.26111,1.3837,1.02856.51855,1.33506q-.33552.11889-.67492.21972c-.52725.204-.98847.51507-.95994,1.16389a8.29324,8.29324,0,0,0,.69539,2.55486,11.69168,11.69168,0,0,0,1.27088,2.365c.30434.43631.27179.53132.7838.46783.45606-.05656.91134-.11969,1.36694-.17952a.6617.6617,0,0,1,.75931.64989.6225.6225,0,0,1-.19127.8723c-1.01542.68106-2.3971,1.35147-3.53331.44242a4.796,4.796,0,0,1-1.09534-1.95635L86.0914,31.3717c-.48089-1.11339-1.57647-2.72506-1.25026-3.98987A1.41794,1.41794,0,0,1,85.91056,26.36037Z"/>
              <path class="cls-18" d="M98.9496,30.66131c1.89331-.19864,3.73471-.54083,5.5988-.92331a34.63532,34.63532,0,0,0,3.68647-.8638c1.19378-.38359,2.37672-.80209,3.58295-1.146.90158-.25707,3.72285-1.339,4.30137-.1679.34967.70824-.369,1.57-.7894,2.073-.62284.74525-1.27606,1.50274-1.94347,2.19954a33.63054,33.63054,0,0,1-6.73673,5.42594,20.37039,20.37039,0,0,1-6.28652,2.6709q-.38544.08229-.77595.14319a.5762.5762,0,0,1-.32592-.01392.59128.59128,0,0,1-.26073-.39274,64.35614,64.35614,0,0,1-1.91724-7.63644,1.50249,1.50249,0,0,1,.042-.98382C97.38236,30.56667,98.48718,30.70984,98.9496,30.66131Z"/>
              <g>
                <path class="cls-6" d="M86.21,26.54328a.59147.59147,0,0,0-.46523.806l2.39385,6.91694a.67823.67823,0,0,0,.7197.461l3.04011-.44124,2.24574,6.57413-.00009.00007c-.07213-.09811-1.00547-.1055-1.32932-.23493a5.83363,5.83363,0,0,0-1.70216-.36646c-3.96259-.39586-8.172-.51749-11.54991,1.93813-5.43295,3.94956-10.772,8.04279-16.11217,12.11649-5.41731,4.13253-10.791,8.32336-16.06868,12.63326q-.15841.12935-.31665.25882c-2.60989,2.13523-5.19637,4.29881-7.78958,6.45418q-2.02254,1.681-4.05455,3.35079c-1.45782,1.19471-2.36107,2.44369-4.41835,1.80163a10.76614,10.76614,0,0,1-4.87627-3.35829,9.80094,9.80094,0,0,1-1.97052-4.17408c-.35179-1.65418-.98981-3.71245.71048-4.79423.746-.47465,1.48319-.94672,2.19584-1.4718,10.97307-7.45643,22.14086-14.88235,32.95484-22.65394q1.14981-.82634,2.30146-1.65006c2.84013-2.02841,7.55763-5.66527,10.33111-7.78712,5.40361-4.134,6.032-7.187,9.14327-12.20663,1.25619-2.02669,2.43025-4.10356,3.54881-6.20931L89.12954,26.1805Z"/>
                <path class="cls-19" d="M94.62747,8.89608c4.088-.77237,14.14339,4.23867,16.78953,5.34306a1.91394,1.91394,0,0,1,.92362,3.18792c-.474.07138-.94721.1485-1.42014.22663q-1.91937.317-3.83009.6842-1.39611.26983-2.78821.55989c-.46408.0961-.929.18957-1.39188.29121-.37022.08128-.70967.27135-1.07636.38481-.40813.12631-.81684.25282-1.21265.41361a7.71792,7.71792,0,0,0-2.18561,1.28327c-.21486.192-.54778.69114-.43035,1.01772l6.44216,17.91771a.33014.33014,0,0,1-.30366.44174l-9.99968.21227c.0014-.00054.46161-.35624.34843-1.616a18.05474,18.05474,0,0,0-.45041-2.5557c-.209-.8785-.4636-1.74438-.7251-2.60831l2.52983-.3672a1.2232,1.2232,0,0,0,.91726-1.70161l-2.28971-5.9671a.67814.67814,0,0,0-.69981-.4409l-2.9495.36651Q88.64533,19.46789,85.82546,13.205q-.33806.65275-.68375,1.30168l-.17947-.52532C86.55278,11.995,90.53948,9.66844,94.62747,8.89608Z"/>
                <path class="cls-19" d="M93.31707,34.0801c.2615.86393.51609,1.72981.7251,2.60831a18.05474,18.05474,0,0,1,.45041,2.5557c.11318,1.25977-.347,1.61547-.34843,1.616L91.89841,34.286Z"/>
                <path class="cls-19" d="M90.82514,25.9698l-1.6956.2107L85.14171,14.50664q.34488-.64931.68375-1.30168Q88.64159,19.45727,90.82514,25.9698Z"/>
              </g>
              <g>
                <path class="cls-20" d="M64.368,54.26434l-.29332.22378C58.30422,58.89,52.5802,63.354,46.95853,67.94486q-.16871.13777-.33728.27569c-2.78,2.27442-5.53508,4.579-8.29733,6.87489q-2.15436,1.79061-4.31883,3.5692c-1.55284,1.27259-2.515,2.603-4.70638,1.91908a11.46767,11.46767,0,0,1-5.19409-3.57721,10.44016,10.44016,0,0,1-2.099-4.44616c-.37469-1.762-1.05428-3.95443.75682-5.10675.79463-.50558,1.57988-1.00841,2.339-1.56772,10.41734-7.07879,21.4477-14.47056,31.78085-21.7814Z"/>
                <circle class="cls-21" cx="29.61303" cy="72.36734" r="2.91787" transform="translate(-44.15285 46.4336) rotate(-48.37535)"/>
              </g>
              <path class="cls-10" d="M63.61854,49.67575l-2.27983-3.09427a1.30258,1.30258,0,0,1,.27544-1.82218C65.32193,42.02837,77.62342,32.922,78.37984,31.76c.66881-1.02748,1.38041-2.02842,2.08427-3.032.40268-.57415,1.72322-3.19643,2.35285-3.37514,1.41451-.4015,2.08268,3.52911,2.39835,4.44775.62634,1.82272,1.22853,3.65386,1.821,5.48826a.91379.91379,0,0,1-.82346,1.19367,10.90218,10.90218,0,0,0-5.0962,1.38686C79.0457,39.20689,68.816,47.28107,65.47626,49.9253A1.30262,1.30262,0,0,1,63.61854,49.67575Z"/>
              <path class="cls-17" d="M27.84526,69.93012a3.10427,3.10427,0,1,1-.65781,4.3406A3.10783,3.10783,0,0,1,27.84526,69.93012Zm.19446.26393a2.77645,2.77645,0,1,0,3.88221.58834A2.77965,2.77965,0,0,0,28.03972,70.19405Z"/>
            </g>
            <g>
              <polygon class="cls-13" points="46.501 53.771 49.233 55.974 52.319 55.63 52.728 56.237 51.992 56.76 54.64 57.196 56.071 58.817 55.403 61.588 53.067 63.421 50.338 62.464 48.1 59.882 44.229 57.025 46.501 53.771"/>
              <path class="cls-14" d="M29.869,31.46051c.7674,1.48076,3.4248,5.66314,4.1922,7.14393a9.49925,9.49925,0,0,0,1.14113,2.20186L49.80466,55.32864,47.18307,59.388,29.85118,48.46723a10.33815,10.33815,0,0,1-1.80354-1.72059"/>
            </g>
          </g>
          <path class="cls-11" d="M35.17066,18.191s.86259,1.43765,0,1.67726"/>
          <ellipse cx="32.32258" cy="17.0016" rx="0.45249" ry="0.88655"/>
          <ellipse cx="36.66342" cy="16.5703" rx="0.45249" ry="0.88655"/>
          <path class="cls-11" d="M33.92519,21.81773s-.47922.67091-.76675,0"/>
          <ellipse class="cls-22" cx="32.34377" cy="19.49353" rx="0.69487" ry="0.23961"/>
          <path class="cls-11" d="M20.221,46.23418s7.21414,2.10114,5.48624,6.18413"/>
          <path class="cls-11" d="M21.751,53.73062S19.07126,53.25,19.9222,48.26908s1.99659-9.55061,1.99659-9.55061,11.24263,1.45379,9.592,10.79446"/>
          <path class="cls-11" d="M23.92055,53.011S20.1375,39.43142,30.933,33.318"/>
          <path class="cls-11" d="M37.57355,43.16449S35.90819,50.4041,29.613,48.31717c0,0-8.444-7.86961-7.03121-11.74107"/>
          <path class="cls-11" d="M25.13025,30.0587S42.70419,46.73148,36.12176,52.41831"/>
          <path class="cls-11" d="M33.92519,51.03426s6.23857-4.46154,15.30739,4.94"/>
          <path class="cls-11" d="M45.4469,58.29407s-6.26609-4.70221-1.67767-8.96782"/>
          <path class="cls-11" d="M53.38837,40.86012s-4.86665-4.771-3.13062-6.9419"/>
          <path class="cls-11" d="M56.507,35.44981s1.6882,5.46793-1.19936,5.53179"/>
          <path class="cls-11" d="M50.07686,40.87722s-7.01285-3.97319-4.15219-8.021"/>
          <path class="cls-11" d="M52.68218,34.51241S49.54586,40.7513,39.22183,40.6606"/>
          <path class="cls-11" d="M34.45575,37.7654s-2.482-3.288-2.46676-4.52148"/>
          <path class="cls-11" d="M31.8367,29.00813s4.43955,1.33346,4.5797,3.29179"/>
          <path class="cls-11" d="M37.93854,34.0801s3.70461,4.54076,3.64035,6.47758"/>
          <path class="cls-11" d="M32.00646,31.8436s3.146-3.39466,4.02825-2.14568"/>
          <path class="cls-11" d="M37.4079,30.0587s14.19747,6.26763,14.17744,10.84862"/>
        </g>
      </g>
      <path class="cls-11" d="M23.92055,53.011S20.1375,39.43142,30.933,33.318"/>
      <g>
        <g>
          <path class="cls-16" d="M87.95754,27.75172h7.22764a1.49158,1.49158,0,0,1,1.49158,1.49158v.90923a1.49158,1.49158,0,0,1-1.49158,1.49158H87.95754A1.49159,1.49159,0,0,1,86.466,30.15252v-.90921A1.49159,1.49159,0,0,1,87.95754,27.75172Z" transform="translate(92.79276 125.95688) rotate(-108.6956)"/>
          <path class="cls-17" d="M89.87726,31.49943q2.46834-.04383,4.937-.0383c.466.001.51216.72824.04171.72718q-2.46874-.00552-4.937.03832C89.45216,32.23492,89.40681,31.50779,89.87726,31.49943Z"/>
          <path class="cls-17" d="M89.14362,29.33143q2.46834-.04383,4.937-.0383c.466.001.51216.72824.04171.72718q-2.46875-.00552-4.937.03832C88.71852,30.06692,88.67317,29.33979,89.14362,29.33143Z"/>
          <path class="cls-17" d="M88.71728,27.36159q2.46834-.04383,4.937-.0383c.466.001.51216.72824.04171.7272q-2.46874-.00555-4.937.0383C88.29218,28.09708,88.24683,27.37,88.71728,27.36159Z"/>
        </g>
        <path class="cls-18" d="M89.123,25.50125q1.37859-.194,2.76412-.349c.68109-.075,1.7071-.38309,2.38009-.02166.6429.34533.97216,1.32332,1.26833,1.94721a22.3,22.3,0,0,1,1.05986,2.6592,23.30935,23.30935,0,0,1,.6504,2.474c.13566.65268.24182,1.30213-.302,1.7488-1.18.9693-3.27988.83917-4.741.81938-.8701-.0118-1.00466-1.40384-.128-1.392a11.01575,11.01575,0,0,0,3.56637-.35234c.43147-.13887.37744-.15228.28433-.62268-.07-.35358-.15488-.70541-.24672-1.055q-.24147-.91931-.56316-1.819-.32176-.898-.71966-1.76884a8.1396,8.1396,0,0,0-.47842-.97407c-.25838-.40272-.26441-.3562-.66917-.37818a11.34841,11.34841,0,0,0-1.8488.197q-1.07673.1263-2.14854.279C88.3947,27.01368,88.271,25.62112,89.123,25.50125Z"/>
        <path class="cls-16" d="M85.91056,26.36037c.65058-.18409,1.31268-.27135,1.96162-.46247.10064-.034.2011-.06645.30041-.0966.85954-.26111,1.3837,1.02856.51855,1.33506q-.33552.11889-.67492.21972c-.52725.204-.98847.51507-.95994,1.16389a8.29324,8.29324,0,0,0,.69539,2.55486,11.69168,11.69168,0,0,0,1.27088,2.365c.30434.43631.27179.53132.7838.46783.45606-.05656.91134-.11969,1.36694-.17952a.6617.6617,0,0,1,.75931.64989.6225.6225,0,0,1-.19127.8723c-1.01542.68106-2.3971,1.35147-3.53331.44242a4.796,4.796,0,0,1-1.09534-1.95635L86.0914,31.3717c-.48089-1.11339-1.57647-2.72506-1.25026-3.98987A1.41794,1.41794,0,0,1,85.91056,26.36037Z"/>
        <path class="cls-18" d="M98.9496,30.66131c1.89331-.19864,3.73471-.54083,5.5988-.92331a34.63532,34.63532,0,0,0,3.68647-.8638c1.19378-.38359,2.37672-.80209,3.58295-1.146.90158-.25707,3.72285-1.339,4.30137-.1679.34967.70824-.369,1.57-.7894,2.073-.62284.74525-1.27606,1.50274-1.94347,2.19954a33.63054,33.63054,0,0,1-6.73673,5.42594,20.37039,20.37039,0,0,1-6.28652,2.6709q-.38544.08229-.77595.14319a.5762.5762,0,0,1-.32592-.01392.59128.59128,0,0,1-.26073-.39274,64.35614,64.35614,0,0,1-1.91724-7.63644,1.50249,1.50249,0,0,1,.042-.98382C97.38236,30.56667,98.48718,30.70984,98.9496,30.66131Z"/>
        <g>
          <path class="cls-6" d="M86.21,26.54328a.59147.59147,0,0,0-.46523.806l2.39385,6.91694a.67823.67823,0,0,0,.7197.461l3.04011-.44124,2.24574,6.57413-.00009.00007c-.07213-.09811-1.00547-.1055-1.32932-.23493a5.83363,5.83363,0,0,0-1.70216-.36646c-3.96259-.39586-8.172-.51749-11.54991,1.93813-5.43295,3.94956-10.772,8.04279-16.11217,12.11649-5.41731,4.13253-10.791,8.32336-16.06868,12.63326q-.15841.12935-.31665.25882c-2.60989,2.13523-5.19637,4.29881-7.78958,6.45418q-2.02254,1.681-4.05455,3.35079c-1.45782,1.19471-2.36107,2.44369-4.41835,1.80163a10.76614,10.76614,0,0,1-4.87627-3.35829,9.80094,9.80094,0,0,1-1.97052-4.17408c-.35179-1.65418-.98981-3.71245.71048-4.79423.746-.47465,1.48319-.94672,2.19584-1.4718,10.97307-7.45643,22.14086-14.88235,32.95484-22.65394q1.14981-.82634,2.30146-1.65006c2.84013-2.02841,7.55763-5.66527,10.33111-7.78712,5.40361-4.134,6.032-7.187,9.14327-12.20663,1.25619-2.02669,2.43025-4.10356,3.54881-6.20931L89.12954,26.1805Z"/>
          <path class="cls-19" d="M94.62747,8.89608c4.088-.77237,14.14339,4.23867,16.78953,5.34306a1.91394,1.91394,0,0,1,.92362,3.18792c-.474.07138-.94721.1485-1.42014.22663q-1.91937.317-3.83009.6842-1.39611.26983-2.78821.55989c-.46408.0961-.929.18957-1.39188.29121-.37022.08128-.70967.27135-1.07636.38481-.40813.12631-.81684.25282-1.21265.41361a7.71792,7.71792,0,0,0-2.18561,1.28327c-.21486.192-.54778.69114-.43035,1.01772l6.44216,17.91771a.33014.33014,0,0,1-.30366.44174l-9.99968.21227c.0014-.00054.46161-.35624.34843-1.616a18.05474,18.05474,0,0,0-.45041-2.5557c-.209-.8785-.4636-1.74438-.7251-2.60831l2.52983-.3672a1.2232,1.2232,0,0,0,.91726-1.70161l-2.28971-5.9671a.67814.67814,0,0,0-.69981-.4409l-2.9495.36651Q88.64533,19.46789,85.82546,13.205q-.33806.65275-.68375,1.30168l-.17947-.52532C86.55278,11.995,90.53948,9.66844,94.62747,8.89608Z"/>
          <path class="cls-19" d="M93.31707,34.0801c.2615.86393.51609,1.72981.7251,2.60831a18.05474,18.05474,0,0,1,.45041,2.5557c.11318,1.25977-.347,1.61547-.34843,1.616L91.89841,34.286Z"/>
          <path class="cls-19" d="M90.82514,25.9698l-1.6956.2107L85.14171,14.50664q.34488-.64931.68375-1.30168Q88.64159,19.45727,90.82514,25.9698Z"/>
        </g>
        <g>
          <path class="cls-20" d="M64.368,54.26434l-.29332.22378C58.30422,58.89,52.5802,63.354,46.95853,67.94486q-.16871.13777-.33728.27569c-2.78,2.27442-5.53508,4.579-8.29733,6.87489q-2.15436,1.79061-4.31883,3.5692c-1.55284,1.27259-2.515,2.603-4.70638,1.91908a11.46767,11.46767,0,0,1-5.19409-3.57721,10.44016,10.44016,0,0,1-2.099-4.44616c-.37469-1.762-1.05428-3.95443.75682-5.10675.79463-.50558,1.57988-1.00841,2.339-1.56772,10.41734-7.07879,21.4477-14.47056,31.78085-21.7814Z"/>
          <circle class="cls-21" cx="29.61303" cy="72.36734" r="2.91787" transform="translate(-44.15285 46.4336) rotate(-48.37535)"/>
        </g>
        <path class="cls-10" d="M63.61854,49.67575l-2.27983-3.09427a1.30258,1.30258,0,0,1,.27544-1.82218C65.32193,42.02837,77.62342,32.922,78.37984,31.76c.66881-1.02748,1.38041-2.02842,2.08427-3.032.40268-.57415,1.72322-3.19643,2.35285-3.37514,1.41451-.4015,2.08268,3.52911,2.39835,4.44775.62634,1.82272,1.22853,3.65386,1.821,5.48826a.91379.91379,0,0,1-.82346,1.19367,10.90218,10.90218,0,0,0-5.0962,1.38686C79.0457,39.20689,68.816,47.28107,65.47626,49.9253A1.30262,1.30262,0,0,1,63.61854,49.67575Z"/>
        <path class="cls-17" d="M27.84526,69.93012a3.10427,3.10427,0,1,1-.65781,4.3406A3.10783,3.10783,0,0,1,27.84526,69.93012Zm.19446.26393a2.77645,2.77645,0,1,0,3.88221.58834A2.77965,2.77965,0,0,0,28.03972,70.19405Z"/>
      </g>
      <g>
        <polygon class="cls-13" points="46.501 53.771 49.233 55.974 52.319 55.63 52.728 56.237 51.992 56.76 54.64 57.196 56.071 58.817 55.403 61.588 53.067 63.421 50.338 62.464 48.1 59.882 44.229 57.025 46.501 53.771"/>
        <path class="cls-14" d="M29.869,31.46051c.7674,1.48076,3.4248,5.66314,4.1922,7.14393a9.49925,9.49925,0,0,0,1.14113,2.20186L49.80466,55.32864,47.18307,59.388,29.85118,48.46723a10.33815,10.33815,0,0,1-1.80354-1.72059"/>
      </g>
      <path class="cls-11" d="M37.57355,43.16449S35.90819,50.4041,29.613,48.31717c0,0-8.444-7.86961-7.03121-11.74107"/>
      <path class="cls-11" d="M33.92519,51.03426s6.23857-4.46154,15.30739,4.94"/>
      <path class="cls-11" d="M25.13025,30.0587S42.70419,46.73148,36.12176,52.41831"/>
      <path class="cls-11" d="M45.4469,58.29407s-6.26609-4.70221-1.67767-8.96782"/>
      <path class="cls-11" d="M21.751,53.73062S19.07126,53.25,19.9222,48.26908s1.99659-9.55061,1.99659-9.55061,11.24263,1.45379,9.592,10.79446"/>
    </g>
  </g>
</svg>
