<svg xmlns="http://www.w3.org/2000/svg" xmlns:xlink="http://www.w3.org/1999/xlink" width="67.66981mm" height="40.40003mm" viewBox="0 0 191.81995 114.51978">
  <defs>
    <style>
      .cls-1, .cls-29 {
        fill: none;
      }

      .cls-2 {
        clip-path: url(#clip-path);
      }

      .cls-3, .cls-31 {
        fill: #e8f2fa;
      }

      .cls-4 {
        fill: #a8ccff;
      }

      .cls-30, .cls-5 {
        fill: #fff;
      }

      .cls-5 {
        opacity: 0.6;
      }

      .cls-6 {
        fill: #5c9cf4;
      }

      .cls-7 {
        fill: #dae6ff;
      }

      .cls-8 {
        fill: #c8dffd;
      }

      .cls-8, .cls-9 {
        opacity: 0.5;
      }

      .cls-9 {
        fill: #7798f8;
      }

      .cls-10 {
        opacity: 0.3;
      }

      .cls-11 {
        fill: #b8d0fc;
      }

      .cls-12 {
        fill: #ff912b;
      }

      .cls-13 {
        fill: #fc7600;
      }

      .cls-14 {
        fill: #4b49f2;
      }

      .cls-15 {
        fill: #c23b35;
      }

      .cls-16 {
        fill: #ffebd8;
      }

      .cls-17 {
        fill: #448de8;
      }

      .cls-18 {
        fill: #f9d0b3;
      }

      .cls-19 {
        fill: #478be0;
      }

      .cls-20 {
        fill: #9cc3f8;
      }

      .cls-21 {
        fill: #89b4fd;
      }

      .cls-22 {
        fill: #1e3865;
      }

      .cls-23 {
        fill: #fafbef;
      }

      .cls-24 {
        fill: #25468f;
      }

      .cls-25 {
        fill: #dbdbd7;
      }

      .cls-26 {
        fill: #fddbba;
      }

      .cls-26, .cls-29 {
        stroke: #000;
        stroke-miterlimit: 10;
        stroke-width: 0.1px;
      }

      .cls-27 {
        fill: #f8caa4;
      }

      .cls-28 {
        fill: #ffae73;
      }

      .cls-31 {
        font-size: 2.77545px;
        font-family: Inter-Medium, Inter;
        font-weight: 500;
      }

      .cls-32 {
        letter-spacing: -0.00493em;
      }

      .cls-33 {
        letter-spacing: -0.00018em;
      }
    </style>
    <clipPath id="clip-path">
      <path class="cls-1" d="M164.87,68.04c-17.98,15.32983-47.79,8.07983-56.09,6.06006C81.27,67.40991,80.22009,53.74,56.74011,48.83984,30.26,43.31006,12.68005,56.74,0,58.5498V9.85986A9.86061,9.86061,0,0,1,9.86,0H174.55005C183.39,22.83984,181.93005,53.49,164.87,68.04Z"/>
    </clipPath>
  </defs>
  <title>cards</title>
  <g id="Layer_1" data-name="Layer 1">
    <g class="cls-2">
      <g>
        <path class="cls-3" d="M-31.0244,77.19l97.52526-.33308,25.996-.00513,8.61223-.002,26.04547-.00506,118.9917-.02142s27.21693-22.95681-1.85549-44.76069C214.148,9.45605,199.4913,27.867,190.22586-3.95444,166.90334-84.0535-63.682-37.434-3.20124,30.72713,18.57586,55.26977-46.06773,42.22508-31.0244,77.19Z"/>
        <path class="cls-4" d="M1.42338,68.62843,34.258,68.51629l8.75228-.00173,2.89955-.00068,8.769-.0017L94.74076,68.505s9.16336-7.72906-.6247-15.07c-10.14841-7.61115-15.083-1.41259-18.20248-12.12617C68.06139,14.34121-9.57175,30.037,10.79084,52.98538,18.12272,61.24836-3.64139,56.85649,1.42338,68.62843Z"/>
        <g>
          <path class="cls-5" d="M57.30512,3.4114h54.27223a2.41588,2.41588,0,0,1,2.41588,2.41588V51.37873a2.41585,2.41585,0,0,1-2.41585,2.41585H57.30512a2.41585,2.41585,0,0,1-2.41585-2.41585V5.82725A2.41585,2.41585,0,0,1,57.30512,3.4114Z"/>
          <path class="cls-6" d="M56.69282,3.4114h55.49687a1.80355,1.80355,0,0,1,1.80355,1.80355V9.00209a0,0,0,0,1,0,0h-59.104a0,0,0,0,1,0,0V5.21495A1.80355,1.80355,0,0,1,56.69282,3.4114Z"/>
          <g>
            <path class="cls-7" d="M57.27939,6.17312a.6684.6684,0,1,1,.66841.66838A.66843.66843,0,0,1,57.27939,6.17312Z"/>
            <path class="cls-7" d="M60.08481,6.17312a.6684.6684,0,1,1,.66841.66838A.66841.66841,0,0,1,60.08481,6.17312Z"/>
            <path class="cls-7" d="M62.89021,6.17312a.6684.6684,0,1,1,.66841.66838A.66841.66841,0,0,1,62.89021,6.17312Z"/>
          </g>
          <rect class="cls-8" x="59.57321" y="13.43822" width="16.75403" height="16.75403"/>
          <path class="cls-9" d="M94.2092,14.68705H80.88277a.63319.63319,0,0,1-.63318-.63318h0a.63319.63319,0,0,1,.63318-.63317H94.2092a.63317.63317,0,0,1,.63315.63317h0A.63316.63316,0,0,1,94.2092,14.68705Z"/>
          <path class="cls-9" d="M110.14525,13.8378H96.81882a.6332.6332,0,0,1-.6332-.63317h0a.6332.6332,0,0,1,.6332-.63317h13.32643a.63315.63315,0,0,1,.63315.63317h0A.63315.63315,0,0,1,110.14525,13.8378Z"/>
          <g class="cls-10">
            <path class="cls-11" d="M96.84716,19.56128H80.66a.41038.41038,0,0,1-.41039-.41038h0a.41039.41039,0,0,1,.41039-.41038H96.84716a.41038.41038,0,0,1,.4104.41038h0A.41037.41037,0,0,1,96.84716,19.56128Z"/>
            <path class="cls-11" d="M103.00085,19.56128h-4.273a.41039.41039,0,0,1-.4104-.41038h0a.41041.41041,0,0,1,.4104-.41038h4.273a.41037.41037,0,0,1,.41035.41038h0A.41036.41036,0,0,1,103.00085,19.56128Z"/>
            <path class="cls-11" d="M86.76758,22.10654H80.66a.4104.4104,0,0,1-.41039-.41041h0a.41039.41039,0,0,1,.41039-.41037h6.1076a.41039.41039,0,0,1,.41041.41037h0A.4104.4104,0,0,1,86.76758,22.10654Z"/>
            <path class="cls-11" d="M96.66014,22.10654h-8.369a.41039.41039,0,0,1-.41037-.41041h0a.41038.41038,0,0,1,.41037-.41037h8.369a.41036.41036,0,0,1,.41035.41037h0A.41037.41037,0,0,1,96.66014,22.10654Z"/>
            <path class="cls-11" d="M103.00085,22.10654h-4.273a.41041.41041,0,0,1-.4104-.41041h0a.4104.4104,0,0,1,.4104-.41037h4.273a.41037.41037,0,0,1,.41035.41037h0A.41038.41038,0,0,1,103.00085,22.10654Z"/>
            <path class="cls-11" d="M88.94736,24.3073H80.66a.41038.41038,0,0,1-.41039-.41037h0a.4104.4104,0,0,1,.41039-.41041h8.28738a.41038.41038,0,0,1,.41038.41041h0A.41037.41037,0,0,1,88.94736,24.3073Z"/>
            <path class="cls-11" d="M104.7728,24.3073H91.21872a.41037.41037,0,0,1-.41038-.41037h0a.41038.41038,0,0,1,.41038-.41041H104.7728a.41038.41038,0,0,1,.41036.41041h0A.41036.41036,0,0,1,104.7728,24.3073Z"/>
          </g>
          <g class="cls-10">
            <path class="cls-11" d="M96.84716,27.647H80.66a.41037.41037,0,0,1-.41039-.41038h0a.41039.41039,0,0,1,.41039-.41038H96.84716a.41038.41038,0,0,1,.4104.41038h0A.41036.41036,0,0,1,96.84716,27.647Z"/>
            <path class="cls-11" d="M103.00085,27.647h-4.273a.41039.41039,0,0,1-.4104-.41038h0a.41041.41041,0,0,1,.4104-.41038h4.273a.41037.41037,0,0,1,.41035.41038h0A.41035.41035,0,0,1,103.00085,27.647Z"/>
            <path class="cls-11" d="M86.76758,30.19224H80.66a.41039.41039,0,0,1-.41039-.4104h0a.41039.41039,0,0,1,.41039-.41038h6.1076a.41039.41039,0,0,1,.41041.41038h0A.4104.4104,0,0,1,86.76758,30.19224Z"/>
            <path class="cls-11" d="M96.66014,30.19224h-8.369a.41039.41039,0,0,1-.41037-.4104h0a.41039.41039,0,0,1,.41037-.41038h8.369a.41036.41036,0,0,1,.41035.41038h0A.41037.41037,0,0,1,96.66014,30.19224Z"/>
          </g>
          <path class="cls-11" d="M67.08512,15.93565h1.73027L73.49,26.63586H71.517l-1.07763-2.565H65.41559l-1.09281,2.565H62.41042Zm2.67127,6.48081-1.83652-4.24969-1.82129,4.24969Z"/>
          <g>
            <rect class="cls-12" x="59.57321" y="33.56703" width="9.35906" height="1.8068"/>
            <rect class="cls-13" x="59.57321" y="35.37383" width="9.35906" height="1.8068"/>
            <rect class="cls-14" x="59.57321" y="37.18063" width="9.35906" height="1.80675"/>
          </g>
          <g>
            <path class="cls-11" d="M75.82788,34.58994H70.67847a.39017.39017,0,0,1-.39018-.39018h0a.39015.39015,0,0,1,.39018-.39015h5.14941a.39015.39015,0,0,1,.39017.39015h0A.39017.39017,0,0,1,75.82788,34.58994Z"/>
            <path class="cls-11" d="M74.09308,35.96524H70.67847a.39017.39017,0,0,1-.39018-.39015h0a.39014.39014,0,0,1,.39018-.39015h3.41461a.39014.39014,0,0,1,.39014.39015h0A.39017.39017,0,0,1,74.09308,35.96524Z"/>
          </g>
          <g>
            <rect class="cls-12" x="59.57321" y="42.90883" width="9.35906" height="3.69181"/>
            <rect class="cls-15" x="59.57321" y="45.68891" width="9.35906" height="2.64032"/>
            <polygon class="cls-14" points="59.573 42.909 62.931 45.729 59.573 48.329 59.573 42.909"/>
          </g>
          <g>
            <path class="cls-11" d="M75.82788,43.93174H70.67847a.39017.39017,0,0,1-.39018-.39015h0a.39014.39014,0,0,1,.39018-.39015h5.14941a.39013.39013,0,0,1,.39017.39015h0A.39017.39017,0,0,1,75.82788,43.93174Z"/>
            <path class="cls-11" d="M74.09308,45.307H70.67847a.39014.39014,0,0,1-.39018-.39015h0a.39016.39016,0,0,1,.39018-.39015h3.41461a.39017.39017,0,0,1,.39014.39015h0A.39014.39014,0,0,1,74.09308,45.307Z"/>
          </g>
        </g>
        <g>
          <g>
            <g>
              <path class="cls-16" d="M97.52106,56.91548h29.2891a4.28647,4.28647,0,0,1,4.28647,4.28647v2.421a4.3837,4.3837,0,0,1-4.3837,4.3837H97.52106a0,0,0,0,1,0,0V56.91548A0,0,0,0,1,97.52106,56.91548Z"/>
              <path class="cls-6" d="M156.13828,61.47875v1.66857a5.09,5.09,0,0,1-.6157,2.44424,4.49224,4.49224,0,0,1-3.92456,2.41486H96.6219a.68259.68259,0,0,1-.65853-.70425v-.24985a.6826.6826,0,0,1,.65853-.70426h33.513a4.58729,4.58729,0,0,0,.47037-.7565,4.76415,4.76415,0,0,0,.49123-2.12047V61.35a4.71768,4.71768,0,0,0-.13572-1.12875,4.55205,4.55205,0,0,0-.7771-1.64689H96.6219a.68277.68277,0,0,1-.65853-.7049v-.24921a.68277.68277,0,0,1,.65853-.7049h55.253a4.318,4.318,0,0,1,4.099,3.3059A4.852,4.852,0,0,1,156.13828,61.47875Z"/>
              <path class="cls-17" d="M155.97393,60.22128H130.96081a4.55205,4.55205,0,0,0-.7771-1.64689H96.6219a.68277.68277,0,0,1-.65853-.7049v-.24921a.68277.68277,0,0,1,.65853-.7049h55.253A4.318,4.318,0,0,1,155.97393,60.22128Z"/>
            </g>
            <polygon class="cls-18" points="97.521 62.461 101.592 62.648 97.521 62.76 97.521 62.461"/>
            <polygon class="cls-18" points="97.521 64.201 107.205 64.388 97.521 64.5 97.521 64.201"/>
          </g>
          <g>
            <g>
              <g>
                <path class="cls-12" d="M89.11558,67.98336H117.772a4.13986,4.13986,0,0,1,4.13986,4.13986v.59964a3.8875,3.8875,0,0,1-3.8875,3.8875H89.11558a0,0,0,0,1,0,0v-8.627A0,0,0,0,1,89.11558,67.98336Z" transform="translate(211.02745 144.59372) rotate(-180)"/>
                <path class="cls-16" d="M116.48906,67.98336H149.1492a4.04214,4.04214,0,0,1,4.04214,4.04214v.63226a3.9526,3.9526,0,0,1-3.9526,3.9526H116.48906a0,0,0,0,1,0,0v-8.627a0,0,0,0,1,0,0Z" transform="translate(269.6804 144.59372) rotate(180)"/>
                <rect class="cls-12" x="113.73096" y="75.32011" width="41.16285" height="1.29024" rx="0.60028" transform="translate(268.62477 151.93047) rotate(180)"/>
                <rect class="cls-12" x="113.73096" y="67.98336" width="41.16285" height="1.29025" rx="0.60028" transform="translate(268.62477 137.25697) rotate(180)"/>
              </g>
              <polygon class="cls-18" points="153.191 72.297 148.742 72.442 153.191 72.529 153.191 72.297"/>
              <polygon class="cls-18" points="153.191 70.311 142.605 70.457 153.191 70.544 153.191 70.311"/>
            </g>
            <g>
              <path class="cls-6" d="M142.71417,70.42765a2.00275,2.00275,0,0,1,.60384.97993,1.60539,1.60539,0,0,1,.04706.34087c.025.80952,0,2.6416,0,2.6416l1.33938-.916,1.33588.916V71.90694a2.18666,2.18666,0,0,0-.32747-1.22535.49866.49866,0,0,0-.37-.25394Z"/>
              <path class="cls-19" d="M142.71417,70.42765a2.00275,2.00275,0,0,1,.60384.97993l2.68408.03627s-.10532-.8724-.65922-1.0162Z"/>
            </g>
          </g>
          <g>
            <g>
              <g>
                <path class="cls-16" d="M90.15523,44.26384h28.30729a4.53184,4.53184,0,0,1,4.53184,4.53184v3.50853a4.63458,4.63458,0,0,1-4.63458,4.63458H90.15523a0,0,0,0,1,0,0v-12.675A0,0,0,0,1,90.15523,44.26384Z"/>
                <path class="cls-4" d="M123.01053,49.18188v2.72784A3.29162,3.29162,0,0,1,121.67,54.626a2.3422,2.3422,0,0,1-1.32183.41686H89.291a.73173.73173,0,0,0-.65905.7871v.32185a.73178.73178,0,0,0,.65905.78715h53.65177a4.37626,4.37626,0,0,0,3.72167-2.313,6.147,6.147,0,0,0,.82233-3.114v-2.1523a5.8991,5.8991,0,0,0-.42371-2.216,4.277,4.277,0,0,0-3.84275-2.87952H89.291a.73109.73109,0,0,0-.65905.78645v.32185a.73174.73174,0,0,0,.65905.78715h31.15217a2.40355,2.40355,0,0,1,1.88914.98407A3.35314,3.35314,0,0,1,123.01053,49.18188Z"/>
                <path class="cls-20" d="M88.63192,55.83v.32185a.73178.73178,0,0,0,.65905.78715h53.65177a4.37626,4.37626,0,0,0,3.72167-2.313H121.67a2.3422,2.3422,0,0,1-1.32183.41686H89.291A.73173.73173,0,0,0,88.63192,55.83Z"/>
              </g>
              <polygon class="cls-18" points="90.155 50.601 94.137 50.814 90.155 50.943 90.155 50.601"/>
              <polygon class="cls-18" points="90.155 47.684 99.627 47.897 90.155 48.026 90.155 47.684"/>
            </g>
            <g>
              <path class="cls-12" d="M99.52961,47.85506a2.22217,2.22217,0,0,0-.83209,1.06258,1.39341,1.39341,0,0,0-.06485.36955c-.03445.87777,0,2.8643,0,2.8643l-1.84559-.99324-1.84075.99324V49.45908a2.007,2.007,0,0,1,.45121-1.32869.71481.71481,0,0,1,.5099-.27533Z"/>
              <path class="cls-13" d="M99.52961,47.85506a2.22217,2.22217,0,0,0-.83209,1.06258l-3.69846.03933s.14513-.946.90838-1.10191Z"/>
            </g>
          </g>
        </g>
        <path class="cls-21" d="M123.20986,30.67758c.18411-4.55581-3.63439-6.57984-7.53885-6.57984s-8.15331,1.01162-8.52148,7.06956c-.23679,3.8972,1.84075,6.29526,7.82309,6.29526a11.184,11.184,0,0,0,4.78666-.88571l2.99045,2.65723-1.46957-3.67293A6.75481,6.75481,0,0,0,123.20986,30.67758Z"/>
        <g>
          <path class="cls-22" d="M121.99467,54.715a6.09018,6.09018,0,0,0,2.10184,2.27767l4.90818.03465S121.2879,53.4645,121.99467,54.715Z"/>
          <g>
            <path class="cls-23" d="M125.67524,67.373a.45372.45372,0,0,1,.07747.48585l-.00128.00242a3.016,3.016,0,0,1-.96042,1.03877c-.05771.046-.10911.08772-.15385.12645l-.03455.03056-.02661.02365c-.42164.3832-.26463.47279-1.02275,1.25112-.86452.88684-1.45544.89876-1.623.81622-.14168-.07037.1506-.54188.47447-1.07189.01566-.02552.031-.05145.04716-.07727.04312-.07047.086-.142.12881-.21284.37971-.63793.28548-.93923.20328-1.89319-.06682-.77522-1.17468-4.33658-1.17468-4.33658l1.64654-.27168s.47531,2.833,1.01788,3.27263c.29016.23432.61679.23955.896.4137.01971.01208.03913.0245.058.03726A2.15782,2.15782,0,0,1,125.67524,67.373Z"/>
            <path class="cls-22" d="M125.67524,67.373a.45372.45372,0,0,1,.07747.48585l-.00128.00242a3.49317,3.49317,0,0,1-.962,1.03547c-.05707.04671-.10748.08964-.15232.12975l-.03455.03056-.02661.02365c-.42164.3832-.26463.47279-1.02275,1.25112-.86452.88684-1.45544.89876-1.623.81622-.14168-.07037.1506-.54188.47447-1.07189a3.657,3.657,0,0,0,1.53768-1.11639c.52138-.65576.872-1.50057,1.22732-1.98884.01971.01208.03913.0245.058.03726A2.15782,2.15782,0,0,1,125.67524,67.373Z"/>
            <path class="cls-23" d="M112.4216,66.25231c-.10512.50694-.82811.41715-1.63517.21387s-.61653.033-1.76619-.10255-1.4952-.56692-1.52911-.73826c-.03035-.152.53854-.20156,1.14882-.2675.07678-.008.15385-.017.231-.026a4.97918,4.97918,0,0,0,1.82434-.88265A7.30568,7.30568,0,0,0,112.184,62.706l1.577.13611s-.83692,1.25181-1.161,1.79636a1.90659,1.90659,0,0,0-.16248,1.0742A2.02409,2.02409,0,0,1,112.4216,66.25231Z"/>
            <path class="cls-22" d="M110.78643,66.46618c-.807-.20323-.61653.033-1.76619-.10255s-1.4952-.56692-1.52911-.73826c-.03035-.152.53854-.20156,1.14882-.2675l.00561.01178a3.244,3.244,0,0,0,1.64418.5238c.78045.02449,1.60884-.19333,2.14782-.18081a2.02409,2.02409,0,0,1-.016.53967C112.31648,66.75925,111.59349,66.66946,110.78643,66.46618Z"/>
            <path class="cls-22" d="M118.5398,56.20546l1.44705,3.9796,1.8892,5.19622a3.11869,3.11869,0,0,0,1.02369-.08629,4.43547,4.43547,0,0,0,.99289-.47461,56.30967,56.30967,0,0,0-1.47046-8.76986,5.68911,5.68911,0,0,0-.8452-1.86249C120.04348,52.34959,118.5398,56.20546,118.5398,56.20546Z"/>
            <path class="cls-24" d="M120.084,49.9124c.96855-.30489,3.722.11478,6.48687.67632l.58644-.95209,5.98357-.42484s1.94251,4.39015.84249,7.171a1.0549,1.0549,0,0,1-1.09387.58363l-.00064.00078s-3.56915.062-4.72492.05382c-2.97409-.021-6.27974-2.08878-6.70867-2.17773-.702-.14558-.99314,1.25846-1.70652,2.72976s-6.65432,6.49125-6.65432,6.49125a5.19689,5.19689,0,0,1-1.28157-.14064,1.26317,1.26317,0,0,1-.54824-.35146S117.89975,50.6,120.084,49.9124Z"/>
            <path class="cls-22" d="M127.25052,41.40117c2.1213,1.18754,6.42433,3.64883,6.4469,3.63326a3.32576,3.32576,0,0,0,2.48874.01764c1.50846-.98654,2.33262-3.66446-.397-5.99328-1.36131-1.16148-2.33223-1.44873-2.4671-3.28889-.07313-.99837-1.41384-4.30091-3.68215-4.01235a3.45517,3.45517,0,0,1-.57145.03348,2.12136,2.12136,0,0,0-1.152.28886C126.62861,32.83439,124.06122,40.92478,127.25052,41.40117Z"/>
            <path class="cls-23" d="M129.04249,40.41567a2.815,2.815,0,0,0,1.75431.06628,3.12814,3.12814,0,0,0,1.16868-1.38038c-.30243-.01607-.63266-.28292-.87615-2.02014l-.12916.04534-2.17138.764s.152.69608.24882,1.35845C129.11922,39.80543,129.16135,40.338,129.04249,40.41567Z"/>
            <path class="cls-25" d="M128.78879,37.89081s.09255.48782.221,1.185a2.52974,2.52974,0,0,0,1.95035-1.949Z"/>
            <path class="cls-23" d="M128.46138,38.57831s2.96611-.3768,2.703-2.22036-.05746-3.13376-1.96237-2.97111-2.17167.91851-2.23352,1.5552S127.683,38.62882,128.46138,38.57831Z"/>
            <path class="cls-22" d="M127.08361,33.93336s1.88545,1.64814,3.17481,1.789a2.47344,2.47344,0,0,0,1.78083-.26986,5.03822,5.03822,0,0,1-1.20662-1.65916.90732.90732,0,0,0-.74417-.5401C129.16766,33.16725,127.42133,33.11863,127.08361,33.93336Z"/>
            <path class="cls-22" d="M128.27047,33.79532a4.67172,4.67172,0,0,0-.842,1.0628,3.58678,3.58678,0,0,0-.11058,1.9061s-.9752-1.92956-.40883-2.85972A.79018.79018,0,0,1,128.27047,33.79532Z"/>
            <path class="cls-24" d="M119.98685,60.18506l1.8892,5.19622a3.11869,3.11869,0,0,0,1.02369-.08629,4.43547,4.43547,0,0,0,.99289-.47461,56.30967,56.30967,0,0,0-1.47046-8.76986Z"/>
            <path class="cls-26" d="M135.02368,40.3832c-.8-1.13989-3.07006-1.32983-3.27-1.34985h-.01c-2.51,1.47-2.71021.22-2.71021.22s-2.57983.40991-2.88989,1.51978c-.30982,1.1101-2.1399,7.62011-2.1399,7.62011s1.31006.25,1.91993-.35009a4.39806,4.39806,0,0,0,.60009-1.16993c.04,3.58008.06983,2.72.6399,3.21a2.43913,2.43913,0,0,0,1.17993.26,20.611,20.611,0,0,0,2.37012.01h.03c1.38989.16993,5.15991.55,6.3999-.2998C138.50366,49.12319,136.19361,42.04312,135.02368,40.3832Zm-1.18017,7.69019a9.74156,9.74156,0,0,1,.20019-1.55029c.00977-.0398.02-.07984.02979-.11988.46.73.82007,1.34009.74023,1.40992A4.04253,4.04253,0,0,1,133.84351,48.07339Z"/>
            <path class="cls-27" d="M128.34542,50.348c1.83849.13507,5.074-.14513,5.19933-.48422.43254-1.17316.13557-1.54064.50226-3.33882l-.86954-2.50441s.12709,2.78284-.69849,3.50878c-.8247.7259-3.36888,1.38871-3.772,1.99727A2.23745,2.23745,0,0,0,128.34542,50.348Z"/>
            <path class="cls-23" d="M130.46111,49.19292a7.71665,7.71665,0,0,0-2.10573-.25788,4.26323,4.26323,0,0,0-1.10466.9438c-.09107.20348.653-.1503.89458-.21328a2.14768,2.14768,0,0,1,.76961.17426,2.56155,2.56155,0,0,0,1.38022.14838Z"/>
            <path class="cls-28" d="M128.264,49.43947a3.509,3.509,0,0,1-.50876.54543.37153.37153,0,0,1-.20545.04248l.25946-.45935Z"/>
            <path class="cls-28" d="M128.35538,48.935l-1.10919.529a.197.197,0,0,0,.18262.072,2.63328,2.63328,0,0,0,.48039-.12837Z"/>
            <path class="cls-26" d="M124.00366,48.39321s3.77931-4.6129,7.17725.50567"/>
            <path class="cls-29" d="M130.46111,49.19292s-4.01349-8.54049,3.69949-9.51981"/>
            <path class="cls-29" d="M133.84351,48.07339s-9.63053-4.89373-7.34891-7.82351"/>
            <path class="cls-29" d="M130.9751,39.42105c1.00211.42287,3.18447,2.25038,5.72359,5.05687a.04312.04312,0,0,1-.03177.07226c-2.39305.00229-4.32329,1.081-4.83708,2.64674a3.09058,3.09058,0,0,0-.04077,1.70191"/>
            <path class="cls-29" d="M132.88477,48.60464s-6.86377-6.82056-4.60986-9.18286"/>
            <path class="cls-29" d="M132.321,48.69641A5.24087,5.24087,0,0,0,135.68867,50.5"/>
            <path class="cls-29" d="M130.29513,49.9882s7.84892.824,5.10316-8.96547"/>
          </g>
          <g>
            <g>
              <polygon class="cls-12" points="127.992 50.777 119.247 50.715 116.663 44.155 125.394 44.217 127.992 50.777"/>
              <polygon class="cls-13" points="119.147 50.459 130.694 50.541 130.692 50.796 119.247 50.715 119.147 50.459"/>
            </g>
            <path class="cls-30" d="M121.47787,47.45974a.303.303,0,0,1,.29992-.4142.59647.59647,0,0,1,.53276.42011.303.303,0,0,1-.29987.41425A.59665.59665,0,0,1,121.47787,47.45974Z"/>
          </g>
        </g>
        <text class="cls-31" transform="translate(108.84784 31.741)">G<tspan class="cls-32" x="2.07861" y="0">r</tspan><tspan class="cls-33" x="3.13135" y="0">ammar</tspan></text>
      </g>
    </g>
  </g>
</svg>
