<svg xmlns="http://www.w3.org/2000/svg" xmlns:xlink="http://www.w3.org/1999/xlink" width="67.66981mm" height="40.40003mm" viewBox="0 0 191.81995 114.51978">
  <defs>
    <style>
      .cls-1, .cls-15, .cls-23, .cls-24, .cls-6 {
        fill: none;
      }

      .cls-1 {
        clip-rule: evenodd;
      }

      .cls-2 {
        clip-path: url(#clip-path);
      }

      .cls-3 {
        fill: #e5c4c4;
        fill-rule: evenodd;
      }

      .cls-28, .cls-4 {
        fill: #ffc727;
      }

      .cls-31, .cls-32, .cls-4, .cls-5, .cls-6 {
        opacity: 0.26;
      }

      .cls-11, .cls-12, .cls-13, .cls-14, .cls-21, .cls-25, .cls-31, .cls-32, .cls-4, .cls-5, .cls-6, .cls-8 {
        isolation: isolate;
      }

      .cls-5 {
        fill: #b62828;
      }

      .cls-6 {
        stroke: #000;
        stroke-width: 1.36679px;
      }

      .cls-13, .cls-7 {
        fill: #aa1414;
      }

      .cls-10, .cls-11, .cls-25, .cls-8, .cls-9 {
        fill: #fff;
      }

      .cls-8 {
        opacity: 0.8;
      }

      .cls-9 {
        stroke: #aa1414;
        stroke-miterlimit: 10;
      }

      .cls-15, .cls-9 {
        stroke-width: 0.27336px;
      }

      .cls-11 {
        opacity: 0.5;
      }

      .cls-12, .cls-13 {
        opacity: 0.1;
      }

      .cls-14, .cls-25 {
        opacity: 0.2;
      }

      .cls-15, .cls-23, .cls-24 {
        stroke: #263238;
        stroke-linecap: round;
        stroke-linejoin: round;
      }

      .cls-16 {
        fill: #263238;
      }

      .cls-17 {
        fill: #ff8b7b;
      }

      .cls-18 {
        fill: #407bff;
      }

      .cls-19 {
        fill: #0e0d0d;
      }

      .cls-20 {
        fill: #4d4d4d;
      }

      .cls-21 {
        opacity: 0.3;
      }

      .cls-22 {
        fill: #d73131;
      }

      .cls-23 {
        stroke-width: 0.13668px;
      }

      .cls-24 {
        stroke-width: 0.20502px;
      }

      .cls-26 {
        fill: #878787;
      }

      .cls-27 {
        fill: #633a34;
      }

      .cls-29 {
        fill: #c4c4c4;
      }

      .cls-30 {
        fill: #e96262;
      }

      .cls-31 {
        fill: #f5d098;
      }
    </style>
    <clipPath id="clip-path">
      <path class="cls-1" d="M154.7301,32.28992C149.99011,37.77,146.79,37.5,133,47.95c-16.17,12.25-16.93994,16.54-24.75989,21.73C88.95007,82.47,63.66,76.26,47.11,72.2c-13.86-3.4-32.92994-8.08008-47.11-22.67v-39.66A9.86916,9.86916,0,0,1,9.86,0H164.31006C164.91,11.25,161.95007,23.92993,154.7301,32.28992Z"/>
    </clipPath>
  </defs>
  <title>cards</title>
  <g id="Layer_1" data-name="Layer 1">
    <g class="cls-2">
      <g>
        <path class="cls-3" d="M76.42542-58.9509c20.67613,3.04571,31.70607,24.95823,49.14465,36.50672C144.26293-10.06572,170.966-8.55652,182.02443,10.97825c11.674,20.623,13.717,48.93086,1.73961,69.37725-11.63549,19.86344-38.551,22.22917-60.09226,30.236-15.44866,5.74272-31.214,5.8536-47.24636,9.66214-22.98078,5.45854-47.70118,31.25391-66.89068,17.44923-19.14434-13.77212,3.18509-46.73178-4.74209-68.9802-8.36673-23.48208-43.73759-35.30811-41.255-60.11881,2.39389-23.925,31.40761-34.9343,51.99875-47.25638C34.36336-49.9192,54.73275-62.14627,76.42542-58.9509Z"/>
        <rect class="cls-4" x="13.48932" y="15.10312" width="78.41386" height="13.88756" transform="translate(-0.42696 43.04415) rotate(-44.27)"/>
        <path class="cls-5" d="M22.14576,60.32993l-9.31484-8.80675,3.55657-3.55637,3.55657-3.55665L29.42824,54.233,25.787,57.28146Z"/>
        <path class="cls-6" d="M24.85552,48.98288,80.57511-4.87376"/>
        <rect class="cls-4" x="84.34456" y="59.35536" width="52.48841" height="9.296" transform="translate(-13.27618 95.36865) rotate(-44.27)"/>
        <path class="cls-5" d="M90.13878,89.62945l-6.235-5.89523,2.38067-2.38067,2.38066-2.38066,6.34845,6.57533-2.43725,2.04062Z"/>
        <path class="cls-6" d="M91.95278,82.03367l37.29739-36.05034"/>
        <path class="cls-7" d="M81.98727,3.722V29.17788a3.14776,3.14776,0,0,1-3.14716,3.14935H76.31347V3.722Z"/>
        <path class="cls-8" d="M81.98727,3.722V29.17788a3.14776,3.14776,0,0,1-3.14716,3.14935H76.31347V3.722Z"/>
        <path class="cls-9" d="M81.98727,1.7882V29.17788a3.147,3.147,0,0,1-3.14716,3.14935H34.35679a3.14956,3.14956,0,0,1-3.1493-3.14935V1.7882a3.14719,3.14719,0,0,1,3.1493-3.14929H78.84011A3.147,3.147,0,0,1,81.98727,1.7882Z"/>
        <path class="cls-7" d="M81.84294.84255H31.352a3.14922,3.14922,0,0,1,3.00483-2.20364H78.84011A3.14939,3.14939,0,0,1,81.84294.84255Z"/>
        <path class="cls-10" d="M37.6251.18805a.44625.44625,0,0,0,.44625-.44625.44625.44625,0,0,0-.44625-.44626.44628.44628,0,0,0-.44628.44626A.44627.44627,0,0,0,37.6251.18805Z"/>
        <path class="cls-10" d="M39.21888.18805a.44625.44625,0,0,0,.44625-.44625.44625.44625,0,0,0-.44625-.44626.44626.44626,0,0,0-.44626.44626A.44625.44625,0,0,0,39.21888.18805Z"/>
        <path class="cls-10" d="M41.25678-.2582a.44831.44831,0,0,1-.07572.24933.44862.44862,0,0,1-.20157.16513.44846.44846,0,0,1-.25936.02515A.44827.44827,0,0,1,40.49059.0581.44846.44846,0,0,1,40.36837-.172a.44853.44853,0,0,1,.02638-.25922.44826.44826,0,0,1,.1661-.20079.44835.44835,0,0,1,.24965-.07454.44652.44652,0,0,1,.17129.03417.44662.44662,0,0,1,.145.09729.44577.44577,0,0,1,.09658.1455.44631.44631,0,0,1,.03337.17143Z"/>
        <path class="cls-7" d="M81.98727,1.7882V3.722H31.199V1.7882a3.16484,3.16484,0,0,1,.14453-.94565h50.491a3.16479,3.16479,0,0,1,.15281.94565Z"/>
        <path class="cls-11" d="M81.98727,1.7882V3.722H31.199V1.7882a3.16484,3.16484,0,0,1,.14453-.94565h50.491a3.16479,3.16479,0,0,1,.15281.94565Z"/>
        <path class="cls-7" d="M37.181,3.722V32.32723h-2.8943a3.21517,3.21517,0,0,1-3.07918-2.206V3.722Z"/>
        <path class="cls-12" d="M37.181,3.722V32.32723h-2.8943a3.21517,3.21517,0,0,1-3.07918-2.206V3.722Z"/>
        <path class="cls-13" d="M74.32234,5.74929H39.21885v23.6921H74.32234Z"/>
        <path class="cls-14" d="M33.63214,6.94356H32.12335V8.45232h1.50879Z"/>
        <path class="cls-14" d="M35.91656,6.94356H34.40779V8.45232h1.50877Z"/>
        <path class="cls-15" d="M60.28217,17.50061a8.90979,8.90979,0,0,0,1.95095-5.98816,2.91784,2.91784,0,0,0-3.74445-2.74563,12.15994,12.15994,0,0,0-2.35251.99666,12.5,12.5,0,0,1-4.03749,1.35369c-1.41954.17194-2.824,0-4.20751.5418-2.40773.93925-3.07718,4.01643-2.14831,6.24757a6.90578,6.90578,0,0,0,4.877,3.93553"/>
        <path class="cls-14" d="M33.63214,9.33633H32.12335v1.50885h1.50879Z"/>
        <path class="cls-14" d="M35.91656,9.33633H34.40779v1.50885h1.50877Z"/>
        <path class="cls-14" d="M33.63214,11.72922H32.12335v1.50866h1.50879Z"/>
        <path class="cls-14" d="M35.91656,11.72922H34.40779v1.50866h1.50877Z"/>
        <path class="cls-14" d="M33.63214,14.12191H32.12335v1.50866h1.50879Z"/>
        <path class="cls-14" d="M35.91656,14.12191H34.40779v1.50866h1.50877Z"/>
        <path class="cls-14" d="M33.63214,16.51269H32.12335v1.50866h1.50879Z"/>
        <path class="cls-14" d="M35.91656,16.51269H34.40779v1.50866h1.50877Z"/>
        <path class="cls-14" d="M33.63214,18.90539H32.12335v1.50866h1.50879Z"/>
        <path class="cls-14" d="M35.91656,18.90539H34.40779v1.50866h1.50877Z"/>
        <path class="cls-16" d="M33.58327,21.23029a.17226.17226,0,0,1-.10678.1591.1753.1753,0,0,1-.09972.00957.17217.17217,0,0,1,.0365-.34088.17025.17025,0,0,1,.15767.10633.171.171,0,0,1,.01233.06588Z"/>
        <path class="cls-16" d="M34.20166,21.23029a.17217.17217,0,1,1-.17214-.17221.1707.1707,0,0,1,.12236.04975.16955.16955,0,0,1,.04978.12246Z"/>
        <path class="cls-16" d="M34.81791,21.23029a.17227.17227,0,0,1-.10677.1591.1753.1753,0,0,1-.09972.00957.17217.17217,0,0,1,.03649-.34088.17025.17025,0,0,1,.15767.10633.171.171,0,0,1,.01233.06588Z"/>
        <path class="cls-16" d="M55.82809,19.61721l-.26981.18917-.16155-1.17927.98381.5992-.2441.16565.38023.56093-.29959.24657Z"/>
        <path class="cls-17" d="M89.4994,37.55955s-1.08386,5.23206-1.817,6.5685c-.73314,1.33672-4.93628,1.27521-4.93628,1.27521l-4.8663-.24246s-.92668-3.03235,3.04082-1.45973c0,0,3.347-.63747,4.62411-1.7l1.33863-5.489Z"/>
        <path class="cls-18" d="M103.98159,76.5627h-1.29845l-3.5233-19.16589-.12109-.66071,1.25361-.2318.16374.89251Z"/>
        <path class="cls-19" d="M103.98159,76.5627h-1.29845l-3.5233-19.16589-.12109-.66071,1.25361-.2318.16374.89251Z"/>
        <path class="cls-18" d="M98.38214,76.5627h-1.2815L95.341,57.39681l-.187-2.04007-.04237-.4524,1.26865-.117.053.5694.187,2.04007Z"/>
        <path class="cls-19" d="M98.38214,76.5627h-1.2815L95.341,57.39681l-.187-2.04007-.04237-.4524,1.26865-.117.053.5694.187,2.04007Z"/>
        <path class="cls-18" d="M85.279,55.59921l-.13586,1.7976L83.68537,76.5627H82.406l1.45563-19.16589.14461-1.89327Z"/>
        <path class="cls-19" d="M85.279,55.59921l-.13586,1.7976L83.68537,76.5627H82.406l1.45563-19.16589.14461-1.89327Z"/>
        <path class="cls-18" d="M81.58352,55.65662l-.28675,1.74019-3.16,19.16589H76.84488L80.0068,57.39681l.32092-1.94849Z"/>
        <path class="cls-11" d="M81.58352,55.65662l-.28675,1.74019-3.16,19.16589H76.84488L80.0068,57.39681l.32092-1.94849Z"/>
        <path class="cls-20" d="M102.424,55.05714l-.117.2996L101.74826,56.77a.98184.98184,0,0,1-.9204.62681H79.77745a.99249.99249,0,0,1-.93515-.65442l-.495-1.38565-.117-.32939a.98816.98816,0,0,1,.933-1.32169h22.34066a.98823.98823,0,0,1,.92012,1.35148Z"/>
        <path class="cls-21" d="M102.307,55.35674,101.74826,56.77a.98184.98184,0,0,1-.9204.62681H79.77745a.99249.99249,0,0,1-.93515-.65442l-.495-1.38565Z"/>
        <path class="cls-16" d="M80.9887,67.57581l.99447-2.259a.5926.5926,0,0,1,.70772-.33131l1.57235.44612a.59744.59744,0,0,1,.377.32228.59631.59631,0,0,1,.00356.49587c-.42508.96058-1.23257,2.7497-1.48761,3.38936-.34635.8906-.63747,1.96352-1.10081,2.2634a.62516.62516,0,0,1-.08912.04865.58883.58883,0,0,1-.80339-.64813,6.56372,6.56372,0,0,0-.19326-3.27454.57812.57812,0,0,1,.01913-.45268Z"/>
        <path class="cls-16" d="M89.57594,46.10442S78.83383,44.63814,75.5888,47.68963c0,0-2.01027,2.74341-1.0434,8.11351A22.37277,22.37277,0,0,0,78.564,64.95349l2.82-2.39706s-2.50969-6.1817-1.65982-10.00679l3.90163-.23153L89.22112,48.493l.58635-1.5852Z"/>
        <path class="cls-16" d="M100.13518,45.9877a12.61391,12.61391,0,0,1-.67355,5.29985c-.97124,2.23962-4.40324,3.06-6.71721,2.91126-2.31424-.14871-5.29984-.34006-6.56849.017,0,0-3.55091,12.10561-5.74843,18.90564l-2.79645.85015s2.49685-17.093,2.79645-20.147c.29987-3.05368.149-3.50827,2.01464-5C84.30808,47.33262,93.86436,45.31606,100.13518,45.9877Z"/>
        <path class="cls-16" d="M77.7352,73.83842l2.31616-.8608a.59521.59521,0,0,1,.73123.27855l.77332,1.43841a.59479.59479,0,0,1-.32283.85013c-.98818.3592-2.83061,1.03056-3.4618,1.29845-.87966.374-1.85308.91165-2.3905.78618a.71383.71383,0,0,1-.09787-.02761.59061.59061,0,0,1-.09348-1.03056,6.49053,6.49053,0,0,0,2.21419-2.41839.57991.57991,0,0,1,.33158-.31436Z"/>
        <path class="cls-22" d="M89.4994,46.80777s-1.39822-9.24822-1.7-11.49849c-.30178-2.25055,0-3.4.84987-4.13754a12.37479,12.37479,0,0,1,7.36342-1.887c2.61575.42507,3.28521,2.91973,3.64221,5.404,0,0,.7777,8.61922.49533,11.60046Z"/>
        <path class="cls-22" d="M88.64735,31.16546a7.38076,7.38076,0,0,0-2.06768,5.35288l3.2237,1.23475Z"/>
        <path class="cls-17" d="M99.70382,34.65486s1.17079,4.13945.85014,5.85012c-.32092,1.71067-3.23436,4.00577-7.2847,4.77063a4.04858,4.04858,0,0,1-2.83689-.53961l-1.57481-.45049.45049-1.39631a8.4226,8.4226,0,0,1,3.46617.81406s3.86964-1.7555,5.085-3.10479a20.22887,20.22887,0,0,0-.80941-4.675Z"/>
        <path class="cls-16" d="M87.63373,23.67465a.93332.93332,0,0,0-.59947.78427,1.61746,1.61746,0,0,1-.62243-1.9679c.49068-1.27494,1.156-3.08347,3.1365-2.81995s6.13277.85014,4.64516,5.27442c-1.48734,4.42429-2.9621-.97971-2.9621-.97971Z"/>
        <path class="cls-17" d="M91.96645,31.94316c-1.80416-.11262-1.039-1.668-.9562-2.244a1.24313,1.24313,0,0,0-.15719-.72248,2.38368,2.38368,0,0,0-.30588-.45487c-.79055,0-1.8766.39883-2.50341-.1323-.70116-.58444-.49724-2.11661-1.06254-2.44382a20.38032,20.38032,0,0,1,.13176-3.01048c0-.11918.017-.23591.02132-.3529.02761-.46116.05741-.92012.07436-1.37061a8.73343,8.73343,0,0,1,3.3109-.02762A3.262,3.262,0,0,1,92.83791,23.919a7.97886,7.97886,0,0,1,.19327,1.753c.032,2.51188,1.01579,2.95171,1.4004,3.68923C94.8162,30.09855,93.775,32.04949,91.96645,31.94316Z"/>
        <path class="cls-23" d="M89.99253,26.16521a1.37511,1.37511,0,0,1-1.11146.66945"/>
        <path class="cls-24" d="M89.90315,23.42617a.83737.83737,0,0,0-.93488-.21267"/>
        <path class="cls-16" d="M89.23178,24.21864c.01477.16374.11044.28893.2124.28046s.17413-.14871.16156-.31218c-.01285-.16374-.11044-.28921-.21268-.28073C89.2911,23.91466,89.21894,24.05517,89.23178,24.21864Z"/>
        <path class="cls-16" d="M87.353,24.682c.015.16347.11071.28894.21267.28047s.17413-.14871.16156-.31245c-.01285-.16347-.11071-.29112-.21267-.28047S87.353,24.51823,87.353,24.682Z"/>
        <path class="cls-16" d="M87.081,22.608a4.86738,4.86738,0,0,0,1.8766-.88212c.62462,2.06576,3.28521,2.14011,3.95028,2.14011a3.41024,3.41024,0,0,0-2.33748-2.82432,8.98889,8.98889,0,0,0-3.4.05521C87.15345,21.54957,87.10671,22.14877,87.081,22.608Z"/>
        <path class="cls-16" d="M93.35237,20.00128a1.75738,1.75738,0,1,0-2.09856,1.2137A1.71526,1.71526,0,0,0,93.35237,20.00128Z"/>
        <path class="cls-16" d="M88.38793,22.02768l-.35263.46334s.933-.16156,1.13908-.799-.57187-.138-.57187-.138Z"/>
        <path class="cls-12" d="M91.73929,28.01611a3.30286,3.30286,0,0,1-.88623.96058,2.37116,2.37116,0,0,0-.30588-.45487A4.3414,4.3414,0,0,0,91.73929,28.01611Z"/>
        <path class="cls-24" d="M86.95363,23.95512A.674.674,0,0,1,87.689,23.494"/>
        <path class="cls-17" d="M92.36391,24.12514a1.67945,1.67945,0,0,1,.19764-.24219c.24875-.25285.65468-.58444,1.03055-.39965.45487.21268.3592.86081.23181,1.2517a1.40615,1.40615,0,0,1-.65469.82664c-.4483.2318-1.11557.10852-1.1112-.495a1.71284,1.71284,0,0,1,.30589-.94145Z"/>
        <path class="cls-16" d="M92.83791,23.43027a3.55326,3.55326,0,0,0-.43983,2.36317,3.11235,3.11235,0,0,1-.07463,2.22048A6.20239,6.20239,0,0,0,92.058,25.721a2.78089,2.78089,0,0,1,.2124-2.29483Z"/>
        <path class="cls-18" d="M89.96493,19.6902a8.29678,8.29678,0,0,1,3.08319,1.02017A3.2,3.2,0,0,0,89.96493,19.6902Z"/>
        <path class="cls-16" d="M66.19625,44.66356H78.309a.80933.80933,0,0,0,.78617-1.00513l-2.1546-8.58725a.80924.80924,0,0,0-.78645-.614H64.04138a.80934.80934,0,0,0-.78618,1.00514l2.142,8.58724a.80945.80945,0,0,0,.799.614Z"/>
        <path class="cls-16" d="M86.12262,44.634H77.8902V43.9963h7.81172a.42512.42512,0,0,1,.42507.42507v.22524Z"/>
        <path class="cls-21" d="M66.19625,44.66356H78.309a.80933.80933,0,0,0,.78617-1.00513l-2.1546-8.58725a.80924.80924,0,0,0-.78645-.614H64.04138a.80934.80934,0,0,0-.78618,1.00514l2.142,8.58724a.80945.80945,0,0,0,.799.614Z"/>
        <path class="cls-16" d="M65.561,44.66356H77.6737a.80933.80933,0,0,0,.78617-1.00513l-2.15706-8.58725a.80924.80924,0,0,0-.78618-.614H63.40391a.80936.80936,0,0,0-.78618,1.00514l2.142,8.58724a.81173.81173,0,0,0,.80121.614Z"/>
        <path class="cls-25" d="M65.561,44.66356H77.6737a.80933.80933,0,0,0,.78617-1.00513l-2.15706-8.58725a.80924.80924,0,0,0-.78618-.614H63.40391a.80936.80936,0,0,0-.78618,1.00514l2.142,8.58724a.81173.81173,0,0,0,.80121.614Z"/>
        <path class="cls-18" d="M62.62183,45.40955,58.153,73.12442h-.99037l4.49454-27.872Z"/>
        <path class="cls-26" d="M62.62183,45.40955,58.153,73.12442h-.99037l4.49454-27.872Z"/>
        <path class="cls-18" d="M69.19689,73.12442h-.99256l-4.31795-27.717.96687-.1509Z"/>
        <path class="cls-26" d="M69.19689,73.12442h-.99256l-4.31795-27.717.96687-.1509Z"/>
        <path class="cls-18" d="M79.50738,45.40955,75.03853,73.12442h-.99228l4.49426-27.872Z"/>
        <path class="cls-26" d="M79.50738,45.40955,75.03853,73.12442h-.99228l4.49426-27.872Z"/>
        <path class="cls-18" d="M94.42311,73.12442h-.99037l-4.32014-27.717.96687-.1509Z"/>
        <path class="cls-26" d="M94.42311,73.12442h-.99037l-4.32014-27.717.96687-.1509Z"/>
        <path class="cls-27" d="M95.64064,44.464H54.57447v1.2897H95.64064Z"/>
        <path class="cls-21" d="M95.65978,44.464H79.108v1.2897H95.65978Z"/>
        <path class="cls-16" d="M94.16807,44.464H87.385a.378.378,0,0,1,.37833-.37833h6.02451a.38033.38033,0,0,1,.38025.37833Z"/>
        <path class="cls-28" d="M91.70512,40.84914l-.91383,2.19314c-.16785-.0339-.31874-.05741-.4248-.07217l.95183-2.28444a.213.213,0,1,1,.39336.16347Z"/>
        <path class="cls-12" d="M96.9052,35.40277l-.986-1.47695,1.56606,3.65943Z"/>
        <path class="cls-12" d="M88.04787,37.07954c-.02761-.10633-.36548-2.42468-.36548-2.42468v2.28636Z"/>
        <path class="cls-16" d="M90.79566,30.09007s-.93078,2.07833,1.26236,2.01246a2.81518,2.81518,0,0,0,2.856-2.88993l-.68422-.23591a2.83072,2.83072,0,0,1-1.8785,2.03787c-1.48351.33788-1.36023-1.209-1.36023-1.209Z"/>
        <path class="cls-29" d="M97.819,40.60831l-.7438-4.675c.70827-.63746,2.23114-1.76369,2.65621-1.16887.53141.7438,1.16888,4.88763.53141,6.48129-.47783,1.19458-3.18762,2.79809-4.67523,3.4003v-.10634l-1.06254-.2124-1.7-.63774Z"/>
        <path class="cls-30" d="M91.68626,40.988l-.40184-.117.1006-.35045c.20091-.117.32147-.09376.40184,0a.17776.17776,0,0,1,0,.23372Z"/>
        <path class="cls-29" d="M85.36159,42.04534,86.531,36.61429l1.3821.31955.63774,4.04651-.85041,3.08839-.53168.42589a3.56167,3.56167,0,0,1-1.16915,0c0-.08529-.21267-.31956-.319-.42589H80.89685v-.31956Z"/>
        <path class="cls-31" d="M136.76321,38.01046l-10.67516,4.54275,6.814,7.041Z"/>
        <path class="cls-32" d="M135.34412,42.26782l-2.529-2.69483,3.84069-1.56253Z"/>
      </g>
    </g>
  </g>
</svg>
