<svg xmlns="http://www.w3.org/2000/svg" xmlns:xlink="http://www.w3.org/1999/xlink" width="67.66981mm" height="40.40003mm" viewBox="0 0 191.81995 114.51978">
  <defs>
    <style>
      .cls-1, .cls-25, .cls-28, .cls-30 {
        fill: none;
      }

      .cls-2 {
        clip-path: url(#clip-path);
      }

      .cls-3 {
        fill: #e2c0c0;
      }

      .cls-4 {
        fill: #ebebeb;
      }

      .cls-5 {
        fill: #e0e0e0;
      }

      .cls-6 {
        fill: #171228;
      }

      .cls-7 {
        fill: #f8b555;
      }

      .cls-8 {
        fill: #fafbef;
      }

      .cls-9 {
        opacity: 0.1;
      }

      .cls-10 {
        fill: #6c3509;
      }

      .cls-11 {
        fill: #552303;
      }

      .cls-12 {
        fill: #e5e5e3;
      }

      .cls-13 {
        fill: #b82a50;
      }

      .cls-14 {
        fill: #8e1c3f;
      }

      .cls-15 {
        fill: #072743;
      }

      .cls-16 {
        fill: #0f3358;
      }

      .cls-17 {
        fill: #573f70;
      }

      .cls-18 {
        fill: #161818;
      }

      .cls-19 {
        fill: #573914;
      }

      .cls-20 {
        fill: #f23336;
      }

      .cls-21 {
        fill: #763231;
      }

      .cls-22 {
        fill: #fceacc;
      }

      .cls-23 {
        fill: #e9cdad;
      }

      .cls-24 {
        fill: #fff0e7;
      }

      .cls-25, .cls-28, .cls-30 {
        stroke: #000;
        stroke-miterlimit: 10;
      }

      .cls-25 {
        stroke-width: 0.13px;
      }

      .cls-26 {
        fill: #5a5a90;
      }

      .cls-27 {
        fill: #574a84;
      }

      .cls-28 {
        stroke-width: 0.09723px;
      }

      .cls-29 {
        fill: #f49092;
      }

      .cls-30 {
        stroke-width: 0.09296px;
      }
    </style>
    <clipPath id="clip-path">
      <path class="cls-1" d="M144.96008,80.63c-18.49,3.78-27.03-15.6-60.25988-17.05C63.68994,62.66,58.59009,70.04,36.96,70.4A102.57987,102.57987,0,0,1,0,63.96v-54.1A9.86084,9.86084,0,0,1,9.86011,0h172.09a9.58164,9.58164,0,0,1,2.59.35C194.25,29.49,170.7301,75.37,144.96008,80.63Z"/>
    </clipPath>
  </defs>
  <title>cards</title>
  <g id="Layer_1" data-name="Layer 1">
    <g class="cls-2">
      <g>
        <ellipse class="cls-3" cx="90.62155" cy="74.24859" rx="148.65699" ry="102.85581"/>
        <g>
          <path class="cls-4" d="M142.3635,43.33013s-2.46187,1.33178,1.12247,6.47384a72.5511,72.5511,0,0,0,5.9168,7.61087s.67754,1.215-.37578,1.56344-3.48574.297-3.785,1.686c-.31037,1.44062.86442,2.59736,3.04118,3.454s6.87686,2.90871,7.30113,3.09582c.41657.18375.88393.72818.20441,1.08057s-5.95582,1.649-5.19075,4.11587,7.22137,3.85711,7.92424,4.02258.90142.4264.89753.80028-1.81846.64247-3.304,1.07272-3.13275,1.18955-2.572,2.57586,4.61818,3.90182,13.5802,3.54958l4.142-.43514,1.76389-3.79313c3.28012-8.34765,2.23891-13.00676,1.11424-13.9922s-2.38356.3204-3.27848,1.58179-1.74539,2.88677-2.09969,2.76746-.53538-.3926-.46048-1.1108.8852-7.27247-1.19273-8.80634-5.03782,3.02256-5.59406,3.54838-.91674-.09464-.95322-.54847c-.03719-.4622-.42928-5.57574-.52238-7.91318s-.7992-3.82725-2.26172-4.00789c-1.41019-.17426-2.16154,2.13975-2.83706,3.0199s-1.60007-.15934-1.60007-.15934a72.53531,72.53531,0,0,0-5.24159-8.09068c-3.67714-5.07609-5.787-3.13133-5.787-3.13133"/>
          <path class="cls-5" d="M171.61323,84.93716c-2.68594-3.73859-7.34808-10.46345-11.38075-16.21628-4.03129-5.75089-7.686-10.95428-10.35263-14.70614-1.333-1.87128-2.41275-3.38706-3.16265-4.43986-.37063-.521-.65951-.92721-.85918-1.20787l-.22078-.31606c-.04912-.07165-.07162-.1103-.07162-.1103s.02968.03345.0823.10253l.23122.30851c.20419.27741.49973.67884.87884,1.1937.76208,1.03747,1.85408,2.54649,3.19633,4.41624,2.6859,3.73859,6.3528,8.93409,10.3841,14.685,4.03267,5.75287,8.68266,12.48562,11.34927,16.2374"/>
          <path class="cls-5" d="M148.64182,60.87337a1.35335,1.35335,0,0,1,.29864.04048c.19077.03349.465.09008.80327.16311.67618.14745,1.60489.37482,2.62517.64419,1.00517.26941,1.91407.513,2.60943.69932.31385.082.57863.15123.7916.20685a1.3507,1.3507,0,0,1,.28818.08746,1.34706,1.34706,0,0,1-.299-.0382c-.1907-.03412-.46519-.09068-.80274-.1673-.67488-.15414-1.60033-.39354-2.62038-.663-1.00657-.262-1.91688-.499-2.61333-.68029l-.79314-.203A1.34549,1.34549,0,0,1,148.64182,60.87337Z"/>
          <path class="cls-5" d="M156.30368,62.41233c-.035-.00752.34951-1.94286.85866-4.3222.50922-2.38016.95023-4.303.98521-4.2955s-.34947,1.94244-.85873,4.3226C156.77967,60.49653,156.33859,62.41976,156.30368,62.41233Z"/>
          <path class="cls-5" d="M162.097,71.52449a1.4107,1.4107,0,0,1,.13238-.27772c.10627-.1972.23892-.44347.39646-.73576.33367-.62158.791-1.482,1.26069-2.44972.47211-.96709.86882-1.85707,1.15091-2.50366.1331-.30425.24508-.5605.33482-.76578a1.41111,1.41111,0,0,1,.13665-.2755,1.39948,1.39948,0,0,1-.08982.29419c-.066.18636-.16606.45421-.29725.7823-.2609.65671-.64558,1.55526-1.119,2.52507-.4711.97057-.94246,1.82662-1.29721,2.43777-.17862.30488-.32593.55-.43271.71636A1.40775,1.40775,0,0,1,162.097,71.52449Z"/>
          <path class="cls-5" d="M154.86055,71.65785a1.20342,1.20342,0,0,1,.28235-.034c.20983-.01214.46755-.027.77153-.04466.65163-.03211,1.55208-.06743,2.54691-.09849.99512-.0311,1.89613-.052,2.54847-.06066.30447-.00142.56259-.00258.77276-.00359a1.20636,1.20636,0,0,1,.28392.01633,1.2029,1.2029,0,0,1-.28231.034c-.20987.01211-.46755.027-.77149.04463-.65167.03207-1.5522.06743-2.54732.09853-.99479.03106-1.89572.052-2.54813.06062-.30444.00142-.56264.00262-.77277.00355A1.20031,1.20031,0,0,1,154.86055,71.65785Z"/>
          <path class="cls-5" d="M158.95307,80.352a1.958,1.958,0,0,1,.36177-.04c.25752-.01585.58965-.03629.98847-.06089.83489-.04575,1.98864-.10006,3.26323-.15209,1.275-.052,2.42946-.09183,3.26532-.11422.39945-.008.73214-.01465.99012-.01985a1.958,1.958,0,0,1,.36375.01039,1.9623,1.9623,0,0,1-.3617.03992l-.98847.06089c-.83489.04579-1.98875.10013-3.26375.15212-1.27459.052-2.42891.09188-3.26484.11427-.39941.008-.7321.01465-.99008.01981A1.95637,1.95637,0,0,1,158.95307,80.352Z"/>
          <path class="cls-5" d="M167.96244,79.92215a2.24889,2.24889,0,0,1,.15877-.356c.121-.24531.27876-.56536.469-.951.395-.8033.93641-1.915,1.4993-3.15891.565-1.24353,1.04667-2.38241,1.3896-3.20926.16506-.39713.302-.72664.407-.9792a2.2539,2.2539,0,0,1,.163-.35392,2.23759,2.23759,0,0,1-.116.37209c-.08264.23655-.20759.577-.36906.995-.32155.83643-.79078,1.983-1.35674,3.2287-.56387,1.24611-1.11922,2.3534-1.5356,3.14691-.20919.39627-.38173.71521-.50589.933A2.25035,2.25035,0,0,1,167.96244,79.92215Z"/>
        </g>
        <g>
          <g>
            <g>
              <g>
                <g>
                  <path class="cls-6" d="M157.447,93.51593l.45454,1.47689.98254-.30219-.45454-1.47689a1.44226,1.44226,0,0,1,.95354-1.80059l2.38057-.73308a1.4424,1.4424,0,0,1,1.801.95354l.45455,1.47653.98256-.30219-.45454-1.47687a2.47111,2.47111,0,0,0-3.08588-1.63322l-2.38076.73238A2.4714,2.4714,0,0,0,157.447,93.51593Z"/>
                  <rect class="cls-7" x="163.302" y="92.12155" width="2.16639" height="0.85625" transform="translate(-19.94092 52.40224) rotate(-17.09224)"/>
                </g>
                <g>
                  <path class="cls-8" d="M158.07759,92.07094a1.514,1.514,0,0,0,.31543.22619,1.3704,1.3704,0,0,0,.47822.15665,8.56029,8.56029,0,0,0,1.376,1.62351c.33587.128,1.64466-.87861,1.90095-1.11807a8.7567,8.7567,0,0,0,1.61778-2.144c.20415-.6234-2.26481-4.26615-2.26481-4.26615l-4.06558,1.85617S157.706,91.72179,158.07759,92.07094Z"/>
                  <path class="cls-9" d="M158.393,92.29713a1.3704,1.3704,0,0,0,.47822.15665,3.89109,3.89109,0,0,1,.04515-.87108,4.10082,4.10082,0,0,0,.26491-.65349s-.564-.861-.64329-.82232c-.07778.03979-.1491.542-.1491.542l.20486.66532A4.65135,4.65135,0,0,0,158.393,92.29713Z"/>
                </g>
                <g>
                  <path class="cls-10" d="M152.82369,93.49561h22.64149a1.30287,1.30287,0,0,1,1.30287,1.30287v15.70486a1.30268,1.30268,0,0,1-1.30268,1.30268h-22.642a1.30256,1.30256,0,0,1-1.30256-1.30256v-15.705A1.30287,1.30287,0,0,1,152.82369,93.49561Z" transform="translate(-22.93182 52.82049) rotate(-17.10537)"/>
                  <g>
                    <path class="cls-11" d="M153.506,110.99953l.88288,2.86955a1.30253,1.30253,0,0,0,1.62837.86174l21.64022-6.65964a1.30223,1.30223,0,0,0,.86174-1.62815l-.88288-2.86955Z"/>
                    <rect class="cls-7" x="162.80989" y="106.29227" width="5.67889" height="2.49676" transform="translate(355.59991 161.60979) rotate(162.89702)"/>
                    <g>
                      <rect class="cls-6" x="171.29967" y="91.02232" width="1.76253" height="18.31061" transform="translate(366.20986 145.28426) rotate(162.89578)"/>
                      <rect class="cls-6" x="155.22677" y="95.96862" width="1.76248" height="18.31048" transform="translate(336.22963 159.6852) rotate(162.89578)"/>
                    </g>
                  </g>
                </g>
                <g>
                  <path class="cls-6" d="M157.81605,91.33034a2.48921,2.48921,0,0,1,.60314-.58324,2.38038,2.38038,0,0,1,.46636-.2477c.15271.21151.29575.42981.29575.42981a4.10082,4.10082,0,0,1-.26491.65349.20589.20589,0,0,0-.02867.09751,1.4444,1.4444,0,0,0-.44324.64309,1.4251,1.4251,0,0,0-.01523.89044l.45451,1.47761-.98255.30219-.45473-1.47725A2.46765,2.46765,0,0,1,157.81605,91.33034Z"/>
                  <rect class="cls-7" x="157.18293" y="94.00456" width="2.16658" height="0.85631" transform="translate(-20.78342 50.76396) rotate(-17.11687)"/>
                </g>
              </g>
              <path class="cls-8" d="M98.219,60.16974l.06112-.10829-.02581-.02364a.82668.82668,0,0,0,.01652-.22152s-2.97046-3.08069-3.43792-2.97171c-.46743.10931-2.93853.751-2.93853.751a1.69667,1.69667,0,0,0-.03479.414l-.04875.00933a.75815.75815,0,0,0-.62355.55707c-.07939.23621-.09984.47745-.26759.59039a.69841.69841,0,0,0-.23034.41832,2.96245,2.96245,0,0,0-.06666.71443l.41868.92521L94.94119,63.064l1.29657.61265,1.81151-3.20653A1.021,1.021,0,0,0,98.219,60.16974Z"/>
              <path class="cls-12" d="M87.66858,59.59762s2.22875,1.77872,3.3866,1.849a6.84762,6.84762,0,0,0,2.16767-.23985l-.60365-3.35992-1.71709-.84419-2.396.49471Z"/>
              <path class="cls-13" d="M129.14772,67.14947s-.708.38608-1.83554.95963c-3.30079,1.68013-10.19862,4.97482-13.4573,4.93254-4.3733-.05844-18.66437-7.61928-18.66437-7.61928l.7112-1.45647,2.49367-5.1121s12.90148,7.72536,14.66405,6.92848c1.76224-.79651,14.4999-7.23033,14.4999-7.23033Z"/>
              <path class="cls-14" d="M127.80505,66.56373l-.49287,1.54537c-3.30079,1.68013-10.19862,4.97482-13.4573,4.93254-4.3733-.05844-18.66437-7.61928-18.66437-7.61928l.7112-1.45647c2.192,1.19764,14.27386,7.69812,17.70029,7.63073C117.37345,71.52137,127.80505,66.56373,127.80505,66.56373Z"/>
              <polygon class="cls-15" points="126.416 92.325 138.013 137.013 150.607 138.733 138.082 91.902 126.416 92.325"/>
              <path class="cls-16" d="M144.54162,95.343a12.14075,12.14075,0,0,1-1.466,3.95893c-1.18583,1.35285-17.07333,12.74394-17.07333,12.74394l2.67059,21.75511-11.22187-.14914s-2.92332-16.48634-.848-23.30691c1.33963-4.39984,8.92051-12.02556,13.39116-16.24761l.00286.00036c1.94846-1.83787,3.30849-3.0305,3.30849-3.0305l12.09187.16346S145.05189,93.28149,144.54162,95.343Z"/>
              <path class="cls-15" d="M144.54162,95.343c-4.75079-2.03825-14.54453-1.24532-14.54453-1.24532,1.94846-1.83787,3.30849-3.0305,3.30849-3.0305l12.09187.16346S145.05189,93.28149,144.54162,95.343Z"/>
              <path class="cls-13" d="M162.911,86.35729l-5.03863,2.6032-1.1928.61624-7.12314-14.37425-10.23985-7.02995-.05322-1.554-.26007-7.69812s14.25253,8.19962,16.25707,12.13742Z"/>
              <path class="cls-14" d="M157.87236,88.96049l-1.1928.61624-7.12314-14.37425-10.23985-7.02995-.05322-1.554c1.34657.88721,11.43352,7.54612,11.65219,8.18637C151.09819,75.34443,155.85758,84.92057,157.87236,88.96049Z"/>
              <path class="cls-13" d="M146.04144,92.65775l-12.79752.46422-.56137.02151-7.70436.27853s-1.22793-16.6681-1.28586-25.83055c-.029-4.92787,1.711-7.416,3.33-8.66455.18229-.13835.36223-.26349.5368-.375l.00988-.00646a5.8347,5.8347,0,0,1,.51941-.295,5.393,5.393,0,0,1,1.62513-.55527l2.05976-.08208,2.3711-.09426c.39555.04265.77463.09712,1.138.15986.1991.03622.39556.07455.58555.11471.06864.01505.13461.03013.20072.04518,7.17369,1.6726,7.59685,7.64685,7.59685,7.64685Z"/>
              <g>
                <polygon class="cls-12" points="135.454 54.303 133.55 58.717 129.102 58.299 129.954 55.448 135.454 54.303"/>
                <g>
                  <g>
                    <polygon class="cls-8" points="129.091 45.647 127.663 55.525 133.73 56.22 135.927 54.188 137.607 47.936 129.091 45.647"/>
                    <path class="cls-8" d="M134.26287,52.42878s1.9895-3.354,3.32336-1.34121c.9331,1.40805-1.6588,3.1-1.6588,3.1Z"/>
                  </g>
                  <path class="cls-8" d="M128.8138,47.42327c-.01615.10363-1.88969,4.34448-1.88969,4.34448l2.07249.55707.34593-3.86251Z"/>
                </g>
              </g>
              <path class="cls-14" d="M135.86793,57.79343l-2.13434,3.70118-1.83518-3.02405-1.569,3.26566-2.77026-3.18428.00988-.00646.51941-.295a5.393,5.393,0,0,1,1.62513-.55527l2.05976-.08208,2.3711-.09426c.39555.04265.77463.09712,1.138.15986C135.48148,57.71494,135.67794,57.75327,135.86793,57.79343Z"/>
              <g>
                <path class="cls-13" d="M129.71246,57.69377l2.05979-.08208-1.39249,3.44346-2.2924-2.80612A5.39149,5.39149,0,0,1,129.71246,57.69377Z"/>
                <path class="cls-13" d="M135.28128,57.67765l-1.53172,3.20076-1.97731-3.26672,2.37088-.09427Q134.73653,57.582,135.28128,57.67765Z"/>
              </g>
              <polygon class="cls-17" points="131.772 57.612 131.053 59.39 131.563 60.148 130.807 77.622 132.702 79.967 134.143 77.165 132.258 60.059 132.786 59.288 131.772 57.612"/>
              <path class="cls-18" d="M130.93646,40.2023l-.00055-.00091a3.07784,3.07784,0,0,0-1.16376,1.33478,4.37064,4.37064,0,0,1-.23049-1.58715c-2.88962,1.47923-1.7194,4.72587-1.7194,4.72587h0c.00554,1.70149,8.31147,3.73955,8.31147,3.73955l-.69186,2.574c.9186-1.04619,2.14436.09933,2.14436.09933l1.93054-3.02709a21.39764,21.39764,0,0,0-3.8591-2.98749A14.32054,14.32054,0,0,1,130.93646,40.2023Z"/>
              <path class="cls-12" d="M94.94119,63.064l-3.89981-1.83965-.41868-.92521a2.96245,2.96245,0,0,1,.06666-.71443c.21349-.019.48556-.03263.49041.01039a.53084.53084,0,0,0,.067.17494s.60651-.18819.70455-.081l.09574.104s.86676-.26242.99311-.11868a.75579.75579,0,0,1,.14646.204s.73521-.2423.82914-.15233a5.53607,5.53607,0,0,1,1.13238,2.43218A2.2044,2.2044,0,0,1,94.94119,63.064Z"/>
              <g>
                <path class="cls-8" d="M93.54224,62.64781s-.78916.36351-1.22165.10575c-.43248-.25846-.12924-2.7932-.12924-2.7932l.63217-.11111S94.01,62.02657,93.54224,62.64781Z"/>
                <path class="cls-8" d="M94.66714,62.703s-.78936.36385-1.22169.10539c-.43267-.25846-.1294-2.79316-.1294-2.79316l.63218-.11115S95.13493,62.08178,94.66714,62.703Z"/>
                <path class="cls-8" d="M92.34889,62.43167s-.70221.32369-1.087.09353c-.38481-.22975-.11508-2.48526-.11508-2.48526l.56228-.09892S92.76545,61.87853,92.34889,62.43167Z"/>
                <path class="cls-8" d="M91.14625,62.06064s-.63485.17421-.92593-.07206c-.29124-.2466.24913-2.10347.24913-2.10347l.48626-.00466S91.573,61.65451,91.14625,62.06064Z"/>
              </g>
            </g>
            <g>
              <g>
                <g>
                  <polygon class="cls-12" points="17.292 25.273 15.693 28.776 17.821 30.324 19.798 28.393 18.391 25.236 17.292 25.273"/>
                  <polygon class="cls-19" points="0.07 101.788 23.793 -3.208 22.421 -3.518 -1.358 101.723 0.07 101.788"/>
                  <path class="cls-8" d="M20.20778,27.51842,18.851,24.49492l-4.42245-.28786a.69916.69916,0,0,0,.37159.96518,11.32947,11.32947,0,0,0,2.1931.62138s1.12772,3.277,2.40961,3.03624A.91032.91032,0,0,0,20.20778,27.51842Z"/>
                  <g>
                    <path class="cls-8" d="M14.88361,25.62407s-.57678.65009-.45491,1.13888c.12191.48857,2.636.93291,2.636.93291l.28947-.57285S15.61383,25.35629,14.88361,25.62407Z"/>
                    <path class="cls-8" d="M15.15675,24.53167s-.57678.65-.45469,1.13865c.12187.48876,2.6358.9331,2.6358.9331l.28947-.57285S15.887,24.2637,15.15675,24.53167Z"/>
                    <path class="cls-8" d="M14.7449,26.82891s-.51335.57836-.40474,1.01338c.10844.435,2.34567.83021,2.34567.83021l.25735-.50976S15.3948,26.5905,14.7449,26.82891Z"/>
                    <path class="cls-8" d="M14.75132,28.08749s-.35055.55722-.19891.90726,2.08519.371,2.08519.371l.14554-.46406S15.26375,27.79677,14.75132,28.08749Z"/>
                  </g>
                </g>
                <path class="cls-20" d="M23.79337-3.20757s4.83,3.85015,9.01654,2.72507c4.18638-1.1254,8.462-4.1376,14.022-1.90257,0,0-6.51964,3.8116-9.58528,7.54293a12.23365,12.23365,0,0,1-9.95914,4.4995,28.44057,28.44057,0,0,1-6.19166-.92664Z"/>
              </g>
              <g>
                <path class="cls-10" d="M40.83209,105.79562a7.73559,7.73559,0,0,1-2.225,2.00025c-1.11.5062-4.85493.94353-5.89125,1.12739-.69094.123-.76211,1.003-.76211,1.003l8.79288,2.42609s2.14579-1.91495,2.46573-1.46253a4.15,4.15,0,0,1,.17638,1.868l2.96686.80836a48.57058,48.57058,0,0,0,.72662-6.1112Z"/>
                <path class="cls-10" d="M60.635,111.51105a7.731,7.731,0,0,1-2.225,2.00061c-1.11.50583-4.8549.94349-5.89144,1.12739-.69075.1226-.76189,1.003-.76189,1.003l8.79288,2.42613s2.14579-1.91531,2.4657-1.4629a4.1521,4.1521,0,0,1,.17638,1.86833l2.96686.80836a48.54521,48.54521,0,0,0,.72662-6.1112Z"/>
                <polygon class="cls-15" points="46.277 66.744 58.492 111.956 71.168 114.525 57.938 66.205 46.277 66.744"/>
                <path class="cls-16" d="M64.43152,69.58132A12.14218,12.14218,0,0,1,63.00519,73.555c-1.17236,1.36433-16.94537,12.91349-16.94537,12.91349l2.88728,21.72714L37.72435,108.159s-3.08748-16.45694-1.08041-23.29759c1.29566-4.41312,8.8-12.11411,13.22855-16.38059l.0029.0007c1.93017-1.85757,3.278-3.06384,3.278-3.06384l12.093.043S64.92119,67.51511,64.43152,69.58132Z"/>
                <path class="cls-15" d="M64.43152,69.58132c-4.77084-1.99059-14.55613-1.09978-14.55613-1.09978,1.93017-1.85757,3.278-3.06384,3.278-3.06384l12.093.043S64.92119,67.51511,64.43152,69.58132Z"/>
              </g>
              <path class="cls-17" d="M45.46586,42.76336s-12.27452,4.51727-15.04819,3.97239c-2.77613-.54525-13.96236-15.91944-13.96236-15.91944l1.0401-.7732.74831-.55472,3.4438-2.56128,9.51917,11.97466,15.3421-5.56111-.76964,6.68383-.20989,1.83158Z"/>
              <path class="cls-15" d="M45.46586,42.76336s-12.27452,4.51727-15.04819,3.97239c-2.77613-.54525-13.96236-15.91944-13.96236-15.91944l1.0401-.7732.74831-.55472C20.437,32.66385,29.07253,45.016,30.84677,45.19309c1.74055.1744,12.00675-3.96915,14.93238-5.1686l-.20989,1.83158Z"/>
              <g>
                <path class="cls-9" d="M94.081,58.27664c.28158.4316.42048,1.03349.29862,1.02273a1.50268,1.50268,0,0,1-1.08224.27241c-.81263-.01-1.6348-1.13884-1.6348-1.13884l-.47532.143a.75815.75815,0,0,1,.62355-.55707,8.32555,8.32555,0,0,1,1.38548-.18464Z"/>
                <path class="cls-8" d="M87.82664,56.32227s4.26365-.36923,4.544.02045c.28033.38928,1.721,2.49745,1.721,2.49745s-.37279.69938-.77466.509a10.71838,10.71838,0,0,1-1.5068-1.33027s-2.16282,1.69734-3.49742.38249C86.97815,57.08619,87.82664,56.32227,87.82664,56.32227Z"/>
                <path class="cls-17" d="M89.50284,54.93034,88.02453,60.7619l-.40866,1.6178L80.812,59.91161a49.5453,49.5453,0,0,1-16.11571-9.61967l-.44107-.32835-4.91176-3.66.19448-2.98606.56279-8.683a3.09462,3.09462,0,0,0,.32765.23141l.00554.00323c.33966.25467.70636.52873,1.09153.81585,4.48679,4.20573,14.04517,13.014,16.16,14.2841C79.7066,51.18308,85.6597,53.48822,89.50284,54.93034Z"/>
                <path class="cls-15" d="M88.02559,60.76157,87.61623,62.379l-6.8025-2.46768a49.52413,49.52413,0,0,1-16.11619-9.61864l-5.35338-3.98887.19517-2.986,1.39318.75493S72.76934,54.46614,75.36359,55.37233C77.51261,56.12332,85.39713,59.59619,88.02559,60.76157Z"/>
              </g>
              <path class="cls-17" d="M65.90539,66.87883l-12.79213.59362-.56155.02581-7.70191.35705s-1.39531-16.65663-1.54339-25.818c-.07848-4.927,1.63714-7.43358,3.2447-8.69789a6.81933,6.81933,0,0,1,1.058-.687,5.45645,5.45645,0,0,1,1.619-.57138l4.428-.21977q.59681.05942,1.13991.14771c.27262.04875.53662.09929.78917.15179a12.42545,12.42545,0,0,1,2.15926.68345l.00268.003c.06075.0475,1.1039.83667,2.68117,2.01872l.00554.00323c.33966.25467.70636.52873,1.09153.81585a8.34581,8.34581,0,0,1,1.732,4.04785l.827,8.48458.17084,1.74612Z"/>
              <g>
                <polygon class="cls-12" points="49.106 27.325 48.989 32.13 53.656 31.86 53.622 30.665 49.106 27.325"/>
                <g>
                  <g>
                    <g>
                      <polygon class="cls-8" points="58.506 22.124 55.671 31.693 49.87 29.787 48.724 27.021 49.813 20.641 58.506 22.124"/>
                      <path class="cls-8" d="M50.97157,26.12021s-.40418-3.87863-2.45765-2.60842c-1.43639.88865.21,3.50962.21,3.50962Z"/>
                    </g>
                    <path class="cls-8" d="M58.01477,23.85343c-.02867.10072-.10109,4.73662-.10109,4.73662l-2.11533-.361L57.1,24.57594Z"/>
                  </g>
                  <path class="cls-21" d="M48.02674,19.9549l.48718,3.55689s1.5925-.52748,1.98912.80694l.44845-2.62739S59.34827,23.315,60.065,21.772C61.11231,19.5172,60.18152,15.16538,48.02674,19.9549Z"/>
                </g>
              </g>
              <path class="cls-22" d="M52.219,49.19807,47.60824,32.65346a5.39651,5.39651,0,0,1,1.61937-.57156l2.05906-.10234,2.36963-.11812c.39615.03909.77573.08963,1.13976.14895Z"/>
              <path class="cls-6" d="M45.96555,42.27766l1.65649-2.144-2.62992-.449,1.55667-6.344a6.71123,6.71123,0,0,1,1.05945-.6872L52.219,49.19807Z"/>
              <path class="cls-6" d="M55.26529,40.36756l1.99507,1.554L52.219,49.19807l2.577-17.18768q.4079.0696.78774.15164l2.15475,6.95752Z"/>
              <path class="cls-23" d="M54.79606,32.01039l-.20071,1.17632-1.30986,2.65445L51.42,32.83594,49.88361,36.117l-2.04415-2.63422-.23122-.82933a5.39651,5.39651,0,0,1,1.61937-.57156l2.05906-.10234,2.36963-.11812C54.05245,31.90053,54.432,31.95107,54.79606,32.01039Z"/>
              <g>
                <path class="cls-24" d="M49.22761,32.0819l2.05906-.10234-1.35824,3.4569-2.32019-2.783A5.39651,5.39651,0,0,1,49.22761,32.0819Z"/>
                <path class="cls-24" d="M54.79606,32.01039,53.29624,35.2262l-2.00957-3.24664,2.36963-.11812C54.05245,31.90053,54.432,31.95107,54.79606,32.01039Z"/>
              </g>
              <polygon class="cls-13" points="51.287 31.98 50.585 33.764 51.103 34.518 50.515 43.084 52.219 49.198 53.144 43.031 51.797 34.422 52.317 33.645 51.287 31.98"/>
              <polygon class="cls-6" points="53.111 67.472 52.55 67.499 51.274 50.936 52.593 47.495 53.118 47.698 51.843 51.018 53.111 67.472"/>
              <path class="cls-6" d="M53.95976,52.17212a.52768.52768,0,1,1-.43124-.609A.52772.52772,0,0,1,53.95976,52.17212Z"/>
              <path class="cls-6" d="M54.12072,55.41142a.52777.52777,0,1,1-.4316-.609A.52735.52735,0,0,1,54.12072,55.41142Z"/>
              <path class="cls-6" d="M54.22809,58.89178a.52768.52768,0,1,1-.43124-.609A.52767.52767,0,0,1,54.22809,58.89178Z"/>
              <polygon class="cls-15" points="56.84 61.432 62.972 61.193 62.759 62.442 59.953 63.254 57.083 62.413 56.84 61.432"/>
              <polygon class="cls-15" points="44.922 62.371 49.352 62.199 49.198 63.101 47.171 63.688 45.098 63.08 44.922 62.371"/>
            </g>
            <path class="cls-25" d="M44.8498,67.85531S50.52274,61.60216,52.219,63.064"/>
            <path class="cls-25" d="M89.50284,54.93034S64.83122,54.27192,55.5838,32.162"/>
            <path class="cls-25" d="M65.90539,66.87883s-11.17722-29.07239-5.8047-32.24428"/>
            <path class="cls-25" d="M53.11127,67.47172s3.74207-30.85383,13.64148-26.942"/>
            <path class="cls-25" d="M55.26529,40.36756s32.19689,13.21923,32.7603,20.394"/>
            <path class="cls-25" d="M21.68752,26.92711s11.95386,16.93324,9.15925,18.266"/>
            <path class="cls-25" d="M18.24372,29.48839s14.40171,22.7829,28.30507,3.85227"/>
            <path class="cls-25" d="M52.54991,67.49863c-3.26015-38.143-21.34322-28.59686-21.34322-28.59686"/>
            <path class="cls-25" d="M43.43842,46.34261s8.34175,15.22356,7.46722,21.156"/>
            <path class="cls-25" d="M98.39538,58.85379s14.50221,10.91252,32.80581,9.65017"/>
            <path class="cls-25" d="M127.55914,58.55194s4.85033,30.73467-2.581,34.87007"/>
            <path class="cls-25" d="M146.04144,92.65775s-21.1219-8.98231-22.2819-21.494,5.21455,22.11376,5.21455,22.11376,6.47424-28.69853,16.02879-30.66972"/>
            <path class="cls-25" d="M135.86793,57.79343s27.72994,22.97547,21.56762,30.61182"/>
            <path class="cls-25" d="M133.52676,71.57283s-.79807-13.47763,16.68472-5.36758"/>
            <path class="cls-25" d="M136.02588,93.02106s11.90528-16.65322-2.27632-32.14265C123.40521,49.58011,162.911,86.35729,162.911,86.35729"/>
            <path class="cls-25" d="M124.17235,60.2592s2.28844,29.1501,15.34442,32.76186"/>
            <path class="cls-25" d="M95.90171,63.96589s19.73715,9.87817,25.99643-2.56328"/>
          </g>
          <g>
            <path class="cls-26" d="M194.12807,153.97563H-47.70254s19.3756-56.65133,33.0399-56.92843C-4.6506,96.845,194.12807,153.97563,194.12807,153.97563Z"/>
            <path class="cls-27" d="M99.51755,153.97563H-47.70254s19.3756-56.65133,33.0399-56.92843c0,0,1.1903,6.27964,0,8.32651-1.193,2.04724-9.97548,23.03234-6.03859,22.63587,3.93688-.39574,21.80459-21.89134,26.0442-17.48071,4.23979,4.41489-3.33107,28.666,3.33144,26.24312,6.66232-2.42719,43.71795-12.38508,47.29779-3.64275,3.5795,8.73874-2.45928,11.51006,2.07447,12.69806C60.19657,146.38972,79.6602,150.16656,99.51755,153.97563Z"/>
          </g>
        </g>
        <ellipse cx="55.97361" cy="25.68181" rx="0.18946" ry="0.37893"/>
        <path class="cls-28" d="M56.58936,24.21346a.88628.88628,0,0,0-1.23151-.18946"/>
        <ellipse class="cls-29" cx="55.76519" cy="27.5139" rx="0.75785" ry="0.2842"/>
        <path class="cls-30" d="M56.16307,30.03179a.84114.84114,0,0,1-1.277-.5434"/>
        <ellipse cx="129.51778" cy="49.25165" rx="0.18946" ry="0.37893"/>
        <path class="cls-28" d="M130.13354,47.78331a.88628.88628,0,0,0-1.23151-.18947"/>
        <ellipse class="cls-29" cx="129.30937" cy="51.08374" rx="0.75785" ry="0.2842"/>
        <path d="M127.90628,53.84263s.84771.56489,1.43625,0"/>
      </g>
    </g>
  </g>
</svg>
