<svg xmlns="http://www.w3.org/2000/svg" xmlns:xlink="http://www.w3.org/1999/xlink" width="67.66981mm" height="40.40003mm" viewBox="0 0 191.81995 114.51978">
  <defs>
    <style>
      .cls-1, .cls-28, .cls-36, .cls-37, .cls-39, .cls-50 {
        fill: none;
      }

      .cls-2 {
        isolation: isolate;
      }

      .cls-3 {
        clip-path: url(#clip-path);
      }

      .cls-4 {
        fill: #b3c8f7;
        fill-rule: evenodd;
      }

      .cls-5 {
        clip-path: url(#clip-path-2);
      }

      .cls-6 {
        fill: #618dd8;
      }

      .cls-11, .cls-7 {
        fill: #f5f2f7;
      }

      .cls-8 {
        fill: #e6daed;
      }

      .cls-9 {
        fill: #8e6b96;
      }

      .cls-10, .cls-49 {
        fill: #ff5473;
      }

      .cls-11 {
        opacity: 0.52;
      }

      .cls-12, .cls-38, .cls-40, .cls-41, .cls-42, .cls-51 {
        fill: #fff;
      }

      .cls-13 {
        fill: #715977;
      }

      .cls-14, .cls-15 {
        fill: #44244c;
      }

      .cls-15 {
        opacity: 0.66;
      }

      .cls-15, .cls-18, .cls-30, .cls-31, .cls-46, .cls-47 {
        mix-blend-mode: soft-light;
      }

      .cls-16 {
        fill: #ada874;
      }

      .cls-17 {
        fill: #f7f1f3;
      }

      .cls-18, .cls-38 {
        opacity: 0.3;
      }

      .cls-19 {
        fill: #ffd9ab;
      }

      .cls-20 {
        fill: #ffe6c7;
      }

      .cls-21 {
        fill: #fafbef;
      }

      .cls-22 {
        fill: #dbdbd9;
      }

      .cls-23 {
        fill: #ffaf8f;
      }

      .cls-24 {
        fill: #852d4c;
      }

      .cls-25 {
        fill: #fcc0cc;
      }

      .cls-26 {
        fill: #ffccd5;
      }

      .cls-27 {
        fill: #cab8d6;
      }

      .cls-28, .cls-37, .cls-39 {
        stroke: #fff;
      }

      .cls-28, .cls-36 {
        stroke-linecap: round;
      }

      .cls-28, .cls-36, .cls-37, .cls-39, .cls-49, .cls-50 {
        stroke-miterlimit: 10;
      }

      .cls-28 {
        stroke-width: 0.28174px;
      }

      .cls-29 {
        fill: #a8425f;
      }

      .cls-30, .cls-31 {
        fill: #542e54;
      }

      .cls-31, .cls-47 {
        opacity: 0.75;
      }

      .cls-32 {
        fill: #ff948f;
        opacity: 0.8;
      }

      .cls-33 {
        fill: #ffe5ea;
      }

      .cls-34 {
        fill: #ffecf0;
      }

      .cls-35 {
        fill: #ede7f1;
      }

      .cls-36 {
        stroke: #44244c;
        stroke-width: 0.66262px;
      }

      .cls-37 {
        stroke-width: 0.28182px;
      }

      .cls-39 {
        stroke-width: 0.27146px;
      }

      .cls-40 {
        font-size: 9.08908px;
      }

      .cls-40, .cls-41, .cls-42, .cls-51 {
        font-family: Inter-Medium, Inter;
        font-weight: 500;
      }

      .cls-41 {
        font-size: 4.50697px;
      }

      .cls-42 {
        font-size: 3.39535px;
      }

      .cls-43 {
        fill: #f7feff;
      }

      .cls-44 {
        fill: #ffba9a;
      }

      .cls-45 {
        fill: #943a61;
      }

      .cls-46, .cls-47 {
        fill: #4f384f;
      }

      .cls-48 {
        fill: #ffdbb8;
      }

      .cls-49, .cls-50 {
        stroke: #000;
        stroke-width: 0.1px;
      }

      .cls-51 {
        font-size: 12px;
      }
    </style>
    <clipPath id="clip-path">
      <path class="cls-1" d="M169.6499,212.71539c-4.78991,4.81995-8.7,2.36-29.30993,6.06006-32.08,5.75989-36.74,14.24-56.59,13.14-15.38-.86011-13.94006-6.03-31.32007-8.59009C25.49,219.35541,11.02,230.14545,0,230.12543V167.05536a9.86267,9.86267,0,0,1,9.86-9.86987H165.65991C176.34,177.68549,179.72,202.56537,169.6499,212.71539Z"/>
    </clipPath>
    <clipPath id="clip-path-2">
      <path class="cls-1" d="M165.75,17.98c-4.6,6.99-10.96,7.69995-19.71,13.14014-15.42,9.59009-20.02,22.52-25.77,30.30981C101.65,86.65991,41.77,97.33008,0,71.36011v-61.5A9.86066,9.86066,0,0,1,9.86,0H169.63C170.09,5.67993,169.42,12.40015,165.75,17.98Z"/>
    </clipPath>
  </defs>
  <title>cards</title>
  <g class="cls-2">
    <g id="Layer_1" data-name="Layer 1">
      <g class="cls-3">
        <path class="cls-4" d="M87.36249,87.03193c34.95621-.1425,59.71182,20.68183,82.15648,38.144,19.92888,15.50448,17.14778,33.32352,15.95648,53.53258-1.15414,19.58078-1.06712,35.525-22.035,49.57173-21.36429,14.31308-45.66672,26.92331-76.078,29.37012-34.50675,2.77579-75.14323,1.9395-97.51111-15.40461-21.7592-16.87238-7.3827-41.59086-4.29525-63.53724,2.6485-18.82567,3.66331-37.55105,20.67136-52.86694C26.67322,107.43018,52.48588,87.17411,87.36249,87.03193Z"/>
      </g>
      <g class="cls-5">
        <g>
          <rect class="cls-6" x="-38.9805" y="-16.76539" width="221.9154" height="120.5961"/>
          <g>
            <polygon class="cls-7" points="28.319 77.125 14.527 70.432 24.122 50.162 40.271 58.11 28.319 77.125"/>
            <polygon class="cls-8" points="34.185 62.263 33.699 61.808 23.884 56.006 23.832 56.674 34.185 62.263"/>
            <polygon class="cls-8" points="33.479 63.091 33.48 63.661 23.29 58.067 23.374 57.795 33.479 63.091"/>
            <polygon class="cls-8" points="32.769 64.866 22.478 59.035 22.38 59.679 32.688 65.02 32.769 64.866"/>
            <polygon class="cls-8" points="31.712 66.926 31.226 66.471 21.411 60.669 21.359 61.337 31.712 66.926"/>
            <polygon class="cls-8" points="31.006 67.754 31.007 68.324 20.817 62.73 20.901 62.458 31.006 67.754"/>
            <g>
              <path class="cls-9" d="M13.36872,68.34394l-.22274-.515a.42533.42533,0,0,1,.27274-.52723l1.85924-.80394a.42532.42532,0,0,1,.57092.1624l.22274.515a.42537.42537,0,0,1-.27277.52723l-1.85924.80394A.42526.42526,0,0,1,13.36872,68.34394Z"/>
              <polygon class="cls-10" points="14.117 68.99 7.266 72.496 5.951 69.572 13.746 66.807 14.117 68.99"/>
              <g>
                <circle class="cls-11" cx="21.45878" cy="64.99175" r="5.17523" transform="translate(-10.47403 4.45496) rotate(-9.53936)"/>
                <path class="cls-12" d="M15.891,63.40685H26.672a.63512.63512,0,0,1,.63512.63512v.65157a.63506.63506,0,0,1-.63506.63506H15.891a.63513.63513,0,0,1-.63513-.63513V64.042a.63514.63514,0,0,1,.63514-.63514Z" transform="translate(-23.79898 13.73318) rotate(-23.3839)"/>
                <path class="cls-12" d="M16.40567,66.06515H28.04072a.20811.20811,0,0,1,.20811.20811v.54465a.20813.20813,0,0,1-.20813.20813H16.4057a.2081.2081,0,0,1-.2081-.2081v-.54472A.20807.20807,0,0,1,16.40567,66.06515Z" transform="translate(-24.58588 14.28571) rotate(-23.38377)"/>
                <path class="cls-13" d="M27.38984,62.42715a6.47552,6.47552,0,1,0-3.37364,8.51371A6.47552,6.47552,0,0,0,27.38984,62.42715Zm-10.492,4.53672a4.95527,4.95527,0,1,1,6.515,2.58157A4.95523,4.95523,0,0,1,16.89788,66.96387Z"/>
              </g>
            </g>
          </g>
          <g>
            <g>
              <rect class="cls-14" x="59.10602" y="110.15716" width="1.49278" height="15.36602" transform="translate(0.1478 -0.07495) rotate(0.07184)"/>
              <rect class="cls-14" x="53.53694" y="88.57345" width="4.12486" height="15.51151" transform="translate(0.12164 -0.07011) rotate(0.07233)"/>
              <path class="cls-10" d="M72.09611,103.10509l-19.85033-.02845c-4.14136,0-6.40753,1.60788-6.41,3.59678l-.00034.26164c-.00249,1.989,1.60638,3.60583,4.91947,3.60583l4.81867.00773,16.51318.02072a3.60132,3.60132,0,0,0,3.60594-3.59678l.0003-.26164A3.60137,3.60137,0,0,0,72.09611,103.10509Z"/>
              <path class="cls-10" d="M62.7621,97.6444l-3.97263-.005A12.20864,12.20864,0,0,1,46.59618,85.41545l.01763-14.04769.00344-2.738a12.20866,12.20866,0,0,1,12.224-12.19328l3.9726.005a12.20856,12.20856,0,0,1,12.19322,12.224L74.986,85.45112A12.20857,12.20857,0,0,1,62.7621,97.6444Z"/>
              <path class="cls-15" d="M58.84705,97.93677l-1.44429-.00184a8.13907,8.13907,0,0,1-8.12886-8.14922l.00684-5.44635.00775-6.18741a8.139,8.139,0,0,1,8.14936-8.1288l1.44429.0018a8.139,8.139,0,0,1,8.1288,8.14926L66.9963,89.808A8.139,8.139,0,0,1,58.84705,97.93677Z"/>
            </g>
            <g>
              <path class="cls-10" d="M107.00262,72.29666a.736.736,0,0,0,.81748-.20787c.25667-.26068.87279-.81714.47294-1.10277s-.65661.40716-.98491.61081a2.08751,2.08751,0,0,0,.03739-.7253c-.01425-.11445-.06493-.25347-.17989-.263-.11268-.00929-.1852.11346-.229.21767l-.30615.72744A1.027,1.027,0,0,0,106.3461,70.9a.33892.33892,0,0,0-.28842-.12851c-.127.02454-.19708.16162-.22876.2871a1.322,1.322,0,0,0,1.12251,1.57095"/>
              <path class="cls-16" d="M107.53624,82.79236a17.22682,17.22682,0,0,0,1.94027-6.70493,4.54426,4.54426,0,0,0-1.1915-3.487,2.728,2.728,0,0,0-3.33715.20739,5.57916,5.57916,0,0,0-1.69592,3.12548,9.64376,9.64376,0,0,0,1.73611,7.79035.99322.99322,0,0,0,.71614.49874,1.06159,1.06159,0,0,0,1.22406-.39494"/>
              <path class="cls-17" d="M106.4393,72.17586a4.70906,4.70906,0,0,0-1.18767,1.9845,11.002,11.002,0,0,0-.54274,2.59505,14.32582,14.32582,0,0,0,.84372,5.9799c.03729.11036.21311.063.17547-.04837a14.306,14.306,0,0,1-.85093-5.77339,11.08416,11.08416,0,0,1,.481-2.49816,4.73071,4.73071,0,0,1,1.20985-2.11085c.087-.07873-.042-.2071-.12868-.12868Z"/>
              <path class="cls-17" d="M107.29028,72.26439c1.13288,3.13921.28368,6.665-.64119,9.74459a.09106.09106,0,0,0,.17547.04838c.93329-3.10759,1.78439-6.67356.6412-9.84135-.03945-.10932-.21537-.06215-.17548.04838Z"/>
              <polygon class="cls-10" points="102.956 82.229 103.617 86.58 108.34 86.58 109.379 82.132 102.956 82.229"/>
              <path class="cls-10" d="M102.20726,80.80975h7.7393a.17806.17806,0,0,1,.17228.223l-.47265,1.81173a.178.178,0,0,1-.17836.133l-6.803-.23217A.178.178,0,0,1,102.5,82.6175l-.46358-1.57956A.178.178,0,0,1,102.20726,80.80975Z"/>
              <polygon class="cls-18" points="109.091 83.011 102.999 82.765 108.906 84.18 109.091 83.011"/>
              <path class="cls-17" d="M104.84961,73.67528l-.06184.23226a.09459.09459,0,0,0,.00918.07012.091.091,0,0,0,.1663-.02174l.06183-.23227a.09457.09457,0,0,0-.00917-.07011.091.091,0,0,0-.1663.02174Z"/>
              <path class="cls-17" d="M104.2559,77.36982l-.0212.23942a.09128.09128,0,0,0,.02665.06434.091.091,0,0,0,.12867,0,.10227.10227,0,0,0,.02665-.06434l.02121-.23942a.09132.09132,0,0,0-.02665-.06433.091.091,0,0,0-.12868,0,.10236.10236,0,0,0-.02665.06433Z"/>
              <path class="cls-17" d="M106.64584,75.44623l-.0212.23935a.09134.09134,0,0,0,.02665.06434.091.091,0,0,0,.12868,0,.10241.10241,0,0,0,.02665-.06434l.02119-.23935a.0913.0913,0,0,0-.02665-.06434.091.091,0,0,0-.12867,0,.10227.10227,0,0,0-.02665.06434Z"/>
              <path class="cls-17" d="M103.9611,75.24586l-.09321.471a.091.091,0,0,0,.17547.04837l.09321-.471a.091.091,0,1,0-.17547-.04837Z"/>
              <path class="cls-17" d="M106.00125,74.3715l-.09318.471a.091.091,0,0,0,.17548.04838l.09318-.471a.091.091,0,1,0-.17548-.04838Z"/>
              <path class="cls-17" d="M106.99559,72.70654v.34972a.091.091,0,0,0,.182,0v-.34972a.091.091,0,0,0-.182,0Z"/>
              <path class="cls-17" d="M105.94634,77.195v.52464a.091.091,0,1,0,.182,0V77.195a.091.091,0,0,0-.182,0Z"/>
              <path class="cls-17" d="M106.82073,78.94371v.17489a.09388.09388,0,0,0,.02665.06434.091.091,0,0,0,.12867,0,.09454.09454,0,0,0,.02665-.06434v-.17489a.09388.09388,0,0,0-.02665-.06434.091.091,0,0,0-.12867,0,.0945.0945,0,0,0-.02665.06434Z"/>
              <path class="cls-17" d="M104.1393,79.93465v.17489a.09388.09388,0,0,0,.02665.06434.091.091,0,0,0,.12868,0,.09455.09455,0,0,0,.02665-.06434v-.17489a.09388.09388,0,0,0-.02665-.06434.091.091,0,0,0-.12868,0,.09458.09458,0,0,0-.02665.06434Z"/>
              <path class="cls-17" d="M105.5383,79.6432v.29145a.091.091,0,1,0,.182,0V79.6432a.091.091,0,1,0-.182,0Z"/>
              <path class="cls-17" d="M108.50072,73.75691l.05864.52461a.09321.09321,0,0,0,.091.091.09191.09191,0,0,0,.091-.091l-.05864-.52461a.09322.09322,0,0,0-.091-.091.09191.09191,0,0,0-.091.091Z"/>
              <path class="cls-17" d="M108.39457,75.62112v.29145a.091.091,0,1,0,.182,0v-.29145a.091.091,0,1,0-.182,0Z"/>
              <path class="cls-17" d="M108.21972,77.71961v.5246a.091.091,0,0,0,.182,0v-.5246a.091.091,0,0,0-.182,0Z"/>
              <path class="cls-17" d="M107.75333,79.968l-.05854.23308a.09512.09512,0,0,0,.00918.07012.091.091,0,0,0,.1663-.02174l.05854-.23309a.09505.09505,0,0,0-.00918-.07011.091.091,0,0,0-.1663.02174Z"/>
              <path class="cls-17" d="M108.80262,76.84522v.29145a.091.091,0,0,0,.182,0v-.29145a.091.091,0,0,0-.182,0Z"/>
              <path class="cls-16" d="M104.40917,73.34254a8.712,8.712,0,0,1-.752-.64621l.58951.98983Z"/>
              <path class="cls-16" d="M104.93411,73.11085l-.29546-.34635Z"/>
              <path class="cls-16" d="M109.30553,75.92159l.45722-.19613-.6381-.05411"/>
              <path class="cls-16" d="M108.50512,79.82628l.40134.24414.0418-.15434-.4408.03486-.06345.005.07987.10485.10291-.284a.08329.08329,0,0,0-.05785-.10189.085.085,0,0,0-.10189.05785l-.10291.284a.08326.08326,0,0,0,.07987.10485l.4408-.03487.06345-.005a.08283.08283,0,0,0,.04181-.15434l-.40134-.24415a.08284.08284,0,1,0-.08361.143Z"/>
              <path class="cls-17" d="M103.38777,78.5881l-.00234.4801a.091.091,0,0,0,.182,0l.00235-.4801a.091.091,0,0,0-.182,0Z"/>
              <path class="cls-16" d="M103.18456,77.84246l-.40917.23115.50708.03672"/>
            </g>
            <polygon class="cls-14" points="40.431 87.843 39.866 136.187 40.526 136.187 43.068 88.044 40.431 87.843"/>
            <polygon class="cls-14" points="102.906 87.843 103.471 136.187 102.812 136.187 100.27 88.044 102.906 87.843"/>
            <path class="cls-19" d="M58.434,43.45965a2.32709,2.32709,0,0,0,.14831-2.93078,4.21921,4.21921,0,0,0-2.69357-1.57262A6.04409,6.04409,0,0,0,49.426,41.67038c-1.02321,1.91008-.76426,4.4242-2.17876,6.06574a16.37051,16.37051,0,0,1-2.1606,1.73822,6.78306,6.78306,0,0,0-1.4268,1.62238,1.25544,1.25544,0,0,0-.24492,1.079.933.933,0,0,0,1.06625.469,2.72314,2.72314,0,0,0,1.08927-.623,8.12608,8.12608,0,0,0-.32861,3.63336,2.78128,2.78128,0,0,0,2.484,2.3216,2.75194,2.75194,0,0,0,2.258-1.56922,8.10732,8.10732,0,0,0,.70963-2.78157c-.50646.57653.18139,1.57275.94844,1.55114a2.09533,2.09533,0,0,0,1.67738-1.39283,4.37112,4.37112,0,0,0,.34464-2.23822"/>
            <path class="cls-20" d="M65.82077,54.4548a4.95923,4.95923,0,0,0,4.14671-4.74908,6.84725,6.84725,0,0,0-3.224-5.73968,11.28741,11.28741,0,0,0-6.579-1.60788,7.70473,7.70473,0,0,0-2.565.44681,6.94483,6.94483,0,0,0-2.333,1.62129,11.40209,11.40209,0,0,0-3.01831,5.46827c-.49326,2.15369-.26,4.63419,1.26545,6.23257,1.90832,1.99956,5.17291,1.96586,7.7571.985,1.66039-.63024,3.38017-1.88293,3.43292-3.65814"/>
            <path class="cls-21" d="M68.34009,56.67993A3.632,3.632,0,0,1,65.96,60.39014s.03,2.73.03,2.90991c0,2.37012-1.90991,8.34009-4.28,8.34009-2.36987,0-4.28-5.97-4.28-8.34009,0-.18994.04-6.14014.04-6.14014A1.79281,1.79281,0,0,1,56.67,57.28a1.87212,1.87212,0,1,1,.65-3.65991c.17993.78979.88989-4.61011.87988-5.77,2.49-.95,9.18,1.74,9.57007,1.51a2.81518,2.81518,0,0,1,.07007.31006S67.92,52.02,68.11,54.01c.03.32007.06994.63013.1.91992.01.1001.03.19019.04.28028a.42578.42578,0,0,0,.02.10986l.03.24A6.99884,6.99884,0,0,1,68.34009,56.67993Z"/>
            <path class="cls-22" d="M65.95707,60.39023a6.65821,6.65821,0,0,1-2.52563.26008l2.52563,2.22382Z"/>
            <path class="cls-23" d="M55.17169,70.2788A3.78992,3.78992,0,0,0,53.0828,65.343c-.08215-.03284-.16536-.0583-.24837-.085l-.0019-.01518a3.145,3.145,0,0,0-1.79577-.10707,3.7845,3.7845,0,0,0-.58178.15049C45.2674,66.924,37.4226,76.90049,35.92764,81.35539c-.0014.00419-.16547.302-.22877.46008A3.1531,3.1531,0,0,0,41.424,84.44673,59.659,59.659,0,0,1,53.69116,72.09094l-.00235-.01872A3.80556,3.80556,0,0,0,55.17169,70.2788Z"/>
            <path class="cls-24" d="M88.7677,79.22959a.79753.79753,0,0,1,.06675.067l.01444.01692c.00128.00155.01483.01865.008.00977-.00751-.00982.01107.01551.01059.01483l.01256.01837a.80708.80708,0,0,1,.04751.08176l.019.04029c.00766.01745-.00582-.01528.00087.00256l.00974.0261a.82675.82675,0,0,1,.025.08549q.00575.02439.01.0491c.00037.0022.00383.02467.002.01177s.001.00965.0012.01188a.78348.78348,0,0,1,.0038.09443q-.00051.025-.00269.05l-.00226.02215c-.002.02028.0044-.02781-.00128.00711a.12145.12145,0,0,0,.08274.14572.11986.11986,0,0,0,.14573-.08274.92986.92986,0,0,0-.28625-.84.11847.11847,0,0,0-.16754.16754Z"/>
            <path class="cls-25" d="M61.63629,95.59652l.09113.01314v-.02617l7.74649-1.24544,1.79444-13.90051s2.01562-3.49329.64821-6.46769a71.83923,71.83923,0,0,0,1.05261-8.97749,34.54146,34.54146,0,0,0-6.97559-1.13157l-4.35729,5.46334"/>
            <path class="cls-26" d="M61.63629,95.59652l-.0911.01314v-.02617l-7.8085-2.07371L52.00422,80.43754a7.31806,7.31806,0,0,1-.918-7.63465,63.71575,63.71575,0,0,1-.78281-7.81053,38.91693,38.91693,0,0,1,7.21065-1.13157l4.12224,5.46334.604,11.15412-.604,15.11827"/>
            <path class="cls-20" d="M68.54385,50.524c-2.098.37881-4.95691-.81841-6.595-2.18275.291.45735.648,1.01814.29621,1.23172-.43653.265-2.41662-.71719-3.03927-1.2891.21729.36921,1.08,1.30472.74741,1.55411s-1.20572-.16628-1.60352-.69865a17.15506,17.15506,0,0,1,.47468,4.40529c-.03611,1.47025-.66948.93391-.898.6901-1.47859-1.57742-2.65651-3.80349-2.30326-5.93652a3.83932,3.83932,0,0,1,.68588-1.77593c.83576-1.05843,2.35006-1.24,3.69841-1.26729a12.618,12.618,0,0,1,5.02861.6949,5.45106,5.45106,0,0,1,3.36557,3.58845"/>
            <g>
              <path class="cls-20" d="M61.47171,51.855c.2-.03921.37925-.14944.5844-.182a4.75963,4.75963,0,0,0,.59522-.06575.18838.18838,0,0,0,.08212-.311,1.04033,1.04033,0,0,0-1.499.25017.213.213,0,0,0,.23724.30861Z"/>
              <path class="cls-20" d="M66.723,51.88048a1.02238,1.02238,0,0,0-1.47961-.45178.18718.18718,0,0,0,.03767.29223,4.09816,4.09816,0,0,0,.60547.15237c.20824.05819.37892.207.58525.25833a.20639.20639,0,0,0,.25122-.25115Z"/>
            </g>
            <path class="cls-14" d="M66.86977,106.78157a4.93789,4.93789,0,0,1,2.18884-9.63016c.10336.02349,19.49157,3.43752,23.02723,5.1381s4.70964,3.19987,3.61755,6.15746c-2.37514,6.43233-4.00735,3.265-6.5165,2.78791l-2.48485-.16567C61.73062,105.39344,65.19445,106.40076,66.86977,106.78157Z"/>
            <path class="cls-14" d="M61.46231,91.05011a46.308,46.308,0,0,1-8.88523-.85342A56.77484,56.77484,0,0,0,50.64927,96.315c-.21624,1.67139-.39134,5.39467-.39134,5.39467a4.91508,4.91508,0,0,0,3.12687,4.6l6.70459.7145H63.284l6.70462-.7145a5.645,5.645,0,0,0,3.02552-5.15828s-.09005-2.49642-.30629-4.8364-2.90266-6.284-2.90266-6.284A31.63309,31.63309,0,0,1,61.46231,91.05011Z"/>
            <g>
              <path class="cls-12" d="M54.406,92.39568a4.62852,4.62852,0,0,0,.67692-1.60075c.03183-.1547-.20552-.22086-.23749-.06547a4.43921,4.43921,0,0,1-.6521,1.54191c-.08731.13283.12586.25635.21267.12431Z"/>
              <path class="cls-12" d="M51.12592,94.55805a4.58759,4.58759,0,0,0,2.52973-1.26361c.11525-.10928-.05912-.28323-.17415-.17415a4.31221,4.31221,0,0,1-2.35558,1.19147c-.15482.02061-.15687.26717,0,.24629Z"/>
              <path class="cls-12" d="M50.85853,96.34385a6.98222,6.98222,0,0,0,5.76219-5.43906c.02949-.15489-.20783-.22124-.23749-.06547a6.73767,6.73767,0,0,1-5.5247,5.25824c-.15537.01881-.15726.26532,0,.24629Z"/>
              <path class="cls-12" d="M72.28288,94.31616a4.648,4.648,0,0,1-3.81465-3.51724c-.03255-.155-.27-.08942-.23749.06547a4.88472,4.88472,0,0,0,3.98667,3.68926c.155.02092.22206-.21635.06547-.23749Z"/>
              <path class="cls-12" d="M70.26591,95.34617a6.81662,6.81662,0,0,1-3.44531-4.43739c-.02948-.15555-.2669-.08968-.23749.06547a7.05678,7.05678,0,0,0,3.5585,4.58458.12323.12323,0,0,0,.1243-.21266Z"/>
              <path class="cls-12" d="M72.42,96.08473a5.34836,5.34836,0,0,1-1.26307-.31465.12416.12416,0,0,0-.15148.086.12583.12583,0,0,0,.086.15148A5.60065,5.60065,0,0,0,72.42,96.331a.12387.12387,0,0,0,.12314-.12315.12607.12607,0,0,0-.12314-.12314Z"/>
              <path class="cls-12" d="M63.30946,91.30052c.02142,1.50943.04089,3.01954.08865,4.52844.005.1581.25132.1588.24629,0-.04776-1.5089-.06723-3.019-.08865-4.52844a.12322.12322,0,0,0-.24629,0Z"/>
            </g>
            <path class="cls-14" d="M82.52878,109.55818a4.76659,4.76659,0,1,0-7.78106-5.50788L62.535,126.036a14.36443,14.36443,0,0,0,2.63184,2.26136,10.18906,10.18906,0,0,0,3.755,1.40277Z"/>
            <path class="cls-14" d="M50.5064,100.136c.25143-2.71548,3.24932-3.63377,5.92413-3.102.1039.02069,23.02036,4.92655,23.19671,4.9616a4.76666,4.76666,0,0,1,3.74554,5.60475c-.50214,2.52521-3.012,3.46334-5.53328,3.05468l-1.65654-.3313C47.75933,108.68849,50.09226,104.60866,50.5064,100.136Z"/>
            <path class="cls-12" d="M59.24547,97.7185q6.47238,1.183,12.895,2.61885,3.19051.714,6.36646,1.49029a9.8211,9.8211,0,0,1,2.47619.83149,4.44872,4.44872,0,0,1,1.75406,1.90668c.94824,1.86616.20087,3.90968-.71619,5.62635-.07467.13976.13787.26431.21266.1243a7.0794,7.0794,0,0,0,1.07374-4.92631,5.10826,5.10826,0,0,0-1.1482-2.099,4.757,4.757,0,0,0-2.18131-1.3211c-.95291-.31065-1.94592-.513-2.91967-.74622q-1.67439-.40107-3.35287-.7848-3.3569-.76744-6.72919-1.46532-3.8237-.79128-7.6652-1.49268c-.155-.02832-.22141.209-.06547.23749Z"/>
            <path class="cls-12" d="M72.20491,97.8997a3.59887,3.59887,0,0,0-.78145.18407,1.72021,1.72021,0,0,0-.688.39378c-.10848.11545.06534.29.17415.17416a1.47594,1.47594,0,0,1,.59795-.337,3.40443,3.40443,0,0,1,.69735-.16869.127.127,0,0,0,.12315-.12314.12389.12389,0,0,0-.12315-.12314Z"/>
            <path class="cls-12" d="M58.26552,97.505a4.30508,4.30508,0,0,0-2.14151-.50409.12322.12322,0,0,0,0,.24629,4.04863,4.04863,0,0,1,2.0172.47046c.13988.07439.26446-.13813.12431-.21266Z"/>
            <path class="cls-12" d="M57.327,96.43536a.7.7,0,0,1,.08853-.00422q.02214.00041.04423.00229l.01959.00192c.01558.0012-.02254-.004.0014.00028a.82939.82939,0,0,1,.08642.01962l.04218.01376c.008.00289.04611.02028.0209.00781.02511.01242.05028.02416.07445.03844q.0191.01128.03749.0237l.02015.01416c.00225.00164.019.01491.00717.00524-.01321-.01083.008.00687.01046.009l.01481.013q.01646.01484.03192.03071t.02988.0327l.01258.01517c-.01875-.02171.00189.00288.00452.00654a.126.126,0,0,0,.16849.04417.12457.12457,0,0,0,.04418-.16848.84171.84171,0,0,0-.75935-.35207.1261.1261,0,0,0-.12314.12315.12441.12441,0,0,0,.12314.12314Z"/>
            <path class="cls-12" d="M70.65918,97.3313a.84558.84558,0,0,0-.56889.56355.12438.12438,0,0,0,.086.15148.12567.12567,0,0,0,.15148-.086L70.3411,97.92l.00761-.01982c.00884-.0231-.01122.02414-.0013.0034a.84365.84365,0,0,1,.03961-.075l.02313-.03559.01235-.01728c.01511-.021-.01838.02253-.002.00247a.80405.80405,0,0,1,.05684-.06315c.0202-.02.04336-.03659.06377-.05613l-.01368.01065.01141-.00839.01741-.01216.03585-.02274c.02341-.01388.04763-.02575.07222-.03733.01127-.00531-.02908.01164-.00334.00146l.01986-.0075c.01445-.0052.02906-.00981.04381-.01407a.12317.12317,0,0,0-.06547-.23749Z"/>
            <rect class="cls-27" x="33.24979" y="86.98947" width="76.41114" height="4.90909"/>
            <polygon class="cls-8" points="32.396 87.843 27.914 138.855 28.661 138.855 35.384 88.057 32.396 87.843"/>
            <polygon class="cls-8" points="110.942 87.843 115.424 138.855 114.677 138.855 107.953 88.057 110.942 87.843"/>
            <line class="cls-28" x1="57.58184" y1="53.71964" x2="58.94248" y2="53.15937"/>
            <path class="cls-12" d="M52.57085,95.75712a12.48481,12.48481,0,0,0-.2828,4.21,3.29656,3.29656,0,0,0,1.45758,2.29712,6.91017,6.91017,0,0,0,1.50716.5171c.75021.19241,1.51131.34222,2.27288.4817,4.00081.73271,8.05051,1.1673,12.04986,1.90916.81617.15139,1.63144.31489,2.43539.52256a8.18571,8.18571,0,0,1,1.62013.54659,1.31723,1.31723,0,0,1,.73629,1.303,7.64931,7.64931,0,0,1-.99053,3.379,46.10194,46.10194,0,0,1-2.357,3.97356l-2.23213,3.63027L63.83079,126.589l-.09549.15531c-.08325.13539.1297.25924.21266.1243l4.35472-7.08238,2.58125-4.19808c.61086-.99349,1.27174-1.9566,1.85933-2.96384a16.61511,16.61511,0,0,0,1.59164-3.413,3.37717,3.37717,0,0,0-.00658-2.74042,1.98308,1.98308,0,0,0-.95605-.6101,13.10225,13.10225,0,0,0-1.84168-.53709c-3.88519-.9056-7.88461-1.31156-11.82-1.93869a38.75237,38.75237,0,0,1-4.89151-.978,3.505,3.505,0,0,1-1.18693-.50359c-1.16813-.92649-1.27876-2.57228-1.14157-3.93528.07243-.71966.20741-1.43117.31774-2.14553.02395-.15506-.21334-.22188-.23749-.06548Z"/>
            <path class="cls-29" d="M65.80641,53.509c0,.24067.08661.43588.19361.43588s.19371-.19521.19371-.43588c0-.24085-.08665-.436-.19371-.436S65.80641,53.26813,65.80641,53.509Z"/>
            <path class="cls-29" d="M61.99631,53.509c0,.24067.08665.43588.19364.43588s.19371-.19521.19371-.43588c0-.24085-.08664-.436-.19371-.436S61.99631,53.26813,61.99631,53.509Z"/>
            <g>
              <polygon class="cls-30" points="65.201 55.76 63.638 55.76 63.975 52.388 64.588 52.388 65.201 55.76"/>
              <path class="cls-31" d="M62.01367,55.68768a1.40992,1.40992,0,1,0-1.40988,1.41A1.40995,1.40995,0,0,0,62.01367,55.68768Z"/>
              <path class="cls-31" d="M68.34009,56.67993A.56847.56847,0,0,1,68.12,56.75a1.05362,1.05362,0,0,1-.30994.04,1.41,1.41,0,1,1,0-2.82007,1.17564,1.17564,0,0,1,.27.03c.03992.32007.08.64014.12988.92993.01.1001.03.19019.04.28028a.42578.42578,0,0,0,.02.10986l.03.24A6.99884,6.99884,0,0,1,68.34009,56.67993Z"/>
              <path d="M63.92942,56.36873a.96862.96862,0,0,0-.96636-.49291.63243.63243,0,0,0-.23956.99352,1.36663,1.36663,0,0,0,1.22321.54434c.36986-.03839.86667-.30684.86364-.73606-.00369-.52132-.68641-.43155-1.02209-.36633-.15778.03065-.091.27166.06646.24107a1.63038,1.63038,0,0,1,.49737-.03969c.07828.00938.17782.02977.20155.11512a.35607.35607,0,0,1-.14714.32811.81617.81617,0,0,1-.39994.19854,1.115,1.115,0,0,1-.95144-.28789.61468.61468,0,0,1-.22942-.4108.33632.33632,0,0,1,.16212-.32324c.27044-.13116.58678.16283.72573.3624C63.80484,56.626,64.02165,56.5012,63.92942,56.36873Z"/>
              <circle class="cls-32" cx="60.60375" cy="55.68768" r="1.40995"/>
              <path class="cls-32" d="M68.34009,56.67993A.56847.56847,0,0,1,68.12,56.75a1.05362,1.05362,0,0,1-.30994.04,1.41,1.41,0,1,1,0-2.82007,1.17564,1.17564,0,0,1,.27.03.03641.03641,0,0,1,.02991.01c.03.32007.06994.63013.1.91992.01.1001.03.19019.04.28028a.42578.42578,0,0,0,.02.10986l.03.24A6.99884,6.99884,0,0,1,68.34009,56.67993Z"/>
              <polygon class="cls-32" points="63.975 52.388 64.588 52.388 65.201 55.76 63.638 55.76 63.975 52.388"/>
            </g>
            <path class="cls-14" d="M95.31746,109.44322a4.76666,4.76666,0,0,0-8.7978-3.67189l-8.72392,23.1865a10.47692,10.47692,0,0,0,2.94272,1.99,8.63864,8.63864,0,0,0,3.249.69974Z"/>
            <polygon class="cls-33" points="65.995 62.946 62.682 67.999 65.498 69.49 69.06 64.189 65.995 62.946"/>
            <polygon class="cls-34" points="57.464 63.112 60.694 67.999 57.878 69.49 54.731 64.189 57.464 63.112"/>
            <path class="cls-26" d="M51.19456,64.71054a16.78438,16.78438,0,0,0-8.36672,5.6158c-3.78133,4.58589-7.804,9.25223-7.48222,13.35538s10.1372-.24136,10.45905-1.52862.48271-2.09181-.48275-2.49407c0,0,1.127.35141.96546-.80456,0,0,3.74233-3.767,5.33068-5.14187S54.77872,64.84741,51.19456,64.71054Z"/>
            <path class="cls-21" d="M50.73234,81.10927c-.005-.0002-11.972-1.10955-12.01332-1.11326a3.127,3.127,0,0,0-.55371,6.22937c.02246.002.04438.00106.06674.00255,4.25969.52059,13.27391-.57636,13.27391-.57636s2.62574-.96553,2.437-2.48727S52.316,81.17645,50.73234,81.10927Z"/>
            <path class="cls-34" d="M42.62029,80.35076s-4.137-2.05945-6.30921-.69173-3.29863,5.6318,1.20681,6.35586c0,0-2.23547-1.36268-2.043-3.09494s1.47978-2.85866,3.8934-2.77821S42.62029,80.35076,42.62029,80.35076Z"/>
            <path class="cls-25" d="M71.513,64.78187s4.09015-.42741,9.30829,5.78467c3.93581,4.68547,8.81144,6.63186,9.12345,10.85756s-4.03525,3.47022-5.23056,2.809c-3.89289-2.15351-9.111-6.95751-12.88257-10.41783C70.238,72.35312,67.887,65.47973,71.513,64.78187Z"/>
            <path class="cls-21" d="M98.38494,73.67683c-.00357.00364-8.24842,9.22916-8.277,9.261a3.21922,3.21922,0,0,1-4.78436-4.30853c.01549-.01722.0327-.03189.04853-.04867C88.21871,75.202,95.784,69.70982,95.784,69.70982s2.65654-1.11268,3.581.167S99.53186,72.516,98.38494,73.67683Z"/>
            <path class="cls-31" d="M90.10793,82.93778l-4.54644.23785S87.21888,85.12121,90.10793,82.93778Z"/>
            <path class="cls-21" d="M102.14226,70.57818s2.207-1.13882,2.76435-.99224c.44623.11734-.70919,1.07157-2.4257,2.12854a65.952,65.952,0,0,1-6.49346,2.66859c-.983.79536-2.02828.99966-2.82364.01667s-1.15764-.88248-.17465-1.67781c.09644-.078.5176-.73513.6218-.795l.06738-.63834s4.44595-3.2926,6.28368-2.45667a5.51556,5.51556,0,0,1,1.20256-2.02539c.8715-.871-.01,1.83321-.01,1.83321s1.33729-2.24339,1.86233-2.00456-1.25387,2.7566-1.25387,2.7566.729-.88228,1.31088-1.55833C104.01467,66.74041,105.37292,66.47108,102.14226,70.57818Z"/>
            <path class="cls-34" d="M92.97391,79.62493s-1.8459,4.69666-4.41934,5.29784-6.51115-1.65924-3.78144-5.48267c0,0-.61955,2.62312.78836,3.73553s3.1642.98472,4.85171-.8411S92.97391,79.62493,92.97391,79.62493Z"/>
            <path class="cls-28" d="M63.42471,53.55958a1.46782,1.46782,0,0,1,1.61792.0273"/>
            <path class="cls-34" d="M63.23423,71.86418a.33131.33131,0,1,0-.3313.3313A.3313.3313,0,0,0,63.23423,71.86418Z"/>
            <circle class="cls-34" cx="63.01336" cy="75.50858" r="0.3313"/>
            <path class="cls-34" d="M63.56556,78.8217a.33132.33132,0,1,0-.33133.3313A.33134.33134,0,0,0,63.56556,78.8217Z"/>
            <path class="cls-34" d="M63.4551,82.90783a.33131.33131,0,1,0-.33131.33134A.3313.3313,0,0,0,63.4551,82.90783Z"/>
            <path class="cls-12" d="M52.07508,86.11052a3.12294,3.12294,0,1,1,6.24587,0"/>
            <path class="cls-7" d="M55.198,86.11052H58.321A3.12292,3.12292,0,0,0,55.198,82.98757"/>
            <path class="cls-21" d="M55.50343,81.4921s2.45722-.40032,2.81861-.85108c.2893-.36084-1.21083-.43962-3.22417-.26616a66.11923,66.11923,0,0,0-6.82254,1.72706c-1.26644-.05371-2.23023.40573-2.28393,1.67216s-.40556,1.40175.86087,1.45549c.12426.00527.85567.28308.97536.26909l.43534.4739S52.48959,87.15718,54.79005,84.2a5.52927,5.52927,0,0,0,2.17751.91325c1.22179.18122-1.10237-1.47039-1.10237-1.47039s2.41618,1.00843,2.69643.50265S55.90627,82.674,55.90627,82.674s1.11377.27539,1.98594.4725C59.30233,83.46511,60.557,82.87125,55.50343,81.4921Z"/>
            <polygon class="cls-12" points="58.955 85.972 84.383 85.972 83.441 84.979 59.897 84.979 58.955 85.972"/>
            <g>
              <path class="cls-14" d="M79.554,77.525s2.215,7.9776-.83256,7.85192l-6.857-.28277-.03665.88888,8.3808.3456a51.04773,51.04773,0,0,0,6.56084-.32586c2.81456-.39273-.84535-8.72389-.84535-8.72389Z"/>
              <path class="cls-13" d="M81.13347,82.40776a21.88057,21.88057,0,0,0-.65045-3.89044l-.69232-.02855c.477,2.11825,1.17383,6.46827-1.21352,6.52793-3.03419.07585-6.71272.07749-6.71272.07749l-.03665,1.13619,7.43206-.22757C81.00452,86.07867,81.19422,83.856,81.13347,82.40776Z"/>
              <polygon class="cls-8" points="99.268 59.295 72.903 57.826 68.772 78.58 69.6 79.326 94.851 78.904 99.268 59.295"/>
              <path class="cls-12" d="M86.52436,67.91421a1.12869,1.12869,0,1,0-1.63535.49446A1.21456,1.21456,0,0,0,86.52436,67.91421Z"/>
              <polygon class="cls-7" points="72.355 57.231 73.474 57.85 69.693 79.381 68.581 78.572 72.355 57.231"/>
              <polygon class="cls-35" points="72.355 57.231 98.311 58.654 99.268 59.295 73.474 57.85 72.355 57.231"/>
              <path class="cls-12" d="M89.65194,76.67271l-11.78807-.34614a1.66655,1.66655,0,0,1-1.59161-1.94925l.08726-.50552a1.66654,1.66654,0,0,1,1.762-1.37881l12.28892,1.06967a1.44616,1.44616,0,0,1,1.44881,1.69724h0A1.987,1.987,0,0,1,89.65194,76.67271Z"/>
              <path class="cls-14" d="M78.47747,75.51487q.14723-.99447.29448-1.98894a2.53734,2.53734,0,0,1,.06415,1.12446A2.08993,2.08993,0,0,1,78.47747,75.51487Z"/>
              <path class="cls-14" d="M80.09648,75.58161c.09818-.66295.19252-1.2338.2907-1.89678a2.70681,2.70681,0,0,1,.0938,1.05064A1.13744,1.13744,0,0,1,80.09648,75.58161Z"/>
              <path class="cls-14" d="M81.55676,75.64185c.09818-.663.19429-1.21788.29244-1.88082a3.53323,3.53323,0,0,1,.04979,1.00279A1.91913,1.91913,0,0,1,81.55676,75.64185Z"/>
              <path class="cls-14" d="M83.1123,75.706c.09815-.663.191-1.13851.28917-1.80149a2.3068,2.3068,0,0,1,.029,1.02947A1.58187,1.58187,0,0,1,83.1123,75.706Z"/>
              <path class="cls-14" d="M84.5865,75.81449c.09815-.663.191-1.13851.28917-1.80149a2.77413,2.77413,0,0,1,.02948,1.09114A1.48209,1.48209,0,0,1,84.5865,75.81449Z"/>
              <path class="cls-14" d="M85.84242,75.81857c.04656-.31449.09192-.58678.13722-.85692.05019-.29935.10032-.596.15192-.94456a5.01385,5.01385,0,0,1,.02144,1.03035A2.13288,2.13288,0,0,1,85.84242,75.81857Z"/>
              <path class="cls-14" d="M87.20745,75.87486c.09818-.663.191-1.13851.28917-1.80149a2.6477,2.6477,0,0,1,.08855,1.00242A1.13342,1.13342,0,0,1,87.20745,75.87486Z"/>
              <path class="cls-14" d="M88.46139,75.92656c.09819-.663.1884-1.075.28655-1.738A3.1,3.1,0,0,1,88.7763,75.331C88.66286,75.84151,88.46139,75.92656,88.46139,75.92656Z"/>
              <path class="cls-14" d="M89.7947,75.98155c.04424-.29859.08682-.54628.12926-.78893.05179-.29608.10336-.58467.15729-.949a3.18017,3.18017,0,0,1,.01379,1.13C89.98161,75.88405,89.7947,75.98155,89.7947,75.98155Z"/>
            </g>
            <path class="cls-22" d="M35.84613,81.29l1.32154,4.64578A3.34651,3.34651,0,0,1,35.84613,81.29Z"/>
            <polygon class="cls-19" points="117.665 85.989 24.819 85.989 32.396 88.737 110.942 88.737 117.665 85.989"/>
            <path class="cls-14" d="M58.70633,54.96736a2.10106,2.10106,0,1,0-2.09828,2.20871A2.15564,2.15564,0,0,0,58.70633,54.96736Z"/>
            <path class="cls-14" d="M56.608,54.636a.33132.33132,0,0,1-.3313-.33131V47.89944a5.7956,5.7956,0,0,1,1.99094-4.45473,5.58971,5.58971,0,0,1,4.80026-1.173c1.08436.19558,1.97144.77538,1.78839.77538-.18636,0-.57978-.10352-1.73938-.26919A5.63859,5.63859,0,0,0,58.696,43.95025a5.13506,5.13506,0,0,0-1.7567,3.94919v6.40524A.33133.33133,0,0,1,56.608,54.636Z"/>
            <path class="cls-13" d="M58.07684,54.96736a1.47074,1.47074,0,1,0-1.46879,1.54611A1.50895,1.50895,0,0,0,58.07684,54.96736Z"/>
            <path class="cls-36" d="M56.776,55.31571s.5229,2.76248,4.25261,2.97039"/>
            <path class="cls-13" d="M62.13846,58.42246a.7985.7985,0,1,1-.70017-.75364A.73281.73281,0,0,1,62.13846,58.42246Z"/>
            <path class="cls-37" d="M63.32775,54.146a1.67492,1.67492,0,0,0-1.17669-1.96382c-.90451-.32844-3.41325-.28219-3.45222.05166a6.10649,6.10649,0,0,0,2.13674,2.65437A1.83692,1.83692,0,0,0,63.32775,54.146Z"/>
            <path class="cls-38" d="M63.32775,54.146a1.67492,1.67492,0,0,0-1.17669-1.96382c-.90451-.32844-3.41325-.28219-3.45222.05166a6.10649,6.10649,0,0,0,2.13674,2.65437A1.83692,1.83692,0,0,0,63.32775,54.146Z"/>
            <path class="cls-38" d="M65.23235,54.49464a1.61325,1.61325,0,0,1,.77-2.06636c.79907-.46972,3.18332-.86592,3.27875-.55657a5.88243,5.88243,0,0,1-1.5582,2.88882A1.7694,1.7694,0,0,1,65.23235,54.49464Z"/>
            <path class="cls-39" d="M65.23235,54.45415a1.61325,1.61325,0,0,1,.77-2.06636c.79907-.46971,3.18332-.86591,3.27875-.55656A5.88241,5.88241,0,0,1,67.72292,54.72,1.76939,1.76939,0,0,1,65.23235,54.45415Z"/>
          </g>
          <g>
            <path class="cls-27" d="M105.25793,7.97814l-1.24088-.34808a3.20252,3.20252,0,0,0-.16383-.75922l.98887-.82766L103.991,4.81081h0l-1.12619.63275a3.20428,3.20428,0,0,0-.65036-.419l.11428-1.288L100.8555,3.467h0l-.35019,1.2483a3.203,3.203,0,0,0-.75167.16291l-.8331-.99537h0l-1.23233.85107h0l.63691,1.13365a3.202,3.202,0,0,0-.41543.64365l-1.29567-.115h0l-.2696,1.47322h0l1.25245.35134a3.20313,3.20313,0,0,0,.16053.74908l-.99714.83457h0l.85111,1.23237,1.1316-.63579a3.203,3.203,0,0,0,.64528.41856L99.27352,12.111h0l1.47318.26964h0l.34927-1.245a3.20465,3.20465,0,0,0,.7566-.16148l.82909.9906h0l1.23238-.851-.63164-1.12425a3.20314,3.20314,0,0,0,.4221-.652l1.28372.11394h0Zm-3.91417,1.51745a1.66626,1.66626,0,0,1-1.81561-2.62928,1.39322,1.39322,0,0,1,.74163-.51218,1.66624,1.66624,0,0,1,1.81564,2.62935A1.39333,1.39333,0,0,1,101.34376,9.49559Z"/>
            <path class="cls-10" d="M95.83989,13.20233l-.876.118a2.1971,2.1971,0,0,0-.30955-.43356l.39783-.79-.87088-.54478-.53727.70456a2.19812,2.19812,0,0,0-.52344-.08708l-.278-.8422-1.00105.2306.11874.8813a2.19645,2.19645,0,0,0-.42908.30687l-.79519-.40039-.54475.87085.70919.5408a2.19792,2.19792,0,0,0-.08671.51824l-.8472.27971.2306,1.001.88419-.11911a2.19761,2.19761,0,0,0,.30469.42809l-.40114.79655.87088.54479.53986-.70794a2.196,2.196,0,0,0,.52011.08821l.27879.84441,1.001-.23057-.1184-.87895a2.19516,2.19516,0,0,0,.43258-.30731l.79135.39852.54479-.87088-.70331-.53631a2.19863,2.19863,0,0,0,.08862-.52532l.83937-.27716Zm-2.01807,1.99054a1.14612,1.14612,0,0,1-1.87813-1.18993.89679.89679,0,0,1,.2791-.43881,1.1461,1.1461,0,0,1,1.8782,1.18993A.89663.89663,0,0,1,93.82182,15.19287Z"/>
          </g>
          <g>
            <polygon class="cls-13" points="59.384 31.712 61.419 24.475 71.144 23.909 73.292 14.411 42.649 13.733 45.023 24.701 56.444 24.588 59.384 31.712"/>
            <text class="cls-40" transform="translate(47.52358 22.50854) rotate(-2.05334)">?</text>
            <text class="cls-41" transform="matrix(0.91655, 0.39992, -0.39992, 0.91655, 50.88969, 22.10434)">?</text>
            <text class="cls-42" transform="matrix(0.83481, -0.55054, 0.55054, 0.83481, 46.21213, 20.41447)">?</text>
            <polygon class="cls-43" points="55.225 17.607 55.225 17.393 69.838 17.019 69.713 17.558 55.225 17.607"/>
            <polygon class="cls-43" points="55.153 18.875 55.153 19.516 69.425 19.302 69.425 19.088 55.153 18.875"/>
            <polygon class="cls-43" points="55.153 20.997 69.281 20.516 69.065 21.104 55.153 21.211 55.153 20.997"/>
          </g>
          <g>
            <polygon class="cls-7" points="124.788 55.352 82.979 48.355 74.597 53.862 83.145 27.314 135.301 24.751 124.788 55.352"/>
            <g>
              <g>
                <path class="cls-21" d="M87.25809,31.48927c-.64818-2.136-3.15362-5.78739-3.49-6.33354a1.20014,1.20014,0,0,1-.11217-.41383.24856.24856,0,0,1,.14055-.24564c.09138-.03193.182.0279.267.07248A11.52936,11.52936,0,0,1,85.465,25.63262a9.20817,9.20817,0,0,1-1.75744-1.97229c-.15645-.24987-.19321-.43551-.13423-.55381.06575-.13167.21835-.1268.35237-.08542a3.00519,3.00519,0,0,1,1.00776.68313c.60413.514.41243.33756,1.0165.85148-.55482-.60016-1.82956-2.01334-1.66859-2.32432s.82688.12544,1.00966.29526c.66918.62125.8068.6446,1.476,1.26592-.82755-.86717-1.77286-1.90457-1.50748-2.12877s2.07364,1.28277,2.7356,2.094c.16216-.68963.4125-1.44456.69678-1.17094.32728.31506.60287,2.7764.49689,4.32183Z"/>
                <path class="cls-21" d="M104.22,37.45C99.95,40.53,96.66,42.03,94.12,42.40991a.56963.56963,0,0,1-.13.02c-.11.02-.21.03028-.31006.04-.10986.02-.21.02-.30993.03-.13,0-.26.01-.39.01A5.91787,5.91787,0,0,1,91,42.27a1.203,1.203,0,0,1-.17993-.05A5.57354,5.57354,0,0,1,89.4,41.5a.25322.25322,0,0,1-.1-.07983c-2.14-1.56006-3.15-4.63013-3.71-7.81006A30.03934,30.03934,0,0,1,85.41,27.75v-.01c.01-.23.01-.44995.0199-.66992l3.76-1.74.02-.01c.22,3.93994,1.55,9.49,2.86011,10.71,2.77,2.6001,10.12988-4.23,10.12988-4.23S111.05005,32.52,104.22,37.45Z"/>
                <path class="cls-31" d="M94.12,42.40991v.03028c-.03992,0-.09.00976-.13.00976-.11.01026-.21.02-.31006.02-.10986.02-.21.02-.30993.03-.13,0-.26.01-.39.01A7.67876,7.67876,0,0,1,91,42.27a1.203,1.203,0,0,1-.17993-.05A5.57354,5.57354,0,0,1,89.4,41.5a.72948.72948,0,0,1,.16-.3,2.15521,2.15521,0,0,1,1.80994-.54,3.25448,3.25448,0,0,1,.68.09009,3.075,3.075,0,0,1,1.87,1.12012A1.05455,1.05455,0,0,1,94.12,42.40991Z"/>
              </g>
              <path class="cls-14" d="M121.25535,26.6186a2.8179,2.8179,0,0,0-.03808,1.454.9698.9698,0,0,0,1.13.6884,1.41728,1.41728,0,0,0,.67026-.70307q2.15123-3.70809,4.30241-7.4162c.76575-1.31994,1.55962-2.78107,1.30846-4.28624-.10887-.65253-.60652-1.37473-1.25793-1.25929a3.0067,3.0067,0,0,0-.81728-2.875,6.919,6.919,0,0,0-2.675-1.58245c-2.4011-.89682-5.10808-1.43684-6.83235-3.33324a2.05047,2.05047,0,0,0-.88514-.71158c-.66784-.18088-1.30639.52869-1.32922,1.22022A3.4896,3.4896,0,0,0,115.56652,9.72a1.28267,1.28267,0,0,0-1.65645-.0048.87741.87741,0,0,0,.362,1.43013,1.62056,1.62056,0,0,0-1.34338,1.58559,3.68336,3.68336,0,0,0,.73128,2.11343,50.67777,50.67777,0,0,0,4.18687,4.82653c1.37618,1.629,2.52038,3.65127,2.33344,5.77552Z"/>
              <path class="cls-44" d="M125.37637,15.07172l.00554.00337-.00262.01Z"/>
              <path class="cls-21" d="M125.89,22.49a1.48783,1.48783,0,0,1-.02.21,1.724,1.724,0,0,1-.22.6001,1.50158,1.50158,0,0,1-.18.26,1.79714,1.79714,0,0,1-1.66992.59985,1.95113,1.95113,0,0,1-.71-.2998l-.12012.47-.27,1.04L121.82007,28.74l-.02.06006-.05.21a5.37054,5.37054,0,0,1-.09.53,4.09427,4.09427,0,0,1-4.99,2.92017,3.81921,3.81921,0,0,1-1.20007-.53028,4.06042,4.06042,0,0,1-1.74-4.3999c0-.02.01-.03.01-.05.05-.16992.1001-.32983.16-.48l.32-1.22.26-.98c-1.55-1.01-1.67993-2.67993-1.26-4.25,0-.01.01-.01.01-.02.04-.13989.08008-.27.12012-.40991.06994-.21021.1499-.40991.23-.61011.04992-.10986.09985-.24.1499-.36987.05-.13013.11011-.26.17-.41016a1.86186,1.86186,0,0,0,.1-.25c.05-.12988.1001-.26.16-.3999.22-.55.45-1.13989.67-1.69995.55993-1.41992,1.03992-2.68994,1.06994-2.73.72.0498,8.01-.01,7.65,3.47-.29,1.05981-1.04,2.13989-1.33008,3.21-.04.15991-.04.3999.12012.42993a.30736.30736,0,0,0,.25-.10986q.20983-.1952.41992-.39014c-.38.49-.93994,1.49-.57007,1.75.24.18018.82007-.29,1.26-.81982a3.52432,3.52432,0,0,0,.29-.42017.59623.59623,0,0,0,.09009-.1499H124.13a1.46342,1.46342,0,0,1,.29.02,1.79361,1.79361,0,0,1,1.11.65991,1.71034,1.71034,0,0,1,.35.87988A1.06291,1.06291,0,0,1,125.89,22.49Z"/>
              <path class="cls-45" d="M124.38372,22.64028a1.36561,1.36561,0,0,0-.49844-.68455.45889.45889,0,0,1,.28983-.07569,3.833,3.833,0,0,1,.66334.09216.93961.93961,0,0,0-1.0086-.14124.998.998,0,0,0-.5893.8292s.29461-.57055.55639-.6282Z"/>
              <path class="cls-46" d="M114.47694,24.79747a6.356,6.356,0,0,0,2.27018.84754l-2.86744,1.44653Z"/>
              <path class="cls-14" d="M116.26329,15.1927c-.00807-.58807.84951-.80394,1.30792-.72988.25011.04046.5959.24714.6072.53144.01222.311-.27658.36881-.521.39549l.21168-.05742a2.13137,2.13137,0,0,1-.66873.11265c-.2172.03611-.465.16359-.68065.07984a.36112.36112,0,0,1-.25646-.33212Z"/>
              <path class="cls-14" d="M121.72319,17.045c-.27967-.051-.40069-.2484-.60444-.42479a2.23356,2.23356,0,0,1-.533-.4712l.14423.16505c-.19535-.15083-.39624-.362-.216-.61237a.71456.71456,0,0,1,.77879-.12963c.444.18044,1.05618.81286.73683,1.321a.33686.33686,0,0,1-.30643.152Z"/>
              <polygon class="cls-46" points="116.452 20.521 117.934 20.895 118.42 17.618 117.839 17.472 116.452 20.521"/>
              <path class="cls-47" d="M119.5107,21.13749a1.37838,1.37838,0,1,1,.99986,1.67343A1.37838,1.37838,0,0,1,119.5107,21.13749Z"/>
              <path class="cls-47" d="M115.47,19.46021V19.47a1.23854,1.23854,0,0,1-.03.27.127.127,0,0,1-.01.06006,1.56737,1.56737,0,0,1-.06994.2,1.263,1.263,0,0,1-.43006.56006q-.08989.06006-.17993.11987c-.07007.03028-.14.06006-.21.09009a1.37106,1.37106,0,0,1-.78.03,1.3316,1.3316,0,0,1-.53-.27c.04-.13989.08008-.27.12012-.40991.06994-.21021.1499-.40991.23-.61011.04992-.10986.09985-.24.1499-.36987a3.85874,3.85874,0,0,0,.17-.41016,1.86186,1.86186,0,0,0,.1-.25c.06006-.12988.11-.26.16-.38989a.84035.84035,0,0,1,.2699.04,1.20772,1.20772,0,0,1,.57007.2998.20647.20647,0,0,1,.07007.06006,1.00829,1.00829,0,0,1,.15991.2002.87213.87213,0,0,1,.12012.21c.00989.00976.00989.02978.0199.04.02.05981.04.12988.05993.18994A1.24045,1.24045,0,0,1,115.47,19.46021Z"/>
              <path class="cls-32" d="M115.47,19.46021V19.47a1.23854,1.23854,0,0,1-.03.27,1.1123,1.1123,0,0,1-.08.26,1.263,1.263,0,0,1-.43006.56006q-.08989.06006-.17993.11987c-.07007.03028-.14.06006-.21.09009a1.17829,1.17829,0,0,1-.46.09009,1.296,1.296,0,0,1-.86011-.31006c0-.01.01-.01.01-.02.04-.13989.08008-.27.12012-.40991.06994-.21021.1499-.40991.23-.61011.04992-.10986.09985-.24.1499-.36987.05-.13013.11011-.26.17-.41016a1.86186,1.86186,0,0,0,.1-.25c.05-.12988.1001-.26.16-.3999a1.14416,1.14416,0,0,1,.13807.03052.7217.7217,0,0,1,.13183.01953c.02344.00537.04273.01733.06543.02392a1.25356,1.25356,0,0,1,.17969.06568,1.19245,1.19245,0,0,1,.325.2102.20647.20647,0,0,1,.07007.06006,1.00829,1.00829,0,0,1,.15991.2002.87213.87213,0,0,1,.12012.21c.00989.00976.00989.02978.0199.04.02.05981.04.12988.05993.18994A1.24045,1.24045,0,0,1,115.47,19.46021Z"/>
              <circle class="cls-32" cx="120.90132" cy="21.40691" r="1.43289"/>
              <polygon class="cls-32" points="117.934 20.895 116.452 20.521 117.839 17.472 118.42 17.618 117.934 20.895"/>
              <path class="cls-10" d="M129.97,31.65015c-.93994-.5-1.87988-.98-2.76-1.38013A13.68971,13.68971,0,0,1,129.97,31.65015Z"/>
              <path class="cls-29" d="M120.29109,19.14651c-.06.22969-.19136.39437-.29336.36769s-.13633-.23452-.07637-.4642.19134-.39436.29346-.36772S120.35112,18.91673,120.29109,19.14651Z"/>
              <path class="cls-29" d="M116.182,18.07386c-.05993.22975-.19126.39436-.29335.36771s-.1363-.23448-.0763-.46416.19132-.39436.29346-.36778S116.242,17.84411,116.182,18.07386Z"/>
              <g>
                <polygon class="cls-20" points="125.763 26.458 130.65 20.029 126.623 17.051 122.003 23.593 125.763 26.458"/>
                <polygon class="cls-19" points="123.279 21.818 125.625 18.518 129.583 21.501 126.928 24.717 123.279 21.818"/>
                <path class="cls-48" d="M127.52753,21.30476a.41809.41809,0,0,0-.61516-.10077.50523.50523,0,0,0-.15243.65672.41806.41806,0,0,0,.61513.10077A.50519.50519,0,0,0,127.52753,21.30476Z"/>
              </g>
              <path class="cls-21" d="M143.65,34.01a9.08585,9.08585,0,0,0-.21008-1.62988A7.10781,7.10781,0,0,0,143.17,31.45c-2.24011-6.10986-12.75-9.77978-13.02-9.91992-.16-.08984-.31994-.16992-.46008-.24-.47-.26-.84985-.45-1.16992-.59009a3.68169,3.68169,0,0,0-1.04-.34985c-.3-.02-.31995.12988-.18994.34009a2.49534,2.49534,0,0,0,.6499.6499c-.31994-.16992-.58-.3-.79993-.39014-.99-.42993-1.06994-.13989-.43005.54a.46245.46245,0,0,0,.07007.07007c.13.13989.29.29.48.46.09009.08008.18994.15991.29.24-.13-.08008-.26-.15991-.38-.22-.16-.09985-.31005-.17993-.45007-.26-.02-.01-.03-.01-.04993-.02a3.60571,3.60571,0,0,0-1.14-.46c-.36-.02-.13.37012.35.87988.1.1001.2201.22022.35.34009.2.17993.42.36011.65.54-.19006-.13013-.44006-.28-.71-.42993h-.01c-.09-.05005-.18005-.1001-.27-.14014-.86-.42993-1.6-.59985-.24.81006l.08.08008q.46509.47973,1.29,1.23c.03.02.05.0498.08008.06982a1.30418,1.30418,0,0,1-.1001.15015,1.44576,1.44576,0,0,1-.11.1499c-.03991.07007-.09.13013-.13.19019a4.28735,4.28735,0,0,0-.34.47c.5199.07983.77991-.12012,1.25989-.52.01-.01.03-.02.05-.04a.35556.35556,0,0,1,.09009.04A25.73286,25.73286,0,0,1,134.01,28.5c4.22,3.17993,5.09009,6.54,2.29,7.15991a3.6925,3.6925,0,0,1-1.44006-.01977,9.75231,9.75231,0,0,1-1.85-.54c-.37-.13989-.74-.3-1.1-.47-.05-.02-.09-.04-.13-.06006a37.12547,37.12547,0,0,1-5.15-3.03l-1.69006,7.86011Q126.35,39.8949,127.64,40.27c.56995.15991,1.12.31006,1.66.44019h.01c.15991.03979.30994.06982.47.10986.54.12012,1.06006.23,1.56006.31006a.03653.03653,0,0,0,.02991.01c.68.11987,1.32995.19995,1.95007.26,5.79993.54,8.78992-1.49024,9.85986-4.28.02-.05.04-.11011.06006-.15991A7.65219,7.65219,0,0,0,143.65,34.01Z"/>
              <path class="cls-30" d="M143.32591,36.96874c-1.0097-.04-1.58811-1.28638-1.55568-2.69347a2.58817,2.58817,0,0,1,1.34948-2.40579c.00561.02746.204.49646.21144.52348A7.13874,7.13874,0,0,1,143.32591,36.96874Z"/>
              <path class="cls-10" d="M127.21,30.27a33.69007,33.69007,0,0,0-3.47-1.05981A10.424,10.424,0,0,1,127.21,30.27Z"/>
              <path d="M117.69182,21.53965c.44548-.324.96995-.29989,1.10427.038a.55294.55294,0,0,1-.12592.56817,1.11571,1.11571,0,0,1-.53842.28464,1.27332,1.27332,0,0,1-.98216-.15434c-.28693-.17945-.0377-.12614.16357-.39833a1.55735,1.55735,0,0,1,.37866-.33812Z"/>
              <path class="cls-14" d="M126.73128,15.88008a13.12328,13.12328,0,0,1,1.40852-2.52375,1.05046,1.05046,0,0,1,.46716-.42479.383.383,0,0,1,.5081.24122.537.537,0,0,1-.09049.32419,6.76912,6.76912,0,0,1-2.41274,2.54516Z"/>
              <path class="cls-32" d="M94,42.27a.85707.85707,0,0,1-.01.15991v.02c-.11.01026-.21.02-.31006.02-.10986.02-.21.02-.30993.03-.13,0-.26.01-.39.01A5.91787,5.91787,0,0,1,91,42.27a1.203,1.203,0,0,1-.17993-.05A5.57354,5.57354,0,0,1,89.4,41.5a.25322.25322,0,0,1-.1-.07983,1.43,1.43,0,0,1,.26-.22022,3.23713,3.23713,0,0,1,1.80994-.54.28306.28306,0,0,1,.09-.00976,2.6019,2.6019,0,0,1,2.46008,1.22A1.0982,1.0982,0,0,1,94,42.27Z"/>
              <path class="cls-32" d="M143.24,36.96021c-.02.0498-.04.10986-.06006.15991A3.563,3.563,0,0,1,143.17,31.45a7.10781,7.10781,0,0,1,.2699.93018A9.08585,9.08585,0,0,1,143.65,34.01,7.65219,7.65219,0,0,1,143.24,36.96021Z"/>
              <path class="cls-49" d="M134.99,34.45a23.8165,23.8165,0,0,1-2.24,8.26026c-2.09-.5503-3.89-1.09009-5.33-1.53028l-1.29,5.3-1.29992,8.91016L103.43994,51.77,104.51,43.90991l.35-4.75976c-1.34.66992-3.33,1.60986-6.02991,2.74A24.8638,24.8638,0,0,1,95.43994,34.98c3.26-2.37988,8.55-6.51,11.44006-7.24.09-.02.19007-.04.28-.06006,2.22-.53979,4.4-.19995,6.7-.13989a4.78806,4.78806,0,0,0,8.02,1.17017c.58.15991,1.21009.31982,1.84.48974.01,0,.01,0,.02.01026A33.69007,33.69007,0,0,1,127.21,30.27c.88013.40015,1.82007.88013,2.76,1.38013C131.73,32.6001,133.5,33.65015,134.99,34.45Z"/>
              <path class="cls-50" d="M124.89931,54.91563S110.59943,26.953,100.97982,30.96008"/>
              <path class="cls-50" d="M105.07952,52.04751S104.70244,27.02213,113.86,27.54"/>
              <path class="cls-50" d="M110.69048,52.99712s5.43328-23.00012,14.20883-23.257"/>
              <path class="cls-50" d="M119.4686,54.48275s3.38882-22.79282,10.50137-22.8326"/>
              <path class="cls-50" d="M120.44371,29.85793S124.88947,40.78718,132.75,42.71021"/>
            </g>
            <text class="cls-51" transform="translate(105.98133 12.69073) rotate(23.23726)">!</text>
          </g>
          <circle class="cls-19" cx="126.84969" cy="18.32729" r="0.29778"/>
        </g>
        <path class="cls-50" d="M36.19058,79.659c5.79889-9.46265,7.27521-9.91265,8.51563-11.29238A16.12874,16.12874,0,0,1,54.891,64.13323l2.73328-1.07666,3.23034,4.88671.942,1.32544,1.04578-1.32544L66.15553,62.891l3.0647,1.24219,2.00341.34765"/>
        <path class="cls-50" d="M46.04659,80.67512s-.02907-.83766-.72467-1.01609c0,0,1.4423.60617.96546-.80456L50.5,74.69638a6.973,6.973,0,0,0,1.50422,5.74116l.0784.59156"/>
        <path class="cls-50" d="M57.68152,84.22585a2.44241,2.44241,0,0,1,.63943,1.88467"/>
        <path class="cls-50" d="M61.63629,69.32413s8.14046,8.49716,9.04585,15.65442c0,0,.65456-4.05774.58621-4.541L71.7907,79.289"/>
        <line class="cls-50" x1="77.84188" y1="79.18796" x2="80.21994" y2="81.1383"/>
      </g>
    </g>
  </g>
</svg>
