<svg xmlns="http://www.w3.org/2000/svg" xmlns:xlink="http://www.w3.org/1999/xlink" width="67.66981mm" height="40.40003mm" viewBox="0 0 191.81995 114.51978">
  <defs>
    <style>
      .cls-1, .cls-16, .cls-18 {
        fill: none;
      }

      .cls-2 {
        clip-path: url(#clip-path);
      }

      .cls-3 {
        fill: #f7c4be;
      }

      .cls-4 {
        fill: #f4887c;
      }

      .cls-15, .cls-5 {
        opacity: 0.2;
      }

      .cls-12, .cls-13, .cls-14, .cls-15, .cls-5 {
        isolation: isolate;
      }

      .cls-6 {
        fill: #192e35;
      }

      .cls-7 {
        fill: #e0e4ee;
      }

      .cls-18, .cls-7, .cls-8 {
        stroke: #000;
      }

      .cls-16, .cls-18, .cls-7, .cls-8 {
        stroke-miterlimit: 10;
      }

      .cls-18, .cls-7 {
        stroke-width: 0.36595px;
      }

      .cls-11, .cls-8 {
        fill: #5273b8;
      }

      .cls-8 {
        stroke-width: 0.18298px;
      }

      .cls-9 {
        fill: #fafbef;
      }

      .cls-10 {
        fill: #4375ba;
      }

      .cls-12, .cls-13, .cls-14, .cls-15 {
        fill: #fff;
      }

      .cls-12 {
        opacity: 0.7;
      }

      .cls-13 {
        opacity: 0.8;
      }

      .cls-14 {
        opacity: 0.1;
      }

      .cls-16 {
        stroke: #192e35;
        stroke-linecap: round;
        stroke-width: 0.33897px;
      }

      .cls-17 {
        fill: #f49092;
      }

      .cls-19 {
        fill: #2350a2;
      }

      .cls-20 {
        fill: #c7d8ef;
      }

      .cls-21 {
        fill: #1f2a5b;
      }

      .cls-22 {
        fill: #586883;
      }

      .cls-23 {
        fill: #567cbd;
      }

      .cls-24 {
        fill: #4064a3;
      }

      .cls-25 {
        clip-path: url(#clip-path-2);
      }

      .cls-26 {
        fill: #fedcd0;
      }

      .cls-27 {
        clip-path: url(#clip-path-3);
      }

      .cls-28 {
        fill: #58595b;
      }

      .cls-29 {
        fill: #333;
      }

      .cls-30 {
        fill: #ef5a28;
      }
    </style>
    <clipPath id="clip-path">
      <path class="cls-1" d="M145.2,55.75c-9.68,6.35-19.3,7.02-27.28,7.58-77.17,5.42-81.79,5.84-93.98,3.03C15.31,64.37,7.3,62.47,0,59.41V9.86A9.86064,9.86064,0,0,1,9.86,0H146.24c9.46,5.41,17.49,12.67,18.67,22.4C166.45,35.19,155.73,48.86,145.2,55.75Z"/>
    </clipPath>
    <clipPath id="clip-path-2">
      <path class="cls-1" d="M191.82,144.76525v61.47a60.49625,60.49625,0,0,1-10.15,6c-16.31994,7.56006-34.85,3.88-71.25-3.79-48.28991-10.17993-50.84-17.58-76.53991-18.18994a124.03677,124.03677,0,0,0-33.88013,3.79v-49.28a9.86716,9.86716,0,0,1,9.86011-9.86h172.1A9.86073,9.86073,0,0,1,191.82,144.76525Z"/>
    </clipPath>
    <clipPath id="clip-path-3">
      <path class="cls-1" d="M146.69019-65.55521c-18.02,4.67993-27.17994-10.3-55.7-8.34-13.75.95-16.35009,4.75989-32.59008,9.1-10.15015,2.71-34.81006,9.3-58.40015,5.6v-73.04993a9.86085,9.86085,0,0,1,9.86011-9.8601H168.67017c6.38989,7.42,11.24,16.45007,11.75,27.29C181.41016-93.61527,165.56006-70.45524,146.69019-65.55521Z"/>
    </clipPath>
  </defs>
  <title>cards</title>
  <g id="Layer_1" data-name="Layer 1">
    <g class="cls-2">
      <g>
        <path class="cls-3" d="M27.83707-56.901H98.24014a78.79509,78.79509,0,0,1,78.79509,78.79509v.00016a78.79516,78.79516,0,0,1-78.79516,78.79516h-70.403A78.79513,78.79513,0,0,1-50.958,21.89431v-.00016A78.79511,78.79511,0,0,1,27.83707-56.901Z"/>
        <g>
          <g>
            <g>
              <g>
                <path class="cls-4" d="M71.80267,61.95244l-5.99385-6.15585s-9.88171-2.27406-11.17767-2.919-2.916,2.916-3.24,4.53739S58.195,60.6564,59.329,60.6564a4.86131,4.86131,0,0,0,2.26259-.731l4.70323,4.943Z"/>
                <path class="cls-5" d="M71.80267,61.95244l-5.99385-6.15585s-9.88171-2.27406-11.17767-2.919-2.916,2.916-3.24,4.53739S58.195,60.6564,59.329,60.6564a4.86131,4.86131,0,0,0,2.26259-.731l4.70323,4.943Z"/>
              </g>
              <path class="cls-6" d="M85.43735,14.56119c1.94794,2.82425,1.43092,7.86-.999,9.15806s1.32953,4.21406,1.39374,6.482-3.66173,4.8599-3.98572,8.09978-2.26792,9.5578,11.90671,11.33974,26.60075-.97844,29.05449-6.64511-6.573-7.65319-7.08154-9.98081,2.40738-2.52237,2.24539-5.98886-6.04357-3.2511-4.71322-7.03044c2.06735-5.87314-.832-11.4394-.832-11.4394Z"/>
              <g>
                <path class="cls-7" d="M119.84145,73.61033q.18387,1.7044.41536,3.41435c-.91671-.07505-1.84075-.09881-2.76659-.08421-.613.00916-1.22595.03659-1.83708.07688-.10612.00545-.21226.01278-.31837.02011q-.77673.05487-1.548.1354c-.1482.01465-.29456.02926-.44095.04574-.04208.00366-.08417.00916-.12625.01465q-.19759.01923-.39523.04391-.59284.06862-1.1802.14456-3.65859.46932-7.29156,1.07771c-.064-.011-.12627-.02377-.19028-.03476a93.86266,93.86266,0,0,0-10.02889-1.23874c-.16468-.011-.32936-.02015-.49585-.02926-.1226-.00733-.247-.01466-.37145-.02015-.161-.00916-.322-.01649-.48306-.02381-.18844-.00728-.37508-.01461-.56355-.0201-.21409-.00733-.42818-.01466-.64225-.02011-1.78217-.04029-3.579-.00732-5.36851.11709-.4684-1.387-.86547-2.76844-1.2003-4.13709-2.92394,2.68428-6.07663,4.40423-8.83586,4.03644-7.019-.93319-12.09652-13.56943-12.09652-13.56943l5.99061-5.66307,5.50757,4.83968S80.11019,43.80185,86.185,41.15965a10.53193,10.53193,0,0,1,1.9249-1.88461s2.20455,7.56012,11.84215,6.47c9.46288-1.07038,15.62366-8.69169,15.659-8.70411l.957.29455c2.01456.6569,3.23867,1.193,3.31368,1.22593l.00366.00183C125.8101,40.39849,126.77986,61.60169,119.84145,73.61033Z"/>
                <path class="cls-8" d="M115.72662,36.88557s-6.029,7.57515-15.659,8.7041c-9.63185,1.13993-11.84216-6.47-11.84216-6.47a21.26547,21.26547,0,0,1,12.3746-4.26517A45.23265,45.23265,0,0,1,115.72662,36.88557Z"/>
              </g>
              <g>
                <path class="cls-6" d="M111.75891,77.26552q.27939-.03585.56022-.07018l-11.43325.57716q1.70142.24317,3.39195.53673c.06334.011.12631.02363.18958.03489Q108.10251,77.74031,111.75891,77.26552Z"/>
                <path class="cls-5" d="M111.75891,77.26552q.27939-.03585.56022-.07018l-11.43325.57716q1.70142.24317,3.39195.53673c.06334.011.12631.02363.18958.03489Q108.10251,77.74031,111.75891,77.26552Z"/>
              </g>
              <path class="cls-6" d="M108.94262,77.65135l-.11034-1.0727-1.3351.13727.1163,1.13082Q108.27764,77.74657,108.94262,77.65135Z"/>
              <path class="cls-6" d="M88.22982,16.8011S84.31273-.80784,100.60262.93405c20.44677,2.18626,12.68032,27.5605,2.54547,26.02492S88.22982,16.8011,88.22982,16.8011Z"/>
              <path class="cls-9" d="M98.82675,41.87224c5.07209.62135,7.99691-4.97972,7.99691-4.97972-4.78717-3.29508-2.37307-10.66154-2.37307-10.66154l-7.69586,2.70566a23.55136,23.55136,0,0,1,.82569,3.28836c.80424,4.8006-1.36376,5.18413-1.36376,5.18413A3.2693,3.2693,0,0,0,98.82675,41.87224Z"/>
              <path class="cls-5" d="M96.75473,28.93664a23.55136,23.55136,0,0,1,.82569,3.28836c3.68344-1.47662,6.87017-5.994,6.87017-5.994Z"/>
              <g>
                <path class="cls-9" d="M96.99559,6.018C90.04,6.616,88.12139,10.53231,88.228,17.74391c.13317,9.01228,2.66643,15.20556,11.19871,12.54478C111.01454,26.67511,108.54679,5.02485,96.99559,6.018Z"/>
                <g>
                  <path class="cls-6" d="M96.89928,16.03388c.03571.57255.37411,1.01725.75584.99342s.66206-.50719.62627-1.07974-.374-1.01734-.75575-.9935S96.86357,15.46133,96.89928,16.03388Z"/>
                  <path class="cls-6" d="M97.68656,14.97183l-1.27564-.41064S97.09624,15.57026,97.68656,14.97183Z"/>
                </g>
                <g>
                  <path class="cls-6" d="M89.77466,16.3591c.03579.57254.37411,1.01733.75575.9935.38181-.02383.66223-.50728.62644-1.07974s-.37419-1.01734-.75583-.99342S89.739,15.78671,89.77466,16.3591Z"/>
                  <path class="cls-6" d="M90.562,15.29713l-1.27564-.41064S89.97163,15.89555,90.562,15.29713Z"/>
                </g>
                <path class="cls-6" d="M99.66341,12.31367a.29564.29564,0,0,1-.21309-.09041,3.36166,3.36166,0,0,0-2.83129-.70858.29668.29668,0,0,1-.126-.57984,3.89583,3.89583,0,0,1,3.38352.87573.29676.29676,0,0,1-.21318.5031Z"/>
                <path class="cls-6" d="M88.75241,12.47239a.29666.29666,0,0,1-.18476-.52865,3.53405,3.53405,0,0,1,2.98632-.86419.29664.29664,0,0,1-.15634.5723,2.96575,2.96575,0,0,0-2.46054.75576A.29415.29415,0,0,1,88.75241,12.47239Z"/>
                <path class="cls-6" d="M105.605,17.08766s-3.74339-5.43523-3.63-9.88941c0,0-14.26766-4.44615-13.74524,9.60285,0,0-2.41467-12.3072,9.5185-13.61175,11.91408-1.30267,13.38579,16.19235,7.65883,21.93511C105.40715,25.12446,107.92412,20.48871,105.605,17.08766Z"/>
                <path class="cls-9" d="M104.59514,18.65346a3.06369,3.06369,0,0,1,3.04512-3.07051c2.17562.04988,3.58328,4.38661-1.6866,5.9113C105.1975,21.71317,104.699,20.99853,104.59514,18.65346Z"/>
                <path class="cls-6" d="M94.5588,24.01605a4.624,4.624,0,0,1-.861-.08394.2967.2967,0,0,1,.1104-.583,3.0834,3.0834,0,0,0,3.59859-1.91592.29678.29678,0,0,1,.56026.196A3.7286,3.7286,0,0,1,94.5588,24.01605Z"/>
              </g>
              <path class="cls-6" d="M97.18453,6.53062s3.78606,11.2042,10.9798,10.438-5.17259-14.30141-5.17259-14.30141-12.142-3.4266-17.40738,3.31776S88.22982,16.8011,88.22982,16.8011,87.02445,7.97587,97.18453,6.53062Z"/>
              <path class="cls-6" d="M102.94334,16.05624a.21306.21306,0,0,1-.07281-.01319c-6.00319-2.27741-5.89238-10.25565-5.89083-10.336a.20476.20476,0,0,1,.20475-.2h.00442a.20511.20511,0,0,1,.20032.20917c-.00155.07755-.10433,7.76989,5.627,9.9437a.20482.20482,0,0,1-.07281.39631Z"/>
              <path class="cls-9" d="M115.72662,36.88557s-6.029,7.57515-15.659,8.7041c-9.63185,1.13993-11.84216-6.47-11.84216-6.47a21.26547,21.26547,0,0,1,12.3746-4.26517A45.23265,45.23265,0,0,1,115.72662,36.88557Z"/>
              <path class="cls-9" d="M86.563,59.61565s-9.2226-4.467-10.77645-4.791-7.5477-1.782-9.8157-1.944S61.759,59.09044,63.5409,59.87346s9.54913.78294,10.12044.78294,2.02927-1.24321,2.02927-1.24321l8.08577,5.30232Z"/>
              <g>
                <path class="cls-10" d="M91.69283,76.95715c.21406.00545.42815.01278.64224.0201-.21226-.00732-.42635-.01282-.64041-.01831Z"/>
                <path class="cls-11" d="M91.69283,76.95715c.21406.00545.42815.01278.64224.0201-.21226-.00732-.42635-.01282-.64041-.01831Z"/>
              </g>
              <g>
                <path class="cls-10" d="M26.668,24.35036a11.59474,11.59474,0,0,0-7.4455-5.71991c-5.27168-1.27277-8.6136,3.98842-8.6136,3.98842Z"/>
                <path class="cls-12" d="M26.668,24.35036a11.59474,11.59474,0,0,0-7.4455-5.71991c-5.27168-1.27277-8.6136,3.98842-8.6136,3.98842Z"/>
                <path class="cls-10" d="M19.22246,18.63045a9.038,9.038,0,0,0-7.79454,5.71991L-1.6017,25.9703a11.69964,11.69964,0,0,1,4.42077-5.83187,55.672,55.672,0,0,0,8.49255-1.508C16.66307,17.33057,19.22246,18.63045,19.22246,18.63045Z"/>
                <path class="cls-13" d="M19.22246,18.63045a9.038,9.038,0,0,0-7.79454,5.71991L-1.6017,25.9703a11.69964,11.69964,0,0,1,4.42077-5.83187,55.672,55.672,0,0,0,8.49255-1.508C16.66307,17.33057,19.22246,18.63045,19.22246,18.63045Z"/>
              </g>
            </g>
            <g>
              <g>
                <path class="cls-10" d="M55.08978,57.41653s-.86361-14.01264-5.9665-21.38345H30.49373s6.15586,10.61069,6.23685,20.65447Z"/>
                <path class="cls-13" d="M55.08978,57.41653s-.86361-14.01264-5.9665-21.38345H30.49373s6.15586,10.61069,6.23685,20.65447Z"/>
              </g>
              <polygon class="cls-6" points="75.691 64.974 75.691 62.58 57.385 53.853 34.256 53.853 34.256 64.974 75.691 64.974"/>
              <rect class="cls-14" x="34.25555" y="54.25756" width="22.40053" height="10.71625" transform="translate(90.91163 119.23137) rotate(180)"/>
              <g>
                <path class="cls-6" d="M34.61533,57.41653H55.67478a2.592,2.592,0,0,0,2.592-2.59191h0a2.592,2.592,0,0,0-2.592-2.592H34.61533a2.592,2.592,0,0,0-2.59191,2.592h0A2.592,2.592,0,0,0,34.61533,57.41653Z"/>
                <path class="cls-15" d="M34.61533,57.41653H55.67478a2.592,2.592,0,0,0,2.592-2.59191h0a2.592,2.592,0,0,0-2.592-2.592H34.61533a2.592,2.592,0,0,0-2.59191,2.592h0A2.592,2.592,0,0,0,34.61533,57.41653Z"/>
                <path class="cls-15" d="M55.08978,57.41653h.585a2.592,2.592,0,0,0,2.592-2.59191h0a2.592,2.592,0,0,0-2.592-2.592h-.585a2.592,2.592,0,0,0-2.5919,2.592h0A2.592,2.592,0,0,0,55.08978,57.41653Z"/>
              </g>
              <path class="cls-6" d="M56.1701,53.60959H59.491l2.673,8.26177H61.111l-2.43-5.4268H56.1701s-1.26008-.729-1.197-1.61994S56.1701,53.60959,56.1701,53.60959Z"/>
              <path class="cls-15" d="M56.1701,53.60959H59.491l2.673,8.26177H61.111l-2.43-5.4268H56.1701s-1.26008-.729-1.197-1.61994S56.1701,53.60959,56.1701,53.60959Z"/>
            </g>
          </g>
          <path class="cls-16" d="M93.61751,18.3066S92.076,20.86557,94.645,20.523"/>
          <ellipse class="cls-17" cx="90.56203" cy="19.9962" rx="1.13377" ry="0.52576"/>
          <ellipse class="cls-17" cx="97.59034" cy="19.47935" rx="1.11455" ry="0.51685"/>
        </g>
        <g>
          <path class="cls-18" d="M85.72578,61.14781s8.87143,2.60028,9.22795,4.4656"/>
          <path class="cls-18" d="M83.77638,64.71551s31.92435,8.22993,40.91663-11.83793"/>
          <path class="cls-18" d="M119.56592,38.22536c-7.82471-2.25776-15.11533,27.097-15.11533,27.097"/>
          <path class="cls-18" d="M124.5612,49.60212S118.62572,78.01362,86.563,59.61565"/>
          <path class="cls-18" d="M122.643,41.0042s-19.11558,14.88558-9.21791,24.60921"/>
          <path class="cls-18" d="M119.56592,65.61341s7.375-23.91836.43494-27.20539"/>
          <path class="cls-18" d="M75.69061,64.97381s.54766-4.25575,1.71686-4.43477"/>
          <path class="cls-18" d="M79.96141,56.52012S95.00931,47.582,96.17486,45.733"/>
          <path class="cls-18" d="M83.77641,43.06006s6.29978,28.16607,32.90775-5.88047"/>
          <path class="cls-18" d="M77.53985,54.75037s24.82779-5.56007,30.27434-.567"/>
          <path class="cls-18" d="M104.35276,44.8124S88.24864,62.79567,83.77638,64.71551"/>
          <path class="cls-18" d="M105.39054,61.87136S87.939,60.33672,90.08463,42.58519"/>
        </g>
        <path class="cls-19" d="M143.86917,65.47615c0,.97593-.04,1.94387-.12,2.89849A34.89748,34.89748,0,0,1,115.2709,99.79139c-.1813.032-.36527.064-.54664.09333a35.04441,35.04441,0,0,1-5.733.4693H-2.22861a34.7205,34.7205,0,0,1-18.6282-5.38634A34.99641,34.99641,0,0,1-34.496,78.73667a34.75541,34.75541,0,0,1-2.6105-13.26052.594.594,0,0,1,.16-.40532.07112.07112,0,0,1,.01333-.016.59279.59279,0,0,1,.41865-.17333H143.27454a.59368.59368,0,0,1,.59463.59465Z"/>
        <rect class="cls-20" x="14.9315" y="74.53265" width="30.38833" height="19.06586"/>
        <path class="cls-21" d="M115.04105,81.23067V99.73355c-.1813.032-.36528.064-.54665.09332a35.04309,35.04309,0,0,1-5.733.46931H84.65358V81.23067Z"/>
        <path class="cls-22" d="M139.85823,81.23067a34.96,34.96,0,0,1-24.81718,18.50288c-.1813.032-.36528.064-.54665.09332V81.23067Z"/>
        <rect class="cls-23" x="106.00525" y="68.31664" width="20.58261" height="12.91368"/>
        <path class="cls-24" d="M143.51933,68.31679a34.65582,34.65582,0,0,1-3.6611,12.91388H126.635V68.31679Z"/>
      </g>
    </g>
    <g class="cls-25">
      <ellipse class="cls-26" cx="82.69874" cy="158.2421" rx="170.96704" ry="71.42526"/>
    </g>
    <g class="cls-27">
      <g>
        <g>
          <path class="cls-28" d="M26.91153-70.70686s-1.23325,8.01776,4.18026,30.02331C33.4015-31.2948,40.371,8.18985,40.371,8.18985h4.89459s.11491-37.07715-.16864-40.00009-2.09415-27.011-2.09415-27.011,6.71806-6.64,4.63879-11.74374S26.91153-70.70686,26.91153-70.70686Z"/>
          <path class="cls-29" d="M26.9019-70.743a81.33076,81.33076,0,0,1,8.553-1.82817q1.08235-.16774,2.17293-.28311c.727-.07548,1.45555-.14282,2.18735-.17687a20.68669,20.68669,0,0,1,4.4047.16734,7.67107,7.67107,0,0,1,2.14692.67,3.766,3.766,0,0,1,.94591.68852,2.82876,2.82876,0,0,1,.37121.48049l.13139.23937a1.18885,1.18885,0,0,1,.07444.14752l.04867.13474A5.96646,5.96646,0,0,1,48.3096-68.262a8.47671,8.47671,0,0,1-.36368,2.22375,15.49014,15.49014,0,0,1-1.93505,3.99934q-.60729.92772-1.297,1.79487c-.46193.57884-.93533,1.13446-1.4606,1.67616l.10448-.28385c.24457,2.78481.45049,5.57286.67374,8.35952l.65876,8.36076.64089,8.36232.15111,2.09135c.044.722.05162,1.41807.06719,2.11966l.04154,4.19773c.03869,5.59363-.00339,11.18487-.03939,16.77655L45.40682,8.19024a.142.142,0,0,1-.14132.14088L40.371,8.31685a.12736.12736,0,0,1-.1251-.105q-.85164-4.93719-1.76547-9.8639-.9009-4.92866-1.85452-9.84767L32.7705-31.164l-.99209-4.90731-.5135-2.4449-.55706-2.4393c-.37072-1.63093-.78052-3.25242-1.1168-4.89134l-.52467-2.45333-.47365-2.46411c-.16289-.82031-.29343-1.647-.43511-2.47126-.14273-.8242-.28036-1.64915-.397-2.47774q-.37959-2.48046-.64814-4.9769c-.1841-1.66308-.28924-3.33485-.364-5.006a33.06452,33.06452,0,0,1,.12595-5.01574A.03755.03755,0,0,1,26.9019-70.743ZM26.97-65.70744c.12111,1.663.28186,3.32281.50371,4.9756q.30687,2.48159.73189,4.9476c.13055.8234.28206,1.64336.43861,2.46242.15546.81921.29973,1.64026.47645,2.45548l.50236,2.45043.5405,2.44265c.3467,1.63133.76724,3.24653,1.14834,4.87012l.57579,2.4415.5339,2.455c.34611,1.63622.68273,3.27319.99509,4.91475.636,3.281,1.26805,6.56166,1.85013,9.85187l1.73876,9.87069L38.73574-1.698q.8583,4.93674,1.76033,9.86574L40.371,8.06285l4.89449-.01428-.14118.14078q-.0769-16.77258-.24856-33.54332l-.06864-4.18824c-.01972-.69576-.0331-1.3975-.07823-2.07084l-.16474-2.09-.65567-8.361-.63784-8.36262c-.20892-2.7878-.43521-5.57416-.62282-8.36386l-.00035-.006a.36023.36023,0,0,1,.10494-.278c.49611-.49667.97761-1.04316,1.43169-1.59618q.68269-.83382,1.28672-1.72638a14.89168,14.89168,0,0,0,1.91648-3.8104,6.43122,6.43122,0,0,0,.0643-4.11461l-.04188-.1229a.71984.71984,0,0,0-.04808-.096l-.12785-.24132a.66634.66634,0,0,0-.14187-.20518l-.14972-.17727a3.2972,3.2972,0,0,0-.80448-.59905,7.22008,7.22008,0,0,0-1.9977-.65208,20.29024,20.29024,0,0,0-4.30736-.225c-1.44737.05411-2.89274.20133-4.334.38205a81.12337,81.12337,0,0,0-8.55092,1.5825A33.06789,33.06789,0,0,0,26.97-65.70744Z"/>
        </g>
        <g>
          <path class="cls-30" d="M40.39208,9.48555v3.47088h12.829s.65262-.81167-1.67705-1.80975-6.36662-1.97329-6.99148-3.82192A3.4591,3.4591,0,0,0,40.39208,9.48555Z"/>
          <path class="cls-29" d="M40.35524,9.48036l.00194-.00839.10883-.30821a2.02227,2.02227,0,0,1,.12331-.30547,3.656,3.656,0,0,1,.33941-.57319,2.80361,2.80361,0,0,1,.20653-.26793l.24207-.24062a3.20827,3.20827,0,0,1,.27-.21142,1.7765,1.7765,0,0,1,.29064-.18491,2.12262,2.12262,0,0,1,.309-.15545,3.1763,3.1763,0,0,1,.32363-.12426,3.65,3.65,0,0,1,.67569-.15141,4.62255,4.62255,0,0,1,.69031-.02681c.11527.00295.23059.01228.346.02521a3.35614,3.35614,0,0,1,.35823.059.28751.28751,0,0,1,.1909.14727l.03379.0653.12711.24541c.04982.07922.11771.15216.17357.22894a2.80084,2.80084,0,0,0,.44295.40875,4.80871,4.80871,0,0,0,.51779.36044c.184.10977.37371.21466.56795.3132.78007.39528,1.61366.72241,2.45074,1.05634l1.26864.49182.64025.2556c.2198.08571.41385.178.63145.27556a6.078,6.078,0,0,1,1.228.74059,2.05907,2.05907,0,0,1,.50091.59621.83862.83862,0,0,1-.02891.89693.19565.19565,0,0,1-.16489.079c-1.06906-.049-2.13813-.10284-3.20719-.0978-.53456.0013-1.06907.00519-1.60362.02646-.53451.01652-1.06907.05426-1.60362.08037L45.203,13.2607q-.80183.0313-1.60362.03145-1.60359-.00508-3.20724-.06515l-.021-.0008h-.00025a.25982.25982,0,0,1-.2494-.26982q.03414-.86773.088-1.73541c.047-.57849.07962-1.157.14517-1.73542Zm.21945,1.74061q.055.86765.088,1.73541l-.27057-.27057q1.60366-.06149,3.20724-.06515.80184-.0009,1.60362.03145l1.60358.08387c.53455.02611,1.06911.0639,1.60362.08037.53455.02127,1.06906.02521,1.60362.02646,1.06906.00509,2.13813-.04882,3.20719-.0978l-.16469.07893a.43252.43252,0,0,0-.06994-.39263,1.58212,1.58212,0,0,0-.41684-.39558,5.55028,5.55028,0,0,0-1.1401-.58493c-.83459-.32254-1.68335-.604-2.54814-.90417-.43027-.15271-.86318-.30217-1.28841-.48259a12.8145,12.8145,0,0,1-1.26631-.58672q-.3097-.16932-.612-.36283a5.54693,5.54693,0,0,1-.58448-.43472A1.95829,1.95829,0,0,1,44.86,8.42168a2.34188,2.34188,0,0,1-.24806-.29009c-.07209-.10988-.15112-.21252-.21362-.32918l-.1588-.37177.2246.21247c-.07568-.02257-.18027-.04613-.27467-.06345-.09749-.01752-.19574-.0324-.29523-.04154a4.036,4.036,0,0,0-.59816-.01732,4.40737,4.40737,0,0,0-.59266.07309,2.67488,2.67488,0,0,0-.2888.07583,1.7305,1.7305,0,0,0-.28026.10433,1.44992,1.44992,0,0,0-.26937.13224,2.83279,2.83279,0,0,0-.25715.15875l-.23942.18851a2.4818,2.4818,0,0,0-.22175.213,3.4093,3.4093,0,0,0-.395.48394,2.60519,2.60519,0,0,0-.16379.27092l-.15765.27212C40.49517,10.06933,40.528,10.64512,40.57469,11.221Z"/>
        </g>
      </g>
    </g>
  </g>
</svg>
