<svg xmlns="http://www.w3.org/2000/svg" xmlns:xlink="http://www.w3.org/1999/xlink" width="67.66981mm" height="40.40003mm" viewBox="0 0 191.81995 114.51978">
  <defs>
    <style>
      .cls-1, .cls-58 {
        fill: none;
      }

      .cls-2 {
        clip-path: url(#clip-path);
      }

      .cls-3 {
        fill: #ff8b8b;
      }

      .cls-4 {
        clip-path: url(#clip-path-2);
      }

      .cls-5 {
        fill: #ef7886;
      }

      .cls-6 {
        fill: #e8f2fa;
      }

      .cls-52, .cls-7 {
        opacity: 0.4;
      }

      .cls-8 {
        fill: #bdd9ff;
      }

      .cls-9 {
        fill: #d0e3f9;
      }

      .cls-10 {
        fill: #93c2f7;
      }

      .cls-11 {
        fill: #dfefff;
      }

      .cls-12 {
        fill: #fff;
      }

      .cls-13 {
        fill: #a1c7f0;
      }

      .cls-14 {
        fill: #214d9a;
      }

      .cls-15 {
        fill: #568cc5;
      }

      .cls-16 {
        fill: #25468f;
      }

      .cls-17 {
        fill: #fb7c1d;
      }

      .cls-18 {
        fill: #ff9841;
      }

      .cls-19 {
        fill: #eb6c00;
      }

      .cls-20 {
        fill: #ffae73;
      }

      .cls-21 {
        fill: #a9c2ff;
      }

      .cls-22 {
        fill: #dae6ff;
      }

      .cls-23 {
        fill: #91b4f8;
      }

      .cls-24 {
        fill: #cedfff;
      }

      .cls-25 {
        fill: #c1d6ff;
      }

      .cls-26 {
        fill: #bad7fd;
      }

      .cls-27 {
        fill: #dceaff;
      }

      .cls-28 {
        fill: #b0d2f5;
      }

      .cls-29 {
        fill: #e66a00;
      }

      .cls-30 {
        fill: #ce5700;
      }

      .cls-31 {
        fill: #ffbf91;
      }

      .cls-32 {
        fill: #f9924f;
      }

      .cls-33 {
        fill: #2a3967;
      }

      .cls-34 {
        fill: #0e407e;
      }

      .cls-35 {
        fill: #f07209;
      }

      .cls-36 {
        opacity: 0.5;
      }

      .cls-37 {
        fill: #85afff;
      }

      .cls-38 {
        fill: #ff9223;
      }

      .cls-39 {
        fill: #1e3865;
      }

      .cls-40 {
        fill: #132e52;
      }

      .cls-41 {
        fill: #bcd3f9;
      }

      .cls-42 {
        fill: #5c9cf4;
      }

      .cls-43 {
        fill: #e6f2ff;
      }

      .cls-44 {
        fill: #7a9cfa;
      }

      .cls-45 {
        fill: #5584e8;
      }

      .cls-46 {
        fill: #0b3563;
      }

      .cls-47 {
        fill: #ffa05e;
      }

      .cls-48 {
        fill: #2d3554;
      }

      .cls-49, .cls-52 {
        fill: #e65f00;
      }

      .cls-50 {
        fill: #fa9332;
      }

      .cls-51 {
        fill: #fc9f38;
      }

      .cls-53 {
        fill: #83a7f2;
      }

      .cls-54 {
        fill: #fddbba;
      }

      .cls-55 {
        fill: #032c52;
      }

      .cls-56 {
        fill: #f2f2eb;
      }

      .cls-57 {
        fill: #f59d64;
      }

      .cls-58 {
        stroke: #000;
        stroke-miterlimit: 10;
        stroke-width: 0.13px;
      }

      .cls-59 {
        fill: #6ca3ea;
      }

      .cls-60 {
        fill: #ff912b;
      }

      .cls-61 {
        fill: #d96400;
      }
    </style>
    <clipPath id="clip-path">
      <path class="cls-1" d="M169.67,218.00472c-15.28,16.15-36.74,17.32007-39.41,17.42994-20.06006.8-39.15986-9.39668-59.61894-16.20755C36.07656,207.72051,18.52,206.41476,0,205.89474v-36.87a9.86074,9.86074,0,0,1,9.86011-9.86H181.96a10.11668,10.11668,0,0,1,2.08008.22C188,179.01473,184.27,202.57479,169.67,218.00472Z"/>
    </clipPath>
    <clipPath id="clip-path-2">
      <path class="cls-1" d="M184.61011.37c-2.26,22.98-26.22,49.91-48.37,63.09C119.12012,73.64,102.48,75.99,89.25,77.86c-14.25,2.01-29.81982,4-45.81982-3.55994C35.73,70.65991,33.77,67.56006,27.86011,63.46A53.26553,53.26553,0,0,0,0,54.1V9.86A9.86075,9.86075,0,0,1,9.86011,0h172.09A9.7112,9.7112,0,0,1,184.61011.37Z"/>
    </clipPath>
  </defs>
  <title>cards</title>
  <g id="Layer_1" data-name="Layer 1">
    <g class="cls-2">
      <path class="cls-3" d="M91.4424,120.06011C64.10425,99.66355,18.61639,106.35525-15.406,132.56744c-28.39657,43.2945,7.15566,33.48776,7.1556,51.94559-.00006,11.626-4.33172,16.50657,0,41.52135S28.39223,232.6259,46.2,248.98164c17.80839,16.35575,50.53637,8.17788,72.19524,6.735,21.65827-1.44348,17.32662,31.268,57.75559,12.98824s23.10235-70.71452,23.58351-90.43777c.48117-19.72289,0-27.94808-36.0973-42.81333C154.46325,131.67583,125.61446,145.55587,91.4424,120.06011Z"/>
    </g>
    <g class="cls-4">
      <g>
        <ellipse class="cls-5" cx="97.55218" cy="47.14189" rx="131.18635" ry="89.42251"/>
        <g>
          <path class="cls-6" d="M163.61534,52.41277c-.01359.04184-.02788.08367-.04183.12591q-.18268.53549-.40225,1.08716-.0305.07689-.0622.15382-.2674.657-.59145,1.33784l-.00037.00077-.00755.01621-91.7872.12476c.02149-.36715-8.38334-12.23368.41127-23.78282C79.928,19.92767,90.21129,26.151,92.32118,18.02475a12.39477,12.39477,0,0,1,2.131-4.46743q.07465-.099.15268-.19528.1979-.24822.40749-.48212.05824-.06505.11687-.12893a11.53839,11.53839,0,0,1,1.13126-1.06945c.07993-.066.1606-.13119.24241-.1949h.00037c4.88587-3.82281,12.56542-3.6596,18.05142-1.3861,7.28563,3.01911,20.62043-2.22863,32.01463,1.60588q.28332.095.56469.19828h.0004q.592.216,1.17536.46706a12.31128,12.31128,0,0,1,2.23429,1.2357c.092.06483.18206.13081.27029.19715h.00074c7.89331,5.95532.87608,18.44233,4.953,20.37316a15.77494,15.77494,0,0,1,7.968,8.34906c.02073.05616.04106.11232.06106.16888q.03336.09441.06521.18922c.01923.05693.03808.11423.05617.17153A14.76682,14.76682,0,0,1,163.61534,52.41277Z"/>
          <g class="cls-7">
            <g>
              <rect class="cls-8" x="110.73762" y="16.98524" width="7.09858" height="5.85325" transform="translate(228.57382 39.82373) rotate(180)"/>
              <rect class="cls-9" x="114.28693" y="16.98524" width="7.09858" height="5.85325" transform="translate(235.67243 39.82373) rotate(180)"/>
              <polygon class="cls-10" points="110.742 21.354 111.867 21.354 111.768 21.038 111.867 20.811 110.742 20.811 110.742 21.354"/>
              <polygon class="cls-11" points="114.287 18.797 115.412 18.797 115.313 18.48 115.412 18.254 114.287 18.254 114.287 18.797"/>
              <polygon class="cls-10" points="114.287 18.254 113.162 18.254 113.261 18.57 113.162 18.797 114.287 18.797 114.287 18.254"/>
              <polygon class="cls-11" points="121.386 21.417 120.261 21.417 120.36 21.733 120.261 21.96 121.386 21.96 121.386 21.417"/>
              <rect class="cls-12" x="118.87801" y="17.38211" width="2.04272" height="0.79471"/>
            </g>
            <g>
              <rect class="cls-8" x="98.20155" y="16.98524" width="7.09858" height="5.85325" transform="translate(203.50168 39.82373) rotate(180)"/>
              <rect class="cls-9" x="101.75084" y="16.98524" width="7.09858" height="5.85325" transform="translate(210.60026 39.82373) rotate(180)"/>
              <polygon class="cls-10" points="98.206 21.354 99.331 21.354 99.231 21.038 99.331 20.811 98.206 20.811 98.206 21.354"/>
              <polygon class="cls-11" points="101.751 18.797 102.876 18.797 102.777 18.48 102.876 18.254 101.751 18.254 101.751 18.797"/>
              <polygon class="cls-10" points="101.751 18.254 100.626 18.254 100.725 18.57 100.626 18.797 101.751 18.797 101.751 18.254"/>
              <polygon class="cls-11" points="108.85 21.417 107.725 21.417 107.824 21.733 107.725 21.96 108.85 21.96 108.85 21.417"/>
              <rect class="cls-12" x="106.34192" y="17.38211" width="2.04272" height="0.79471"/>
            </g>
            <g>
              <rect class="cls-8" x="93.60987" y="22.83849" width="2.73024" height="32.56561"/>
              <rect class="cls-8" x="123.5439" y="22.83849" width="2.26954" height="32.56561"/>
              <rect class="cls-8" x="96.34011" y="22.83849" width="29.47333" height="0.84755"/>
              <rect class="cls-8" x="96.34011" y="38.27375" width="29.47333" height="0.84753"/>
              <rect class="cls-8" x="96.34011" y="51.21946" width="29.47333" height="0.84756"/>
              <g>
                <rect class="cls-13" x="111.2292" y="32.22223" width="7.33902" height="6.05152" transform="translate(229.79743 70.49597) rotate(180)"/>
                <rect class="cls-9" x="114.89871" y="32.22223" width="7.33902" height="6.05152" transform="translate(237.13645 70.49597) rotate(180)"/>
                <polygon class="cls-10" points="111.233 36.739 112.396 36.739 112.294 36.412 112.396 36.178 111.233 36.178 111.233 36.739"/>
                <polygon class="cls-11" points="114.899 34.095 116.062 34.095 115.959 33.768 116.062 33.534 114.899 33.534 114.899 34.095"/>
                <polygon class="cls-10" points="114.899 33.534 113.736 33.534 113.838 33.861 113.736 34.095 114.899 34.095 114.899 33.534"/>
                <polygon class="cls-11" points="122.238 36.804 121.075 36.804 121.177 37.131 121.075 37.365 122.238 37.365 122.238 36.804"/>
                <rect class="cls-12" x="119.64529" y="32.63254" width="2.11193" height="0.82163"/>
              </g>
              <g>
                <rect class="cls-8" x="101.81084" y="32.22223" width="7.33904" height="6.05152" transform="translate(210.96072 70.49597) rotate(180)"/>
                <rect class="cls-9" x="105.48037" y="32.22223" width="7.33902" height="6.05152" transform="translate(218.29976 70.49597) rotate(180)"/>
                <polygon class="cls-10" points="101.815 36.739 102.978 36.739 102.876 36.412 102.978 36.178 101.815 36.178 101.815 36.739"/>
                <polygon class="cls-11" points="105.48 34.095 106.643 34.095 106.541 33.768 106.643 33.534 105.48 33.534 105.48 34.095"/>
                <polygon class="cls-10" points="105.48 33.534 104.317 33.534 104.42 33.861 104.317 34.095 105.48 34.095 105.48 33.534"/>
                <polygon class="cls-11" points="112.82 36.804 111.657 36.804 111.759 37.131 111.657 37.365 112.82 37.365 112.82 36.804"/>
                <polygon class="cls-11" points="112.82 33.454 111.657 33.454 111.759 33.781 111.657 34.015 112.82 34.015 112.82 33.454"/>
                <rect class="cls-12" x="106.22162" y="36.28648" width="3.44219" height="1.33915"/>
              </g>
              <g>
                <rect class="cls-8" x="111.2292" y="45.96962" width="6.34321" height="5.23038" transform="translate(228.80161 97.16962) rotate(180)"/>
                <rect class="cls-9" x="114.40079" y="45.96962" width="6.34321" height="5.23038" transform="translate(235.14479 97.16962) rotate(180)"/>
                <polygon class="cls-10" points="111.233 49.874 112.238 49.874 112.149 49.591 112.238 49.389 111.233 49.389 111.233 49.874"/>
                <polygon class="cls-11" points="114.401 47.588 115.406 47.588 115.317 47.305 115.406 47.103 114.401 47.103 114.401 47.588"/>
                <polygon class="cls-10" points="114.401 47.103 113.396 47.103 113.484 47.386 113.396 47.588 114.401 47.588 114.401 47.103"/>
                <polygon class="cls-11" points="120.744 49.93 119.739 49.93 119.828 50.213 119.739 50.415 120.744 50.415 120.744 49.93"/>
                <rect class="cls-12" x="118.50334" y="46.32423" width="1.82536" height="0.71015"/>
              </g>
              <g>
                <rect class="cls-8" x="99.182" y="45.1485" width="7.33904" height="6.05151" transform="translate(205.70304 96.3485) rotate(180)"/>
                <rect class="cls-9" x="102.85151" y="45.1485" width="7.33904" height="6.05151" transform="translate(213.04206 96.3485) rotate(180)"/>
                <polygon class="cls-14" points="99.186 49.665 100.349 49.665 100.247 49.338 100.349 49.104 99.186 49.104 99.186 49.665"/>
                <polygon class="cls-15" points="102.852 47.021 104.014 47.021 103.912 46.694 104.014 46.46 102.852 46.46 102.852 47.021"/>
                <polygon class="cls-14" points="102.852 46.46 101.689 46.46 101.791 46.787 101.689 47.021 102.852 47.021 102.852 46.46"/>
                <polygon class="cls-15" points="110.191 49.73 109.028 49.73 109.13 50.058 109.028 50.291 110.191 50.291 110.191 49.73"/>
                <rect class="cls-12" x="107.5981" y="45.55879" width="2.11193" height="0.82163"/>
              </g>
              <g>
                <rect class="cls-8" x="101.2477" y="27.56817" width="5.61065" height="4.62634" transform="translate(208.10605 59.76269) rotate(180)"/>
                <rect class="cls-9" x="104.05303" y="27.56817" width="5.61065" height="4.62634" transform="translate(213.7167 59.76269) rotate(180)"/>
                <polygon class="cls-10" points="101.251 31.021 102.14 31.021 102.062 30.771 102.14 30.592 101.251 30.592 101.251 31.021"/>
                <polygon class="cls-11" points="104.053 29 104.942 29 104.864 28.75 104.942 28.571 104.053 28.571 104.053 29"/>
                <polygon class="cls-10" points="104.053 28.571 103.164 28.571 103.242 28.821 103.164 29 104.053 29 104.053 28.571"/>
                <polygon class="cls-11" points="109.664 31.071 108.775 31.071 108.853 31.321 108.775 31.5 109.664 31.5 109.664 31.071"/>
                <rect class="cls-12" x="107.68177" y="27.88185" width="1.61455" height="0.62813"/>
              </g>
              <g>
                <rect class="cls-8" x="111.27213" y="27.56817" width="5.61063" height="4.62634" transform="translate(228.15489 59.76269) rotate(180)"/>
                <rect class="cls-9" x="114.07745" y="27.56817" width="5.61065" height="4.62634" transform="translate(233.76555 59.76269) rotate(180)"/>
                <polygon class="cls-10" points="111.275 31.021 112.164 31.021 112.086 30.771 112.164 30.592 111.275 30.592 111.275 31.021"/>
                <polygon class="cls-11" points="114.077 29 114.967 29 114.888 28.75 114.967 28.571 114.077 28.571 114.077 29"/>
                <polygon class="cls-10" points="114.077 28.571 113.188 28.571 113.267 28.821 113.188 29 114.077 29 114.077 28.571"/>
                <polygon class="cls-11" points="119.688 31.071 118.799 31.071 118.877 31.321 118.799 31.5 119.688 31.5 119.688 31.071"/>
                <rect class="cls-12" x="117.7062" y="27.88185" width="1.61454" height="0.62813"/>
              </g>
            </g>
          </g>
          <g>
            <path class="cls-16" d="M156.20687,46.35993l-.13959-.04107a2.316,2.316,0,0,0-1.49213-2.90924l-3.00153-.88326a1.20071,1.20071,0,0,1-.77356-1.50829,3.88091,3.88091,0,0,0-2.50028-4.8749l.04321-.14688a4.03057,4.03057,0,0,1,2.59667,5.06287,1.0511,1.0511,0,0,0,.67717,1.32036l3.00153.88323A2.46567,2.46567,0,0,1,156.20687,46.35993Z"/>
            <path class="cls-16" d="M155.90373,47.39009l-.13959-.04109a2.31608,2.31608,0,0,0-1.4921-2.90931l-3.00153-.88323a1.20072,1.20072,0,0,1-.77359-1.50823,3.88094,3.88094,0,0,0-2.50025-4.875l.04321-.14687a4.03057,4.03057,0,0,1,2.59664,5.06291,1.05112,1.05112,0,0,0,.6772,1.32032l3.00154.88323A2.4657,2.4657,0,0,1,155.90373,47.39009Z"/>
            <g>
              <rect class="cls-17" x="133.99067" y="32.1715" width="6.31979" height="5.21107"/>
              <rect class="cls-18" x="130.83079" y="32.1715" width="6.31976" height="5.21107"/>
              <polygon class="cls-19" points="140.307 36.061 139.305 36.061 139.394 35.779 139.305 35.578 140.307 35.578 140.307 36.061"/>
              <polygon class="cls-20" points="137.151 33.784 136.149 33.784 136.237 33.502 136.149 33.301 137.151 33.301 137.151 33.784"/>
              <polygon class="cls-19" points="137.151 33.301 138.152 33.301 138.064 33.583 138.152 33.784 137.151 33.784 137.151 33.301"/>
              <polygon class="cls-20" points="130.831 36.117 131.832 36.117 131.744 36.399 131.832 36.6 130.831 36.6 130.831 36.117"/>
              <rect class="cls-12" x="131.24457" y="32.52483" width="1.81862" height="0.70752" transform="translate(264.30777 65.75718) rotate(180)"/>
            </g>
            <path class="cls-16" d="M140.53735,18.00116a5.33369,5.33369,0,0,1-2.38364-.448,3.11357,3.11357,0,0,0-1.9138-.27673l-.02583-.12861a3.18863,3.18863,0,0,1,2.00525.29171,6.557,6.557,0,0,0,4.00949.21337,12.446,12.446,0,0,1,2.77592-.68127v.13117a12.35679,12.35679,0,0,0-2.73365.67426A5.7924,5.7924,0,0,1,140.53735,18.00116Z"/>
            <rect class="cls-16" x="134.91402" y="27.36838" width="0.41452" height="2.70369"/>
            <rect class="cls-16" x="135.73461" y="27.36838" width="0.41452" height="2.70369"/>
            <path class="cls-16" d="M140.53735,17.71a5.334,5.334,0,0,1-2.38364-.448,3.11336,3.11336,0,0,0-1.9138-.27674l-.02583-.12861a3.18875,3.18875,0,0,1,2.00525.2917,6.55693,6.55693,0,0,0,4.00949.21337,12.446,12.446,0,0,1,2.77592-.68127v.1312a12.35554,12.35554,0,0,0-2.73365.67425A5.79243,5.79243,0,0,1,140.53735,17.71Z"/>
            <path class="cls-16" d="M149.26557,33.51369h-.1721v-.13118h.1721a1.44708,1.44708,0,0,0,1.44546-1.44543v-14.963a1.44708,1.44708,0,0,0-1.44546-1.44544h-1.276v-.13119h1.276a1.57843,1.57843,0,0,1,1.57667,1.57663v14.963A1.57842,1.57842,0,0,1,149.26557,33.51369Z"/>
            <path class="cls-16" d="M149.09347,32.2467v-.13119a1.00647,1.00647,0,0,0,1.00534-1.00533V17.20141a.97607.97607,0,0,0-.97495-.975h-1.01135v-.13119h1.01135A1.1074,1.1074,0,0,1,150.23,17.20141V31.11018A1.13784,1.13784,0,0,1,149.09347,32.2467Z"/>
            <path class="cls-21" d="M133.68347,18.12434h3.58061a.92244.92244,0,0,1,.92244.92244v7.99933a.92246.92246,0,0,1-.92246.92246h-3.58059a.92244.92244,0,0,1-.92244-.92244V19.04678a.92244.92244,0,0,1,.92244-.92244Z"/>
            <g>
              <circle class="cls-22" cx="134.24835" cy="19.52509" r="0.47216"/>
              <path class="cls-22" d="M133.7762,26.25686a.47216.47216,0,1,1,.47215.47217A.47215.47215,0,0,1,133.7762,26.25686Z"/>
              <path class="cls-22" d="M136.227,19.52509a.47218.47218,0,1,1,.47219.47216A.47219.47219,0,0,1,136.227,19.52509Z"/>
              <path class="cls-22" d="M136.227,26.25686a.47218.47218,0,1,1,.47219.47217A.47219.47219,0,0,1,136.227,26.25686Z"/>
            </g>
            <path class="cls-18" d="M137.48885,30.53628a.68415.68415,0,0,1-.06193.28148h-3.70816a.68415.68415,0,0,1-.06193-.28148c0-.61431.85806-1.11257,1.916-1.11257S137.48885,29.922,137.48885,30.53628Z"/>
            <path class="cls-16" d="M140.70029,31.8047v5.03922a1.22943,1.22943,0,0,1-.53137,1.01209l-1.53685,1.05985a.2422.2422,0,0,1-.337-.06186l-.00011-.00017a.24226.24226,0,0,1,.06187-.337l1.53684-1.05989a.745.745,0,0,0,.3218-.61306V31.8047a.987.987,0,0,0-.98693-.98694h-7.31151a.98694.98694,0,0,0-.98692.98694v5.0105a.7399.7399,0,0,0,.35014.63135l1.71707,1.07354a.24226.24226,0,0,1,.07706.33371h0a.24225.24225,0,0,1-.33387.07713l-1.71717-1.07308a1.22244,1.22244,0,0,1-.578-1.04265V31.8047a1.47169,1.47169,0,0,1,1.47169-1.47171h7.31151A1.4717,1.4717,0,0,1,140.70029,31.8047Z"/>
            <rect class="cls-16" x="135.3271" y="15.09427" width="10.07481" height="0.30318"/>
            <rect class="cls-16" x="135.3271" y="15.94366" width="10.07481" height="0.30318"/>
            <path class="cls-18" d="M136.78024,18.12434h-3.004V16.01673a1.5509,1.5509,0,0,1,1.5509-1.55092h0a1.5509,1.5509,0,0,1,1.5509,1.55092v2.00983A.09776.09776,0,0,1,136.78024,18.12434Z"/>
            <path class="cls-21" d="M145.914,14.46581h1.53129A1.30419,1.30419,0,0,1,148.74946,15.77V43.097a1.30422,1.30422,0,0,1-1.30422,1.30422H145.914a1.30422,1.30422,0,0,1-1.30422-1.30422V15.77a1.30421,1.30421,0,0,1,1.30421-1.30421Z"/>
            <circle class="cls-16" cx="146.6796" cy="15.92015" r="0.24071"/>
            <path class="cls-23" d="M144.75269,18.68367h3.70353a.63728.63728,0,0,1,.63728.63728V38.01452a.63728.63728,0,0,1-.63728.63728h-3.70353a.63725.63725,0,0,1-.63725-.63725V19.32092a.63725.63725,0,0,1,.63725-.63725Z"/>
            <path class="cls-23" d="M144.732,42.55381h4.03455a.61652.61652,0,0,1,.61652.61652v2.744a0,0,0,0,1,0,0H144.732a.61655.61655,0,0,1-.61655-.61655v-2.1274A.61655.61655,0,0,1,144.732,42.55381Z"/>
            <g>
              <circle class="cls-18" cx="135.3271" cy="15.94366" r="0.91693" transform="translate(116.31435 150.87379) rotate(-88.69874)"/>
              <path class="cls-16" d="M135.3271,16.889a.94538.94538,0,1,1,.94535-.94538A.94643.94643,0,0,1,135.3271,16.889Zm0-1.83385a.88848.88848,0,1,0,.88846.88847A.88947.88947,0,0,0,135.3271,15.05519Z"/>
              <circle class="cls-17" cx="135.3271" cy="15.94366" r="0.55962"/>
            </g>
          </g>
          <g>
            <g>
              <rect class="cls-8" x="156.24138" y="41.84068" width="3.94012" height="3.2489" transform="translate(320.22972 17.57776) rotate(155.56022)"/>
              <rect class="cls-9" x="158.03492" y="41.02557" width="3.94014" height="3.24891" transform="translate(323.31864 15.27717) rotate(155.55974)"/>
              <polygon class="cls-15" points="157.955 42.902 158.524 42.643 158.401 42.506 158.399 42.369 157.831 42.627 157.955 42.902"/>
              <polygon class="cls-14" points="157.831 42.627 157.262 42.886 157.385 43.023 157.387 43.16 157.955 42.902 157.831 42.627"/>
              <polygon class="cls-15" points="162.144 42.595 161.576 42.854 161.699 42.991 161.7 43.128 162.269 42.87 162.144 42.595"/>
              <rect class="cls-12" x="159.99093" y="40.8781" width="1.13383" height="0.44111" transform="translate(-2.61769 70.11011) rotate(-24.43939)"/>
            </g>
            <path class="cls-16" d="M163.61534,52.41277c-.01359.04184-.02788.08367-.04183.12591q-.18268.53549-.40225,1.08716-.0305.07689-.0622.15382-.2674.657-.59145,1.33784h-4.82327l-.27634-2.57882-.01355-.12591-.01057-.09877-.68643-6.39977-.0053-.04938.36266-.1617,1.79848-.80372,1.7989-.80368,1.79852-.80331,1.33633-.59673q.03336.09441.06521.18922c.01923.05693.03808.11423.05617.17153A14.76682,14.76682,0,0,1,163.61534,52.41277Z"/>
            <path class="cls-24" d="M163.61534,52.41277c-.01359.04184-.02788.08367-.04183.12591h-5.67375l-.01242-.12591-.00979-.09877-.61974-6.27158.28613-.12819,6.37448-2.85777A14.76682,14.76682,0,0,1,163.61534,52.41277Z"/>
            <path class="cls-21" d="M157.9,52.53861h-48.5509a3.31209,3.31209,0,0,1-3.31209-3.31212h0a3.31209,3.31209,0,0,1,3.31209-3.31209H157.9a3.31209,3.31209,0,0,1,3.31209,3.31209h0A3.31209,3.31209,0,0,1,157.9,52.53861Z"/>
            <path class="cls-25" d="M161.212,49.22632a3.31184,3.31184,0,0,1-3.312,3.31239h-8.23234a.31949.31949,0,0,1-.31951-.31948V46.23378a.31949.31949,0,0,1,.31951-.31948H157.9A3.31208,3.31208,0,0,1,161.212,49.22632Z"/>
            <path class="cls-25" d="M163.61534,52.41277c-.01359.04184-.02788.08367-.04183.12591q-.18268.53549-.40225,1.08716-.0305.07689-.0622.15382-.2674.657-.59145,1.33784l-.00037.00077-5.2549.00225-48.24494.02224v-2.73Z"/>
            <path class="cls-23" d="M123.5747,48.8689l-.37356-.17341a.09048.09048,0,0,1-.052-.07951c-.00111-.04375-.00413-.08786-.009-.132a1.498,1.498,0,0,0-.04448-.239.09.09,0,0,1,.03277-.09612l.3423-.26087a.08878.08878,0,0,0,.0211-.11839l-.21072-.33247a.08732.08732,0,0,0-.11195-.03167l-.35548.17455a.08826.08826,0,0,1-.10406-.01848,1.5862,1.5862,0,0,0-.40034-.302.0904.0904,0,0,1-.04485-.101l.05767-.2341a.09143.09143,0,0,0-.05693-.10668l-.36715-.13269a.06983.06983,0,0,0-.023-.00527.087.087,0,0,0-.0882.0509l-.13007.279-.0313.0682a1.5213,1.5213,0,0,0-.22239.00832,1.58579,1.58579,0,0,0-.291.05918.08805.08805,0,0,1-.09612-.03093l-.20961-.27593a.09088.09088,0,0,0-.12138-.02147l-.25406.16059-.07276.04637a.09158.09158,0,0,0-.03355.11835l.1455.29744a.08736.08736,0,0,1-.01621.10213,1.61235,1.61235,0,0,0-.21034.26425.27626.27626,0,0,0-.01547.02379l-.00564.00788a.08882.08882,0,0,1-.09386.03281l-.38037-.09312-.01282-.00226a.09112.09112,0,0,0-.09346.05919l-.13309.366a.09122.09122,0,0,0,.04714.11346l.38976.18056a.08755.08755,0,0,1,.05126.08521,1.61244,1.61244,0,0,0,.00792.2439c.0049.04411.01134.087.01959.12966a.09284.09284,0,0,1-.035.09085l-.32911.25108a.08812.08812,0,0,0-.0211.11721l.20883.32874a.09261.09261,0,0,0,.11913.03352l.28121-.138a.09061.09061,0,0,1,.1097.023,1.59851,1.59851,0,0,0,.36641.32418.08936.08936,0,0,1,.03959.098l-.08407.34266a.09421.09421,0,0,0,.05844.10971l.3649.13271a.08947.08947,0,0,0,.11158-.04676l.00752-.01621.1508-.32417a.09093.09093,0,0,1,.0897-.05241h.00038a1.61887,1.61887,0,0,0,.27972-.00567c.05053-.00526.09951-.01355.14889-.02338a.0895.0895,0,0,1,.08974.03318l.213.28009a.09268.09268,0,0,0,.12328.02262l.3272-.2077a.09854.09854,0,0,0,.02338-.02151.09186.09186,0,0,0,.0098-.095l-.11725-.23749a.09253.09253,0,0,1,.006-.09011.11627.11627,0,0,1,.017-.01886,1.57879,1.57879,0,0,0,.39091-.48815.08962.08962,0,0,1,.08518-.04825l.01546.00265.30761.07539a.09067.09067,0,0,0,.10668-.05657l.003-.00865.13-.35662A.09229.09229,0,0,0,123.5747,48.8689Zm-1.21042.118a.86018.86018,0,0,1-.22994.31891.55949.55949,0,0,1-.06676.04978.98378.98378,0,0,1-.30647.12816.85294.85294,0,0,1-1.02721-.98236,1.03317,1.03317,0,0,1,.05052-.19039.83019.83019,0,0,1,.28422-.35323l.03543-.02184A.86123.86123,0,0,1,122.36428,48.98689Z"/>
            <path class="cls-24" d="M126.103,50.47667l-.26879-.12477a.06564.06564,0,0,1-.0373-.0573c-.00077-.03167-.003-.063-.00641-.095a1.09535,1.09535,0,0,0-.032-.1715.06574.06574,0,0,1,.02335-.06937l.24618-.18774a.06362.06362,0,0,0,.01543-.08518l-.1515-.239a.06337.06337,0,0,0-.08069-.023l-.2556.1259a.06336.06336,0,0,1-.07461-.01355,1.14811,1.14811,0,0,0-.28838-.21712.06486.06486,0,0,1-.032-.0724l.04146-.16851a.06622.06622,0,0,0-.04072-.0769l-.26426-.09538-.01658-.00375a.06314.06314,0,0,0-.0637.03657l-.0931.20092-.02265.04861a1.21231,1.21231,0,0,0-.16019.006,1.14884,1.14884,0,0,0-.20924.0426.06308.06308,0,0,1-.069-.02224l-.1508-.19827a.066.066,0,0,0-.08742-.01584l-.18284.11571-.052.03355a.06665.06665,0,0,0-.02449.08521l.10477.21374a.06318.06318,0,0,1-.01131.0735,1.14829,1.14829,0,0,0-.15154.19l-.0113.01734-.00376.00567a.06444.06444,0,0,1-.0675.02339l-.27365-.06673-.00943-.00192a.06578.06578,0,0,0-.0671.04261l-.09574.26312a.06589.06589,0,0,0,.03392.08183l.28046.12966a.06433.06433,0,0,1,.03694.06143,1.15212,1.15212,0,0,0,.00567.17569c.00338.03127.00791.06257.01392.09309a.06592.06592,0,0,1-.02523.06522l-.23638.18056a.06317.06317,0,0,0-.01543.08444l.15039.23638a.06594.06594,0,0,0,.08522.02412l.20279-.09917a.06492.06492,0,0,1,.07878.01661,1.14173,1.14173,0,0,0,.26352.233.06484.06484,0,0,1,.02825.07089l-.06029.24614a.06721.06721,0,0,0,.0422.07881l.26238.09534a.06346.06346,0,0,0,.07992-.03314l.00563-.01171.10856-.23333a.06534.06534,0,0,1,.06448-.03771h.00037a1.12459,1.12459,0,0,0,.20092-.00413c.0362-.00379.07163-.00983.10706-.0166a.06406.06406,0,0,1,.06484.02375l.15305.20169a.06664.06664,0,0,0,.0886.01584l.23558-.14929a.07241.07241,0,0,0,.01661-.01547.06646.06646,0,0,0,.00714-.06824l-.08444-.17076a.06628.06628,0,0,1,.00453-.06485.05881.05881,0,0,1,.01208-.01355,1.13583,1.13583,0,0,0,.2812-.35132.06421.06421,0,0,1,.06146-.03432l.01094.00151.22125.05428a.065.065,0,0,0,.07655-.04072l.00225-.006.0935-.25671A.066.066,0,0,0,126.103,50.47667Zm-.87041.08481a.61859.61859,0,0,1-.16549.2292.3558.3558,0,0,1-.04824.03583.70756.70756,0,0,1-.22018.09236.61367.61367,0,0,1-.73883-.70683.7438.7438,0,0,1,.03616-.13685.59919.59919,0,0,1,.20434-.25406l.02563-.01583A.61967.61967,0,0,1,125.23262,50.56148Z"/>
            <path class="cls-23" d="M137.90266,48.8689l-.37355-.17341a.091.091,0,0,1-.052-.07951c-.00114-.04375-.00379-.08786-.00869-.132a1.53571,1.53571,0,0,0-.04448-.239.08982.08982,0,0,1,.03241-.09612l.34229-.26087a.088.088,0,0,0,.0211-.11839l-.21031-.33247a.08745.08745,0,0,0-.11195-.03167l-.35588.17455a.08769.08769,0,0,1-.10367-.01848,1.58218,1.58218,0,0,0-.4007-.302.09089.09089,0,0,1-.04489-.101l.05808-.2341a.09188.09188,0,0,0-.05693-.10668l-.36753-.13269a.06814.06814,0,0,0-.02264-.00527.0878.0878,0,0,0-.08857.0509l-.1297.279-.03126.0682a1.52179,1.52179,0,0,0-.22243.00832,1.58632,1.58632,0,0,0-.291.05918.08811.08811,0,0,1-.09615-.03093l-.20994-.27593a.09044.09044,0,0,0-.121-.02147l-.25443.16059-.07237.04637a.09212.09212,0,0,0-.03395.11835l.1459.29744a.08793.08793,0,0,1-.0162.10213,1.57257,1.57257,0,0,0-.21035.26425.27626.27626,0,0,0-.01547.02379l-.00563.00788a.08905.08905,0,0,1-.09387.03281l-.38037-.09312-.01282-.00226a.09116.09116,0,0,0-.09349.05919l-.13306.366a.09085.09085,0,0,0,.04711.11346l.38979.18056a.0876.0876,0,0,1,.05127.08521,1.56314,1.56314,0,0,0,.00791.2439c.00453.04411.01131.087.01923.12966a.09263.09263,0,0,1-.03469.09085l-.32908.25108a.0881.0881,0,0,0-.02113.11721l.20887.32874a.092.092,0,0,0,.11873.03352l.2816-.138a.09083.09083,0,0,1,.1097.023,1.59006,1.59006,0,0,0,.36642.32418.08993.08993,0,0,1,.03955.098l-.084.34266a.09387.09387,0,0,0,.05841.10971l.36454.13271a.08931.08931,0,0,0,.11158-.04676l.00791-.01621.1508-.32417a.0904.0904,0,0,1,.08934-.05241h.00074a1.615,1.615,0,0,0,.27932-.00567c.05053-.00526.09991-.01355.14892-.02338a.08978.08978,0,0,1,.09008.03318l.213.28009a.09268.09268,0,0,0,.12329.02262l.3272-.2077a.108.108,0,0,0,.02338-.02151.09171.09171,0,0,0,.00939-.095l-.11685-.23749a.09248.09248,0,0,1,.006-.09011.0894.0894,0,0,1,.017-.01886,1.58327,1.58327,0,0,0,.3909-.48815.08932.08932,0,0,1,.08521-.04825l.01506.00265.308.07539a.09044.09044,0,0,0,.10632-.05657l.003-.00865.13007-.35662A.09233.09233,0,0,0,137.90266,48.8689Zm-1.21.118a.86468.86468,0,0,1-.23.31891.5561.5561,0,0,1-.06673.04978.98558.98558,0,0,1-.30683.12816.8531.8531,0,0,1-1.02725-.98236,1.06782,1.06782,0,0,1,.05089-.19039.82965.82965,0,0,1,.28385-.35323l.03584-.02184A.86127.86127,0,0,1,136.69261,48.98689Z"/>
            <path class="cls-24" d="M140.43137,50.47667l-.26879-.12477a.065.065,0,0,1-.03731-.0573c-.00114-.03167-.003-.063-.00644-.095a1.09187,1.09187,0,0,0-.032-.1715.06436.06436,0,0,1,.02335-.06937l.24617-.18774a.06357.06357,0,0,0,.01507-.08518l-.15117-.239a.06348.06348,0,0,0-.08069-.023l-.25594.1259a.06359.06359,0,0,1-.07464-.01355,1.14643,1.14643,0,0,0-.288-.21712.0651.0651,0,0,1-.03244-.0724l.04184-.16851a.066.066,0,0,0-.0411-.0769l-.26426-.09538-.01621-.00375a.0632.0632,0,0,0-.0637.03657l-.09347.20092-.02261.04861a1.2076,1.2076,0,0,0-.15986.006,1.14284,1.14284,0,0,0-.20921.0426.06292.06292,0,0,1-.069-.02224l-.15114-.19827a.0655.0655,0,0,0-.08709-.01584l-.18281.11571-.0524.03355a.06616.06616,0,0,0-.02415.08521l.1048.21374a.06275.06275,0,0,1-.01167.0735,1.16343,1.16343,0,0,0-.15117.19l-.01131.01734-.00379.00567a.06494.06494,0,0,1-.06783.02339l-.27329-.06673-.00946-.00192a.06552.06552,0,0,0-.06709.04261l-.09575.26312a.06551.06551,0,0,0,.034.08183l.28006.12966a.0632.0632,0,0,1,.037.06143,1.14822,1.14822,0,0,0,.00564.17569c.00339.03127.00832.06257.01432.09309a.06665.06665,0,0,1-.02526.06522l-.23672.18056a.06348.06348,0,0,0-.01509.08444l.15.23638a.06639.06639,0,0,0,.08558.02412l.20243-.09917a.06484.06484,0,0,1,.0788.01661,1.14338,1.14338,0,0,0,.26386.233.06539.06539,0,0,1,.02828.07089l-.06032.24614a.067.067,0,0,0,.04183.07881l.26239.09534a.06371.06371,0,0,0,.08028-.03314l.00567-.01171.10819-.23333a.06557.06557,0,0,1,.06445-.03771h.00037a1.12833,1.12833,0,0,0,.20132-.00413c.03616-.00379.07162-.00983.10705-.0166a.06344.06344,0,0,1,.06445.02375l.15345.20169a.06654.06654,0,0,0,.08857.01584l.23523-.14929a.06513.06513,0,0,0,.02376-.08371l-.08407-.17076a.06614.06614,0,0,1,.00416-.06485l.01241-.01355a1.14116,1.14116,0,0,0,.28123-.35132.06326.06326,0,0,1,.06106-.03432l.01094.00151.22165.05428a.065.065,0,0,0,.07653-.04072l.00228-.006.09309-.25671A.06581.06581,0,0,0,140.43137,50.47667Zm-.87082.08481a.61736.61736,0,0,1-.16512.2292.40545.40545,0,0,1-.04824.03583.70956.70956,0,0,1-.22052.09236.61381.61381,0,0,1-.73886-.70683.77751.77751,0,0,1,.03656-.13685.59637.59637,0,0,1,.20431-.25406l.02563-.01583A.61948.61948,0,0,1,139.56055,50.56148Z"/>
            <path class="cls-23" d="M129.86591,48.5255l-.40564-.07163a.0909.0909,0,0,1-.07048-.0637c-.01241-.04224-.02677-.08408-.0426-.12554a1.55727,1.55727,0,0,0-.104-.21938.09.09,0,0,1,.00678-.10141l.26426-.33964a.08871.08871,0,0,0-.01017-.11991l-.28875-.26761a.08746.08746,0,0,0-.11611-.00191l-.29932.2601a.08764.08764,0,0,1-.1048.00832,1.58838,1.58838,0,0,0-.46478-.18888.091.091,0,0,1-.069-.08632l-.00412-.24087a.09152.09152,0,0,0-.0822-.089l-.38939-.03432a.08225.08225,0,0,0-.02338.00077.08851.08851,0,0,0-.07237.07237l-.05391.30274-.01282.07387a1.59025,1.59025,0,0,0-.213.06482,1.63594,1.63594,0,0,0-.26613.13194.088.088,0,0,1-.10065-.00526l-.27368-.213a.09039.09039,0,0,0-.12252.0102l-.20468.22051-.05841.06334a.09226.09226,0,0,0-.00228.12326l.21713.2503a.0871.0871,0,0,1,.01056.10252,1.59043,1.59043,0,0,0-.1357.30952l-.00906.02674-.003.00905a.08992.08992,0,0,1-.08256.0558l-.39168.00754a.04858.04858,0,0,0-.01278.00114.0917.0917,0,0,0-.07541.081l-.03469.38792a.09054.09054,0,0,0,.07464.09726l.423.075a.08761.08761,0,0,1,.07126.069,1.59539,1.59539,0,0,0,.07008.2341c.01583.0411.03318.08105.052.12027a.09288.09288,0,0,1-.01016.09685l-.2541.32686a.08833.08833,0,0,0,.00983.11873l.2861.26426a.09223.09223,0,0,0,.12326.00225l.23675-.20582a.09128.09128,0,0,1,.11195-.006,1.58785,1.58785,0,0,0,.43726.21978.0898.0898,0,0,1,.06335.0848l.00677.35287a.09292.09292,0,0,0,.08444.09048l.38641.035a.0897.0897,0,0,0,.09612-.0735l.00339-.01772.06256-.35168a.09071.09071,0,0,1,.07314-.07391l.0004-.00037a1.57175,1.57175,0,0,0,.26875-.07689c.04751-.01812.09314-.03845.138-.06069a.08944.08944,0,0,1,.09538.009l.27781.21639a.09244.09244,0,0,0,.12477-.0098l.26312-.28462a.10313.10313,0,0,0,.017-.02674.09243.09243,0,0,0-.01506-.09464l-.17378-.19941a.09142.09142,0,0,1-.01735-.08857.10824.10824,0,0,1,.01168-.02264,1.58562,1.58562,0,0,0,.25295-.57183.08825.08825,0,0,1,.06971-.06824l.01547-.00188.317-.00567a.09049.09049,0,0,0,.08823-.08219l.00074-.009.03432-.37809A.09231.09231,0,0,0,129.86591,48.5255Zm-1.13957.42445a.86993.86993,0,0,1-.1406.36679.61363.61363,0,0,1-.052.06521.97647.97647,0,0,1-.26349.20243.85333.85333,0,0,1-1.24475-.68646,1.07679,1.07679,0,0,1,.00037-.19713.82832.82832,0,0,1,.18435-.41392l.02865-.03053A.86144.86144,0,0,1,128.72634,48.95Z"/>
            <path class="cls-24" d="M163.61534,52.41277c-.01359.04184-.02788.08367-.04183.12591q-.18268.53549-.40225,1.08716-.0305.07689-.0622.15382-.2674.657-.59145,1.33784l-.00037.00077-5.2549.00225V52.41277Z"/>
            <path class="cls-16" d="M157.9,52.68733H109.34924a3.46083,3.46083,0,0,1,0-6.92165H157.9a3.46083,3.46083,0,1,1,0,6.92165Zm-48.55071-6.62444a3.1636,3.1636,0,1,0,0,6.3272H157.9a3.1636,3.1636,0,0,0,0-6.3272Z"/>
          </g>
          <g>
            <path class="cls-26" d="M79.296,28.571h3.21579a.2684.2684,0,0,1,.2684.2684v3.10382a.2684.2684,0,0,1-.2684.2684H79.296a.26842.26842,0,0,1-.26842-.26842V28.83937A.26842.26842,0,0,1,79.296,28.571Z"/>
            <path class="cls-27" d="M79.43532,28.72866h2.93711a.24517.24517,0,0,1,.24517.24517v2.83488a.24515.24515,0,0,1-.24515.24515H79.4353a.24516.24516,0,0,1-.24516-.24516V28.97383A.24517.24517,0,0,1,79.43532,28.72866Z"/>
            <g>
              <g>
                <circle class="cls-28" cx="80.90387" cy="29.06094" r="0.07773"/>
                <path class="cls-28" d="M81.45338,29.17081a.07774.07774,0,1,1,.03019.10571A.07775.07775,0,0,1,81.45338,29.17081Z"/>
                <path class="cls-28" d="M81.99075,29.59774a.07774.07774,0,1,1-.02318.10746A.07773.07773,0,0,1,81.99075,29.59774Z"/>
                <path class="cls-28" d="M82.25693,30.25853a.07773.07773,0,1,1-.07773.07773A.07774.07774,0,0,1,82.25693,30.25853Z"/>
                <path class="cls-28" d="M82.121,31.02539a.07773.07773,0,1,1-.10994,0A.07771.07771,0,0,1,82.121,31.02539Z"/>
                <path class="cls-28" d="M81.63289,31.5148a.07773.07773,0,1,1-.10993,0A.0777.0777,0,0,1,81.63289,31.5148Z"/>
                <path class="cls-28" d="M80.82614,31.767a.07773.07773,0,1,1,.07773.07775A.07774.07774,0,0,1,80.82614,31.767Z"/>
              </g>
              <g>
                <path class="cls-28" d="M80.35189,29.17081a.07773.07773,0,1,0-.03018.10571A.07773.07773,0,0,0,80.35189,29.17081Z"/>
                <path class="cls-28" d="M79.81451,29.59774a.07773.07773,0,1,0,.02318.10746A.07774.07774,0,0,0,79.81451,29.59774Z"/>
                <circle class="cls-28" cx="79.54834" cy="30.33626" r="0.07773"/>
                <path class="cls-28" d="M79.68424,31.02539a.07773.07773,0,1,0,.10994,0A.07775.07775,0,0,0,79.68424,31.02539Z"/>
                <path class="cls-28" d="M80.17239,31.5148a.07773.07773,0,1,0,.10992,0A.07771.07771,0,0,0,80.17239,31.5148Z"/>
              </g>
            </g>
            <g>
              <circle class="cls-28" cx="80.96066" cy="30.33626" r="0.07773"/>
              <rect class="cls-28" x="80.95004" y="29.36515" width="0.02123" height="0.97111"/>
              <rect class="cls-28" x="80.88102" y="30.10098" width="0.65451" height="0.06368" transform="translate(-1.27475 56.57749) rotate(-38.13391)"/>
            </g>
          </g>
          <g>
            <g>
              <rect class="cls-29" x="113.83272" y="36.59926" width="4.80086" height="3.95859" transform="translate(232.46629 77.15711) rotate(180)"/>
              <rect class="cls-18" x="116.23316" y="36.59926" width="4.80086" height="3.95859" transform="translate(237.26719 77.15711) rotate(180)"/>
              <polygon class="cls-30" points="113.836 39.554 114.596 39.554 114.529 39.34 114.596 39.187 113.836 39.187 113.836 39.554"/>
              <polygon class="cls-20" points="116.233 37.824 116.994 37.824 116.927 37.61 116.994 37.457 116.233 37.457 116.233 37.824"/>
              <polygon class="cls-30" points="116.233 37.457 115.472 37.457 115.539 37.671 115.472 37.824 116.233 37.824 116.233 37.457"/>
              <polygon class="cls-20" points="121.034 39.596 120.273 39.596 120.34 39.81 120.273 39.963 121.034 39.963 121.034 39.596"/>
              <rect class="cls-12" x="119.33816" y="36.86764" width="1.38152" height="0.53748"/>
            </g>
            <path class="cls-31" d="M118.76928,40.38937c.11658-.07572.3806-.242.39248-.20219a.173.173,0,0,1-.03986.1248,1.11327,1.11327,0,0,1,.68821.00211.2802.2802,0,0,1,.17915.12809.12363.12363,0,0,1-.05049.19109c-.19525.11121-.13721.0423-.40889.20467a.78047.78047,0,0,1-.787.06525l-.25842-.0534-.01574-.42912S118.61771,40.40873,118.76928,40.38937Z"/>
            <path class="cls-20" d="M113.4894,36.13008A1.33033,1.33033,0,0,1,112.04,35.971a3.344,3.344,0,0,0,.10593-1.67675c-.00716-.03881,1.24211.47612,1.2798.48441h.00076l.00114.00865.00224.01812c.0196.16811.03319.33511.04222.49081C113.49958,35.76216,113.4894,36.13008,113.4894,36.13008Z"/>
            <path class="cls-32" d="M113.47205,35.29624a1.80756,1.80756,0,0,1-1.14824-.54851,7.44252,7.44252,0,0,1,1.10188.03093h.00076l.00114.00865.00224.01812C113.44943,34.97354,113.463,35.14054,113.47205,35.29624Z"/>
            <path class="cls-20" d="M113.6586,34.69935s-1.22481.54147-1.55026-.22649-.70274-1.21525.06551-1.59344,1.04537-.15,1.21636.07994S113.96882,34.53872,113.6586,34.69935Z"/>
            <path class="cls-14" d="M112.19308,34.68284c-.0154.0145-.27523.15087-.99236-.79137a.92163.92163,0,0,1-.10212-.83857,2.49608,2.49608,0,0,1,1.3068-.93266,1.09636,1.09636,0,0,1,.68335-.03159.42522.42522,0,0,1,.29856.5272.69675.69675,0,0,1-.67953.57037c-.21594-.00651-.20227.43435-.19827.53949s-.00343.19458-.27523.15093c-.23291-.03737-.10152.27017-.02329.40855a.40838.40838,0,0,1,.05546.224A.25206.25206,0,0,1,112.19308,34.68284Z"/>
            <path class="cls-33" d="M110.31864,55.1379h-.78936c-.16548,0-.34936-.1657-.39538-.469-.046-.30354-.38618-.469-.45982-.71733s.30355-.59789.30355-.59789l.063-.081.06559-.08448.62529.14708s.01541.14888.02507.33853a4.33063,4.33063,0,0,1,.00255.434c-.01841.33116.09275.68764.38687.75209C110.44038,54.92433,110.31864,55.1379,110.31864,55.1379Z"/>
            <path class="cls-33" d="M115.81388,55.1379h-2.09243a.18868.18868,0,0,1-.0444-.01288c-.13969-.06995-.096-.60481-.07917-.77l.00552-.04854s.73576-.58847.837-.13789l.01082.04143v.00024c.12772.42164.69869.6131,1.02849.66647A.35921.35921,0,0,1,115.81388,55.1379Z"/>
            <path class="cls-18" d="M115.39214,43.07166s-.11175,1.39413-.24307,3.07c-.17851,2.27648-.39317,5.07276-.41441,5.60249-.0367.91986-.184,2.39126-.184,2.39126a1.15674,1.15674,0,0,1-1.04843.20222,24.07014,24.07014,0,0,1-.80093-4.32286L112.693,49.905c-.16554-2.26243-.423-7.02642-.423-7.02642Z"/>
            <path class="cls-14" d="M115.0818,42.87855a18.13078,18.13078,0,0,1-3.40791-.27369,26.853,26.853,0,0,0-.287-2.77155q-.04331-.33223-.06843-.65849a10.01363,10.01363,0,0,1-.00333-1.60257,2.63143,2.63143,0,0,1,.7122-1.845s.3728.03073.71622.08236a1.54484,1.54484,0,0,0,.79969-.04063l.475.409a1.84089,1.84089,0,0,1,.60352.924S115.10811,42.87671,115.0818,42.87855Z"/>
            <path class="cls-34" d="M111.831,38.6975a2.78121,2.78121,0,0,0,1.42076,1.54027c1.0932.50262.4398-.955.4398-.955Z"/>
            <path class="cls-18" d="M114.62181,37.102l-.85.19763-1.1698,3.16813a1.07986,1.07986,0,0,1-1.04018.73578l-.00163.07559.05773,1.5097,3.76946.3426s.01783-1.88958-.04968-2.49472C115.2377,39.74065,114.62181,37.102,114.62181,37.102Z"/>
            <path class="cls-14" d="M118.69816,40.62954c.02683-.24752-.10008-.29381-.10008-.29381s-2.50548-.55486-2.71738-.63064a26.87968,26.87968,0,0,1-1.97213-2.05467s-.67234-.82-1.25476-.66724a1.08255,1.08255,0,0,0-.79767.88454c-.09646.43988-.39962.57967-.02512.82978.84062.56146,3.01429,1.9826,3.41566,2.1173a13.7449,13.7449,0,0,0,3.3305.15012A.78389.78389,0,0,0,118.69816,40.62954Z"/>
            <path class="cls-17" d="M112.89085,36.382c-.19794-.18387-.8635-.65472-.8635-.65472a.49564.49564,0,0,1,.066-.08381.51484.51484,0,0,1,.08447-.06646,4.59169,4.59169,0,0,1,.959.67c.263.23423.993.96937.993.96937l-.358.08327S113.12384,36.59845,112.89085,36.382Z"/>
            <g>
              <path class="cls-18" d="M113.71072,32.88626a4.86069,4.86069,0,0,1-.66845.32079c-.05363.01369-.85152.21434-.85152.21434l-1.14281.4201a1.59775,1.59775,0,0,1,.09063-1.48879l.00017-.00024c.012-.01647.02457-.03286.03766-.04891a1.56384,1.56384,0,0,1,.58656-.4319C113.11052,31.26375,113.69559,32.83619,113.71072,32.88626Z"/>
              <path class="cls-35" d="M113.05351,33.17948l-.21765.06978a3.07279,3.07279,0,0,0-1.706-.87924l.00875-.01732.00017-.00024c.00913-.01637.01736-.02521.03039-.04945l.00727.00054A3.3258,3.3258,0,0,1,113.05351,33.17948Z"/>
              <path class="cls-18" d="M112.19075,33.42139a.982.982,0,0,0-.13108.37138c-.01.17227-.75857.40906-.82684.33267a2.34465,2.34465,0,0,1-.18489-.28395Z"/>
              <path class="cls-35" d="M112.19075,33.42139a5.8162,5.8162,0,0,0,2.001-.683.06131.06131,0,0,0-.03323-.10975,2.78814,2.78814,0,0,0-.54526.036A2.811,2.811,0,0,1,112.19075,33.42139Z"/>
            </g>
            <path class="cls-17" d="M114.97581,42.97883a8.68243,8.68243,0,0,1-.33,2.502,39.07261,39.07261,0,0,1-1.94454,4.534L112.693,49.905c-.16554-2.26243-.423-7.02642-.423-7.02642Z"/>
            <path class="cls-18" d="M114.97581,42.97883s-2.108,5.3074-3.43238,7.68017-1.73819,3.035-1.73819,3.035-.75872-.30351-.82771-.51044c0,0,.50642-4.58075,1.39331-5.69737a8.39352,8.39352,0,0,0,1.11741-3.18669c.02759-.66217.10141-2.2485.10141-2.2485Z"/>
          </g>
          <g class="cls-36">
            <path class="cls-8" d="M146.56929,11.70642q.28332.095.56469.19828l-1.21006-.00528h-.00036l-.31855-.00113h-.00036l-3.71692-.01659-.31928-.00114h-.00037l-3.71725-.01657-.31931-.00114h-.00037l-3.71728-.01659-.31928-.00112h-.00037l-3.71728-.01659-.31928-.00113h-.0004L125.74,11.81083l-.31928-.00112h-.00041l-3.71688-.01659-.31927-.00114h-.00038l-3.71728-.01659-.31968-.00149h-.00037l-3.71688-.01622-.31966-.00151h-.00039L109.59265,11.74l-.31968-.00151h-.00037l-3.71651-.0162-.31967-.00151H105.236l-3.71688-.0162-.31967-.00151h-.00038l-3.71688-.01622-.31969-.00151h-.00037l-.90171-.00376c.07993-.066.1606-.13119.24241-.1949h.00037l.67138.00263H97.175l4.03618.0181h.00114l4.0358.01772h.00113l4.03544.01771h.00112l4.03581.01773h.00112l4.03581.01771h.00114l4.03579.01772h.00114l4.03542.01771h.00115l4.03579.01773h.00114l4.03579.01771h.00114l4.03579.01772h.0011l4.03583.01771h.00114l4.03579.01773Z"/>
            <path class="cls-8" d="M150.544,13.60746c.092.06483.18206.13081.27029.19715l-56.36216-.24729q.07465-.099.15268-.19528l1.16557.00491.31966.00151,3.71729.01621.31927.00151,3.71727.0162h.00039l.31927.00151,3.71729.01622h.00037l.31929.00149,3.71727.01623h.00037l.3193.0015h.00036l3.7169.01621h.00037l.31931.00151h.00037l3.71651.0162h.00037l.31931.00151h.00038l3.71688.01621h.00036l.31932.00151h.00037l3.71688.01622h.00037l.31931.0015h.00037l3.71688.01621h.0004l.31928.00151h.00037l3.71651.0162h.00037l.31928.00151h.0004l3.71725.01659h.0004l.31891.00113h.00037l3.71725.01659h.0004l.31891.00114h.00037l3.71725.01657h.0004l.31891.00114h.00038Z"/>
            <g>
              <path class="cls-8" d="M96.09084,13.36883l-.09274.14438-.22769-.14626-.75808-.487q.05824-.06505.11687-.12893l.96087.61747Z"/>
              <rect class="cls-8" x="98.51896" y="10.75513" width="0.17153" height="3.50984" transform="translate(34.78258 88.70799) rotate(-57.28153)"/>
              <rect class="cls-8" x="102.55581" y="10.77286" width="0.17153" height="3.50983" transform="translate(36.62254 92.11248) rotate(-57.28153)"/>
              <rect class="cls-8" x="106.59266" y="10.79058" width="0.17154" height="3.50984" transform="translate(38.46251 95.51698) rotate(-57.28153)"/>
              <rect class="cls-8" x="110.62952" y="10.80832" width="0.17153" height="3.50984" transform="matrix(0.54051, -0.84134, 0.84134, 0.54051, 40.30255, 98.92154)"/>
              <rect class="cls-8" x="114.66636" y="10.82605" width="0.17154" height="3.50983" transform="translate(42.14233 102.32587) rotate(-57.28145)"/>
              <rect class="cls-8" x="118.70322" y="10.84378" width="0.17154" height="3.50984" transform="translate(43.98249 105.73053) rotate(-57.28157)"/>
              <rect class="cls-8" x="122.74008" y="10.86151" width="0.17152" height="3.50984" transform="translate(45.82247 109.13503) rotate(-57.28157)"/>
              <rect class="cls-8" x="126.77691" y="10.87923" width="0.17153" height="3.50985" transform="translate(47.66235 112.53945) rotate(-57.28153)"/>
              <rect class="cls-8" x="130.81377" y="10.89696" width="0.17151" height="3.50984" transform="translate(49.5019 115.94362) rotate(-57.28129)"/>
              <rect class="cls-8" x="134.85061" y="10.91469" width="0.17153" height="3.50984" transform="translate(51.34194 119.34817) rotate(-57.28134)"/>
              <rect class="cls-8" x="138.88747" y="10.93243" width="0.17153" height="3.50982" transform="translate(53.1819 122.75266) rotate(-57.28134)"/>
              <rect class="cls-8" x="142.92432" y="10.95016" width="0.17153" height="3.50982" transform="translate(55.02126 126.15669) rotate(-57.28104)"/>
              <rect class="cls-8" x="146.96116" y="10.96787" width="0.17153" height="3.50985" transform="translate(56.86182 129.56164) rotate(-57.28134)"/>
            </g>
          </g>
          <g>
            <rect class="cls-37" x="122.27343" y="40.42168" width="6.47928" height="5.3426" transform="translate(251.02614 86.18595) rotate(180)"/>
            <rect class="cls-21" x="125.51305" y="40.42168" width="6.47931" height="5.3426" transform="translate(257.50542 86.18595) rotate(180)"/>
            <polygon class="cls-14" points="122.277 44.409 123.304 44.409 123.213 44.12 123.304 43.914 122.277 43.914 122.277 44.409"/>
            <polygon class="cls-15" points="125.513 42.075 126.54 42.075 126.449 41.786 126.54 41.58 125.513 41.58 125.513 42.075"/>
            <polygon class="cls-14" points="125.513 41.58 124.486 41.58 124.577 41.869 124.486 42.075 125.513 42.075 125.513 41.58"/>
            <polygon class="cls-15" points="131.992 44.467 130.966 44.467 131.056 44.756 130.966 44.962 131.992 44.962 131.992 44.467"/>
            <rect class="cls-12" x="129.70363" y="40.78393" width="1.86451" height="0.72538"/>
          </g>
          <g id="P297LW">
            <path class="cls-20" d="M143.40445,36.99445s-.3071,1.74706-.643,3.57212c-.36491,1.98381-.76386,4.05992-.83921,4.08588-.14466.04995-.133-.2659-.23236-.50681a11.68163,11.68163,0,0,1-.24276-2.88693c.0194-.25249.08428-3.36516.51591-3.73272A3.79449,3.79449,0,0,1,143.40445,36.99445Z"/>
            <path class="cls-20" d="M141.59536,43.6822a1.02439,1.02439,0,0,1-.03382.56593c-.10853.28-.13157.35987.06925.517s.41824.37793.56887.31257.05737-1.34683.05737-1.34683Z"/>
            <path class="cls-14" d="M142.0129,55.1379c.18639-.11376.08035-.96254.08035-.96254s-.8686-.69485-.988-.16284-.82512.77087-1.22683.836a.43113.43113,0,0,0-.38976.28939Z"/>
            <path class="cls-14" d="M145.86968,55.1379c.18639-.11376.08035-.96254.08035-.96254s-.8686-.69485-.988-.16284-.82511.77087-1.22682.836a.43116.43116,0,0,0-.38977.28939Z"/>
            <path class="cls-38" d="M144.66274,45.28665c-.30908,1.30623-.6985,2.79779-.85065,3.63864-.01774.09746-.03214.18616-.043.26463-.01063.07867-.01771.14735-.02086.20451a17.448,17.448,0,0,1-1.54832,5.26c-.34454.13-.88715-.14631-1.17121-.23668a.24368.24368,0,0,1-.17072-.27675,60.66477,60.66477,0,0,0,1.079-9.30719c.04153-1.2171.097-2.08285.097-2.08285s3.03655-.81019,3.0547.21474A13.52276,13.52276,0,0,1,144.66274,45.28665Z"/>
            <path class="cls-35" d="M144.66274,45.28665c-.30908,1.30623-.6985,2.79779-.85065,3.63864-.01774.09746-.11081.92382-.12164,1.00229l-.53161-6.03983.75383.06951Z"/>
            <path class="cls-38" d="M143.46739,43.31733l1.07132,11.19311a3.00136,3.00136,0,0,0,1.50958.059s.4165-6.11964.37735-7.61556.33729-4.00278-.08592-4.27925S143.46739,43.31733,143.46739,43.31733Z"/>
            <path class="cls-14" d="M146.31862,40.32459c.01167.12778.06032,2.5136.06368,2.60331.00378.09877-.26611.29556-1.21908.4369a8.92428,8.92428,0,0,1-1.20818.09088,2.21078,2.21078,0,0,1-1.64245-.48628c-.08106.00148.09048-.57941.118-4.351a.17206.17206,0,0,1-.06219-.00375,3.242,3.242,0,0,1-.81311-.50551,12.02239,12.02239,0,0,1,.92845-2.00132,1.33874,1.33874,0,0,1,.80106-.37849c.10366-.02221.21451-.04147.33022-.0573a6.69673,6.69673,0,0,1,1.7906.01134c.10477.01469.2081.03241.30912.05314a2.96242,2.96242,0,0,1,1.13242.44293c.41955.305.73192,1.866.73192,1.866a2.6095,2.6095,0,0,1-1.28493.66721A8.197,8.197,0,0,0,146.31862,40.32459Z"/>
            <path class="cls-38" d="M142.03407,42.75094l.36276-4.51866a.48456.48456,0,0,1,.50476-.44528l2.471.09679a.39373.39373,0,0,1,.37812.373c.03033.59346.14376,1.74635.568,2.06775l.22386,3.271-2.76153,2.50015a7.61589,7.61589,0,0,0-.745-2.3414C142.79478,43.46951,142.03407,42.75094,142.03407,42.75094Z"/>
            <path class="cls-38" d="M145.71472,35.73653l-.29818,2.30892-.30988-.049.29894-2.313C145.51037,35.69808,145.6137,35.7158,145.71472,35.73653Z"/>
            <path class="cls-38" d="M143.615,35.67205l-.38262,2.07144-.032.17378-.03429-.00792-.27254-.06106.39127-2.11894C143.38844,35.70714,143.49929,35.68788,143.615,35.67205Z"/>
            <path class="cls-20" d="M147.57906,40.5079s-.18535.56364-2.5703,1.34341c0,0-.02711-.637.11789-.72213a8.28047,8.28047,0,0,0,1.55295-1.18671,6.7155,6.7155,0,0,0-.52671-1.48273,3.36993,3.36993,0,0,0,1.34636-.33716C147.65434,39.21938,147.86808,39.987,147.57906,40.5079Z"/>
            <path class="cls-20" d="M144.73719,41.15977a1.00209,1.00209,0,0,0-.35176-.17468c-.15281-.02258-.41022-.12-.36849-.02953s.32351.23306.32351.23306Z"/>
            <g>
              <path class="cls-39" d="M144.35564,42.16478l-.77718.09487a.1778.1778,0,0,1-.19183-.1252l-.53167-1.76319a.17788.17788,0,0,1,.14875-.22793l.77719-.09488a.17783.17783,0,0,1,.19182.12521l.53168,1.76323A.17785.17785,0,0,1,144.35564,42.16478Z"/>
              <path class="cls-40" d="M144.08041,42.1984l-.77718.09487a.17792.17792,0,0,1-.19186-.12524l-.53164-1.76319a.17788.17788,0,0,1,.14875-.22793l.77715-.09488a.1779.1779,0,0,1,.19186.12524l.53168,1.7632A.17789.17789,0,0,1,144.08041,42.1984Z"/>
              <path class="cls-40" d="M143.531,40.42137h0a.05374.05374,0,0,1-.05461-.03508l-.52067-1.547a.03283.03283,0,0,1,.02764-.04513h0a.05374.05374,0,0,1,.05465.03509l.52067,1.547A.03287.03287,0,0,1,143.531,40.42137Z"/>
            </g>
            <path class="cls-20" d="M145.12665,41.12918a.38472.38472,0,0,1-.23675.05975.65869.65869,0,0,1-.24655-.093c-.0991-.06743-.31823.02174-.38292.06485-.18122.12084-.793.11594-.793.23675a.93994.93994,0,0,0,.58833.56116,2.15036,2.15036,0,0,0,.95321-.10742Z"/>
            <path class="cls-20" d="M145.13417,35.628c.01321.35887-.305.53379-.78182.46555-.47685-.06786-.48631-.438-.48631-.438l.01171-.35812.01358-.42368.01242-.3785,1.15429.15644a1.40756,1.40756,0,0,0,.00151.18284v.00037C145.07049,35.06174,145.1029,35.42778,145.13417,35.628Z"/>
            <path class="cls-32" d="M145.05992,34.83445l-.00037.00037c-.01093.01546-.27442.37507-1.1818.46253l.01358-.42368,1.16822-.03922Z"/>
            <path class="cls-20" d="M143.66921,35.07348s1.42033.28694,1.58539-.60031.45955-1.44782-.44032-1.66851-1.13953.085-1.26668.36774S143.304,34.976,143.66921,35.07348Z"/>
            <path class="cls-39" d="M145.18918,34.67033s.49387.11128.54063-.78761c.018-.34616.1041-1.56136-.88477-1.51972a2.016,2.016,0,0,0-1.52939.7212c-.67493.76168.96733.19478,1.18589.37175s.01044.4684.26024.5725.4476.10407.40593.33307S145.18918,34.67033,145.18918,34.67033Z"/>
            <path class="cls-18" d="M143.18337,33.10181a4.86385,4.86385,0,0,0,.71461.19757c.05522.004.876.06042.876.06042l1.19908.21145a1.59778,1.59778,0,0,0-.35242-1.44933l-.0002-.00021c-.0147-.0141-.03-.028-.04573-.04148a1.5639,1.5639,0,0,0-.65365-.3214C143.48725,31.39877,143.1894,33.04988,143.18337,33.10181Z"/>
            <path class="cls-35" d="M143.882,33.27422l.22655.03019a3.073,3.073,0,0,1,1.52373-1.167l-.01167-.0155-.0002-.00021c-.01188-.0145-.02154-.02175-.03868-.04329l-.007.00181A3.32592,3.32592,0,0,0,143.882,33.27422Z"/>
            <path class="cls-18" d="M144.774,33.3598a.98161.98161,0,0,1,.19465.34232c.04029.16785.819.26852.87265.18127a2.34241,2.34241,0,0,0,.13178-.31214Z"/>
            <path class="cls-35" d="M144.774,33.3598a5.81684,5.81684,0,0,1-2.09019-.31847.06131.06131,0,0,1,.01332-.1139,2.788,2.788,0,0,1,.543-.061A2.8108,2.8108,0,0,0,144.774,33.3598Z"/>
          </g>
          <rect class="cls-21" x="70.8485" y="44.27094" width="15.33094" height="11.15111"/>
          <g>
            <polygon class="cls-21" points="88.121 31.638 86.031 31.638 86.031 55.138 89.576 55.138 89.576 43.548 88.121 37.593 88.121 31.638"/>
            <g>
              <rect class="cls-24" x="88.12123" y="31.6382" width="11.58892" height="5.95469"/>
              <rect class="cls-24" x="89.57553" y="43.54754" width="11.5889" height="11.59036"/>
              <polygon class="cls-41" points="101.164 43.548 89.576 43.548 88.121 37.593 99.71 37.593 101.164 43.548"/>
              <g>
                <g>
                  <g>
                    <polygon class="cls-21" points="89.767 38.776 89.464 38.776 89.348 38.344 89.651 38.344 89.767 38.776"/>
                    <polygon class="cls-21" points="90.456 38.776 90.153 38.776 90.037 38.344 90.34 38.344 90.456 38.776"/>
                    <polygon class="cls-21" points="91.145 38.776 90.842 38.776 90.727 38.344 91.03 38.344 91.145 38.776"/>
                    <polygon class="cls-21" points="91.835 38.776 91.532 38.776 91.416 38.344 91.719 38.344 91.835 38.776"/>
                    <polygon class="cls-21" points="92.524 38.776 92.221 38.776 92.105 38.344 92.408 38.344 92.524 38.776"/>
                    <polygon class="cls-21" points="93.213 38.776 92.91 38.776 92.794 38.344 93.097 38.344 93.213 38.776"/>
                  </g>
                  <g>
                    <polygon class="cls-21" points="89.983 39.581 89.68 39.581 89.564 39.15 89.867 39.15 89.983 39.581"/>
                    <polygon class="cls-21" points="90.672 39.581 90.369 39.581 90.254 39.15 90.557 39.15 90.672 39.581"/>
                    <polygon class="cls-21" points="91.362 39.581 91.059 39.581 90.943 39.15 91.246 39.15 91.362 39.581"/>
                    <polygon class="cls-21" points="92.051 39.581 91.748 39.581 91.632 39.15 91.935 39.15 92.051 39.581"/>
                    <polygon class="cls-21" points="92.74 39.581 92.437 39.581 92.321 39.15 92.624 39.15 92.74 39.581"/>
                    <polygon class="cls-21" points="93.43 39.581 93.127 39.581 93.011 39.15 93.314 39.15 93.43 39.581"/>
                  </g>
                </g>
                <g>
                  <g>
                    <polygon class="cls-21" points="90.207 40.415 89.904 40.415 89.788 39.984 90.091 39.984 90.207 40.415"/>
                    <polygon class="cls-21" points="90.897 40.415 90.594 40.415 90.478 39.984 90.781 39.984 90.897 40.415"/>
                    <polygon class="cls-21" points="91.586 40.415 91.283 40.415 91.167 39.984 91.47 39.984 91.586 40.415"/>
                    <polygon class="cls-21" points="92.275 40.415 91.972 40.415 91.856 39.984 92.159 39.984 92.275 40.415"/>
                    <polygon class="cls-21" points="92.964 40.415 92.661 40.415 92.546 39.984 92.849 39.984 92.964 40.415"/>
                    <polygon class="cls-21" points="93.654 40.415 93.351 40.415 93.235 39.984 93.538 39.984 93.654 40.415"/>
                  </g>
                  <g>
                    <polygon class="cls-21" points="90.424 41.221 90.121 41.221 90.005 40.789 90.308 40.789 90.424 41.221"/>
                    <polygon class="cls-21" points="91.113 41.221 90.81 41.221 90.694 40.789 90.997 40.789 91.113 41.221"/>
                    <polygon class="cls-21" points="91.802 41.221 91.499 41.221 91.383 40.789 91.686 40.789 91.802 41.221"/>
                    <polygon class="cls-21" points="92.491 41.221 92.188 41.221 92.073 40.789 92.376 40.789 92.491 41.221"/>
                    <polygon class="cls-21" points="93.181 41.221 92.878 41.221 92.762 40.789 93.065 40.789 93.181 41.221"/>
                    <polygon class="cls-21" points="93.87 41.221 93.567 41.221 93.451 40.789 93.754 40.789 93.87 41.221"/>
                  </g>
                </g>
              </g>
              <g>
                <g>
                  <g>
                    <polygon class="cls-21" points="94.564 38.776 94.261 38.776 94.145 38.344 94.448 38.344 94.564 38.776"/>
                    <polygon class="cls-21" points="95.253 38.776 94.95 38.776 94.834 38.344 95.137 38.344 95.253 38.776"/>
                    <polygon class="cls-21" points="95.943 38.776 95.64 38.776 95.524 38.344 95.827 38.344 95.943 38.776"/>
                    <polygon class="cls-21" points="96.632 38.776 96.329 38.776 96.213 38.344 96.516 38.344 96.632 38.776"/>
                    <polygon class="cls-21" points="97.321 38.776 97.018 38.776 96.902 38.344 97.205 38.344 97.321 38.776"/>
                    <polygon class="cls-21" points="98.011 38.776 97.708 38.776 97.592 38.344 97.895 38.344 98.011 38.776"/>
                  </g>
                  <g>
                    <polygon class="cls-21" points="94.78 39.581 94.477 39.581 94.361 39.15 94.664 39.15 94.78 39.581"/>
                    <polygon class="cls-21" points="95.47 39.581 95.167 39.581 95.051 39.15 95.354 39.15 95.47 39.581"/>
                    <polygon class="cls-21" points="96.159 39.581 95.856 39.581 95.74 39.15 96.043 39.15 96.159 39.581"/>
                    <polygon class="cls-21" points="96.848 39.581 96.545 39.581 96.429 39.15 96.732 39.15 96.848 39.581"/>
                    <polygon class="cls-21" points="97.538 39.581 97.235 39.581 97.119 39.15 97.422 39.15 97.538 39.581"/>
                    <polygon class="cls-21" points="98.227 39.581 97.924 39.581 97.808 39.15 98.111 39.15 98.227 39.581"/>
                  </g>
                </g>
                <g>
                  <g>
                    <polygon class="cls-21" points="95.004 40.415 94.701 40.415 94.585 39.984 94.888 39.984 95.004 40.415"/>
                    <polygon class="cls-21" points="95.694 40.415 95.391 40.415 95.275 39.984 95.578 39.984 95.694 40.415"/>
                    <polygon class="cls-21" points="96.383 40.415 96.08 40.415 95.964 39.984 96.267 39.984 96.383 40.415"/>
                    <polygon class="cls-21" points="97.072 40.415 96.769 40.415 96.653 39.984 96.956 39.984 97.072 40.415"/>
                    <polygon class="cls-21" points="97.762 40.415 97.459 40.415 97.343 39.984 97.646 39.984 97.762 40.415"/>
                    <polygon class="cls-21" points="98.451 40.415 98.148 40.415 98.032 39.984 98.335 39.984 98.451 40.415"/>
                  </g>
                  <g>
                    <polygon class="cls-21" points="95.221 41.221 94.918 41.221 94.802 40.789 95.105 40.789 95.221 41.221"/>
                    <polygon class="cls-21" points="95.91 41.221 95.607 41.221 95.491 40.789 95.794 40.789 95.91 41.221"/>
                    <polygon class="cls-21" points="96.599 41.221 96.296 41.221 96.18 40.789 96.483 40.789 96.599 41.221"/>
                    <polygon class="cls-21" points="97.289 41.221 96.986 41.221 96.87 40.789 97.173 40.789 97.289 41.221"/>
                    <polygon class="cls-21" points="97.978 41.221 97.675 41.221 97.559 40.789 97.862 40.789 97.978 41.221"/>
                    <polygon class="cls-21" points="98.667 41.221 98.364 41.221 98.248 40.789 98.551 40.789 98.667 41.221"/>
                  </g>
                </g>
              </g>
              <rect class="cls-16" x="89.01083" y="33.53992" width="4.3025" height="3.46654"/>
              <rect class="cls-42" x="93.01079" y="33.53992" width="0.30738" height="3.46654"/>
              <path class="cls-21" d="M100.75432,53.95442H90.38967V49.69227h10.36465Zm-10.29692-.0677h10.22919V49.76H90.4574Z"/>
              <path class="cls-12" d="M95.956,32.63373c0,.1292-.07354.234-.16427.234s-.16425-.10475-.16425-.234.07354-.234.16425-.234S95.956,32.50452,95.956,32.63373Z"/>
              <path class="cls-18" d="M96.72417,32.63373c0,.1292-.07354.234-.16425.234s-.16427-.10475-.16427-.234.07353-.234.16427-.234S96.72417,32.50452,96.72417,32.63373Z"/>
              <path class="cls-42" d="M97.49239,32.63373c0,.1292-.07356.234-.16427.234s-.16427-.10475-.16427-.234.07354-.234.16427-.234S97.49239,32.50452,97.49239,32.63373Z"/>
              <path class="cls-12" d="M98.2606,32.63373c0,.1292-.07356.234-.16427.234s-.16427-.10475-.16427-.234.07355-.234.16427-.234S98.2606,32.50452,98.2606,32.63373Z"/>
              <path class="cls-18" d="M99.0288,32.63373c0,.1292-.07354.234-.16427.234s-.16427-.10475-.16427-.234.07356-.234.16427-.234S99.0288,32.50452,99.0288,32.63373Z"/>
              <path class="cls-21" d="M99.06267,36.37146H95.65983V33.50607h3.40284Zm-3.3351-.0677h3.26736v-2.73H95.72757Z"/>
              <rect class="cls-43" x="90.18997" y="33.91029" width="0.5252" height="0.09709"/>
              <g>
                <rect class="cls-43" x="89.1699" y="33.91029" width="0.82786" height="0.09709"/>
                <rect class="cls-43" x="89.1699" y="34.16922" width="1.25238" height="0.09709"/>
                <rect class="cls-43" x="90.59144" y="34.16922" width="0.8307" height="0.09709"/>
                <rect class="cls-43" x="90.8288" y="33.91029" width="0.90698" height="0.09709"/>
              </g>
              <g>
                <rect class="cls-43" x="89.1699" y="34.61554" width="0.82786" height="0.09709"/>
                <rect class="cls-43" x="89.1699" y="34.87447" width="1.25238" height="0.09709"/>
                <rect class="cls-43" x="90.59144" y="34.87447" width="0.8307" height="0.09709"/>
                <rect class="cls-43" x="90.18997" y="34.61554" width="0.5252" height="0.09709"/>
                <rect class="cls-43" x="90.8288" y="34.61554" width="0.90698" height="0.09709"/>
              </g>
              <g>
                <rect class="cls-43" x="89.1699" y="35.39229" width="0.82786" height="0.09709"/>
                <rect class="cls-43" x="89.1699" y="35.65118" width="1.25238" height="0.09709"/>
                <rect class="cls-43" x="90.59144" y="35.65118" width="0.8307" height="0.09709"/>
                <rect class="cls-43" x="90.18997" y="35.39229" width="0.5252" height="0.09709"/>
                <rect class="cls-43" x="90.8288" y="35.39229" width="0.90698" height="0.09709"/>
              </g>
              <g>
                <rect class="cls-43" x="89.1699" y="36.14025" width="0.82786" height="0.09709"/>
                <rect class="cls-43" x="89.1699" y="36.39917" width="1.25238" height="0.09709"/>
                <rect class="cls-43" x="90.59144" y="36.39917" width="0.8307" height="0.09709"/>
                <rect class="cls-43" x="90.18997" y="36.14025" width="0.5252" height="0.09709"/>
                <rect class="cls-43" x="90.8288" y="36.14025" width="0.90698" height="0.09709"/>
              </g>
            </g>
          </g>
          <rect class="cls-24" x="70.44285" y="44.27094" width="19.13268" height="0.681"/>
          <g>
            <rect class="cls-44" x="154.43335" y="51.00582" width="5.00674" height="4.12839" transform="translate(313.87343 106.14003) rotate(180)"/>
            <rect class="cls-21" x="156.93672" y="51.00582" width="5.00674" height="4.12839" transform="translate(318.88018 106.14003) rotate(180)"/>
            <polygon class="cls-45" points="154.436 54.087 155.23 54.087 155.16 53.864 155.23 53.704 154.436 53.704 154.436 54.087"/>
            <polygon class="cls-44" points="156.937 52.283 157.73 52.283 157.66 52.06 157.73 51.901 156.937 51.901 156.937 52.283"/>
            <polygon class="cls-45" points="156.937 51.901 156.143 51.901 156.213 52.124 156.143 52.283 156.937 52.283 156.937 51.901"/>
            <polygon class="cls-44" points="161.944 54.132 161.15 54.132 161.22 54.355 161.15 54.514 161.944 54.514 161.944 54.132"/>
            <rect class="cls-12" x="160.1749" y="51.28575" width="1.44076" height="0.56052"/>
          </g>
          <g>
            <rect class="cls-44" x="147.64868" y="51.00166" width="5.01681" height="4.13671" transform="translate(300.31416 106.14003) rotate(180)"/>
            <rect class="cls-9" x="150.15708" y="51.00166" width="5.01681" height="4.13671" transform="translate(305.33097 106.14003) rotate(180)"/>
            <polygon class="cls-14" points="147.652 54.089 148.447 54.089 148.377 53.866 148.447 53.706 147.652 53.706 147.652 54.089"/>
            <polygon class="cls-15" points="150.157 52.282 150.952 52.282 150.882 52.058 150.952 51.898 150.157 51.898 150.157 52.282"/>
            <polygon class="cls-14" points="150.157 51.898 149.362 51.898 149.432 52.122 149.362 52.282 150.157 52.282 150.157 51.898"/>
            <polygon class="cls-15" points="155.174 54.134 154.379 54.134 154.449 54.357 154.379 54.517 155.174 54.517 155.174 54.134"/>
            <rect class="cls-12" x="153.40174" y="51.28216" width="1.44368" height="0.56163"/>
          </g>
          <g>
            <rect class="cls-17" x="150.2482" y="47.12711" width="4.70377" height="3.87858" transform="translate(305.20016 98.13279) rotate(180)"/>
            <rect class="cls-18" x="152.60006" y="47.12711" width="4.70377" height="3.87858" transform="translate(309.9039 98.13279) rotate(180)"/>
            <polygon class="cls-19" points="150.251 50.022 150.996 50.022 150.931 49.812 150.996 49.662 150.251 49.662 150.251 50.022"/>
            <polygon class="cls-20" points="152.6 48.327 153.345 48.327 153.28 48.118 153.345 47.968 152.6 47.968 152.6 48.327"/>
            <polygon class="cls-19" points="152.6 47.968 151.855 47.968 151.92 48.178 151.855 48.327 152.6 48.327 152.6 47.968"/>
            <polygon class="cls-20" points="157.304 50.064 156.559 50.064 156.624 50.273 156.559 50.423 157.304 50.423 157.304 50.064"/>
            <rect class="cls-12" x="155.64229" y="47.39009" width="1.3536" height="0.52661"/>
          </g>
          <g>
            <g>
              <rect class="cls-21" x="93.65375" y="34.62809" width="0.20902" height="0.20904"/>
              <rect class="cls-21" x="94.19654" y="34.62809" width="0.20902" height="0.20904"/>
              <rect class="cls-21" x="94.73932" y="34.62809" width="0.20904" height="0.20904"/>
            </g>
            <g>
              <rect class="cls-21" x="93.65375" y="35.09374" width="0.20902" height="0.20904"/>
              <rect class="cls-21" x="94.19654" y="35.09374" width="0.20902" height="0.20904"/>
              <rect class="cls-21" x="94.73932" y="35.09374" width="0.20904" height="0.20904"/>
            </g>
            <g>
              <rect class="cls-21" x="93.65375" y="35.60968" width="0.20902" height="0.20901"/>
              <rect class="cls-21" x="94.19654" y="35.60968" width="0.20902" height="0.20901"/>
              <rect class="cls-21" x="94.73932" y="35.60968" width="0.20904" height="0.20901"/>
            </g>
          </g>
          <g>
            <g>
              <path class="cls-39" d="M95.83156,40.35529l.33856-.05006c.03742-.00554.05344-.044.03794-.09115l-.32961-1.00333a.14073.14073,0,0,0-.1292-.10158l-.33855.05c-.03742.00554-.05344.044-.038.09115l.32963,1.0033A.14073.14073,0,0,0,95.83156,40.35529Z"/>
              <path class="cls-40" d="M95.95147,40.33757l.33855-.05008c.0374-.00554.05342-.044.03794-.09115l-.32961-1.0033a.14081.14081,0,0,0-.12921-.10162l-.33855.05009c-.03741.00553-.05343.044-.038.09115l.32963,1.0033A.1408.1408,0,0,0,95.95147,40.33757Z"/>
              <path class="cls-40" d="M95.62466,39.32465h0c.00986-.00148.01481-.013.011-.02566l-.26761-.88726a.026.026,0,0,0-.02486-.02036h0c-.00986.00148-.01481.013-.011.02566l.26762.88726A.026.026,0,0,0,95.62466,39.32465Z"/>
            </g>
            <path class="cls-20" d="M95.53527,35.95627a2.71352,2.71352,0,0,0-.43843-.57,1.18537,1.18537,0,0,0-.72618-.15764c-.06153.12205.20308.29807.25811.41013s.03142.27328.29214.40523c.2692.13624.4254.22568.4254.22568Z"/>
            <path class="cls-39" d="M95.32871,35.8996c.12567-.19558.16325-.20571.16325-.20571s2.0786.82907,2.277.89832,3.164.24356,3.164.24356l.895,1.96717s-3.95207-.90134-4.45125-1.0866a9.73576,9.73576,0,0,1-2.14813-1.50521A.64777.64777,0,0,1,95.32871,35.8996Z"/>
            <path class="cls-46" d="M100.49255,54.29285a2.78937,2.78937,0,0,1-.18076.90124h-2.085a.371.371,0,0,1,.33288-.29791A1.52667,1.52667,0,0,0,99.64,54.172C99.85,53.71391,100.49255,54.29285,100.49255,54.29285Z"/>
            <path class="cls-46" d="M104.1925,54.1911s.13.94777-.04853.96414c-.02373.00218-.793.00178-1.094,0-.37492-.00218-.9737.00235-.9737.00235a.098.098,0,0,1-.08877-.14741.39515.39515,0,0,1,.28325-.18173,1.52769,1.52769,0,0,0,1.06737-.74316C103.53994,53.62363,104.1925,54.1911,104.1925,54.1911Z"/>
            <path class="cls-17" d="M99.5122,44.58237a37.19643,37.19643,0,0,0,2.02678,5.02009,15.68622,15.68622,0,0,1,1.61849,4.63735l1.035-.04871s-.09731-3.79173-.807-5.39933-.85435-6.00675-.85435-6.00675Z"/>
            <path class="cls-18" d="M98.67052,43.004a45.75257,45.75257,0,0,0,.44973,6.32831,22.72294,22.72294,0,0,1,.32488,4.9682l1.17711.03915a23.66564,23.66564,0,0,0,.50177-5.23474c-.2017-1.74568.96329-5.99021.96329-5.99021Z"/>
            <path class="cls-20" d="M100.99319,36.35663l-.55519.4112-.80238-.16891c.01111-.07317.06408-.37641.11232-.65111l.00856-.04824c.04131-.2337.077-.43448.077-.43448l.7494-.37353.27941-.13926c-.00072.00493-.02166.2594-.02458.29654A2.39944,2.39944,0,0,0,100.99319,36.35663Z"/>
            <path class="cls-46" d="M99.69178,36.14917a7.59984,7.59984,0,0,1,1.20814-.28576c.11665.03851.18572.26422.18572.26422l-1.65795.47226S99.46738,36.24364,99.69178,36.14917Z"/>
            <path class="cls-14" d="M102.58346,43.35464c-.18173.83031-3.97683-1.77514-3.92629-2.28186l.01669-.16737c.07-.70562.13723-1.39591.14186-1.84653a6.35237,6.35237,0,0,1,.12934-1.15346c.06584-.33521.147-.63933.21743-.87621a.968.968,0,0,1,.56792-.62219.84819.84819,0,0,1,.09412-.03291,4.29674,4.29674,0,0,1,1.261-.24661c.46453.13674.80946.95408,1.05377,1.99625A19.43543,19.43543,0,0,1,102.58346,43.35464Z"/>
            <path class="cls-47" d="M100.78148,35.26047a2.28047,2.28047,0,0,1-1.03354.68734l.00856-.04824c.04131-.2337.077-.43448.077-.43448l.7494-.37353C100.74853,35.089,100.84938,35.13088,100.78148,35.26047Z"/>
            <path class="cls-20" d="M99.46931,35.42121s1.352.42177,1.60169-.42426.59235-1.36132-.26032-1.66637-1.11641-.03194-1.26844.23014S99.12406,35.2897,99.46931,35.42121Z"/>
            <path class="cls-46" d="M99.59533,33.47923s.08624.98448.28982.94173.38824-.07441.35843.22236-.31213.63943.31532.69194,1.52944-1.56567,1.35708-1.872C101.41865,32.57923,98.87651,32.40082,99.59533,33.47923Z"/>
            <path class="cls-39" d="M98.77169,43.004c.37587.13584-.00651-.37349,0-.47967.02918-.46686-.15392-1.057-.09783-1.61891l2.29546-1.37209S101.51392,42.98218,98.77169,43.004Z"/>
            <path class="cls-18" d="M102.58346,43.35464a12.11639,12.11639,0,0,0-1.136,2.50961c-.85285-.09719-2.31428-1.7739-2.77783-2.22147,0,0-.063-2.06328-.01248-2.57l.70839-.02039s1.28048.32451,1.61243-.11591a7.50476,7.50476,0,0,0,.18822-2.60224l.9731-.21049C102.59643,40.07462,102.84646,42.86718,102.58346,43.35464Z"/>
            <path class="cls-20" d="M96.99267,39.88041A1.29567,1.29567,0,0,1,96.64,39.766c-.10772-.08847-.19233-.23669-.2451-.25309-.08847-.02751-.30576-.30056-.324-.31985-.00706-.00748-.06569.0209-.05143.06586.01439.04532.04688.14294.05854.17817.0514.15513.04895.203-.13666.14281-.02392-.00775-.45282-.14382-.49682-.04656a.84606.84606,0,0,0,.35735.6665,2.564,2.564,0,0,0,.81584.02134C96.95545,40.31932,96.99267,39.88041,96.99267,39.88041Z"/>
            <path class="cls-14" d="M96.76473,39.78916a17.1293,17.1293,0,0,0,2.47834.28881c.322-.15676-.12495-2.46663-.12495-2.46663a.66439.66439,0,0,1,.59228-.64695,1.47154,1.47154,0,0,1,1.044.29073,1.19976,1.19976,0,0,1,.40669.87994c-.13205,1.02574-.33745,3.112-1.02352,3.43175-.88488.41248-3.44545-1.14376-3.44545-1.14376a.44766.44766,0,0,1-.07313-.29831A.69527.69527,0,0,1,96.76473,39.78916Z"/>
            <path class="cls-18" d="M101.3549,38.29344l-.18869.0408s-.3987-1.726-1.73852-1.73435a.95844.95844,0,0,1,.30272-.19287A2.26392,2.26392,0,0,1,101.3549,38.29344Z"/>
            <path class="cls-20" d="M94.78741,35.73176s-.36912-.22638-.3864-.12929c-.00858.04831.1555.18079.22147.23735s.23424.16761.23424.16761Z"/>
          </g>
          <path class="cls-48" d="M65.651,55.1379h99.22492a.133.133,0,0,1,.133.133v.10132a.133.133,0,0,1-.133.133H65.651a.133.133,0,0,1-.133-.133v-.10131A.133.133,0,0,1,65.651,55.1379Z"/>
        </g>
        <rect class="cls-21" x="22.02158" y="43.84282" width="71.47831" height="51.99046"/>
        <rect class="cls-24" x="20.1303" y="43.84282" width="89.20338" height="3.17504"/>
        <g>
          <g>
            <g>
              <path class="cls-49" d="M34.40891,27.64379,33.1467,42.65171s-.13222.90979.54447.91141c1.11263.00264,5.538,0,5.538,0s-.83741-.18941-.82726-.61549c.01193-.50228,1.47524-15.44586,1.47524-15.44586Z"/>
              <path class="cls-50" d="M39.58818,43.29082c-.2188.00058-4.44557.01383-5.52909,0-.47219-.00588-.555-.41985-.55894-.68777a1.34714,1.34714,0,0,1,.01435-.2234l.03279-.39012.0837-.99418.0739-.87843.09493-1.12871.08-.95268.89683-10.66426,5.46828-.1418s-.61629,6.25374-1.05222,10.80606c-.04871.50722-.095.99348-.13782,1.44746q-.02085.21753-.04017.42469c-.04041.43069-.07736.82622-.10953,1.17541-.01694.18409-.03262.35506-.04675.51184-.05562.61387-.08824,1.00594-.08864,1.0804a.62733.62733,0,0,0,.01066.12151C38.8702,43.27514,39.506,43.29082,39.58818,43.29082Z"/>
              <polygon class="cls-51" points="21.129 19.477 24.204 31.827 24.625 33.518 26.056 39.27 52.66 39.27 47.382 19.477 21.129 19.477"/>
              <polygon class="cls-50" points="21.129 19.477 20.703 19.619 25.49 39.7 26.057 39.27 21.129 19.477"/>
              <polygon class="cls-49" points="25.49 39.7 51.93 39.7 52.66 39.27 26.057 39.27 25.49 39.7"/>
              <rect class="cls-51" x="34.77487" y="43.29681" width="5.72466" height="0.27206" transform="translate(75.27439 86.86569) rotate(180)"/>
              <polygon class="cls-51" points="51.371 35.623 47.054 19.739 21.087 19.739 21.087 19.477 47.382 19.477 51.684 35.588 51.371 35.623"/>
              <polygon class="cls-49" points="39.044 39.7 39.015 39.908 33.631 40.995 33.705 40.117 33.74 39.7 39.044 39.7"/>
              <path class="cls-52" d="M39.58818,43.29082c-.2188.00058-4.44557.01383-5.52909,0-.47219-.00588-.555-.41985-.55894-.68777l5.35829-1.00812c-.05562.61387-.08824,1.00594-.08864,1.0804a.62733.62733,0,0,0,.01066.12151C38.8702,43.27514,39.506,43.29082,39.58818,43.29082Z"/>
              <polygon class="cls-52" points="37.743 35.263 26.057 39.27 24.625 33.518 37.743 35.263"/>
              <polygon class="cls-21" points="21.129 19.477 47.382 19.477 51.642 35.384 24.954 35.384 21.129 19.477"/>
            </g>
            <polygon class="cls-53" points="50.403 34.695 25.823 34.695 23.039 23.606 22.826 22.755 22.643 22.03 22.216 20.329 46.443 20.329 46.912 22.03 47.112 22.755 47.346 23.606 50.403 34.695"/>
            <g>
              <polygon class="cls-54" points="44.078 21.105 42.973 21.12 42.948 21.024 44.054 21.008 44.078 21.105"/>
              <polygon class="cls-54" points="43.834 21.369 43.04 21.38 43.015 21.284 43.81 21.273 43.834 21.369"/>
              <polygon class="cls-54" points="44.747 21.356 43.953 21.368 43.928 21.272 44.723 21.26 44.747 21.356"/>
              <polygon class="cls-54" points="45.408 21.347 44.915 21.354 44.891 21.258 45.383 21.251 45.408 21.347"/>
              <polygon class="cls-54" points="44.965 21.092 44.283 21.102 44.259 21.006 44.941 20.996 44.965 21.092"/>
              <polygon class="cls-54" points="45.897 21.079 45.215 21.088 45.19 20.992 45.872 20.983 45.897 21.079"/>
            </g>
            <g>
              <polygon class="cls-54" points="47.027 33.709 45.921 33.724 45.897 33.628 47.002 33.613 47.027 33.709"/>
              <polygon class="cls-54" points="46.783 33.973 45.988 33.985 45.963 33.889 46.758 33.877 46.783 33.973"/>
              <polygon class="cls-54" points="47.696 33.961 46.901 33.972 46.876 33.876 47.671 33.865 47.696 33.961"/>
              <polygon class="cls-54" points="48.356 33.951 47.864 33.958 47.839 33.862 48.332 33.855 48.356 33.951"/>
              <polygon class="cls-54" points="47.913 33.696 47.232 33.706 47.207 33.61 47.889 33.6 47.913 33.696"/>
              <polygon class="cls-54" points="48.845 33.683 48.163 33.693 48.138 33.597 48.82 33.587 48.845 33.683"/>
            </g>
            <g>
              <g>
                <polygon class="cls-54" points="26.81 21.837 24.219 21.831 24.167 21.613 26.758 21.619 26.81 21.837"/>
                <polygon class="cls-54" points="26.22 22.425 24.358 22.42 24.306 22.203 26.169 22.207 26.22 22.425"/>
                <polygon class="cls-54" points="28.36 22.43 26.498 22.426 26.446 22.208 28.309 22.213 28.36 22.43"/>
                <polygon class="cls-54" points="29.909 22.434 28.754 22.431 28.703 22.214 29.858 22.216 29.909 22.434"/>
                <polygon class="cls-54" points="28.889 21.842 27.29 21.838 27.239 21.621 28.838 21.625 28.889 21.842"/>
                <polygon class="cls-54" points="31.072 21.847 29.474 21.844 29.423 21.626 31.021 21.63 31.072 21.847"/>
              </g>
              <g>
                <g>
                  <polygon class="cls-54" points="26.858 23.753 24.67 23.747 24.619 23.53 26.807 23.535 26.858 23.753"/>
                  <polygon class="cls-54" points="28.478 23.757 27.256 23.754 27.205 23.536 28.427 23.539 28.478 23.757"/>
                  <polygon class="cls-54" points="30.907 23.763 29.033 23.758 28.982 23.54 30.856 23.545 30.907 23.763"/>
                </g>
                <g>
                  <polygon class="cls-54" points="27.395 24.326 24.804 24.319 24.753 24.102 27.344 24.108 27.395 24.326"/>
                  <polygon class="cls-54" points="26.806 24.913 24.943 24.909 24.892 24.691 26.755 24.696 26.806 24.913"/>
                  <polygon class="cls-54" points="28.946 24.919 27.083 24.914 27.032 24.697 28.895 24.701 28.946 24.919"/>
                  <polygon class="cls-54" points="30.495 24.923 29.34 24.92 29.289 24.702 30.444 24.705 30.495 24.923"/>
                  <polygon class="cls-54" points="29.474 24.331 27.876 24.327 27.825 24.109 29.423 24.113 29.474 24.331"/>
                  <polygon class="cls-54" points="31.658 24.336 30.06 24.332 30.008 24.115 31.607 24.119 31.658 24.336"/>
                </g>
              </g>
              <g>
                <g>
                  <polygon class="cls-46" points="27.5 26.477 25.311 26.471 25.26 26.254 27.448 26.259 27.5 26.477"/>
                  <polygon class="cls-46" points="29.119 26.481 27.897 26.478 27.846 26.26 29.068 26.263 29.119 26.481"/>
                  <polygon class="cls-46" points="31.548 26.487 29.674 26.482 29.623 26.265 31.497 26.269 31.548 26.487"/>
                </g>
                <g>
                  <polygon class="cls-46" points="28.037 27.05 25.446 27.044 25.394 26.826 27.985 26.832 28.037 27.05"/>
                  <polygon class="cls-46" points="27.447 27.638 25.585 27.633 25.533 27.416 27.396 27.42 27.447 27.638"/>
                  <polygon class="cls-46" points="29.588 27.643 27.725 27.638 27.673 27.421 29.536 27.425 29.588 27.643"/>
                  <polygon class="cls-46" points="31.136 27.647 29.981 27.644 29.93 27.426 31.085 27.429 31.136 27.647"/>
                  <polygon class="cls-46" points="30.116 27.055 28.517 27.051 28.466 26.833 30.065 26.837 30.116 27.055"/>
                  <polygon class="cls-46" points="32.299 27.06 30.701 27.056 30.65 26.839 32.248 26.843 32.299 27.06"/>
                </g>
              </g>
              <g>
                <g>
                  <polygon class="cls-54" points="28.113 29.083 25.925 29.078 25.873 28.86 28.062 28.866 28.113 29.083"/>
                  <polygon class="cls-54" points="29.733 29.087 28.511 29.084 28.459 28.867 29.682 28.87 29.733 29.087"/>
                  <polygon class="cls-54" points="32.162 29.093 30.288 29.088 30.236 28.871 32.111 28.875 32.162 29.093"/>
                </g>
                <g>
                  <polygon class="cls-54" points="28.65 29.656 26.059 29.65 26.008 29.432 28.599 29.438 28.65 29.656"/>
                  <polygon class="cls-54" points="28.061 30.244 26.198 30.239 26.147 30.022 28.01 30.026 28.061 30.244"/>
                  <polygon class="cls-54" points="30.201 30.249 28.338 30.245 28.287 30.027 30.15 30.032 30.201 30.249"/>
                  <polygon class="cls-54" points="31.749 30.253 30.595 30.25 30.544 30.033 31.698 30.036 31.749 30.253"/>
                  <polygon class="cls-54" points="30.729 29.661 29.131 29.657 29.08 29.44 30.678 29.444 30.729 29.661"/>
                  <polygon class="cls-54" points="32.913 29.667 31.314 29.663 31.263 29.445 32.861 29.449 32.913 29.667"/>
                </g>
              </g>
              <g>
                <g>
                  <polygon class="cls-46" points="28.743 31.76 26.555 31.754 26.503 31.537 28.692 31.542 28.743 31.76"/>
                  <polygon class="cls-46" points="30.363 31.764 29.141 31.761 29.089 31.543 30.312 31.546 30.363 31.764"/>
                  <polygon class="cls-46" points="32.792 31.77 30.918 31.765 30.866 31.547 32.741 31.552 32.792 31.77"/>
                </g>
                <g>
                  <polygon class="cls-46" points="29.28 32.333 26.689 32.326 26.638 32.109 29.229 32.115 29.28 32.333"/>
                  <polygon class="cls-46" points="28.691 32.921 26.828 32.916 26.777 32.698 28.64 32.703 28.691 32.921"/>
                  <polygon class="cls-46" points="30.831 32.926 28.968 32.921 28.917 32.704 30.78 32.708 30.831 32.926"/>
                  <polygon class="cls-46" points="32.379 32.93 31.225 32.927 31.174 32.709 32.328 32.712 32.379 32.93"/>
                  <polygon class="cls-46" points="31.359 32.338 29.761 32.334 29.71 32.116 31.308 32.12 31.359 32.338"/>
                  <polygon class="cls-46" points="33.543 32.343 31.944 32.339 31.893 32.122 33.492 32.125 33.543 32.343"/>
                </g>
              </g>
              <g>
                <polygon class="cls-51" points="38.176 22.019 35.585 22.012 35.533 21.795 38.124 21.801 38.176 22.019"/>
                <polygon class="cls-51" points="37.586 22.607 35.723 22.602 35.672 22.385 37.535 22.389 37.586 22.607"/>
                <polygon class="cls-51" points="39.726 22.612 37.864 22.607 37.812 22.39 39.675 22.394 39.726 22.612"/>
                <polygon class="cls-51" points="41.275 22.616 40.12 22.613 40.069 22.395 41.224 22.398 41.275 22.616"/>
                <polygon class="cls-51" points="40.255 22.024 38.656 22.02 38.605 21.802 40.203 21.806 40.255 22.024"/>
                <polygon class="cls-51" points="42.438 22.029 40.84 22.025 40.788 21.808 42.387 21.812 42.438 22.029"/>
              </g>
              <g>
                <g>
                  <polygon class="cls-51" points="38.224 23.934 36.036 23.929 35.984 23.712 38.173 23.717 38.224 23.934"/>
                  <polygon class="cls-51" points="39.844 23.938 38.622 23.935 38.57 23.718 39.793 23.721 39.844 23.938"/>
                  <polygon class="cls-51" points="42.273 23.944 40.399 23.94 40.347 23.722 42.222 23.727 42.273 23.944"/>
                </g>
                <g>
                  <polygon class="cls-51" points="38.761 24.507 36.17 24.501 36.119 24.283 38.71 24.29 38.761 24.507"/>
                  <polygon class="cls-51" points="38.172 25.095 36.309 25.091 36.258 24.873 38.121 24.878 38.172 25.095"/>
                  <polygon class="cls-51" points="40.312 25.101 38.449 25.096 38.398 24.878 40.261 24.883 40.312 25.101"/>
                  <polygon class="cls-51" points="41.861 25.104 40.706 25.102 40.655 24.884 41.809 24.887 41.861 25.104"/>
                  <polygon class="cls-51" points="40.84 24.512 39.242 24.509 39.191 24.291 40.789 24.295 40.84 24.512"/>
                  <polygon class="cls-51" points="43.024 24.518 41.425 24.514 41.374 24.296 42.973 24.3 43.024 24.518"/>
                </g>
              </g>
              <g>
                <g>
                  <polygon class="cls-54" points="38.865 26.659 36.677 26.653 36.626 26.436 38.814 26.441 38.865 26.659"/>
                  <polygon class="cls-54" points="40.485 26.663 39.263 26.66 39.212 26.442 40.434 26.445 40.485 26.663"/>
                  <polygon class="cls-54" points="42.914 26.669 41.04 26.664 40.989 26.446 42.863 26.451 42.914 26.669"/>
                </g>
                <g>
                  <polygon class="cls-54" points="39.403 27.232 36.812 27.225 36.76 27.008 39.351 27.014 39.403 27.232"/>
                  <polygon class="cls-54" points="38.813 27.82 36.95 27.815 36.899 27.597 38.762 27.602 38.813 27.82"/>
                  <polygon class="cls-54" points="40.953 27.825 39.091 27.82 39.039 27.603 40.902 27.607 40.953 27.825"/>
                  <polygon class="cls-54" points="42.502 27.829 41.347 27.826 41.296 27.608 42.451 27.611 42.502 27.829"/>
                  <polygon class="cls-54" points="41.482 27.237 39.883 27.233 39.832 27.015 41.43 27.019 41.482 27.237"/>
                  <polygon class="cls-54" points="43.665 27.242 42.067 27.238 42.015 27.021 43.614 27.025 43.665 27.242"/>
                </g>
              </g>
              <g>
                <g>
                  <polygon class="cls-54" points="39.479 29.265 37.29 29.26 37.239 29.042 39.428 29.047 39.479 29.265"/>
                  <polygon class="cls-54" points="41.099 29.269 39.876 29.266 39.825 29.048 41.048 29.051 41.099 29.269"/>
                  <polygon class="cls-54" points="43.528 29.275 41.653 29.27 41.602 29.053 43.476 29.057 43.528 29.275"/>
                </g>
                <g>
                  <polygon class="cls-54" points="40.016 29.838 37.425 29.831 37.374 29.614 39.965 29.62 40.016 29.838"/>
                  <polygon class="cls-54" points="39.427 30.426 37.564 30.421 37.513 30.204 39.375 30.208 39.427 30.426"/>
                  <polygon class="cls-54" points="41.567 30.431 39.704 30.426 39.653 30.209 41.516 30.214 41.567 30.431"/>
                  <polygon class="cls-54" points="43.115 30.435 41.961 30.432 41.909 30.214 43.064 30.217 43.115 30.435"/>
                  <polygon class="cls-54" points="42.095 29.843 40.497 29.839 40.445 29.621 42.044 29.625 42.095 29.843"/>
                  <polygon class="cls-54" points="44.279 29.848 42.68 29.844 42.629 29.627 44.227 29.631 44.279 29.848"/>
                </g>
              </g>
              <g>
                <g>
                  <polygon class="cls-54" points="40.109 31.941 37.92 31.936 37.869 31.718 40.058 31.724 40.109 31.941"/>
                  <polygon class="cls-54" points="41.729 31.945 40.506 31.942 40.455 31.725 41.678 31.728 41.729 31.945"/>
                  <polygon class="cls-54" points="44.158 31.951 42.283 31.947 42.232 31.729 44.106 31.734 44.158 31.951"/>
                </g>
                <g>
                  <polygon class="cls-54" points="40.646 32.514 38.055 32.508 38.004 32.291 40.595 32.297 40.646 32.514"/>
                  <polygon class="cls-54" points="40.057 33.102 38.194 33.098 38.143 32.88 40.005 32.885 40.057 33.102"/>
                  <polygon class="cls-54" points="42.197 33.108 40.334 33.103 40.283 32.885 42.146 32.89 42.197 33.108"/>
                  <polygon class="cls-54" points="43.745 33.111 42.591 33.109 42.539 32.891 43.694 32.894 43.745 33.111"/>
                  <polygon class="cls-54" points="42.725 32.519 41.127 32.516 41.075 32.298 42.674 32.302 42.725 32.519"/>
                  <polygon class="cls-54" points="44.909 32.525 43.31 32.521 43.259 32.303 44.857 32.307 44.909 32.525"/>
                </g>
              </g>
            </g>
          </g>
          <g>
            <path class="cls-55" d="M52.075,77.50506s-.2369,3.69139-.95124,3.7428c-.095.0068-3.62269-.00092-3.62269-.00092l-4.5032-.03585a1.4612,1.4612,0,0,1,1.34867-1.31154c1.31684-.22653,3.522-1.14682,4.32324-2.8849C49.51262,75.1863,52.075,77.50506,52.075,77.50506Z"/>
            <path class="cls-46" d="M64.96523,47.14189c.17211.14478,4.7585,5.11442,4.38389,8.93124A2.20167,2.20167,0,0,1,67.147,58.03705H61.56013s-5.70056,1.01874-5.83654,2.25062-1.30244,7.87251-3.61416,17.30926a4.918,4.918,0,0,1-2.7367.16774C48.00636,77.21074,47.808,76.623,47.808,76.623S49.18586,55.492,50.2737,54.005s12.29455-5.90812,15.9233-6.34838S64.96523,47.14189,64.96523,47.14189Z"/>
            <path class="cls-56" d="M32.56494,41.87113s-3.24146-.75381-4.07073,0a4.08615,4.08615,0,0,0-1.093,1.84692h5.16377Z"/>
            <path class="cls-46" d="M44.18245,77.50506s-.2369,3.69139-.9513,3.7428c-.095.0068-3.62263-.00092-3.62263-.00092l-4.5032-.03585A1.46112,1.46112,0,0,1,36.454,79.89955c1.31679-.22653,3.522-1.14682,4.32318-2.8849C41.62005,75.1863,44.18245,77.50506,44.18245,77.50506Z"/>
            <path class="cls-16" d="M69.20231,47.14189a30.70435,30.70435,0,0,1,1.78587,5.81405,4.18548,4.18548,0,0,1-4.08727,5.08111H53.90441s-5.70058,1.01874-5.8366,2.25062-1.30244,7.87251-3.6141,17.30926a5.44137,5.44137,0,0,1-3.0441-.12174,3.77107,3.77107,0,0,1-1.26976-1.031S41.53008,55.492,42.61792,54.005s12.29461-5.90812,15.9233-6.34838S69.20231,47.14189,69.20231,47.14189Z"/>
            <path class="cls-56" d="M61.99843,28.25074l-2.0098,1.92933-3.42459.001c-.00392-.2754.00761-1.42371.01955-2.46434.00114-.06122.00224-.12232.00264-.18249.00266-.231.00582-.454.00825-.65711.0068-.57341.01262-.98887.01262-.98887l.88034-.602,1.95591-1.3391,1.0577-.723c.00063.01775.08761.96375.10075,1.10127A8.0208,8.0208,0,0,0,61.99843,28.25074Z"/>
            <path class="cls-46" d="M57.01946,27.9026c.06537-.02756,3.77071-1.68967,4.204-1.54661s.97343,1.46659.97343,1.46659l-6.52454,1.475A3.24043,3.24043,0,0,1,57.01946,27.9026Z"/>
            <path class="cls-14" d="M73.046,39.00653A16.69991,16.69991,0,0,0,68.084,30.174c-.85641-1.28838-5.887-2.35139-5.887-2.35139s-4.16751.9422-6.52454,1.475a8.31449,8.31449,0,0,0-5.75117,3.829c-1.2825,2.12116-4.95568,6.973-7.36793,7.12376s-9.98836,1.62072-9.98836,1.62072v1.86352l11.55013.31679a1.9618,1.9618,0,0,0,.42042-.0332,34.23154,34.23154,0,0,0,7.37283-2.13684c.33835,5.456.73808,13.78721,2.64355,15.11028,2.01552,1.39939,16.18909,1.5865,17.69-.54643.76811-1.09147-.17367-7.55456-1.35045-13.78663A3.26059,3.26059,0,0,0,73.046,39.00653Z"/>
            <path class="cls-57" d="M59.95318,25.08768l-.17454.10847a14.02026,14.02026,0,0,1-3.18416,1.681c.0068-.57341.01262-.98887.01262-.98887l.88034-.602Z"/>
            <path class="cls-56" d="M55.407,25.91815s5.26919.62344,5.60691-2.664,1.2452-5.42084-2.10474-5.95781-4.13351.65018-4.51312,1.72S54.04505,25.67134,55.407,25.91815Z"/>
            <path class="cls-46" d="M54.53551,18.67957s.99463,3.56632,1.715,3.2689,1.37858-.541,1.47294.57236-.70979,2.56961,1.6371,2.33133,4.55577-6.8177,3.7103-7.82755C60.63131,14.11112,51.14661,15.20248,54.53551,18.67957Z"/>
            <path class="cls-58" d="M32.56494,41.87113S62.80507,40.685,67.2897,29.518"/>
            <path class="cls-58" d="M72.24191,56.44525S50.47,33.99833,52.16951,30.722"/>
            <path class="cls-58" d="M54.55187,56.99168s17.92736-18.98033,4.3828-28.43158"/>
            <path class="cls-58" d="M50.71305,42.20409a44.78407,44.78407,0,0,1-.96924-8.7926"/>
            <path class="cls-58" d="M65.61637,58.0465C58.00089,51.8131,52.81974,46.83043,52.1403,45.63671"/>
            <path class="cls-58" d="M44.39647,44.04453s18.08645-10.9378,28.39268-6.23674"/>
          </g>
          <g>
            <path class="cls-59" d="M52.59615,55.78608H78.66021a0,0,0,0,1,0,0V58.744a0,0,0,0,1,0,0H50.80377a0,0,0,0,1,0,0V57.57846A1.79238,1.79238,0,0,1,52.59615,55.78608Z" transform="translate(129.46398 114.53003) rotate(180)"/>
            <rect class="cls-60" x="46.35508" y="55.78608" width="22.36916" height="2.95788" rx="1.32533" transform="translate(115.07933 114.53003) rotate(180)"/>
            <g>
              <polygon class="cls-16" points="64.096 80.137 65.778 80.137 66.249 58.744 63.681 58.744 64.096 80.137"/>
              <polygon class="cls-16" points="56.79 80.137 73.141 80.137 73.141 78.661 64.807 77.909 56.79 78.661 56.79 80.137"/>
              <circle class="cls-16" cx="73.384" cy="79.90566" r="1.34498"/>
              <path class="cls-16" d="M58.37833,79.90565a1.345,1.345,0,1,0-1.34492,1.345A1.345,1.345,0,0,0,58.37833,79.90565Z"/>
              <path class="cls-16" d="M57.376,60.14749H72.55455A1.40355,1.40355,0,0,0,73.95809,58.744H55.97242A1.40355,1.40355,0,0,0,57.376,60.14749Z"/>
            </g>
            <path class="cls-60" d="M76.08531,58.744a1.27975,1.27975,0,0,0,1.27979-1.27984V37.76439c0-3.69152-2.41352-6.68409-5.3907-6.68409H59.784c-2.97717,0-5.39069,2.99257-5.39069,6.68409V58.744Z"/>
            <path class="cls-61" d="M76.32618,58.744a2.334,2.334,0,0,0,2.334-2.33409V37.76439c0-3.69152-2.41351-6.68409-5.39069-6.68409H61.07912c-2.97723,0-5.39069,2.99257-5.39069,6.68409V58.744Z"/>
          </g>
        </g>
      </g>
    </g>
  </g>
</svg>
