<svg xmlns="http://www.w3.org/2000/svg" xmlns:xlink="http://www.w3.org/1999/xlink" width="67.66981mm" height="40.40003mm" viewBox="0 0 191.81995 114.51978">
  <defs>
    <style>
      .cls-1 {
        fill: none;
      }

      .cls-2 {
        clip-path: url(#clip-path);
      }

      .cls-3 {
        fill: #bbffe5;
      }

      .cls-10, .cls-4, .cls-8 {
        fill: #263238;
      }

      .cls-5 {
        fill: #0a750e;
      }

      .cls-6 {
        fill: #f5d098;
      }

      .cls-11, .cls-7, .cls-8 {
        opacity: 0.2;
      }

      .cls-10, .cls-11, .cls-7, .cls-8, .cls-9 {
        isolation: isolate;
      }

      .cls-11, .cls-13, .cls-9 {
        fill: #fff;
      }

      .cls-9 {
        opacity: 0.5;
      }

      .cls-10 {
        opacity: 0.4;
      }

      .cls-12 {
        fill: #3db342;
      }
    </style>
    <clipPath id="clip-path">
      <path class="cls-1" d="M169.02,4.68c.02,6.09-5.67,12.52991-17.06006,25.39C143.61,39.51,139.28,44.32007,131.87988,48.64,124.03,53.22,117.21,54.74,110.28,56.22c-17.59009,3.76-22.43.36011-40.93,2.65015C52.15991,61,53.8999,64.24,39.04,65.69006c-11.15015,1.1-25.43,2.49-39.04-4.56994v-51.26A9.85426,9.85426,0,0,1,9.86,0H168.24A15.01036,15.01036,0,0,1,169.02,4.68Z"/>
    </clipPath>
  </defs>
  <title>cards</title>
  <g id="Layer_1" data-name="Layer 1">
    <g class="cls-2">
      <ellipse class="cls-3" cx="88.04732" cy="31.58952" rx="115.95789" ry="51.28421"/>
      <g>
        <path class="cls-4" d="M60.895,72.38787l-2.25427-.01858a.19575.19575,0,0,0-.11643.03857.19232.19232,0,0,0-.06979.10135l-.545,1.82783a.28325.28325,0,0,0-.01192.13256.27775.27775,0,0,0,.0505.1231.28037.28037,0,0,0,.23181.11468c.815,0,1.993-.04419,3.02721-.03507,1.19448.01157,1.44137.08382,2.8431.09784.84518,0,1.14573-.84763.79643-.93145a8.13625,8.13625,0,0,1-3.45331-1.28986.90292.90292,0,0,0-.49834-.161Z"/>
        <path class="cls-5" d="M61.7472,72.7582a3.36029,3.36029,0,0,1-.659-.07925.04869.04869,0,0,1-.02664-.01438.051.051,0,0,1-.013-.02736.04937.04937,0,0,1,.00631-.0291.05.05,0,0,1,.02175-.02c.09784-.04875.96406-.46572,1.20148-.31668a.15133.15133,0,0,1,.05225.05611.14814.14814,0,0,1,.01754.07435.29532.29532,0,0,1-.10942.23286.81393.81393,0,0,1-.49133.12344Zm-.48887-.13747a1.36871,1.36871,0,0,0,.93145-.04875.194.194,0,0,0,.05682-.07118.19159.19159,0,0,0,.01753-.08943.04668.04668,0,0,0-.00491-.02666.05006.05006,0,0,0-.01824-.02C62.099,72.27635,61.60973,72.451,61.25833,72.62073Z"/>
        <path class="cls-5" d="M61.09736,72.6814a.05035.05035,0,0,1-.03016-.01157.05466.05466,0,0,1-.01542-.021.05269.05269,0,0,1-.00316-.0256c0-.03718.16307-.93145.6544-.87078.13045.01613.16517.08136.17464.13256.03262.23287-.49588.68-.76136.79187Zm.56358-.8336c-.29564,0-.44469.48186-.49589.69858.27249-.1536.63581-.50289.61477-.64282,0,0,0-.03963-.08838-.04875Z"/>
        <path class="cls-6" d="M70.58967,19.60559c.03016,1.25514.07435,2.56149.135,3.83312.02805.63791.06277,1.27618.10731,1.90954.04419.63336.09539,1.26426.16518,1.886q.04417.46555.11187.93145l.03016.23287v.08171a1.10093,1.10093,0,0,0,.33772.36542,4.38679,4.38679,0,0,0,.64247.403,18.7844,18.7844,0,0,0,3.42315,1.22253L75.417,32.0476a12.82851,12.82851,0,0,1-2.09576-.04664c-.35175-.03261-.69859-.08382-1.05735-.15115a8.64845,8.64845,0,0,1-1.078-.27249,5.91874,5.91874,0,0,1-1.11557-.46573,4.05321,4.05321,0,0,1-1.14572-.91286,2.92681,2.92681,0,0,1-.46573-.78486c-.03261-.07435-.05821-.15606-.08381-.23286l-.03261-.121-.02771-.10486-.05366-.256c-.07926-.34018-.14659-.68-.20726-1.01772-.24443-1.353-.39348-2.68949-.5029-4.02845-.04664-.66843-.09539-1.33686-.11433-2.00493-.01858-.66843-.04419-1.32984-.03226-2.02142Z"/>
        <path class="cls-5" d="M66.65661,19.76411C66.36307,22.1043,68.24,29.26623,68.24,29.26623s.13361-.54148,1.40279-.87674,1.40278,0,1.40278,0a40.304,40.304,0,0,0,.33106-8.39007c-.50991-2.6432-2.63373-3.64689-4.1028-2.033A3.458,3.458,0,0,0,66.65661,19.76411Z"/>
        <path class="cls-7" d="M66.89894,20.89335a12.104,12.104,0,0,0-.31668,1.20394,33.04991,33.04991,0,0,0,.32123,3.46032c.89779.11749.96968,4.38617,1.86256,4.23466.03717-.44713.89918-5.21731.89673-5.69917C69.65822,21.85285,68.34731,20.52091,66.89894,20.89335Z"/>
        <path class="cls-6" d="M74.82328,30.34988l1.61355-.1045-.07926,2.04455a2.58908,2.58908,0,0,1-2.00248-.6288Z"/>
        <path class="cls-6" d="M78.0809,31.19085l-.30055.84273a.52843.52843,0,0,1-.56111.35174l-.86167-.09784.07926-2.04456,1.24568.24443a.53612.53612,0,0,1,.39839.7035Z"/>
        <path class="cls-4" d="M77.40545,29.90941l-.52464-.29249a.27469.27469,0,0,0-.37384.10626L75.3381,31.82035a.27458.27458,0,0,0,.10626.3735l.525.29248a.27478.27478,0,0,0,.37385-.10627l1.16852-2.09716A.27427.27427,0,0,0,77.40545,29.90941Z"/>
        <path class="cls-4" d="M76.41158,32.19735l-.956-.53306a.14922.14922,0,0,0-.2027.05787L74.7861,32.56a.1492.1492,0,0,0,.05752.203l.956.53271a.14914.14914,0,0,0,.20271-.05787l.46713-.83781A.14914.14914,0,0,0,76.41158,32.19735Z"/>
        <path class="cls-4" d="M78.6841,30.40354a3.39077,3.39077,0,0,1-1.65565-.43066,3.61649,3.61649,0,1,1,4.81542-1.45328h0a3.63954,3.63954,0,0,1-3.15977,1.88394Zm.2048-6.67832a3.14412,3.14412,0,0,0-2.72667,1.63,3.00613,3.00613,0,1,0,5.24853,2.92446h0a3.06915,3.06915,0,0,0-1.1061-4.19153,2.89479,2.89479,0,0,0-1.41576-.35841Z"/>
        <path class="cls-4" d="M66.26523,34.89561s1.05735,11.64312.75014,18.01177c-.31913,6.604-5.00444,19.64427-5.00444,19.64427l-3.7258-.07926s2.56149-14.3512,2.4917-20.92255c-.06979-7.16754-.72875-17.90026-.72875-17.90026Z"/>
        <path class="cls-7" d="M61.39616,36.67469c-.4261-.50325-.808-.0235-1.12924.91041.13256,2.51028.29353,5.90082.398,9.1865C62.48367,44.005,62.76773,38.30228,61.39616,36.67469Z"/>
        <path class="cls-4" d="M51.8772,73.751l-1.17834-1.90918a.19757.19757,0,0,0-.21673-.08627l-1.8394.50746a.28241.28241,0,0,0-.11889.05961.27935.27935,0,0,0-.05365.36437c.438.687,1.09452,1.66721,1.63,2.54045.62424,1.01773.61933,1.00124,1.353,2.19606.44258.72419,1.32493.52394,1.2085.18623a7.00617,7.00617,0,0,1-.666-3.34635A.89661.89661,0,0,0,51.8772,73.751Z"/>
        <path class="cls-7" d="M47.74354,65.99888l-1.81415,1.68826L44.367,66.3366l1.81625-1.68825Z"/>
        <path class="cls-5" d="M44.50907,70.25564a3.41965,3.41965,0,0,1-.28406-.60074.05318.05318,0,0,1-.00071-.03052.05208.05208,0,0,1,.01684-.02525.04826.04826,0,0,1,.02805-.00876.04754.04754,0,0,1,.02806.00876c.09293.05822.90585.57514.90585.85465a.14706.14706,0,0,1-.0747.128.29549.29549,0,0,1-.25846.03262.79431.79431,0,0,1-.36087-.35876Zm-.13747-.49589c.17008.41908.36332.69859.52885.7568a.18935.18935,0,0,0,.17464-.02349.052.052,0,0,0,.03016-.04419c-.00947-.15115-.41908-.47274-.74277-.69157Z"/>
        <path class="cls-5" d="M51.45461,74.28374a.06428.06428,0,0,1,0-.03052.051.051,0,0,1,.00982-.02384.04644.04644,0,0,1,.02035-.01543c.03506-.014.87112-.35175,1.0854.09294.05576.11888.01859.18411-.021.21883-.17921.1515-.83817-.06277-1.07348-.23287Zm1.00369.03963c-.15605-.25181-.64282-.12135-.85008-.05366.27494.14905.76382.27.87113.18166,0,0,.03016-.028,0-.1024A.09316.09316,0,0,0,52.4583,74.32337Z"/>
        <path class="cls-4" d="M62.43948,34.4362s-1.38911,13.08518-2.38439,20.53538c-1.03315,7.74934-8.213,19.443-8.213,19.443L49.86491,71.4452S55.10817,59.835,55.86953,52.058c.82414-8.48125,1.58024-19.32584,1.58024-19.32584Z"/>
        <path class="cls-5" d="M69.67224,17.37972s1.16432,6.592-3.40666,17.51589l-10.812-2.182c.26092-1.67669,2.93884-9.57051,2.91534-17.72316a28.9455,28.9455,0,0,1,3.72581.27243,40.45062,40.45062,0,0,1,4.60149.93145A20.55562,20.55562,0,0,1,69.67224,17.37972Z"/>
        <path class="cls-8" d="M67.69046,23.97667c-.14659,2.13294-1.57392,3.79559-3.16469,3.68863a2.384,2.384,0,0,1-1.4133-.61723l.4517-.88025a1.72947,1.72947,0,0,0,1.03385.4517c1.16431.07926,2.20763-1.13626,2.31249-2.6965Z"/>
        <path class="cls-9" d="M67.69046,23.97667l-.77995-.05365A3.62832,3.62832,0,0,0,66.79162,22.71a2.84963,2.84963,0,0,0-.49132-1.01317l.55655-.76837a3.97567,3.97567,0,0,1,.673,1.39717,5.12824,5.12824,0,0,1,.16062,1.65108Z"/>
        <path class="cls-10" d="M66.86387,20.92842l-.55656.76837a2.04764,2.04764,0,0,0-.60776-.538,1.7124,1.7124,0,0,0-.71471-.23287l.07189-1.04542a2.26585,2.26585,0,0,1,.976.3051,2.85357,2.85357,0,0,1,.83116.74278Z"/>
        <path class="cls-11" d="M65.05463,19.89l-.07225,1.04542c-1.16431-.07926-2.20518,1.13871-2.31,2.699a3.12788,3.12788,0,0,0,.89183,2.53343l-.4517.88025a4.28261,4.28261,0,0,1-1.22008-3.46733C62.03653,21.4478,63.46422,19.78269,65.05463,19.89Z"/>
        <path class="cls-7" d="M58.02912,20.33679c-.1003.81993-.21673,1.63-.34228,2.40087a5.12613,5.12613,0,0,0,2.00493-3.86082Z"/>
        <path class="cls-6" d="M63.57118,10.17484c0,1.53924-.26548,4.3103-1.49958,5.088,0,0-.1736,1.0907,3.01213,2.255,1.56236-.69858,1.58936-1.32587,1.58936-1.32587-1.57182-.72886-1.2832-1.94441-.76171-3.02721Z"/>
        <path class="cls-7" d="M64.53524,11.39039l1.38315,1.76277a4.97412,4.97412,0,0,0-.30721.78938,2.07826,2.07826,0,0,1-1.27162-1.76042A2.21839,2.21839,0,0,1,64.53524,11.39039Z"/>
        <path class="cls-4" d="M68.12848,9.72773a1.77462,1.77462,0,0,0-.23286-2.03288,2.31064,2.31064,0,0,1,.85675-1.41113C69.43938,5.90412,70.82253,8.54711,68.12848,9.72773Z"/>
        <path class="cls-4" d="M68.93648,7.46662a.23287.23287,0,1,1,0-.46573,1.64378,1.64378,0,0,0,1.45048-1.304.23579.23579,0,0,1,.04069-.08129.23848.23848,0,0,1,.06873-.05951.23337.23337,0,0,1,.25847.01851.2376.2376,0,0,1,.05961.06874.22861.22861,0,0,1,.02841.08627.23273.23273,0,0,1-.00631.09069,2.12805,2.12805,0,0,1-1.88394,1.64635Z"/>
        <path class="cls-6" d="M63.83666,7.9114c-.28161,2.02822-.54955,3.20186.256,4.436,1.211,1.8629,4.42088,2.74062,4.84873-.44069.25952-1.92883,1.02193-4.76845-.77819-5.963A2.79414,2.79414,0,0,0,63.83666,7.9114Z"/>
        <path class="cls-4" d="M63.77844,9.70911a3.85431,3.85431,0,0,1,.69859.08382.379.379,0,0,0,.33386-.08091.38016.38016,0,0,0,.13186-.31727,1.16877,1.16877,0,0,1,.552-1.22022,1.53272,1.53272,0,0,0-.26092-1.05721.23277.23277,0,0,1,.27-.319c1.0107.3912,4.436,1.77438,5.20223,1.3762.99422-.517.23286-3.12968-1.26917-3.25776-.71963-.05821-.63792-.46572-1.18045-.8383S65.951,2.77679,64.94275,3.27513s-2.11891.55185-2.71053,1.28772A1.46519,1.46519,0,0,0,62.067,5.86453s-.86411.11643-1.0107,1.74647c-.10943,1.22021,1.84641,3.53022,2.45662,3.777A4.291,4.291,0,0,0,63.77844,9.70911Z"/>
        <path class="cls-4" d="M66.773,9.085c-.03262.163.0256.312.13291.333.107.021.22094-.09315.25356-.25615s-.02771-.312-.135-.333C66.91753,8.80789,66.80565,8.922,66.773,9.085Z"/>
        <path class="cls-4" d="M68.61735,9.45763c-.03261.163.02806.312.13256.333.10486.021.2213-.09314.25391-.25615s-.02806-.312-.13256-.33533C68.7664,9.17584,68.65,9.29227,68.61735,9.45763Z"/>
        <path class="cls-4" d="M67.42393,12.1528a1.39644,1.39644,0,0,1-1.02228-.77777.05072.05072,0,0,1,0-.03662.04963.04963,0,0,1,.0256-.02627.0513.0513,0,0,1,.06523.028,1.32508,1.32508,0,0,0,.95249.7172.0489.0489,0,0,1-.021.0955Z"/>
        <path class="cls-4" d="M69.65822,8.60066a.09281.09281,0,0,1-.09083-.0559.78556.78556,0,0,0-.54709-.44706.09817.09817,0,0,1-.06453-.03746.09663.09663,0,0,1-.01929-.072.09971.09971,0,0,1,.11153-.08385.97449.97449,0,0,1,.69858.55656.09712.09712,0,0,1,.00947.03706.0991.0991,0,0,1-.00561.03781.09374.09374,0,0,1-.01964.03276.0988.0988,0,0,1-.03051.02276.09007.09007,0,0,1-.04208.00932Z"/>
        <path class="cls-6" d="M59.992,18.58822c-.48431.50535-1.00825,1.04788-1.49958,1.58585-.49132.53762-.99423,1.0826-1.474,1.63a40.77978,40.77978,0,0,0-2.70106,3.38106l-.29354.4261a1.61692,1.61692,0,0,0-.15605.27,2.51242,2.51242,0,0,0-.19569.69858,5.61584,5.61584,0,0,0,.11187,1.81626,17.40158,17.40158,0,0,0,1.42733,3.95866l-1.29687.90375c-.27951-.3237-.51447-.62634-.74979-.955a11.15453,11.15453,0,0,1-.66141-1.0058,12.52931,12.52931,0,0,1-1.06647-2.22622,7.56171,7.56171,0,0,1-.46573-2.65232,5.06463,5.06463,0,0,1,.25145-1.51816,4.53367,4.53367,0,0,1,.33316-.74979l.30967-.53551c.20235-.35175.41908-.68.63336-1.01773s.44468-.65685.67754-.97353c.45416-.64493.93145-1.25725,1.42979-1.8629.49834-.6053,1.00124-1.18991,1.52518-1.7626.52394-.573,1.04578-1.12959,1.63-1.68825Z"/>
        <path class="cls-5" d="M58.35738,14.99042c-1.97232.07221-6.60012,8.48932-6.60012,8.48932a3.627,3.627,0,0,0,2.27953,1.92883s4.72809-3.75351,6.00428-5.96114C61.37757,17.13037,60.46962,14.91359,58.35738,14.99042Z"/>
        <path class="cls-6" d="M54.6968,31.91259l2.17958.4075L55.13692,34.2854s-1.49046-.659-1.49256-1.46451Z"/>
        <path class="cls-6" d="M57.49816,34.38535l-.44468.46572a.86644.86644,0,0,1-1.17623.06067l-.74033-.61687,1.73946-1.96566.69859.94548a.86808.86808,0,0,1-.07681,1.11066Z"/>
        <path class="cls-6" d="M62.67234,9.31787a1.94,1.94,0,0,0,.54709,1.38322c.47765.489,1.05735.142,1.20639-.4867.13748-.56585.05121-1.502-.566-1.75344A.87159.87159,0,0,0,62.67234,9.31787Z"/>
        <path class="cls-12" d="M28.58825,53.83673H25.03012a.99184.99184,0,0,0-.992.99177V65.4774a.99214.99214,0,0,0,.992.99212h3.55813a.99217.99217,0,0,0,.992-.99212V54.8285A.99187.99187,0,0,0,28.58825,53.83673Z"/>
        <path class="cls-12" d="M35.01526,55.74136H31.45713a.99191.99191,0,0,0-.992.99212v8.74637a.99184.99184,0,0,0,.992.99177h3.55813a.99175.99175,0,0,0,.99187-.99177V56.73348A.99182.99182,0,0,0,35.01526,55.74136Z"/>
        <path class="cls-12" d="M41.44223,53.02381H37.88406a.992.992,0,0,0-.99177.99212V65.47985a.99171.99171,0,0,0,.99177.99177h3.55817a.992.992,0,0,0,.99212-.99177V54.01593A.99231.99231,0,0,0,41.44223,53.02381Z"/>
        <path class="cls-12" d="M47.86944,50.15266H44.31127a.99185.99185,0,0,0-.99211.99212V65.47985a.99178.99178,0,0,0,.99211.99177h3.55817a.99171.99171,0,0,0,.99177-.99177V51.14478A.99178.99178,0,0,0,47.86944,50.15266Z"/>
        <path class="cls-12" d="M54.29876,47.12545H50.74059a.99185.99185,0,0,0-.99211.99212V65.47985a.99177.99177,0,0,0,.99211.99177h3.55817a.99171.99171,0,0,0,.99177-.99177V48.11757A.99178.99178,0,0,0,54.29876,47.12545Z"/>
        <path class="cls-12" d="M60.72563,51.70589H57.16746a.99209.99209,0,0,0-.99212.99213V65.47985a.992.992,0,0,0,.99212.99177h3.55817a.992.992,0,0,0,.99211-.99177V52.698A.99209.99209,0,0,0,60.72563,51.70589Z"/>
        <path class="cls-12" d="M67.15249,45.80508H63.59433a.992.992,0,0,0-.99177.99212V65.47985a.9917.9917,0,0,0,.99177.99177h3.55816a.99178.99178,0,0,0,.99212-.99177V46.7972A.99208.99208,0,0,0,67.15249,45.80508Z"/>
        <path class="cls-12" d="M73.5797,44.02144H70.02154a.99207.99207,0,0,0-.99212.99211v20.4663a.992.992,0,0,0,.99212.99177H73.5797a.99171.99171,0,0,0,.99178-.99177V45.01355A.99178.99178,0,0,0,73.5797,44.02144Z"/>
        <path class="cls-12" d="M80.009,45.10649H76.45086a.9923.9923,0,0,0-.99212.99212V65.47985a.992.992,0,0,0,.99212.99177H80.009a.9917.9917,0,0,0,.99176-.99177V46.09861A.992.992,0,0,0,80.009,45.10649Z"/>
        <path class="cls-12" d="M86.43589,38.754H82.87772a.992.992,0,0,0-.99177.99212V65.4795a.99179.99179,0,0,0,.99177.99212h3.55817a.99208.99208,0,0,0,.99212-.99212V39.74609A.9923.9923,0,0,0,86.43589,38.754Z"/>
        <path class="cls-12" d="M92.86311,41.39226H89.30494a.99208.99208,0,0,0-.99212.99212V65.47985a.99178.99178,0,0,0,.99212.99177h3.55817a.99171.99171,0,0,0,.99177-.99177V42.38438A.992.992,0,0,0,92.86311,41.39226Z"/>
        <path class="cls-12" d="M99.29,34.96294H95.7318a.99231.99231,0,0,0-.99212.99212V65.47985a.992.992,0,0,0,.99212.99177H99.29a.992.992,0,0,0,.99212-.99177V35.95506A.99231.99231,0,0,0,99.29,34.96294Z"/>
        <path class="cls-4" d="M21.60939,61.00391a.11457.11457,0,0,1-.05386-.01227.11609.11609,0,0,1-.04163-.03647.11886.11886,0,0,1,.02563-.16308L22.1077,60.38a.12015.12015,0,0,1,.04131-.01929.11689.11689,0,0,1,.08823.014.11908.11908,0,0,1,.03346.03086.11707.11707,0,0,1-.0256.16308l-.55656.41207a.114.114,0,0,1-.03724.01963.1058.1058,0,0,1-.04191.00351Zm1.51126-1.10119a.11453.11453,0,0,1-.05253-.01332.11288.11288,0,0,1-.04062-.03577.11631.11631,0,0,1,.02564-.16062l.56816-.41453a.1163.1163,0,0,1,.16069.0256.11458.11458,0,0,1,.022.087.11294.11294,0,0,1-.04766.0761l-.56585.41207a.1096.1096,0,0,1-.06986.02349Zm1.51361-1.10153a.12625.12625,0,0,1-.053-.01263.12343.12343,0,0,1-.04247-.034.1189.1189,0,0,1,.02561-.16308l.56819-.41452a.11733.11733,0,0,1,.163.0256.11671.11671,0,0,1-.02564.16307l-.56816.41453a.12071.12071,0,0,1-.06754.03261Zm1.51129-1.10154a.11605.11605,0,0,1-.0672-.0228A.11755.11755,0,0,1,26.037,57.619a.11639.11639,0,0,1,.041-.12871l.5682-.41242a.1166.1166,0,0,1,.04079-.01858.11369.11369,0,0,1,.04485-.00176.12016.12016,0,0,1,.04209.01543.12148.12148,0,0,1,.03292.03052.11594.11594,0,0,1,.02049.08591.11747.11747,0,0,1-.01558.04209.12209.12209,0,0,1-.03051.033l-.56585.41418a.1212.1212,0,0,1-.06985.021Zm1.5136-1.09909a.12179.12179,0,0,1-.09549-.04874.1174.1174,0,0,1-.01873-.04173.11624.11624,0,0,1,.04668-.12134l.56585-.41207a.11419.11419,0,0,1,.04134-.01929.11682.11682,0,0,1,.08821.014.10948.10948,0,0,1,.03345.03086.11677.11677,0,0,1,.021.08662.11657.11657,0,0,1-.01571.04279.11428.11428,0,0,1-.03086.03331l-.5682.41242a.12579.12579,0,0,1-.06751.02314ZM29.17276,55.499a.11462.11462,0,0,1-.05387-.01228.11616.11616,0,0,1-.04163-.03647.11894.11894,0,0,1,.02564-.16307l.56816-.41207a.11628.11628,0,0,1,.16069.0256.11379.11379,0,0,1,.006.12976.11122.11122,0,0,1-.0316.03332l-.56588.41206a.10506.10506,0,0,1-.06751.02315ZM30.684,54.39784a.11058.11058,0,0,1-.05268-.013.109.109,0,0,1-.04047-.03612.114.114,0,0,1-.006-.12977.12021.12021,0,0,1,.03164-.03331l.56585-.41207a.1167.1167,0,0,1,.1374.18868l-.5682.41207a.10367.10367,0,0,1-.06754.014Zm1.5136-1.10154a.11654.11654,0,0,1-.06986-.20971l.5682-.41453a.11751.11751,0,0,1,.0868-.02068.11487.11487,0,0,1,.0762.04664.1164.1164,0,0,1-.0256.16272l-.56819.41242a.10711.10711,0,0,1-.06755.02314Zm1.51129-1.10153a.11631.11631,0,0,1-.06754-.20937l.56588-.41242a.11541.11541,0,0,1,.087-.02174.111.111,0,0,1,.0429.01578.11827.11827,0,0,1,.03314.03156.1169.1169,0,0,1-.02564.161l-.56816.41452a.11611.11611,0,0,1-.06755.0207Zm1.51361-1.10119a.11655.11655,0,0,1-.06986-.20972l.5682-.41207a.11388.11388,0,0,1,.08708-.02209.11125.11125,0,0,1,.04278.01613.11319.11319,0,0,1,.033.03156.11836.11836,0,0,1-.0256.16308l-.568.41206a.1249.1249,0,0,1-.06754.02105Zm1.51126-1.09944a.1093.1093,0,0,1-.05226-.01332.11411.11411,0,0,1-.041-.03542.11274.11274,0,0,1-.01964-.04138.11336.11336,0,0,1,.04559-.12169l.56568-.41207a.11548.11548,0,0,1,.087-.021.11492.11492,0,0,1,.04243.01578.118.118,0,0,1,.00807.19393l-.566.40505a.12912.12912,0,0,1-.06978.03016Zm1.5136-1.10118a.114.114,0,0,1-.05366-.01263.11025.11025,0,0,1-.04173-.03647.11786.11786,0,0,1,.0256-.16272l.56813-.41242a.11966.11966,0,0,1,.087-.021.115.115,0,0,1,.04243.01578.118.118,0,0,1,.03367.03086.11978.11978,0,0,1,.021.087.11942.11942,0,0,1-.01578.04279.12174.12174,0,0,1-.03086.03332l-.56813.41206a.108.108,0,0,1-.06769.0235Zm1.51115-1.10154a.11308.11308,0,0,1-.05225-.013.11778.11778,0,0,1-.04068-.03578.113.113,0,0,1-.02-.04068.12249.12249,0,0,1-.0021-.04524.11561.11561,0,0,1,.01613-.04243.11171.11171,0,0,1,.03156-.03262l.56567-.41417a.11689.11689,0,0,1,.087-.021.11693.11693,0,0,1,.09714.13327.11764.11764,0,0,1-.04664.0761l-.56568.41241a.11535.11535,0,0,1-.07014.02315Zm1.51361-1.10154a.11585.11585,0,0,1-.053-.01192.1107.1107,0,0,1-.06242-.12134.11792.11792,0,0,1,.04559-.0761l.56813-.41452a.11649.11649,0,0,1,.16307.0256.11565.11565,0,0,1,.021.08662.11753.11753,0,0,1-.04664.07645l-.56813.41452a.12206.12206,0,0,1-.06768.02069Zm1.5115-1.10118a.12041.12041,0,0,1-.0519-.01263.118.118,0,0,1-.04138-.034.12056.12056,0,0,1-.01929-.04138.11736.11736,0,0,1-.00176-.04559.11942.11942,0,0,1,.01578-.04279A.12158.12158,0,0,1,42.716,45.379l.566-.41207a.11506.11506,0,0,1,.04174-.0249.11509.11509,0,0,1,.09433.00912.115.115,0,0,1,.03647.03226.1126.1126,0,0,1,.02.04419.11868.11868,0,0,1,.00035.0484.12126.12126,0,0,1-.01964.04453.11788.11788,0,0,1-.03578.03262l-.566.41452a.12934.12934,0,0,1-.06979.02105Zm1.51361-1.09909a.12514.12514,0,0,1-.05366-.01332.12089.12089,0,0,1-.04173-.03578.11835.11835,0,0,1,.0256-.16307l.56813-.41207a.11777.11777,0,0,1,.04138-.01928.11658.11658,0,0,1,.088.014.123.123,0,0,1,.03367.03086.11924.11924,0,0,1-.0256.16308l-.56848.41206a.123.123,0,0,1-.06733.0235Z"/>
        <path class="cls-4" d="M45.8084,43.38808a.123.123,0,0,1-.05225-.01368.12.12,0,0,1-.04068-.03542.11338.11338,0,0,1-.0193-.041.11786.11786,0,0,1-.00175-.0456.1164.1164,0,0,1,.01543-.04278.11311.11311,0,0,1,.03122-.03331l.2816-.20516a.11561.11561,0,0,1,.09785-.01859l.33772.08627a.12.12,0,0,1-.05822.23287L46.116,43.1994l-.23286.17219A.12427.12427,0,0,1,45.8084,43.38808Z"/>
        <path class="cls-4" d="M71.79116,49.81494h-.01859l-.66142-.16974a.12107.12107,0,0,1-.07364-.05471.1198.1198,0,0,1,.13186-.17815l.64283.16518a.11718.11718,0,0,1,.0561.01543.11507.11507,0,0,1,.04174.04033.10648.10648,0,0,1,.01683.04068.10259.10259,0,0,1-.0007.04384.10724.10724,0,0,1-.0512.06943.19606.19606,0,0,1-.08381.02771Zm-1.78365-.46572h-.03016l-.68-.17465a.11808.11808,0,0,1-.04243-.02.11944.11944,0,0,1-.03157-.03472.12213.12213,0,0,1-.01578-.04384.12474.12474,0,0,1,.00246-.047.11913.11913,0,0,1,.02-.04208.11988.11988,0,0,1,.07855-.04735.118.118,0,0,1,.047.00211l.68.17464a.11716.11716,0,0,1,.05821.20867.11569.11569,0,0,1-.08627.0242Zm2.827-.128a.11375.11375,0,0,1-.1024-.06067.11829.11829,0,0,1,.04419-.15817l.60776-.34929a.12043.12043,0,0,1,.08943-.01087.11832.11832,0,0,1,.07119.05506.11688.11688,0,0,1-.04419.15851l-.60776.3493a.1384.1384,0,0,1-.05822.02069Zm-4.64111-.33982H68.1632l-.68-.17465a.12038.12038,0,0,1-.08733-.14554.11964.11964,0,0,1,.14554-.08732l.68.17464a.11741.11741,0,0,1,.05856.20867A.12.12,0,0,1,68.19336,48.88139Zm-1.8138-.46573h-.03017l-.68-.17465a.1198.1198,0,0,1-.07083-.05435.11785.11785,0,0,1-.013-.08768.10841.10841,0,0,1,.01964-.041.1132.1132,0,0,1,.034-.03051.11575.11575,0,0,1,.04278-.01508.11782.11782,0,0,1,.04559.00281l.68.17464a.1161.1161,0,0,1,.07821.04384.11922.11922,0,0,1,.0242.08627.11816.11816,0,0,1-.13046.10275ZM74.46,48.29222a.1133.1133,0,0,1-.06-.01614.11605.11605,0,0,1-.04279-.04454.11606.11606,0,0,1,.04454-.15816l.60775-.34929a.11517.11517,0,0,1,.08943-.01192.11611.11611,0,0,1,.081.14413.11913.11913,0,0,1-.054.07014l-.6102.34929a.11853.11853,0,0,1-.05577.01859Zm-9.89455-.34474h-.0277l-.68-.17465a.117.117,0,0,1-.041-.01964.11314.11314,0,0,1-.0305-.034.11452.11452,0,0,1-.01228-.08838.11551.11551,0,0,1,.01894-.04173.11346.11346,0,0,1,.034-.03051.11255.11255,0,0,1,.08907-.01158l.68.17465a.1193.1193,0,0,1,.07786.04489.11552.11552,0,0,1,.02034.041.11719.11719,0,0,1,.0028.04559.11181.11181,0,0,1-.01437.04349.11794.11794,0,0,1-.03016.03437.1156.1156,0,0,1-.041.02034.113.113,0,0,1-.04594.00316Zm-1.8138-.46573h-.02805l-.68-.17464a.12.12,0,0,1,.05822-.23286l.68.17464a.11715.11715,0,0,1,.07786.04489.11287.11287,0,0,1,.02034.041.11129.11129,0,0,1,.00315.04558.11715.11715,0,0,1-.04489.07786.11259.11259,0,0,1-.041.02034.11117.11117,0,0,1-.04559.00315ZM76.083,47.36287a.111.111,0,0,1-.05857-.01649.114.114,0,0,1-.04173-.04383.11644.11644,0,0,1,.04208-.15852l.60986-.34929a.1192.1192,0,0,1,.04314-.01473.11093.11093,0,0,1,.04559.00316.11757.11757,0,0,1,.04068.02069.12178.12178,0,0,1,.02911.03507.118.118,0,0,1,.01508.04278.11572.11572,0,0,1-.00246.04524.111.111,0,0,1-.02034.04069.10776.10776,0,0,1-.03437.0298l-.60986.3493a.13053.13053,0,0,1-.05821.01613Zm-15.13607-.34929h-.02805l-.68-.17465a.12.12,0,0,1,.05821-.23286l.68.17464a.11756.11756,0,0,1,.05647.20972A.11623.11623,0,0,1,60.94691,47.01358Zm-1.81169-.46573h-.03051l-.67965-.17465a.12051.12051,0,0,1-.074-.05471.12023.12023,0,0,1,.13221-.17815l.67965.17465a.12167.12167,0,0,1,.04384.01438.11768.11768,0,0,1,.05541.07049.125.125,0,0,1,.00351.04558.11784.11784,0,0,1-.01438.04349.11292.11292,0,0,1-.02981.03472.11776.11776,0,0,1-.04068.0207.11166.11166,0,0,1-.04559.0035Zm18.58235-.114a.11411.11411,0,0,1-.1003-.06068.11358.11358,0,0,1-.01508-.04278.11583.11583,0,0,1,.00281-.04524.113.113,0,0,1,.02-.04068.11545.11545,0,0,1,.03437-.02946l.61021-.3493a.1149.1149,0,0,1,.08838-.01157.11769.11769,0,0,1,.04067.02069.113.113,0,0,1,.02912.03507.11347.11347,0,0,1-.04174.15817l-.61021.34929a.12563.12563,0,0,1-.06768.014Zm-20.40106-.35631h-.03016l-.68-.17465a.11966.11966,0,0,1-.08732-.14554.12036.12036,0,0,1,.14554-.08732l.68.17464a.11717.11717,0,0,1,.05822.20867.11565.11565,0,0,1-.08627.0242Zm-1.81416-.46573h-.03016l-.68-.17465a.11885.11885,0,0,1-.08382-.142.12006.12006,0,0,1,.01964-.041.12309.12309,0,0,1,.034-.03051.11681.11681,0,0,1,.04314-.01473.10962.10962,0,0,1,.04524.00245l.68.17465a.11885.11885,0,0,1,.0782.04384.11728.11728,0,0,1-.10626.189Zm23.83579-.10942a.11409.11409,0,0,1-.09995-.06067.10788.10788,0,0,1-.01508-.04278.10946.10946,0,0,1,.00246-.04524.11913.11913,0,0,1,.02-.04068.11545.11545,0,0,1,.03437-.02946l.61021-.34929a.11255.11255,0,0,1,.04314-.01473.11135.11135,0,0,1,.04559.00315.11587.11587,0,0,1,.04032.0207.10917.10917,0,0,1,.02946.03506.11551.11551,0,0,1,.01508.04279.11552.11552,0,0,1-.02279.08592.1156.1156,0,0,1-.03437.02946l-.61021.34929a.12224.12224,0,0,1-.06278.014ZM53.684,45.14156h-.02805l-.68246-.17465a.11661.11661,0,0,1-.08136-.142.11244.11244,0,0,1,.01893-.041.11386.11386,0,0,1,.03332-.03016.1144.1144,0,0,1,.08733-.01263l.68245.17465a.11994.11994,0,0,1,.04349.01438.12311.12311,0,0,1,.03437.03016.11429.11429,0,0,1,.02034.04138.12459.12459,0,0,1,.00315.04559.12283.12283,0,0,1-.01473.04349.11776.11776,0,0,1-.03016.03436.12153.12153,0,0,1-.041.02035.12543.12543,0,0,1-.04559.00315Zm-1.81415-.46573h-.02806l-.68-.17464a.12037.12037,0,0,1-.08732-.14555.11966.11966,0,0,1,.14554-.08732l.68.17465a.11729.11729,0,0,1,.05646.20937A.118.118,0,0,1,51.86984,44.67583ZM80.95906,44.571a.1141.1141,0,0,1-.1003-.06067.11369.11369,0,0,1-.01508-.04279.10955.10955,0,0,1,.00281-.04524.11288.11288,0,0,1,.02-.04068.11545.11545,0,0,1,.03437-.02946l.61021-.3493a.11525.11525,0,0,1,.04383-.01682.118.118,0,0,1,.047.0021.11629.11629,0,0,1,.08276.14729.11465.11465,0,0,1-.05961.06979l-.60776.34929a.13546.13546,0,0,1-.05822.014Zm-30.90338-.36333H50.028l-.68-.17465a.11964.11964,0,0,1-.08733-.14553.12039.12039,0,0,1,.14555-.08733l.68.17465a.12291.12291,0,0,1,.04348.01473.1178.1178,0,0,1,.03437.03016.1216.1216,0,0,1,.02034.041.12491.12491,0,0,1,.00316.04559.11869.11869,0,0,1-.01473.04349.1136.1136,0,0,1-.03016.03436.11522.11522,0,0,1-.041.02034.11291.11291,0,0,1-.04595.00316Zm-1.81134-.46572h-.03051l-.68-.17465a.12.12,0,0,1,.05821-.23286l.68.17465a.11712.11712,0,0,1,.07821.04418.11708.11708,0,0,1-.10591.18868Zm34.3402-.1a.11335.11335,0,0,1-.06-.01613.11617.11617,0,0,1-.04278-.04454.11935.11935,0,0,1,.04453-.15851l.60987-.3493a.1189.1189,0,0,1,.04313-.01473.12438.12438,0,0,1,.04559.00316.11552.11552,0,0,1,.04068.021.11275.11275,0,0,1,.02911.03507.11511.11511,0,0,1,.01052.088.11685.11685,0,0,1-.05471.07014l-.60775.3493a.13942.13942,0,0,1-.05822.01157Zm1.63-.93145a.11333.11333,0,0,1-.06-.01613.11612.11612,0,0,1-.04279-.04454.11659.11659,0,0,1,.04454-.15852l.60776-.34929a.123.123,0,0,1,.04313-.01438.11181.11181,0,0,1,.0456.00316.11922.11922,0,0,1,.04068.02.11794.11794,0,0,1,.03016.03437.12531.12531,0,0,1,.01437.04313.11076.11076,0,0,1-.00315.04559.11385.11385,0,0,1-.05436.07084l-.61021.3493a.11693.11693,0,0,1-.06067.01157Zm1.63-.93145a.119.119,0,0,1-.11188-.14834.11617.11617,0,0,1,.05366-.07085l.60986-.34929a.119.119,0,0,1,.04314-.01473.12431.12431,0,0,1,.04558.00316.1154.1154,0,0,1,.04069.021.12907.12907,0,0,1,.04418.07785.11553.11553,0,0,1-.00245.04524.11987.11987,0,0,1-.02034.04068.11116.11116,0,0,1-.03437.02946l-.60986.3493a.12692.12692,0,0,1-.07014.01157Zm1.63-.93145a.114.114,0,0,1-.1003-.06067.11615.11615,0,0,1-.01262-.088.111.111,0,0,1,.02034-.04069.11224.11224,0,0,1,.03437-.0298l.60986-.3493a.1189.1189,0,0,1,.04313-.01473.12443.12443,0,0,1,.0456.00316.11569.11569,0,0,1,.04068.021.1292.1292,0,0,1,.04418.07785.11559.11559,0,0,1-.00245.04525.12005.12005,0,0,1-.02034.04068.11138.11138,0,0,1-.03437.02945l-.60986.3493a.12754.12754,0,0,1-.0747.01157Zm1.63-.93145a.114.114,0,0,1-.1003-.06067.11607.11607,0,0,1-.01262-.088.11115.11115,0,0,1,.02034-.04068.1126.1126,0,0,1,.03436-.02981l.60986-.34929a.12559.12559,0,0,1,.04314-.01438.11093.11093,0,0,1,.04559.00316.11388.11388,0,0,1,.07084.05435.11882.11882,0,0,1,.01473.04314.12437.12437,0,0,1-.00315.04559.11568.11568,0,0,1-.02034.041.1173.1173,0,0,1-.03438.0298l-.60986.3493a.12645.12645,0,0,1-.07925.01157Zm1.63-.93145a.11413.11413,0,0,1-.1003-.06067.116.116,0,0,1-.01262-.088.111.111,0,0,1,.02033-.04068.11236.11236,0,0,1,.03437-.0298l.60986-.3493a.11675.11675,0,0,1,.04384-.01648.11144.11144,0,0,1,.047.00175.1163.1163,0,0,1,.07329.05576.12061.12061,0,0,1,.01438.04489.1165.1165,0,0,1-.00456.04664.11169.11169,0,0,1-.0228.04139.1177.1177,0,0,1-.03682.02876l-.60776.34928a.13587.13587,0,0,1-.08381.01158Zm1.63-.93145a.11476.11476,0,0,1-.05961-.01648.116.116,0,0,1-.04314-.04419.11939.11939,0,0,1,.04454-.15852l.60987-.34929a.1189.1189,0,0,1,.04313-.01473.12438.12438,0,0,1,.04559.00316.11569.11569,0,0,1,.04068.021.11288.11288,0,0,1,.02911.03507.11518.11518,0,0,1,.01052.088.117.117,0,0,1-.05471.07013l-.60776.3493a.136.136,0,0,1-.08872.01157Zm1.63-.93145a.11335.11335,0,0,1-.06-.01613.116.116,0,0,1-.04278-.04454.1166.1166,0,0,1,.04454-.15852l.60776-.34929a.11839.11839,0,0,1,.04348-.01473.11262.11262,0,0,1,.04594.00316.12062.12062,0,0,1,.04138.02069.12626.12626,0,0,1,.02981.03542.11829.11829,0,0,1-.04418.15816l-.61022.3493a.11826.11826,0,0,1-.04419.01508.12274.12274,0,0,1-.04664-.00351Zm1.63-.93145a.11408.11408,0,0,1-.1003-.06067.116.116,0,0,1-.01052-.08838.119.119,0,0,1,.05471-.07013l.60776-.3493a.1189.1189,0,0,1,.04313-.01473.12438.12438,0,0,1,.04559.00316.1156.1156,0,0,1,.04068.021.12915.12915,0,0,1,.04419.07785.11579.11579,0,0,1-.00245.04525.12026.12026,0,0,1-.02035.04068.11134.11134,0,0,1-.03436.02945l-.60987.3493A.12894.12894,0,0,1,95.634,36.19a.12633.12633,0,0,1-.0512-.00456Z"/>
        <path class="cls-4" d="M97.20823,35.254a.112.112,0,0,1-.05856-.01648.11407.11407,0,0,1-.04173-.04384.11776.11776,0,0,1-.01508-.04278.11552.11552,0,0,1,.02279-.08592.11678.11678,0,0,1,.03437-.02982l.3051-.17219a.11309.11309,0,0,1,.04244-.01438.12063.12063,0,0,1,.04489.00316.11512.11512,0,0,1,.08382.09679.10777.10777,0,0,1-.00316.04489.11442.11442,0,0,1-.02.04033.11852.11852,0,0,1-.034.02946l-.30266.17465A.13053.13053,0,0,1,97.20823,35.254Z"/>
        <path class="cls-13" d="M46.09246,44.019a.95478.95478,0,1,0-.95459-.9546A.95482.95482,0,0,0,46.09246,44.019Z"/>
        <path class="cls-4" d="M46.09246,44.14243a1.07644,1.07644,0,1,1,.75681-.316A1.072,1.072,0,0,1,46.09246,44.14243Zm0-1.91165a.84014.84014,0,1,0,.83852.83816.84082.84082,0,0,0-.83852-.84307Z"/>
        <path class="cls-13" d="M71.80062,50.65556a.9546.9546,0,1,0-.95495-.9546A.95474.95474,0,0,0,71.80062,50.65556Z"/>
        <path class="cls-4" d="M71.80273,50.772a1.07585,1.07585,0,1,1,.7561-.31492A1.07142,1.07142,0,0,1,71.80273,50.772Zm0-1.91165a.84055.84055,0,1,0,.593.2469.83736.83736,0,0,0-.593-.2469Z"/>
        <path class="cls-13" d="M97.51088,35.91789a.95477.95477,0,1,0-.95459-.95495A.9546.9546,0,0,0,97.51088,35.91789Z"/>
        <path class="cls-4" d="M97.51088,36.03432a1.07341,1.07341,0,1,1,.75822-.31352A1.07365,1.07365,0,0,1,97.51088,36.03432Zm0-1.90954a.34711.34711,0,1,1,0,.00456Z"/>
        <path class="cls-5" d="M54.21214,33.64993c-4.76947-4.06808-3.68231-8.53349-2.45488-10.17019,1.286.17534,3.71739.91181,2.45488,1.75348s.05857,5.02653.87674,7.01393Z"/>
        <path class="cls-5" d="M74.20184,32.0718c-3.36669.56112-5.96184-1.92883-6.31254-3.68231l3.15627-.7014c-.28056,1.12223,2.39631,2.3381,3.85766,2.63023Z"/>
      </g>
    </g>
  </g>
</svg>
