<?xml version="1.0" encoding="UTF-8"?>
<svg width="24px" height="24px" viewBox="0 0 24 24" version="1.1" xmlns="http://www.w3.org/2000/svg" xmlns:xlink="http://www.w3.org/1999/xlink">
    <!-- Generator: Sketch 48.2 (47327) - http://www.bohemiancoding.com/sketch -->
    <title>Artboard 4</title>
    <desc>Created with Sketch.</desc>
    <defs></defs>
    <g id="🖥--06-Matches" stroke="none" stroke-width="1" fill="none" fill-rule="evenodd">
        <g id="Artboard-4" fill="#161514">
            <path d="M12.0013379,0 C5.37405078,0 0,5.3730571 0,12.0013379 C0,17.3038433 3.43874859,21.8024571 8.20724734,23.3893731 C8.807036,23.5004671 9.02723674,23.1290274 9.02723674,22.8120417 C9.02723674,22.5258602 9.01610746,21.5804677 9.0109403,20.5776401 C5.67215648,21.3036269 4.96763335,19.161638 4.96763335,19.161638 C4.42170245,17.7744529 3.63510088,17.4055967 3.63510088,17.4055967 C2.54622013,16.66073 3.71717931,16.6760327 3.71717931,16.6760327 C4.92232128,16.7606948 5.55688894,17.9127739 5.55688894,17.9127739 C6.62728714,19.7475151 8.36444841,19.2170857 9.04929656,18.9104343 C9.15701209,18.1347633 9.4680357,17.6053276 9.81125473,17.305632 C7.14559358,17.0021604 4.34340002,15.9730995 4.34340002,11.374521 C4.34340002,10.0642471 4.81222091,8.99365017 5.57994245,8.15319084 C5.45533427,7.85091166 5.04454462,6.63026819 5.69620367,4.97717273 C5.69620367,4.97717273 6.70399967,4.65462237 8.99742617,6.20735558 C9.95474294,5.94144529 10.981419,5.80809268 12.0013379,5.80352173 C13.0212569,5.80809268 14.0487279,5.94144529 15.0078333,6.20735558 C17.2984774,4.65462237 18.3048823,4.97717273 18.3048823,4.97717273 C18.9581312,6.63026819 18.5471428,7.85091166 18.4225347,8.15319084 C19.1920448,8.99365017 19.6576859,10.0642471 19.6576859,11.374521 C19.6576859,15.98403 16.8501265,16.9989806 14.1777083,17.2960926 C14.6081729,17.668526 14.9917355,18.3988849 14.9917355,19.5185699 C14.9917355,21.124366 14.9778239,22.4167535 14.9778239,22.8120417 C14.9778239,23.1314123 15.1938512,23.5056343 15.8021856,23.3877832 C20.5681007,21.7990785 24.0024771,17.3020547 24.0024771,12.0013379 C24.0024771,5.3730571 18.6292213,0 12.0013379,0" id="Fill-5"></path>
        </g>
    </g>
</svg>