<svg width="258" height="316" viewBox="0 0 258 316" fill="none" xmlns="http://www.w3.org/2000/svg">
<path d="M144.844 190L139 215.891H150.614L144.844 190Z" fill="#1D65E7"/>
<path d="M144.992 199.986H144.622V215.891H144.992V199.986Z" fill="#1A1A1A"/>
<path d="M147.616 209.972L144.715 213.428L144.998 213.666L147.899 210.21L147.616 209.972Z" fill="#1A1A1A"/>
<path d="M142.025 208.544L141.764 208.806L144.641 211.682L144.903 211.421L142.025 208.544Z" fill="#1A1A1A"/>
<path d="M146.167 204.219L144.716 205.592L144.971 205.86L146.422 204.488L146.167 204.219Z" fill="#1A1A1A"/>
<path d="M61.0828 124L48 181.962H74L61.0828 124Z" fill="#FF7E92"/>
<path d="M61.414 146.357H60.5859V181.962H61.414V146.357Z" fill="#1A1A1A"/>
<path d="M67.2874 168.71L60.7929 176.448L61.4272 176.98L67.9217 169.242L67.2874 168.71Z" fill="#1A1A1A"/>
<path d="M54.7728 165.514L54.1873 166.099L60.6287 172.54L61.2142 171.954L54.7728 165.514Z" fill="#1A1A1A"/>
<path d="M64.0453 155.832L60.7974 158.905L61.3665 159.506L64.6144 156.433L64.0453 155.832Z" fill="#1A1A1A"/>
<path d="M194.813 157L191 173.891H198.577L194.813 157Z" fill="#16DD9A"/>
<path d="M194.909 163.515H194.668V173.891H194.909V163.515Z" fill="#1A1A1A"/>
<path d="M196.621 170.029L194.728 172.284L194.913 172.44L196.806 170.185L196.621 170.029Z" fill="#1A1A1A"/>
<path d="M192.974 169.098L192.803 169.269L194.68 171.145L194.851 170.975L192.974 169.098Z" fill="#1A1A1A"/>
<path d="M195.676 166.276L194.729 167.172L194.895 167.347L195.842 166.452L195.676 166.276Z" fill="#1A1A1A"/>
<path d="M208.038 110L202 136.752H214L208.038 110Z" fill="#16DD9A"/>
<path d="M208.191 120.318H207.809V136.752H208.191V120.318Z" fill="#1A1A1A"/>
<path d="M210.902 130.635L207.904 134.207L208.197 134.453L211.195 130.881L210.902 130.635Z" fill="#1A1A1A"/>
<path d="M205.126 129.16L204.856 129.43L207.829 132.403L208.099 132.133L205.126 129.16Z" fill="#1A1A1A"/>
<path d="M209.405 124.692L207.906 126.11L208.169 126.388L209.668 124.969L209.405 124.692Z" fill="#1A1A1A"/>
<path d="M131.41 170.184C131.175 170.184 131.057 170.075 130.939 169.855L124.814 141.527H114.095L107.97 169.855C107.852 170.075 107.617 170.184 107.381 170.184C107.145 170.184 107.028 169.965 107.028 169.745L113.271 141.088C113.271 140.869 113.506 140.759 113.742 140.759H125.167C125.403 140.759 125.521 140.869 125.639 141.088L131.881 169.745C131.881 169.965 131.646 170.184 131.41 170.184Z" fill="#407BFF"/>
<path d="M114.095 170.184C113.86 170.184 113.742 170.075 113.624 169.855L107.499 141.527H96.7799L90.6549 169.855C90.6549 170.075 90.4193 170.184 90.1837 170.184C89.9481 170.184 89.8303 169.965 89.8303 169.745L96.0732 141.088C96.0732 140.869 96.3088 140.759 96.5444 140.759H107.97C108.206 140.759 108.323 140.869 108.441 141.088L114.684 169.745C114.566 169.965 114.448 170.184 114.095 170.184Z" fill="#407BFF"/>
<path d="M116.569 141.198H96.8977C93.1284 141.198 90.0659 138.343 89.9481 134.83L89.2413 106.941C89.2413 104.306 91.3616 102.22 94.1885 102.11H94.3063H106.674C109.266 102.11 111.386 103.867 111.621 106.282L116.569 141.198Z" fill="#808080"/>
<path d="M105.85 137.575H125.167C126.699 137.575 127.877 138.673 127.877 140.1V140.21C127.877 140.759 127.405 141.088 126.934 141.088H105.85V137.575Z" fill="#407BFF"/>
<g opacity="0.3">
<path opacity="0.3" d="M131.41 170.185C131.175 170.185 131.057 170.075 130.939 169.855L124.814 141.527H114.095L107.97 169.855C107.852 170.075 107.617 170.185 107.381 170.185C107.145 170.185 107.028 169.965 107.028 169.745L113.271 141.088C113.271 140.869 113.506 140.759 113.742 140.759H125.167C125.403 140.759 125.521 140.869 125.639 141.088L131.881 169.745C131.881 169.965 131.646 170.185 131.41 170.185Z" fill="black"/>
<path opacity="0.3" d="M114.095 170.185C113.86 170.185 113.742 170.075 113.624 169.855L107.499 141.527H96.7799L90.6549 169.855C90.6549 170.075 90.4193 170.185 90.1837 170.185C89.9481 170.185 89.8303 169.965 89.8303 169.745L96.0732 141.088C96.0732 140.869 96.3088 140.759 96.5444 140.759H107.97C108.206 140.759 108.323 140.869 108.441 141.088L114.684 169.745C114.566 169.965 114.448 170.185 114.095 170.185Z" fill="black"/>
<path opacity="0.3" d="M120.103 142.296H100.432C96.6622 142.296 93.5997 139.441 93.4819 135.928L92.7751 108.039C92.7751 105.404 94.8954 103.318 97.7223 103.208H97.8401H110.208C112.8 103.208 114.92 104.965 115.155 107.38L120.103 142.296Z" fill="black"/>
<path opacity="0.3" d="M105.85 137.574H125.167C126.699 137.574 127.877 138.672 127.877 140.1V140.21C127.877 140.759 127.405 141.088 126.934 141.088H105.85V137.574Z" fill="black"/>
</g>
<path d="M124.225 113.419C124.225 113.529 124.343 113.749 124.343 113.968L124.461 114.517C124.578 114.847 124.696 115.286 124.814 115.615C125.05 116.384 125.285 117.153 125.639 117.921C125.992 118.69 126.228 119.458 126.463 120.227C126.581 120.556 126.816 120.995 126.934 121.325L127.17 121.764C127.17 121.874 127.288 121.874 127.288 121.984C127.759 122.423 128.348 122.752 128.937 122.972C129.643 123.301 130.468 123.521 131.293 123.631C132.117 123.85 132.942 123.96 133.766 124.07C134.591 124.18 135.533 124.289 136.358 124.399V126.046C134.473 126.266 132.588 126.266 130.821 126.046C129.879 125.936 128.937 125.826 127.994 125.497C127.523 125.387 127.052 125.168 126.463 124.948C125.874 124.729 125.403 124.399 124.932 123.96C124.696 123.74 124.461 123.411 124.225 123.191C124.225 123.082 124.107 123.082 124.107 122.972L123.989 122.862L123.872 122.533C123.636 122.203 123.518 121.764 123.283 121.325C122.929 120.556 122.576 119.788 122.223 118.909C121.869 118.141 121.516 117.262 121.28 116.494C121.163 116.055 121.045 115.615 120.927 115.286L120.691 114.627C120.691 114.408 120.574 114.188 120.574 113.968L124.225 113.419Z" fill="#FFB573"/>
<path d="M123.047 110.015C124.461 110.345 125.756 117.591 125.756 117.591L121.516 118.031C121.516 118.031 117.864 112.651 118.924 111.223C120.102 109.796 121.045 109.576 123.047 110.015Z" fill="#C1272D"/>
<path d="M121.869 111.443C121.869 111.443 123.047 109.247 123.047 129.011H106.557C106.792 123.85 108.088 120.995 105.379 110.345C107.263 110.016 107.97 109.357 109.972 109.247C112.093 109.137 114.095 109.137 116.215 109.247C124.225 109.247 121.869 111.443 121.869 111.443Z" fill="#C1272D"/>
<path d="M135.886 124.509L138.242 122.203L138.596 125.387C138.596 125.387 136.829 126.485 135.533 125.936L135.886 124.509Z" fill="#FFB573"/>
<path d="M141.069 121.874L141.187 124.509L138.595 125.387L138.242 122.203L141.069 121.874Z" fill="#FFB573"/>
<path d="M136.946 167.22H140.362L140.951 159.973H137.535L136.946 167.22Z" fill="#FFB573"/>
<path d="M123.989 167.22H127.288L128.348 159.973H125.05L123.989 167.22Z" fill="#FFB573"/>
<path d="M127.523 166.891H123.754C123.636 166.891 123.518 167 123.518 167.11L123.047 169.855C123.047 170.184 123.283 170.404 123.518 170.404C124.814 170.404 125.521 170.294 127.17 170.294C128.23 170.294 130.821 170.404 132.235 170.404C133.648 170.404 133.766 169.086 133.177 168.977C130.586 168.428 128.937 167.769 128.112 167C127.877 167 127.759 166.891 127.523 166.891Z" fill="#263238"/>
<path d="M140.598 166.891H136.829C136.711 166.891 136.593 167 136.593 167.11L136.122 169.855C136.122 170.184 136.357 170.404 136.593 170.404C137.889 170.404 138.596 170.294 140.245 170.294C141.305 170.294 143.425 170.404 144.838 170.404C146.252 170.404 146.37 169.086 145.781 168.977C143.189 168.428 142.129 167.769 141.187 167C141.069 167 140.834 166.891 140.598 166.891Z" fill="#263238"/>
<path d="M140.951 159.973L140.598 163.707H137.3L137.535 159.973H140.951Z" fill="#CF6F64"/>
<path d="M125.05 159.973H128.348L127.877 163.707H124.461L125.05 159.973Z" fill="#CF6F64"/>
<path opacity="0.2" d="M106.674 115.835C107.028 117.372 107.263 118.69 107.381 119.898L108.206 114.078L106.674 115.835Z" fill="#407BFF"/>
<path d="M111.739 102.659C112.093 104.526 112.564 107.929 111.15 109.137C111.15 109.137 111.739 111.004 115.391 111.004C119.513 111.004 117.393 109.137 117.393 109.137C115.155 108.588 115.273 107.051 115.626 105.624L111.739 102.659Z" fill="#FFB573"/>
<path d="M114.684 111.553L115.98 111.114L115.744 110.784L114.684 111.553Z" fill="#263238"/>
<path d="M117.04 111.333L115.98 111.114L116.215 110.784L117.04 111.333Z" fill="#263238"/>
<path d="M111.622 108.369L110.797 109.137C110.797 109.137 110.797 109.247 110.797 109.357L114.331 113.2C114.449 112.321 115.037 111.443 115.744 110.894C112.799 109.906 111.975 108.808 111.739 108.478C111.739 108.369 111.739 108.259 111.622 108.369Z" fill="#C1272D"/>
<path d="M116.687 108.918L117.747 109.137C117.864 109.137 117.864 109.247 117.864 109.247C118.218 110.455 118.1 111.773 117.747 112.98C117.629 112.431 117.04 111.224 116.215 110.675C117.158 110.126 116.804 109.357 116.687 108.918C116.569 109.028 116.569 108.918 116.687 108.918Z" fill="#87272D"/>
<path d="M113.271 103.977L115.509 105.734C115.391 106.063 115.391 106.392 115.273 106.722C114.448 106.612 113.271 105.734 113.153 104.855C113.271 104.636 113.271 104.306 113.271 103.977Z" fill="#CF6F64"/>
<path d="M111.504 97.8282C111.15 100.902 110.915 102.22 112.21 104.087C114.213 106.832 118.453 106.612 119.749 103.757C120.927 101.122 121.398 96.5106 118.453 94.7538C116.333 93.4363 113.506 94.095 112.093 96.0714C111.857 96.5106 111.621 97.1694 111.504 97.8282Z" fill="#FFB573"/>
<path d="M121.516 129.01C121.516 129.01 144.132 130.987 143.896 140.539C143.661 150.531 141.423 162.938 141.423 162.938H136.711C136.711 162.938 136.358 152.397 136.122 142.515C136.004 137.355 114.213 136.367 114.213 136.367L111.386 128.901L121.516 129.01Z" fill="#263238"/>
<path d="M117.864 129.01C117.864 129.01 132.47 133.512 132.824 139.112C133.531 149.433 128.701 163.047 128.701 163.047H124.107C124.107 163.047 124.343 154.044 124.932 144.711C125.639 132.963 103.376 144.602 107.852 129.01H117.864Z" fill="#263238"/>
<path d="M101.845 126.815C100.667 125.717 101.256 125.278 101.256 124.729C101.256 124.399 101.256 124.07 101.256 123.85C101.256 123.85 101.138 122.862 101.256 122.093C101.374 121.105 101.963 119.568 102.198 118.58C102.434 117.592 102.787 117.262 103.141 116.384C103.376 115.396 103.73 114.517 104.083 113.529L107.381 114.627C107.028 115.506 107.145 116.823 106.91 117.811C106.674 118.69 106.203 119.568 105.968 120.446C105.732 121.325 105.261 122.203 105.025 123.082C104.907 123.521 104.79 123.74 104.79 124.18C104.79 124.399 104.79 124.619 104.79 124.729C104.79 124.729 104.79 124.729 104.79 124.619C104.79 124.509 104.672 124.509 104.672 124.399C104.554 124.289 104.436 124.289 104.554 124.289C104.672 124.289 104.79 124.289 105.025 124.289C105.496 124.289 105.85 124.18 106.321 124.18C107.263 123.96 108.206 123.74 109.148 123.411C111.033 122.752 113.035 122.093 114.92 121.325L115.744 122.752C113.977 123.85 112.093 124.838 110.09 125.717C109.03 126.156 108.088 126.485 107.028 126.815C106.439 127.034 105.85 127.144 105.261 127.144" fill="#FFB573"/>
<path d="M128.701 167.439C128.348 167.439 128.112 167.439 127.759 167.33C127.759 167.33 127.759 167.33 127.759 167.22C127.877 167.11 128.937 166.561 129.29 166.671C129.408 166.671 129.408 166.781 129.408 166.89C129.408 167 129.408 167.22 129.29 167.22C129.172 167.439 128.937 167.439 128.701 167.439ZM127.994 167.22C128.583 167.33 129.054 167.33 129.29 167.22C129.408 167.11 129.408 167 129.408 166.89C129.408 166.89 129.408 166.781 129.29 166.781C129.054 166.671 128.348 167 127.994 167.22Z" fill="#407BFF"/>
<path d="M127.759 167.33C127.759 167.22 127.759 166.341 128.112 166.012C128.23 165.902 128.348 165.902 128.465 165.902C128.583 165.902 128.701 166.012 128.701 166.122C128.701 166.451 128.23 167.11 127.759 167.33ZM128.348 166.012C128.23 166.012 128.23 166.012 128.112 166.122C127.877 166.341 127.759 166.89 127.759 167.22C128.112 167 128.465 166.451 128.465 166.232C128.583 166.122 128.583 166.012 128.348 166.012Z" fill="#407BFF"/>
<path d="M141.894 167.44C141.54 167.44 141.187 167.44 140.834 167.33C140.951 167.22 142.365 166.671 142.718 166.781C142.836 166.781 142.836 166.891 142.836 167C142.836 167.11 142.836 167.22 142.718 167.33C142.483 167.33 142.247 167.44 141.894 167.44ZM141.069 167.22C141.54 167.33 142.365 167.44 142.718 167.11C142.836 167 142.836 167 142.836 166.891C142.836 166.891 142.836 166.781 142.718 166.781C142.365 166.671 141.54 167 141.069 167.22Z" fill="#407BFF"/>
<path d="M140.834 167.33C140.834 167.22 140.834 166.451 141.305 166.122C141.422 166.012 141.54 166.012 141.776 166.012C142.011 166.012 142.011 166.122 142.011 166.232C142.011 166.451 141.305 167.11 140.834 167.33ZM141.658 166.012C141.54 166.012 141.422 166.012 141.422 166.122C141.069 166.342 141.069 166.891 140.951 167.11C141.422 166.891 142.011 166.342 141.894 166.122C141.894 166.122 141.894 166.012 141.658 166.012Z" fill="#407BFF"/>
<path d="M114.566 121.325L117.747 120.556L116.215 123.411C116.215 123.411 114.095 123.521 113.388 122.423L114.566 121.325Z" fill="#FFB573"/>
<path d="M120.338 121.654L118.924 123.96L116.333 123.411L117.864 120.556L120.338 121.654Z" fill="#FFB573"/>
<path d="M109.383 129.67H109.03C108.912 129.67 108.912 129.67 108.912 129.56L109.03 128.023L109.148 127.913H109.501C109.619 127.913 109.619 127.913 109.619 128.023L109.501 129.56C109.501 129.67 109.501 129.67 109.383 129.67Z" fill="#263238"/>
<path d="M120.456 129.67H120.102C119.985 129.67 119.985 129.67 119.985 129.56L120.102 128.023L120.22 127.913H120.574C120.691 127.913 120.691 127.913 120.691 128.023L120.574 129.56C120.574 129.67 120.574 129.67 120.456 129.67Z" fill="#263238"/>
<path d="M114.92 129.67H114.566C114.448 129.67 114.448 129.67 114.448 129.56L114.566 128.023L114.684 127.913H115.037C115.155 127.913 115.155 127.913 115.155 128.023L115.037 129.56C115.037 129.67 115.037 129.67 114.92 129.67Z" fill="#263238"/>
<path d="M105.379 109.906C103.965 110.345 101.256 118.47 101.256 118.47L106.792 118.69C106.792 118.69 109.619 114.517 109.03 112.87C108.441 111.224 119.513 107.051 105.379 109.906Z" fill="#C1272D"/>
<path d="M110.444 100.463C110.444 101.012 110.561 101.671 111.033 102.11C111.622 102.769 112.328 102.33 112.564 101.671C112.799 101.012 112.682 99.9145 111.975 99.5851C111.268 99.2557 110.561 99.6949 110.444 100.463Z" fill="#FFB573"/>
<path d="M178.88 125.826H153.084V172.6H178.88V125.826Z" fill="#C69C6D"/>
<path d="M128.937 125.826H103.141V172.6H128.937V125.826Z" fill="#C69C6D"/>
<path d="M179.822 125.826H177.702V172.6H179.822V125.826Z" fill="#754C24"/>
<path d="M180.529 125.826H129.172V129.34H180.529V125.826Z" fill="#8C6239"/>
<path d="M129.879 125.826H127.759V172.6H129.879V125.826Z" fill="#8C6239"/>
<path d="M178.762 126.924H129.055V137.026H178.762V126.924Z" fill="#A67C52"/>
<path d="M178.88 174.027H164.509C162.507 174.027 160.858 172.49 160.858 170.624V128.462C160.858 126.815 159.444 125.387 157.56 125.387H153.319V125.168H157.56C159.562 125.168 161.093 126.705 161.093 128.462V170.624C161.093 172.38 162.625 173.698 164.392 173.698H178.762C179.351 173.698 179.94 173.259 179.94 172.6C179.94 172.271 179.822 171.941 179.469 171.722L179.704 171.502C180.411 171.941 180.529 172.82 180.058 173.478C179.822 173.808 179.351 174.027 178.88 174.027Z" fill="#407BFF"/>
<path opacity="0.3" d="M178.88 174.027H164.509C162.507 174.027 160.858 172.49 160.858 170.624V128.462C160.858 126.815 159.444 125.387 157.56 125.387H153.319V125.168H157.56C159.562 125.168 161.093 126.705 161.093 128.462V170.624C161.093 172.38 162.625 173.698 164.392 173.698H178.762C179.351 173.698 179.94 173.259 179.94 172.6C179.94 172.271 179.822 171.941 179.469 171.722L179.704 171.502C180.411 171.941 180.529 172.82 180.058 173.478C179.822 173.808 179.351 174.027 178.88 174.027Z" fill="black"/>
<path d="M181 139.661H180.647V145.48H181V139.661Z" fill="#407BFF"/>
<path opacity="0.3" d="M181 139.661H180.647V145.48H181V139.661Z" fill="black"/>
<path d="M181 136.257H180.647V137.795H181V136.257Z" fill="#407BFF"/>
<path opacity="0.3" d="M181 136.257H180.647V137.795H181V136.257Z" fill="black"/>
<path d="M154.615 111.882H130.586L127.052 125.168H151.081L154.615 111.882Z" fill="#407BFF"/>
<path opacity="0.4" d="M154.615 111.882H130.586L127.052 125.168H151.081L154.615 111.882Z" fill="white"/>
<path d="M127.877 125.168L127.759 125.827H118.336V125.168H127.877Z" fill="#407BFF"/>
<path opacity="0.4" d="M127.877 125.168L127.759 125.827H118.336V125.168H127.877Z" fill="white"/>
<path d="M151.906 125.168L151.788 125.827H127.759L127.877 125.168H151.906Z" fill="#407BFF"/>
<path opacity="0.5" d="M151.906 125.168L151.788 125.827H127.759L127.877 125.168H151.906Z" fill="black"/>
<path d="M155.322 111.882H131.293L127.877 125.168H151.906L155.322 111.882Z" fill="#407BFF"/>
<path opacity="0.5" d="M155.322 111.882H131.293L127.877 125.168H151.906L155.322 111.882Z" fill="#808080"/>
<path d="M167.925 122.203C167.925 122.203 164.391 116.494 169.339 111.992C169.339 111.992 170.634 112.76 170.634 113.858C170.634 114.847 169.221 115.176 169.574 116.054C169.81 116.933 171.106 117.811 170.281 118.47C169.456 119.238 170.399 119.787 170.399 120.666C170.281 121.654 167.925 122.203 167.925 122.203Z" fill="#39B54A"/>
<path d="M168.161 122.752C168.161 122.752 169.574 116.274 163.449 113.419C163.449 113.419 162.507 114.517 162.86 115.505C163.214 116.493 164.627 116.384 164.627 117.262C164.627 118.14 163.685 119.348 164.745 119.787C165.805 120.227 165.098 121.105 165.452 121.983C165.805 122.862 168.161 122.752 168.161 122.752Z" fill="#006837"/>
<path d="M162.742 121.324C162.742 121.324 162.86 125.607 167.336 125.607C171.812 125.607 171.93 121.324 171.93 121.324H162.742Z" fill="#407BFF"/>
<path opacity="0.5" d="M162.742 121.324C162.742 121.324 162.86 125.607 167.336 125.607C171.812 125.607 171.93 121.324 171.93 121.324H162.742Z" fill="#8C6239"/>
<path d="M137.889 95.7419L134.002 91.1304L130.115 95.7419H131.999V101.781H136.004V95.7419H137.889Z" fill="#407BFF"/>
<path d="M149.197 101.232C149.197 96.5106 153.319 92.7775 158.266 92.7775V94.9734C154.615 94.9734 151.552 97.7184 151.552 101.232H149.197Z" fill="#407BFF"/>
<path d="M149.197 101.232H151.552C151.552 104.636 154.615 107.49 158.266 107.49C159.444 107.49 160.622 107.161 161.565 106.612L162.742 108.588C158.384 110.894 152.848 109.576 150.374 105.514C149.55 104.196 149.197 102.659 149.197 101.232Z" fill="#407BFF"/>
<path opacity="0.5" d="M149.197 101.232H151.552C151.552 104.636 154.615 107.49 158.266 107.49C159.444 107.49 160.622 107.161 161.565 106.612L162.742 108.588C158.384 110.894 152.848 109.576 150.374 105.514C149.55 104.196 149.197 102.659 149.197 101.232Z" fill="white"/>
<path d="M158.266 94.9734V92.7775C163.331 92.7775 167.336 96.5106 167.336 101.232C167.336 104.306 165.569 107.051 162.742 108.588L161.565 106.722C164.745 104.965 165.923 101.232 164.038 98.1575C162.978 96.0714 160.74 94.8636 158.266 94.9734Z" fill="#407BFF"/>
<path opacity="0.7" d="M158.266 94.9734V92.7775C163.331 92.7775 167.336 96.5106 167.336 101.232C167.336 104.306 165.569 107.051 162.742 108.588L161.565 106.722C164.745 104.965 165.923 101.232 164.038 98.1575C162.978 96.0714 160.74 94.8636 158.266 94.9734Z" fill="black"/>
<path d="M149.786 80.3705H141.54C140.951 80.3705 140.48 80.8097 140.48 81.3587V95.6322C140.48 96.1812 140.951 96.6204 141.54 96.6204H152.141C152.73 96.6204 153.202 96.1812 153.202 95.6322V83.5546L149.786 80.3705Z" fill="#263238"/>
<path d="M149.197 95.3028H142.365C142.129 95.3028 141.894 95.0832 141.894 94.8637C141.894 94.6441 142.129 94.4245 142.365 94.4245H149.197C149.432 94.4245 149.668 94.6441 149.668 94.8637C149.786 95.0832 149.55 95.3028 149.197 95.3028Z" fill="#407BFF"/>
<path d="M146.016 82.7859H142.365C142.129 82.7859 141.894 82.5663 141.894 82.3467C141.894 82.1271 142.129 81.9075 142.365 81.9075H146.016C146.252 81.9075 146.487 82.1271 146.487 82.3467C146.487 82.5663 146.252 82.7859 146.016 82.7859Z" fill="#407BFF"/>
<path d="M148.372 84.5426H142.365C142.129 84.5426 141.894 84.323 141.894 84.1034C141.894 83.8838 142.129 83.6642 142.365 83.6642H148.372C148.608 83.6642 148.843 83.8838 148.843 84.1034C148.843 84.323 148.608 84.5426 148.372 84.5426Z" fill="#407BFF"/>
<path d="M151.199 86.2997H142.365C142.129 86.2997 141.894 86.0801 141.894 85.8606C141.894 85.641 142.129 85.4214 142.365 85.4214H151.199C151.435 85.4214 151.67 85.641 151.67 85.8606C151.67 86.1899 151.435 86.2997 151.199 86.2997Z" fill="#407BFF"/>
<path d="M151.199 88.1662H146.016C145.781 88.1662 145.545 87.9466 145.545 87.727C145.545 87.5074 145.781 87.2878 146.016 87.2878H151.081C151.317 87.2878 151.552 87.5074 151.552 87.727C151.67 87.9466 151.435 88.1662 151.199 88.1662Z" fill="#407BFF"/>
<path d="M143.66 88.1662H142.365C142.129 88.1662 141.894 87.9466 141.894 87.727C141.894 87.5074 142.129 87.2878 142.365 87.2878H143.66C143.896 87.2878 144.132 87.5074 144.132 87.727C144.132 87.9466 144.014 88.1662 143.66 88.1662Z" fill="#407BFF"/>
<path d="M151.199 89.9229H142.365C142.129 89.9229 141.894 89.7033 141.894 89.4837C141.894 89.2641 142.129 89.0446 142.365 89.0446H151.199C151.435 89.0446 151.67 89.2641 151.67 89.4837C151.67 89.7033 151.435 89.9229 151.199 89.9229Z" fill="#407BFF"/>
<path d="M147.783 91.6794H142.365C142.129 91.6794 141.894 91.4599 141.894 91.2402C141.894 91.0206 142.129 90.801 142.365 90.801H147.783C148.019 90.801 148.254 91.0206 148.254 91.2402C148.254 91.5697 148.019 91.6794 147.783 91.6794Z" fill="#407BFF"/>
<path d="M151.199 91.6794H149.786C149.55 91.6794 149.314 91.4599 149.314 91.2402C149.314 91.0206 149.55 90.801 149.786 90.801H151.199C151.435 90.801 151.67 91.0206 151.67 91.2402C151.67 91.5697 151.435 91.6794 151.199 91.6794Z" fill="#407BFF"/>
<path d="M151.199 93.5461H142.365C142.129 93.5461 141.894 93.3265 141.894 93.107C141.894 92.8874 142.129 92.6678 142.365 92.6678H151.199C151.435 92.6678 151.67 92.8874 151.67 93.107C151.67 93.3265 151.435 93.5461 151.199 93.5461Z" fill="#407BFF"/>
<g opacity="0.5">
<path opacity="0.5" d="M149.197 95.3028H142.365C142.129 95.3028 141.894 95.0832 141.894 94.8637C141.894 94.6441 142.129 94.4245 142.365 94.4245H149.197C149.432 94.4245 149.668 94.6441 149.668 94.8637C149.786 95.0832 149.55 95.3028 149.197 95.3028Z" fill="white"/>
</g>
<g opacity="0.5">
<path opacity="0.5" d="M146.016 82.7859H142.365C142.129 82.7859 141.894 82.5663 141.894 82.3467C141.894 82.1271 142.129 81.9075 142.365 81.9075H146.016C146.252 81.9075 146.487 82.1271 146.487 82.3467C146.487 82.5663 146.252 82.7859 146.016 82.7859Z" fill="white"/>
</g>
<g opacity="0.5">
<path opacity="0.5" d="M148.372 84.5426H142.365C142.129 84.5426 141.894 84.323 141.894 84.1034C141.894 83.8838 142.129 83.6642 142.365 83.6642H148.372C148.608 83.6642 148.843 83.8838 148.843 84.1034C148.843 84.323 148.608 84.5426 148.372 84.5426Z" fill="white"/>
</g>
<g opacity="0.5">
<path opacity="0.5" d="M151.199 86.2997H142.365C142.129 86.2997 141.894 86.0801 141.894 85.8606C141.894 85.641 142.129 85.4214 142.365 85.4214H151.199C151.435 85.4214 151.67 85.641 151.67 85.8606C151.67 86.1899 151.435 86.2997 151.199 86.2997Z" fill="white"/>
</g>
<g opacity="0.5">
<path opacity="0.5" d="M151.199 88.1662H146.016C145.781 88.1662 145.545 87.9466 145.545 87.727C145.545 87.5074 145.781 87.2878 146.016 87.2878H151.081C151.317 87.2878 151.552 87.5074 151.552 87.727C151.67 87.9466 151.435 88.1662 151.199 88.1662Z" fill="white"/>
</g>
<g opacity="0.5">
<path opacity="0.5" d="M143.66 88.1662H142.365C142.129 88.1662 141.894 87.9466 141.894 87.727C141.894 87.5074 142.129 87.2878 142.365 87.2878H143.66C143.896 87.2878 144.132 87.5074 144.132 87.727C144.132 87.9466 144.014 88.1662 143.66 88.1662Z" fill="white"/>
</g>
<g opacity="0.5">
<path opacity="0.5" d="M151.199 89.9229H142.365C142.129 89.9229 141.894 89.7033 141.894 89.4837C141.894 89.2641 142.129 89.0446 142.365 89.0446H151.199C151.435 89.0446 151.67 89.2641 151.67 89.4837C151.67 89.7033 151.435 89.9229 151.199 89.9229Z" fill="white"/>
</g>
<g opacity="0.5">
<path opacity="0.5" d="M147.783 91.6794H142.365C142.129 91.6794 141.894 91.4599 141.894 91.2402C141.894 91.0206 142.129 90.801 142.365 90.801H147.783C148.019 90.801 148.254 91.0206 148.254 91.2402C148.254 91.5697 148.019 91.6794 147.783 91.6794Z" fill="white"/>
</g>
<g opacity="0.5">
<path opacity="0.5" d="M151.199 91.6794H149.786C149.55 91.6794 149.314 91.4599 149.314 91.2402C149.314 91.0206 149.55 90.801 149.786 90.801H151.199C151.435 90.801 151.67 91.0206 151.67 91.2402C151.67 91.5697 151.435 91.6794 151.199 91.6794Z" fill="white"/>
</g>
<g opacity="0.5">
<path opacity="0.5" d="M151.199 93.5461H142.365C142.129 93.5461 141.894 93.3265 141.894 93.107C141.894 92.8874 142.129 92.6678 142.365 92.6678H151.199C151.435 92.6678 151.67 92.8874 151.67 93.107C151.67 93.3265 151.435 93.5461 151.199 93.5461Z" fill="white"/>
</g>
<path d="M149.786 80.3705V82.5665C149.786 83.1155 150.257 83.5547 150.846 83.5547H153.202L149.786 80.3705Z" fill="#407BFF"/>
<path opacity="0.5" d="M149.786 80.3705V82.5665C149.786 83.1155 150.257 83.5547 150.846 83.5547H153.202L149.786 80.3705Z" fill="white"/>
<path d="M111.759 102.369C111.759 102.369 109.383 99.5617 109.74 97.765C110.096 95.9683 112.828 96.5298 112.828 96.5298C110.334 97.3159 109.859 97.9896 109.74 97.765C109.621 97.5404 109.74 96.4175 110.453 95.2946C111.641 93.2733 111.522 93.4979 111.522 93.4979C111.878 93.2733 112.591 92.9364 112.947 92.9364C114.016 92.5995 113.304 92.1504 114.373 91.4766C115.204 91.0274 115.679 91.7012 117.343 91.7012C119.481 91.5889 118.768 90.4659 121.144 91.1397C121.857 91.3643 121.619 92.2626 122.569 92.5995C123.163 92.9364 123.52 92.5995 123.995 92.9364C124.827 93.4979 124.945 95.2946 123.995 96.3052C123.045 97.2035 121.382 96.979 120.55 96.8667C117.699 96.5298 116.392 94.8454 114.729 95.4069C114.254 95.5192 113.898 95.856 113.66 95.9683" fill="#263238"/>
<path d="M110.58 99.1338C110.58 99.7891 110.719 100.576 111.277 101.1C111.974 101.886 112.811 101.362 113.09 100.576C113.369 99.7891 113.23 98.4785 112.393 98.0853C111.417 97.6921 110.58 98.3474 110.58 99.1338Z" fill="#FFB573"/>
<path d="M257.612 8.07453C176.612 -8.92525 -37.7754 -11.4253 7.11205 194.075C30.825 302.635 126.612 339.075 246.612 300.075" stroke="#999999" stroke-dasharray="10 12"/>
</svg>
