<?xml version="1.0" encoding="UTF-8"?>
<svg width="94px" height="108px" viewBox="0 0 94 108" version="1.1" xmlns="http://www.w3.org/2000/svg" xmlns:xlink="http://www.w3.org/1999/xlink">
    <!-- Generator: Sketch 51.2 (57519) - http://www.bohemiancoding.com/sketch -->
    <title>pdf student profile</title>
    <desc>Created with Sketch.</desc>
    <defs></defs>
    <g id="🖥--04a-Student-Profile" stroke="none" stroke-width="1" fill="none" fill-rule="evenodd">
        <g id="04-Student-Profile-Resume-Uploaded" transform="translate(-903.000000, -384.000000)" fill-rule="nonzero">
            <g id="pdf-student-profile" transform="translate(903.000000, 384.000000)">
                <path d="M20.1428571,0 C16.45,0 13.4285714,3.0375 13.4285714,6.75 L13.4285714,101.25 C13.4285714,104.9625 16.45,108 20.1428571,108 L87.2857143,108 C90.9785714,108 94,104.9625 94,101.25 L94,27 L67.1428571,0 L20.1428571,0 Z" id="Shape" fill="#E2E5E7"></path>
                <path d="M73.8571429,27 L94,27 L67.1428571,0 L67.1428571,20.25 C67.1428571,23.9625 70.1642857,27 73.8571429,27 Z" id="Shape" fill="#B0B7BD"></path>
                <polygon id="Shape" fill="#CAD1D8" points="94 47.25 73.8571429 27 94 27"></polygon>
                <path d="M80.5714286,87.75 C80.5714286,89.60625 79.0607143,91.125 77.2142857,91.125 L3.35714286,91.125 C1.51071429,91.125 0,89.60625 0,87.75 L0,54 C0,52.14375 1.51071429,50.625 3.35714286,50.625 L77.2142857,50.625 C79.0607143,50.625 80.5714286,52.14375 80.5714286,54 L80.5714286,87.75 Z" id="Shape" fill="#BE2861"></path>
                <g id="Group" transform="translate(14.477679, 62.015625)" fill="#FFFFFF">
                    <path d="M0.156107143,1.9305 C0.156107143,1.0395 0.854392857,0.0675 1.97903571,0.0675 L8.17967857,0.0675 C11.6711071,0.0675 14.8133929,2.4165 14.8133929,6.91875 C14.8133929,11.18475 11.6711071,13.56075 8.17967857,13.56075 L3.69789286,13.56075 L3.69789286,17.12475 C3.69789286,18.31275 2.94589286,18.984375 1.97903571,18.984375 C1.09275,18.984375 0.156107143,18.31275 0.156107143,17.12475 L0.156107143,1.9305 Z M3.69789286,3.466125 L3.69789286,10.189125 L8.17967857,10.189125 C9.97910714,10.189125 11.4025357,8.59275 11.4025357,6.91875 C11.4025357,5.032125 9.97910714,3.466125 8.17967857,3.466125 L3.69789286,3.466125 Z" id="Shape"></path>
                    <path d="M20.0706786,18.984375 C19.1843929,18.984375 18.2175357,18.498375 18.2175357,17.31375 L18.2175357,1.9845 C18.2175357,1.015875 19.1843929,0.3105 20.0706786,0.3105 L26.2176071,0.3105 C38.4846071,0.3105 38.2160357,18.984375 26.4593214,18.984375 L20.0706786,18.984375 Z M21.7626786,3.6045 L21.7626786,15.69375 L26.2176071,15.69375 C33.4656786,15.69375 33.7879643,3.6045 26.2176071,3.6045 L21.7626786,3.6045 Z" id="Shape"></path>
                    <path d="M42.5668929,3.8205 L42.5668929,8.110125 L49.4121071,8.110125 C50.3789643,8.110125 51.3458214,9.082125 51.3458214,10.02375 C51.3458214,10.91475 50.3789643,11.64375 49.4121071,11.64375 L42.5668929,11.64375 L42.5668929,17.310375 C42.5668929,18.255375 41.8988214,18.981 40.9588214,18.981 C39.7771071,18.981 39.0553214,18.255375 39.0553214,17.310375 L39.0553214,1.981125 C39.0553214,1.0125 39.7804643,0.307125 40.9588214,0.307125 L50.3823214,0.307125 C51.5640357,0.307125 52.2623214,1.0125 52.2623214,1.981125 C52.2623214,2.845125 51.5640357,3.817125 50.3823214,3.817125 L42.5668929,3.817125 L42.5668929,3.8205 Z" id="Shape"></path>
                </g>
                <path d="M77.2142857,91.125 L13.4285714,91.125 L13.4285714,94.5 L77.2142857,94.5 C79.0607143,94.5 80.5714286,92.98125 80.5714286,91.125 L80.5714286,87.75 C80.5714286,89.60625 79.0607143,91.125 77.2142857,91.125 Z" id="Shape" fill="#CAD1D8"></path>
            </g>
        </g>
    </g>
</svg>