<svg width="301" height="167" viewBox="0 0 301 167" fill="none" xmlns="http://www.w3.org/2000/svg">
<path d="M48.188 86.1958L87.4758 95.1604C89.1128 95.5419 89.9313 97.0678 89.3174 98.5937C89.3174 98.7844 89.1128 98.9752 89.1128 99.1659L56.5776 155.624L70.2874 166.306L55.7591 163.445L44.3001 159.058L45.9372 152.382L66.8088 105.651C67.218 104.697 66.6041 103.744 65.7856 103.553C65.581 103.553 65.3764 103.362 65.1718 103.362H21.5869C21.5869 103.362 12.7881 95.7326 21.3823 85.2421L48.188 86.1958Z" fill="#263238" stroke="#263238" stroke-width="0.7196" stroke-linecap="round" stroke-linejoin="round"/>
<path d="M35.092 155.625V118.812H29.5672V113.853H44.0955V118.812H38.366V155.243L65.3763 161.728V163.636H62.5116L38.366 159.44V163.636H35.092V159.821L13.1973 163.636H10.1279V161.728L35.092 155.625Z" fill="#263238"/>
<path d="M50.848 114.044H7.87716L3.7847 107.749C0.715348 102.981 0.101454 97.068 2.35231 91.9181L5.01245 85.8145" stroke="#263238" stroke-width="1.4392" stroke-linecap="round" stroke-linejoin="round"/>
<path d="M48.3926 49.1931L57.8054 59.6837L82.3603 61.5911C82.3603 61.5911 92.5915 57.3949 94.8423 57.3949C97.0932 57.3949 103.232 65.7873 103.232 65.7873H81.3371L55.7591 69.4113L44.0956 62.7355L48.3926 49.1931Z" fill="#F15A24"/>
<path d="M51.6668 42.8984L49.4159 67.1222C49.6206 69.6018 50.2345 74.1795 50.8483 76.6591C51.8715 80.2831 50.8483 79.3294 50.8483 86.196C50.2345 86.3867 53.3038 86.0052 52.6899 86.0052C48.3928 86.0052 44.0958 84.8608 39.7987 84.8608H23.6334C21.5872 84.8608 19.7455 83.7164 18.927 81.9997L18.7224 81.4275C18.3132 80.4738 18.1086 79.3294 18.3132 78.3757C20.1548 70.7462 28.5444 41.754 30.386 38.5114C32.4322 34.8874 39.594 32.4078 39.594 32.4078L51.6668 42.8984Z" fill="#F7931E"/>
<path d="M57.8056 32.9802L53.0992 34.8875L49.6206 41.7541L40.2078 33.1709L42.868 27.6395C42.868 27.6395 39.3893 23.0618 40.2078 18.8655C41.0263 14.6693 49.416 10.2823 53.7131 14.2878C58.2148 18.1026 57.8056 32.9802 57.8056 32.9802Z" fill="#A67C52"/>
<path d="M59.4424 13.9062C59.4424 13.9062 62.5117 13.334 62.3071 10.6637C62.1025 7.99335 59.4424 11.0452 59.4424 8.1841C59.4424 5.32303 62.3071 4.36934 60.4655 2.6527C58.6239 0.936061 53.3037 0.173101 51.8713 2.27122C50.4389 4.56007 50.8482 5.7045 49.8251 5.7045C48.8019 5.7045 46.1418 3.41565 43.891 6.27672C41.8447 9.13778 42.4586 10.0915 42.4586 10.0915C42.4586 10.0915 34.4783 12.9525 34.4783 17.721C34.4783 22.4894 42.6632 27.2579 42.6632 27.2579C42.6632 27.2579 47.9834 27.6393 50.4389 25.5412C52.8944 23.2524 53.5083 19.4376 54.1222 17.9117C54.736 16.3858 59.4424 13.9062 59.4424 13.9062Z" fill="#263238" stroke="#263238" stroke-width="0.7196" stroke-linecap="round" stroke-linejoin="round"/>
<path d="M60.6703 20.0098L63.9443 23.0616L60.6703 20.0098ZM63.9443 23.2523L61.2842 26.1134L61.4888 32.4078L55.5547 32.7892C52.6899 32.98 50.0298 31.4541 49.0067 28.9745L47.5743 25.5412C46.1419 24.969 45.1188 23.6338 45.3234 22.1079C45.3234 19.4376 45.1188 18.4839 46.5512 18.4839C47.7789 18.4839 48.8021 18.6746 50.0298 19.0561L51.6668 18.2931L51.4622 15.8136L53.9177 14.0969L54.1223 11.6173L63.9443 23.2523Z" fill="#C69C6D"/>
<path d="M41.0264 29.7377L54.9408 42.3264L52.2807 49.1929L37.5477 33.7432L41.0264 29.7377Z" fill="#F15A24"/>
<path d="M62.7164 112.708H17.6993C15.653 112.708 14.2207 111.182 14.2207 109.466V105.651C14.2207 103.744 15.8577 102.408 17.6993 102.408H62.7164C64.7626 102.408 66.195 103.934 66.195 105.651V109.466C66.3997 111.182 64.7626 112.708 62.7164 112.708Z" fill="#4D4D4D"/>
<path d="M13.4021 97.4497L8.69567 98.0218C7.46793 98.2126 6.24021 97.2589 6.03559 96.1145L1.73848 65.9779C1.53386 64.8334 2.55698 63.689 3.78472 63.4983L8.49104 62.926C9.71878 62.7353 10.9466 63.689 11.1512 64.8334L15.4483 94.9701C15.6529 96.3052 14.8344 97.2589 13.4021 97.4497Z" fill="#666666"/>
<path d="M41.0263 40.61L54.5314 62.9263L79.9048 61.9727C79.9048 61.9727 90.7498 59.6838 92.5914 59.4931C94.4331 59.3023 99.3441 64.643 99.3441 64.643H81.5418L49.4158 73.6077L29.3627 50.9098" fill="#F7931E"/>
<path d="M79.9046 65.2146L79.2906 62.1628H79.9046C79.9046 62.1628 90.7496 59.874 92.5912 59.6832C94.4329 59.4925 99.3439 64.8332 99.3439 64.8332H81.5415L79.9046 65.2146Z" fill="#C69C6D"/>
<path d="M219.458 101.646C219.458 101.646 246.673 148.567 247.492 150.475C248.31 152.573 248.719 154.862 248.719 157.151C248.719 157.151 248.31 157.723 247.082 157.723C245.855 157.723 232.963 162.873 229.689 162.873H223.346L228.052 159.058L233.373 153.527C233.373 153.527 236.237 154.099 236.237 148.949C236.237 143.799 203.088 102.027 201.86 98.7848C200.633 95.5422 207.385 93.6348 209.636 93.8256C211.887 94.2071 218.026 94.97 218.026 94.97L219.458 101.646Z" fill="#5C5C5C" stroke="#263238" stroke-width="0.7196" stroke-linecap="round" stroke-linejoin="round"/>
<path d="M243.604 83.5255L196.95 95.9235C195.313 96.305 194.494 97.8309 194.904 99.3568C194.904 99.5475 195.108 99.7382 195.108 99.929L231.941 152.382L217.003 164.78L227.234 165.924L235.419 163.254L239.921 159.63L238.284 152.954L217.412 106.223C217.003 105.46 217.617 104.316 218.435 104.125C218.64 104.125 218.845 103.934 219.049 103.934H268.364C268.364 103.934 279.413 94.0161 270.819 83.7162L243.604 83.5255Z" fill="white" stroke="#263238" stroke-width="0.7196" stroke-linecap="round" stroke-linejoin="round"/>
<path d="M226.415 32.9802L231.122 34.8876L234.6 41.7541L244.013 33.1709L241.353 27.4488C241.353 27.4488 244.832 22.8711 244.013 18.6748C243.195 14.4786 234.805 10.0916 230.508 14.0971C226.006 18.1026 226.415 32.9802 226.415 32.9802Z" fill="white" stroke="#263238" stroke-width="0.7196" stroke-linecap="round" stroke-linejoin="round"/>
<path d="M221.709 24.5874L224.369 27.4485L224.165 33.7428L230.099 34.1243C232.963 34.315 235.624 32.7891 236.647 30.3095L238.079 26.8762C239.511 26.304 240.535 24.9689 240.535 23.443C240.535 20.7726 240.739 19.8189 239.307 19.8189C238.079 19.8189 237.056 20.0097 235.828 20.3911L234.191 19.6282L234.396 17.1486L231.94 15.432L231.736 12.9524L221.709 24.5874Z" fill="#FFB573"/>
<path d="M234.6 48.2391L223.346 61.7815L190.606 61.0186C190.606 61.0186 180.784 57.2038 179.352 57.9668C177.715 58.7297 174.441 63.8796 174.441 63.8796L182.217 62.7352C183.854 63.4982 185.695 63.8796 187.537 64.2611C188.765 64.2611 190.197 63.8797 191.425 63.4982L231.122 70.9369L242.785 60.0649L234.6 48.2391Z" fill="#009245"/>
<path d="M232.964 44.9967C232.964 44.9967 231.122 61.7816 232.964 64.2612C234.805 66.7408 242.581 69.2204 242.99 70.1741C243.399 71.1278 242.99 81.8091 243.604 82.7628C245.241 84.2887 247.287 85.2424 249.538 86.0053H269.182C269.182 86.0053 272.251 83.7165 272.251 81.6184C272.251 79.5202 265.499 72.0815 265.499 72.0815C265.499 72.0815 262.225 49.1929 259.155 43.28C256.086 37.3672 243.195 33.9339 242.172 33.5524C240.944 32.7894 232.964 44.9967 232.964 44.9967Z" fill="#8CC63F"/>
<path d="M243.195 29.7377L229.485 42.3264L232.145 49.1929L246.673 33.7432L243.195 29.7377Z" fill="#009245"/>
<path d="M243.195 40.61L229.689 62.9263L204.316 61.9727C204.316 61.9727 193.471 59.6838 191.629 59.4931C189.788 59.3023 184.877 64.643 184.877 64.643H202.474L234.6 73.6077L254.654 50.9098" fill="#8CC63F"/>
<path d="M204.316 65.2146L204.93 62.1628H204.316C204.316 62.1628 193.471 59.874 191.629 59.6832C189.788 59.4925 184.877 64.8332 184.877 64.8332H202.474L204.316 65.2146Z" fill="#FFB573"/>
<path d="M225.392 11.6174C225.392 11.6174 238.693 28.4023 244.013 28.4023C253.221 28.7838 251.38 13.5247 248.31 9.70998C246.469 7.42113 227.029 -0.971356 225.392 11.6174Z" fill="#263238" stroke="#263238" stroke-width="0.6722" stroke-linecap="round" stroke-linejoin="round"/>
<path d="M237.67 18.1027C237.67 18.1027 239.307 25.16 236.647 30.1192C234.191 35.0784 230.099 34.5061 231.122 35.2691C232.145 36.0321 238.079 41.182 243.604 38.5116C249.129 35.8413 251.175 25.3507 251.175 20.9637" fill="#263238"/>
<path d="M237.67 18.1027C237.67 18.1027 239.307 25.16 236.647 30.1192C234.191 35.0784 230.099 34.5061 231.122 35.2691C232.145 36.0321 238.079 41.182 243.604 38.5116C249.129 35.8413 251.175 25.3507 251.175 20.9637" stroke="#263238" stroke-width="0.7196" stroke-linecap="round" stroke-linejoin="round"/>
<path d="M271.023 82.9536L243.604 82.5721L200.837 94.0164C204.316 95.7331 212.092 100.692 217.616 104.126C217.821 103.553 225.597 104.698 226.415 104.698L268.568 102.981C268.568 103.172 279.618 93.2535 271.023 82.9536Z" fill="#263238"/>
<path d="M265.703 155.625V118.812H271.228V113.853H256.905V118.812H262.429V155.243L235.419 161.728V163.636H238.284L262.429 159.44V163.636H265.703V159.821L287.598 163.636H290.667V161.728L265.703 155.625Z" fill="#263238"/>
<path d="M250.152 114.044H293.123L297.215 107.749C300.285 102.981 300.899 97.068 298.648 91.9181L295.988 85.8145" stroke="#263238" stroke-width="1.4392" stroke-linecap="round" stroke-linejoin="round"/>
<path d="M238.079 102.218H283.096C285.143 102.218 286.575 103.744 286.575 105.461V109.275C286.575 111.183 284.938 112.518 283.096 112.518H238.079C236.033 112.518 234.6 110.992 234.6 109.275V105.461C234.396 103.744 236.033 102.218 238.079 102.218Z" fill="#4D4D4D"/>
<path d="M290.463 63.307L295.169 63.8792C296.397 64.07 297.42 65.2144 297.215 66.3588L292.918 96.4954C292.714 97.6399 291.486 98.5936 290.258 98.4028L285.552 97.8306C284.324 97.6399 283.301 96.4954 283.506 95.351L287.803 65.2144C288.007 64.07 289.235 63.1163 290.463 63.307Z" fill="#4D4D4D"/>
<path d="M128.81 66.5494H119.397V68.0753H129.015H131.47L131.265 66.5494" fill="white"/>
<path d="M128.81 66.5494H119.397V68.0753H129.015H131.47L131.265 66.5494" stroke="#263238" stroke-width="0.5397" stroke-linecap="round" stroke-linejoin="round"/>
<path d="M113.463 66.7406H90.9543V67.8851H113.463V66.7406Z" fill="white" stroke="#263238" stroke-width="0.5397" stroke-linecap="round" stroke-linejoin="round"/>
<path d="M159.913 66.5499L164.619 42.8984H167.075L162.368 66.5499H171.781V68.0758H161.959H159.708L159.913 66.5499Z" fill="#0071BC" stroke="#263238" stroke-width="0.5397" stroke-linecap="round" stroke-linejoin="round"/>
<path d="M173.827 57.3946L171.167 57.7761L166.665 25.3506L169.325 24.9691L173.827 57.3946Z" fill="#0071BC" stroke="#263238" stroke-width="0.5397" stroke-linecap="round" stroke-linejoin="round"/>
<path d="M167.075 27.0669L164.619 30.8817L168.507 56.4406L171.167 57.7758L167.075 27.0669Z" fill="#808080" stroke="#263238" stroke-width="0.5397" stroke-linecap="round" stroke-linejoin="round"/>
<path d="M200.224 66.7406H177.715V67.8851H200.224V66.7406Z" fill="white" stroke="#263238" stroke-width="0.5397" stroke-linecap="round" stroke-linejoin="round"/>
<path d="M222.937 73.2256H81.1326V166.306H222.937V73.2256Z" fill="#A67C52" stroke="#263238" stroke-width="0.7196" stroke-linecap="round" stroke-linejoin="round"/>
<path d="M142.724 102.599H73.9708V166.115H142.724V102.599Z" fill="#A67C52" stroke="#263238" stroke-width="0.7196" stroke-linecap="round" stroke-linejoin="round"/>
<path d="M232.145 102.599H163.391V166.115H232.145V102.599Z" fill="#A67C52" stroke="#263238" stroke-width="0.7196" stroke-linecap="round" stroke-linejoin="round"/>
<path d="M225.802 67.5034H78.4725V73.607H225.802V67.5034Z" fill="#754C24" stroke="#263238" stroke-width="0.7196" stroke-linecap="round" stroke-linejoin="round"/>
</svg>
