<svg width="1300" height="600" xmlns="http://www.w3.org/2000/svg">
 <defs>
  <style>.cls-1{fill:none;}.cls-2{fill:#ad4c8f;}.cls-3{fill:#20243f;}.cls-4{fill:#ff6448;}.cls-5{fill:#ff9b4f;}.cls-6{fill:#52398a;}.cls-7{fill:#fff;}.cls-8{fill:#202441;}.cls-9{fill:#ff634a;}.cls-10{fill:#533b89;}.cls-11{fill:#fd9e4e;}.cls-12{fill:#c159a4;}.cls-13{clip-path:url(#clip-path);}.cls-14{fill:#fefefe;}.cls-15{fill:#fdfdfd;}.cls-16{fill:#fcfcfc;}.cls-17{fill:#fbfbfb;}.cls-18{fill:#fafafa;}.cls-19{fill:#f9f9f9;}.cls-20{fill:#f8f8f8;}.cls-21{fill:#f7f7f7;}.cls-22{fill:#f6f6f6;}.cls-23{fill:#f5f5f5;}.cls-24{fill:#f4f4f4;}.cls-25{fill:#f3f3f3;}.cls-26{fill:#f2f2f2;}.cls-27{fill:#f1f1f1;}.cls-28{fill:#f0f0f0;}.cls-29{fill:#efefef;}.cls-30{fill:#eee;}.cls-31{fill:#ededed;}.cls-32{fill:#ececec;}.cls-33{fill:#ebebeb;}.cls-34{fill:#eaeaea;}.cls-35{fill:#e9e9e9;}.cls-36{fill:#e8e8e8;}.cls-37{fill:#e7e7e7;}.cls-38{fill:#e6e6e6;}.cls-39{fill:#e5e5e5;}.cls-40{fill:#e4e4e4;}.cls-41{fill:#e3e3e3;}.cls-42{fill:#e2e2e2;}.cls-43{fill:#e1e1e1;}.cls-44{fill:#e0e0e0;}.cls-45{fill:#dfdfdf;}.cls-46{fill:#dedede;}.cls-47{fill:#ddd;}.cls-48{fill:#dcdcdc;}.cls-49{fill:#dbdbdb;}.cls-50{fill:#dadada;}.cls-51{fill:#d9d9d9;}.cls-52{fill:#d8d8d8;}.cls-53{fill:#d7d7d7;}.cls-54{fill:#d6d6d6;}.cls-55{fill:#d5d5d5;}.cls-56{fill:#d4d4d4;}.cls-57{fill:#d3d3d3;}.cls-58{fill:#d2d2d2;}.cls-59{fill:#d1d1d1;}.cls-60{fill:#d0d0d0;}.cls-61{fill:#cfcfcf;}.cls-62{fill:#cecece;}.cls-63{fill:#cdcdcd;}.cls-64{fill:#ccc;}.cls-65{fill:#cbcbcb;}.cls-66{fill:#cacaca;}.cls-67{fill:#c9c9c9;}.cls-68{fill:#c8c8c8;}.cls-69{fill:#c7c7c7;}.cls-70{fill:#c6c6c6;}.cls-71{fill:#c5c5c5;}.cls-72{fill:#c4c4c4;}.cls-73{fill:#c3c3c3;}.cls-74{fill:#c2c2c2;}.cls-75{fill:#c1c1c1;}.cls-76{fill:silver;}.cls-77{fill:#bfbfbf;}.cls-78{fill:#bebebe;}.cls-79{fill:#bdbdbd;}.cls-80{fill:#bcbcbc;}.cls-81{fill:#bbb;}.cls-82{fill:#bababa;}.cls-83{fill:#b9b9b9;}.cls-84{fill:#b8b8b8;}.cls-85{fill:#b7b7b7;}.cls-86{fill:#b6b6b6;}.cls-87{fill:#b5b5b5;}.cls-88{fill:#b4b4b4;}.cls-89{fill:#b3b3b3;}.cls-90{fill:#b2b2b2;}.cls-91{fill:#b1b1b1;}.cls-92{fill:#b0b0b0;}.cls-93{fill:#afafaf;}.cls-94{fill:#aeaeae;}.cls-95{fill:#adadad;}.cls-96{fill:#acacac;}.cls-97{fill:#ababab;}.cls-98{fill:#a9a9a9;}.cls-99{fill:#a8a8a8;}.cls-100{fill:#a7a7a7;}.cls-101{fill:#a6a6a6;}.cls-102{fill:#a5a5a5;}.cls-103{fill:#a4a4a4;}.cls-104{fill:#a3a3a3;}.cls-105{fill:#a2a2a2;}.cls-106{fill:#a1a1a1;}.cls-107{fill:#a0a0a0;}.cls-108{fill:#9f9f9f;}.cls-109{fill:#9e9e9e;}.cls-110{fill:#9d9d9d;}.cls-111{fill:#9c9c9c;}.cls-112{fill:#9b9b9b;}.cls-113{fill:#9a9a9a;}.cls-114{fill:#999;}.cls-115{fill:#989898;}.cls-116{fill:#979797;}.cls-117{fill:#969696;}.cls-118{fill:#959595;}.cls-119{fill:#949494;}.cls-120{fill:#939393;}.cls-121{fill:#929292;}.cls-122{fill:#919191;}.cls-123{fill:#8f8f8f;}.cls-124{fill:#8e8e8e;}.cls-125{fill:#8d8d8d;}.cls-126{fill:#8c8c8c;}.cls-127{fill:#8b8b8b;}.cls-128{fill:#8a8a8a;}.cls-129{fill:#898989;}.cls-130{fill:#888;}.cls-131{fill:#878787;}.cls-132{fill:#868686;}.cls-133{fill:#858585;}.cls-134{fill:#848484;}.cls-135{fill:#838383;}.cls-136{fill:#828282;}.cls-137{fill:#818181;}.cls-138{fill:gray;}.cls-139{fill:#7f7f7f;}.cls-140{fill:#7d7d7d;}.cls-141{fill:#7c7c7c;}.cls-142{fill:#7b7b7b;}.cls-143{fill:#7a7a7a;}.cls-144{fill:#797979;}.cls-145{fill:#787878;}.cls-146{fill:#777;}.cls-147{fill:#767676;}.cls-148{fill:#757575;}.cls-149{fill:#747474;}.cls-150{fill:#737373;}.cls-151{fill:#727272;}.cls-152{fill:#717171;}.cls-153{fill:#707070;}.cls-154{fill:#6f6f6f;}.cls-155{fill:#6d6d6d;}.cls-156{fill:#6c6c6c;}.cls-157{fill:#6b6b6b;}.cls-158{fill:#6a6a6a;}.cls-159{fill:#696969;}.cls-160{fill:#686868;}.cls-161{fill:#676767;}.cls-162{fill:#666;}.cls-163{fill:#656565;}.cls-164{fill:#646464;}.cls-165{fill:#636363;}.cls-166{fill:#626262;}.cls-167{fill:#616161;}.cls-168{fill:#5f5f5f;}.cls-169{fill:#5e5e5e;}.cls-170{fill:#5d5d5d;}.cls-171{fill:#5c5c5c;}.cls-172{fill:#5b5b5b;}.cls-173{fill:#5a5a5a;}.cls-174{fill:#595959;}.cls-175{fill:#585858;}.cls-176{fill:#575757;}.cls-177{fill:#565656;}.cls-178{fill:#555;}.cls-179{fill:#545454;}.cls-180{fill:#525252;}.cls-181{fill:#515151;}.cls-182{fill:#505050;}.cls-183{fill:#4f4f4f;}.cls-184{fill:#4e4e4e;}.cls-185{fill:#4d4d4d;}.cls-186{fill:#ff644b;}.cls-187{fill:#191e31;}.cls-188{fill:#ffb884;}.cls-189{fill:#fd9c4d;}.cls-190{fill:#6350a1;}.cls-191{fill:#feffff;}.cls-192{fill:#fd9c4f;}.cls-193{fill:#f46c56;}.cls-194{fill:#d35a52;}.cls-195{fill:#e7e8ec;}.cls-196{fill:#473675;}.cls-197{fill:url(#linear-gradient);}.cls-198{fill:#ac4b8e;}.cls-199{fill:#313747;}.cls-200{fill:#f76150;}.cls-201{fill:#66509b;}.cls-202{fill:#ff9c50;}.cls-203{fill:#ffbeae;}.cls-204{fill:#fb634b;}.cls-205{fill:#af4c8f;}</style>
  <clipPath id="clip-path">
   <polygon points="698.15 257.27 628.84 480.69 791.58 480.69 728.03 258.92 698.15 257.27" class="cls-1" id="SVGID"/>
  </clipPath>
  <filter height="200%" width="200%" y="-50%" x="-50%" id="svg_17_blur">
   <feGaussianBlur stdDeviation="0" in="SourceGraphic"/>
  </filter>
 </defs>
 <title>Asset 1</title>
 <g>
  <title>background</title>
  <rect fill="none" id="canvas_background" height="602" width="1302" y="-1" x="-1"/>
 </g>
 <g>
  <title>Layer 1</title>
  <g id="Layer_2">
   <g id="Layer_1-2">
    <path id="svg_8" d="m1158.79,601.58l0,-91.52q0.78,-15 1.55,-30c-0.16,-1.84 -1.13,-15.11 8.92,-25a31.36,31.36 0 0 1 31.69,-7q0.51,-56.19 1,-112.38a12.9,12.9 0 0 0 -3.23,-10.21a12.52,12.52 0 0 0 -7.76,-3.75l-62.07,-0.52c-8,0.4 -21.74,2.44 -33.63,12.16a60.52,60.52 0 0 0 -12.8,15c-8.83,13.82 -6.78,20.77 -14,30.91c-3.27,4.61 -9,10.67 -19.65,15.51l-149.11,-3.49q-6.69,105.12 -13.39,210.24l272.48,0.05z" class="cls-4"/>
    <path stroke="null" filter="url(#svg_17_blur)" id="svg_17" d="m1302.35655,600.87789a16.25629,16.68 0 0 0 -4.87299,-12.41c-5.84759,-5.63 -13.41046,-4.16 -14.12192,-4a17.41606,17.87 0 0 0 -4.02509,-10.48c-4.52213,-5.34 -12.24094,-7.31 -19.79408,-5.17l-14.23887,-50.69a61.34117,62.94 0 0 0 -15.12575,-23.41a62.19881,63.82 0 0 0 -32.76597,-16.43l-106.543,0a51.65367,53 0 0 0 -10.20404,-25.21a50.40618,51.72 0 0 0 -16.56816,-14.23a49.70447,51 0 0 0 -22.18184,-5.69l-161.57852,-1.29l0,162.55l422.02021,6.46z" class="cls-2"/>
    <polygon id="svg_1" points="399.66998291015625,136.5800018310547 426.70001220703125,218.95999145507812 371.3500061035156,218.95999145507812 399.66998291015625,136.5800018310547 " class="cls-2"/>
    <line id="svg_2" y2="401.04" x2="1020.03" y1="356.17" x1="1020.03" class="cls-3"/>
    <rect id="svg_3" height="44.87" width="1.29" y="356.17" x="1019.38"/>
    <circle id="svg_4" r="10.6" cy="347.37" cx="1020.03" class="cls-4"/>
    <path id="svg_5" d="m234.74,601.58l496.72,0q-0.42,-105.76 -0.85,-211.53a88.4,88.4 0 0 0 -17.72,-42.16c-17.42,-22.31 -40.44,-29.22 -48.11,-31.17l-92.21,0.78c-5.61,0.2 -22.72,0.09 -38.4,-11.77a61,61 0 0 1 -19.4,-25.73a66.15,66.15 0 0 1 -5,-22.76c-0.18,-2.74 -1.51,-19 -15.64,-30.65a44.37,44.37 0 0 0 -32.2,-9.7l-71.18,0a17.16,17.16 0 0 0 -10.35,-16.43c-7.7,-3.11 -14.71,1.25 -15.39,1.68c0,-12 -6.87,-22.13 -16.42,-25.08c-10.1,-3.12 -19.29,3 -20.69,4a27.11,27.11 0 0 0 -9.7,12.41l-15,0.65a19.66,19.66 0 0 0 -13.06,24.05l-17.33,-0.39a21.49,21.49 0 0 0 -15.81,15.79q-0.52,41.13 -1,82.25a25.12,25.12 0 0 0 -23.41,30q1.08,127.88 2.15,255.76z" class="cls-5"/>
    <path id="svg_6" d="m269.77,601.58l258.71,-5.26q-1,-89.37 -1.94,-178.73c-11.45,0.46 -49.66,0.54 -84.19,-26.51a125.56,125.56 0 0 1 -37,-47.59l-174.35,2.07q-1.76,97.9 -3.5,195.8a59.14,59.14 0 0 0 -8.5,11.51a58.38,58.38 0 0 0 -5.43,12.93a25.72,25.72 0 0 0 -15.13,-2.46c-11.11,1.76 -18.92,11.28 -21.44,20.56a29.73,29.73 0 0 0 0.83,17.68l91.94,0z" class="cls-6"/>
    <path id="svg_7" d="m491.81,601.58q-0.53,-7.32 -1,-14.64c-3.57,-21.86 -18.28,-37.43 -34.4,-38.8c-9.6,-0.81 -17.48,3.61 -21.6,6.47a58.89,58.89 0 0 0 -1.58,-17.61c-4.56,-18.62 -19.82,-40.37 -45.13,-46.42c-2.77,-0.67 -33,-7.36 -54.06,14c-13.39,13.55 -15.17,30.37 -15.52,35.57c-19.52,-8.59 -41.24,-7.08 -56,4.78c-16.27,13.07 -17.8,33.72 -18.36,41.24a68.14,68.14 0 0 0 0.62,15.41l247.03,0z" class="cls-5"/>
    <polygon id="svg_9" points="435.9800109863281,601.5700073242188 404.75,462.8599853515625 372.0299987792969,601.5700073242188 435.9800109863281,601.5700073242188 " class="cls-7"/>
    <polygon id="svg_10" points="377.17999267578125,601.5700073242188 358.9900207519531,520.7899780273438 339.94000244140625,601.5700073242188 377.17999267578125,601.5700073242188 " class="cls-7"/>
    <rect id="svg_11" height="18.41" width="3.89" y="469.39" x="1101.64" class="cls-8"/>
    <path id="svg_12" d="m1111.52,462.78a8,8 0 1 1 -15.9,0l0,-0.26l0,0l1.52,-4.42l6.64,-19.3l6.43,19.61l0,0l1.3,4c0.01,0.09 0.01,0.23 0.01,0.37z" class="cls-2"/>
    <rect id="svg_13" height="18.41" width="3.89" y="468.75" x="1120.53" class="cls-8"/>
    <path id="svg_14" d="m1130.4,462.14a7.95,7.95 0 1 1 -15.9,0l0,-0.27l0,0l1.52,-4.41l6.64,-19.3l6.43,19.6l0,0l1.3,4c0.01,0.1 0.01,0.24 0.01,0.38z" class="cls-2"/>
    <rect id="svg_15" height="33.52" width="7.09" y="300" x="1165.11" class="cls-8"/>
    <path id="svg_16" d="m1183.09,288a14.48,14.48 0 1 1 -29,0c0,-0.16 0,-0.32 0,-0.48l0,0l2.77,-8l12.14,-35.22l11.71,35.7l0,0l2.36,7.2c0.02,0.26 0.02,0.51 0.02,0.8z" class="cls-2"/>
    <polygon id="svg_18" points="1168.1800537109375,601.5700073242188 1141.590087890625,520.5400390625 1113.72998046875,601.5700073242188 1168.1800537109375,601.5700073242188 " class="cls-9"/>
    <polygon id="svg_19" points="1208.1500244140625,601.5700073242188 1179.489990234375,514.2000122070312 1149.4500732421875,601.5700073242188 1208.1500244140625,601.5700073242188 " class="cls-7"/>
    <rect id="svg_20" height="38.99" width="11.17" y="562.59" x="1084.86" class="cls-8"/>
    <path id="svg_21" d="m1113.21,543.6a22.83,22.83 0 1 1 -45.65,0c0,-0.25 0,-0.5 0,-0.75l0,0l4.36,-12.68l19.08,-55.42l18.47,56.3l0,0l3.73,11.36c0,0.4 0.01,0.79 0.01,1.19z" class="cls-5"/>
    <rect id="svg_22" height="56.9" width="12.03" y="516.78" x="1003.86" class="cls-8"/>
    <polygon id="svg_23" points="1011.1099853515625,458.7200012207031 1043.6900024414062,519.3699951171875 976.9600219726562,519.3699951171875 1011.1099853515625,458.7200012207031 " class="cls-10"/>
    <polygon id="svg_24" points="1010.2000122070312,410.2200012207031 1042.7899780273438,470.8800048828125 976.0599975585938,470.8800048828125 1010.2000122070312,410.2200012207031 " class="cls-10"/>
    <rect id="svg_25" height="34.03" width="7.19" y="186.74" x="347.71" class="cls-8"/>
    <polygon id="svg_26" points="352.03997802734375,152.00999450683594 371.5299987792969,188.27999877929688 331.6199951171875,188.27999877929688 352.03997802734375,152.00999450683594 " class="cls-10"/>
    <polygon id="svg_27" points="351.5,123 370.9900207519531,159.27999877929688 331.08001708984375,159.27999877929688 351.5,123 " class="cls-10"/>
    <path id="svg_28" d="m1097.48,514.46l0.28,-0.82c0,0.27 0,0.54 0,0.82l-0.28,0z" class="cls-5"/>
    <path id="svg_29" d="m931.44,407.25a7.82,7.82 0 0 1 1.06,0.71a9.73,9.73 0 0 1 0.89,0.78a13.61,13.61 0 0 1 1.49,1.67a16.3,16.3 0 0 1 3.11,7.82a13.83,13.83 0 0 1 0.07,2.24c0,0.39 -0.07,0.78 -0.13,1.18a7.89,7.89 0 0 1 -0.28,1.25a7.85,7.85 0 0 1 -1.06,-0.72a11.36,11.36 0 0 1 -0.9,-0.77a13.61,13.61 0 0 1 -1.49,-1.67a16.33,16.33 0 0 1 -2.06,-3.71a16.16,16.16 0 0 1 -1,-4.12a13.8,13.8 0 0 1 -0.07,-2.24c0,-0.38 0.06,-0.78 0.12,-1.18a8.74,8.74 0 0 1 0.25,-1.24z" class="cls-11"/>
    <path id="svg_30" d="m963.26,472.56a7.75,7.75 0 0 1 1.24,0.29c0.38,0.12 0.75,0.25 1.11,0.4a13.86,13.86 0 0 1 2,1a16.41,16.41 0 0 1 5.69,6.2a13.63,13.63 0 0 1 0.86,2.07c0.12,0.37 0.22,0.75 0.31,1.15a9.55,9.55 0 0 1 0.18,1.26a7.63,7.63 0 0 1 -1.25,-0.29a11.11,11.11 0 0 1 -1.11,-0.4a12.88,12.88 0 0 1 -2,-1a15.6,15.6 0 0 1 -3.25,-2.73a16,16 0 0 1 -2.44,-3.51a13.2,13.2 0 0 1 -0.85,-2.07a10,10 0 0 1 -0.31,-1.14a7.08,7.08 0 0 1 -0.18,-1.23z" class="cls-12"/>
    <path id="svg_31" d="m970,502.3a5.77,5.77 0 0 1 0.9,0.51a9.14,9.14 0 0 1 0.75,0.56a7.77,7.77 0 0 1 1.16,1.22a8.18,8.18 0 0 1 1.41,2.71a8.28,8.28 0 0 1 0.35,3a8.43,8.43 0 0 1 -0.3,1.66a6.62,6.62 0 0 1 -0.31,0.88a5.08,5.08 0 0 1 -0.47,0.93a6.41,6.41 0 0 1 -0.91,-0.51a8.94,8.94 0 0 1 -0.74,-0.56a8.35,8.35 0 0 1 -1.17,-1.22a8.15,8.15 0 0 1 -1.4,-2.71a8.28,8.28 0 0 1 -0.34,-3a7.76,7.76 0 0 1 0.3,-1.66a8.32,8.32 0 0 1 0.3,-0.88a6.77,6.77 0 0 1 0.47,-0.93z" class="cls-12"/>
    <path id="svg_32" d="m1006.32,534.76a6.16,6.16 0 0 1 0.19,1.14a9.81,9.81 0 0 1 0,1.07a10.32,10.32 0 0 1 -0.21,2a12.22,12.22 0 0 1 -3.48,6.41a11.23,11.23 0 0 1 -1.54,1.23c-0.29,0.19 -0.6,0.37 -0.92,0.54a7,7 0 0 1 -1.07,0.45a6.22,6.22 0 0 1 -0.2,-1.14a9.81,9.81 0 0 1 0,-1.07a11.22,11.22 0 0 1 0.2,-2a12.35,12.35 0 0 1 3.5,-6.4a10.8,10.8 0 0 1 1.55,-1.24a9.88,9.88 0 0 1 0.91,-0.53a7,7 0 0 1 1.07,-0.46z" class="cls-12"/>
    <path id="svg_33" d="m1072.14,491.31a7.14,7.14 0 0 1 -0.1,-1.18a9.72,9.72 0 0 1 0,-1.09a12.56,12.56 0 0 1 0.36,-2a13,13 0 0 1 4,-6.4a11.25,11.25 0 0 1 1.65,-1.2c0.31,-0.18 0.63,-0.35 1,-0.51a7.56,7.56 0 0 1 1.11,-0.41a7.1,7.1 0 0 1 0.11,1.18a9.78,9.78 0 0 1 0,1.09a10.82,10.82 0 0 1 -0.36,2a13,13 0 0 1 -1.53,3.49a13.34,13.34 0 0 1 -2.48,2.9a11.25,11.25 0 0 1 -1.65,1.2c-0.3,0.18 -0.63,0.35 -1,0.51a7.55,7.55 0 0 1 -1.11,0.42z" class="cls-12"/>
    <path id="svg_34" d="m1033,408a11.46,11.46 0 0 1 1,1.2c0.29,0.41 0.55,0.82 0.8,1.23a21.24,21.24 0 0 1 1.2,2.57a26.64,26.64 0 0 1 1.58,5.23a25.92,25.92 0 0 1 0.49,5.44a20.73,20.73 0 0 1 -0.23,2.81a14.62,14.62 0 0 1 -0.28,1.44a10.72,10.72 0 0 1 -0.45,1.47a11.51,11.51 0 0 1 -1,-1.19c-0.29,-0.41 -0.55,-0.82 -0.8,-1.23a21.24,21.24 0 0 1 -1.27,-2.52a26.14,26.14 0 0 1 -1.57,-5.23a26.6,26.6 0 0 1 -0.49,-5.44a22.64,22.64 0 0 1 0.23,-2.82c0.08,-0.47 0.17,-0.95 0.28,-1.44a11.16,11.16 0 0 1 0.51,-1.52z" class="cls-11"/>
    <path id="svg_35" d="m1076.15,418.63a11.05,11.05 0 0 1 0.3,-1.58c0.12,-0.51 0.26,-1 0.42,-1.48a24,24 0 0 1 1.12,-2.75a29.3,29.3 0 0 1 3,-4.93a29,29 0 0 1 3.89,-4.26a22.65,22.65 0 0 1 2.35,-1.83a15.14,15.14 0 0 1 1.3,-0.82a10.15,10.15 0 0 1 1.44,-0.71a11.32,11.32 0 0 1 -0.29,1.58c-0.12,0.51 -0.27,1 -0.42,1.48a24.71,24.71 0 0 1 -1.12,2.75a30.13,30.13 0 0 1 -6.93,9.18a24,24 0 0 1 -2.34,1.84a15.07,15.07 0 0 1 -1.3,0.81a11.37,11.37 0 0 1 -1.42,0.72z" class="cls-11"/>
    <path id="svg_36" d="m1130.73,355.91a8,8 0 0 1 -0.14,-1.23c0,-0.4 0,-0.78 0,-1.15a13.12,13.12 0 0 1 0.32,-2.14a14.73,14.73 0 0 1 1.48,-3.79a14.48,14.48 0 0 1 2.46,-3.26a12.61,12.61 0 0 1 1.65,-1.39a11.45,11.45 0 0 1 1,-0.61a7.88,7.88 0 0 1 1.13,-0.53a7.92,7.92 0 0 1 0.13,1.24a11,11 0 0 1 0,1.15a13.16,13.16 0 0 1 -0.32,2.13a14.39,14.39 0 0 1 -1.49,3.79a14.78,14.78 0 0 1 -2.46,3.26a13.25,13.25 0 0 1 -1.65,1.38c-0.31,0.22 -0.63,0.42 -1,0.62a9.7,9.7 0 0 1 -1.11,0.53z" class="cls-11"/>
    <path id="svg_37" d="m1191.38,336.64a8.6,8.6 0 0 1 1.12,0.71q0.51,0.38 1,0.78a13.68,13.68 0 0 1 1.63,1.7a17.9,17.9 0 0 1 3.76,8.08a16,16 0 0 1 0.25,2.34a10.41,10.41 0 0 1 0,1.24a7.76,7.76 0 0 1 -0.18,1.31a7.63,7.63 0 0 1 -1.12,-0.7a11,11 0 0 1 -1,-0.78a14.42,14.42 0 0 1 -1.63,-1.7a17.46,17.46 0 0 1 -2.38,-3.81a18.14,18.14 0 0 1 -1.37,-4.28a14.72,14.72 0 0 1 -0.24,-2.34c0,-0.4 0,-0.82 0,-1.24a7.9,7.9 0 0 1 0.16,-1.31z" class="cls-11"/>
    <path id="svg_38" d="m1185.69,390.44a10.45,10.45 0 0 1 -0.11,1.4c-0.06,0.45 -0.15,0.89 -0.24,1.31a18.62,18.62 0 0 1 -0.77,2.43a21.35,21.35 0 0 1 -2.32,4.29a20.72,20.72 0 0 1 -3.23,3.66a15.64,15.64 0 0 1 -2,1.55a12.89,12.89 0 0 1 -1.15,0.68a7.89,7.89 0 0 1 -1.28,0.58a9,9 0 0 1 0.1,-1.4c0.06,-0.46 0.15,-0.89 0.24,-1.31a16.81,16.81 0 0 1 0.77,-2.43a20.39,20.39 0 0 1 2.33,-4.29a21.09,21.09 0 0 1 3.24,-3.66a18.45,18.45 0 0 1 2,-1.55a12.89,12.89 0 0 1 1.15,-0.68a8.85,8.85 0 0 1 1.27,-0.58z" class="cls-11"/>
    <path id="svg_39" d="m1194,423.8a7.68,7.68 0 0 1 0.25,1.25c0.06,0.41 0.09,0.8 0.11,1.19a13.85,13.85 0 0 1 -0.11,2.25a16.58,16.58 0 0 1 -3.22,7.83a14.64,14.64 0 0 1 -1.52,1.66c-0.28,0.26 -0.59,0.52 -0.91,0.77a9.9,9.9 0 0 1 -1.07,0.7a7.75,7.75 0 0 1 -0.26,-1.25c-0.06,-0.41 -0.09,-0.8 -0.11,-1.19a13.87,13.87 0 0 1 0.1,-2.25a16.17,16.17 0 0 1 1.11,-4.12a16.35,16.35 0 0 1 2.13,-3.7a13.91,13.91 0 0 1 1.52,-1.67a9.89,9.89 0 0 1 0.91,-0.76a7.36,7.36 0 0 1 1.07,-0.71z" class="cls-11"/>
    <path id="svg_40" d="m1125.3,413.46a8,8 0 0 1 0.08,1.27a11.37,11.37 0 0 1 -0.06,1.18a13.82,13.82 0 0 1 -0.41,2.2a16.28,16.28 0 0 1 -1.65,3.9a15.7,15.7 0 0 1 -2.61,3.34a12.9,12.9 0 0 1 -1.73,1.43a10.84,10.84 0 0 1 -1,0.62a6.8,6.8 0 0 1 -1.15,0.54a8.07,8.07 0 0 1 -0.09,-1.27a11.56,11.56 0 0 1 0.06,-1.19a13.91,13.91 0 0 1 0.41,-2.19a16.29,16.29 0 0 1 4.27,-7.24a14.45,14.45 0 0 1 1.73,-1.43c0.32,-0.22 0.65,-0.42 1,-0.62a7.3,7.3 0 0 1 1.15,-0.54z" class="cls-11"/>
    <path id="svg_41" d="m1145.6,481.35a7.31,7.31 0 0 1 1.14,0.28c0.35,0.12 0.68,0.25 1,0.39a12.78,12.78 0 0 1 1.75,1a12.39,12.39 0 0 1 2.73,2.57a12.11,12.11 0 0 1 1.86,3.25a10.31,10.31 0 0 1 0.55,1.93a8.92,8.92 0 0 1 0.14,1.07a6.49,6.49 0 0 1 0,1.17a7,7 0 0 1 -1.14,-0.28c-0.35,-0.12 -0.69,-0.25 -1,-0.39a10.45,10.45 0 0 1 -1.74,-1a12.17,12.17 0 0 1 -2.73,-2.57a12.38,12.38 0 0 1 -1.86,-3.25a11.66,11.66 0 0 1 -0.55,-1.93c-0.06,-0.34 -0.11,-0.7 -0.14,-1.07a6.49,6.49 0 0 1 -0.01,-1.17z" class="cls-12"/>
    <path id="svg_42" d="m1158.92,511.22a6.35,6.35 0 0 1 -0.13,-1.18a10.23,10.23 0 0 1 0,-1.11a11.8,11.8 0 0 1 0.31,-2a13.14,13.14 0 0 1 1.46,-3.58a12.81,12.81 0 0 1 2.41,-3a11.55,11.55 0 0 1 1.63,-1.26a8.89,8.89 0 0 1 1,-0.55a7.55,7.55 0 0 1 1.11,-0.46a6.36,6.36 0 0 1 0.13,1.19a8.19,8.19 0 0 1 0,1.11a10.9,10.9 0 0 1 -0.31,2a12.84,12.84 0 0 1 -1.46,3.58a13.07,13.07 0 0 1 -2.42,3a11.61,11.61 0 0 1 -1.63,1.27a10.92,10.92 0 0 1 -1,0.54a7.42,7.42 0 0 1 -1.1,0.45z" class="cls-12"/>
    <path id="svg_43" d="m1119.61,523.25a6.44,6.44 0 0 1 1,0.49a7.48,7.48 0 0 1 0.86,0.56a9.85,9.85 0 0 1 1.44,1.26a11.35,11.35 0 0 1 3,6.33a10,10 0 0 1 0.05,1.91a7.84,7.84 0 0 1 -0.13,1a6,6 0 0 1 -0.28,1.09a7.44,7.44 0 0 1 -1,-0.48a9.28,9.28 0 0 1 -0.87,-0.56a9.85,9.85 0 0 1 -1.44,-1.26a11.31,11.31 0 0 1 -3,-6.34a10,10 0 0 1 -0.06,-1.91c0,-0.33 0.07,-0.67 0.13,-1a6.35,6.35 0 0 1 0.3,-1.09z" class="cls-12"/>
    <path id="svg_44" d="m1164,519a6,6 0 0 1 0.23,1.1a9.11,9.11 0 0 1 0.08,1a10.3,10.3 0 0 1 -0.13,1.87a10.8,10.8 0 0 1 -1.13,3.31a10.67,10.67 0 0 1 -2.1,2.78a11,11 0 0 1 -1.48,1.16c-0.28,0.17 -0.58,0.34 -0.89,0.5a7.76,7.76 0 0 1 -1,0.42a7.06,7.06 0 0 1 -0.24,-1.1c0,-0.35 -0.07,-0.69 -0.08,-1a9.56,9.56 0 0 1 0.14,-1.88a10.43,10.43 0 0 1 1.13,-3.29a10.56,10.56 0 0 1 2.1,-2.78a9.24,9.24 0 0 1 1.49,-1.16a6.87,6.87 0 0 1 0.89,-0.5a6.13,6.13 0 0 1 0.99,-0.43z" class="cls-12"/>
    <path id="svg_45" d="m1162.78,583.11a32.75,32.75 0 0 0 1,3.37a42.12,42.12 0 0 0 6.46,12a31.35,31.35 0 0 0 2.29,2.64a5.66,5.66 0 0 0 0.42,0.43l2.05,0c-0.08,-0.56 -0.19,-1.1 -0.3,-1.63a33.48,33.48 0 0 0 -1,-3.37a40.33,40.33 0 0 0 -2.74,-6.27a41.85,41.85 0 0 0 -3.73,-5.75a33.41,33.41 0 0 0 -2.29,-2.65c-0.41,-0.42 -0.84,-0.84 -1.29,-1.24a15.2,15.2 0 0 0 -1.44,-1.16a15.71,15.71 0 0 0 0.18,1.84c0.15,0.68 0.27,1.21 0.39,1.79z" class="cls-12"/>
    <path id="svg_46" d="m1180,589.33a6.5,6.5 0 0 1 0.1,1a8.84,8.84 0 0 1 0,0.91a7.36,7.36 0 0 1 -0.32,1.63a8.12,8.12 0 0 1 -3.68,4.59a7.52,7.52 0 0 1 -1.52,0.67a7.71,7.71 0 0 1 -0.89,0.23a5.16,5.16 0 0 1 -1,0.13a5.59,5.59 0 0 1 -0.1,-1a6.9,6.9 0 0 1 0,-0.92a7.38,7.38 0 0 1 0.32,-1.62a8.19,8.19 0 0 1 3.69,-4.59a8.12,8.12 0 0 1 1.52,-0.67a7.71,7.71 0 0 1 0.89,-0.23a7.26,7.26 0 0 1 0.99,-0.13z" class="cls-12"/>
    <path id="svg_47" d="m1231.86,571a6.4,6.4 0 0 1 -0.21,-1.06a8.31,8.31 0 0 1 -0.06,-1a9.35,9.35 0 0 1 0.17,-1.78a9.58,9.58 0 0 1 1.17,-3.06a9.47,9.47 0 0 1 2.12,-2.5a8.91,8.91 0 0 1 1.48,-1a7.28,7.28 0 0 1 0.89,-0.41a5.66,5.66 0 0 1 1,-0.33a6.4,6.4 0 0 1 0.21,1.06a8.31,8.31 0 0 1 0.06,1a9.41,9.41 0 0 1 -1.34,4.84a9.47,9.47 0 0 1 -2.13,2.49a9,9 0 0 1 -1.48,1c-0.28,0.14 -0.57,0.28 -0.88,0.41a6.92,6.92 0 0 1 -1,0.34z" class="cls-12"/>
    <path id="svg_48" d="m1211.68,509.54a8.6,8.6 0 0 1 -1.23,-0.71a13.27,13.27 0 0 1 -1.09,-0.79a17.63,17.63 0 0 1 -1.89,-1.75a22.19,22.19 0 0 1 -4.92,-8.53a17.1,17.1 0 0 1 -0.57,-2.52c-0.06,-0.44 -0.11,-0.88 -0.14,-1.34a11.42,11.42 0 0 1 0,-1.43a9.15,9.15 0 0 1 1.24,0.71a13.27,13.27 0 0 1 1.09,0.79a18.76,18.76 0 0 1 1.9,1.75a21.39,21.39 0 0 1 2.93,4a21.65,21.65 0 0 1 2,4.54a17.1,17.1 0 0 1 0.57,2.52c0.06,0.43 0.12,0.88 0.14,1.34a8.44,8.44 0 0 1 -0.03,1.42z" class="cls-12"/>
    <path id="svg_49" d="m949.23,601.58l161.91,0c-0.55,-5.4 -3.71,-9.95 -8.22,-11.73a13.51,13.51 0 0 0 -10.34,0.52a17.52,17.52 0 0 0 -7.89,-16.68c-7.62,-4.71 -15.83,-0.89 -17.59,0c-7.84,4 -10,11.79 -10.35,13.06a34,34 0 0 0 -19.65,-12.42a32.15,32.15 0 0 0 -13.06,0.13c0.42,-3.61 1.11,-13.71 -5.18,-22.76c-8.64,-12.43 -24.79,-14.71 -34.27,-13.06c-19.53,3.41 -36.31,28 -35.82,60.65c0.15,0.76 0.31,1.52 0.46,2.29z" class="cls-7"/>
    <g id="svg_50" class="cls-13">
     <polygon id="svg_51" points="967.5800170898438,601.5700073242188 967.5800170898438,600.1300048828125 805.3499755859375,590.6099853515625 804.8400268554688,599.2699584960938 804.8400268554688,601.5700073242188 967.5800170898438,601.5700073242188 " class="cls-7"/>
     <polygon id="svg_52" points="805.3499755859375,590.6099853515625 805.4199829101562,589.4400024414062 967.5800170898438,598.9600219726562 967.5800170898438,600.1300048828125 805.3499755859375,590.6099853515625 " class="cls-7"/>
     <polygon id="svg_53" points="805.4199829101562,589.4400024414062 805.489990234375,588.2799682617188 967.5800170898438,597.7999877929688 967.5800170898438,598.9600219726562 805.4199829101562,589.4400024414062 " class="cls-14"/>
     <polygon id="svg_54" points="805.489990234375,588.2799682617188 805.5499877929688,587.1199951171875 967.5800170898438,596.6300048828125 967.5800170898438,597.7999877929688 805.489990234375,588.2799682617188 " class="cls-14"/>
     <polygon id="svg_55" points="805.5499877929688,587.1199951171875 805.6199951171875,585.9500122070312 967.5800170898438,595.4600219726562 967.5800170898438,596.6300048828125 805.5499877929688,587.1199951171875 " class="cls-15"/>
     <polygon id="svg_56" points="805.6199951171875,585.9500122070312 805.6900024414062,584.7899780273438 967.5800170898438,594.2900390625 967.5800170898438,595.4600219726562 805.6199951171875,585.9500122070312 " class="cls-16"/>
     <polygon id="svg_57" points="805.6900024414062,584.7899780273438 805.760009765625,583.6300048828125 967.5800170898438,593.1300048828125 967.5800170898438,594.2900390625 805.6900024414062,584.7899780273438 " class="cls-17"/>
     <polygon id="svg_58" points="805.760009765625,583.6300048828125 805.8300170898438,582.4600219726562 967.5800170898438,591.9600219726562 967.5800170898438,593.1300048828125 805.760009765625,583.6300048828125 " class="cls-18"/>
     <polygon id="svg_59" points="805.8300170898438,582.4600219726562 805.9000244140625,581.2999877929688 967.5800170898438,590.7899780273438 967.5800170898438,591.9600219726562 805.8300170898438,582.4600219726562 " class="cls-18"/>
     <polygon id="svg_60" points="805.9000244140625,581.2999877929688 805.969970703125,580.1400146484375 967.5800170898438,589.6199951171875 967.5800170898438,590.7899780273438 805.9000244140625,581.2999877929688 " class="cls-19"/>
     <polygon id="svg_61" points="805.969970703125,580.1400146484375 806.030029296875,578.969970703125 967.5800170898438,588.4600219726562 967.5800170898438,589.6199951171875 805.969970703125,580.1400146484375 " class="cls-20"/>
     <polygon id="svg_62" points="806.030029296875,578.969970703125 806.0999755859375,577.8099975585938 967.5800170898438,587.2900390625 967.5800170898438,588.4600219726562 806.030029296875,578.969970703125 " class="cls-21"/>
     <polygon id="svg_63" points="806.0999755859375,577.8099975585938 806.1699829101562,576.6500244140625 967.5800170898438,586.1199951171875 967.5800170898438,587.2900390625 806.0999755859375,577.8099975585938 " class="cls-22"/>
     <polygon id="svg_64" points="806.1699829101562,576.6500244140625 806.239990234375,575.4800415039062 967.5800170898438,584.9500122070312 967.5800170898438,586.1199951171875 806.1699829101562,576.6500244140625 " class="cls-23"/>
     <polygon id="svg_65" points="806.239990234375,575.4800415039062 806.3099975585938,574.3200073242188 967.5800170898438,583.7899780273438 967.5800170898438,584.9500122070312 806.239990234375,575.4800415039062 " class="cls-24"/>
     <polygon id="svg_66" points="806.3099975585938,574.3200073242188 806.3800048828125,573.1599731445312 967.5800170898438,582.6199951171875 967.5800170898438,583.7899780273438 806.3099975585938,574.3200073242188 " class="cls-24"/>
     <polygon id="svg_67" points="806.3800048828125,573.1599731445312 806.4400024414062,571.989990234375 967.5800170898438,581.4500122070312 967.5800170898438,582.6199951171875 806.3800048828125,573.1599731445312 " class="cls-25"/>
     <polygon id="svg_68" points="806.4400024414062,571.989990234375 806.510009765625,570.8299560546875 967.5800170898438,580.2900390625 967.5800170898438,581.4500122070312 806.4400024414062,571.989990234375 " class="cls-26"/>
     <polygon id="svg_69" points="806.510009765625,570.8299560546875 806.5800170898438,569.6700439453125 967.5800170898438,579.1199951171875 967.5800170898438,580.2900390625 806.510009765625,570.8299560546875 " class="cls-27"/>
     <polygon id="svg_70" points="806.5800170898438,569.6700439453125 806.6500244140625,568.5 967.5800170898438,577.9500122070312 967.5800170898438,579.1199951171875 806.5800170898438,569.6700439453125 " class="cls-28"/>
     <polygon id="svg_71" points="806.6500244140625,568.5 806.719970703125,567.3399658203125 967.5800170898438,576.7799682617188 967.5800170898438,577.9500122070312 806.6500244140625,568.5 " class="cls-29"/>
     <polygon id="svg_72" points="806.719970703125,567.3399658203125 806.780029296875,566.1799926757812 967.5800170898438,575.6199951171875 967.5800170898438,576.7799682617188 806.719970703125,567.3399658203125 " class="cls-30"/>
     <polygon id="svg_73" points="806.780029296875,566.1799926757812 806.8499755859375,565.010009765625 967.5800170898438,574.4500122070312 967.5800170898438,575.6199951171875 806.780029296875,566.1799926757812 " class="cls-31"/>
     <polygon id="svg_74" points="806.8499755859375,565.010009765625 806.9199829101562,563.8500366210938 967.5800170898438,573.2799682617188 967.5800170898438,574.4500122070312 806.8499755859375,565.010009765625 " class="cls-32"/>
     <polygon id="svg_75" points="806.9199829101562,563.8500366210938 806.989990234375,562.6900024414062 967.5800170898438,572.1099853515625 967.5800170898438,573.2799682617188 806.9199829101562,563.8500366210938 " class="cls-32"/>
     <polygon id="svg_76" points="806.989990234375,562.6900024414062 807.0599975585938,561.5199584960938 967.5800170898438,570.9500122070312 967.5800170898438,572.1099853515625 806.989990234375,562.6900024414062 " class="cls-33"/>
     <polygon id="svg_77" points="807.0599975585938,561.5199584960938 807.1300048828125,560.3599853515625 967.5800170898438,569.7799682617188 967.5800170898438,570.9500122070312 807.0599975585938,561.5199584960938 " class="cls-34"/>
     <polygon id="svg_78" points="807.1300048828125,560.3599853515625 807.1900024414062,559.2000122070312 967.5800170898438,568.6099853515625 967.5800170898438,569.7799682617188 807.1300048828125,560.3599853515625 " class="cls-35"/>
     <polygon id="svg_79" points="807.1900024414062,559.2000122070312 807.260009765625,558.030029296875 967.5800170898438,567.4400024414062 967.5800170898438,568.6099853515625 807.1900024414062,559.2000122070312 " class="cls-36"/>
     <polygon id="svg_80" points="807.260009765625,558.030029296875 807.3300170898438,556.8699951171875 967.5800170898438,566.2799682617188 967.5800170898438,567.4400024414062 807.260009765625,558.030029296875 " class="cls-37"/>
     <polygon id="svg_81" points="807.3300170898438,556.8699951171875 807.4000244140625,555.7099609375 967.5800170898438,565.1099853515625 967.5800170898438,566.2799682617188 807.3300170898438,556.8699951171875 " class="cls-38"/>
     <polygon id="svg_82" points="807.4000244140625,555.7099609375 807.469970703125,554.5400390625 967.5800170898438,563.9400024414062 967.5800170898438,565.1099853515625 807.4000244140625,555.7099609375 " class="cls-39"/>
     <polygon id="svg_83" points="807.469970703125,554.5400390625 807.5399780273438,553.3800048828125 967.5800170898438,562.7699584960938 967.5800170898438,563.9400024414062 807.469970703125,554.5400390625 " class="cls-40"/>
     <polygon id="svg_84" points="807.5399780273438,553.3800048828125 807.5999755859375,552.2099609375 967.5800170898438,561.6099853515625 967.5800170898438,562.7699584960938 807.5399780273438,553.3800048828125 " class="cls-41"/>
     <polygon id="svg_85" points="807.5999755859375,552.2099609375 807.6699829101562,551.0499877929688 967.5800170898438,560.4400024414062 967.5800170898438,561.6099853515625 807.5999755859375,552.2099609375 " class="cls-42"/>
     <polygon id="svg_86" points="807.6699829101562,551.0499877929688 807.739990234375,549.8900146484375 967.5800170898438,559.2699584960938 967.5800170898438,560.4400024414062 807.6699829101562,551.0499877929688 " class="cls-43"/>
     <polygon id="svg_87" points="807.739990234375,549.8900146484375 807.8099975585938,548.72998046875 967.5800170898438,558.0999755859375 967.5800170898438,559.2699584960938 807.739990234375,549.8900146484375 " class="cls-44"/>
     <polygon id="svg_88" points="807.8099975585938,548.72998046875 807.8800048828125,547.5599975585938 967.5800170898438,556.9400024414062 967.5800170898438,558.0999755859375 807.8099975585938,548.72998046875 " class="cls-45"/>
     <polygon id="svg_89" points="807.8800048828125,547.5599975585938 807.9500122070312,546.4000244140625 967.5800170898438,555.7699584960938 967.5800170898438,556.9400024414062 807.8800048828125,547.5599975585938 " class="cls-46"/>
     <polygon id="svg_90" points="807.9500122070312,546.4000244140625 808.010009765625,545.239990234375 967.5800170898438,554.6000366210938 967.5800170898438,555.7699584960938 807.9500122070312,546.4000244140625 " class="cls-47"/>
     <polygon id="svg_91" points="808.010009765625,545.239990234375 808.0800170898438,544.0700073242188 967.5800170898438,553.4400024414062 967.5800170898438,554.6000366210938 808.010009765625,545.239990234375 " class="cls-48"/>
     <polygon id="svg_92" points="808.0800170898438,544.0700073242188 808.1500244140625,542.9100341796875 967.5800170898438,552.2699584960938 967.5800170898438,553.4400024414062 808.0800170898438,544.0700073242188 " class="cls-49"/>
     <polygon id="svg_93" points="808.1500244140625,542.9100341796875 808.219970703125,541.75 967.5800170898438,551.0999755859375 967.5800170898438,552.2699584960938 808.1500244140625,542.9100341796875 " class="cls-49"/>
     <polygon id="svg_94" points="808.219970703125,541.75 808.2899780273438,540.5799560546875 967.5800170898438,549.9299926757812 967.5800170898438,551.0999755859375 808.219970703125,541.75 " class="cls-50"/>
     <polygon id="svg_95" points="808.2899780273438,540.5799560546875 808.3599853515625,539.4200439453125 967.5800170898438,548.760009765625 967.5800170898438,549.9299926757812 808.2899780273438,540.5799560546875 " class="cls-51"/>
     <polygon id="svg_96" points="808.3599853515625,539.4200439453125 808.4199829101562,538.25 967.5800170898438,547.6000366210938 967.5800170898438,548.760009765625 808.3599853515625,539.4200439453125 " class="cls-52"/>
     <polygon id="svg_97" points="808.4199829101562,538.25 808.489990234375,537.0900268554688 967.5800170898438,546.4299926757812 967.5800170898438,547.6000366210938 808.4199829101562,538.25 " class="cls-53"/>
     <polygon id="svg_98" points="808.489990234375,537.0900268554688 808.5599975585938,535.9299926757812 967.5800170898438,545.260009765625 967.5800170898438,546.4299926757812 808.489990234375,537.0900268554688 " class="cls-54"/>
     <polygon id="svg_99" points="808.5599975585938,535.9299926757812 808.6300048828125,534.760009765625 967.5800170898438,544.0999755859375 967.5800170898438,545.260009765625 808.5599975585938,535.9299926757812 " class="cls-55"/>
     <polygon id="svg_100" points="808.6300048828125,534.760009765625 808.7000122070312,533.6000366210938 967.5800170898438,542.9299926757812 967.5800170898438,544.0999755859375 808.6300048828125,534.760009765625 " class="cls-56"/>
     <polygon id="svg_101" points="808.7000122070312,533.6000366210938 808.760009765625,532.4400024414062 967.5800170898438,541.760009765625 967.5800170898438,542.9299926757812 808.7000122070312,533.6000366210938 " class="cls-57"/>
     <polygon id="svg_102" points="808.760009765625,532.4400024414062 808.8300170898438,531.2699584960938 967.5800170898438,540.5899658203125 967.5800170898438,541.760009765625 808.760009765625,532.4400024414062 " class="cls-58"/>
     <polygon id="svg_103" points="808.8300170898438,531.2699584960938 808.9000244140625,530.1099853515625 967.5800170898438,539.4299926757812 967.5800170898438,540.5899658203125 808.8300170898438,531.2699584960938 " class="cls-59"/>
     <polygon id="svg_104" points="808.9000244140625,530.1099853515625 808.969970703125,528.9500122070312 967.5800170898438,538.260009765625 967.5800170898438,539.4299926757812 808.9000244140625,530.1099853515625 " class="cls-60"/>
     <polygon id="svg_105" points="808.969970703125,528.9500122070312 809.0399780273438,527.7799682617188 967.5800170898438,537.0900268554688 967.5800170898438,538.260009765625 808.969970703125,528.9500122070312 " class="cls-61"/>
     <polygon id="svg_106" points="809.0399780273438,527.7799682617188 809.1099853515625,526.6199951171875 967.5800170898438,535.9200439453125 967.5800170898438,537.0900268554688 809.0399780273438,527.7799682617188 " class="cls-62"/>
     <polygon id="svg_107" points="809.1099853515625,526.6199951171875 809.1699829101562,525.4600219726562 967.5800170898438,534.760009765625 967.5800170898438,535.9200439453125 809.1099853515625,526.6199951171875 " class="cls-63"/>
     <polygon id="svg_108" points="809.1699829101562,525.4600219726562 809.239990234375,524.2900390625 967.5800170898438,533.5899658203125 967.5800170898438,534.760009765625 809.1699829101562,525.4600219726562 " class="cls-64"/>
     <polygon id="svg_109" points="809.239990234375,524.2900390625 809.3099975585938,523.1300048828125 967.5800170898438,532.4200439453125 967.5800170898438,533.5899658203125 809.239990234375,524.2900390625 " class="cls-65"/>
     <polygon id="svg_110" points="809.3099975585938,523.1300048828125 809.3800048828125,521.969970703125 967.5800170898438,531.25 967.5800170898438,532.4200439453125 809.3099975585938,523.1300048828125 " class="cls-66"/>
     <polygon id="svg_111" points="809.3800048828125,521.969970703125 809.4500122070312,520.7999877929688 967.5800170898438,530.0900268554688 967.5800170898438,531.25 809.3800048828125,521.969970703125 " class="cls-67"/>
     <polygon id="svg_112" points="809.4500122070312,520.7999877929688 809.52001953125,519.6400146484375 967.5800170898438,528.9200439453125 967.5800170898438,530.0900268554688 809.4500122070312,520.7999877929688 " class="cls-68"/>
     <polygon id="svg_113" points="809.52001953125,519.6400146484375 809.5900268554688,518.4800415039062 967.5800170898438,527.75 967.5800170898438,528.9200439453125 809.52001953125,519.6400146484375 " class="cls-69"/>
     <polygon id="svg_114" points="809.5900268554688,518.4800415039062 809.6500244140625,517.3099975585938 967.5800170898438,526.5799560546875 967.5800170898438,527.75 809.5900268554688,518.4800415039062 " class="cls-70"/>
     <polygon id="svg_115" points="809.6500244140625,517.3099975585938 809.719970703125,516.1500244140625 967.5800170898438,525.4200439453125 967.5800170898438,526.5799560546875 809.6500244140625,517.3099975585938 " class="cls-71"/>
     <polygon id="svg_116" points="809.719970703125,516.1500244140625 809.7899780273438,514.989990234375 967.5800170898438,524.25 967.5800170898438,525.4200439453125 809.719970703125,516.1500244140625 " class="cls-72"/>
     <polygon id="svg_117" points="809.7899780273438,514.989990234375 809.8599853515625,513.8200073242188 967.5800170898438,523.0799560546875 967.5800170898438,524.25 809.7899780273438,514.989990234375 " class="cls-73"/>
     <polygon id="svg_118" points="809.8599853515625,513.8200073242188 809.9299926757812,512.6600341796875 967.5800170898438,521.9200439453125 967.5800170898438,523.0799560546875 809.8599853515625,513.8200073242188 " class="cls-74"/>
     <polygon id="svg_119" points="809.9299926757812,512.6600341796875 809.989990234375,511.5 967.5800170898438,520.75 967.5800170898438,521.9200439453125 809.9299926757812,512.6600341796875 " class="cls-75"/>
     <polygon id="svg_120" points="809.989990234375,511.5 810.0599975585938,510.3299865722656 967.5800170898438,519.5799560546875 967.5800170898438,520.75 809.989990234375,511.5 " class="cls-76"/>
     <polygon id="svg_121" points="810.0599975585938,510.3299865722656 810.1300048828125,509.1700134277344 967.5800170898438,518.4100341796875 967.5800170898438,519.5799560546875 810.0599975585938,510.3299865722656 " class="cls-77"/>
     <polygon id="svg_122" points="810.1300048828125,509.1700134277344 810.2000122070312,508.010009765625 967.5800170898438,517.25 967.5800170898438,518.4100341796875 810.1300048828125,509.1700134277344 " class="cls-78"/>
     <polygon id="svg_123" points="810.2000122070312,508.010009765625 810.27001953125,506.8399963378906 967.5800170898438,516.0799560546875 967.5800170898438,517.25 810.2000122070312,508.010009765625 " class="cls-79"/>
     <polygon id="svg_124" points="810.27001953125,506.8399963378906 810.3400268554688,505.67999267578125 967.5800170898438,514.9100341796875 967.5800170898438,516.0799560546875 810.27001953125,506.8399963378906 " class="cls-80"/>
     <polygon id="svg_125" points="810.3400268554688,505.67999267578125 810.4000244140625,504.5199890136719 967.5800170898438,513.739990234375 967.5800170898438,514.9100341796875 810.3400268554688,505.67999267578125 " class="cls-81"/>
     <polygon id="svg_126" points="810.4000244140625,504.5199890136719 810.469970703125,503.3500061035156 967.5800170898438,512.5799560546875 967.5800170898438,513.739990234375 810.4000244140625,504.5199890136719 " class="cls-82"/>
     <polygon id="svg_127" points="810.469970703125,503.3500061035156 810.5399780273438,502.19000244140625 967.5800170898438,511.4100341796875 967.5800170898438,512.5799560546875 810.469970703125,503.3500061035156 " class="cls-83"/>
     <polygon id="svg_128" points="810.5399780273438,502.19000244140625 810.6099853515625,501.0299987792969 967.5800170898438,510.239990234375 967.5800170898438,511.4100341796875 810.5399780273438,502.19000244140625 " class="cls-84"/>
     <polygon id="svg_129" points="810.6099853515625,501.0299987792969 810.6799926757812,499.8599853515625 967.5800170898438,509.07000732421875 967.5800170898438,510.239990234375 810.6099853515625,501.0299987792969 " class="cls-85"/>
     <polygon id="svg_130" points="810.6799926757812,499.8599853515625 810.75,498.70001220703125 967.5800170898438,507.9100036621094 967.5800170898438,509.07000732421875 810.6799926757812,499.8599853515625 " class="cls-86"/>
     <polygon id="svg_131" points="810.75,498.70001220703125 810.8099975585938,497.5400085449219 967.5800170898438,506.739990234375 967.5800170898438,507.9100036621094 810.75,498.70001220703125 " class="cls-87"/>
     <polygon id="svg_132" points="810.8099975585938,497.5400085449219 810.8800048828125,496.3699951171875 967.5800170898438,505.57000732421875 967.5800170898438,506.739990234375 810.8099975585938,497.5400085449219 " class="cls-88"/>
     <polygon id="svg_133" points="810.8800048828125,496.3699951171875 810.9500122070312,495.2099914550781 967.5800170898438,504.3999938964844 967.5800170898438,505.57000732421875 810.8800048828125,496.3699951171875 " class="cls-89"/>
     <polygon id="svg_134" points="810.9500122070312,495.2099914550781 811.02001953125,494.04998779296875 967.5800170898438,503.239990234375 967.5800170898438,504.3999938964844 810.9500122070312,495.2099914550781 " class="cls-90"/>
     <polygon id="svg_135" points="811.02001953125,494.04998779296875 811.0900268554688,492.8800048828125 967.5800170898438,502.07000732421875 967.5800170898438,503.239990234375 811.02001953125,494.04998779296875 " class="cls-91"/>
     <polygon id="svg_136" points="811.0900268554688,492.8800048828125 811.1500244140625,491.7200012207031 967.5800170898438,500.8999938964844 967.5800170898438,502.07000732421875 811.0900268554688,492.8800048828125 " class="cls-92"/>
     <polygon id="svg_137" points="811.1500244140625,491.7200012207031 811.219970703125,490.55999755859375 967.5800170898438,499.739990234375 967.5800170898438,500.8999938964844 811.1500244140625,491.7200012207031 " class="cls-93"/>
     <polygon id="svg_138" points="811.219970703125,490.55999755859375 811.2899780273438,489.3900146484375 967.5800170898438,498.57000732421875 967.5800170898438,499.739990234375 811.219970703125,490.55999755859375 " class="cls-94"/>
     <polygon id="svg_139" points="811.2899780273438,489.3900146484375 811.3599853515625,488.2300109863281 967.5800170898438,497.3999938964844 967.5800170898438,498.57000732421875 811.2899780273438,489.3900146484375 " class="cls-95"/>
     <polygon id="svg_140" points="811.3599853515625,488.2300109863281 811.4299926757812,487.07000732421875 967.5800170898438,496.2300109863281 967.5800170898438,497.3999938964844 811.3599853515625,488.2300109863281 " class="cls-96"/>
     <polygon id="svg_141" points="811.4299926757812,487.07000732421875 811.5,485.8999938964844 967.5800170898438,495.05999755859375 967.5800170898438,496.2300109863281 811.4299926757812,487.07000732421875 " class="cls-97"/>
     <polygon id="svg_142" points="811.5,485.8999938964844 811.5700073242188,484.739990234375 967.5800170898438,493.8999938964844 967.5800170898438,495.05999755859375 811.5,485.8999938964844 " class="cls-98"/>
     <polygon id="svg_143" points="811.5700073242188,484.739990234375 811.6300048828125,483.5799865722656 967.5800170898438,492.7300109863281 967.5800170898438,493.8999938964844 811.5700073242188,484.739990234375 " class="cls-99"/>
     <polygon id="svg_144" points="811.6300048828125,483.5799865722656 811.7000122070312,482.4100036621094 967.5800170898438,491.55999755859375 967.5800170898438,492.7300109863281 811.6300048828125,483.5799865722656 " class="cls-100"/>
     <polygon id="svg_145" points="811.7000122070312,482.4100036621094 811.77001953125,481.25 967.5800170898438,490.3999938964844 967.5800170898438,491.55999755859375 811.7000122070312,482.4100036621094 " class="cls-101"/>
     <polygon id="svg_146" points="811.77001953125,481.25 811.8400268554688,480.0899963378906 967.5800170898438,489.2300109863281 967.5800170898438,490.3999938964844 811.77001953125,481.25 " class="cls-102"/>
     <polygon id="svg_147" points="811.8400268554688,480.0899963378906 811.9099731445312,478.9200134277344 967.5800170898438,488.05999755859375 967.5800170898438,489.2300109863281 811.8400268554688,480.0899963378906 " class="cls-103"/>
     <polygon id="svg_148" points="811.9099731445312,478.9200134277344 811.97998046875,477.760009765625 967.5800170898438,486.8900146484375 967.5800170898438,488.05999755859375 811.9099731445312,478.9200134277344 " class="cls-104"/>
     <polygon id="svg_149" points="811.97998046875,477.760009765625 812.0399780273438,476.6000061035156 967.5800170898438,485.7300109863281 967.5800170898438,486.8900146484375 811.97998046875,477.760009765625 " class="cls-105"/>
     <polygon id="svg_150" points="812.0399780273438,476.6000061035156 812.1099853515625,475.42999267578125 967.5800170898438,484.55999755859375 967.5800170898438,485.7300109863281 812.0399780273438,476.6000061035156 " class="cls-106"/>
     <polygon id="svg_151" points="812.1099853515625,475.42999267578125 812.1799926757812,474.2699890136719 967.5800170898438,483.3900146484375 967.5800170898438,484.55999755859375 812.1099853515625,475.42999267578125 " class="cls-107"/>
     <polygon id="svg_152" points="812.1799926757812,474.2699890136719 812.25,473.1099853515625 967.5800170898438,482.2200012207031 967.5800170898438,483.3900146484375 812.1799926757812,474.2699890136719 " class="cls-108"/>
     <polygon id="svg_153" points="812.25,473.1099853515625 812.3200073242188,471.94000244140625 967.5800170898438,481.05999755859375 967.5800170898438,482.2200012207031 812.25,473.1099853515625 " class="cls-109"/>
     <polygon id="svg_154" points="812.3200073242188,471.94000244140625 812.3800048828125,470.7799987792969 967.5800170898438,479.8900146484375 967.5800170898438,481.05999755859375 812.3200073242188,471.94000244140625 " class="cls-110"/>
     <polygon id="svg_155" points="812.3800048828125,470.7799987792969 812.4500122070312,469.6199951171875 967.5800170898438,478.7200012207031 967.5800170898438,479.8900146484375 812.3800048828125,470.7799987792969 " class="cls-111"/>
     <polygon id="svg_156" points="812.4500122070312,469.6199951171875 812.52001953125,468.45001220703125 967.5800170898438,477.55999755859375 967.5800170898438,478.7200012207031 812.4500122070312,469.6199951171875 " class="cls-112"/>
     <polygon id="svg_157" points="812.52001953125,468.45001220703125 812.5900268554688,467.2900085449219 967.5800170898438,476.3900146484375 967.5800170898438,477.55999755859375 812.52001953125,468.45001220703125 " class="cls-113"/>
     <polygon id="svg_158" points="812.5900268554688,467.2900085449219 812.6599731445312,466.1300048828125 967.5800170898438,475.2200012207031 967.5800170898438,476.3900146484375 812.5900268554688,467.2900085449219 " class="cls-114"/>
     <polygon id="svg_159" points="812.6599731445312,466.1300048828125 812.72998046875,464.9599914550781 967.5800170898438,474.04998779296875 967.5800170898438,475.2200012207031 812.6599731445312,466.1300048828125 " class="cls-115"/>
     <polygon id="svg_160" points="812.72998046875,464.9599914550781 812.7899780273438,463.79998779296875 967.5800170898438,472.8800048828125 967.5800170898438,474.04998779296875 812.72998046875,464.9599914550781 " class="cls-116"/>
     <polygon id="svg_161" points="812.7899780273438,463.79998779296875 812.8599853515625,462.6300048828125 967.5800170898438,471.7200012207031 967.5800170898438,472.8800048828125 812.7899780273438,463.79998779296875 " class="cls-117"/>
     <polygon id="svg_162" points="812.8599853515625,462.6300048828125 812.9299926757812,461.4700012207031 967.5800170898438,470.54998779296875 967.5800170898438,471.7200012207031 812.8599853515625,462.6300048828125 " class="cls-118"/>
     <polygon id="svg_163" points="812.9299926757812,461.4700012207031 813,460.30999755859375 967.5800170898438,469.3800048828125 967.5800170898438,470.54998779296875 812.9299926757812,461.4700012207031 " class="cls-119"/>
     <polygon id="svg_164" points="813,460.30999755859375 813.0700073242188,459.1400146484375 967.5800170898438,468.2099914550781 967.5800170898438,469.3800048828125 813,460.30999755859375 " class="cls-120"/>
     <polygon id="svg_165" points="813.0700073242188,459.1400146484375 813.1400146484375,457.9800109863281 967.5800170898438,467.04998779296875 967.5800170898438,468.2099914550781 813.0700073242188,459.1400146484375 " class="cls-121"/>
     <polygon id="svg_166" points="813.1400146484375,457.9800109863281 813.2000122070312,456.82000732421875 967.5800170898438,465.8800048828125 967.5800170898438,467.04998779296875 813.1400146484375,457.9800109863281 " class="cls-122"/>
     <polygon id="svg_167" points="813.2000122070312,456.82000732421875 813.27001953125,455.6499938964844 967.5800170898438,464.7099914550781 967.5800170898438,465.8800048828125 813.2000122070312,456.82000732421875 " class="cls-123"/>
     <polygon id="svg_168" points="813.27001953125,455.6499938964844 813.3400268554688,454.489990234375 967.5800170898438,463.54998779296875 967.5800170898438,464.7099914550781 813.27001953125,455.6499938964844 " class="cls-124"/>
     <polygon id="svg_169" points="813.3400268554688,454.489990234375 813.4099731445312,453.3299865722656 967.5800170898438,462.3800048828125 967.5800170898438,463.54998779296875 813.3400268554688,454.489990234375 " class="cls-125"/>
     <polygon id="svg_170" points="813.4099731445312,453.3299865722656 813.47998046875,452.1700134277344 967.5800170898438,461.2099914550781 967.5800170898438,462.3800048828125 813.4099731445312,453.3299865722656 " class="cls-126"/>
     <polygon id="svg_171" points="813.47998046875,452.1700134277344 813.5499877929688,451 967.5800170898438,460.0400085449219 967.5800170898438,461.2099914550781 813.47998046875,452.1700134277344 " class="cls-127"/>
     <polygon id="svg_172" points="813.5499877929688,451 813.6099853515625,449.8399963378906 967.5800170898438,458.8800048828125 967.5800170898438,460.0400085449219 813.5499877929688,451 " class="cls-128"/>
     <polygon id="svg_173" points="813.6099853515625,449.8399963378906 813.6799926757812,448.67999267578125 967.5800170898438,457.7099914550781 967.5800170898438,458.8800048828125 813.6099853515625,449.8399963378906 " class="cls-129"/>
     <polygon id="svg_174" points="813.6799926757812,448.67999267578125 813.75,447.510009765625 967.5800170898438,456.5400085449219 967.5800170898438,457.7099914550781 813.6799926757812,448.67999267578125 " class="cls-130"/>
     <polygon id="svg_175" points="813.75,447.510009765625 813.8200073242188,446.3500061035156 967.5800170898438,455.3699951171875 967.5800170898438,456.5400085449219 813.75,447.510009765625 " class="cls-131"/>
     <polygon id="svg_176" points="813.8200073242188,446.3500061035156 813.8900146484375,445.19000244140625 967.5800170898438,454.2099914550781 967.5800170898438,455.3699951171875 813.8200073242188,446.3500061035156 " class="cls-132"/>
     <polygon id="svg_177" points="813.8900146484375,445.19000244140625 813.9600219726562,444.0199890136719 967.5800170898438,453.0400085449219 967.5800170898438,454.2099914550781 813.8900146484375,445.19000244140625 " class="cls-133"/>
     <polygon id="svg_178" points="813.9600219726562,444.0199890136719 814.02001953125,442.8599853515625 967.5800170898438,451.8699951171875 967.5800170898438,453.0400085449219 813.9600219726562,444.0199890136719 " class="cls-134"/>
     <polygon id="svg_179" points="814.02001953125,442.8599853515625 814.0900268554688,441.69000244140625 967.5800170898438,450.70001220703125 967.5800170898438,451.8699951171875 814.02001953125,442.8599853515625 " class="cls-135"/>
     <polygon id="svg_180" points="814.0900268554688,441.69000244140625 814.1599731445312,440.5299987792969 967.5800170898438,449.5400085449219 967.5800170898438,450.70001220703125 814.0900268554688,441.69000244140625 " class="cls-136"/>
     <polygon id="svg_181" points="814.1599731445312,440.5299987792969 814.22998046875,439.3699951171875 967.5800170898438,448.3699951171875 967.5800170898438,449.5400085449219 814.1599731445312,440.5299987792969 " class="cls-137"/>
     <polygon id="svg_182" points="814.22998046875,439.3699951171875 814.2999877929688,438.20001220703125 967.5800170898438,447.20001220703125 967.5800170898438,448.3699951171875 814.22998046875,439.3699951171875 " class="cls-138"/>
     <polygon id="svg_183" points="814.2999877929688,438.20001220703125 814.3699951171875,437.0400085449219 967.5800170898438,446.0400085449219 967.5800170898438,447.20001220703125 814.2999877929688,438.20001220703125 " class="cls-139"/>
     <polygon id="svg_184" points="814.3699951171875,437.0400085449219 814.4299926757812,435.8800048828125 967.5800170898438,444.8699951171875 967.5800170898438,446.0400085449219 814.3699951171875,437.0400085449219 " class="cls-140"/>
     <polygon id="svg_185" points="814.4299926757812,435.8800048828125 814.5,434.7099914550781 967.5800170898438,443.70001220703125 967.5800170898438,444.8699951171875 814.4299926757812,435.8800048828125 " class="cls-141"/>
     <polygon id="svg_186" points="814.5,434.7099914550781 814.5700073242188,433.54998779296875 967.5800170898438,442.5299987792969 967.5800170898438,443.70001220703125 814.5,434.7099914550781 " class="cls-142"/>
     <polygon id="svg_187" points="814.5700073242188,433.54998779296875 814.6400146484375,432.3900146484375 967.5800170898438,441.3699951171875 967.5800170898438,442.5299987792969 814.5700073242188,433.54998779296875 " class="cls-143"/>
     <polygon id="svg_188" points="814.6400146484375,432.3900146484375 814.7100219726562,431.2200012207031 967.5800170898438,440.20001220703125 967.5800170898438,441.3699951171875 814.6400146484375,432.3900146484375 " class="cls-144"/>
     <polygon id="svg_189" points="814.7100219726562,431.2200012207031 814.77001953125,430.05999755859375 967.5800170898438,439.0299987792969 967.5800170898438,440.20001220703125 814.7100219726562,431.2200012207031 " class="cls-145"/>
     <polygon id="svg_190" points="814.77001953125,430.05999755859375 814.8400268554688,428.8999938964844 967.5800170898438,437.8599853515625 967.5800170898438,439.0299987792969 814.77001953125,430.05999755859375 " class="cls-146"/>
     <polygon id="svg_191" points="814.8400268554688,428.8999938964844 814.9099731445312,427.7300109863281 967.5800170898438,436.70001220703125 967.5800170898438,437.8599853515625 814.8400268554688,428.8999938964844 " class="cls-147"/>
     <polygon id="svg_192" points="814.9099731445312,427.7300109863281 814.97998046875,426.57000732421875 967.5800170898438,435.5299987792969 967.5800170898438,436.70001220703125 814.9099731445312,427.7300109863281 " class="cls-148"/>
     <polygon id="svg_193" points="814.97998046875,426.57000732421875 815.0499877929688,425.4100036621094 967.5800170898438,434.3599853515625 967.5800170898438,435.5299987792969 814.97998046875,426.57000732421875 " class="cls-149"/>
     <polygon id="svg_194" points="815.0499877929688,425.4100036621094 815.1199951171875,424.239990234375 967.5800170898438,433.19000244140625 967.5800170898438,434.3599853515625 815.0499877929688,425.4100036621094 " class="cls-150"/>
     <polygon id="svg_195" points="815.1199951171875,424.239990234375 815.1799926757812,423.0799865722656 967.5800170898438,432.0299987792969 967.5800170898438,433.19000244140625 815.1199951171875,424.239990234375 " class="cls-151"/>
     <polygon id="svg_196" points="815.1799926757812,423.0799865722656 815.25,421.9200134277344 967.5800170898438,430.8599853515625 967.5800170898438,432.0299987792969 815.1799926757812,423.0799865722656 " class="cls-152"/>
     <polygon id="svg_197" points="815.25,421.9200134277344 815.3200073242188,420.75 967.5800170898438,429.69000244140625 967.5800170898438,430.8599853515625 815.25,421.9200134277344 " class="cls-153"/>
     <polygon id="svg_198" points="815.3200073242188,420.75 815.3900146484375,419.5899963378906 967.5800170898438,428.5199890136719 967.5800170898438,429.69000244140625 815.3200073242188,420.75 " class="cls-154"/>
     <polygon id="svg_199" points="815.3900146484375,419.5899963378906 815.4600219726562,418.42999267578125 967.5800170898438,427.3599853515625 967.5800170898438,428.5199890136719 815.3900146484375,419.5899963378906 " class="cls-155"/>
     <polygon id="svg_200" points="815.4600219726562,418.42999267578125 815.530029296875,417.260009765625 967.5800170898438,426.19000244140625 967.5800170898438,427.3599853515625 815.4600219726562,418.42999267578125 " class="cls-156"/>
     <polygon id="svg_201" points="815.530029296875,417.260009765625 815.5999755859375,416.1000061035156 967.5800170898438,425.0199890136719 967.5800170898438,426.19000244140625 815.530029296875,417.260009765625 " class="cls-157"/>
     <polygon id="svg_202" points="815.5999755859375,416.1000061035156 815.6599731445312,414.94000244140625 967.5800170898438,423.8599853515625 967.5800170898438,425.0199890136719 815.5999755859375,416.1000061035156 " class="cls-158"/>
     <polygon id="svg_203" points="815.6599731445312,414.94000244140625 815.72998046875,413.7699890136719 967.5800170898438,422.69000244140625 967.5800170898438,423.8599853515625 815.6599731445312,414.94000244140625 " class="cls-159"/>
     <polygon id="svg_204" points="815.72998046875,413.7699890136719 815.7999877929688,412.6099853515625 967.5800170898438,421.5199890136719 967.5800170898438,422.69000244140625 815.72998046875,413.7699890136719 " class="cls-160"/>
     <polygon id="svg_205" points="815.7999877929688,412.6099853515625 815.8699951171875,411.45001220703125 967.5800170898438,420.3500061035156 967.5800170898438,421.5199890136719 815.7999877929688,412.6099853515625 " class="cls-161"/>
     <polygon id="svg_206" points="815.8699951171875,411.45001220703125 815.9400024414062,410.2799987792969 967.5800170898438,419.19000244140625 967.5800170898438,420.3500061035156 815.8699951171875,411.45001220703125 " class="cls-162"/>
     <polygon id="svg_207" points="815.9400024414062,410.2799987792969 816,409.1199951171875 967.5800170898438,418.0199890136719 967.5800170898438,419.19000244140625 815.9400024414062,410.2799987792969 " class="cls-163"/>
     <polygon id="svg_208" points="816,409.1199951171875 816.0700073242188,407.9599914550781 967.5800170898438,416.8500061035156 967.5800170898438,418.0199890136719 816,409.1199951171875 " class="cls-164"/>
     <polygon id="svg_209" points="816.0700073242188,407.9599914550781 816.1400146484375,406.7900085449219 967.5800170898438,415.67999267578125 967.5800170898438,416.8500061035156 816.0700073242188,407.9599914550781 " class="cls-165"/>
     <polygon id="svg_210" points="816.1400146484375,406.7900085449219 816.2100219726562,405.6300048828125 967.5800170898438,414.5199890136719 967.5800170898438,415.67999267578125 816.1400146484375,406.7900085449219 " class="cls-166"/>
     <polygon id="svg_211" points="816.2100219726562,405.6300048828125 816.280029296875,404.4700012207031 967.5800170898438,413.3500061035156 967.5800170898438,414.5199890136719 816.2100219726562,405.6300048828125 " class="cls-167"/>
     <polygon id="svg_212" points="816.280029296875,404.4700012207031 816.3499755859375,403.29998779296875 967.5800170898438,412.17999267578125 967.5800170898438,413.3500061035156 816.280029296875,404.4700012207031 " class="cls-168"/>
     <polygon id="svg_213" points="816.3499755859375,403.29998779296875 816.4099731445312,402.1400146484375 967.5800170898438,411.010009765625 967.5800170898438,412.17999267578125 816.3499755859375,403.29998779296875 " class="cls-169"/>
     <polygon id="svg_214" points="816.4099731445312,402.1400146484375 816.47998046875,400.9800109863281 967.5800170898438,409.8500061035156 967.5800170898438,411.010009765625 816.4099731445312,402.1400146484375 " class="cls-170"/>
     <polygon id="svg_215" points="816.47998046875,400.9800109863281 816.5499877929688,399.80999755859375 967.5800170898438,408.67999267578125 967.5800170898438,409.8500061035156 816.47998046875,400.9800109863281 " class="cls-171"/>
     <polygon id="svg_216" points="816.5499877929688,399.80999755859375 816.6199951171875,398.6499938964844 967.5800170898438,407.510009765625 967.5800170898438,408.67999267578125 816.5499877929688,399.80999755859375 " class="cls-172"/>
     <polygon id="svg_217" points="816.6199951171875,398.6499938964844 816.6900024414062,397.489990234375 967.5800170898438,406.3399963378906 967.5800170898438,407.510009765625 816.6199951171875,398.6499938964844 " class="cls-173"/>
     <polygon id="svg_218" points="816.6900024414062,397.489990234375 816.760009765625,396.32000732421875 967.5800170898438,405.17999267578125 967.5800170898438,406.3399963378906 816.6900024414062,397.489990234375 " class="cls-174"/>
     <polygon id="svg_219" points="816.760009765625,396.32000732421875 816.8200073242188,395.1600036621094 967.5800170898438,404.010009765625 967.5800170898438,405.17999267578125 816.760009765625,396.32000732421875 " class="cls-175"/>
     <polygon id="svg_220" points="816.8200073242188,395.1600036621094 816.8900146484375,394 967.5800170898438,402.8399963378906 967.5800170898438,404.010009765625 816.8200073242188,395.1600036621094 " class="cls-176"/>
     <polygon id="svg_221" points="816.8900146484375,394 816.9600219726562,392.8299865722656 967.5800170898438,401.6700134277344 967.5800170898438,402.8399963378906 816.8900146484375,394 " class="cls-177"/>
     <polygon id="svg_222" points="816.9600219726562,392.8299865722656 817.030029296875,391.6700134277344 967.5800170898438,400.510009765625 967.5800170898438,401.6700134277344 816.9600219726562,392.8299865722656 " class="cls-178"/>
     <polygon id="svg_223" points="817.030029296875,391.6700134277344 817.0999755859375,390.510009765625 967.5800170898438,399.3399963378906 967.5800170898438,400.510009765625 817.030029296875,391.6700134277344 " class="cls-179"/>
     <polygon id="svg_224" points="817.0999755859375,390.510009765625 817.1599731445312,389.3399963378906 967.5800170898438,398.1700134277344 967.5800170898438,399.3399963378906 817.0999755859375,390.510009765625 " class="cls-180"/>
     <polygon id="svg_225" points="817.1599731445312,389.3399963378906 817.22998046875,388.17999267578125 967.5800170898438,397 967.5800170898438,398.1700134277344 817.1599731445312,389.3399963378906 " class="cls-181"/>
     <polygon id="svg_226" points="817.22998046875,388.17999267578125 817.2999877929688,387.0199890136719 967.5800170898438,395.8399963378906 967.5800170898438,397 817.22998046875,388.17999267578125 " class="cls-182"/>
     <polygon id="svg_227" points="817.2999877929688,387.0199890136719 817.3699951171875,385.8500061035156 967.5800170898438,394.6700134277344 967.5800170898438,395.8399963378906 817.2999877929688,387.0199890136719 " class="cls-183"/>
     <polygon id="svg_228" points="817.3699951171875,385.8500061035156 817.4400024414062,384.69000244140625 967.5800170898438,393.5 967.5800170898438,394.6700134277344 817.3699951171875,385.8500061035156 " class="cls-184"/>
     <polygon id="svg_229" points="817.4400024414062,384.69000244140625 817.510009765625,383.5299987792969 967.5800170898438,392.3299865722656 967.5800170898438,393.5 817.4400024414062,384.69000244140625 " class="cls-185"/>
     <polygon id="svg_230" points="817.510009765625,383.5299987792969 817.7000122070312,380.2699890136719 967.5800170898438,380.2699890136719 967.5800170898438,392.3299865722656 817.510009765625,383.5299987792969 " class="cls-185"/>
    </g>
    <polygon id="svg_232" points="902.3300170898438,387.4100036621094 875.3900146484375,385.6199951171875 875.3300170898438,385.6199951171875 810.989990234375,601.5700073242188 811.1199951171875,601.5700073242188 875.4299926757812,385.75 902.22998046875,387.5299987792969 961.47998046875,601.5700073242188 961.6099853515625,601.5700073242188 902.3400268554688,387.45001220703125 902.3300170898438,387.4100036621094 "/>
    <path id="svg_233" d="m443.32,601.58l64.91,-210.19l0,0a24.67,24.67 0 0 1 3.77,-12.32a22.81,22.81 0 0 1 10.43,-8.87l381,1.09l0,0a10.74,10.74 0 0 1 9.38,2.18a12,12 0 0 1 3.73,11.18l0,0l58.94,216.92l0.13,0l-58.97,-216.91a12.09,12.09 0 0 0 -3.78,-11.29a10.81,10.81 0 0 0 -9.49,-2.2l-381,-1.1l0,0a23.07,23.07 0 0 0 -10.5,8.94a24.67,24.67 0 0 0 -3.76,12.35l-60.88,197.09l-4.05,13.13l0.14,0z"/>
    <path id="svg_234" d="m822,601.58q1.89,-7.32 3.74,-14.57c4.41,-17.23 9,-35 13.83,-53.06c1.81,-6.72 3.52,-13.34 5.17,-19.74s3.36,-13 5.17,-19.71a10.34,10.34 0 0 0 0.28,-1.41a7.44,7.44 0 0 1 0.23,-1.16c0.13,-0.35 0.23,-0.67 0.32,-1s0.19,-0.59 0.31,-0.92l0,-0.09c0.38,-1.61 0.77,-3.26 1.28,-4.88a18.11,18.11 0 0 0 0.56,-2.61c0.08,-0.44 0.15,-0.86 0.23,-1.27c1.42,-4.87 2.64,-9.71 3.81,-14.39s2.39,-9.51 3.81,-14.36l0.13,-0.53a31.78,31.78 0 0 1 1.28,-4.48a7.31,7.31 0 0 0 0.33,-1.55c0,-0.21 0.05,-0.41 0.08,-0.6c0.71,-2.4 1.3,-4.8 1.88,-7.12s1.16,-4.71 1.86,-7.09l0,0c0.21,-0.81 0.41,-1.63 0.61,-2.41c0.54,-2.18 1,-4.24 1.71,-6.32l0.4,-2.1l0,-0.05a1.38,1.38 0 0 0 0.24,-0.56c1.72,-7.55 3.52,-14.32 5.66,-21.27a4.83,4.83 0 0 0 0.16,-0.81a4.47,4.47 0 0 1 0.1,-0.56l0,0l0,-0.05a1.51,1.51 0 0 0 0.24,-0.6c0.21,-1.24 0.54,-2.48 0.86,-3.67c0.27,-1 0.54,-2 0.75,-3l-1.52,-0.31c-0.2,1 -0.46,1.94 -0.73,3c-0.33,1.22 -0.66,2.48 -0.89,3.79l0,0a1.57,1.57 0 0 0 -0.23,0.52a6.58,6.58 0 0 0 -0.14,0.75a3.55,3.55 0 0 1 -0.1,0.56c-2.16,7 -4,13.81 -5.7,21.41l0,0.05a1.33,1.33 0 0 0 -0.25,0.59l-0.37,2c-0.66,2.11 -1.18,4.18 -1.72,6.36c-0.19,0.78 -0.39,1.59 -0.6,2.39c-0.72,2.41 -1.31,4.82 -1.88,7.15s-1.16,4.71 -1.87,7.09l0,0.07c0,0.26 -0.07,0.5 -0.1,0.74a6,6 0 0 1 -0.24,1.18a32.18,32.18 0 0 0 -1.34,4.68l-0.11,0.48c-1.43,4.87 -2.64,9.71 -3.82,14.39s-2.39,9.51 -3.81,14.36l0,0.06c-0.1,0.45 -0.17,0.92 -0.25,1.37a16.6,16.6 0 0 1 -0.51,2.39c-0.52,1.66 -0.92,3.33 -1.3,4.94l-0.32,1c-0.09,0.3 -0.18,0.59 -0.3,0.91l0,0.05a9,9 0 0 0 -0.29,1.42a7.71,7.71 0 0 1 -0.23,1.18l0,0c-1.81,6.72 -3.52,13.34 -5.17,19.74s-3.36,13 -5.17,19.72c-4.86,18 -9.43,35.85 -13.84,53.09q-1.86,7.31 -3.76,14.68l1,0.27l0.53,-0.13z" class="cls-162"/>
    <path id="svg_235" d="m835,601.58c1.07,-4.74 2,-9.54 3,-14.19c1.1,-5.4 2.24,-11 3.55,-16.61l0,0c0.39,-1.92 0.75,-3.77 1.1,-5.55s0.71,-3.63 1.09,-5.54c1.75,-7.75 3.23,-14.94 4.79,-22.55c1,-4.63 1.93,-9.41 3,-14.31c2.41,-10.85 4.61,-21.3 7.12,-33.85c4.72,-22.16 8.71,-41.13 12.92,-61.49l0,-0.06a1.38,1.38 0 0 0 0.24,-0.56c0.45,-2.12 0.84,-4.17 1.22,-6.14s0.77,-4 1.22,-6.14c0.69,-2.75 1.21,-5.4 1.71,-8c0.35,-1.81 0.71,-3.68 1.13,-5.58c0.74,-2.63 1.2,-5.14 1.7,-7.79c0.2,-1.09 0.41,-2.21 0.64,-3.35l0,-0.09l0.07,-0.18c0,-0.09 0.07,-0.18 0.09,-0.27l-1.48,-0.46a1.27,1.27 0 0 1 -0.06,0.18a2.23,2.23 0 0 0 -0.16,0.56c-0.23,1.13 -0.44,2.25 -0.64,3.32c-0.49,2.63 -0.95,5.11 -1.67,7.68l0,0c-0.43,1.93 -0.79,3.82 -1.15,5.64c-0.52,2.67 -1,5.19 -1.69,7.91l0,0c-0.46,2.13 -0.85,4.19 -1.23,6.18s-0.78,4 -1.22,6.12l0,0.06a1.36,1.36 0 0 0 -0.24,0.57c-4.21,20.36 -8.2,39.32 -12.92,61.49c-2.51,12.55 -4.7,23 -7.11,33.83c-1,4.92 -2,9.7 -3,14.32c-1.56,7.61 -3,14.79 -4.78,22.54l0,0c-0.39,1.92 -0.75,3.77 -1.1,5.56s-0.71,3.62 -1.1,5.53c-1.31,5.64 -2.46,11.24 -3.56,16.64c-1,4.68 -2,9.51 -3,14.27l1,0.23l0.52,0.08z" class="cls-162"/>
    <path id="svg_236" d="m852.65,601.58c4.93,-34.59 9.91,-69.73 14.73,-103.72c5.06,-35.72 10.29,-72.66 15.49,-109l-1.53,-0.22c-5.2,36.39 -10.44,73.33 -15.5,109.05c-4.82,34 -9.8,69.18 -14.74,103.79l1,0.15l0.55,-0.05z" class="cls-162"/>
    <path id="svg_237" d="m868.92,601.58c2.34,-29.44 4.61,-59.31 6.81,-88.2c2.83,-37.3 5.76,-75.87 8.9,-114.13l0,0c0.06,-1.23 0.13,-2.43 0.19,-3.63s0.13,-2.37 0.19,-3.6s0.22,-2.22 0.28,-3.29c0.05,-0.77 0.09,-1.57 0.17,-2.39l-1.54,-0.15c-0.08,0.85 -0.13,1.66 -0.18,2.45c-0.06,1.09 -0.12,2.12 -0.27,3.21l0,0.06c-0.07,1.23 -0.13,2.43 -0.2,3.63s-0.13,2.39 -0.19,3.62c-3.08,38.24 -6.08,76.84 -8.9,114.1c-2.19,28.9 -4.46,58.78 -6.81,88.22l1.21,0.1l0.34,0z" class="cls-162"/>
    <path id="svg_238" d="m886.05,437.83c0.13,53.57 0.26,109 0.31,163.75l1.56,0c-0.06,-54.78 -0.19,-110.18 -0.32,-163.75c0,-5.06 0,-10.21 -0.05,-15.18c0,-11.2 -0.11,-22.78 0.12,-34.21l-1.55,0c-0.23,11.44 -0.17,23 -0.12,34.24c0,4.95 0.05,10.09 0.05,15.15z" class="cls-162"/>
    <path id="svg_239" d="m905.87,601.58c-2.87,-36.24 -5.93,-73.06 -8.87,-108.68c-2.84,-34.11 -5.78,-69.39 -8.53,-104.14l1.54,-0.12c2.75,34.75 5.69,70 8.53,104.13c3,35.62 6,72.45 8.89,108.68l-1.56,0.13z" class="cls-162"/>
    <path id="svg_240" d="m924.23,601.58l0.64,0l0.91,-0.15c-6.66,-43.19 -13.57,-87 -20.25,-129.42c-4.26,-27 -8.66,-54.94 -13,-82.47l-1.53,0.24c4.3,27.53 8.7,55.46 13,82.47c6.67,42.36 13.58,86.17 20.23,129.33z" class="cls-162"/>
    <path id="svg_241" d="m941.13,601.58l0.87,0l0.7,-0.16l-4.75,-21.05c-14.08,-62.3 -28.63,-126.72 -42.78,-190.19l-1.52,0.33c14.15,63.48 28.71,127.9 42.78,190.2l4.7,20.87z" class="cls-162"/>
    <path id="svg_242" d="m898.73,395.45a1.8,1.8 0 0 0 0.32,0.8a4.3,4.3 0 0 1 0.07,0.43a4,4 0 0 0 0.16,0.82l0,0.05l0,0.05a5.79,5.79 0 0 1 0.35,1.35a8.18,8.18 0 0 0 0.23,1.07a1.88,1.88 0 0 0 0.29,0.72a8.78,8.78 0 0 0 0.53,1.89a5,5 0 0 1 0.24,1.17c0,0.24 0.06,0.48 0.11,0.73l0,0.07c3.65,13 6.87,25.45 10.27,38.58c0.45,1.74 0.91,3.49 1.36,5.25c0.65,2.53 1.28,5 1.88,7.47s1.23,4.93 1.88,7.47c2.58,9.8 5.15,19.49 7.63,28.85s5,19 7.62,28.82l0.38,2l0,0.06c2.27,8.36 4.36,16.59 6.39,24.56c1.43,5.64 2.92,11.48 4.47,17.37c0.16,0.6 0.32,1.18 0.48,1.77c0.89,3.28 1.72,6.37 2.49,9.71l0,0c0.21,0.78 0.42,1.54 0.63,2.29c0.56,2 1.1,4 1.56,6l0,0c1,4.06 2.09,8 3.13,11.89c0.43,1.57 0.87,3.18 1.3,4.78l0.56,0l1,-0.26c-0.44,-1.65 -0.89,-3.31 -1.33,-4.92c-1,-3.84 -2.12,-7.82 -3.12,-11.86c-0.48,-2.11 -1,-4.05 -1.58,-6.1c-0.21,-0.75 -0.42,-1.5 -0.62,-2.27c-0.77,-3.37 -1.61,-6.47 -2.5,-9.75l-0.48,-1.77c-1.55,-5.88 -3,-11.72 -4.47,-17.35c-2,-8 -4.11,-16.2 -6.39,-24.55l-0.38,-2l0,-0.05c-2.59,-9.8 -5.15,-19.48 -7.63,-28.84s-5.01,-18.97 -7.56,-28.75c-0.65,-2.53 -1.27,-5 -1.88,-7.46s-1.22,-4.93 -1.87,-7.48c-0.46,-1.76 -0.91,-3.5 -1.36,-5.25c-3.41,-13.12 -6.63,-25.53 -10.28,-38.57c0,-0.2 -0.06,-0.4 -0.08,-0.61a7.06,7.06 0 0 0 -0.33,-1.55l0,-0.06a8.11,8.11 0 0 1 -0.46,-1.73l0,-0.21l-0.16,-0.17a0.73,0.73 0 0 1 0,-0.09l0,-0.05l0,-0.11a7.7,7.7 0 0 1 -0.2,-1a7.59,7.59 0 0 0 -0.45,-1.69a3.14,3.14 0 0 1 -0.09,-0.51a5.93,5.93 0 0 0 -0.16,-0.82l0,-0.16l-0.12,-0.13a0.26,0.26 0 0 1 -0.05,-0.09l0,-0.09c-0.23,-1.14 -0.5,-2.2 -0.78,-3.32c-0.2,-0.77 -0.4,-1.57 -0.58,-2.38l-1.51,0.34c0.19,0.84 0.39,1.64 0.58,2.41c0.03,1.12 0.29,2.15 0.51,3.23z" class="cls-162"/>
    <path id="svg_243" d="m901.43,399.77z" class="cls-162"/>
    <path id="svg_244" d="m900.27,395.25z" class="cls-162"/>
    <polygon id="svg_245" points="867.2999877929688,391.6499938964844 510.95001220703125,391.5799865722656 513.8599853515625,383.42999267578125 869.9500122070312,383.3599853515625 867.2999877929688,391.6499938964844 "/>
    <polygon id="svg_246" points="962.1500244140625,601.5700073242188 952.8200073242188,566.6900024414062 905.010009765625,387.9700012207031 899.9000244140625,387.510009765625 957.0900268554688,601.5700073242188 962.1500244140625,601.5700073242188 "/>
    <rect id="svg_247" height="56.5" width="15.48" y="545.07" x="222.86" class="cls-8"/>
    <path id="svg_248" d="m262.14,518.78a31.62,31.62 0 0 1 -63.24,0c0,-0.35 0,-0.7 0,-1l0,0l6,-17.56l26.39,-76.76l25.58,78l0,0l5.16,15.73c0.09,0.48 0.11,1.04 0.11,1.59z" class="cls-2"/>
    <rect id="svg_249" rx="34.57" height="142.12" width="111.73" y="275.6" x="323.47" class="cls-186"/>
    <polygon id="svg_250" points="372.41998291015625,601.5700073242188 382.7599792480469,601.5700073242188 382.7599792480469,392.1600036621094 407.7599792480469,365.25 400.17999267578125,358.21002197265625 382.7599792480469,376.96002197265625 382.7599792480469,331.08001708984375 372.41998291015625,331.08001708984375 372.41998291015625,356.4800109863281 356.66998291015625,345.91998291015625 350.9100036621094,354.5099792480469 372.41998291015625,368.92999267578125 372.41998291015625,601.5700073242188 " class="cls-187"/>
    <path id="svg_251" d="m327.77,215.08a9,9 0 0 1 -1,-0.91a12.34,12.34 0 0 1 -0.85,-1a15.89,15.89 0 0 1 -1.38,-2a18.91,18.91 0 0 1 -1.83,-4.28a19.33,19.33 0 0 1 -0.77,-4.58a16.66,16.66 0 0 1 0.09,-2.43q0.07,-0.62 0.21,-1.26a8.64,8.64 0 0 1 0.37,-1.31a8.13,8.13 0 0 1 1,0.91a10.71,10.71 0 0 1 0.85,1a14.29,14.29 0 0 1 1.38,2a18.58,18.58 0 0 1 1.83,4.27a19.4,19.4 0 0 1 0.75,4.59a15.34,15.34 0 0 1 -0.08,2.43q-0.08,0.61 -0.21,1.26a8.57,8.57 0 0 1 -0.36,1.31z"/>
    <path id="svg_252" d="m331.13,217.15a6.06,6.06 0 0 1 -0.27,-1c-0.06,-0.31 -0.09,-0.61 -0.12,-0.9a7.85,7.85 0 0 1 0,-1.62a7.77,7.77 0 0 1 0.94,-2.77a7.49,7.49 0 0 1 1.9,-2.21a7.74,7.74 0 0 1 1.42,-0.85a7.14,7.14 0 0 1 0.83,-0.35a6.05,6.05 0 0 1 1,-0.26a6.06,6.06 0 0 1 0.27,1a7.54,7.54 0 0 1 0.12,0.89a7.3,7.3 0 0 1 0,1.63a7.75,7.75 0 0 1 -2.85,5a8.12,8.12 0 0 1 -1.38,0.87a8,8 0 0 1 -0.83,0.35a6,6 0 0 1 -1.03,0.22z"/>
    <path id="svg_253" d="m281.6,261.63a7.84,7.84 0 0 1 1.13,0.09a7.66,7.66 0 0 1 1,0.21a9.83,9.83 0 0 1 1.8,0.66a10.89,10.89 0 0 1 2.94,2a11.12,11.12 0 0 1 2.18,2.82a11,11 0 0 1 0.75,1.77c0.1,0.32 0.18,0.65 0.26,1a7.58,7.58 0 0 1 0.14,1.13a6.88,6.88 0 0 1 -1.14,-0.08a8.37,8.37 0 0 1 -1,-0.21a10.11,10.11 0 0 1 -1.8,-0.66a10.84,10.84 0 0 1 -2.93,-2a11.09,11.09 0 0 1 -2.17,-2.83a9.42,9.42 0 0 1 -0.75,-1.77a9.73,9.73 0 0 1 -0.26,-1a6.43,6.43 0 0 1 -0.15,-1.13z" class="cls-188"/>
    <path id="svg_254" d="m319.88,270.56a5.81,5.81 0 0 1 0.31,1.07a9,9 0 0 1 0.15,1a9.63,9.63 0 0 1 0,1.86a10.4,10.4 0 0 1 -4.16,7.45c-0.27,0.19 -0.55,0.38 -0.85,0.55a7.3,7.3 0 0 1 -1,0.48a6.3,6.3 0 0 1 -0.31,-1.07c-0.07,-0.34 -0.12,-0.68 -0.16,-1a9.73,9.73 0 0 1 0,-1.87a10.19,10.19 0 0 1 0.89,-3.32a10.5,10.5 0 0 1 1.9,-2.88a9.89,9.89 0 0 1 1.39,-1.24a8.87,8.87 0 0 1 0.85,-0.55a5.81,5.81 0 0 1 0.99,-0.48z" class="cls-188"/>
    <path id="svg_255" d="m274.88,300.43a6.12,6.12 0 0 1 -0.27,-1.06a8.89,8.89 0 0 1 -0.12,-1a9.19,9.19 0 0 1 0.06,-1.83a10,10 0 0 1 1,-3.23a9.77,9.77 0 0 1 2,-2.72a9.62,9.62 0 0 1 1.42,-1.15a9,9 0 0 1 0.87,-0.5a7,7 0 0 1 1,-0.42a7,7 0 0 1 0.27,1.07a8.89,8.89 0 0 1 0.12,1a9.19,9.19 0 0 1 -0.06,1.83a10.31,10.31 0 0 1 -3,5.94a9.22,9.22 0 0 1 -1.43,1.15c-0.27,0.17 -0.55,0.34 -0.86,0.5a7.31,7.31 0 0 1 -1,0.42z" class="cls-188"/>
    <path id="svg_256" d="m413.9,244.3a8.63,8.63 0 0 1 0.9,0.73a10.63,10.63 0 0 1 0.74,0.77a11.27,11.27 0 0 1 1.14,1.61a12.17,12.17 0 0 1 1.63,7.11a11.4,11.4 0 0 1 -0.34,1.95c-0.09,0.33 -0.21,0.67 -0.34,1a7.09,7.09 0 0 1 -0.5,1.05a6.2,6.2 0 0 1 -0.9,-0.73a8.85,8.85 0 0 1 -0.74,-0.77a10.61,10.61 0 0 1 -1.15,-1.61a11.79,11.79 0 0 1 -1.34,-3.41a12.18,12.18 0 0 1 -0.26,-3.68a10.64,10.64 0 0 1 0.34,-2c0.09,-0.33 0.2,-0.67 0.33,-1a6.21,6.21 0 0 1 0.49,-1.02z" class="cls-188"/>
    <path id="svg_257" d="m465.88,244.17a9.48,9.48 0 0 1 0.57,1.39a14,14 0 0 1 0.4,1.36a19.83,19.83 0 0 1 0.47,2.68a24.42,24.42 0 0 1 0,5.27a23.86,23.86 0 0 1 -1.13,5.15a18.57,18.57 0 0 1 -1.05,2.51a13.83,13.83 0 0 1 -0.69,1.24a11.46,11.46 0 0 1 -0.86,1.23a9.48,9.48 0 0 1 -0.57,-1.39c-0.16,-0.45 -0.29,-0.91 -0.41,-1.36a21.36,21.36 0 0 1 -0.47,-2.69a25,25 0 0 1 0,-5.26a24.5,24.5 0 0 1 1.14,-5.15a18.57,18.57 0 0 1 1,-2.51a13.83,13.83 0 0 1 0.69,-1.24a11.33,11.33 0 0 1 0.91,-1.23z" class="cls-188"/>
    <path id="svg_258" d="m487.35,321.64a6.73,6.73 0 0 1 1,0.52a7.94,7.94 0 0 1 0.88,0.59a10.44,10.44 0 0 1 1.47,1.32a12,12 0 0 1 2.06,3.06a12.24,12.24 0 0 1 1.05,3.53a9.91,9.91 0 0 1 0.08,2a8.12,8.12 0 0 1 -0.11,1.06a6.5,6.5 0 0 1 -0.26,1.13a6.3,6.3 0 0 1 -1,-0.52a9.81,9.81 0 0 1 -0.89,-0.59a11,11 0 0 1 -1.47,-1.32a12.44,12.44 0 0 1 -3.09,-6.6a10.63,10.63 0 0 1 -0.09,-2a9.77,9.77 0 0 1 0.11,-1.06a7.57,7.57 0 0 1 0.26,-1.12z" class="cls-188"/>
    <path id="svg_259" d="m470.54,341.81a8.82,8.82 0 0 1 0,-1.36a12.68,12.68 0 0 1 0.13,-1.27a17.1,17.1 0 0 1 0.57,-2.37a19.7,19.7 0 0 1 4.84,-7.9a17.91,17.91 0 0 1 1.86,-1.57c0.34,-0.24 0.7,-0.48 1.08,-0.7a9.25,9.25 0 0 1 1.22,-0.61a10.5,10.5 0 0 1 0,1.37c0,0.44 -0.08,0.86 -0.14,1.27a16.21,16.21 0 0 1 -0.56,2.38a19.68,19.68 0 0 1 -4.86,7.88a15.11,15.11 0 0 1 -1.86,1.57c-0.34,0.25 -0.7,0.48 -1.07,0.7a9.25,9.25 0 0 1 -1.21,0.61z" class="cls-188"/>
    <path id="svg_260" d="m483,372.07a8.66,8.66 0 0 1 0.54,1.29a13,13 0 0 1 0.38,1.27a16.87,16.87 0 0 1 0.41,2.48a20.87,20.87 0 0 1 -1.35,9.51a17.41,17.41 0 0 1 -1.09,2.27q-0.33,0.56 -0.72,1.11a9.47,9.47 0 0 1 -0.88,1.08a7.87,7.87 0 0 1 -0.54,-1.29a12.07,12.07 0 0 1 -0.38,-1.26a17,17 0 0 1 -0.42,-2.49a21.18,21.18 0 0 1 1.37,-9.5a16.82,16.82 0 0 1 1.09,-2.27q0.33,-0.56 0.72,-1.11a8.47,8.47 0 0 1 0.87,-1.09z" class="cls-188"/>
    <path id="svg_261" d="m464.07,395.22a9.93,9.93 0 0 1 -1.06,-1.1a13.9,13.9 0 0 1 -0.91,-1.15a20,20 0 0 1 -1.49,-2.38a26.14,26.14 0 0 1 -2.06,-5a26.68,26.68 0 0 1 -1,-5.36a22,22 0 0 1 0,-2.82c0,-0.48 0.08,-1 0.15,-1.46a9.6,9.6 0 0 1 0.32,-1.5a11.05,11.05 0 0 1 1.07,1.1c0.33,0.38 0.62,0.76 0.91,1.15a20.63,20.63 0 0 1 1.49,2.39a26.66,26.66 0 0 1 3,10.41a21.9,21.9 0 0 1 0,2.81c0,0.48 -0.07,1 -0.15,1.46a10.54,10.54 0 0 1 -0.27,1.45z" class="cls-188"/>
    <path id="svg_262" d="m399,336.64a9.7,9.7 0 0 1 -0.31,1.21c-0.13,0.38 -0.27,0.74 -0.42,1.09a13.53,13.53 0 0 1 -1.05,1.92a15.11,15.11 0 0 1 -2.74,3.1a14.78,14.78 0 0 1 -3.46,2.27a13.25,13.25 0 0 1 -2.02,0.77c-0.36,0.1 -0.74,0.19 -1.13,0.26a7.07,7.07 0 0 1 -1.25,0.12a8.23,8.23 0 0 1 0.3,-1.21c0.13,-0.38 0.27,-0.74 0.42,-1.09a13.53,13.53 0 0 1 1,-1.92a14.62,14.62 0 0 1 2.75,-3.1a15.07,15.07 0 0 1 3.46,-2.26a14.37,14.37 0 0 1 2.06,-0.77c0.36,-0.1 0.74,-0.18 1.13,-0.25a8,8 0 0 1 1.26,-0.14z" class="cls-189"/>
    <path id="svg_263" d="m400.84,316.34a7.12,7.12 0 0 1 -0.16,-1.26a9.17,9.17 0 0 1 0,-1.17a12.86,12.86 0 0 1 0.27,-2.19a15.83,15.83 0 0 1 3.81,-7.38a14.65,14.65 0 0 1 1.63,-1.49c0.3,-0.23 0.63,-0.45 1,-0.67a8.37,8.37 0 0 1 1.12,-0.59a8.2,8.2 0 0 1 0.16,1.26a11.46,11.46 0 0 1 0,1.17a14,14 0 0 1 -0.27,2.19a15.87,15.87 0 0 1 -3.82,7.37a12.37,12.37 0 0 1 -1.64,1.49a9.63,9.63 0 0 1 -1,0.67a7.76,7.76 0 0 1 -1.1,0.6z" class="cls-189"/>
    <path id="svg_264" d="m379.37,302.24a9.58,9.58 0 0 1 -1.38,0.13q-0.66,0 -1.29,0a15,15 0 0 1 -2.46,-0.35a20.14,20.14 0 0 1 -4.48,-1.56a19.51,19.51 0 0 1 -4,-2.57a16,16 0 0 1 -1.78,-1.72a11.64,11.64 0 0 1 -0.82,-1a8.35,8.35 0 0 1 -0.74,-1.17a11.29,11.29 0 0 1 1.37,-0.13c0.45,0 0.88,0 1.3,0a16.2,16.2 0 0 1 2.46,0.34a19.93,19.93 0 0 1 4.47,1.58a19.51,19.51 0 0 1 4,2.57a16.06,16.06 0 0 1 1.79,1.72c0.28,0.32 0.55,0.65 0.81,1a8.27,8.27 0 0 1 0.75,1.16z" class="cls-189"/>
    <path id="svg_265" d="m329.58,358.62a7.82,7.82 0 0 1 1.22,0.1a9.31,9.31 0 0 1 1.1,0.22a12.39,12.39 0 0 1 2,0.69a14.26,14.26 0 0 1 3.37,2.13a14,14 0 0 1 2.65,3a13.2,13.2 0 0 1 1,1.86c0.14,0.34 0.27,0.69 0.39,1.06a8,8 0 0 1 0.29,1.19a6.73,6.73 0 0 1 -1.22,-0.09a9.08,9.08 0 0 1 -1.11,-0.22a12.39,12.39 0 0 1 -2,-0.69a14.44,14.44 0 0 1 -6,-5.12a13.56,13.56 0 0 1 -1,-1.85a11,11 0 0 1 -0.39,-1.06a6.69,6.69 0 0 1 -0.3,-1.22z" class="cls-189"/>
    <path id="svg_266" d="m360,386.82a6.81,6.81 0 0 1 0.12,1.15a7.59,7.59 0 0 1 0,1.07a11,11 0 0 1 -0.32,2a12.54,12.54 0 0 1 -3.87,6.21a11.41,11.41 0 0 1 -1.62,1.14a9.43,9.43 0 0 1 -0.95,0.49a6.45,6.45 0 0 1 -1.1,0.39a8.23,8.23 0 0 1 -0.13,-1.16c0,-0.36 0,-0.72 0,-1.06a11,11 0 0 1 0.32,-2a12.46,12.46 0 0 1 3.89,-6.21a10.87,10.87 0 0 1 1.62,-1.14a8.47,8.47 0 0 1 0.95,-0.49a6,6 0 0 1 1.09,-0.39z" class="cls-189"/>
    <path id="svg_267" d="m387.64,400.78a10.2,10.2 0 0 1 1.37,0a12.52,12.52 0 0 1 1.27,0.18a17.37,17.37 0 0 1 2.36,0.64a19.71,19.71 0 0 1 7.76,5.1a16,16 0 0 1 1.52,1.92a11.92,11.92 0 0 1 0.67,1.1a7.88,7.88 0 0 1 0.57,1.24a8.64,8.64 0 0 1 -1.36,0c-0.44,0 -0.86,-0.1 -1.28,-0.18a16.36,16.36 0 0 1 -2.36,-0.63a19.25,19.25 0 0 1 -4.18,-2.1a18.88,18.88 0 0 1 -3.57,-3a16.13,16.13 0 0 1 -1.52,-1.91c-0.24,-0.35 -0.46,-0.72 -0.67,-1.1a8.91,8.91 0 0 1 -0.58,-1.26z" class="cls-189"/>
    <path id="svg_268" d="m420,393a8.57,8.57 0 0 1 -1.09,-0.81c-0.33,-0.29 -0.63,-0.58 -0.92,-0.88a17.84,17.84 0 0 1 -1.54,-1.88a19.21,19.21 0 0 1 -2.17,-4.1a18.79,18.79 0 0 1 -1.13,-4.5a14.83,14.83 0 0 1 -0.11,-2.42a11,11 0 0 1 0.1,-1.27a8.54,8.54 0 0 1 0.26,-1.34a9.68,9.68 0 0 1 1.09,0.82c0.32,0.29 0.63,0.58 0.92,0.88a15.57,15.57 0 0 1 1.54,1.87a19.56,19.56 0 0 1 3.29,8.61a14.83,14.83 0 0 1 0.11,2.42a11,11 0 0 1 -0.1,1.27a8.36,8.36 0 0 1 -0.25,1.33z" class="cls-189"/>
    <path id="svg_269" d="m444,409.58a8.61,8.61 0 0 1 0.21,1.27c0,0.4 0.05,0.8 0.05,1.19a13.78,13.78 0 0 1 -0.19,2.26a16.53,16.53 0 0 1 -1.28,4.11a16,16 0 0 1 -2.27,3.65a14.32,14.32 0 0 1 -1.59,1.63c-0.29,0.25 -0.61,0.5 -0.94,0.74a10.34,10.34 0 0 1 -1.1,0.67a6.86,6.86 0 0 1 -0.21,-1.27q-0.06,-0.61 -0.06,-1.2a13.78,13.78 0 0 1 0.19,-2.26a16.53,16.53 0 0 1 1.28,-4.11a16.29,16.29 0 0 1 2.29,-3.65a13.38,13.38 0 0 1 1.62,-1.61a11.8,11.8 0 0 1 0.94,-0.74a7.84,7.84 0 0 1 1.06,-0.68z" class="cls-190"/>
    <path id="svg_270" d="m457.22,435.31a8.34,8.34 0 0 1 1.06,0.84c0.32,0.29 0.61,0.59 0.89,0.89a14.53,14.53 0 0 1 1.48,1.9a18.57,18.57 0 0 1 2.05,4.11a18.11,18.11 0 0 1 1,4.48a16,16 0 0 1 0,2.41c0,0.41 -0.07,0.83 -0.14,1.26a9.79,9.79 0 0 1 -0.3,1.31a8.29,8.29 0 0 1 -1.06,-0.83c-0.32,-0.29 -0.62,-0.59 -0.9,-0.89a15.23,15.23 0 0 1 -1.48,-1.9a19,19 0 0 1 -3,-8.6a14.83,14.83 0 0 1 0,-2.41c0,-0.41 0.07,-0.83 0.13,-1.25a9.92,9.92 0 0 1 0.27,-1.32z" class="cls-190"/>
    <path id="svg_271" d="m453.73,488.2a8,8 0 0 1 -1.2,-0.62c-0.37,-0.22 -0.72,-0.46 -1.06,-0.7a17.56,17.56 0 0 1 -1.82,-1.59a19.42,19.42 0 0 1 -4.66,-7.88a16.18,16.18 0 0 1 -0.5,-2.36a10.7,10.7 0 0 1 -0.11,-1.27a7.73,7.73 0 0 1 0,-1.35a8,8 0 0 1 1.2,0.62c0.37,0.22 0.72,0.46 1.06,0.7a16.58,16.58 0 0 1 1.82,1.59a18.43,18.43 0 0 1 2.8,3.66a18.84,18.84 0 0 1 1.85,4.23a15.9,15.9 0 0 1 0.5,2.36a10.35,10.35 0 0 1 0.11,1.26a8.78,8.78 0 0 1 0.01,1.35z" class="cls-190"/>
    <path id="svg_272" d="m303.59,443.85a9.86,9.86 0 0 1 0.16,-1.48c0.08,-0.48 0.19,-0.94 0.3,-1.39a21,21 0 0 1 0.88,-2.57a24.75,24.75 0 0 1 2.56,-4.59a23.84,23.84 0 0 1 3.45,-3.95a19.76,19.76 0 0 1 2.13,-1.69c0.38,-0.26 0.78,-0.52 1.2,-0.75a10.4,10.4 0 0 1 1.34,-0.65a10,10 0 0 1 -0.16,1.48q-0.12,0.71 -0.3,1.38a19.08,19.08 0 0 1 -0.88,2.58a25.08,25.08 0 0 1 -6,8.53a18.83,18.83 0 0 1 -2.13,1.69c-0.38,0.26 -0.78,0.52 -1.2,0.75a9.69,9.69 0 0 1 -1.35,0.66z" class="cls-190"/>
    <path id="svg_273" d="m301.65,442.17a7.46,7.46 0 0 1 -1.1,-0.37c-0.33,-0.15 -0.65,-0.3 -1,-0.46a11.64,11.64 0 0 1 -1.63,-1.11a11.88,11.88 0 0 1 -2.44,-2.73a12,12 0 0 1 -1.51,-3.34a10.76,10.76 0 0 1 -0.34,-1.94a9.18,9.18 0 0 1 0,-1.06a6,6 0 0 1 0.11,-1.15a7.88,7.88 0 0 1 1.1,0.37a9.27,9.27 0 0 1 1,0.46a10.8,10.8 0 0 1 1.63,1.1a11.65,11.65 0 0 1 2.43,2.74a11.91,11.91 0 0 1 1.51,3.34a11.71,11.71 0 0 1 0.34,1.94a9.18,9.18 0 0 1 0,1.06a6.79,6.79 0 0 1 -0.1,1.15z" class="cls-190"/>
    <path id="svg_274" d="m256.12,383.2a12.37,12.37 0 0 1 -1.4,-0.12c-0.45,-0.07 -0.88,-0.16 -1.3,-0.26a16.72,16.72 0 0 1 -2.42,-0.82a21,21 0 0 1 -4.27,-2.35a20.68,20.68 0 0 1 -3.62,-3.27a16.46,16.46 0 0 1 -1.53,-2a13,13 0 0 1 -0.66,-1.16a9,9 0 0 1 -0.57,-1.29a9,9 0 0 1 1.4,0.12a13.2,13.2 0 0 1 1.31,0.26a16.56,16.56 0 0 1 2.41,0.78a20.6,20.6 0 0 1 4.27,2.36a21.08,21.08 0 0 1 3.62,3.27a18.57,18.57 0 0 1 1.53,2c0.23,0.36 0.46,0.75 0.67,1.15a10.22,10.22 0 0 1 0.56,1.33z" class="cls-190"/>
    <path id="svg_275" d="m261.43,382.16a8.31,8.31 0 0 1 -0.48,-1.34a12.86,12.86 0 0 1 -0.31,-1.3a17.36,17.36 0 0 1 -0.3,-2.55a22.16,22.16 0 0 1 1.8,-9.64a17.68,17.68 0 0 1 1.21,-2.26a12.87,12.87 0 0 1 0.76,-1.11a10.14,10.14 0 0 1 0.94,-1.07a9.86,9.86 0 0 1 0.48,1.34c0.13,0.44 0.23,0.87 0.32,1.31a17.34,17.34 0 0 1 0.29,2.54a21.15,21.15 0 0 1 -0.36,4.92a21.79,21.79 0 0 1 -1.45,4.72a17.79,17.79 0 0 1 -1.21,2.28a12.73,12.73 0 0 1 -0.76,1.1a11.29,11.29 0 0 1 -0.93,1.06z" class="cls-190"/>
    <path id="svg_276" d="m268.54,496.22a11,11 0 0 1 -0.92,1.26c-0.32,0.39 -0.65,0.75 -1,1.1a21.22,21.22 0 0 1 -2.13,1.92a27.58,27.58 0 0 1 -4.7,2.95a27.23,27.23 0 0 1 -5.19,2a21.3,21.3 0 0 1 -2.82,0.54c-0.48,0.06 -1,0.1 -1.48,0.12a11.73,11.73 0 0 1 -1.56,0a12.39,12.39 0 0 1 0.92,-1.26q0.48,-0.59 1,-1.11a22.39,22.39 0 0 1 2.13,-1.91a28,28 0 0 1 9.9,-4.91a21.47,21.47 0 0 1 2.81,-0.54c0.49,-0.06 1,-0.11 1.48,-0.13a11.7,11.7 0 0 1 1.56,-0.03z" class="cls-190"/>
    <path id="svg_277" d="m245.52,574.07a12.14,12.14 0 0 1 1.24,1.1a14.83,14.83 0 0 1 1.09,1.16a26.91,26.91 0 0 1 1.87,2.45a32.46,32.46 0 0 1 4.66,11a25,25 0 0 1 0.46,3c0,0.53 0.07,1.05 0.07,1.59a11.75,11.75 0 0 1 -0.08,1.66a13.4,13.4 0 0 1 -1.24,-1.03c-0.39,-0.38 -0.75,-0.77 -1.09,-1.16a23.71,23.71 0 0 1 -1.87,-2.45a32.34,32.34 0 0 1 -4.65,-11a25,25 0 0 1 -0.46,-3c0,-0.53 -0.08,-1.05 -0.08,-1.59a13.46,13.46 0 0 1 0.08,-1.73z" class="cls-191"/>
    <path id="svg_278" d="m254.12,601.58l0.06,0c0.45,-0.26 0.87,-0.54 1.28,-0.82a24.5,24.5 0 0 0 2.28,-1.85a29,29 0 0 0 6.65,-9.19a21.87,21.87 0 0 0 1,-2.74c0.15,-0.48 0.28,-1 0.39,-1.47a11,11 0 0 0 0.25,-1.57a12.42,12.42 0 0 0 -1.41,0.73c-0.45,0.26 -0.87,0.54 -1.28,0.82a24.5,24.5 0 0 0 -2.28,1.85a28.75,28.75 0 0 0 -3.78,4.27a28.26,28.26 0 0 0 -2.89,4.91a22.45,22.45 0 0 0 -1,2.74q-0.23,0.72 -0.39,1.47c-0.06,0.29 -0.12,0.59 -0.16,0.89l1.28,-0.04z" class="cls-191"/>
    <path id="svg_279" d="m431.26,569.55a51,51 0 0 0 1.79,5.54a76.22,76.22 0 0 0 5.22,10.78a87.82,87.82 0 0 0 7.1,10.43q2,2.56 4.38,5.07l0.2,0.21l4.35,0c-0.07,-0.34 -0.15,-0.67 -0.24,-1a51,51 0 0 0 -1.78,-5.54a75.28,75.28 0 0 0 -5.28,-10.78a90,90 0 0 0 -7.11,-10.43c-1.35,-1.71 -2.81,-3.39 -4.38,-5.06c-0.79,-0.84 -1.6,-1.66 -2.47,-2.48s-1.76,-1.64 -2.76,-2.43a19.71,19.71 0 0 0 0.33,2.87c0.2,0.95 0.39,1.89 0.65,2.82z" class="cls-191"/>
    <path id="svg_280" d="m449.88,601.58l0.56,-0.31c1.55,-0.85 3,-1.75 4.35,-2.67a54.15,54.15 0 0 0 7.18,-5.83a41.5,41.5 0 0 0 5.49,-6.39a26,26 0 0 0 2,-3.44a16.75,16.75 0 0 0 0.74,-1.81a10,10 0 0 0 0.48,-1.88c-1,0.36 -1.85,0.76 -2.69,1.16s-1.65,0.83 -2.43,1.26a50.27,50.27 0 0 0 -4.35,2.67a55,55 0 0 0 -7.2,5.83a41,41 0 0 0 -5.49,6.38a26,26 0 0 0 -2,3.44a15.67,15.67 0 0 0 -0.66,1.59l4.02,0z" class="cls-191"/>
    <path id="svg_281" d="m1130,321.9l54.57,0.26l-5.81,-9.32a5.31,5.31 0 0 0 -3.63,-1.55a5.4,5.4 0 0 0 -4.13,2.07l-6.21,6.47l-3.49,-4.27a4.88,4.88 0 0 0 -2.72,-3.1c-2.07,-0.76 -4.75,0.34 -6.08,2.84l-2.58,4.79a48.42,48.42 0 0 1 -5.82,-5.05c-1.72,-1.74 -2.42,-2.73 -3.75,-3c-2.2,-0.4 -4.33,1.51 -5.56,2.84l-4.79,7.02z" class="cls-192"/>
    <path id="svg_282" d="m542.25,298.3a17.17,17.17 0 0 1 -2.46,-6c-0.38,-1.9 -0.8,-4 0.26,-5.95c0.62,-1.18 2,-2.82 3.36,-2.59c0.91,0.15 1.49,1.11 2.33,3.11a45.33,45.33 0 0 1 2.59,8.4l-6.08,3.03z" class="cls-193"/>
    <path id="svg_283" d="m537.33,291.05c-1.48,-0.81 -1.23,-4 -0.9,-5.56a10.6,10.6 0 0 1 4.78,-6.46c0.53,-1.65 0.92,-1.95 1.17,-1.94c0.8,0 1.27,3.34 1.42,4.39c0.35,2.46 0.52,3.68 0.13,4.92c-1,3.12 -4.85,5.6 -6.6,4.65z" class="cls-194"/>
    <path id="svg_284" d="m530.22,335.67a23.92,23.92 0 0 0 -0.26,11.9a23,23 0 0 0 1.17,3.49a29.21,29.21 0 0 1 7,-5.95c6.43,-3.9 11.78,-3.57 22.63,-5.82a132.73,132.73 0 0 0 13.32,-3.49l-0.9,-7.24l-42.96,7.11z" class="cls-7"/>
    <path id="svg_285" d="m598.44,409.19q0.06,8.54 0.13,17.07a22.19,22.19 0 0 0 4.78,2.59c4.32,1.67 7.86,1.44 12.16,1.16c2.95,-0.19 5.26,-0.36 5.56,-1.42s-1.57,-2.45 -2.46,-3.11a13.77,13.77 0 0 0 -7,-2.58q0.25,-8.67 0.52,-17.33l-13.69,3.62z" class="cls-195"/>
    <path id="svg_286" d="m637.88,403l10.74,14.49a13.75,13.75 0 0 0 2.71,-0.13c6.93,-1.1 10.86,-7.8 11.9,-9.7c0.51,-1.65 0.51,-2.68 0,-3.11q-1.39,-1.17 -7.89,3.75l-9.7,-10.47l-7.76,5.17z" class="cls-195"/>
    <path id="svg_287" d="m617.29,379.43c2.12,3 3.86,5.77 5.27,8.1c6.81,11.23 9.39,18.84 15.52,19.52a11.27,11.27 0 0 0 9.05,-3.49c2.23,-2.43 3.16,-5.46 2.71,-6.33c-3,-6 -4.17,-9.61 -10.08,-19.27c-5.17,-8.44 -10.77,-17.6 -11.77,-26.9a10.64,10.64 0 0 0 -2.33,-6.21c-2.63,-3 -6.74,-3.24 -9.83,-3.49c-9.91,-0.79 -18.72,-2.18 -22.89,-3c-0.71,-0.14 -6.3,-1.35 -17.46,-3.76a31.7,31.7 0 0 0 -7,-1c-5.3,-0.06 -7.18,1.56 -13.32,2.85c-7.69,1.6 -7.75,-0.32 -12.67,1.42c-4.33,1.53 -12,5.43 -10.87,10.21a17.52,17.52 0 0 0 1.81,4.66c3.3,5.77 9.15,8 15,10.09a55.39,55.39 0 0 0 17.84,3.23l29.36,0c0.06,29.65 0,41.83 0,43.52l0,0.07c0.07,2.39 6.54,5 11.77,4.65a15.82,15.82 0 0 0 9.7,-4.66q0.08,-15.11 0.16,-30.21l0.09,-18.28c0,-0.68 1,-3.14 0.13,-5.82a10.25,10.25 0 0 0 -4.78,-5.31a14.43,14.43 0 0 0 -7.63,-1.68c-4.49,0.17 -13.44,-0.88 -32.46,-5.43" class="cls-2"/>
    <path id="svg_288" d="m528.61,338.84c0,-0.1 -1.14,-23.78 -1.14,-23.78c1.11,23.3 0,-0.53 0,-0.53c0,-0.63 -3.16,-2.18 -3.75,-3.24c-1.45,-2.59 5.69,-8.4 5.69,-8.4c8.82,-7.18 21.76,-12.85 31.17,-16.43c3,0.46 8.16,1.74 11.12,5.95c2.64,3.76 2.21,8 1.94,12.55a193.17,193.17 0 0 0 0.26,25.73l-45.29,8.15z" class="cls-10"/>
    <path id="svg_289" d="m555.63,274.82c0.64,0.82 4.82,6.11 6.6,6.34c0.27,0 1,0.13 1.29,-0.26a1,1 0 0 0 0.13,-0.77c-0.12,-0.73 -1.44,-9 -4.52,-8.93c-0.34,0.01 -1.86,0.13 -3.5,3.62z" class="cls-193"/>
    <path id="svg_290" d="m562.62,269.78c0.63,0.81 4.81,6.1 6.59,6.34c0.27,0 1,0.13 1.3,-0.26a1,1 0 0 0 0.12,-0.78c-0.11,-0.73 -1.43,-9 -4.52,-8.92c-0.34,0 -1.86,0.13 -3.49,3.62z" class="cls-193"/>
    <path id="svg_291" d="m557.64,294.8c0.27,-0.22 6.22,-5.18 4.91,-11a8.22,8.22 0 0 0 -1.55,-3.23l2.72,-1.29a15.45,15.45 0 0 1 3,6.2a16.61,16.61 0 0 1 -2.2,12" class="cls-196"/>
    <path id="svg_292" d="m568.63,299.2c1.27,-0.89 6.71,-4.9 6.47,-10.09c-0.12,-2.49 -1.52,-4.66 -4,-8.53a51.37,51.37 0 0 0 -3.62,-4.92l3.62,-1.94a49.58,49.58 0 0 1 6.85,6.86c3.27,4 4.9,6 5.43,9a14.64,14.64 0 0 1 -4.91,13.06a15.18,15.18 0 0 1 -8.28,3.62" class="cls-196"/>
    <polyline id="svg_293" points="609.2999877929688,212.87998962402344 564.0400085449219,261.7599792480469 567.5299987792969,265.6399841308594 631.030029296875,229.9499969482422 " class="cls-197"/>
    <path id="svg_294" d="m546.65,281c0.14,0.85 0.43,1.77 1,1.94c0.92,0.25 2.09,-1.38 2.33,-1.69c1.51,-2 8.49,-7.29 27.29,-19.52a9.5,9.5 0 0 1 -7.12,-9.31l-23.5,28.58z" class="cls-198"/>
    <path id="svg_295" d="m571.73,251.87c1.25,-0.7 3.34,1.08 4.66,2.2s3.29,2.79 3.23,5.17a2.73,2.73 0 0 1 -0.77,2.2c-1.66,1.16 -6.36,-1.16 -7.63,-4.79c-0.59,-1.65 -0.63,-4.14 0.51,-4.78z" class="cls-199"/>
    <circle id="svg_296" r="2.97" cy="343.62" cx="1171.2" class="cls-2"/>
    <circle id="svg_297" r="2.97" cy="360.95" cx="1114.43" class="cls-2"/>
    <circle id="svg_298" r="2.97" cy="413.46" cx="1124.39" class="cls-2"/>
    <circle id="svg_299" r="2.97" cy="400.27" cx="950.84" class="cls-2"/>
    <circle id="svg_300" r="2.97" cy="421.05211" cx="936.27944" class="cls-2"/>
    <circle id="svg_301" r="2.97" cy="545.24" cx="1027.66" class="cls-200"/>
    <circle id="svg_302" r="2.97" cy="494.54" cx="1049" class="cls-200"/>
    <circle id="svg_303" r="2.97" cy="498.03" cx="1130.6" class="cls-200"/>
    <circle id="svg_304" r="2.97" cy="501.27" cx="1137.97" class="cls-200"/>
    <circle id="svg_305" r="2.97" cy="522.35" cx="1215.04" class="cls-200"/>
    <circle id="svg_306" r="2.97" cy="542.26" cx="1205.09" class="cls-200"/>
    <circle id="svg_307" r="2.97" cy="573.69" cx="1203.79" class="cls-200"/>
    <circle id="svg_308" r="2.97" cy="443.85" cx="436.01" class="cls-200"/>
    <circle id="svg_309" r="2.97" cy="465.83" cx="342.9" class="cls-200"/>
    <circle id="svg_310" r="2.97" cy="440.87" cx="272.68" class="cls-200"/>
    <circle id="svg_311" r="2.97" cy="416.3" cx="271" class="cls-200"/>
    <circle id="svg_312" r="2.97" cy="408.54" cx="248.24" class="cls-200"/>
    <circle id="svg_313" r="2.97" cy="397.81" cx="283.02" class="cls-200"/>
    <circle id="svg_314" r="2.97" cy="302.37" cx="291.82" class="cls-200"/>
    <circle id="svg_315" r="2.97" cy="244.17" cx="275.65" class="cls-200"/>
    <circle id="svg_316" r="2.97" cy="252.45" cx="380.27" class="cls-200"/>
    <circle id="svg_317" r="2.97" cy="267.71" cx="438.99" class="cls-200"/>
    <circle id="svg_318" r="2.97" cy="300.43" cx="451.92" class="cls-200"/>
    <circle id="svg_319" r="2.97" cy="447.21" cx="960.28" class="cls-200"/>
    <circle id="svg_320" r="2.97" cy="487.82" cx="967.52" class="cls-200"/>
    <circle id="svg_321" r="2.97" cy="528.04" cx="974.77" class="cls-200"/>
    <path id="svg_322" d="m290.91,252.32l54.58,0.26l-5.82,-9.31a5.26,5.26 0 0 0 -3.62,-1.55a5.36,5.36 0 0 0 -4.14,2.07l-6.21,6.46l-3.49,-4.25a4.9,4.9 0 0 0 -2.72,-3.1c-2.06,-0.76 -4.75,0.34 -6.08,2.85l-2.58,4.78a48.51,48.51 0 0 1 -5.82,-5c-1.71,-1.75 -2.41,-2.73 -3.75,-3c-2.19,-0.4 -4.33,1.51 -5.56,2.85l-4.79,6.94z" class="cls-201"/>
    <path id="svg_323" d="m967.66,400.91a20.94,20.94 0 0 0 0.29,-4.34a19.22,19.22 0 0 0 -0.69,-4.37a17.77,17.77 0 0 0 -1.75,-4.16a18.88,18.88 0 0 0 -2.77,-3.68a19.32,19.32 0 0 1 6.09,7.24a21,21 0 0 1 1.62,4.63a23.9,23.9 0 0 1 0.56,4.94l-3.35,-0.26z" class="cls-4"/>
    <path id="svg_324" d="m972.44,396.26a19.7,19.7 0 0 0 0.29,-4.35a18.7,18.7 0 0 0 -2.43,-8.52a19.3,19.3 0 0 0 -2.78,-3.69a19.42,19.42 0 0 1 3.46,3.2a19.09,19.09 0 0 1 2.63,4a21.18,21.18 0 0 1 1.62,4.63a22.69,22.69 0 0 1 0.56,4.95l-3.35,-0.22z" class="cls-4"/>
    <path id="svg_325" d="m978.52,396.9a19.65,19.65 0 0 0 0.29,-4.34a18.69,18.69 0 0 0 -0.69,-4.37a18.16,18.16 0 0 0 -1.74,-4.16a18.93,18.93 0 0 0 -2.78,-3.68a19.32,19.32 0 0 1 6.09,7.24a21.18,21.18 0 0 1 1.62,4.63a22.67,22.67 0 0 1 0.56,4.94l-3.35,-0.26z" class="cls-4"/>
    <path id="svg_326" d="m427.21,227.62a19.65,19.65 0 0 1 -0.29,-4.34a18.69,18.69 0 0 1 2.43,-8.53a18.93,18.93 0 0 1 2.78,-3.68a19.39,19.39 0 0 0 -6.13,7.23a20.67,20.67 0 0 0 -1.62,4.63a23.33,23.33 0 0 0 -0.57,4.95l3.4,-0.26z" class="cls-202"/>
    <path id="svg_327" d="m422.42,223a21,21 0 0 1 -0.29,-4.35a19.31,19.31 0 0 1 0.69,-4.37a17.69,17.69 0 0 1 1.75,-4.15a19.25,19.25 0 0 1 2.77,-3.69a19.32,19.32 0 0 0 -6.09,7.24a21.18,21.18 0 0 0 -1.62,4.63a24,24 0 0 0 -0.56,4.94l3.35,-0.25z" class="cls-202"/>
    <path id="svg_328" d="m416.34,223.61a20.94,20.94 0 0 1 -0.29,-4.34a19.22,19.22 0 0 1 0.69,-4.37a18.66,18.66 0 0 1 1.75,-4.16a18.88,18.88 0 0 1 2.77,-3.68a19.36,19.36 0 0 0 -3.46,3.2a18.93,18.93 0 0 0 -2.62,4a20,20 0 0 0 -1.62,4.63a23.24,23.24 0 0 0 -0.57,4.94l3.35,-0.22z" class="cls-202"/>
    <polygon id="svg_329" points="1175.080078125,478.3800048828125 1134.47998046875,478.3800048828125 1134.8699951171875,476.69000244140625 1136.080078125,471.5199890136719 1138.3499755859375,461.82000732421875 1139.5599365234375,456.6499938964844 1141.8199462890625,446.95001220703125 1143.030029296875,441.7799987792969 1145.300048828125,432.0799865722656 1146.510009765625,426.9100036621094 1148.77001953125,417.2099914550781 1149.97998046875,412.0299987792969 1152.25,402.3299865722656 1153.4599609375,397.1600036621094 1156.330078125,384.8800048828125 1158.7999267578125,397.1600036621094 1159.830078125,402.3299865722656 1161.780029296875,412.0299987792969 1162.8199462890625,417.2099914550781 1164.760009765625,426.9100036621094 1165.7999267578125,432.0799865722656 1167.739990234375,441.7799987792969 1168.780029296875,446.95001220703125 1170.72998046875,456.6499938964844 1171.760009765625,461.82000732421875 1173.7099609375,471.5199890136719 1174.75,476.69000244140625 1175.080078125,478.3800048828125 " class="cls-203"/>
    <polygon id="svg_330" points="1159.830078125,402.3299865722656 1152.25,402.3299865722656 1153.4599609375,397.1600036621094 1158.7999267578125,397.1600036621094 1159.830078125,402.3299865722656 " class="cls-5"/>
    <polygon id="svg_331" points="1162.8199462890625,417.2099914550781 1148.77001953125,417.2099914550781 1149.97998046875,412.0299987792969 1161.780029296875,412.0299987792969 1162.8199462890625,417.2099914550781 " class="cls-5"/>
    <polygon id="svg_332" points="1165.7999267578125,432.0799865722656 1145.300048828125,432.0799865722656 1146.510009765625,426.9100036621094 1164.760009765625,426.9100036621094 1165.7999267578125,432.0799865722656 " class="cls-5"/>
    <polygon id="svg_333" points="1168.780029296875,446.95001220703125 1141.8199462890625,446.95001220703125 1143.030029296875,441.7799987792969 1167.739990234375,441.7799987792969 1168.780029296875,446.95001220703125 " class="cls-5"/>
    <polygon id="svg_334" points="1171.760009765625,461.82000732421875 1138.3499755859375,461.82000732421875 1139.5599365234375,456.6499938964844 1170.72998046875,456.6499938964844 1171.760009765625,461.82000732421875 " class="cls-5"/>
    <polygon id="svg_335" points="1174.75,476.69000244140625 1134.8699951171875,476.69000244140625 1136.080078125,471.5199890136719 1173.7099609375,471.5199890136719 1174.75,476.69000244140625 " class="cls-5"/>
    <path id="svg_336" d="m336.23,566.44a38.92,38.92 0 0 1 -1.23,7.76a38.18,38.18 0 0 1 -13.37,20.44c-6.35,5 -14,7.56 -21.3,6.85a29,29 0 0 1 -15.61,-6.85a36.47,36.47 0 0 1 -6.94,-7.76a39,39 0 0 1 -6.46,-20.44a41,41 0 0 1 0.17,-5.17q1.32,-3.75 2.63,-7.5l2.73,-7.76l4.44,-12.67c0.91,-2.59 1.81,-5.18 2.72,-7.76q2.22,-6.34 4.45,-12.68c0.9,-2.58 1.81,-5.17 2.72,-7.75l4.44,-12.68q1.36,-3.87 2.72,-7.76q2.69,-7.62 5.36,-15.26q2.68,7.64 5.39,15.26c0.91,2.59 1.83,5.18 2.74,7.76q2.25,6.34 4.48,12.68l2.75,7.75q2.23,6.35 4.48,12.68l2.74,7.76l4.5,12.66c0.91,2.59 1.83,5.17 2.74,7.76s1.77,5 2.65,7.5a38.94,38.94 0 0 1 0.06,5.18z" class="cls-204"/>
    <path id="svg_337" d="m311.85,492.47l-16.21,0q1.36,-3.87 2.72,-7.76l10.75,0c0.89,2.59 1.83,5.18 2.74,7.76z" class="cls-205"/>
    <path id="svg_338" d="m319.08,512.9l-30.6,0c0.9,-2.58 1.81,-5.17 2.72,-7.75l25.13,0l2.75,7.75z" class="cls-205"/>
    <path id="svg_339" d="m326.3,533.34l-45,0c0.91,-2.59 1.81,-5.18 2.72,-7.76l39.53,0l2.75,7.76z" class="cls-205"/>
    <path id="svg_340" d="m333.52,553.77l-59.38,0l2.73,-7.76l53.91,0c0.91,2.59 1.83,5.17 2.74,7.76z" class="cls-205"/>
    <path id="svg_341" d="m336.23,566.44a38.92,38.92 0 0 1 -1.23,7.76l-62.66,0a38.5,38.5 0 0 1 -1,-7.76l64.89,0z" class="cls-205"/>
    <path id="svg_342" d="m329.08,586.88a38.08,38.08 0 0 1 -7.43,7.76l-36.91,0a36.47,36.47 0 0 1 -6.94,-7.76l51.28,0z" class="cls-205"/>
    <path id="svg_231" d="m811.05,601.58q32.18,-108 64.33,-215.89l26.9,1.78q29.63,107.05 59.26,214.11l14,0q-29.54,-108.46 -58.97,-216.92a12,12 0 0 0 -3.75,-11.24a10.8,10.8 0 0 0 -9.44,-2.19l-381,-1.1a22.84,22.84 0 0 0 -10.46,8.87a25.05,25.05 0 0 0 -3.75,12.33l-64.92,210.25l367.8,0z" class="cls-3"/>
    <line stroke-linecap="null" stroke-linejoin="null" id="svg_347" y2="168.45313" x2="950.5" y1="58.45313" x1="890.5" stroke-opacity="null" stroke-dasharray="2,2" stroke-width="null" stroke="null" fill="none"/>
    <path id="svg_350" d="m883.5,389.45313l-53.5,207.54687l53.5,-207.54687z" stroke-opacity="null" stroke-width="NaN" stroke="null" fill="#4c4c4c"/>
    <path id="svg_351" d="m876.84211,386.84211" opacity="0.5" stroke-opacity="null" stroke-width="null" stroke="null" fill="#b2b2b2"/>
   </g>
  </g>
  <path stroke="null" id="svg_352" d="m876.27613,384.80404c0,0 -64.00321,215.08098 -64.00324,215.08096c0.00003,0.00002 145.60733,0.00002 145.60729,0c0.00004,0.00002 -58.13621,-212.42563 -58.13624,-212.42565" stroke-opacity="null" stroke-width="null" fill="#999999"/>
 </g>
</svg>