<svg xmlns="http://www.w3.org/2000/svg" xmlns:xlink="http://www.w3.org/1999/xlink" viewBox="0 0 1125.31 478.6"><defs><style>.cls-1{fill:none;}.cls-2{fill:#ad4c8f;}.cls-3{fill:#20243f;}.cls-4{fill:#ff6448;}.cls-5{fill:#ff9b4f;}.cls-6{fill:#52398a;}.cls-7{fill:#fff;}.cls-8{fill:#202441;}.cls-9{fill:#ff634a;}.cls-10{fill:#533b89;}.cls-11{fill:#fd9e4e;}.cls-12{fill:#c159a4;}.cls-13{clip-path:url(#clip-path);}.cls-14{fill:#fefefe;}.cls-15{fill:#fdfdfd;}.cls-16{fill:#fcfcfc;}.cls-17{fill:#fbfbfb;}.cls-18{fill:#fafafa;}.cls-19{fill:#f9f9f9;}.cls-20{fill:#f8f8f8;}.cls-21{fill:#f7f7f7;}.cls-22{fill:#f6f6f6;}.cls-23{fill:#f5f5f5;}.cls-24{fill:#f4f4f4;}.cls-25{fill:#f3f3f3;}.cls-26{fill:#f2f2f2;}.cls-27{fill:#f1f1f1;}.cls-28{fill:#f0f0f0;}.cls-29{fill:#efefef;}.cls-30{fill:#eee;}.cls-31{fill:#ededed;}.cls-32{fill:#ececec;}.cls-33{fill:#ebebeb;}.cls-34{fill:#eaeaea;}.cls-35{fill:#e9e9e9;}.cls-36{fill:#e8e8e8;}.cls-37{fill:#e7e7e7;}.cls-38{fill:#e6e6e6;}.cls-39{fill:#e5e5e5;}.cls-40{fill:#e4e4e4;}.cls-41{fill:#e3e3e3;}.cls-42{fill:#e2e2e2;}.cls-43{fill:#e1e1e1;}.cls-44{fill:#e0e0e0;}.cls-45{fill:#dfdfdf;}.cls-46{fill:#dedede;}.cls-47{fill:#ddd;}.cls-48{fill:#dcdcdc;}.cls-49{fill:#dbdbdb;}.cls-50{fill:#dadada;}.cls-51{fill:#d9d9d9;}.cls-52{fill:#d8d8d8;}.cls-53{fill:#d7d7d7;}.cls-54{fill:#d6d6d6;}.cls-55{fill:#d5d5d5;}.cls-56{fill:#d4d4d4;}.cls-57{fill:#d3d3d3;}.cls-58{fill:#d2d2d2;}.cls-59{fill:#d1d1d1;}.cls-60{fill:#d0d0d0;}.cls-61{fill:#cfcfcf;}.cls-62{fill:#cecece;}.cls-63{fill:#cdcdcd;}.cls-64{fill:#ccc;}.cls-65{fill:#cbcbcb;}.cls-66{fill:#cacaca;}.cls-67{fill:#c9c9c9;}.cls-68{fill:#c8c8c8;}.cls-69{fill:#c7c7c7;}.cls-70{fill:#c6c6c6;}.cls-71{fill:#c5c5c5;}.cls-72{fill:#c4c4c4;}.cls-73{fill:#c3c3c3;}.cls-74{fill:#c2c2c2;}.cls-75{fill:#c1c1c1;}.cls-76{fill:silver;}.cls-77{fill:#bfbfbf;}.cls-78{fill:#bebebe;}.cls-79{fill:#bdbdbd;}.cls-80{fill:#bcbcbc;}.cls-81{fill:#bbb;}.cls-82{fill:#bababa;}.cls-83{fill:#b9b9b9;}.cls-84{fill:#b8b8b8;}.cls-85{fill:#b7b7b7;}.cls-86{fill:#b6b6b6;}.cls-87{fill:#b5b5b5;}.cls-88{fill:#b4b4b4;}.cls-89{fill:#b3b3b3;}.cls-90{fill:#b2b2b2;}.cls-91{fill:#b1b1b1;}.cls-92{fill:#b0b0b0;}.cls-93{fill:#afafaf;}.cls-94{fill:#aeaeae;}.cls-95{fill:#adadad;}.cls-96{fill:#acacac;}.cls-97{fill:#ababab;}.cls-98{fill:#a9a9a9;}.cls-99{fill:#a8a8a8;}.cls-100{fill:#a7a7a7;}.cls-101{fill:#a6a6a6;}.cls-102{fill:#a5a5a5;}.cls-103{fill:#a4a4a4;}.cls-104{fill:#a3a3a3;}.cls-105{fill:#a2a2a2;}.cls-106{fill:#a1a1a1;}.cls-107{fill:#a0a0a0;}.cls-108{fill:#9f9f9f;}.cls-109{fill:#9e9e9e;}.cls-110{fill:#9d9d9d;}.cls-111{fill:#9c9c9c;}.cls-112{fill:#9b9b9b;}.cls-113{fill:#9a9a9a;}.cls-114{fill:#999;}.cls-115{fill:#989898;}.cls-116{fill:#979797;}.cls-117{fill:#969696;}.cls-118{fill:#959595;}.cls-119{fill:#949494;}.cls-120{fill:#939393;}.cls-121{fill:#929292;}.cls-122{fill:#919191;}.cls-123{fill:#8f8f8f;}.cls-124{fill:#8e8e8e;}.cls-125{fill:#8d8d8d;}.cls-126{fill:#8c8c8c;}.cls-127{fill:#8b8b8b;}.cls-128{fill:#8a8a8a;}.cls-129{fill:#898989;}.cls-130{fill:#888;}.cls-131{fill:#878787;}.cls-132{fill:#868686;}.cls-133{fill:#858585;}.cls-134{fill:#848484;}.cls-135{fill:#838383;}.cls-136{fill:#828282;}.cls-137{fill:#818181;}.cls-138{fill:gray;}.cls-139{fill:#7f7f7f;}.cls-140{fill:#7d7d7d;}.cls-141{fill:#7c7c7c;}.cls-142{fill:#7b7b7b;}.cls-143{fill:#7a7a7a;}.cls-144{fill:#797979;}.cls-145{fill:#787878;}.cls-146{fill:#777;}.cls-147{fill:#767676;}.cls-148{fill:#757575;}.cls-149{fill:#747474;}.cls-150{fill:#737373;}.cls-151{fill:#727272;}.cls-152{fill:#717171;}.cls-153{fill:#707070;}.cls-154{fill:#6f6f6f;}.cls-155{fill:#6d6d6d;}.cls-156{fill:#6c6c6c;}.cls-157{fill:#6b6b6b;}.cls-158{fill:#6a6a6a;}.cls-159{fill:#696969;}.cls-160{fill:#686868;}.cls-161{fill:#676767;}.cls-162{fill:#666;}.cls-163{fill:#656565;}.cls-164{fill:#646464;}.cls-165{fill:#636363;}.cls-166{fill:#626262;}.cls-167{fill:#616161;}.cls-168{fill:#5f5f5f;}.cls-169{fill:#5e5e5e;}.cls-170{fill:#5d5d5d;}.cls-171{fill:#5c5c5c;}.cls-172{fill:#5b5b5b;}.cls-173{fill:#5a5a5a;}.cls-174{fill:#595959;}.cls-175{fill:#585858;}.cls-176{fill:#575757;}.cls-177{fill:#565656;}.cls-178{fill:#555;}.cls-179{fill:#545454;}.cls-180{fill:#525252;}.cls-181{fill:#515151;}.cls-182{fill:#505050;}.cls-183{fill:#4f4f4f;}.cls-184{fill:#4e4e4e;}.cls-185{fill:#4d4d4d;}.cls-186{fill:#ff644b;}.cls-187{fill:#191e31;}.cls-188{fill:#ffb884;}.cls-189{fill:#fd9c4d;}.cls-190{fill:#6350a1;}.cls-191{fill:#feffff;}.cls-192{fill:#fd9c4f;}.cls-193{fill:#f46c56;}.cls-194{fill:#d35a52;}.cls-195{fill:#e7e8ec;}.cls-196{fill:#473675;}.cls-197{fill:url(#linear-gradient);}.cls-198{fill:#ac4b8e;}.cls-199{fill:#313747;}.cls-200{fill:#f76150;}.cls-201{fill:#66509b;}.cls-202{fill:#ff9c50;}.cls-203{fill:#ffbeae;}.cls-204{fill:#fb634b;}.cls-205{fill:#af4c8f;}</style><clipPath id="clip-path"><polygon id="SVGID" class="cls-1" points="698.15 257.27 628.84 480.69 791.58 480.69 728.03 258.92 698.15 257.27"/></clipPath><linearGradient id="linear-gradient" x1="443.14" y1="99.31" x2="392.59" y2="143.41" gradientUnits="userSpaceOnUse"><stop offset="0" stop-color="#fff" stop-opacity="0.4"/><stop offset="1" stop-color="#4d4d4d"/></linearGradient></defs><title>Asset 1</title><g id="Layer_2" data-name="Layer 2"><g id="Layer_1-2" data-name="Layer 1"><polygon class="cls-2" points="223.67 13.58 250.7 95.96 195.35 95.96 223.67 13.58"/><line class="cls-3" x1="844.03" y1="233.17" x2="844.03" y2="278.04"/><rect x="843.38" y="233.17" width="1.29" height="44.87"/><circle class="cls-4" cx="844.03" cy="224.37" r="10.6"/><path class="cls-5" d="M58.74,478.58H555.46q-.42-105.76-.85-211.53a88.4,88.4,0,0,0-17.72-42.16c-17.42-22.31-40.44-29.22-48.11-31.17l-92.21.78c-5.61.2-22.72.09-38.4-11.77A61,61,0,0,1,338.77,157a66.15,66.15,0,0,1-5-22.76c-.18-2.74-1.51-19-15.64-30.65a44.37,44.37,0,0,0-32.2-9.7H214.75A17.16,17.16,0,0,0,204.4,77.46c-7.7-3.11-14.71,1.25-15.39,1.68,0-12-6.87-22.13-16.42-25.08-10.1-3.12-19.29,3-20.69,4a27.11,27.11,0,0,0-9.7,12.41l-15,.65a19.66,19.66,0,0,0-13.06,24.05l-17.33-.39A21.49,21.49,0,0,0,81,110.57q-.52,41.13-1,82.25a25.12,25.12,0,0,0-23.41,30Q57.67,350.7,58.74,478.58Z"/><path class="cls-6" d="M93.77,478.58l258.71-5.26q-1-89.37-1.94-178.73c-11.45.46-49.66.54-84.19-26.51a125.56,125.56,0,0,1-37-47.59L55,222.56q-1.76,97.9-3.5,195.8A59.14,59.14,0,0,0,43,429.87a58.38,58.38,0,0,0-5.43,12.93,25.72,25.72,0,0,0-15.13-2.46C11.33,442.1,3.52,451.62,1,460.9a29.73,29.73,0,0,0,.83,17.68Z"/><path class="cls-5" d="M315.81,478.58q-.53-7.32-1-14.64c-3.57-21.86-18.28-37.43-34.4-38.8-9.6-.81-17.48,3.61-21.6,6.47A58.89,58.89,0,0,0,257.23,414c-4.56-18.62-19.82-40.37-45.13-46.42-2.77-.67-33-7.36-54.06,14-13.39,13.55-15.17,30.37-15.52,35.57-19.52-8.59-41.24-7.08-56,4.78C70.25,435,68.72,455.65,68.16,463.17a68.14,68.14,0,0,0,.62,15.41Z"/><path class="cls-4" d="M982.79,478.58V387.06q.78-15,1.55-30c-.16-1.84-1.13-15.11,8.92-25a31.36,31.36,0,0,1,31.69-7q.51-56.19,1-112.38a12.9,12.9,0,0,0-3.23-10.21,12.52,12.52,0,0,0-7.76-3.75l-62.07-.52c-8,.4-21.74,2.44-33.63,12.16a60.52,60.52,0,0,0-12.8,15c-8.83,13.82-6.78,20.77-14,30.91-3.27,4.61-9,10.67-19.65,15.51l-149.11-3.49q-6.69,105.12-13.39,210.24Z"/><polygon class="cls-7" points="259.98 478.57 228.75 339.86 196.03 478.57 259.98 478.57"/><polygon class="cls-7" points="201.18 478.57 182.99 397.79 163.94 478.57 201.18 478.57"/><rect class="cls-8" x="925.64" y="346.39" width="3.89" height="18.41"/><path class="cls-2" d="M935.52,339.78a8,8,0,1,1-15.9,0v-.26h0l1.52-4.42,6.64-19.3,6.43,19.61h0l1.3,4C935.52,339.5,935.52,339.64,935.52,339.78Z"/><rect class="cls-8" x="944.53" y="345.75" width="3.89" height="18.41"/><path class="cls-2" d="M954.4,339.14a7.95,7.95,0,1,1-15.9,0v-.27h0l1.52-4.41,6.64-19.3,6.43,19.6h0l1.3,4C954.4,338.86,954.4,339,954.4,339.14Z"/><rect class="cls-8" x="989.11" y="177" width="7.09" height="33.52"/><path class="cls-2" d="M1007.09,165a14.48,14.48,0,1,1-29,0c0-.16,0-.32,0-.48h0l2.77-8L993,121.3,1004.71,157h0l2.36,7.2C1007.09,164.46,1007.09,164.71,1007.09,165Z"/><path class="cls-2" d="M1125.3,478.23a16.68,16.68,0,0,0-5-12.41c-6-5.63-13.76-4.16-14.49-4a17.87,17.87,0,0,0-4.13-10.48c-4.64-5.34-12.56-7.31-20.31-5.17l-14.61-50.69a62.94,62.94,0,0,0-15.52-23.41,63.82,63.82,0,0,0-33.62-16.43H908.3a53,53,0,0,0-10.47-25.21,51.72,51.72,0,0,0-17-14.23,51,51,0,0,0-22.76-5.69l-165.79-1.29V471.77Z"/><polygon class="cls-9" points="992.18 478.57 965.59 397.54 937.73 478.57 992.18 478.57"/><polygon class="cls-7" points="1032.15 478.57 1003.49 391.2 973.45 478.57 1032.15 478.57"/><rect class="cls-8" x="908.86" y="439.59" width="11.17" height="38.99"/><path class="cls-5" d="M937.21,420.6a22.83,22.83,0,1,1-45.65,0c0-.25,0-.5,0-.75h0l4.36-12.68L915,351.75l18.47,56.3h0l3.73,11.36C937.2,419.81,937.21,420.2,937.21,420.6Z"/><rect class="cls-8" x="827.86" y="393.78" width="12.03" height="56.9"/><polygon class="cls-10" points="835.11 335.72 867.69 396.37 800.96 396.37 835.11 335.72"/><polygon class="cls-10" points="834.2 287.22 866.79 347.88 800.06 347.88 834.2 287.22"/><rect class="cls-8" x="171.71" y="63.74" width="7.19" height="34.03"/><polygon class="cls-10" points="176.04 29.01 195.53 65.28 155.62 65.28 176.04 29.01"/><polygon class="cls-10" points="175.5 0 194.99 36.28 155.08 36.28 175.5 0"/><path class="cls-5" d="M921.48,391.46l.28-.82c0,.27,0,.54,0,.82Z"/><path class="cls-11" d="M755.44,284.25a7.82,7.82,0,0,1,1.06.71,9.73,9.73,0,0,1,.89.78,13.61,13.61,0,0,1,1.49,1.67,16.3,16.3,0,0,1,3.11,7.82,13.83,13.83,0,0,1,.07,2.24c0,.39-.07.78-.13,1.18a7.89,7.89,0,0,1-.28,1.25,7.85,7.85,0,0,1-1.06-.72,11.36,11.36,0,0,1-.9-.77,13.61,13.61,0,0,1-1.49-1.67,16.33,16.33,0,0,1-2.06-3.71,16.16,16.16,0,0,1-1-4.12,13.8,13.8,0,0,1-.07-2.24c0-.38.06-.78.12-1.18A8.74,8.74,0,0,1,755.44,284.25Z"/><path class="cls-12" d="M787.26,349.56a7.75,7.75,0,0,1,1.24.29c.38.12.75.25,1.11.4a13.86,13.86,0,0,1,2,1,16.41,16.41,0,0,1,5.69,6.2,13.63,13.63,0,0,1,.86,2.07c.12.37.22.75.31,1.15a9.55,9.55,0,0,1,.18,1.26,7.63,7.63,0,0,1-1.25-.29,11.11,11.11,0,0,1-1.11-.4,12.88,12.88,0,0,1-2-1,15.6,15.6,0,0,1-3.25-2.73A16,16,0,0,1,788.6,354a13.2,13.2,0,0,1-.85-2.07,10,10,0,0,1-.31-1.14A7.08,7.08,0,0,1,787.26,349.56Z"/><path class="cls-12" d="M794,379.3a5.77,5.77,0,0,1,.9.51,9.14,9.14,0,0,1,.75.56,7.77,7.77,0,0,1,1.16,1.22,8.18,8.18,0,0,1,1.41,2.71,8.28,8.28,0,0,1,.35,3,8.43,8.43,0,0,1-.3,1.66,6.62,6.62,0,0,1-.31.88,5.08,5.08,0,0,1-.47.93,6.41,6.41,0,0,1-.91-.51,8.94,8.94,0,0,1-.74-.56,8.35,8.35,0,0,1-1.17-1.22,8.15,8.15,0,0,1-1.4-2.71,8.28,8.28,0,0,1-.34-3,7.76,7.76,0,0,1,.3-1.66,8.32,8.32,0,0,1,.3-.88A6.77,6.77,0,0,1,794,379.3Z"/><path class="cls-12" d="M830.32,411.76a6.16,6.16,0,0,1,.19,1.14,9.81,9.81,0,0,1,0,1.07,10.32,10.32,0,0,1-.21,2,12.22,12.22,0,0,1-3.48,6.41,11.23,11.23,0,0,1-1.54,1.23c-.29.19-.6.37-.92.54a7,7,0,0,1-1.07.45,6.22,6.22,0,0,1-.2-1.14,9.81,9.81,0,0,1,0-1.07,11.22,11.22,0,0,1,.2-2,12.35,12.35,0,0,1,3.5-6.4,10.8,10.8,0,0,1,1.55-1.24,9.88,9.88,0,0,1,.91-.53A7,7,0,0,1,830.32,411.76Z"/><path class="cls-12" d="M896.14,368.31a7.14,7.14,0,0,1-.1-1.18,9.72,9.72,0,0,1,0-1.09,12.56,12.56,0,0,1,.36-2,13,13,0,0,1,4-6.4,11.25,11.25,0,0,1,1.65-1.2c.31-.18.63-.35,1-.51a7.56,7.56,0,0,1,1.11-.41,7.1,7.1,0,0,1,.11,1.18,9.78,9.78,0,0,1,0,1.09,10.82,10.82,0,0,1-.36,2,13,13,0,0,1-1.53,3.49,13.34,13.34,0,0,1-2.48,2.9,11.25,11.25,0,0,1-1.65,1.2c-.3.18-.63.35-1,.51A7.55,7.55,0,0,1,896.14,368.31Z"/><path class="cls-11" d="M857,285a11.46,11.46,0,0,1,1,1.2c.29.41.55.82.8,1.23A21.24,21.24,0,0,1,860,290a26.64,26.64,0,0,1,1.58,5.23,25.92,25.92,0,0,1,.49,5.44,20.73,20.73,0,0,1-.23,2.81,14.62,14.62,0,0,1-.28,1.44,10.72,10.72,0,0,1-.45,1.47,11.51,11.51,0,0,1-1-1.19c-.29-.41-.55-.82-.8-1.23a21.24,21.24,0,0,1-1.27-2.52,26.14,26.14,0,0,1-1.57-5.23,26.6,26.6,0,0,1-.49-5.44,22.64,22.64,0,0,1,.23-2.82c.08-.47.17-.95.28-1.44A11.16,11.16,0,0,1,857,285Z"/><path class="cls-11" d="M900.15,295.63a11.05,11.05,0,0,1,.3-1.58c.12-.51.26-1,.42-1.48a24,24,0,0,1,1.12-2.75,29.3,29.3,0,0,1,3-4.93,29,29,0,0,1,3.89-4.26,22.65,22.65,0,0,1,2.35-1.83,15.14,15.14,0,0,1,1.3-.82,10.15,10.15,0,0,1,1.44-.71,11.32,11.32,0,0,1-.29,1.58c-.12.51-.27,1-.42,1.48a24.71,24.71,0,0,1-1.12,2.75,30.13,30.13,0,0,1-6.93,9.18,24,24,0,0,1-2.34,1.84,15.07,15.07,0,0,1-1.3.81A11.37,11.37,0,0,1,900.15,295.63Z"/><path class="cls-11" d="M954.73,232.91a8,8,0,0,1-.14-1.23c0-.4,0-.78,0-1.15a13.12,13.12,0,0,1,.32-2.14,14.73,14.73,0,0,1,1.48-3.79,14.48,14.48,0,0,1,2.46-3.26,12.61,12.61,0,0,1,1.65-1.39,11.45,11.45,0,0,1,1-.61,7.88,7.88,0,0,1,1.13-.53,7.92,7.92,0,0,1,.13,1.24,11,11,0,0,1,0,1.15,13.16,13.16,0,0,1-.32,2.13,14.39,14.39,0,0,1-1.49,3.79,14.78,14.78,0,0,1-2.46,3.26,13.25,13.25,0,0,1-1.65,1.38c-.31.22-.63.42-1,.62A9.7,9.7,0,0,1,954.73,232.91Z"/><path class="cls-11" d="M1015.38,213.64a8.6,8.6,0,0,1,1.12.71q.51.38,1,.78a13.68,13.68,0,0,1,1.63,1.7,17.9,17.9,0,0,1,3.76,8.08,16,16,0,0,1,.25,2.34,10.41,10.41,0,0,1,0,1.24,7.76,7.76,0,0,1-.18,1.31,7.63,7.63,0,0,1-1.12-.7,11,11,0,0,1-1-.78,14.42,14.42,0,0,1-1.63-1.7,17.46,17.46,0,0,1-2.38-3.81,18.14,18.14,0,0,1-1.37-4.28,14.72,14.72,0,0,1-.24-2.34c0-.4,0-.82,0-1.24A7.9,7.9,0,0,1,1015.38,213.64Z"/><path class="cls-11" d="M1009.69,267.44a10.45,10.45,0,0,1-.11,1.4c-.06.45-.15.89-.24,1.31a18.62,18.62,0,0,1-.77,2.43,21.35,21.35,0,0,1-2.32,4.29,20.72,20.72,0,0,1-3.23,3.66,15.64,15.64,0,0,1-2,1.55,12.89,12.89,0,0,1-1.15.68,7.89,7.89,0,0,1-1.28.58,9,9,0,0,1,.1-1.4c.06-.46.15-.89.24-1.31a16.81,16.81,0,0,1,.77-2.43,20.39,20.39,0,0,1,2.33-4.29,21.09,21.09,0,0,1,3.24-3.66,18.45,18.45,0,0,1,2-1.55,12.89,12.89,0,0,1,1.15-.68A8.85,8.85,0,0,1,1009.69,267.44Z"/><path class="cls-11" d="M1018,300.8a7.68,7.68,0,0,1,.25,1.25c.06.41.09.8.11,1.19a13.85,13.85,0,0,1-.11,2.25,16.58,16.58,0,0,1-3.22,7.83,14.64,14.64,0,0,1-1.52,1.66c-.28.26-.59.52-.91.77a9.9,9.9,0,0,1-1.07.7,7.75,7.75,0,0,1-.26-1.25c-.06-.41-.09-.8-.11-1.19a13.87,13.87,0,0,1,.1-2.25,16.17,16.17,0,0,1,1.11-4.12,16.35,16.35,0,0,1,2.13-3.7,13.91,13.91,0,0,1,1.52-1.67,9.89,9.89,0,0,1,.91-.76A7.36,7.36,0,0,1,1018,300.8Z"/><path class="cls-11" d="M949.3,290.46a8,8,0,0,1,.08,1.27,11.37,11.37,0,0,1-.06,1.18,13.82,13.82,0,0,1-.41,2.2,16.28,16.28,0,0,1-1.65,3.9,15.7,15.7,0,0,1-2.61,3.34,12.9,12.9,0,0,1-1.73,1.43,10.84,10.84,0,0,1-1,.62,6.8,6.8,0,0,1-1.15.54,8.07,8.07,0,0,1-.09-1.27,11.56,11.56,0,0,1,.06-1.19,13.91,13.91,0,0,1,.41-2.19,16.29,16.29,0,0,1,4.27-7.24,14.45,14.45,0,0,1,1.73-1.43c.32-.22.65-.42,1-.62A7.3,7.3,0,0,1,949.3,290.46Z"/><path class="cls-12" d="M969.6,358.35a7.31,7.31,0,0,1,1.14.28c.35.12.68.25,1,.39a12.78,12.78,0,0,1,1.75,1,12.39,12.39,0,0,1,2.73,2.57,12.11,12.11,0,0,1,1.86,3.25,10.31,10.31,0,0,1,.55,1.93,8.92,8.92,0,0,1,.14,1.07,6.49,6.49,0,0,1,0,1.17,7,7,0,0,1-1.14-.28c-.35-.12-.69-.25-1-.39a10.45,10.45,0,0,1-1.74-1,12.17,12.17,0,0,1-2.73-2.57,12.38,12.38,0,0,1-1.86-3.25,11.66,11.66,0,0,1-.55-1.93c-.06-.34-.11-.7-.14-1.07A6.49,6.49,0,0,1,969.6,358.35Z"/><path class="cls-12" d="M982.92,388.22a6.35,6.35,0,0,1-.13-1.18,10.23,10.23,0,0,1,0-1.11,11.8,11.8,0,0,1,.31-2,13.14,13.14,0,0,1,1.46-3.58,12.81,12.81,0,0,1,2.41-3,11.55,11.55,0,0,1,1.63-1.26,8.89,8.89,0,0,1,1-.55,7.55,7.55,0,0,1,1.11-.46,6.36,6.36,0,0,1,.13,1.19,8.19,8.19,0,0,1,0,1.11,10.9,10.9,0,0,1-.31,2,12.84,12.84,0,0,1-1.46,3.58,13.07,13.07,0,0,1-2.42,3,11.61,11.61,0,0,1-1.63,1.27,10.92,10.92,0,0,1-1,.54A7.42,7.42,0,0,1,982.92,388.22Z"/><path class="cls-12" d="M943.61,400.25a6.44,6.44,0,0,1,1,.49,7.48,7.48,0,0,1,.86.56,9.85,9.85,0,0,1,1.44,1.26,11.35,11.35,0,0,1,3,6.33,10,10,0,0,1,.05,1.91,7.84,7.84,0,0,1-.13,1,6,6,0,0,1-.28,1.09,7.44,7.44,0,0,1-1-.48,9.28,9.28,0,0,1-.87-.56,9.85,9.85,0,0,1-1.44-1.26,11.31,11.31,0,0,1-3-6.34,10,10,0,0,1-.06-1.91c0-.33.07-.67.13-1A6.35,6.35,0,0,1,943.61,400.25Z"/><path class="cls-12" d="M988,396a6,6,0,0,1,.23,1.1,9.11,9.11,0,0,1,.08,1,10.3,10.3,0,0,1-.13,1.87,10.8,10.8,0,0,1-1.13,3.31,10.67,10.67,0,0,1-2.1,2.78,11,11,0,0,1-1.48,1.16c-.28.17-.58.34-.89.5a7.76,7.76,0,0,1-1,.42,7.06,7.06,0,0,1-.24-1.1c0-.35-.07-.69-.08-1a9.56,9.56,0,0,1,.14-1.88,10.43,10.43,0,0,1,1.13-3.29,10.56,10.56,0,0,1,2.1-2.78,9.24,9.24,0,0,1,1.49-1.16,6.87,6.87,0,0,1,.89-.5A6.13,6.13,0,0,1,988,396Z"/><path class="cls-12" d="M986.78,460.11a32.75,32.75,0,0,0,1,3.37,42.12,42.12,0,0,0,6.46,12,31.35,31.35,0,0,0,2.29,2.64,5.66,5.66,0,0,0,.42.43H999c-.08-.56-.19-1.1-.3-1.63a33.48,33.48,0,0,0-1-3.37,40.33,40.33,0,0,0-2.74-6.27,41.85,41.85,0,0,0-3.73-5.75,33.41,33.41,0,0,0-2.29-2.65c-.41-.42-.84-.84-1.29-1.24a15.2,15.2,0,0,0-1.44-1.16,15.71,15.71,0,0,0,.18,1.84C986.54,459,986.66,459.53,986.78,460.11Z"/><path class="cls-12" d="M1004,466.33a6.5,6.5,0,0,1,.1,1,8.84,8.84,0,0,1,0,.91,7.36,7.36,0,0,1-.32,1.63,8.12,8.12,0,0,1-3.68,4.59,7.52,7.52,0,0,1-1.52.67,7.71,7.71,0,0,1-.89.23,5.16,5.16,0,0,1-1,.13,5.59,5.59,0,0,1-.1-1,6.9,6.9,0,0,1,0-.92,7.38,7.38,0,0,1,.32-1.62,8.19,8.19,0,0,1,3.69-4.59,8.12,8.12,0,0,1,1.52-.67,7.71,7.71,0,0,1,.89-.23A7.26,7.26,0,0,1,1004,466.33Z"/><path class="cls-12" d="M1055.86,448a6.4,6.4,0,0,1-.21-1.06,8.31,8.31,0,0,1-.06-1,9.35,9.35,0,0,1,.17-1.78,9.58,9.58,0,0,1,1.17-3.06,9.47,9.47,0,0,1,2.12-2.5,8.91,8.91,0,0,1,1.48-1,7.28,7.28,0,0,1,.89-.41,5.66,5.66,0,0,1,1-.33,6.4,6.4,0,0,1,.21,1.06,8.31,8.31,0,0,1,.06,1,9.41,9.41,0,0,1-1.34,4.84,9.47,9.47,0,0,1-2.13,2.49,9,9,0,0,1-1.48,1c-.28.14-.57.28-.88.41A6.92,6.92,0,0,1,1055.86,448Z"/><path class="cls-12" d="M1035.68,386.54a8.6,8.6,0,0,1-1.23-.71,13.27,13.27,0,0,1-1.09-.79,17.63,17.63,0,0,1-1.89-1.75,22.19,22.19,0,0,1-4.92-8.53,17.1,17.1,0,0,1-.57-2.52c-.06-.44-.11-.88-.14-1.34a11.42,11.42,0,0,1,0-1.43,9.15,9.15,0,0,1,1.24.71,13.27,13.27,0,0,1,1.09.79,18.76,18.76,0,0,1,1.9,1.75,21.39,21.39,0,0,1,2.93,4,21.65,21.65,0,0,1,2,4.54,17.1,17.1,0,0,1,.57,2.52c.06.43.12.88.14,1.34A8.44,8.44,0,0,1,1035.68,386.54Z"/><path class="cls-7" d="M773.23,478.58H935.14c-.55-5.4-3.71-9.95-8.22-11.73a13.51,13.51,0,0,0-10.34.52,17.52,17.52,0,0,0-7.89-16.68c-7.62-4.71-15.83-.89-17.59,0-7.84,4-10,11.79-10.35,13.06a34,34,0,0,0-19.65-12.42,32.15,32.15,0,0,0-13.06.13c.42-3.61,1.11-13.71-5.18-22.76-8.64-12.43-24.79-14.71-34.27-13.06-19.53,3.41-36.31,28-35.82,60.65C772.92,477.05,773.08,477.81,773.23,478.58Z"/><g class="cls-13"><polygon class="cls-7" points="791.58 478.57 791.58 477.13 629.35 467.61 628.84 476.27 628.84 478.57 791.58 478.57"/><polygon class="cls-7" points="629.35 467.61 629.42 466.44 791.58 475.96 791.58 477.13 629.35 467.61"/><polygon class="cls-14" points="629.42 466.44 629.49 465.28 791.58 474.8 791.58 475.96 629.42 466.44"/><polygon class="cls-14" points="629.49 465.28 629.55 464.12 791.58 473.63 791.58 474.8 629.49 465.28"/><polygon class="cls-15" points="629.55 464.12 629.62 462.95 791.58 472.46 791.58 473.63 629.55 464.12"/><polygon class="cls-16" points="629.62 462.95 629.69 461.79 791.58 471.29 791.58 472.46 629.62 462.95"/><polygon class="cls-17" points="629.69 461.79 629.76 460.63 791.58 470.13 791.58 471.29 629.69 461.79"/><polygon class="cls-18" points="629.76 460.63 629.83 459.46 791.58 468.96 791.58 470.13 629.76 460.63"/><polygon class="cls-18" points="629.83 459.46 629.9 458.3 791.58 467.79 791.58 468.96 629.83 459.46"/><polygon class="cls-19" points="629.9 458.3 629.97 457.14 791.58 466.62 791.58 467.79 629.9 458.3"/><polygon class="cls-20" points="629.97 457.14 630.03 455.97 791.58 465.46 791.58 466.62 629.97 457.14"/><polygon class="cls-21" points="630.03 455.97 630.1 454.81 791.58 464.29 791.58 465.46 630.03 455.97"/><polygon class="cls-22" points="630.1 454.81 630.17 453.65 791.58 463.12 791.58 464.29 630.1 454.81"/><polygon class="cls-23" points="630.17 453.65 630.24 452.48 791.58 461.95 791.58 463.12 630.17 453.65"/><polygon class="cls-24" points="630.24 452.48 630.31 451.32 791.58 460.79 791.58 461.95 630.24 452.48"/><polygon class="cls-24" points="630.31 451.32 630.38 450.16 791.58 459.62 791.58 460.79 630.31 451.32"/><polygon class="cls-25" points="630.38 450.16 630.44 448.99 791.58 458.45 791.58 459.62 630.38 450.16"/><polygon class="cls-26" points="630.44 448.99 630.51 447.83 791.58 457.29 791.58 458.45 630.44 448.99"/><polygon class="cls-27" points="630.51 447.83 630.58 446.67 791.58 456.12 791.58 457.29 630.51 447.83"/><polygon class="cls-28" points="630.58 446.67 630.65 445.5 791.58 454.95 791.58 456.12 630.58 446.67"/><polygon class="cls-29" points="630.65 445.5 630.72 444.34 791.58 453.78 791.58 454.95 630.65 445.5"/><polygon class="cls-30" points="630.72 444.34 630.78 443.18 791.58 452.62 791.58 453.78 630.72 444.34"/><polygon class="cls-31" points="630.78 443.18 630.85 442.01 791.58 451.45 791.58 452.62 630.78 443.18"/><polygon class="cls-32" points="630.85 442.01 630.92 440.85 791.58 450.28 791.58 451.45 630.85 442.01"/><polygon class="cls-32" points="630.92 440.85 630.99 439.69 791.58 449.11 791.58 450.28 630.92 440.85"/><polygon class="cls-33" points="630.99 439.69 631.06 438.52 791.58 447.95 791.58 449.11 630.99 439.69"/><polygon class="cls-34" points="631.06 438.52 631.13 437.36 791.58 446.78 791.58 447.95 631.06 438.52"/><polygon class="cls-35" points="631.13 437.36 631.19 436.2 791.58 445.61 791.58 446.78 631.13 437.36"/><polygon class="cls-36" points="631.19 436.2 631.26 435.03 791.58 444.44 791.58 445.61 631.19 436.2"/><polygon class="cls-37" points="631.26 435.03 631.33 433.87 791.58 443.28 791.58 444.44 631.26 435.03"/><polygon class="cls-38" points="631.33 433.87 631.4 432.71 791.58 442.11 791.58 443.28 631.33 433.87"/><polygon class="cls-39" points="631.4 432.71 631.47 431.54 791.58 440.94 791.58 442.11 631.4 432.71"/><polygon class="cls-40" points="631.47 431.54 631.54 430.38 791.58 439.77 791.58 440.94 631.47 431.54"/><polygon class="cls-41" points="631.54 430.38 631.6 429.21 791.58 438.61 791.58 439.77 631.54 430.38"/><polygon class="cls-42" points="631.6 429.21 631.67 428.05 791.58 437.44 791.58 438.61 631.6 429.21"/><polygon class="cls-43" points="631.67 428.05 631.74 426.89 791.58 436.27 791.58 437.44 631.67 428.05"/><polygon class="cls-44" points="631.74 426.89 631.81 425.73 791.58 435.1 791.58 436.27 631.74 426.89"/><polygon class="cls-45" points="631.81 425.73 631.88 424.56 791.58 433.94 791.58 435.1 631.81 425.73"/><polygon class="cls-46" points="631.88 424.56 631.95 423.4 791.58 432.77 791.58 433.94 631.88 424.56"/><polygon class="cls-47" points="631.95 423.4 632.01 422.24 791.58 431.6 791.58 432.77 631.95 423.4"/><polygon class="cls-48" points="632.01 422.24 632.08 421.07 791.58 430.44 791.58 431.6 632.01 422.24"/><polygon class="cls-49" points="632.08 421.07 632.15 419.91 791.58 429.27 791.58 430.44 632.08 421.07"/><polygon class="cls-49" points="632.15 419.91 632.22 418.75 791.58 428.1 791.58 429.27 632.15 419.91"/><polygon class="cls-50" points="632.22 418.75 632.29 417.58 791.58 426.93 791.58 428.1 632.22 418.75"/><polygon class="cls-51" points="632.29 417.58 632.36 416.42 791.58 425.76 791.58 426.93 632.29 417.58"/><polygon class="cls-52" points="632.36 416.42 632.42 415.25 791.58 424.6 791.58 425.76 632.36 416.42"/><polygon class="cls-53" points="632.42 415.25 632.49 414.09 791.58 423.43 791.58 424.6 632.42 415.25"/><polygon class="cls-54" points="632.49 414.09 632.56 412.93 791.58 422.26 791.58 423.43 632.49 414.09"/><polygon class="cls-55" points="632.56 412.93 632.63 411.76 791.58 421.1 791.58 422.26 632.56 412.93"/><polygon class="cls-56" points="632.63 411.76 632.7 410.6 791.58 419.93 791.58 421.1 632.63 411.76"/><polygon class="cls-57" points="632.7 410.6 632.76 409.44 791.58 418.76 791.58 419.93 632.7 410.6"/><polygon class="cls-58" points="632.76 409.44 632.83 408.27 791.58 417.59 791.58 418.76 632.76 409.44"/><polygon class="cls-59" points="632.83 408.27 632.9 407.11 791.58 416.43 791.58 417.59 632.83 408.27"/><polygon class="cls-60" points="632.9 407.11 632.97 405.95 791.58 415.26 791.58 416.43 632.9 407.11"/><polygon class="cls-61" points="632.97 405.95 633.04 404.78 791.58 414.09 791.58 415.26 632.97 405.95"/><polygon class="cls-62" points="633.04 404.78 633.11 403.62 791.58 412.92 791.58 414.09 633.04 404.78"/><polygon class="cls-63" points="633.11 403.62 633.17 402.46 791.58 411.76 791.58 412.92 633.11 403.62"/><polygon class="cls-64" points="633.17 402.46 633.24 401.29 791.58 410.59 791.58 411.76 633.17 402.46"/><polygon class="cls-65" points="633.24 401.29 633.31 400.13 791.58 409.42 791.58 410.59 633.24 401.29"/><polygon class="cls-66" points="633.31 400.13 633.38 398.97 791.58 408.25 791.58 409.42 633.31 400.13"/><polygon class="cls-67" points="633.38 398.97 633.45 397.8 791.58 407.09 791.58 408.25 633.38 398.97"/><polygon class="cls-68" points="633.45 397.8 633.52 396.64 791.58 405.92 791.58 407.09 633.45 397.8"/><polygon class="cls-69" points="633.52 396.64 633.59 395.48 791.58 404.75 791.58 405.92 633.52 396.64"/><polygon class="cls-70" points="633.59 395.48 633.65 394.31 791.58 403.58 791.58 404.75 633.59 395.48"/><polygon class="cls-71" points="633.65 394.31 633.72 393.15 791.58 402.42 791.58 403.58 633.65 394.31"/><polygon class="cls-72" points="633.72 393.15 633.79 391.99 791.58 401.25 791.58 402.42 633.72 393.15"/><polygon class="cls-73" points="633.79 391.99 633.86 390.82 791.58 400.08 791.58 401.25 633.79 391.99"/><polygon class="cls-74" points="633.86 390.82 633.93 389.66 791.58 398.92 791.58 400.08 633.86 390.82"/><polygon class="cls-75" points="633.93 389.66 633.99 388.5 791.58 397.75 791.58 398.92 633.93 389.66"/><polygon class="cls-76" points="633.99 388.5 634.06 387.33 791.58 396.58 791.58 397.75 633.99 388.5"/><polygon class="cls-77" points="634.06 387.33 634.13 386.17 791.58 395.41 791.58 396.58 634.06 387.33"/><polygon class="cls-78" points="634.13 386.17 634.2 385.01 791.58 394.25 791.58 395.41 634.13 386.17"/><polygon class="cls-79" points="634.2 385.01 634.27 383.84 791.58 393.08 791.58 394.25 634.2 385.01"/><polygon class="cls-80" points="634.27 383.84 634.34 382.68 791.58 391.91 791.58 393.08 634.27 383.84"/><polygon class="cls-81" points="634.34 382.68 634.4 381.52 791.58 390.74 791.58 391.91 634.34 382.68"/><polygon class="cls-82" points="634.4 381.52 634.47 380.35 791.58 389.58 791.58 390.74 634.4 381.52"/><polygon class="cls-83" points="634.47 380.35 634.54 379.19 791.58 388.41 791.58 389.58 634.47 380.35"/><polygon class="cls-84" points="634.54 379.19 634.61 378.03 791.58 387.24 791.58 388.41 634.54 379.19"/><polygon class="cls-85" points="634.61 378.03 634.68 376.86 791.58 386.07 791.58 387.24 634.61 378.03"/><polygon class="cls-86" points="634.68 376.86 634.75 375.7 791.58 384.91 791.58 386.07 634.68 376.86"/><polygon class="cls-87" points="634.75 375.7 634.81 374.54 791.58 383.74 791.58 384.91 634.75 375.7"/><polygon class="cls-88" points="634.81 374.54 634.88 373.37 791.58 382.57 791.58 383.74 634.81 374.54"/><polygon class="cls-89" points="634.88 373.37 634.95 372.21 791.58 381.4 791.58 382.57 634.88 373.37"/><polygon class="cls-90" points="634.95 372.21 635.02 371.05 791.58 380.24 791.58 381.4 634.95 372.21"/><polygon class="cls-91" points="635.02 371.05 635.09 369.88 791.58 379.07 791.58 380.24 635.02 371.05"/><polygon class="cls-92" points="635.09 369.88 635.15 368.72 791.58 377.9 791.58 379.07 635.09 369.88"/><polygon class="cls-93" points="635.15 368.72 635.22 367.56 791.58 376.74 791.58 377.9 635.15 368.72"/><polygon class="cls-94" points="635.22 367.56 635.29 366.39 791.58 375.57 791.58 376.74 635.22 367.56"/><polygon class="cls-95" points="635.29 366.39 635.36 365.23 791.58 374.4 791.58 375.57 635.29 366.39"/><polygon class="cls-96" points="635.36 365.23 635.43 364.07 791.58 373.23 791.58 374.4 635.36 365.23"/><polygon class="cls-97" points="635.43 364.07 635.5 362.9 791.58 372.06 791.58 373.23 635.43 364.07"/><polygon class="cls-98" points="635.5 362.9 635.57 361.74 791.58 370.9 791.58 372.06 635.5 362.9"/><polygon class="cls-99" points="635.57 361.74 635.63 360.58 791.58 369.73 791.58 370.9 635.57 361.74"/><polygon class="cls-100" points="635.63 360.58 635.7 359.41 791.58 368.56 791.58 369.73 635.63 360.58"/><polygon class="cls-101" points="635.7 359.41 635.77 358.25 791.58 367.4 791.58 368.56 635.7 359.41"/><polygon class="cls-102" points="635.77 358.25 635.84 357.09 791.58 366.23 791.58 367.4 635.77 358.25"/><polygon class="cls-103" points="635.84 357.09 635.91 355.92 791.58 365.06 791.58 366.23 635.84 357.09"/><polygon class="cls-104" points="635.91 355.92 635.98 354.76 791.58 363.89 791.58 365.06 635.91 355.92"/><polygon class="cls-105" points="635.98 354.76 636.04 353.6 791.58 362.73 791.58 363.89 635.98 354.76"/><polygon class="cls-106" points="636.04 353.6 636.11 352.43 791.58 361.56 791.58 362.73 636.04 353.6"/><polygon class="cls-107" points="636.11 352.43 636.18 351.27 791.58 360.39 791.58 361.56 636.11 352.43"/><polygon class="cls-108" points="636.18 351.27 636.25 350.11 791.58 359.22 791.58 360.39 636.18 351.27"/><polygon class="cls-109" points="636.25 350.11 636.32 348.94 791.58 358.06 791.58 359.22 636.25 350.11"/><polygon class="cls-110" points="636.32 348.94 636.38 347.78 791.58 356.89 791.58 358.06 636.32 348.94"/><polygon class="cls-111" points="636.38 347.78 636.45 346.62 791.58 355.72 791.58 356.89 636.38 347.78"/><polygon class="cls-112" points="636.45 346.62 636.52 345.45 791.58 354.56 791.58 355.72 636.45 346.62"/><polygon class="cls-113" points="636.52 345.45 636.59 344.29 791.58 353.39 791.58 354.56 636.52 345.45"/><polygon class="cls-114" points="636.59 344.29 636.66 343.13 791.58 352.22 791.58 353.39 636.59 344.29"/><polygon class="cls-115" points="636.66 343.13 636.73 341.96 791.58 351.05 791.58 352.22 636.66 343.13"/><polygon class="cls-116" points="636.73 341.96 636.79 340.8 791.58 349.88 791.58 351.05 636.73 341.96"/><polygon class="cls-117" points="636.79 340.8 636.86 339.63 791.58 348.72 791.58 349.88 636.79 340.8"/><polygon class="cls-118" points="636.86 339.63 636.93 338.47 791.58 347.55 791.58 348.72 636.86 339.63"/><polygon class="cls-119" points="636.93 338.47 637 337.31 791.58 346.38 791.58 347.55 636.93 338.47"/><polygon class="cls-120" points="637 337.31 637.07 336.14 791.58 345.21 791.58 346.38 637 337.31"/><polygon class="cls-121" points="637.07 336.14 637.14 334.98 791.58 344.05 791.58 345.21 637.07 336.14"/><polygon class="cls-122" points="637.14 334.98 637.2 333.82 791.58 342.88 791.58 344.05 637.14 334.98"/><polygon class="cls-123" points="637.2 333.82 637.27 332.65 791.58 341.71 791.58 342.88 637.2 333.82"/><polygon class="cls-124" points="637.27 332.65 637.34 331.49 791.58 340.55 791.58 341.71 637.27 332.65"/><polygon class="cls-125" points="637.34 331.49 637.41 330.33 791.58 339.38 791.58 340.55 637.34 331.49"/><polygon class="cls-126" points="637.41 330.33 637.48 329.17 791.58 338.21 791.58 339.38 637.41 330.33"/><polygon class="cls-127" points="637.48 329.17 637.55 328 791.58 337.04 791.58 338.21 637.48 329.17"/><polygon class="cls-128" points="637.55 328 637.61 326.84 791.58 335.88 791.58 337.04 637.55 328"/><polygon class="cls-129" points="637.61 326.84 637.68 325.68 791.58 334.71 791.58 335.88 637.61 326.84"/><polygon class="cls-130" points="637.68 325.68 637.75 324.51 791.58 333.54 791.58 334.71 637.68 325.68"/><polygon class="cls-131" points="637.75 324.51 637.82 323.35 791.58 332.37 791.58 333.54 637.75 324.51"/><polygon class="cls-132" points="637.82 323.35 637.89 322.19 791.58 331.21 791.58 332.37 637.82 323.35"/><polygon class="cls-133" points="637.89 322.19 637.96 321.02 791.58 330.04 791.58 331.21 637.89 322.19"/><polygon class="cls-134" points="637.96 321.02 638.02 319.86 791.58 328.87 791.58 330.04 637.96 321.02"/><polygon class="cls-135" points="638.02 319.86 638.09 318.69 791.58 327.7 791.58 328.87 638.02 319.86"/><polygon class="cls-136" points="638.09 318.69 638.16 317.53 791.58 326.54 791.58 327.7 638.09 318.69"/><polygon class="cls-137" points="638.16 317.53 638.23 316.37 791.58 325.37 791.58 326.54 638.16 317.53"/><polygon class="cls-138" points="638.23 316.37 638.3 315.2 791.58 324.2 791.58 325.37 638.23 316.37"/><polygon class="cls-139" points="638.3 315.2 638.37 314.04 791.58 323.04 791.58 324.2 638.3 315.2"/><polygon class="cls-140" points="638.37 314.04 638.43 312.88 791.58 321.87 791.58 323.04 638.37 314.04"/><polygon class="cls-141" points="638.43 312.88 638.5 311.71 791.58 320.7 791.58 321.87 638.43 312.88"/><polygon class="cls-142" points="638.5 311.71 638.57 310.55 791.58 319.53 791.58 320.7 638.5 311.71"/><polygon class="cls-143" points="638.57 310.55 638.64 309.39 791.58 318.37 791.58 319.53 638.57 310.55"/><polygon class="cls-144" points="638.64 309.39 638.71 308.22 791.58 317.2 791.58 318.37 638.64 309.39"/><polygon class="cls-145" points="638.71 308.22 638.77 307.06 791.58 316.03 791.58 317.2 638.71 308.22"/><polygon class="cls-146" points="638.77 307.06 638.84 305.9 791.58 314.86 791.58 316.03 638.77 307.06"/><polygon class="cls-147" points="638.84 305.9 638.91 304.73 791.58 313.7 791.58 314.86 638.84 305.9"/><polygon class="cls-148" points="638.91 304.73 638.98 303.57 791.58 312.53 791.58 313.7 638.91 304.73"/><polygon class="cls-149" points="638.98 303.57 639.05 302.41 791.58 311.36 791.58 312.53 638.98 303.57"/><polygon class="cls-150" points="639.05 302.41 639.12 301.24 791.58 310.19 791.58 311.36 639.05 302.41"/><polygon class="cls-151" points="639.12 301.24 639.18 300.08 791.58 309.03 791.58 310.19 639.12 301.24"/><polygon class="cls-152" points="639.18 300.08 639.25 298.92 791.58 307.86 791.58 309.03 639.18 300.08"/><polygon class="cls-153" points="639.25 298.92 639.32 297.75 791.58 306.69 791.58 307.86 639.25 298.92"/><polygon class="cls-154" points="639.32 297.75 639.39 296.59 791.58 305.52 791.58 306.69 639.32 297.75"/><polygon class="cls-155" points="639.39 296.59 639.46 295.43 791.58 304.36 791.58 305.52 639.39 296.59"/><polygon class="cls-156" points="639.46 295.43 639.53 294.26 791.58 303.19 791.58 304.36 639.46 295.43"/><polygon class="cls-157" points="639.53 294.26 639.6 293.1 791.58 302.02 791.58 303.19 639.53 294.26"/><polygon class="cls-158" points="639.6 293.1 639.66 291.94 791.58 300.86 791.58 302.02 639.6 293.1"/><polygon class="cls-159" points="639.66 291.94 639.73 290.77 791.58 299.69 791.58 300.86 639.66 291.94"/><polygon class="cls-160" points="639.73 290.77 639.8 289.61 791.58 298.52 791.58 299.69 639.73 290.77"/><polygon class="cls-161" points="639.8 289.61 639.87 288.45 791.58 297.35 791.58 298.52 639.8 289.61"/><polygon class="cls-162" points="639.87 288.45 639.94 287.28 791.58 296.19 791.58 297.35 639.87 288.45"/><polygon class="cls-163" points="639.94 287.28 640 286.12 791.58 295.02 791.58 296.19 639.94 287.28"/><polygon class="cls-164" points="640 286.12 640.07 284.96 791.58 293.85 791.58 295.02 640 286.12"/><polygon class="cls-165" points="640.07 284.96 640.14 283.79 791.58 292.68 791.58 293.85 640.07 284.96"/><polygon class="cls-166" points="640.14 283.79 640.21 282.63 791.58 291.52 791.58 292.68 640.14 283.79"/><polygon class="cls-167" points="640.21 282.63 640.28 281.47 791.58 290.35 791.58 291.52 640.21 282.63"/><polygon class="cls-168" points="640.28 281.47 640.35 280.3 791.58 289.18 791.58 290.35 640.28 281.47"/><polygon class="cls-169" points="640.35 280.3 640.41 279.14 791.58 288.01 791.58 289.18 640.35 280.3"/><polygon class="cls-170" points="640.41 279.14 640.48 277.98 791.58 286.85 791.58 288.01 640.41 279.14"/><polygon class="cls-171" points="640.48 277.98 640.55 276.81 791.58 285.68 791.58 286.85 640.48 277.98"/><polygon class="cls-172" points="640.55 276.81 640.62 275.65 791.58 284.51 791.58 285.68 640.55 276.81"/><polygon class="cls-173" points="640.62 275.65 640.69 274.49 791.58 283.34 791.58 284.51 640.62 275.65"/><polygon class="cls-174" points="640.69 274.49 640.76 273.32 791.58 282.18 791.58 283.34 640.69 274.49"/><polygon class="cls-175" points="640.76 273.32 640.82 272.16 791.58 281.01 791.58 282.18 640.76 273.32"/><polygon class="cls-176" points="640.82 272.16 640.89 271 791.58 279.84 791.58 281.01 640.82 272.16"/><polygon class="cls-177" points="640.89 271 640.96 269.83 791.58 278.67 791.58 279.84 640.89 271"/><polygon class="cls-178" points="640.96 269.83 641.03 268.67 791.58 277.51 791.58 278.67 640.96 269.83"/><polygon class="cls-179" points="641.03 268.67 641.1 267.51 791.58 276.34 791.58 277.51 641.03 268.67"/><polygon class="cls-180" points="641.1 267.51 641.16 266.34 791.58 275.17 791.58 276.34 641.1 267.51"/><polygon class="cls-181" points="641.16 266.34 641.23 265.18 791.58 274 791.58 275.17 641.16 266.34"/><polygon class="cls-182" points="641.23 265.18 641.3 264.02 791.58 272.84 791.58 274 641.23 265.18"/><polygon class="cls-183" points="641.3 264.02 641.37 262.85 791.58 271.67 791.58 272.84 641.3 264.02"/><polygon class="cls-184" points="641.37 262.85 641.44 261.69 791.58 270.5 791.58 271.67 641.37 262.85"/><polygon class="cls-185" points="641.44 261.69 641.51 260.53 791.58 269.33 791.58 270.5 641.44 261.69"/><polygon class="cls-185" points="641.51 260.53 641.7 257.27 791.58 257.27 791.58 269.33 641.51 260.53"/></g><path class="cls-3" d="M635.05,478.58q32.18-108,64.33-215.89l26.9,1.78q29.63,107.05,59.26,214.11h14Q770,370.12,740.57,261.66a12,12,0,0,0-3.75-11.24,10.8,10.8,0,0,0-9.44-2.19l-381-1.1A22.84,22.84,0,0,0,335.92,256a25.05,25.05,0,0,0-3.75,12.33L267.25,478.58Z"/><polygon points="726.33 264.41 699.39 262.62 699.33 262.62 634.99 478.57 635.12 478.57 699.43 262.75 726.23 264.53 785.48 478.57 785.61 478.57 726.34 264.45 726.33 264.41"/><path d="M267.32,478.58l64.91-210.19h0A24.67,24.67,0,0,1,336,256.07a22.81,22.81,0,0,1,10.43-8.87l381,1.09h0a10.74,10.74,0,0,1,9.38,2.18,12,12,0,0,1,3.73,11.18h0l58.94,216.92h.13L740.64,261.66a12.09,12.09,0,0,0-3.78-11.29,10.81,10.81,0,0,0-9.49-2.2l-381-1.1h0a23.07,23.07,0,0,0-10.5,8.94,24.67,24.67,0,0,0-3.76,12.35L271.23,465.45l-4.05,13.13Z"/><path class="cls-162" d="M646,478.58q1.89-7.32,3.74-14.57c4.41-17.23,9-35,13.83-53.06,1.81-6.72,3.52-13.34,5.17-19.74s3.36-13,5.17-19.71a10.34,10.34,0,0,0,.28-1.41,7.44,7.44,0,0,1,.23-1.16c.13-.35.23-.67.32-1s.19-.59.31-.92l0-.09c.38-1.61.77-3.26,1.28-4.88a18.11,18.11,0,0,0,.56-2.61c.08-.44.15-.86.23-1.27,1.42-4.87,2.64-9.71,3.81-14.39s2.39-9.51,3.81-14.36l.13-.53a31.78,31.78,0,0,1,1.28-4.48,7.31,7.31,0,0,0,.33-1.55c0-.21.05-.41.08-.6.71-2.4,1.3-4.8,1.88-7.12s1.16-4.71,1.86-7.09v0c.21-.81.41-1.63.61-2.41.54-2.18,1-4.24,1.71-6.32l.4-2.1,0-.05a1.38,1.38,0,0,0,.24-.56c1.72-7.55,3.52-14.32,5.66-21.27a4.83,4.83,0,0,0,.16-.81,4.47,4.47,0,0,1,.1-.56v0l0-.05a1.51,1.51,0,0,0,.24-.6c.21-1.24.54-2.48.86-3.67.27-1,.54-2,.75-3l-1.52-.31c-.2,1-.46,1.94-.73,3-.33,1.22-.66,2.48-.89,3.79l0,0a1.57,1.57,0,0,0-.23.52,6.58,6.58,0,0,0-.14.75,3.55,3.55,0,0,1-.1.56c-2.16,7-4,13.81-5.7,21.41l0,.05a1.33,1.33,0,0,0-.25.59l-.37,2c-.66,2.11-1.18,4.18-1.72,6.36-.19.78-.39,1.59-.6,2.39-.72,2.41-1.31,4.82-1.88,7.15s-1.16,4.71-1.87,7.09l0,.07c0,.26-.07.5-.1.74a6,6,0,0,1-.24,1.18,32.18,32.18,0,0,0-1.34,4.68l-.11.48c-1.43,4.87-2.64,9.71-3.82,14.39s-2.39,9.51-3.81,14.36v.06c-.1.45-.17.92-.25,1.37a16.6,16.6,0,0,1-.51,2.39c-.52,1.66-.92,3.33-1.3,4.94l-.32,1c-.09.3-.18.59-.3.91l0,.05a9,9,0,0,0-.29,1.42,7.71,7.71,0,0,1-.23,1.18v0c-1.81,6.72-3.52,13.34-5.17,19.74s-3.36,13-5.17,19.72c-4.86,18-9.43,35.85-13.84,53.09q-1.86,7.31-3.76,14.68l1,.27Z"/><path class="cls-162" d="M659,478.58c1.07-4.74,2-9.54,3-14.19,1.1-5.4,2.24-11,3.55-16.61v0c.39-1.92.75-3.77,1.1-5.55s.71-3.63,1.09-5.54c1.75-7.75,3.23-14.94,4.79-22.55,1-4.63,1.93-9.41,3-14.31,2.41-10.85,4.61-21.3,7.12-33.85,4.72-22.16,8.71-41.13,12.92-61.49l0-.06a1.38,1.38,0,0,0,.24-.56c.45-2.12.84-4.17,1.22-6.14s.77-4,1.22-6.14c.69-2.75,1.21-5.4,1.71-8,.35-1.81.71-3.68,1.13-5.58.74-2.63,1.2-5.14,1.7-7.79.2-1.09.41-2.21.64-3.35v-.09l.07-.18c0-.09.07-.18.09-.27l-1.48-.46a1.27,1.27,0,0,1-.06.18,2.23,2.23,0,0,0-.16.56c-.23,1.13-.44,2.25-.64,3.32-.49,2.63-.95,5.11-1.67,7.68v0c-.43,1.93-.79,3.82-1.15,5.64-.52,2.67-1,5.19-1.69,7.91v0c-.46,2.13-.85,4.19-1.23,6.18s-.78,4-1.22,6.12l0,.06a1.36,1.36,0,0,0-.24.57c-4.21,20.36-8.2,39.32-12.92,61.49-2.51,12.55-4.7,23-7.11,33.83-1,4.92-2,9.7-3,14.32-1.56,7.61-3,14.79-4.78,22.54h0c-.39,1.92-.75,3.77-1.1,5.56s-.71,3.62-1.1,5.53c-1.31,5.64-2.46,11.24-3.56,16.64-1,4.68-2,9.51-3,14.27l1,.23Z"/><path class="cls-162" d="M676.65,478.58c4.93-34.59,9.91-69.73,14.73-103.72,5.06-35.72,10.29-72.66,15.49-109l-1.53-.22c-5.2,36.39-10.44,73.33-15.5,109.05-4.82,34-9.8,69.18-14.74,103.79l1,.15Z"/><path class="cls-162" d="M692.92,478.58c2.34-29.44,4.61-59.31,6.81-88.2,2.83-37.3,5.76-75.87,8.9-114.13v0c.06-1.23.13-2.43.19-3.63s.13-2.37.19-3.6.22-2.22.28-3.29c.05-.77.09-1.57.17-2.39l-1.54-.15c-.08.85-.13,1.66-.18,2.45-.06,1.09-.12,2.12-.27,3.21v.06c-.07,1.23-.13,2.43-.2,3.63s-.13,2.39-.19,3.62C704,314.4,701,353,698.18,390.26c-2.19,28.9-4.46,58.78-6.81,88.22l1.21.1Z"/><path class="cls-162" d="M710.05,314.83c.13,53.57.26,109,.31,163.75h1.56c-.06-54.78-.19-110.18-.32-163.75,0-5.06,0-10.21-.05-15.18,0-11.2-.11-22.78.12-34.21l-1.55,0c-.23,11.44-.17,23-.12,34.24C710,304.63,710.05,309.77,710.05,314.83Z"/><path class="cls-162" d="M729.87,478.58C727,442.34,723.94,405.52,721,369.9c-2.84-34.11-5.78-69.39-8.53-104.14l1.54-.12c2.75,34.75,5.69,70,8.53,104.13,3,35.62,6,72.45,8.89,108.68Z"/><path class="cls-162" d="M748.23,478.58h.64l.91-.15c-6.66-43.19-13.57-87-20.25-129.42-4.26-27-8.66-54.94-13-82.47l-1.53.24c4.3,27.53,8.7,55.46,13,82.47C734.67,391.61,741.58,435.42,748.23,478.58Z"/><path class="cls-162" d="M765.13,478.58H766l.7-.16-4.75-21.05c-14.08-62.3-28.63-126.72-42.78-190.19l-1.52.33c14.15,63.48,28.71,127.9,42.78,190.2Z"/><path class="cls-162" d="M722.73,272.45a1.8,1.8,0,0,0,.32.8,4.3,4.3,0,0,1,.07.43,4,4,0,0,0,.16.82v.05l0,.05a5.79,5.79,0,0,1,.35,1.35,8.18,8.18,0,0,0,.23,1.07,1.88,1.88,0,0,0,.29.72,8.78,8.78,0,0,0,.53,1.89,5,5,0,0,1,.24,1.17c0,.24.06.48.11.73v.07c3.65,13,6.87,25.45,10.27,38.58.45,1.74.91,3.49,1.36,5.25.65,2.53,1.28,5,1.88,7.47s1.23,4.93,1.88,7.47c2.58,9.8,5.15,19.49,7.63,28.85s5,19,7.62,28.82l.38,2,0,.06c2.27,8.36,4.36,16.59,6.39,24.56,1.43,5.64,2.92,11.48,4.47,17.37.16.6.32,1.18.48,1.77.89,3.28,1.72,6.37,2.49,9.71v0c.21.78.42,1.54.63,2.29.56,2,1.1,4,1.56,6v0c1,4.06,2.09,8,3.13,11.89.43,1.57.87,3.18,1.3,4.78h.56l1-.26c-.44-1.65-.89-3.31-1.33-4.92-1-3.84-2.12-7.82-3.12-11.86-.48-2.11-1-4.05-1.58-6.1-.21-.75-.42-1.5-.62-2.27-.77-3.37-1.61-6.47-2.5-9.75l-.48-1.77c-1.55-5.88-3-11.72-4.47-17.35-2-8-4.11-16.2-6.39-24.55l-.38-2v-.05c-2.59-9.8-5.15-19.48-7.63-28.84S744.55,349.78,742,340c-.65-2.53-1.27-5-1.88-7.46s-1.22-4.93-1.87-7.48c-.46-1.76-.91-3.5-1.36-5.25-3.41-13.12-6.63-25.53-10.28-38.57,0-.2-.06-.4-.08-.61a7.06,7.06,0,0,0-.33-1.55l0-.06a8.11,8.11,0,0,1-.46-1.73l0-.21-.16-.17a.73.73,0,0,1,0-.09v-.05l0-.11a7.7,7.7,0,0,1-.2-1,7.59,7.59,0,0,0-.45-1.69,3.14,3.14,0,0,1-.09-.51,5.93,5.93,0,0,0-.16-.82l0-.16-.12-.13a.26.26,0,0,1-.05-.09l0-.09c-.23-1.14-.5-2.2-.78-3.32-.2-.77-.4-1.57-.58-2.38l-1.51.34c.19.84.39,1.64.58,2.41C722.25,270.34,722.51,271.37,722.73,272.45Z"/><path class="cls-162" d="M725.43,276.77Z"/><path class="cls-162" d="M724.27,272.25Z"/><polygon points="691.3 268.65 334.95 268.58 337.86 260.43 693.95 260.36 691.3 268.65"/><polygon points="786.15 478.57 776.82 443.69 729.01 264.97 723.9 264.51 781.09 478.57 786.15 478.57"/><rect class="cls-8" x="46.86" y="422.07" width="15.48" height="56.5"/><path class="cls-2" d="M86.14,395.78a31.62,31.62,0,0,1-63.24,0c0-.35,0-.7,0-1h0l6-17.56,26.39-76.76,25.58,78h0l5.16,15.73C86.12,394.67,86.14,395.23,86.14,395.78Z"/><rect class="cls-186" x="147.47" y="152.6" width="111.73" height="142.12" rx="34.57"/><polygon class="cls-187" points="196.42 478.57 206.76 478.57 206.76 269.16 231.76 242.25 224.18 235.21 206.76 253.96 206.76 208.08 196.42 208.08 196.42 233.48 180.67 222.92 174.91 231.51 196.42 245.93 196.42 478.57"/><path d="M151.77,92.08a9,9,0,0,1-1-.91,12.34,12.34,0,0,1-.85-1,15.89,15.89,0,0,1-1.38-2,18.91,18.91,0,0,1-1.83-4.28,19.33,19.33,0,0,1-.77-4.58,16.66,16.66,0,0,1,.09-2.43q.07-.62.21-1.26a8.64,8.64,0,0,1,.37-1.31,8.13,8.13,0,0,1,1,.91,10.71,10.71,0,0,1,.85,1,14.29,14.29,0,0,1,1.38,2,18.58,18.58,0,0,1,1.83,4.27,19.4,19.4,0,0,1,.75,4.59,15.34,15.34,0,0,1-.08,2.43q-.08.61-.21,1.26A8.57,8.57,0,0,1,151.77,92.08Z"/><path d="M155.13,94.15a6.06,6.06,0,0,1-.27-1c-.06-.31-.09-.61-.12-.9a7.85,7.85,0,0,1,0-1.62,7.77,7.77,0,0,1,.94-2.77,7.49,7.49,0,0,1,1.9-2.21A7.74,7.74,0,0,1,159,84.8a7.14,7.14,0,0,1,.83-.35,6.05,6.05,0,0,1,1-.26,6.06,6.06,0,0,1,.27,1,7.54,7.54,0,0,1,.12.89,7.3,7.3,0,0,1,0,1.63,7.75,7.75,0,0,1-2.85,5,8.12,8.12,0,0,1-1.38.87,8,8,0,0,1-.83.35A6,6,0,0,1,155.13,94.15Z"/><path class="cls-188" d="M105.6,138.63a7.84,7.84,0,0,1,1.13.09,7.66,7.66,0,0,1,1,.21,9.83,9.83,0,0,1,1.8.66,10.89,10.89,0,0,1,2.94,2,11.12,11.12,0,0,1,2.18,2.82,11,11,0,0,1,.75,1.77c.1.32.18.65.26,1a7.58,7.58,0,0,1,.14,1.13,6.88,6.88,0,0,1-1.14-.08,8.37,8.37,0,0,1-1-.21,10.11,10.11,0,0,1-1.8-.66,10.84,10.84,0,0,1-2.93-2,11.09,11.09,0,0,1-2.17-2.83,9.42,9.42,0,0,1-.75-1.77,9.73,9.73,0,0,1-.26-1A6.43,6.43,0,0,1,105.6,138.63Z"/><path class="cls-188" d="M143.88,147.56a5.81,5.81,0,0,1,.31,1.07,9,9,0,0,1,.15,1,9.63,9.63,0,0,1,0,1.86,10.4,10.4,0,0,1-4.16,7.45c-.27.19-.55.38-.85.55a7.3,7.3,0,0,1-1,.48,6.3,6.3,0,0,1-.31-1.07c-.07-.34-.12-.68-.16-1a9.73,9.73,0,0,1,0-1.87,10.19,10.19,0,0,1,.89-3.32,10.5,10.5,0,0,1,1.9-2.88,9.89,9.89,0,0,1,1.39-1.24,8.87,8.87,0,0,1,.85-.55A5.81,5.81,0,0,1,143.88,147.56Z"/><path class="cls-188" d="M98.88,177.43a6.12,6.12,0,0,1-.27-1.06,8.89,8.89,0,0,1-.12-1,9.19,9.19,0,0,1,.06-1.83,10,10,0,0,1,1-3.23,9.77,9.77,0,0,1,2-2.72,9.62,9.62,0,0,1,1.42-1.15,9,9,0,0,1,.87-.5,7,7,0,0,1,1-.42,7,7,0,0,1,.27,1.07,8.89,8.89,0,0,1,.12,1,9.19,9.19,0,0,1-.06,1.83,10.31,10.31,0,0,1-3,5.94,9.22,9.22,0,0,1-1.43,1.15c-.27.17-.55.34-.86.5A7.31,7.31,0,0,1,98.88,177.43Z"/><path class="cls-188" d="M237.9,121.3a8.63,8.63,0,0,1,.9.73,10.63,10.63,0,0,1,.74.77,11.27,11.27,0,0,1,1.14,1.61,12.17,12.17,0,0,1,1.63,7.11,11.4,11.4,0,0,1-.34,1.95c-.09.33-.21.67-.34,1a7.09,7.09,0,0,1-.5,1.05,6.2,6.2,0,0,1-.9-.73,8.85,8.85,0,0,1-.74-.77,10.61,10.61,0,0,1-1.15-1.61A11.79,11.79,0,0,1,237,129a12.18,12.18,0,0,1-.26-3.68,10.64,10.64,0,0,1,.34-2c.09-.33.2-.67.33-1A6.21,6.21,0,0,1,237.9,121.3Z"/><path class="cls-188" d="M289.88,121.17a9.48,9.48,0,0,1,.57,1.39,14,14,0,0,1,.4,1.36,19.83,19.83,0,0,1,.47,2.68,24.42,24.42,0,0,1,0,5.27,23.86,23.86,0,0,1-1.13,5.15,18.57,18.57,0,0,1-1.05,2.51,13.83,13.83,0,0,1-.69,1.24,11.46,11.46,0,0,1-.86,1.23,9.48,9.48,0,0,1-.57-1.39c-.16-.45-.29-.91-.41-1.36a21.36,21.36,0,0,1-.47-2.69,25,25,0,0,1,0-5.26,24.5,24.5,0,0,1,1.14-5.15,18.57,18.57,0,0,1,1-2.51,13.83,13.83,0,0,1,.69-1.24A11.33,11.33,0,0,1,289.88,121.17Z"/><path class="cls-188" d="M311.35,198.64a6.73,6.73,0,0,1,1,.52,7.94,7.94,0,0,1,.88.59,10.44,10.44,0,0,1,1.47,1.32,12,12,0,0,1,2.06,3.06,12.24,12.24,0,0,1,1.05,3.53,9.91,9.91,0,0,1,.08,2,8.12,8.12,0,0,1-.11,1.06,6.5,6.5,0,0,1-.26,1.13,6.3,6.3,0,0,1-1-.52,9.81,9.81,0,0,1-.89-.59,11,11,0,0,1-1.47-1.32,12.44,12.44,0,0,1-3.09-6.6,10.63,10.63,0,0,1-.09-2,9.77,9.77,0,0,1,.11-1.06A7.57,7.57,0,0,1,311.35,198.64Z"/><path class="cls-188" d="M294.54,218.81a8.82,8.82,0,0,1,0-1.36,12.68,12.68,0,0,1,.13-1.27,17.1,17.1,0,0,1,.57-2.37,19.7,19.7,0,0,1,4.84-7.9,17.91,17.91,0,0,1,1.86-1.57c.34-.24.7-.48,1.08-.7a9.25,9.25,0,0,1,1.22-.61,10.5,10.5,0,0,1,0,1.37c0,.44-.08.86-.14,1.27a16.21,16.21,0,0,1-.56,2.38,19.68,19.68,0,0,1-4.86,7.88,15.11,15.11,0,0,1-1.86,1.57c-.34.25-.7.48-1.07.7A9.25,9.25,0,0,1,294.54,218.81Z"/><path class="cls-188" d="M307,249.07a8.66,8.66,0,0,1,.54,1.29,13,13,0,0,1,.38,1.27,16.87,16.87,0,0,1,.41,2.48,20.87,20.87,0,0,1-1.35,9.51,17.41,17.41,0,0,1-1.09,2.27q-.33.56-.72,1.11a9.47,9.47,0,0,1-.88,1.08,7.87,7.87,0,0,1-.54-1.29,12.07,12.07,0,0,1-.38-1.26,17,17,0,0,1-.42-2.49,21.18,21.18,0,0,1,1.37-9.5,16.82,16.82,0,0,1,1.09-2.27q.33-.56.72-1.11A8.47,8.47,0,0,1,307,249.07Z"/><path class="cls-188" d="M288.07,272.22a9.93,9.93,0,0,1-1.06-1.1,13.9,13.9,0,0,1-.91-1.15,20,20,0,0,1-1.49-2.38,26.14,26.14,0,0,1-2.06-5,26.68,26.68,0,0,1-1-5.36,22,22,0,0,1,0-2.82c0-.48.08-1,.15-1.46a9.6,9.6,0,0,1,.32-1.5,11.05,11.05,0,0,1,1.07,1.1c.33.38.62.76.91,1.15a20.63,20.63,0,0,1,1.49,2.39,26.66,26.66,0,0,1,3,10.41,21.9,21.9,0,0,1,0,2.81c0,.48-.07,1-.15,1.46A10.54,10.54,0,0,1,288.07,272.22Z"/><path class="cls-189" d="M223,213.64a9.7,9.7,0,0,1-.31,1.21c-.13.38-.27.74-.42,1.09a13.53,13.53,0,0,1-1.05,1.92,15.11,15.11,0,0,1-2.74,3.1,14.78,14.78,0,0,1-3.46,2.27A13.25,13.25,0,0,1,213,224c-.36.1-.74.19-1.13.26a7.07,7.07,0,0,1-1.25.12,8.23,8.23,0,0,1,.3-1.21c.13-.38.27-.74.42-1.09a13.53,13.53,0,0,1,1-1.92,14.62,14.62,0,0,1,2.75-3.1,15.07,15.07,0,0,1,3.46-2.26,14.37,14.37,0,0,1,2.06-.77c.36-.1.74-.18,1.13-.25A8,8,0,0,1,223,213.64Z"/><path class="cls-189" d="M224.84,193.34a7.12,7.12,0,0,1-.16-1.26,9.17,9.17,0,0,1,0-1.17,12.86,12.86,0,0,1,.27-2.19,15.83,15.83,0,0,1,3.81-7.38,14.65,14.65,0,0,1,1.63-1.49c.3-.23.63-.45,1-.67a8.37,8.37,0,0,1,1.12-.59,8.2,8.2,0,0,1,.16,1.26,11.46,11.46,0,0,1,0,1.17,14,14,0,0,1-.27,2.19,15.87,15.87,0,0,1-3.82,7.37,12.37,12.37,0,0,1-1.64,1.49,9.63,9.63,0,0,1-1,.67A7.76,7.76,0,0,1,224.84,193.34Z"/><path class="cls-189" d="M203.37,179.24a9.58,9.58,0,0,1-1.38.13q-.66,0-1.29,0a15,15,0,0,1-2.46-.35,20.14,20.14,0,0,1-4.48-1.56,19.51,19.51,0,0,1-4-2.57,16,16,0,0,1-1.78-1.72,11.64,11.64,0,0,1-.82-1,8.35,8.35,0,0,1-.74-1.17,11.29,11.29,0,0,1,1.37-.13c.45,0,.88,0,1.3,0a16.2,16.2,0,0,1,2.46.34,19.93,19.93,0,0,1,4.47,1.58,19.51,19.51,0,0,1,4,2.57,16.06,16.06,0,0,1,1.79,1.72c.28.32.55.65.81,1A8.27,8.27,0,0,1,203.37,179.24Z"/><path class="cls-189" d="M153.58,235.62a7.82,7.82,0,0,1,1.22.1,9.31,9.31,0,0,1,1.1.22,12.39,12.39,0,0,1,2,.69,14.26,14.26,0,0,1,3.37,2.13,14,14,0,0,1,2.65,3,13.2,13.2,0,0,1,1,1.86c.14.34.27.69.39,1.06a8,8,0,0,1,.29,1.19,6.73,6.73,0,0,1-1.22-.09,9.08,9.08,0,0,1-1.11-.22,12.39,12.39,0,0,1-2-.69,14.44,14.44,0,0,1-6-5.12,13.56,13.56,0,0,1-1-1.85,11,11,0,0,1-.39-1.06A6.69,6.69,0,0,1,153.58,235.62Z"/><path class="cls-189" d="M184,263.82a6.81,6.81,0,0,1,.12,1.15,7.59,7.59,0,0,1,0,1.07,11,11,0,0,1-.32,2,12.54,12.54,0,0,1-3.87,6.21,11.41,11.41,0,0,1-1.62,1.14,9.43,9.43,0,0,1-.95.49,6.45,6.45,0,0,1-1.1.39,8.23,8.23,0,0,1-.13-1.16c0-.36,0-.72,0-1.06a11,11,0,0,1,.32-2,12.46,12.46,0,0,1,3.89-6.21,10.87,10.87,0,0,1,1.62-1.14,8.47,8.47,0,0,1,.95-.49A6,6,0,0,1,184,263.82Z"/><path class="cls-189" d="M211.64,277.78a10.2,10.2,0,0,1,1.37,0,12.52,12.52,0,0,1,1.27.18,17.37,17.37,0,0,1,2.36.64,19.71,19.71,0,0,1,7.76,5.1,16,16,0,0,1,1.52,1.92,11.92,11.92,0,0,1,.67,1.1,7.88,7.88,0,0,1,.57,1.24,8.64,8.64,0,0,1-1.36,0c-.44,0-.86-.1-1.28-.18a16.36,16.36,0,0,1-2.36-.63,19.25,19.25,0,0,1-4.18-2.1,18.88,18.88,0,0,1-3.57-3,16.13,16.13,0,0,1-1.52-1.91c-.24-.35-.46-.72-.67-1.1A8.91,8.91,0,0,1,211.64,277.78Z"/><path class="cls-189" d="M244,270a8.57,8.57,0,0,1-1.09-.81c-.33-.29-.63-.58-.92-.88a17.84,17.84,0,0,1-1.54-1.88,19.21,19.21,0,0,1-2.17-4.1,18.79,18.79,0,0,1-1.13-4.5,14.83,14.83,0,0,1-.11-2.42,11,11,0,0,1,.1-1.27,8.54,8.54,0,0,1,.26-1.34,9.68,9.68,0,0,1,1.09.82c.32.29.63.58.92.88a15.57,15.57,0,0,1,1.54,1.87,19.56,19.56,0,0,1,3.29,8.61,14.83,14.83,0,0,1,.11,2.42,11,11,0,0,1-.1,1.27A8.36,8.36,0,0,1,244,270Z"/><path class="cls-190" d="M268,286.58a8.61,8.61,0,0,1,.21,1.27c0,.4.05.8.05,1.19a13.78,13.78,0,0,1-.19,2.26,16.53,16.53,0,0,1-1.28,4.11,16,16,0,0,1-2.27,3.65,14.32,14.32,0,0,1-1.59,1.63c-.29.25-.61.5-.94.74a10.34,10.34,0,0,1-1.1.67,6.86,6.86,0,0,1-.21-1.27q-.06-.61-.06-1.2a13.78,13.78,0,0,1,.19-2.26,16.53,16.53,0,0,1,1.28-4.11,16.29,16.29,0,0,1,2.29-3.65A13.38,13.38,0,0,1,266,288a11.8,11.8,0,0,1,.94-.74A7.84,7.84,0,0,1,268,286.58Z"/><path class="cls-190" d="M281.22,312.31a8.34,8.34,0,0,1,1.06.84c.32.29.61.59.89.89a14.53,14.53,0,0,1,1.48,1.9,18.57,18.57,0,0,1,2.05,4.11,18.11,18.11,0,0,1,1,4.48,16,16,0,0,1,0,2.41c0,.41-.07.83-.14,1.26a9.79,9.79,0,0,1-.3,1.31,8.29,8.29,0,0,1-1.06-.83c-.32-.29-.62-.59-.9-.89a15.23,15.23,0,0,1-1.48-1.9,19,19,0,0,1-3-8.6,14.83,14.83,0,0,1,0-2.41c0-.41.07-.83.13-1.25A9.92,9.92,0,0,1,281.22,312.31Z"/><path class="cls-190" d="M277.73,365.2a8,8,0,0,1-1.2-.62c-.37-.22-.72-.46-1.06-.7a17.56,17.56,0,0,1-1.82-1.59,19.42,19.42,0,0,1-4.66-7.88,16.18,16.18,0,0,1-.5-2.36,10.7,10.7,0,0,1-.11-1.27,7.73,7.73,0,0,1,0-1.35,8,8,0,0,1,1.2.62c.37.22.72.46,1.06.7a16.58,16.58,0,0,1,1.82,1.59,18.43,18.43,0,0,1,2.8,3.66,18.84,18.84,0,0,1,1.85,4.23,15.9,15.9,0,0,1,.5,2.36,10.35,10.35,0,0,1,.11,1.26A8.78,8.78,0,0,1,277.73,365.2Z"/><path class="cls-190" d="M127.59,320.85a9.86,9.86,0,0,1,.16-1.48c.08-.48.19-.94.3-1.39a21,21,0,0,1,.88-2.57,24.75,24.75,0,0,1,2.56-4.59,23.84,23.84,0,0,1,3.45-3.95,19.76,19.76,0,0,1,2.13-1.69c.38-.26.78-.52,1.2-.75a10.4,10.4,0,0,1,1.34-.65,10,10,0,0,1-.16,1.48q-.12.71-.3,1.38a19.08,19.08,0,0,1-.88,2.58,25.08,25.08,0,0,1-6,8.53,18.83,18.83,0,0,1-2.13,1.69c-.38.26-.78.52-1.2.75A9.69,9.69,0,0,1,127.59,320.85Z"/><path class="cls-190" d="M125.65,319.17a7.46,7.46,0,0,1-1.1-.37c-.33-.15-.65-.3-1-.46a11.64,11.64,0,0,1-1.63-1.11,11.88,11.88,0,0,1-2.44-2.73,12,12,0,0,1-1.51-3.34,10.76,10.76,0,0,1-.34-1.94,9.18,9.18,0,0,1,0-1.06,6,6,0,0,1,.11-1.15,7.88,7.88,0,0,1,1.1.37,9.27,9.27,0,0,1,1,.46,10.8,10.8,0,0,1,1.63,1.1,11.65,11.65,0,0,1,2.43,2.74,11.91,11.91,0,0,1,1.51,3.34,11.71,11.71,0,0,1,.34,1.94,9.18,9.18,0,0,1,0,1.06A6.79,6.79,0,0,1,125.65,319.17Z"/><path class="cls-190" d="M80.12,260.2a12.37,12.37,0,0,1-1.4-.12c-.45-.07-.88-.16-1.3-.26A16.72,16.72,0,0,1,75,259a21,21,0,0,1-4.27-2.35,20.68,20.68,0,0,1-3.62-3.27,16.46,16.46,0,0,1-1.53-2,13,13,0,0,1-.66-1.16,9,9,0,0,1-.57-1.29,9,9,0,0,1,1.4.12,13.2,13.2,0,0,1,1.31.26,16.56,16.56,0,0,1,2.41.78,20.6,20.6,0,0,1,4.27,2.36,21.08,21.08,0,0,1,3.62,3.27,18.57,18.57,0,0,1,1.53,2c.23.36.46.75.67,1.15A10.22,10.22,0,0,1,80.12,260.2Z"/><path class="cls-190" d="M85.43,259.16a8.31,8.31,0,0,1-.48-1.34,12.86,12.86,0,0,1-.31-1.3,17.36,17.36,0,0,1-.3-2.55,22.16,22.16,0,0,1,1.8-9.64,17.68,17.68,0,0,1,1.21-2.26,12.87,12.87,0,0,1,.76-1.11,10.14,10.14,0,0,1,.94-1.07,9.86,9.86,0,0,1,.48,1.34c.13.44.23.87.32,1.31a17.34,17.34,0,0,1,.29,2.54,21.15,21.15,0,0,1-.36,4.92,21.79,21.79,0,0,1-1.45,4.72A17.79,17.79,0,0,1,87.12,257a12.73,12.73,0,0,1-.76,1.1A11.29,11.29,0,0,1,85.43,259.16Z"/><path class="cls-190" d="M92.54,373.22a11,11,0,0,1-.92,1.26c-.32.39-.65.75-1,1.1a21.22,21.22,0,0,1-2.13,1.92,27.58,27.58,0,0,1-4.7,2.95,27.23,27.23,0,0,1-5.19,2,21.3,21.3,0,0,1-2.82.54c-.48.06-1,.1-1.48.12a11.73,11.73,0,0,1-1.56,0,12.39,12.39,0,0,1,.92-1.26q.48-.59,1-1.11a22.39,22.39,0,0,1,2.13-1.91,28,28,0,0,1,9.9-4.91,21.47,21.47,0,0,1,2.81-.54c.49-.06,1-.11,1.48-.13A11.7,11.7,0,0,1,92.54,373.22Z"/><path class="cls-191" d="M69.52,451.07a12.14,12.14,0,0,1,1.24,1.1,14.83,14.83,0,0,1,1.09,1.16,26.91,26.91,0,0,1,1.87,2.45,32.46,32.46,0,0,1,4.66,11,25,25,0,0,1,.46,3c0,.53.07,1.05.07,1.59a11.75,11.75,0,0,1-.08,1.66A13.4,13.4,0,0,1,77.59,472c-.39-.38-.75-.77-1.09-1.16a23.71,23.71,0,0,1-1.87-2.45,32.34,32.34,0,0,1-4.65-11,25,25,0,0,1-.46-3c0-.53-.08-1.05-.08-1.59A13.46,13.46,0,0,1,69.52,451.07Z"/><path class="cls-191" d="M78.12,478.58l.06,0c.45-.26.87-.54,1.28-.82a24.5,24.5,0,0,0,2.28-1.85,29,29,0,0,0,6.65-9.19,21.87,21.87,0,0,0,1-2.74c.15-.48.28-1,.39-1.47a11,11,0,0,0,.25-1.57,12.42,12.42,0,0,0-1.41.73c-.45.26-.87.54-1.28.82a24.5,24.5,0,0,0-2.28,1.85,28.75,28.75,0,0,0-3.78,4.27,28.26,28.26,0,0,0-2.89,4.91,22.45,22.45,0,0,0-1,2.74q-.23.72-.39,1.47c-.06.29-.12.59-.16.89Z"/><path class="cls-191" d="M255.26,446.55a51,51,0,0,0,1.79,5.54,76.22,76.22,0,0,0,5.22,10.78,87.82,87.82,0,0,0,7.1,10.43q2,2.56,4.38,5.07l.2.21h4.35c-.07-.34-.15-.67-.24-1a51,51,0,0,0-1.78-5.54A75.28,75.28,0,0,0,271,461.26a90,90,0,0,0-7.11-10.43c-1.35-1.71-2.81-3.39-4.38-5.06-.79-.84-1.6-1.66-2.47-2.48s-1.76-1.64-2.76-2.43a19.71,19.71,0,0,0,.33,2.87C254.81,444.68,255,445.62,255.26,446.55Z"/><path class="cls-191" d="M273.88,478.58l.56-.31c1.55-.85,3-1.75,4.35-2.67a54.15,54.15,0,0,0,7.18-5.83,41.5,41.5,0,0,0,5.49-6.39,26,26,0,0,0,2-3.44,16.75,16.75,0,0,0,.74-1.81,10,10,0,0,0,.48-1.88c-1,.36-1.85.76-2.69,1.16s-1.65.83-2.43,1.26a50.27,50.27,0,0,0-4.35,2.67,55,55,0,0,0-7.2,5.83,41,41,0,0,0-5.49,6.38,26,26,0,0,0-2,3.44,15.67,15.67,0,0,0-.66,1.59Z"/><path class="cls-192" d="M954,198.9l54.57.26-5.81-9.32a5.31,5.31,0,0,0-3.63-1.55,5.4,5.4,0,0,0-4.13,2.07l-6.21,6.47-3.49-4.27a4.88,4.88,0,0,0-2.72-3.1c-2.07-.76-4.75.34-6.08,2.84l-2.58,4.79a48.42,48.42,0,0,1-5.82-5.05c-1.72-1.74-2.42-2.73-3.75-3-2.2-.4-4.33,1.51-5.56,2.84Z"/><path class="cls-193" d="M366.25,175.3a17.17,17.17,0,0,1-2.46-6c-.38-1.9-.8-4,.26-5.95.62-1.18,2-2.82,3.36-2.59.91.15,1.49,1.11,2.33,3.11a45.33,45.33,0,0,1,2.59,8.4Z"/><path class="cls-194" d="M361.33,168.05c-1.48-.81-1.23-4-.9-5.56a10.6,10.6,0,0,1,4.78-6.46c.53-1.65.92-1.95,1.17-1.94.8,0,1.27,3.34,1.42,4.39.35,2.46.52,3.68.13,4.92C366.93,166.52,363.08,169,361.33,168.05Z"/><path class="cls-7" d="M354.22,212.67a23.92,23.92,0,0,0-.26,11.9,23,23,0,0,0,1.17,3.49,29.21,29.21,0,0,1,7-5.95c6.43-3.9,11.78-3.57,22.63-5.82a132.73,132.73,0,0,0,13.32-3.49l-.9-7.24Z"/><path class="cls-195" d="M422.44,286.19q.06,8.54.13,17.07a22.19,22.19,0,0,0,4.78,2.59c4.32,1.67,7.86,1.44,12.16,1.16,2.95-.19,5.26-.36,5.56-1.42s-1.57-2.45-2.46-3.11a13.77,13.77,0,0,0-7-2.58q.25-8.67.52-17.33Z"/><path class="cls-195" d="M461.88,280l10.74,14.49a13.75,13.75,0,0,0,2.71-.13c6.93-1.1,10.86-7.8,11.9-9.7.51-1.65.51-2.68,0-3.11q-1.39-1.17-7.89,3.75l-9.7-10.47Z"/><path class="cls-2" d="M441.29,256.43c2.12,3,3.86,5.77,5.27,8.1,6.81,11.23,9.39,18.84,15.52,19.52a11.27,11.27,0,0,0,9.05-3.49c2.23-2.43,3.16-5.46,2.71-6.33-3-6-4.17-9.61-10.08-19.27-5.17-8.44-10.77-17.6-11.77-26.9a10.64,10.64,0,0,0-2.33-6.21c-2.63-3-6.74-3.24-9.83-3.49-9.91-.79-18.72-2.18-22.89-3-.71-.14-6.3-1.35-17.46-3.76a31.7,31.7,0,0,0-7-1c-5.3-.06-7.18,1.56-13.32,2.85-7.69,1.6-7.75-.32-12.67,1.42-4.33,1.53-12,5.43-10.87,10.21a17.52,17.52,0,0,0,1.81,4.66c3.3,5.77,9.15,8,15,10.09a55.39,55.39,0,0,0,17.84,3.23h29.36c.06,29.65,0,41.83,0,43.52v.07c.07,2.39,6.54,5,11.77,4.65a15.82,15.82,0,0,0,9.7-4.66q.08-15.11.16-30.21l.09-18.28c0-.68,1-3.14.13-5.82a10.25,10.25,0,0,0-4.78-5.31,14.43,14.43,0,0,0-7.63-1.68c-4.49.17-13.44-.88-32.46-5.43"/><path class="cls-10" d="M352.61,215.84c0-.1-1.14-23.78-1.14-23.78,1.11,23.3,0-.53,0-.53,0-.63-3.16-2.18-3.75-3.24-1.45-2.59,5.69-8.4,5.69-8.4,8.82-7.18,21.76-12.85,31.17-16.43,3,.46,8.16,1.74,11.12,5.95,2.64,3.76,2.21,8,1.94,12.55a193.17,193.17,0,0,0,.26,25.73Z"/><path class="cls-193" d="M379.63,151.82c.64.82,4.82,6.11,6.6,6.34.27,0,1,.13,1.29-.26a1,1,0,0,0,.13-.77c-.12-.73-1.44-9-4.52-8.93C382.79,148.21,381.27,148.33,379.63,151.82Z"/><path class="cls-193" d="M386.62,146.78c.63.81,4.81,6.1,6.59,6.34.27,0,1,.13,1.3-.26a1,1,0,0,0,.12-.78c-.11-.73-1.43-9-4.52-8.92C389.77,143.16,388.25,143.29,386.62,146.78Z"/><path class="cls-196" d="M381.64,171.8c.27-.22,6.22-5.18,4.91-11a8.22,8.22,0,0,0-1.55-3.23l2.72-1.29a15.45,15.45,0,0,1,3,6.2,16.61,16.61,0,0,1-2.2,12"/><path class="cls-196" d="M392.63,176.2c1.27-.89,6.71-4.9,6.47-10.09-.12-2.49-1.52-4.66-4-8.53a51.37,51.37,0,0,0-3.62-4.92l3.62-1.94a49.58,49.58,0,0,1,6.85,6.86c3.27,4,4.9,6,5.43,9a14.64,14.64,0,0,1-4.91,13.06,15.18,15.18,0,0,1-8.28,3.62"/><polyline class="cls-197" points="433.3 89.88 388.04 138.76 391.53 142.64 455.03 106.95"/><path class="cls-198" d="M370.65,158c.14.85.43,1.77,1,1.94.92.25,2.09-1.38,2.33-1.69,1.51-2,8.49-7.29,27.29-19.52a9.5,9.5,0,0,1-7.12-9.31Z"/><path class="cls-199" d="M395.73,128.87c1.25-.7,3.34,1.08,4.66,2.2s3.29,2.79,3.23,5.17a2.73,2.73,0,0,1-.77,2.2c-1.66,1.16-6.36-1.16-7.63-4.79C394.63,132,394.59,129.51,395.73,128.87Z"/><circle class="cls-2" cx="995.2" cy="220.62" r="2.97"/><circle class="cls-2" cx="938.43" cy="237.95" r="2.97"/><circle class="cls-2" cx="948.39" cy="290.46" r="2.97"/><circle class="cls-2" cx="774.84" cy="277.27" r="2.97"/><circle class="cls-2" cx="762.04" cy="297.7" r="2.97"/><circle class="cls-200" cx="851.66" cy="422.24" r="2.97"/><circle class="cls-200" cx="873" cy="371.54" r="2.97"/><circle class="cls-200" cx="954.6" cy="375.03" r="2.97"/><circle class="cls-200" cx="961.97" cy="378.27" r="2.97"/><circle class="cls-200" cx="1039.04" cy="399.35" r="2.97"/><circle class="cls-200" cx="1029.09" cy="419.26" r="2.97"/><circle class="cls-200" cx="1027.79" cy="450.69" r="2.97"/><circle class="cls-200" cx="260.01" cy="320.85" r="2.97"/><circle class="cls-200" cx="166.9" cy="342.83" r="2.97"/><circle class="cls-200" cx="96.68" cy="317.87" r="2.97"/><circle class="cls-200" cx="95" cy="293.3" r="2.97"/><circle class="cls-200" cx="72.24" cy="285.54" r="2.97"/><circle class="cls-200" cx="107.02" cy="274.81" r="2.97"/><circle class="cls-200" cx="115.82" cy="179.37" r="2.97"/><circle class="cls-200" cx="99.65" cy="121.17" r="2.97"/><circle class="cls-200" cx="204.27" cy="129.45" r="2.97"/><circle class="cls-200" cx="262.99" cy="144.71" r="2.97"/><circle class="cls-200" cx="275.92" cy="177.43" r="2.97"/><circle class="cls-200" cx="784.28" cy="324.21" r="2.97"/><circle class="cls-200" cx="791.52" cy="364.82" r="2.97"/><circle class="cls-200" cx="798.77" cy="405.04" r="2.97"/><path class="cls-201" d="M114.91,129.32l54.58.26-5.82-9.31a5.26,5.26,0,0,0-3.62-1.55,5.36,5.36,0,0,0-4.14,2.07l-6.21,6.46L146.21,123a4.9,4.9,0,0,0-2.72-3.1c-2.06-.76-4.75.34-6.08,2.85l-2.58,4.78a48.51,48.51,0,0,1-5.82-5c-1.71-1.75-2.41-2.73-3.75-3-2.19-.4-4.33,1.51-5.56,2.85Z"/><path class="cls-4" d="M791.66,277.91a20.94,20.94,0,0,0,.29-4.34,19.22,19.22,0,0,0-.69-4.37,17.77,17.77,0,0,0-1.75-4.16,18.88,18.88,0,0,0-2.77-3.68,19.32,19.32,0,0,1,6.09,7.24,21,21,0,0,1,1.62,4.63,23.9,23.9,0,0,1,.56,4.94Z"/><path class="cls-4" d="M796.44,273.26a19.7,19.7,0,0,0,.29-4.35,18.7,18.7,0,0,0-2.43-8.52,19.3,19.3,0,0,0-2.78-3.69,19.42,19.42,0,0,1,3.46,3.2,19.09,19.09,0,0,1,2.63,4,21.18,21.18,0,0,1,1.62,4.63,22.69,22.69,0,0,1,.56,4.95Z"/><path class="cls-4" d="M802.52,273.9a19.65,19.65,0,0,0,.29-4.34,18.69,18.69,0,0,0-.69-4.37,18.16,18.16,0,0,0-1.74-4.16,18.93,18.93,0,0,0-2.78-3.68,19.32,19.32,0,0,1,6.09,7.24,21.18,21.18,0,0,1,1.62,4.63,22.67,22.67,0,0,1,.56,4.94Z"/><path class="cls-202" d="M251.21,104.62a19.65,19.65,0,0,1-.29-4.34,18.69,18.69,0,0,1,2.43-8.53,18.93,18.93,0,0,1,2.78-3.68A19.39,19.39,0,0,0,250,95.3a20.67,20.67,0,0,0-1.62,4.63,23.33,23.33,0,0,0-.57,4.95Z"/><path class="cls-202" d="M246.42,100a21,21,0,0,1-.29-4.35,19.31,19.31,0,0,1,.69-4.37,17.69,17.69,0,0,1,1.75-4.15,19.25,19.25,0,0,1,2.77-3.69,19.32,19.32,0,0,0-6.09,7.24,21.18,21.18,0,0,0-1.62,4.63,24,24,0,0,0-.56,4.94Z"/><path class="cls-202" d="M240.34,100.61a20.94,20.94,0,0,1-.29-4.34,19.22,19.22,0,0,1,.69-4.37,18.66,18.66,0,0,1,1.75-4.16,18.88,18.88,0,0,1,2.77-3.68,19.36,19.36,0,0,0-3.46,3.2,18.93,18.93,0,0,0-2.62,4,20,20,0,0,0-1.62,4.63,23.24,23.24,0,0,0-.57,4.94Z"/><polygon class="cls-203" points="999.08 355.38 958.48 355.38 958.87 353.69 960.08 348.52 962.35 338.82 963.56 333.65 965.82 323.95 967.03 318.78 969.3 309.08 970.51 303.91 972.77 294.21 973.98 289.03 976.25 279.33 977.46 274.16 980.33 261.88 982.8 274.16 983.83 279.33 985.78 289.03 986.82 294.21 988.76 303.91 989.8 309.08 991.74 318.78 992.78 323.95 994.73 333.65 995.76 338.82 997.71 348.52 998.75 353.69 999.08 355.38"/><polygon class="cls-5" points="983.83 279.33 976.25 279.33 977.46 274.16 982.8 274.16 983.83 279.33"/><polygon class="cls-5" points="986.82 294.21 972.77 294.21 973.98 289.03 985.78 289.03 986.82 294.21"/><polygon class="cls-5" points="989.8 309.08 969.3 309.08 970.51 303.91 988.76 303.91 989.8 309.08"/><polygon class="cls-5" points="992.78 323.95 965.82 323.95 967.03 318.78 991.74 318.78 992.78 323.95"/><polygon class="cls-5" points="995.76 338.82 962.35 338.82 963.56 333.65 994.73 333.65 995.76 338.82"/><polygon class="cls-5" points="998.75 353.69 958.87 353.69 960.08 348.52 997.71 348.52 998.75 353.69"/><path class="cls-204" d="M160.23,443.44A38.92,38.92,0,0,1,159,451.2a38.18,38.18,0,0,1-13.37,20.44c-6.35,5-14,7.56-21.3,6.85a29,29,0,0,1-15.61-6.85,36.47,36.47,0,0,1-6.94-7.76,39,39,0,0,1-6.46-20.44,41,41,0,0,1,.17-5.17q1.32-3.75,2.63-7.5l2.73-7.76,4.44-12.67c.91-2.59,1.81-5.18,2.72-7.76q2.22-6.34,4.45-12.68c.9-2.58,1.81-5.17,2.72-7.75l4.44-12.68q1.36-3.87,2.72-7.76,2.69-7.62,5.36-15.26,2.68,7.64,5.39,15.26c.91,2.59,1.83,5.18,2.74,7.76q2.25,6.34,4.48,12.68l2.75,7.75q2.23,6.35,4.48,12.68l2.74,7.76L154.78,423c.91,2.59,1.83,5.17,2.74,7.76s1.77,5,2.65,7.5A38.94,38.94,0,0,1,160.23,443.44Z"/><path class="cls-205" d="M135.85,369.47H119.64q1.36-3.87,2.72-7.76h10.75C134,364.3,134.94,366.89,135.85,369.47Z"/><path class="cls-205" d="M143.08,389.9h-30.6c.9-2.58,1.81-5.17,2.72-7.75h25.13Z"/><path class="cls-205" d="M150.3,410.34h-45c.91-2.59,1.81-5.18,2.72-7.76h39.53Z"/><path class="cls-205" d="M157.52,430.77H98.14l2.73-7.76h53.91C155.69,425.6,156.61,428.18,157.52,430.77Z"/><path class="cls-205" d="M160.23,443.44A38.92,38.92,0,0,1,159,451.2H96.34a38.5,38.5,0,0,1-1-7.76Z"/><path class="cls-205" d="M153.08,463.88a38.08,38.08,0,0,1-7.43,7.76H108.74a36.47,36.47,0,0,1-6.94-7.76Z"/></g></g></svg>