<svg width="326" height="204" viewBox="0 0 326 204" fill="none" xmlns="http://www.w3.org/2000/svg">
<path d="M0 0H325.231V203.431H0V0Z" fill="white"/>
<path d="M230.789 161.307C191.224 186.483 170.275 184.481 165.39 183.498L165.405 183.493L212.29 166.702V156.744C234.819 159.283 230.789 161.307 230.789 161.307Z" fill="#C9C9C9"/>
<path d="M180.717 136.673C180.207 136.673 179.732 136.342 179.574 135.829C179.377 135.196 179.732 134.525 180.365 134.33L210.576 124.979C211.207 124.783 211.881 125.138 212.075 125.771C212.271 126.404 211.917 127.075 211.284 127.269L181.072 136.62C180.955 136.656 180.835 136.673 180.717 136.673Z" fill="#FF5C51"/>
<path d="M180.717 146.744C180.207 146.744 179.732 146.413 179.574 145.9C179.377 145.267 179.732 144.596 180.365 144.401L210.576 135.05C211.207 134.854 211.881 135.208 212.075 135.841C212.271 136.474 211.917 137.146 211.284 137.34L181.072 146.691C180.955 146.727 180.835 146.744 180.717 146.744Z" fill="#FF5C51"/>
<path d="M180.717 156.815C180.207 156.815 179.732 156.484 179.574 155.971C179.377 155.338 179.732 154.666 180.365 154.472L210.576 145.121C211.207 144.924 211.881 145.279 212.075 145.912C212.271 146.545 211.917 147.217 211.284 147.411L181.072 156.762C180.955 156.798 180.835 156.815 180.717 156.815Z" fill="#FF5C51"/>
<path d="M130.108 113.603L129.765 113.711L130.485 115.998L134.297 114.799L130.108 113.603Z" fill="#FF5C51"/>
<path d="M217.87 112.411H217.868L172.054 100.42L130.108 113.603L134.297 114.799L172.117 102.913L213.358 113.71L172.085 125.596L134.297 114.799L130.485 115.998L129.765 113.71L130.108 113.603L128.926 113.895V166.271L170.887 182.336L172.069 182.789L173.27 182.36L173.284 182.355L219.081 166.003V112.696L217.87 112.411ZM170.887 179.768L131.324 164.621V116.444L170.887 127.747V179.768ZM216.683 164.312L173.896 179.593L173.284 179.811V127.744L216.683 115.247V164.312Z" fill="#FF5C51"/>
<path d="M197.76 167.098C197.228 167.213 196.693 167.271 196.163 167.271C193.624 167.271 191.195 165.971 189.73 163.753C189.656 163.645 189.586 163.535 189.519 163.422C189.178 162.854 189.365 162.118 189.936 161.78C190.504 161.439 191.24 161.626 191.579 162.197C191.622 162.271 191.667 162.343 191.715 162.413C192.928 164.252 195.166 165.211 197.244 164.756C199.683 164.221 201.443 161.857 201.34 159.26C201.313 158.598 201.826 158.042 202.488 158.015C203.145 157.984 203.709 158.502 203.735 159.164C203.888 162.967 201.373 166.304 197.76 167.098Z" fill="#FF5C51"/>
<path d="M134.297 114.799L130.485 115.998L129.765 113.711L130.108 113.603L134.297 114.799Z" fill="#FF5C51"/>
<path d="M173.164 107.421C165.002 107.421 156.74 109.481 156.74 113.416C156.74 114.504 157.373 115.449 158.461 116.247C159.094 116.712 159.881 117.125 160.785 117.487C163.952 118.758 168.575 119.41 173.164 119.41C178.024 119.41 182.923 118.679 186.088 117.257C186.997 116.849 187.764 116.382 188.347 115.859C189.14 115.149 189.589 114.332 189.589 113.416C189.589 109.481 181.326 107.421 173.164 107.421ZM186.023 114.619C185.455 114.96 184.652 115.319 183.57 115.662C183.194 115.78 182.801 115.892 182.391 115.996C179.796 116.655 176.576 117.012 173.164 117.012C169.961 117.012 166.925 116.696 164.417 116.111C163.835 115.976 163.278 115.825 162.758 115.662C161.916 115.396 161.243 115.118 160.72 114.849C159.588 114.267 159.137 113.72 159.137 113.416C159.137 112.97 160.101 112.006 162.758 111.169C165.52 110.299 169.215 109.819 173.164 109.819C177.113 109.819 180.808 110.299 183.57 111.169C186.227 112.006 187.191 112.97 187.191 113.416C187.191 113.679 186.853 114.125 186.023 114.619Z" fill="#FF5C51"/>
<path d="M173.644 112.696C168.784 112.696 163.885 113.428 160.72 114.85C161.243 115.118 161.917 115.396 162.758 115.662C163.279 115.825 163.835 115.977 164.418 116.111C167.012 115.451 170.232 115.094 173.644 115.094C176.847 115.094 179.883 115.411 182.391 115.996C182.801 115.893 183.194 115.78 183.571 115.662C184.652 115.32 185.455 114.96 186.023 114.619C182.856 113.349 178.233 112.696 173.644 112.696Z" fill="#FF5C51"/>
<path d="M178.17 64.458C178.207 64.4134 178.242 64.3675 178.276 64.3182C179.217 62.9577 178.628 60.9694 176.526 58.407C175.841 57.5718 175.02 56.7062 174.089 55.8348C174.881 55.7441 175.677 55.5543 176.457 55.2572C178.912 54.3226 180.854 52.4885 181.929 50.0921C183.004 47.6957 183.082 45.0259 182.147 42.5715C180.22 37.5059 174.528 34.9526 169.463 36.883C164.786 38.6618 162.203 43.7092 163.437 48.5047C162.365 47.9847 161.333 47.5538 160.369 47.2279C157.269 46.1759 155.213 46.3107 154.257 47.6257L154.249 47.6202L136.109 73.9296C135.996 74.0381 135.894 74.1601 135.802 74.2922C134.861 75.6527 135.451 77.6409 137.553 80.2033C139.294 82.3265 141.927 84.6527 144.965 86.7551C148.004 88.8575 151.108 90.5015 153.709 91.3825C156.617 92.3679 158.606 92.3125 159.628 91.2181L159.691 91.2617L178.17 64.458ZM170.316 39.1232C172.691 38.2185 175.249 38.6179 177.197 39.9658C178.388 40.7898 179.353 41.9705 179.907 43.424C180.614 45.2806 180.554 47.3008 179.741 49.1118C179.55 49.5362 179.323 49.9393 179.064 50.3139C178.218 51.5364 177.026 52.4756 175.605 53.017C174.08 53.5979 172.479 53.6414 171.013 53.2396C169.403 52.802 167.957 51.8279 166.95 50.443C166.569 49.923 166.256 49.3443 166.015 48.7142C165.951 48.5535 165.896 48.3896 165.845 48.2264C164.713 44.5068 166.678 40.5076 170.316 39.1232ZM156.253 49.0011C156.945 48.6545 160.294 49.2252 165.321 52.2546C165.912 52.9844 166.599 53.6175 167.357 54.1414C168.139 54.6831 168.996 55.1096 169.896 55.4058C174.55 59.0373 176.333 61.9939 176.318 62.8377C176.319 62.8823 176.313 62.9194 176.302 62.9525C175.852 63.3085 173.329 62.9975 169.39 60.9747C168.008 60.2631 166.451 59.3436 164.748 58.1648C163.093 57.0202 161.714 55.9168 160.579 54.8982C157.224 51.8831 156.017 49.5903 156.194 49.0393C156.213 49.0256 156.233 49.0133 156.253 49.0011ZM138.944 74.0458L139.507 73.2282L154.507 51.4697C154.862 52.1236 155.351 52.8291 155.971 53.5848C157.712 55.708 160.345 58.0342 163.383 60.1366C166.422 62.239 169.527 63.8829 172.127 64.7639C173.051 65.0765 173.88 65.2857 174.617 65.3876L159.593 87.1816L159.079 87.9283L157.884 89.571C157.8 89.6381 157.642 89.6806 157.417 89.694C156.017 89.7749 151.971 88.6866 146.329 84.7834C140.775 80.9401 138.32 77.5821 137.847 76.1998C137.761 75.9535 137.74 75.7696 137.776 75.6578L138.944 74.0458Z" fill="#FF5C51"/>
<path d="M169.984 45.7511C170.474 46.0901 171.146 45.9677 171.485 45.4777C171.824 44.9877 171.702 44.3156 171.212 43.9765C170.722 43.6374 170.05 43.7598 169.711 44.2498C169.371 44.7399 169.494 45.412 169.984 45.7511Z" fill="#FF5C51"/>
<path d="M174.322 48.7528C174.812 49.0918 175.484 48.9695 175.823 48.4794C176.162 47.9894 176.039 47.3173 175.549 46.9782C175.059 46.6391 174.387 46.7615 174.048 47.2515C173.709 47.7416 173.831 48.4137 174.322 48.7528Z" fill="#FF5C51"/>
<path d="M169.421 51.1958C169.381 51.1685 169.342 51.1412 169.302 51.1106C168.395 50.4192 167.941 49.2766 168.117 48.133C168.168 47.8067 168.473 47.5805 168.799 47.6314C169.125 47.6822 169.352 47.9874 169.301 48.3138C169.191 49.0249 169.471 49.7321 170.028 50.1581C170.642 50.627 171.477 50.6766 172.162 50.2934C172.451 50.1321 172.817 50.2362 172.977 50.5223C173.139 50.8118 173.036 51.1752 172.748 51.3378C171.69 51.9321 170.399 51.8725 169.421 51.1958Z" fill="#FF5C51"/>
<path d="M73.0744 101.354L73.0093 101.399L73.1034 101.395L73.0744 101.354Z" fill="#C9C9C9"/>
<path d="M73.112 101.411L73.1024 101.395L73.0089 101.399L64.6816 101.769C64.8974 100.961 65.0125 100.112 65.0125 99.2367C65.0125 93.8154 60.603 89.406 55.1818 89.406C49.7605 89.406 45.3511 93.8154 45.3511 99.2367C45.3511 103.303 47.8591 106.845 51.4413 108.327L49.1419 117.845L49.0819 118.095L50.909 120.744L67.6212 144.995L91.7088 128.396L73.112 101.411ZM47.7488 99.2367C47.7488 95.139 51.084 91.8037 55.1818 91.8037C59.2795 91.8037 62.6147 95.139 62.6147 99.2367C62.6147 103.334 59.2795 106.67 55.1818 106.67C55.0115 106.67 54.8365 106.665 54.6663 106.653C50.7867 106.387 47.7488 103.131 47.7488 99.2367ZM53.7527 108.964C53.9997 109 54.2514 109.027 54.5032 109.043C54.7286 109.06 54.9564 109.067 55.1818 109.067C58.7856 109.067 61.9434 107.118 63.6553 104.217L69.2804 103.967L52.1007 115.807L53.7527 108.964ZM52.3213 118.567L72.4598 104.689L88.3736 127.782L68.235 141.66L52.3213 118.567Z" fill="#C9C9C9"/>
<path d="M73.1131 101.395V101.413L73.1025 101.395H73.1131Z" fill="#C9C9C9"/>
<path d="M53.7792 100.145C54.3459 100.145 54.8054 99.6859 54.8054 99.1191C54.8054 98.5524 54.3459 98.0929 53.7792 98.0929C53.2124 98.0929 52.7529 98.5524 52.7529 99.1191C52.7529 99.6859 53.2124 100.145 53.7792 100.145Z" fill="#C9C9C9"/>
<path d="M57.0043 97.2127C57.571 97.2127 58.0305 96.7533 58.0305 96.1865C58.0305 95.6197 57.571 95.1603 57.0043 95.1603C56.4375 95.1603 55.978 95.6197 55.978 96.1865C55.978 96.7533 56.4375 97.2127 57.0043 97.2127Z" fill="#C9C9C9"/>
<path d="M58.4715 101.613C59.0383 101.613 59.4978 101.153 59.4978 100.586C59.4978 100.02 59.0383 99.5601 58.4715 99.5601C57.9048 99.5601 57.4453 100.02 57.4453 100.586C57.4453 101.153 57.9048 101.613 58.4715 101.613Z" fill="#C9C9C9"/>
<path d="M241.872 109.624L256.265 110.842V110.84L241.872 109.624ZM241.872 109.624L256.265 110.842V110.84L241.872 109.624ZM256.265 110.84L241.872 109.624L256.265 110.842H256.282L256.265 110.84ZM243.644 112.18L243.646 112.183L256.378 113.257L243.644 112.18ZM269.131 92.0034L269.11 92.0442L267.94 94.2141L258.639 111.49L258.649 111.504L267.945 94.2165L269.112 92.0442L269.134 92.0058L269.131 92.0034ZM241.872 109.624L256.265 110.842V110.84L241.872 109.624ZM241.872 109.624L256.265 110.842V110.84L241.872 109.624ZM241.872 109.624L256.265 110.842V110.84L241.872 109.624Z" fill="#C9C9C9"/>
<path d="M265.765 93.1978L256.265 110.84V110.843H256.282L265.768 93.1978H265.765Z" fill="#C9C9C9"/>
<path d="M269.11 92.0444L267.939 94.2144C267.942 94.2144 267.942 94.2168 267.944 94.2168L269.112 92.0444H269.11Z" fill="#C9C9C9"/>
<path d="M273.696 94.0031C276.953 92.7251 279.264 89.5529 279.264 85.8484C279.264 81.0218 275.339 77.0967 270.512 77.0967C265.686 77.0967 261.761 81.0218 261.761 85.8484C261.761 86.6325 261.864 87.3949 262.06 88.119L251.244 87.3566L239.26 109.404L238.416 110.957L239.466 111.828L252.153 122.361L265.688 124.025L266.947 124.179L267.788 122.761L279.991 102.187L273.696 94.0031ZM270.512 79.4944C274.015 79.4944 276.866 82.3453 276.866 85.8484C276.866 88.7856 274.859 91.2673 272.145 91.9866L270.378 89.6896L269.577 88.6466L268.266 88.5554L264.65 88.3013C264.333 87.546 264.158 86.7164 264.158 85.8484C264.158 82.3453 267.009 79.4944 270.512 79.4944ZM252.616 89.855L263.166 90.5983L266.587 90.8381L267.019 90.8692L266.908 91.0754L265.767 93.1974L256.282 110.842H256.265L241.871 109.624L252.616 89.855ZM253.146 120.069L243.646 112.183L243.643 112.18L256.378 113.257L263.369 121.323L253.146 120.069ZM266.165 120.798L258.648 111.504L258.639 111.49L267.94 94.2141L269.11 92.0441L269.131 92.0034L269.134 92.0058L269.174 92.0585L271.112 94.5785L277.099 102.359L266.165 120.798Z" fill="#C9C9C9"/>
<path d="M268.235 83.8106C268.764 83.8106 269.194 83.3812 269.194 82.8515C269.194 82.3219 268.764 81.8925 268.235 81.8925C267.705 81.8925 267.276 82.3219 267.276 82.8515C267.276 83.3812 267.705 83.8106 268.235 83.8106Z" fill="#C9C9C9"/>
<path d="M270.632 84.7699C271.162 84.7699 271.592 84.3405 271.592 83.8108C271.592 83.2811 271.162 82.8517 270.632 82.8517C270.103 82.8517 269.673 83.2811 269.673 83.8108C269.673 84.3405 270.103 84.7699 270.632 84.7699Z" fill="#C9C9C9"/>
<path d="M269.913 87.8868C269.678 87.8868 269.472 87.7118 269.438 87.472C269.311 86.5585 268.688 85.8392 267.923 85.7217C267.312 85.6282 266.801 85.9591 266.611 86.1053C266.403 86.2684 266.101 86.23 265.938 86.019C265.775 85.8104 265.813 85.5083 266.024 85.3452C266.312 85.1222 267.086 84.6211 268.069 84.7698C269.251 84.9496 270.206 86.0046 270.39 87.3353C270.426 87.5967 270.244 87.8389 269.98 87.8748C269.956 87.8844 269.935 87.8868 269.913 87.8868Z" fill="#C9C9C9"/>
<path d="M125.33 38.2267C124.728 39.0323 123.572 39.1618 122.81 38.5096L115.094 31.9279C114.591 31.4987 114.531 30.741 114.96 30.2375C115.389 29.7339 116.147 29.674 116.65 30.1032L123.829 36.227L136.491 19.2702C136.887 18.7403 137.64 18.6301 138.17 19.0257C138.7 19.4213 138.81 20.1742 138.414 20.7041L125.33 38.2267Z" fill="#FF5C51"/>
<path d="M111.643 80.02C110.914 80.02 110.324 79.4302 110.324 78.7013V75.824C110.324 75.0951 110.914 74.5052 111.643 74.5052C112.372 74.5052 112.962 75.0951 112.962 75.824V78.7013C112.962 79.4302 112.369 80.02 111.643 80.02Z" fill="#C9C9C9"/>
<path d="M111.643 91.7692C110.914 91.7692 110.324 91.1793 110.324 90.4504V87.5731C110.324 86.8442 110.914 86.2544 111.643 86.2544C112.372 86.2544 112.962 86.8442 112.962 87.5731V90.4504C112.962 91.1793 112.369 91.7692 111.643 91.7692Z" fill="#C9C9C9"/>
<path d="M114.76 83.137C114.76 82.4081 115.35 81.8182 116.079 81.8182H118.956C119.685 81.8182 120.275 82.4081 120.275 83.137C120.275 83.8659 119.685 84.4557 118.956 84.4557H116.079C115.35 84.4557 114.76 83.8659 114.76 83.137Z" fill="#C9C9C9"/>
<path d="M103.011 83.137C103.011 82.4081 103.601 81.8182 104.33 81.8182H107.207C107.936 81.8182 108.526 82.4081 108.526 83.137C108.526 83.8659 107.936 84.4557 107.207 84.4557H104.33C103.601 84.4557 103.011 83.8659 103.011 83.137Z" fill="#C9C9C9"/>
<path d="M212.448 65.7666C211.719 65.7666 211.129 65.1768 211.129 64.4479V61.5706C211.129 60.8417 211.719 60.2518 212.448 60.2518C213.177 60.2518 213.766 60.8417 213.766 61.5706V64.4479C213.766 65.1768 213.174 65.7666 212.448 65.7666Z" fill="#C9C9C9"/>
<path d="M212.448 74.3984C211.719 74.3984 211.129 73.8086 211.129 73.0797V70.2024C211.129 69.4735 211.719 68.8837 212.448 68.8837C213.177 68.8837 213.766 69.4735 213.766 70.2024V73.0797C213.766 73.8086 213.174 74.3984 212.448 74.3984Z" fill="#C9C9C9"/>
<path d="M213.767 67.565C213.767 66.8361 214.356 66.2462 215.085 66.2462H217.963C218.692 66.2462 219.281 66.8361 219.281 67.565C219.281 68.2939 218.692 68.8837 217.963 68.8837H215.085C214.356 68.8837 213.767 68.2939 213.767 67.565Z" fill="#C9C9C9"/>
<path d="M205.375 67.565C205.375 66.8361 205.965 66.2462 206.694 66.2462H209.571C210.3 66.2462 210.89 66.8361 210.89 67.565C210.89 68.2939 210.3 68.8837 209.571 68.8837H206.694C205.965 68.8837 205.375 68.2939 205.375 67.565Z" fill="#C9C9C9"/>
<path d="M186.653 24.9509C185.925 24.9509 185.335 24.3611 185.335 23.6322V20.7549C185.335 20.026 185.925 19.4362 186.653 19.4362C187.382 19.4362 187.972 20.026 187.972 20.7549V23.6322C187.972 24.3611 187.38 24.9509 186.653 24.9509Z" fill="#C9C9C9"/>
<path d="M186.653 33.1033C185.925 33.1033 185.335 32.5134 185.335 31.7845V28.9073C185.335 28.1783 185.925 27.5885 186.653 27.5885C187.382 27.5885 187.972 28.1783 187.972 28.9073V31.7845C187.972 32.5134 187.38 33.1033 186.653 33.1033Z" fill="#C9C9C9"/>
<path d="M188.092 26.1498C188.092 25.4209 188.682 24.8311 189.411 24.8311H192.288C193.017 24.8311 193.607 25.4209 193.607 26.1498C193.607 26.8787 193.017 27.4686 192.288 27.4686H189.411C188.682 27.4686 188.092 26.8787 188.092 26.1498Z" fill="#C9C9C9"/>
<path d="M179.46 26.1498C179.46 25.4209 180.05 24.8311 180.779 24.8311H183.656C184.385 24.8311 184.975 25.4209 184.975 26.1498C184.975 26.8787 184.385 27.4686 183.656 27.4686H180.779C180.05 27.4686 179.46 26.8787 179.46 26.1498Z" fill="#C9C9C9"/>
<path fill-rule="evenodd" clip-rule="evenodd" d="M262.191 27.0417C258.366 24.1335 252.984 23.0644 248.573 24.8324L248.572 24.833C246.719 25.5747 244.159 26.7227 243.232 29.3701C242.713 30.8538 242.97 32.38 243.566 33.7864C244.104 35.0542 244.796 35.95 245.083 36.3205C245.114 36.3606 245.14 36.3945 245.161 36.422L245.837 37.3207L245.811 38.4451C245.768 40.3076 245.6 42.1528 245.444 43.8741L245.438 43.9372C245.415 44.1947 245.392 44.4496 245.369 44.7021C245.534 44.6609 245.698 44.6198 245.863 44.5786C247.461 44.1788 249.06 43.7789 250.659 43.3795L252.021 43.0393L253.201 43.8005C256.209 45.7418 259.261 46.5878 261.792 46.6105C264.367 46.6337 266.121 45.8246 267.028 44.8251L267.029 44.8246C269.077 42.5681 268.899 39.7814 268.161 35.8499L268.161 35.8484C267.991 34.9407 266.506 30.3229 262.192 27.042M246.164 18.8183C253.022 16.0699 260.779 17.8301 266.113 21.8844L266.113 21.8847C272.025 26.3808 274.147 32.6128 274.529 34.656C275.231 38.3972 276.242 44.3143 271.826 49.1791C269.328 51.9317 265.563 53.1234 261.734 53.089C258.261 53.0578 254.497 52.034 250.919 49.9924C249.758 50.2826 248.596 50.5732 247.435 50.8637C245.836 51.2635 244.237 51.6635 242.638 52.0628L238.519 53.0918L238.615 48.8472C238.657 46.9731 238.825 45.1177 238.983 43.3879L238.986 43.351C239.112 41.9668 239.23 40.6607 239.294 39.3808C239.233 39.2919 239.169 39.198 239.104 39.0992C238.646 38.4073 238.087 37.4584 237.602 36.3162C236.645 34.0593 235.875 30.7781 237.117 27.229L237.117 27.229C239.072 21.6468 244.251 19.5814 246.049 18.8642C246.089 18.8484 246.127 18.8334 246.163 18.8189" fill="#C9C9C9"/>
<path d="M83.224 29.9598L78.5029 32.1033L77.6085 30.1372C77.2273 29.2956 76.2322 28.9216 75.3906 29.3052L67.9649 32.6764C67.1232 33.06 66.7468 34.0551 67.1304 34.8967L68.0248 36.8628L63.3037 39.0064C62.3566 39.4356 61.9346 40.5601 62.3638 41.5072L68.6338 55.3134C69.063 56.2605 70.1875 56.6825 71.1347 56.2533L91.055 47.209C92.0045 46.7775 92.4241 45.6553 91.9949 44.7082L85.7248 30.9021C85.2957 29.9526 84.1735 29.5306 83.224 29.9598ZM69.6121 34.561L75.7239 31.7844L76.3185 33.0936L70.2067 35.8702L69.6121 34.561ZM89.602 45.2357L70.6072 53.8604L67.7323 47.5279L72.9713 45.1494L73.6355 46.612C73.7626 46.8901 74.0887 47.0124 74.3644 46.8854L81.8741 43.4758C82.1522 43.3487 82.2745 43.0226 82.1474 42.7445L81.4833 41.2819L86.7223 38.9033L89.602 45.2357ZM85.7344 36.7214L66.7396 45.346L64.7567 40.9797L83.7515 32.3551L85.7344 36.7214Z" fill="#C9C9C9"/>
</svg>
