<svg width="326" height="204" viewBox="0 0 326 204" fill="none" xmlns="http://www.w3.org/2000/svg">
<path d="M0 0H325.231V203.431H0V0Z" fill="white"/>
<path d="M27.4134 149.067H14.8677V151.742H27.4134V149.067Z" fill="black" fill-opacity="0.16"/>
<path d="M130.044 173.289H127.376V169.407H121.769V164.054H110.158V169.14H105.088V172.753H102.417V166.463H107.49V161.379H124.439V166.732H130.044V173.289Z" fill="black" fill-opacity="0.16"/>
<path d="M286.995 172.218H284.324V132.132L271.751 115.975L262.94 124.093L261.133 122.123L272.077 112.042L286.995 131.211V172.218Z" fill="black" fill-opacity="0.16"/>
<path d="M307.014 143.314H290.198V145.989H307.014V143.314Z" fill="black" fill-opacity="0.16"/>
<path d="M303.41 153.617H292.334V156.293H303.41V153.617Z" fill="black" fill-opacity="0.16"/>
<path d="M304.612 160.977H292.334V163.652H304.612V160.977Z" fill="black" fill-opacity="0.16"/>
<path d="M280.187 138.496H261.37V141.172H280.187V138.496Z" fill="black" fill-opacity="0.16"/>
<path d="M280.187 146.258H261.37V148.933H280.187V146.258Z" fill="black" fill-opacity="0.16"/>
<path d="M280.187 154.02H261.37V156.695H280.187V154.02Z" fill="black" fill-opacity="0.16"/>
<path d="M229.608 137.694H221.333V125.784H229.608V137.694ZM224.001 135.017H226.937V128.459H224.001V135.017Z" fill="black" fill-opacity="0.16"/>
<path d="M240.15 137.694H231.875V125.784H240.15V137.694ZM234.545 135.017H237.481V128.459H234.545V135.017Z" fill="black" fill-opacity="0.16"/>
<path d="M250.694 137.694H242.419V125.784H250.694V137.694ZM245.087 135.017H248.024V128.459H245.087V135.017Z" fill="black" fill-opacity="0.16"/>
<path d="M229.608 154.553H221.333V142.645H229.608V154.553ZM224.001 151.877H226.937V145.32H224.001V151.877Z" fill="black" fill-opacity="0.16"/>
<path d="M240.15 154.553H231.875V142.645H240.15V154.553ZM234.545 151.877H237.481V145.32H234.545V151.877Z" fill="black" fill-opacity="0.16"/>
<path d="M250.694 154.553H242.419V142.645H250.694V154.553ZM245.087 151.877H248.024V145.32H245.087V151.877Z" fill="black" fill-opacity="0.16"/>
<path d="M237.346 171.014H234.678V161.646H227.737V171.014H225.069V158.97H237.346V171.014Z" fill="black" fill-opacity="0.16"/>
<path d="M198.377 99.2886H146.594V89.6538H198.377V99.2886ZM149.262 96.611H195.707V92.3291H149.262V96.611Z" fill="black" fill-opacity="0.16"/>
<path d="M56.9081 172.218H54.2399C54.4599 169.699 53.6668 125.545 54.8106 124.095C58.7901 108.342 76.9107 105.009 86.6277 116.627L84.5807 118.346C75.0814 107.36 60.0279 112.497 57.2794 125.271C56.4909 125.161 57.0731 171.174 56.9081 172.218Z" fill="black" fill-opacity="0.16"/>
<path d="M35.1521 161.246H32.4839V137.159H49.3002V139.834H35.1521V161.246Z" fill="black" fill-opacity="0.16"/>
<path d="M50.1003 149.735H40.2251V152.411H50.1003V149.735Z" fill="black" fill-opacity="0.16"/>
<path d="M50.1003 156.026H40.2251V158.701H50.1003V156.026Z" fill="black" fill-opacity="0.16"/>
<path d="M71.1871 131.673H61.4448V134.348H71.1871V131.673Z" fill="black" fill-opacity="0.16"/>
<path d="M71.1871 138.63H61.4448V141.305H71.1871V138.63Z" fill="black" fill-opacity="0.16"/>
<path d="M71.1871 145.589H61.4448V148.265H71.1871V145.589Z" fill="black" fill-opacity="0.16"/>
<path d="M71.1871 152.547H61.4448V155.222H71.1871V152.547Z" fill="black" fill-opacity="0.16"/>
<path d="M77.7271 171.949H75.0588V123.812C92.1341 123.862 103.156 110.15 103.139 96.0752H128.479C127.658 106.057 133.033 115.853 141.368 120.33L140.071 122.67C129.48 116.848 125.815 105.981 125.771 98.7505H105.668C104.091 115.634 90.5593 125.549 77.7271 126.381V171.949V171.949Z" fill="black" fill-opacity="0.16"/>
<path d="M78.5841 130.535C77.7474 130.535 77.062 130.5 76.5623 130.463L76.7594 127.795C93.7063 128.908 106.669 116.17 107.325 100.493H124.368C124.496 112.191 132.001 120.769 139.055 124.189L137.849 126.577C127.651 121.702 122.31 110.553 121.867 103.17H109.759C107.362 121.362 92.3951 130.67 78.5841 130.535Z" fill="black" fill-opacity="0.16"/>
<path d="M115.965 125.784C107.336 125.23 108.198 113.522 115.965 113.338C124.593 113.895 123.731 125.6 115.965 125.784ZM115.965 116.016C111.112 116.312 111.547 122.966 115.965 123.109C120.817 122.81 120.382 116.156 115.965 116.016Z" fill="black" fill-opacity="0.16"/>
<path d="M94.1423 144.987H82.6648V132.275H94.1423V144.987ZM85.3353 142.309H91.4741V134.95H85.3353V142.309V142.309Z" fill="black" fill-opacity="0.16"/>
<path d="M108.157 144.987H96.6794V132.275H108.157V144.987ZM99.3477 142.309H105.486V134.95H99.3477V142.309V142.309Z" fill="black" fill-opacity="0.16"/>
<path d="M122.17 144.987H110.692V132.275H122.17V144.987ZM113.36 142.309H119.499V134.95H113.36V142.309V142.309Z" fill="black" fill-opacity="0.16"/>
<path d="M136.183 144.987H124.705V132.275H136.183V144.987ZM127.376 142.309H133.515V134.95H127.376V142.309Z" fill="black" fill-opacity="0.16"/>
<path d="M94.1423 158.837H82.6648V146.125H94.1423V158.837ZM85.3353 156.16H91.4741V148.8H85.3353V156.16V156.16Z" fill="black" fill-opacity="0.16"/>
<path d="M108.157 158.837H96.6794V146.125H108.157V158.837ZM99.3477 156.16H105.486V148.8H99.3477V156.16V156.16Z" fill="black" fill-opacity="0.16"/>
<path d="M149.797 158.837H138.319V146.125H149.797V158.837ZM140.987 156.16H147.126V148.8H140.987V156.16Z" fill="black" fill-opacity="0.16"/>
<path d="M136.183 158.837H124.705V146.125H136.183V158.837ZM127.376 156.16H133.515V148.8H127.376V156.16Z" fill="black" fill-opacity="0.16"/>
<path d="M122.704 162.314H120.033V150.138H112.427V162.314H109.757V147.462H122.704V162.314Z" fill="black" fill-opacity="0.16"/>
<path d="M206.785 171.014H204.115V82.7012L140.854 59.9749V114.141H138.186V56.1711L206.785 80.8165V171.014Z" fill="black" fill-opacity="0.16"/>
<path d="M257.633 172.218H254.965V117.085H210.655V114.41H257.633V172.218Z" fill="black" fill-opacity="0.16"/>
<path d="M219.063 137.694H210.788V125.784H219.063V137.694ZM213.458 135.017H216.395V128.459H213.458V135.017Z" fill="black" fill-opacity="0.16"/>
<path d="M219.063 154.553H210.788V142.645H219.063V154.553ZM213.458 151.877H216.395V145.32H213.458V151.877Z" fill="black" fill-opacity="0.16"/>
<path d="M176.481 133.336C181.481 132.739 186.987 131.443 190.331 129.346L188.461 126.345C185.671 128.094 180.883 129.19 176.491 129.74C176.963 122.883 175.005 118.939 171.475 118.183C181.121 116.372 180.947 104.713 172.752 102.219C162.592 99.4723 157.272 111.782 165.173 116.873C161.306 117.96 146.812 120.523 142.697 121.378L139.3 139.554L142.766 140.204L145.726 124.4L151.085 123.366C141.881 132.203 146.049 143.732 155.706 140.034L155.427 146.72L161.827 146.327C157.648 163.634 148.575 171.328 148.405 171.411C148.946 172.089 150.021 173.445 150.604 174.183C151.035 173.836 161.077 165.663 165.508 146.099C171.305 145.863 180.802 144.932 186.46 144.323C185.582 152.567 179.778 163.709 179.718 163.829L182.838 165.479C183.278 164.948 191.017 149.115 190.102 140.397L176.374 141.781C176.413 139.73 176.465 136.506 176.481 133.336ZM164.846 110.061C165.286 103.561 175.172 104.218 175.319 110.061C174.879 116.558 164.995 115.908 164.846 110.061ZM172.837 142.109L159.117 142.953L159.42 135.58C159.415 135.605 161.093 131.585 161.132 131.498C165.047 133.366 167.904 133.989 172.949 133.654C172.928 136.676 172.878 139.825 172.837 142.109ZM167.47 129.999C165.776 129.691 163.729 128.832 162.063 128.025C162.514 125.566 162.521 123.24 162.324 121.201C170.725 119.599 173.749 121.907 172.96 130.077C170.565 130.234 168.561 130.197 167.47 129.999Z" fill="#FF5549"/>
<path d="M157.004 114.007H146.86V104.239H158.606V106.917H149.529V111.332H157.004V114.007Z" fill="black" fill-opacity="0.16"/>
<path d="M197.843 113.741H181.694V111.063H195.173V106.917H181.027V104.239H197.843V113.741Z" fill="black" fill-opacity="0.16"/>
<path d="M197.309 128.326H192.236V125.651H194.639V121.502H179.292V118.825H197.309V128.326Z" fill="black" fill-opacity="0.16"/>
<path d="M163.037 37.4095L187.833 38.5886V38.5863L163.037 37.4095Z" fill="#FF5549"/>
<path d="M183.046 29.6524C183.555 22.3988 183.461 22.4379 176.257 22.231C168.133 21.2703 169.595 23.7479 169.183 28.9951L160.784 28.5952C160.52 34.2147 160.098 43.0933 159.837 48.6439L189.967 50.078C190.23 44.4585 190.652 35.5799 190.914 30.0294L183.046 29.6524ZM172.016 25.5499C171.839 23.9755 178.604 25.2718 179.72 25.0718C181.066 24.7477 180.312 28.8112 180.378 29.5237L171.846 29.1192L172.016 25.5499ZM187.422 47.2763L162.624 46.0973L162.911 40.0847L171.308 40.4847C169.85 44.4769 179.681 44.6309 178.505 40.8271L187.704 41.2638L187.422 47.2763ZM187.833 38.5862L163.037 37.4094L163.321 31.3946C167.138 31.5762 184.793 32.4151 188.119 32.5737L187.833 38.5862Z" fill="#FF5549"/>
<path d="M222.348 61.0595C221.373 84.2109 219.269 81.3656 227.088 81.8942L227.1 90.0649C244.154 78.3639 236.679 84.034 253.03 83.0227C254.454 81.4575 253.468 80.9725 253.919 77.9801C254.456 54.8539 260.771 62.8844 229.046 59.8413C225.27 59.8046 222.779 58.7243 222.348 61.0595ZM251.295 80.5979C234.643 79.5981 239.604 78.9707 229.548 85.3739C229.555 83.9121 229.573 80.876 229.582 79.3981L223.838 79.081L224.764 62.2385L252.221 63.7578L251.295 80.5979Z" fill="#FF5549"/>
<path d="M239.091 67.9246C239.143 70.3655 234.348 68.7727 230.353 68.8669C225.763 69.3519 226.311 65.8561 228.828 66.148C232.828 66.6927 239.313 65.7687 239.091 67.9246Z" fill="#FF5549"/>
<path d="M244.886 75.3646C245.2 77.9549 237.569 75.9851 231.913 76.0656C224.677 76.477 226.153 73.2823 228.085 73.2202C231.962 73.8684 245.697 73.034 244.886 75.3646Z" fill="#FF5549"/>
<path d="M124.54 50.2664C119.394 43.5988 116.109 47.1773 114.277 51.6454C111.559 56.665 106.747 65.5574 106.729 65.5896C96.1499 55.1205 92.4685 68.4441 96.9224 70.0162C103.1 73.735 106.704 79.3614 110.518 77.3365C112.716 75.53 114.264 70.7126 118.997 62.5626C122.656 55.2584 125.106 52.8819 124.54 50.2664ZM108.735 74.5072L98.1603 66.7824L99.7328 64.6197L107.843 70.5425L118.993 49.94L121.34 51.2156L108.735 74.5072Z" fill="#FF5549"/>
<path d="M121.34 51.2181L108.735 74.5074L98.1602 66.7826L99.7327 64.6199L107.843 70.5427L118.995 49.9402L121.34 51.2181Z" fill="white"/>
</svg>
