<svg width="326" height="204" viewBox="0 0 326 204" fill="none" xmlns="http://www.w3.org/2000/svg">
<path d="M0 0H325.231V203.431H0V0Z" fill="white"/>
<path d="M161.879 67.0506C164.083 67.0506 165.87 65.2637 165.87 63.0594C165.87 60.8551 164.083 59.0681 161.879 59.0681C159.674 59.0681 157.887 60.8551 157.887 63.0594C157.887 65.2637 159.674 67.0506 161.879 67.0506Z" fill="#C9C9C9"/>
<path d="M161.821 28.5146H160.64V28.5063L161.821 28.5146Z" fill="#C9C9C9"/>
<path d="M314.784 144.673H288.084V132.628C288.572 132.573 289.048 132.474 289.508 132.333C290.925 133.751 292.885 134.632 295.048 134.632C299.367 134.632 302.874 131.125 302.874 126.806C302.874 124.222 301.622 121.929 299.692 120.508C301.055 119.099 301.894 117.178 301.894 115.067C301.894 110.745 298.39 107.238 294.069 107.238H294.008C294.049 106.919 294.069 106.594 294.069 106.261C294.069 101.94 290.565 98.4355 286.243 98.4355C281.921 98.4355 278.417 101.94 278.417 106.261C278.417 106.773 278.464 107.271 278.563 107.756C275.618 108.876 273.526 111.728 273.526 115.067C273.526 116.591 273.966 118.02 274.726 119.223C272.81 120.649 271.569 122.931 271.569 125.502C271.569 129.82 275.073 133.327 279.395 133.327C281.057 133.327 282.601 132.804 283.868 131.918C284.333 132.141 284.82 132.317 285.332 132.444V144.673H262.486V78.0224C262.486 75.0028 260.038 72.5558 257.019 72.5558H205.857L163.261 49.4286L163.393 28.5255L162.016 28.5173V28.5145H151.628C149.611 28.5145 147.978 30.1468 147.978 32.1644V32.3681H144.472C142.454 32.3681 140.822 34.0004 140.822 36.0181V40.279C140.822 42.2967 142.454 43.929 144.472 43.929H151.21C153.227 43.929 154.86 42.2967 154.86 40.279V40.0754H160.566L160.508 49.4534L117.956 72.5558H62.8851C59.8655 72.5558 57.4185 75.0028 57.4185 78.0224V144.673H37.5999V132.733C37.8146 132.658 38.0238 132.57 38.2275 132.474C39.2983 133.223 40.6002 133.663 42.0041 133.663C45.6512 133.663 48.6102 130.704 48.6102 127.057C48.6102 124.888 47.5615 122.961 45.9457 121.758C46.5871 120.742 46.9587 119.537 46.9587 118.249C46.9587 115.43 45.1915 113.024 42.706 112.077C42.7885 111.67 42.8298 111.249 42.8298 110.817C42.8298 107.169 39.8708 104.21 36.2236 104.21C32.5765 104.21 29.6175 107.169 29.6175 110.817C29.6175 111.097 29.634 111.373 29.6698 111.642H29.6175C25.9703 111.642 23.0113 114.601 23.0113 118.249C23.0113 120.032 23.7214 121.653 24.872 122.843C23.2425 124.043 22.1855 125.978 22.1855 128.158C22.1855 131.805 25.1445 134.764 28.7917 134.764C30.6166 134.764 32.2709 134.021 33.4683 132.823C33.9115 132.958 34.3712 133.049 34.8473 133.088V144.673H9.7989C9.41904 144.673 9.07497 144.827 8.82448 145.078C8.57675 145.326 8.42261 145.67 8.42261 146.05C8.42261 146.812 9.03918 147.426 9.7989 147.426H314.784C315.164 147.426 315.508 147.272 315.759 147.024C316.007 146.773 316.161 146.432 316.161 146.05C316.161 145.29 315.544 144.673 314.784 144.673ZM76.136 133.638C76.136 135.326 74.7707 136.691 73.0834 136.691H70.6556C68.9683 136.691 67.603 135.326 67.603 133.638V125.705C67.603 124.018 68.9683 122.653 70.6556 122.653H73.0834C74.7707 122.653 76.136 124.018 76.136 125.705V133.638ZM76.136 112.168C76.136 113.855 74.7707 115.221 73.0834 115.221H70.6556C68.9683 115.221 67.603 113.855 67.603 112.168V104.235C67.603 102.548 68.9683 101.183 70.6556 101.183H73.0834C74.7707 101.183 76.136 102.548 76.136 104.235V112.168ZM76.136 90.698C76.136 92.3853 74.7707 93.7506 73.0834 93.7506H70.6556C68.9683 93.7506 67.603 92.3853 67.603 90.698V82.7651C67.603 81.0777 68.9683 79.7125 70.6556 79.7125H73.0834C74.7707 79.7125 76.136 81.0777 76.136 82.7651V90.698ZM89.6236 133.638C89.6236 135.326 88.2584 136.691 86.571 136.691H84.1433C82.4559 136.691 81.0906 135.326 81.0906 133.638V125.705C81.0906 124.018 82.4559 122.653 84.1433 122.653H86.571C88.2584 122.653 89.6236 124.018 89.6236 125.705V133.638ZM89.6236 112.168C89.6236 113.855 88.2584 115.221 86.571 115.221H84.1433C82.4559 115.221 81.0906 113.855 81.0906 112.168V104.235C81.0906 102.548 82.4559 101.183 84.1433 101.183H86.571C88.2584 101.183 89.6236 102.548 89.6236 104.235V112.168ZM89.6236 90.698C89.6236 92.3853 88.2584 93.7506 86.571 93.7506H84.1433C82.4559 93.7506 81.0906 92.3853 81.0906 90.698V82.7651C81.0906 81.0777 82.4559 79.7125 84.1433 79.7125H86.571C88.2584 79.7125 89.6236 81.0777 89.6236 82.7651V90.698ZM103.111 133.638C103.111 135.326 101.746 136.691 100.059 136.691H97.6309C95.9436 136.691 94.5783 135.326 94.5783 133.638V125.705C94.5783 124.018 95.9436 122.653 97.6309 122.653H100.059C101.746 122.653 103.111 124.018 103.111 125.705V133.638ZM103.111 112.168C103.111 113.855 101.746 115.221 100.059 115.221H97.6309C95.9436 115.221 94.5783 113.855 94.5783 112.168V104.235C94.5783 102.548 95.9436 101.183 97.6309 101.183H100.059C101.746 101.183 103.111 102.548 103.111 104.235V112.168ZM103.111 90.698C103.111 92.3853 101.746 93.7506 100.059 93.7506H97.6309C95.9436 93.7506 94.5783 92.3853 94.5783 90.698V82.7651C94.5783 81.0777 95.9436 79.7125 97.6309 79.7125H100.059C101.746 79.7125 103.111 81.0777 103.111 82.7651V90.698ZM161.906 51.8261L200.087 72.5558H123.725L161.906 51.8261ZM196.974 91.6862V123.454C196.974 125.141 195.609 126.506 193.922 126.506H180.483C178.796 126.506 177.431 125.141 177.431 123.454V91.6862C177.431 86.2884 181.805 81.9145 187.203 81.9145C189.9 81.9145 192.344 83.0073 194.111 84.7772C195.881 86.5444 196.974 88.9886 196.974 91.6862ZM169.724 92.5119V124.279C169.724 125.967 168.358 127.332 166.671 127.332H153.233C151.546 127.332 150.18 125.967 150.18 124.279V92.5119C150.18 87.1141 154.554 82.7403 159.952 82.7403C162.65 82.7403 165.094 83.8331 166.861 85.603C168.631 87.3701 169.724 89.8144 169.724 92.5119ZM143.574 93.3377V125.105C143.574 126.793 142.209 128.158 140.522 128.158H127.083C125.396 128.158 124.031 126.793 124.031 125.105V93.3377C124.031 87.9399 128.405 83.5661 133.803 83.5661C136.5 83.5661 138.944 84.6588 140.711 86.4287C142.481 88.1959 143.574 90.6402 143.574 93.3377ZM122.005 131.912C122.451 131.464 123.073 131.186 123.756 131.186H197.249C198.617 131.186 199.727 132.295 199.727 133.663C199.727 134.346 199.449 134.968 199 135.414C198.554 135.862 197.932 136.14 197.249 136.14H123.756C122.388 136.14 121.278 135.031 121.278 133.663C121.278 132.98 121.556 132.358 122.005 131.912ZM202.028 142.846C201.582 143.294 200.96 143.572 200.277 143.572H120.728C119.36 143.572 118.25 142.463 118.25 141.095C118.25 140.412 118.528 139.79 118.977 139.344C119.423 138.896 120.045 138.618 120.728 138.618H200.277C201.645 138.618 202.755 139.727 202.755 141.095C202.755 141.778 202.477 142.4 202.028 142.846ZM225.601 133.638C225.601 135.326 224.236 136.691 222.548 136.691H220.121C218.433 136.691 217.068 135.326 217.068 133.638V125.705C217.068 124.018 218.433 122.653 220.121 122.653H222.548C224.236 122.653 225.601 124.018 225.601 125.705V133.638ZM225.601 112.168C225.601 113.855 224.236 115.221 222.548 115.221H220.121C218.433 115.221 217.068 113.855 217.068 112.168V104.235C217.068 102.548 218.433 101.183 220.121 101.183H222.548C224.236 101.183 225.601 102.548 225.601 104.235V112.168ZM225.601 90.698C225.601 92.3853 224.236 93.7506 222.548 93.7506H220.121C218.433 93.7506 217.068 92.3853 217.068 90.698V82.7651C217.068 81.0777 218.433 79.7125 220.121 79.7125H222.548C224.236 79.7125 225.601 81.0777 225.601 82.7651V90.698ZM239.089 133.638C239.089 135.326 237.723 136.691 236.036 136.691H233.608C231.921 136.691 230.556 135.326 230.556 133.638V125.705C230.556 124.018 231.921 122.653 233.608 122.653H236.036C237.723 122.653 239.089 124.018 239.089 125.705V133.638ZM239.089 112.168C239.089 113.855 237.723 115.221 236.036 115.221H233.608C231.921 115.221 230.556 113.855 230.556 112.168V104.235C230.556 102.548 231.921 101.183 233.608 101.183H236.036C237.723 101.183 239.089 102.548 239.089 104.235V112.168ZM239.089 90.698C239.089 92.3853 237.723 93.7506 236.036 93.7506H233.608C231.921 93.7506 230.556 92.3853 230.556 90.698V82.7651C230.556 81.0777 231.921 79.7125 233.608 79.7125H236.036C237.723 79.7125 239.089 81.0777 239.089 82.7651V90.698ZM252.576 133.638C252.576 135.326 251.211 136.691 249.524 136.691H247.096C245.409 136.691 244.043 135.326 244.043 133.638V125.705C244.043 124.018 245.409 122.653 247.096 122.653H249.524C251.211 122.653 252.576 124.018 252.576 125.705V133.638ZM252.576 112.168C252.576 113.855 251.211 115.221 249.524 115.221H247.096C245.409 115.221 244.043 113.855 244.043 112.168V104.235C244.043 102.548 245.409 101.183 247.096 101.183H249.524C251.211 101.183 252.576 102.548 252.576 104.235V112.168ZM252.576 90.698C252.576 92.3853 251.211 93.7506 249.524 93.7506H247.096C245.409 93.7506 244.043 92.3853 244.043 90.698V82.7651C244.043 81.0777 245.409 79.7125 247.096 79.7125H249.524C251.211 79.7125 252.576 81.0777 252.576 82.7651V90.698Z" fill="#C9C9C9"/>
<path d="M167.21 148.486L160.734 154.965C160.213 155.483 159.377 155.502 158.834 155.009L153.797 150.429C153.236 149.917 153.194 149.047 153.703 148.486H155.751L159.715 152.089L163.318 148.486H167.21V148.486Z" fill="#FF5C51"/>
<path d="M171.449 143.68C171.449 144.032 171.314 144.384 171.045 144.651L167.21 148.486L160.734 154.965C160.213 155.483 159.377 155.502 158.834 155.009L153.797 150.429C153.236 149.917 153.194 149.047 153.703 148.486C153.976 148.188 154.348 148.037 154.725 148.037C155.055 148.037 155.385 148.153 155.65 148.392L155.751 148.486L159.715 152.089L169.099 142.705C169.638 142.169 170.508 142.169 171.045 142.705C171.314 142.975 171.449 143.327 171.449 143.68Z" fill="white"/>
<path d="M258.304 171.852L186.654 148.549C186.635 148.543 186.616 148.538 186.597 148.532V130.456H171.32V126.47C171.32 124.343 169.589 122.611 167.461 122.611H156.186C154.058 122.611 152.327 124.343 152.327 126.47V130.456H137.326V149.058L66.2815 171.852C64.886 172.301 65.208 174.36 66.6751 174.36H257.908C259.369 174.36 259.694 172.306 258.304 171.852ZM155.08 126.47C155.08 125.859 155.578 125.364 156.186 125.364H167.461C168.072 125.364 168.567 125.859 168.567 126.47V130.319H155.08V126.47ZM183.844 162.386H140.078V133.209H183.844V162.386Z" fill="#FF5C51"/>
<path d="M140.078 133.209V162.386H183.844V133.209H140.078ZM160.733 154.965C160.213 155.483 159.376 155.502 158.834 155.009L153.797 150.429C153.235 149.917 153.194 149.047 153.703 148.486C153.976 148.188 154.347 148.037 154.725 148.037C155.055 148.037 155.385 148.153 155.649 148.392L155.751 148.486L159.715 152.089L169.099 142.705C169.638 142.169 170.508 142.169 171.045 142.705C171.314 142.975 171.449 143.327 171.449 143.68C171.449 144.032 171.314 144.384 171.045 144.651L167.21 148.486L160.733 154.965Z" fill="white"/>
<path d="M171.449 143.68C171.449 144.032 171.314 144.384 171.045 144.651L167.21 148.486L160.734 154.965C160.213 155.483 159.377 155.502 158.834 155.009L153.797 150.429C153.236 149.917 153.194 149.047 153.703 148.486C153.976 148.188 154.348 148.037 154.725 148.037C155.055 148.037 155.385 148.153 155.65 148.392L155.751 148.486L159.715 152.089L169.099 142.705C169.638 142.169 170.508 142.169 171.045 142.705C171.314 142.975 171.449 143.327 171.449 143.68Z" fill="#FF5C51"/>
</svg>
