<svg width="132" height="183" viewBox="0 0 132 183" fill="none" xmlns="http://www.w3.org/2000/svg">
<mask id="mask0" mask-type="alpha" maskUnits="userSpaceOnUse" x="0" y="0" width="194" height="183">
<path d="M194 91.4448C194 141.948 150.572 182.89 97 182.89C43.4284 182.89 0 141.948 0 91.4448C0 40.9412 43.4284 0 97 0C150.572 0 194 40.9412 194 91.4448Z" fill="#C4C4C4"/>
</mask>
<g mask="url(#mask0)">
<path d="M96.8945 190.742C63.1553 190.742 29.5216 190.742 -4.21751 190.742C-7.06425 190.742 -8.43491 190.742 -8.43491 187.164C-8.32947 123.252 -8.32947 59.3398 -8.43491 -4.47272C-8.43491 -7.65341 -7.48604 -7.9516 -4.53387 -7.9516C63.2607 -7.8522 130.95 -7.8522 198.744 -7.9516C202.118 -7.9516 202.435 -7.05703 202.435 -4.27393C202.329 59.638 202.329 123.55 202.435 187.363C202.435 190.543 201.591 190.841 198.534 190.841C164.689 190.742 130.844 190.742 96.8945 190.742ZM121.882 30.3161C115.24 26.6384 109.336 23.3583 103.326 20.277C99.1086 18.0903 94.5748 18.0903 90.252 20.3764C71.6955 30.4155 53.2445 40.4545 34.6879 50.4935C33.739 50.9905 32.8955 51.5869 32.1575 52.1833C29.2053 54.37 30.6814 56.3579 33.001 57.4513C53.3499 66.6952 71.9063 78.8216 91.939 88.5624C95.6292 90.3515 96.9999 92.5383 96.9999 96.6135C96.789 117.487 96.8945 138.261 96.8945 159.134C96.8945 164.501 98.0543 165.297 103.115 162.613C121.988 152.474 140.755 142.236 159.523 131.999C163.002 130.11 165.322 127.128 165.532 123.152C165.743 116.99 165.638 110.927 165.743 104.764C165.743 102.975 165.532 102.08 163.107 102.875C156.36 104.963 153.091 108.342 153.302 115.002C153.513 119.872 151.721 122.954 147.081 125.339C136.222 130.806 125.678 136.869 115.029 142.634C110.39 145.119 109.652 144.721 109.652 139.752C109.652 123.053 109.547 106.354 109.757 89.6558C109.757 86.1769 108.914 84.0896 105.435 82.3004C89.7249 74.0505 74.2259 65.5024 58.6216 56.9543C54.4042 54.6682 54.4042 53.6742 58.5162 51.3881C68.2162 46.0207 78.2325 41.2497 87.6162 35.4847C94.1531 31.5088 99.8466 30.3161 106.067 35.3853C108.387 37.3732 110.706 36.9756 113.131 35.3853C115.662 33.5961 118.509 32.2046 121.882 30.3161ZM90.7792 162.513C90.7792 159.532 90.4629 157.345 90.8846 155.357C91.6227 150.586 89.6194 148.002 85.0857 145.715C72.1172 139.155 59.5706 131.8 46.7075 125.14C42.1738 122.854 40.6977 119.872 40.8031 115.201C41.014 102.478 40.3814 89.6558 41.1194 77.0324C41.5412 69.6771 39.2216 65.403 32.0521 62.6199C28.5727 61.2284 28.3619 61.9241 28.3619 64.906C28.4673 83.7914 28.4673 102.677 28.3619 121.463C28.3619 126.035 30.4706 129.812 34.1608 131.999C39.3271 135.08 44.7042 138.161 50.1868 140.845C59.0433 145.218 67.5836 150.288 76.4401 154.76C80.8683 157.146 85.402 159.73 90.7792 162.513ZM116.716 40.7527C123.253 45.5237 131.477 47.8098 137.698 53.1772C138.014 53.4754 138.647 53.4754 139.174 53.6742C150.244 58.1471 153.829 62.1229 153.302 73.2554C152.88 82.3998 153.197 91.5443 153.197 101.583C156.676 99.7942 159.101 98.2039 161.842 97.1105C165.005 95.8184 165.954 93.731 165.849 90.5503C165.638 81.0083 165.743 71.3668 165.743 61.8248C165.743 56.6561 163.529 52.9784 158.785 50.4935C151.931 46.8159 144.656 43.6352 138.436 39.2617C130.528 33.3973 123.78 33.7949 116.716 40.7527Z" fill="white"/>
<path d="M121.882 30.3161C118.508 32.2047 115.662 33.5962 113.131 35.286C110.706 36.8763 108.387 37.2739 106.067 35.286C99.8464 30.2167 94.1529 31.3101 87.616 35.3854C78.2323 41.1504 68.216 46.0208 58.516 51.2888C54.404 53.5749 54.404 54.5689 58.6214 56.855C74.1203 65.4031 89.7247 73.9512 105.434 82.2011C108.914 83.9903 109.863 86.0776 109.757 89.5565C109.546 106.255 109.652 122.954 109.652 139.652C109.652 144.622 110.495 145.02 115.029 142.535C125.678 136.77 136.221 130.806 147.081 125.24C151.72 122.854 153.513 119.773 153.302 114.903C153.091 108.243 156.254 104.864 163.107 102.776C165.638 101.981 165.849 102.876 165.743 104.665C165.743 110.827 165.743 116.89 165.532 123.053C165.427 127.029 163.107 129.911 159.523 131.899C140.755 142.137 121.988 152.375 103.115 162.514C98.0541 165.197 96.8943 164.501 96.8943 159.035C96.8943 138.161 96.7888 117.387 96.9997 96.5142C96.9997 92.439 95.629 90.2522 91.9388 88.4631C71.9062 78.7222 53.3497 66.5959 33.0008 57.352C30.6813 56.358 29.2051 54.2707 32.1573 52.084C33.0008 51.4876 33.8443 50.8912 34.6878 50.3943C53.1388 40.3552 71.6953 30.3161 90.2518 20.2771C94.4692 17.991 99.003 17.991 103.326 20.1777C109.441 23.3584 115.24 26.7379 121.882 30.3161Z" fill="#FF5C51"/>
<path d="M90.7792 162.513C85.5074 159.631 80.8683 157.146 76.3347 154.761C67.4781 150.288 58.9379 145.318 50.0814 140.845C44.7042 138.161 39.3271 135.08 34.0553 131.999C30.3651 129.812 28.2564 126.035 28.2564 121.463C28.3618 102.577 28.3618 83.692 28.2564 64.9061C28.2564 61.9242 28.4673 61.3278 31.9466 62.6199C39.1162 65.403 41.4357 69.6771 41.014 77.0324C40.2759 89.7552 41.0139 102.478 40.6976 115.201C40.5922 119.872 42.1737 122.854 46.602 125.14C59.465 131.8 72.0118 139.155 84.9803 145.715C89.5139 148.002 91.5172 150.586 90.7792 155.357C90.4629 157.444 90.7792 159.532 90.7792 162.513Z" fill="#FF5C51"/>
<path d="M116.716 40.7526C123.78 33.7948 130.528 33.3972 138.436 39.0628C144.657 43.5357 151.931 46.617 158.785 50.2946C163.529 52.7796 165.743 56.5566 165.743 61.6258C165.638 71.1679 165.533 80.8093 165.849 90.3514C165.954 93.5321 165.111 95.6194 161.842 96.9116C159.206 98.005 156.676 99.5953 153.197 101.384C153.197 91.4448 152.88 82.2009 153.302 73.0564C153.829 61.924 150.244 57.9482 139.174 53.4753C138.752 53.2765 138.119 53.2765 137.698 52.9783C131.477 47.9091 123.253 45.5236 116.716 40.7526Z" fill="#FF5C51"/>
</g>
</svg>
