<svg width="186" height="100" viewBox="0 0 186 100" fill="none" xmlns="http://www.w3.org/2000/svg">
<path d="M40.2052 99.7839H39.7864C39.7864 94.5687 37.7126 89.5672 34.0212 85.8795C30.3298 82.1918 25.3231 80.12 20.1026 80.12C14.8822 80.12 9.87553 82.1918 6.18411 85.8795C2.49268 89.5672 0.418865 94.5687 0.418865 99.7839H6.10352e-05C6.11146e-05 94.4578 2.118 89.3498 5.88797 85.5836C9.65793 81.8175 14.7711 79.7017 20.1026 79.7017C25.4342 79.7017 30.5473 81.8175 34.3173 85.5836C38.0873 89.3498 40.2052 94.4578 40.2052 99.7839Z" fill="#3F3D56"/>
<path d="M185.949 99.7839H185.53C185.53 94.5687 183.456 89.5671 179.765 85.8794C176.073 82.1917 171.067 80.12 165.846 80.12C160.626 80.12 155.619 82.1917 151.928 85.8794C148.236 89.5671 146.163 94.5687 146.163 99.7839H145.744C145.744 94.4577 147.862 89.3497 151.632 85.5836C155.402 81.8174 160.515 79.7016 165.846 79.7016C171.178 79.7016 176.291 81.8174 180.061 85.5836C183.831 89.3497 185.949 94.4577 185.949 99.7839Z" fill="#3F3D56"/>
<path d="M136.739 51.8793H136.321C136.321 32.0394 120.163 15.8985 100.304 15.8985C80.4436 15.8985 64.2864 32.0394 64.2864 51.8793H63.8676C63.8676 31.8087 80.2127 15.4801 100.304 15.4801C120.394 15.4801 136.739 31.8087 136.739 51.8793Z" fill="#3F3D56"/>
<path d="M30.468 16.5261C35.0361 16.5261 38.7393 12.8266 38.7393 8.26303C38.7393 3.69948 35.0361 0 30.468 0C25.8998 0 22.1966 3.69948 22.1966 8.26303C22.1966 12.8266 25.8998 16.5261 30.468 16.5261Z" fill="#FF6584"/>
<path d="M32.2251 65.1386L46.4353 48.2324H74.3735L91.4469 64.8455L91.102 65.067H91.2251V99.6222H32.2446V65.067L32.2251 65.1386Z" fill="#3F3D56"/>
<path d="M40.7746 57.7886H43.9958V46.6495H40.7746V57.7886Z" fill="#3F3D56"/>
<path d="M46.2137 48.0109L63.7304 68.5268V99.6222H32.2445V64.6239L46.2137 48.0109Z" fill="#FF7E92"/>
<path d="M59.6824 72.5983H53.2522V79.1665H59.6824V72.5983Z" fill="#3F3D56"/>
<path d="M59.6824 81.5356H53.2522V88.1039H59.6824V81.5356Z" fill="#3F3D56"/>
<path d="M59.6824 72.5983H53.2522V79.1665H59.6824V72.5983Z" fill="white"/>
<path d="M59.6824 81.5356H53.2522V88.1039H59.6824V81.5356Z" fill="white"/>
<path d="M50.7894 72.5983H44.3592V79.1665H50.7894V72.5983Z" fill="#3F3D56"/>
<path d="M50.7894 81.5356H44.3592V88.1039H50.7894V81.5356Z" fill="#3F3D56"/>
<path d="M50.7894 72.5983H44.3592V79.1665H50.7894V72.5983Z" fill="white"/>
<path d="M50.7894 81.5356H44.3592V88.1039H50.7894V81.5356Z" fill="white"/>
<path d="M41.8965 72.5983H35.4662V79.1665H41.8965V72.5983Z" fill="#3F3D56"/>
<path d="M41.8965 81.5356H35.4662V88.1039H41.8965V81.5356Z" fill="#3F3D56"/>
<path d="M41.8965 72.5983H35.4662V79.1665H41.8965V72.5983Z" fill="white"/>
<path d="M41.8965 81.5356H35.4662V88.1039H41.8965V81.5356Z" fill="white"/>
<path d="M104.492 8.36761H101.56V15.6893H104.492V8.36761Z" fill="#FF7E92"/>
<path d="M104.282 15.0617H79.3633V99.7839H104.282V15.0617Z" fill="#FF7E92"/>
<path d="M114.333 15.0617H104.282V99.7839H114.333V15.0617Z" fill="#3F3D56"/>
<path d="M87.6347 22.3834H83.8655V26.1488H87.6347V22.3834Z" fill="white"/>
<path d="M93.7073 22.3834H89.9381V26.1488H93.7073V22.3834Z" fill="white"/>
<path d="M99.78 22.3834H96.0107V26.1488H99.78V22.3834Z" fill="white"/>
<path d="M87.7394 30.9602H83.9702V34.7256H87.7394V30.9602Z" fill="white"/>
<path d="M93.8121 30.9602H90.0428V34.7256H93.8121V30.9602Z" fill="white"/>
<path d="M99.8847 30.9602H96.1155V34.7256H99.8847V30.9602Z" fill="white"/>
<path d="M87.8441 39.537H84.0749V43.3025H87.8441V39.537Z" fill="white"/>
<path d="M93.9167 39.537H90.1475V43.3025H93.9167V39.537Z" fill="white"/>
<path d="M99.9894 39.537H96.2202V43.3025H99.9894V39.537Z" fill="white"/>
<path d="M87.9488 48.1138H84.1796V51.8793H87.9488V48.1138Z" fill="white"/>
<path d="M94.0214 48.1138H90.2522V51.8793H94.0214V48.1138Z" fill="white"/>
<path d="M100.094 48.1138H96.3249V51.8793H100.094V48.1138Z" fill="white"/>
<path d="M88.0535 56.6907H84.2842V60.4561H88.0535V56.6907Z" fill="white"/>
<path d="M94.1262 56.6907H90.3569V60.4561H94.1262V56.6907Z" fill="white"/>
<path d="M100.199 56.6907H96.4296V60.4561H100.199V56.6907Z" fill="white"/>
<path d="M88.1582 65.2675H84.389V69.0329H88.1582V65.2675Z" fill="white"/>
<path d="M94.2309 65.2675H90.4616V69.0329H94.2309V65.2675Z" fill="white"/>
<path d="M100.304 65.2675H96.5343V69.0329H100.304V65.2675Z" fill="white"/>
<path d="M88.2629 73.8443H84.4937V77.6097H88.2629V73.8443Z" fill="white"/>
<path d="M94.3356 73.8443H90.5663V77.6097H94.3356V73.8443Z" fill="white"/>
<path d="M100.408 73.8443H96.639V77.6097H100.408V73.8443Z" fill="white"/>
<path d="M88.3676 82.4211H84.5984V86.1865H88.3676V82.4211Z" fill="white"/>
<path d="M94.4403 82.4211H90.671V86.1865H94.4403V82.4211Z" fill="white"/>
<path d="M94.4403 92.4623H90.671V99.5748H94.4403V92.4623Z" fill="white"/>
<path d="M100.513 82.4211H96.7437V86.1865H100.513V82.4211Z" fill="white"/>
<path d="M105.957 8.36761H104.282V15.4801H105.957V8.36761Z" fill="#3F3D56"/>
<path d="M135.902 45.6036H132.97V49.943H135.902V45.6036Z" fill="#FF7E92"/>
<path d="M135.692 49.571H110.774V99.7839H135.692V49.571Z" fill="#FF7E92"/>
<path d="M145.744 49.571H135.692V99.7839H145.744V49.571Z" fill="#3F3D56"/>
<path d="M119.464 56.6907H115.695V60.4561H119.464V56.6907Z" fill="white"/>
<path d="M125.536 56.6907H121.767V60.4561H125.536V56.6907Z" fill="white"/>
<path d="M131.609 56.6907H127.84V60.4561H131.609V56.6907Z" fill="white"/>
<path d="M119.568 65.2675H115.799V69.0329H119.568V65.2675Z" fill="white"/>
<path d="M125.641 65.2675H121.872V69.0329H125.641V65.2675Z" fill="white"/>
<path d="M131.714 65.2675H127.945V69.0329H131.714V65.2675Z" fill="white"/>
<path d="M119.673 73.8443H115.904V77.6097H119.673V73.8443Z" fill="white"/>
<path d="M125.746 73.8443H121.977V77.6097H125.746V73.8443Z" fill="white"/>
<path d="M131.818 73.8443H128.049V77.6097H131.818V73.8443Z" fill="white"/>
<path d="M119.778 82.4211H116.009V86.1865H119.778V82.4211Z" fill="white"/>
<path d="M125.851 82.4211H122.081V86.1865H125.851V82.4211Z" fill="white"/>
<path d="M125.851 92.4623H122.081V99.5748H125.851V92.4623Z" fill="white"/>
<path d="M131.923 82.4211H128.154V86.1865H131.923V82.4211Z" fill="white"/>
<path d="M137.368 45.6036H135.692V49.819H137.368V45.6036Z" fill="#3F3D56"/>
<path d="M186 99.5312H0.0510864V100H186V99.5312Z" fill="#3F3D56"/>
<path d="M153.42 89.9689C156.432 89.9689 158.873 87.53 158.873 84.5215C158.873 81.5129 156.432 79.074 153.42 79.074C150.409 79.074 147.967 81.5129 147.967 84.5215C147.967 87.53 150.409 89.9689 153.42 89.9689Z" fill="#FF7E92"/>
<path opacity="0.2" d="M157.477 80.8831C157.985 82.0716 158.054 83.4022 157.671 84.6369C157.288 85.8717 156.478 86.9301 155.386 87.6232C154.294 88.3162 152.99 88.5987 151.709 88.4202C150.427 88.2416 149.251 87.6137 148.39 86.6485C148.701 87.3747 149.166 88.0247 149.753 88.5535C150.34 89.0823 151.036 89.4773 151.791 89.711C152.546 89.9448 153.343 90.0117 154.126 89.9073C154.91 89.8028 155.661 89.5293 156.329 89.1059C156.996 88.6825 157.563 88.1192 157.991 87.4551C158.419 86.7909 158.697 86.0418 158.806 85.2596C158.915 84.4775 158.853 83.6809 158.623 82.9252C158.394 82.1695 158.002 81.4727 157.477 80.8831Z" fill="black"/>
<path d="M153.435 84.5215H153.45L153.72 99.9659H153.151L153.435 84.5215Z" fill="#3F3D56"/>
<path d="M154.428 92.934L154.303 92.6956L153.401 93.1697L153.527 93.408L154.428 92.934Z" fill="#3F3D56"/>
<path d="M169.452 84.7638C174.032 84.7638 177.744 81.055 177.744 76.48C177.744 71.905 174.032 68.1962 169.452 68.1962C164.872 68.1962 161.16 71.905 161.16 76.48C161.16 81.055 164.872 84.7638 169.452 84.7638Z" fill="#FF7E92"/>
<path opacity="0.2" d="M175.62 70.947C176.394 72.7545 176.498 74.7778 175.916 76.6554C175.334 78.5331 174.102 80.1427 172.441 81.1966C170.78 82.2505 168.798 82.6801 166.849 82.4085C164.9 82.137 163.112 81.1821 161.803 79.7143C162.275 80.8186 162.983 81.8071 163.875 82.6112C164.768 83.4154 165.825 84.016 166.974 84.3715C168.122 84.7269 169.334 84.8288 170.526 84.6699C171.717 84.511 172.86 84.0952 173.875 83.4513C174.889 82.8074 175.752 81.9508 176.402 80.9409C177.053 79.9309 177.476 78.7918 177.642 77.6024C177.808 76.4129 177.713 75.2017 177.364 74.0525C177.015 72.9033 176.42 71.8437 175.62 70.947Z" fill="black"/>
<path d="M169.475 76.4799H169.497L169.907 99.9659H169.042L169.475 76.4799Z" fill="#3F3D56"/>
<path d="M170.985 89.2726L170.794 88.9102L169.423 89.6311L169.614 89.9936L170.985 89.2726Z" fill="#3F3D56"/>
<path d="M5.58258 89.7598C8.59416 89.7598 11.0355 87.3209 11.0355 84.3123C11.0355 81.3038 8.59416 78.8649 5.58258 78.8649C2.57101 78.8649 0.129639 81.3038 0.129639 84.3123C0.129639 87.3209 2.57101 89.7598 5.58258 89.7598Z" fill="#FF7E92"/>
<path opacity="0.2" d="M9.63882 80.6738C10.1475 81.8624 10.2164 83.193 9.83348 84.4277C9.45051 85.6624 8.64053 86.7209 7.54828 87.414C6.45603 88.107 5.15269 88.3895 3.87114 88.211C2.58959 88.0324 1.41335 87.4044 0.552612 86.4393C0.863325 87.1654 1.32837 87.8155 1.91551 88.3443C2.50266 88.8731 3.19787 89.2681 3.95298 89.5018C4.70809 89.7356 5.50505 89.8025 6.28864 89.698C7.07223 89.5936 7.82371 89.3201 8.49102 88.8967C9.15832 88.4733 9.7255 87.91 10.1533 87.2458C10.581 86.5817 10.8591 85.8326 10.9683 85.0504C11.0775 84.2682 11.0151 83.4717 10.7856 82.716C10.556 81.9603 10.1647 81.2635 9.63883 80.6738H9.63882Z" fill="black"/>
<path d="M5.5975 84.3124H5.61258L5.88208 99.7567H5.31293L5.5975 84.3124Z" fill="#3F3D56"/>
<path d="M6.59046 92.7248L6.46484 92.4865L5.56345 92.9605L5.68907 93.1989L6.59046 92.7248Z" fill="#3F3D56"/>
<path d="M126.984 7.81027L128.912 6.27004C127.414 6.10499 126.799 6.92089 126.547 7.56668C125.377 7.08136 124.104 7.7174 124.104 7.7174L127.961 9.11619C127.766 8.59701 127.427 8.14399 126.984 7.81027Z" fill="#3F3D56"/>
<path d="M30.2405 15.5503L32.1681 14.0101C30.6706 13.845 30.0553 14.6609 29.8035 15.3067C28.6335 14.8214 27.3599 15.4574 27.3599 15.4574L31.2169 16.8562C31.0223 16.3371 30.6836 15.884 30.2405 15.5503Z" fill="#3F3D56"/>
<path d="M156.3 23.4996L158.228 21.9594C156.731 21.7943 156.115 22.6102 155.863 23.256C154.693 22.7707 153.42 23.4067 153.42 23.4067L157.277 24.8055C157.082 24.2863 156.744 23.8333 156.3 23.4996Z" fill="#3F3D56"/>
<path d="M46.155 11.3665L48.0827 9.82632C46.5851 9.66127 45.9698 10.4772 45.718 11.123C44.5481 10.6376 43.2745 11.2737 43.2745 11.2737L47.1314 12.6725C46.9368 12.1533 46.5981 11.7003 46.155 11.3665Z" fill="#3F3D56"/>
<path d="M49.7148 28.1018L51.6425 26.5615C50.145 26.3965 49.5297 27.2124 49.2778 27.8582C48.1079 27.3729 46.8343 28.0089 46.8343 28.0089L50.6912 29.4077C50.4967 28.8885 50.158 28.4355 49.7148 28.1018Z" fill="#3F3D56"/>
<path d="M124.681 36.8878L126.608 35.3476C125.111 35.1825 124.496 35.9984 124.244 36.6442C123.074 36.1589 121.8 36.7949 121.8 36.7949L125.657 38.1937C125.463 37.6745 125.124 37.2215 124.681 36.8878Z" fill="#3F3D56"/>
<path d="M22.1966 95.3909H9.21368V95.8093H11.2384V99.7839H11.6572V95.8093H19.5437V99.7839H19.9625V95.8093H22.1966V95.3909Z" fill="#3F3D56"/>
<path d="M35.3889 97.0644C34.8765 97.0644 34.3731 97.1993 33.9295 97.4556C33.479 97.0486 32.9199 96.781 32.3201 96.6853C31.7203 96.5896 31.1056 96.6699 30.5506 96.9164C29.9956 97.163 29.5242 97.5652 29.1935 98.0742C28.8629 98.5832 28.6873 99.1771 28.6881 99.7839H38.31C38.2575 99.0457 37.927 98.3547 37.385 97.8501C36.843 97.3455 36.1298 97.0647 35.3889 97.0644Z" fill="#3F3D56"/>
<path d="M85.0172 97.0644C84.5048 97.0644 84.0014 97.1993 83.5578 97.4556C83.1073 97.0486 82.5482 96.781 81.9484 96.6853C81.3486 96.5896 80.7339 96.6699 80.1789 96.9164C79.6239 97.163 79.1525 97.5652 78.8218 98.0742C78.4912 98.5832 78.3156 99.1771 78.3163 99.7839H87.9383C87.8858 99.0457 87.5553 98.3547 87.0133 97.8501C86.4713 97.3455 85.7581 97.0647 85.0172 97.0644Z" fill="#3F3D56"/>
<path d="M117.474 97.0644C116.962 97.0644 116.459 97.1993 116.015 97.4556C115.565 97.0486 115.005 96.781 114.406 96.6853C113.806 96.5896 113.191 96.6699 112.636 96.9164C112.081 97.163 111.61 97.5652 111.279 98.0742C110.948 98.5832 110.773 99.1771 110.774 99.7839H120.396C120.343 99.0457 120.013 98.3547 119.471 97.8501C118.929 97.3455 118.215 97.0647 117.474 97.0644Z" fill="#3F3D56"/>
<path d="M160.192 97.0644C159.68 97.0644 159.177 97.1993 158.733 97.4556C158.283 97.0486 157.723 96.781 157.124 96.6853C156.524 96.5896 155.909 96.6699 155.354 96.9164C154.799 97.163 154.328 97.5652 153.997 98.0742C153.666 98.5832 153.491 99.1771 153.492 99.7839H163.114C163.061 99.0457 162.731 98.3547 162.189 97.8501C161.647 97.3455 160.933 97.0647 160.192 97.0644Z" fill="#3F3D56"/>
<path d="M180.714 97.0644C180.201 97.0644 179.698 97.1993 179.254 97.4556C178.804 97.0486 178.245 96.781 177.645 96.6853C177.045 96.5896 176.431 96.6699 175.876 96.9164C175.321 97.163 174.849 97.5652 174.518 98.0742C174.188 98.5832 174.012 99.1771 174.013 99.7839H183.635C183.582 99.0457 183.252 98.3547 182.71 97.8501C182.168 97.3455 181.455 97.0647 180.714 97.0644Z" fill="#3F3D56"/>
<path d="M27.0128 85.1406H23.6624V88.4876H25.2155V99.7655H25.6343V88.4876H27.0128V85.1406Z" fill="#3F3D56"/>
<path d="M22.2221 94.1392H9.2392V94.5576H22.2221V94.1392Z" fill="#3F3D56"/>
<path d="M22.2221 93.0933H9.2392V93.5116H22.2221V93.0933Z" fill="#3F3D56"/>
<path d="M22.2221 92.0473H9.2392V92.4657H22.2221V92.0473Z" fill="#3F3D56"/>
</svg>
