<svg width="1308" height="520" viewBox="0 0 1308 520" fill="none" xmlns="http://www.w3.org/2000/svg">
<path d="M80 167L102 129M59 192L110.5 100.5M45.5 204L112.5 84M32.5 212.5L111.5 70.5M22.5 218.5L109.5 61M12 224L107 53M1.5 228.5L103.5 45.5M-4.5 226.5L99 39.5M-10 223L95 33.5M-10 211L90 30M-16 207.5L84 26.5M-21 204.5L79 23.5M-26.5 200.5L73.5 19.5M24.5 95L59.5 33.5M28.5 75L53 31.5M30 59.5L51 23.5M29.5 46.5L50.5 10.5M27.5 37L48.5 1" stroke="#CCF4FE" stroke-width="3"/>
<path d="M1301.35 507.91C1294.55 494.71 1284.95 483.01 1274.75 472.01C1269.75 467.01 1264.75 463.01 1258.75 459.01C1237.75 445.01 1215.75 439.01 1193.75 428.01C1188.75 425.01 1183.75 422.01 1178.75 419.01C1144.75 397.01 1117.75 371.01 1097.75 336.01C1089.75 323.01 1085.75 309.01 1083.75 294.01C1082.75 285.01 1082.75 276.01 1083.75 267.01C1089.75 230.01 1113.75 200.01 1145.75 180.01C1191.15 153.21 1246.25 158.31 1290.45 182.21L1308 193" stroke="#999999" stroke-miterlimit="10" stroke-dasharray="12.23 12.23"/>
<path d="M1303.95 513.41C1304.75 515.21 1305.45 517.11 1306.15 519.01" stroke="#999999" stroke-miterlimit="10"/>
<path d="M140 65.5C164 73 158.5 8.79579 210 8.79578C209 31.2958 215.3 40.9958 221 45.7958C235.4 57.7958 258 47.9958 324 36.7958C368.1 29.2958 376 30.5958 381 35.7958C394.6 49.6958 386.1 89.9958 363 111.796C349.4 124.596 327.3 131.996 283 146.796C263.8 153.196 251.7 156.396 248 166.796C243.6 179.096 253.7 194.096 262 201.796C278.6 217.196 301.7 215.496 312 214.796C327.2 213.696 341.7 209.096 371 191.796C402 173.496 423.9 156.096 433 148.796C495.2 98.6958 495.6 86.3958 529 70.7958C539.7 65.7958 563.8 54.8958 596 53.7958C614.8 53.1958 624 56.2958 694 74.7958C735.2 85.6958 756 91.1958 766 92.7958C795.9 97.5958 794 93.8958 855 99.7958C888.9 103.096 894.2 104.596 905 100.796C916.6 96.6958 919.6 91.6958 956 61.7958C971.7 48.8958 979.8 42.2958 987 37.7958C1006.1 25.9958 1024.3 20.4958 1037 17.7958C1065.5 16.8638 1124.9 21.9 1134.5 49.5C1146.5 84 1144 102.5 1134.5 118.5C1125 134.5 1091.5 157 1088.5 172C1085.5 187 1087 213 1114 216.5C1141 220 1217 216 1229 188.5C1241 161 1250.5 160.704 1252 113.5" stroke="#999999" stroke-miterlimit="10" stroke-dasharray="12 12"/>
<path d="M976.429 110.766L976.248 110.947C976.248 110.947 976.308 112.933 976.369 113.355C976.429 113.776 976.67 114.498 976.489 115.04C976.308 115.582 976.248 116.003 976.308 116.064C976.369 116.124 976.248 116.365 976.248 116.365L976.731 116.064L977.515 114.258L977.153 112.331L976.429 110.766Z" fill="#1D61DA"/>
<path opacity="0.1" d="M976.429 110.766L976.248 110.947C976.248 110.947 976.308 112.933 976.369 113.355C976.429 113.776 976.67 114.498 976.489 115.04C976.308 115.582 976.248 116.003 976.308 116.064C976.369 116.124 976.248 116.365 976.248 116.365L976.731 116.064L977.515 114.258L977.153 112.331L976.429 110.766Z" fill="black"/>
<path d="M979.627 129.488C979.627 129.488 979.627 128.825 979.507 128.705C979.386 128.585 979.205 128.163 978.964 128.163C978.722 128.163 977.877 128.404 977.877 128.464C977.884 128.652 977.843 128.839 977.757 129.006C977.636 129.187 976.972 129.909 977.636 130.029C977.857 130.065 978.082 130.057 978.3 130.006C978.518 129.954 978.723 129.86 978.903 129.728C978.964 129.668 979.205 129.608 979.265 129.668C979.326 129.728 979.627 129.488 979.627 129.488Z" fill="#1D61DA"/>
<path d="M981.317 128.404L981.679 129.066C981.679 129.066 981.8 129.668 981.981 129.728H982.162C982.162 129.728 982.343 130.391 982.766 130.33C983.188 130.27 983.671 130.029 983.671 129.909C983.671 129.789 983.671 129.427 983.49 129.307C983.236 129.1 982.994 128.879 982.766 128.645L982.464 128.344L981.317 128.404Z" fill="#1D61DA"/>
<path d="M976.686 106.353C976.57 106.412 976.469 106.499 976.394 106.604C976.318 106.71 976.268 106.833 976.25 106.961C976.216 107.391 976.642 107.796 976.505 108.205C976.427 108.437 976.185 108.587 976.115 108.822C976.079 109.009 976.106 109.203 976.194 109.373C976.289 109.606 976.405 109.829 976.54 110.041C976.795 110.44 977.126 110.818 977.194 111.285C977.212 111.367 977.212 111.452 977.191 111.533C977.171 111.615 977.131 111.69 977.076 111.753C977.198 111.661 977.338 111.594 977.488 111.558C978.104 111.352 978.677 111.034 979.177 110.619C979.359 110.492 979.496 110.31 979.568 110.101C979.66 109.731 979.379 109.361 979.406 108.981C979.423 108.738 979.564 108.523 979.643 108.292C979.713 108.063 979.735 107.822 979.708 107.584C979.682 107.346 979.607 107.115 979.489 106.907C979.392 106.705 979.254 106.525 979.084 106.378C978.915 106.231 978.717 106.119 978.503 106.051C978.174 105.974 977.83 105.984 977.506 106.08C977.223 106.138 976.947 106.23 976.686 106.353V106.353Z" fill="#2F2E41"/>
<path d="M977.026 109.691C977.158 109.445 977.355 109.239 977.595 109.094C977.835 108.95 978.11 108.872 978.39 108.87C979.356 108.87 979.175 108.81 979.175 108.81L978.873 110.014L978.27 110.616L977.026 109.691Z" fill="#1D61DA"/>
<path d="M977.274 108.419C977.274 108.419 977.817 109.322 977.455 109.683C977.093 110.044 977.274 110.405 977.334 110.465C977.395 110.526 979.084 110.646 979.084 110.646L979.145 109.803L979.326 109.081C979.326 109.081 978.36 108.9 978.481 108.479C978.602 108.057 977.274 108.419 977.274 108.419Z" fill="#FBBEBE"/>
<path opacity="0.1" d="M977.274 108.419C977.274 108.419 977.817 109.322 977.455 109.683C977.093 110.044 977.274 110.405 977.334 110.465C977.395 110.526 979.084 110.646 979.084 110.646L979.145 109.803L979.326 109.081C979.326 109.081 978.36 108.9 978.481 108.479C978.602 108.057 977.274 108.419 977.274 108.419Z" fill="black"/>
<path d="M981.498 116.967C981.434 117.173 981.353 117.375 981.257 117.569C981.196 117.629 981.015 117.147 981.015 117.147L981.196 116.726L981.498 116.967Z" fill="#FBBEBE"/>
<path d="M980.804 114.228L981.046 115.612H977.425L977.606 114.228H980.804Z" fill="#FBBEBE"/>
<path d="M977.938 108.9C978.571 108.9 979.084 108.388 979.084 107.756C979.084 107.125 978.571 106.613 977.938 106.613C977.304 106.613 976.791 107.125 976.791 107.756C976.791 108.388 977.304 108.9 977.938 108.9Z" fill="#FBBEBE"/>
<path d="M978.179 110.104C978.179 110.104 977.515 110.164 977.515 110.044C977.515 109.924 977.455 109.562 977.334 109.623C977.213 109.683 976.429 109.743 976.489 109.924C976.55 110.104 976.67 110.465 976.55 110.465C976.498 110.476 976.448 110.497 976.404 110.527C976.361 110.558 976.323 110.596 976.295 110.642C976.267 110.687 976.248 110.737 976.24 110.789C976.232 110.842 976.235 110.895 976.248 110.947C976.308 111.248 976.972 113.054 976.972 113.054C976.972 113.054 977.032 113.656 977.213 113.836C977.287 113.931 977.327 114.048 977.327 114.167C977.327 114.287 977.287 114.404 977.213 114.499C977.093 114.619 977.515 114.739 977.696 114.98C977.877 115.221 979.265 115.04 979.326 114.98C979.386 114.92 980.834 114.92 980.955 114.8C981.076 114.679 980.895 114.318 980.895 114.318C980.895 114.318 980.834 113.776 980.895 113.596C980.955 113.415 980.653 110.465 980.472 110.285C980.291 110.104 981.015 109.562 981.015 109.562C981.015 109.562 980.895 109.081 980.11 109.021C980.11 109.021 979.869 108.659 979.627 108.659C979.386 108.659 978.862 108.939 978.862 108.939C978.862 108.939 978.722 109.743 978.541 109.803C978.398 109.873 978.274 109.976 978.179 110.104Z" fill="#1D61DA"/>
<path d="M980.593 109.382L981.015 109.562C981.015 109.562 982.222 113.295 982.102 114.017C981.981 114.739 981.679 117.207 981.498 117.207C981.317 117.207 980.955 116.846 980.955 116.846V116.244C980.955 116.124 980.774 115.763 980.895 115.763C981.015 115.763 981.196 115.642 981.076 115.522C980.955 115.401 980.834 115.221 980.955 115.04C981.076 114.86 981.136 114.799 981.076 114.619C981.015 114.438 980.895 114.258 981.015 114.137C981.136 114.017 980.714 113.415 980.714 113.415L980.05 110.766L980.171 109.683L980.593 109.382Z" fill="#1D61DA"/>
<path d="M980.834 115.1C980.834 115.1 978.541 114.92 978.24 114.92C977.938 114.92 977.261 114.636 977.261 114.636C977.261 114.636 975.524 116.365 976.127 119.194C976.731 122.023 976.852 125.515 977.214 126.538C977.46 127.267 977.661 128.011 977.817 128.765C977.817 128.765 978.421 127.682 979.567 128.886C979.567 128.886 979.688 127.983 979.507 127.621C979.326 127.26 979.084 125.334 979.084 125.334C979.084 125.334 978.662 122.264 978.662 121.903C978.662 121.542 978.421 118.471 978.481 118.411C978.541 118.351 978.843 120.759 978.903 121.18C978.964 121.602 979.145 124.852 979.326 125.214C979.507 125.575 980.352 128.464 980.834 128.645C981.317 128.825 982.947 128.585 982.886 128.464C982.826 128.344 982.403 127.682 982.283 127.501L981.8 126.779L980.653 122.866L981.197 118.11C981.197 118.11 981.498 115.04 980.834 115.1Z" fill="#2F2E41"/>
<path d="M978.636 107.606H977.166C977.103 107.606 977.043 107.584 976.996 107.543C976.948 107.503 976.917 107.447 976.907 107.385L976.761 106.462H979.054L978.849 107.434C978.839 107.482 978.812 107.526 978.773 107.557C978.734 107.589 978.686 107.606 978.636 107.606Z" fill="#2F2E41"/>
<path d="M995 112.1H992V129.1H995V112.1Z" fill="#C9F2FF"/>
<path d="M1003 112.1H1000V129.1H1003V112.1Z" fill="#C9F2FF"/>
<path d="M1011 112.1H1008V129.1H1011V112.1Z" fill="#C9F2FF"/>
<path d="M1015 127.1H989V131.1H1015V127.1Z" fill="#1D65E9"/>
<path d="M988 113.1L1002 100.1L1016 113.1H988Z" fill="#1D65E9"/>
<path d="M1002 110.1C1003.1 110.1 1004 109.205 1004 108.1C1004 106.995 1003.1 106.1 1002 106.1C1000.9 106.1 1000 106.995 1000 108.1C1000 109.205 1000.9 110.1 1002 110.1Z" fill="#CEF3FE"/>
<path d="M1033 84.1V78.8L1037 75.8V72.2L1038 71.5V74.6H1039V70.9L1039.5 70.6L1031.5 66L1024.6 70.6L1028.1 72.6V75.8L1032.1 78.8V84.1H1024.1V89.6H1025.1V85.1H1045.1V89.6H1046.1V84.1H1033ZM1026.5 70.6L1031.6 67.2L1037.6 70.6L1032.5 74L1026.5 70.6ZM1029 75.3V73.2L1032.5 75.2L1036 72.9V75.4L1032.5 78L1029 75.3Z" fill="#666666"/>
<path d="M1047 89.1H1023V126.1H1047V89.1Z" fill="#D4F5FE"/>
<path d="M1035.3 111.6H1034.3V126.1H1035.3V111.6Z" fill="#4D4D4D"/>
<path d="M1041.7 126.1H1040.7V112.1H1028.9V126.1H1027.9V111.1H1041.7V126.1Z" fill="#4D4D4D"/>
<path d="M1033 117.1H1031V121.1H1033V117.1Z" fill="#4D4D4D"/>
<path d="M1039 117.1H1037V121.1H1039V117.1Z" fill="#4D4D4D"/>
<path d="M1048 126.1H1022V130.1H1048V126.1Z" fill="#1D65E9"/>
<path d="M1030.2 100.1H1024.9V106.1H1030.2V100.1Z" fill="#1D65E9"/>
<path d="M1037.2 100.1H1031.9V106.1H1037.2V100.1Z" fill="#1D65E9"/>
<path d="M1044.2 100.1H1038.9V106.1H1044.2V100.1Z" fill="#1D65E9"/>
<path d="M1030.2 93.1H1024.9V99.1H1030.2V93.1Z" fill="#1D65E9"/>
<path d="M1037.2 93.1H1031.9V99.1H1037.2V93.1Z" fill="#1D65E9"/>
<path d="M1044.2 93.1H1038.9V99.1H1044.2V93.1Z" fill="#1D65E9"/>
<path d="M949 104.1L945 122.1H953L949 104.1Z" fill="#D4F5FE"/>
<path d="M949.3 111.1H948.8V122.1H949.3V111.1Z" fill="#666666"/>
<path d="M950.753 117.951L948.76 120.326L949.143 120.648L951.136 118.273L950.753 117.951Z" fill="#666666"/>
<path d="M947.231 116.894L946.877 117.247L948.857 119.227L949.211 118.874L947.231 116.894Z" fill="#666666"/>
<path d="M949.829 113.892L948.812 114.854L949.156 115.218L950.173 114.255L949.829 113.892Z" fill="#666666"/>
<path d="M962.8 132.1L958.8 150.1H966.8L962.8 132.1Z" fill="#1D65E7"/>
<path d="M962.9 139.1H962.6V150.1H962.9V139.1Z" fill="#1A1A1A"/>
<path d="M964.687 146.041L962.691 148.412L962.921 148.605L964.917 146.234L964.687 146.041Z" fill="#1A1A1A"/>
<path d="M960.804 145.071L960.662 145.212L962.642 147.192L962.784 147.051L960.804 145.071Z" fill="#1A1A1A"/>
<path d="M963.684 141.931L962.667 142.894L962.873 143.112L963.89 142.149L963.684 141.931Z" fill="#1A1A1A"/>
<path d="M1061.8 144.1L1057.8 162.1H1065.8L1061.8 144.1Z" fill="#1D65E7"/>
<path d="M1061.9 151.1H1061.6V162.1H1061.9V151.1Z" fill="#1A1A1A"/>
<path d="M1063.69 158.042L1061.69 160.413L1061.92 160.607L1063.92 158.235L1063.69 158.042Z" fill="#1A1A1A"/>
<path d="M1059.8 157.071L1059.66 157.213L1061.64 159.193L1061.78 159.051L1059.8 157.071Z" fill="#1A1A1A"/>
<path d="M1062.69 153.933L1061.67 154.895L1061.88 155.113L1062.89 154.151L1062.69 153.933Z" fill="#1A1A1A"/>
<path d="M1063.8 92.1L1055.9 127.1H1071.6L1063.8 92.1Z" fill="#1D65E7"/>
<path d="M1064 105.6H1063.5V127.1H1064V105.6Z" fill="#1A1A1A"/>
<path d="M1067.54 119.098L1063.62 123.771L1064 124.092L1067.92 119.42L1067.54 119.098Z" fill="#1A1A1A"/>
<path d="M1059.98 117.171L1059.62 117.524L1063.51 121.413L1063.87 121.06L1059.98 117.171Z" fill="#1A1A1A"/>
<path d="M1065.59 111.315L1063.62 113.171L1063.97 113.534L1065.93 111.678L1065.59 111.315Z" fill="#1A1A1A"/>
<path d="M1061.88 53.2484L1057.7 71.7516H1066L1061.88 53.2484Z" fill="#1D65E7"/>
<path d="M1061.98 60.3854H1061.72V71.7516H1061.98V60.3854Z" fill="#1A1A1A"/>
<path d="M1063.85 67.5213L1061.78 69.9916L1061.98 70.1615L1064.06 67.6913L1063.85 67.5213Z" fill="#1A1A1A"/>
<path d="M1059.86 66.5023L1059.67 66.6892L1061.73 68.7452L1061.91 68.5582L1059.86 66.5023Z" fill="#1A1A1A"/>
<path d="M1062.82 63.4067L1061.78 64.3877L1061.96 64.5797L1063 63.5987L1062.82 63.4067Z" fill="#1A1A1A"/>
<path d="M974.5 75.1L967.8 105.1H981.2L974.5 75.1Z" fill="#1D65E7"/>
<path d="M974.8 85.1H974.3V105.1H974.8V85.1Z" fill="#333333"/>
<path d="M977.968 97.6115L974.304 101.978L974.687 102.299L978.351 97.9329L977.968 97.6115Z" fill="#333333"/>
<path d="M971.068 95.7587L970.714 96.1123L974.321 99.7185L974.674 99.3649L971.068 95.7587Z" fill="#333333"/>
<path d="M976.215 90.3867L974.399 92.105L974.743 92.4682L976.559 90.7499L976.215 90.3867Z" fill="#333333"/>
<path d="M1094.3 86.1L1090.3 104.1H1098.3L1094.3 86.1Z" fill="#D4F5FE"/>
<path d="M1094.5 95.1H1094V104.1H1094.5V95.1Z" fill="#666666"/>
<path d="M1095.64 100.657L1094.04 102.572L1094.42 102.893L1096.03 100.978L1095.64 100.657Z" fill="#666666"/>
<path d="M1092.83 99.8376L1092.48 100.191L1094.1 101.818L1094.46 101.464L1092.83 99.8376Z" fill="#666666"/>
<path d="M1094.9 97.3938L1094.1 98.1499L1094.44 98.5131L1095.24 97.757L1094.9 97.3938Z" fill="#666666"/>
<path d="M1010 61L1006 79H1014L1010 61Z" fill="#D4F5FE"/>
<path d="M1010.2 70H1009.7V79H1010.2V70Z" fill="#666666"/>
<path d="M1011.34 75.5565L1009.74 77.4716L1010.12 77.793L1011.73 75.878L1011.34 75.5565Z" fill="#666666"/>
<path d="M1008.53 74.7376L1008.18 75.0912L1009.8 76.7175L1010.16 76.364L1008.53 74.7376Z" fill="#666666"/>
<path d="M1010.6 72.2937L1009.8 73.0498L1010.14 73.413L1010.94 72.6569L1010.6 72.2937Z" fill="#666666"/>
<path d="M1102.64 276.976L1099 293.377H1106.29L1102.64 276.976Z" fill="#D4F5FE"/>
<path d="M1102.92 283.354H1102.46V293.377H1102.92V283.354Z" fill="#666666"/>
<path d="M1104.25 289.598L1102.43 291.761L1102.78 292.054L1104.6 289.891L1104.25 289.598Z" fill="#666666"/>
<path d="M1101.03 288.634L1100.71 288.956L1102.51 290.76L1102.83 290.438L1101.03 288.634Z" fill="#666666"/>
<path d="M1103.4 285.905L1102.48 286.781L1102.79 287.112L1103.72 286.236L1103.4 285.905Z" fill="#666666"/>
<path d="M1120.69 301.578L1117.04 317.979H1124.33L1120.69 301.578Z" fill="#FF7E92"/>
<path d="M1120.78 307.956H1120.5V317.979H1120.78V307.956Z" fill="#1A1A1A"/>
<path d="M1122.4 314.28L1120.58 316.441L1120.79 316.617L1122.61 314.456L1122.4 314.28Z" fill="#1A1A1A"/>
<path d="M1118.87 313.397L1118.74 313.526L1120.54 315.33L1120.67 315.201L1118.87 313.397Z" fill="#1A1A1A"/>
<path d="M1121.5 310.543L1120.57 311.419L1120.76 311.618L1121.68 310.741L1121.5 310.543Z" fill="#1A1A1A"/>
<path d="M1184.47 311.601L1180.82 328.002H1188.11L1184.47 311.601Z" fill="#FF7E92"/>
<path d="M1184.56 317.979H1184.29V328.002H1184.56V317.979Z" fill="#1A1A1A"/>
<path d="M1186.18 324.304L1184.36 326.465L1184.57 326.641L1186.39 324.48L1186.18 324.304Z" fill="#1A1A1A"/>
<path d="M1182.65 323.42L1182.52 323.549L1184.32 325.353L1184.45 325.224L1182.65 323.42Z" fill="#1A1A1A"/>
<path d="M1185.28 320.567L1184.35 321.443L1184.54 321.642L1185.47 320.765L1185.28 320.567Z" fill="#1A1A1A"/>
<path d="M1210.89 255.108L1203.69 286.999H1218L1210.89 255.108Z" fill="#FF7E92"/>
<path d="M1211.08 267.409H1210.62V286.999H1211.08V267.409Z" fill="#1A1A1A"/>
<path d="M1214.31 279.708L1210.73 283.966L1211.08 284.258L1214.66 280.001L1214.31 279.708Z" fill="#1A1A1A"/>
<path d="M1207.42 277.949L1207.1 278.271L1210.64 281.815L1210.97 281.493L1207.42 277.949Z" fill="#1A1A1A"/>
<path d="M1212.52 272.622L1210.74 274.313L1211.05 274.644L1212.84 272.953L1212.52 272.622Z" fill="#1A1A1A"/>
<path d="M1114.03 241.44L1107.93 268.776H1120.14L1114.03 241.44Z" fill="#FF7E92"/>
<path d="M1114.31 250.552H1113.85V268.776H1114.31V250.552Z" fill="#333333"/>
<path d="M1117.2 261.953L1113.86 265.931L1114.21 266.224L1117.55 262.245L1117.2 261.953Z" fill="#333333"/>
<path d="M1110.92 260.263L1110.6 260.586L1113.88 263.871L1114.2 263.549L1110.92 260.263Z" fill="#333333"/>
<path d="M1115.6 255.375L1113.95 256.941L1114.26 257.272L1115.91 255.706L1115.6 255.375Z" fill="#333333"/>
<path d="M1183.1 235.973L1179.46 252.374H1186.75L1183.1 235.973Z" fill="#D4F5FE"/>
<path d="M1183.28 244.174H1182.83V252.374H1183.28V244.174Z" fill="#666666"/>
<path d="M1184.33 249.238L1182.87 250.983L1183.22 251.276L1184.68 249.531L1184.33 249.238Z" fill="#666666"/>
<path d="M1181.76 248.491L1181.44 248.813L1182.92 250.295L1183.24 249.972L1181.76 248.491Z" fill="#666666"/>
<path d="M1183.65 246.269L1182.92 246.958L1183.24 247.288L1183.96 246.6L1183.65 246.269Z" fill="#666666"/>
<path d="M1137.27 252.375H1127.25V258.753H1137.27V252.375Z" fill="#FF7E92"/>
<path d="M1191.03 260.575H1181.01V266.953H1191.03V260.575Z" fill="#FF7E92"/>
<path d="M1176.91 261.031H1148.66V277.432H1176.91V261.031Z" fill="#CBF3FF"/>
<path d="M1183.74 281.532H1161.87V273.332H1183.74V281.532ZM1162.78 280.621H1182.83V274.243H1162.78V280.621Z" fill="black"/>
<path d="M1156.4 284.266H1141.83V266.042H1156.4V284.266ZM1142.74 283.355H1155.49V266.953H1142.74V283.355Z" fill="black"/>
<path d="M1137.27 280.621H1126.34V273.332H1137.27V280.621ZM1127.25 279.71H1136.36V274.243H1127.25V279.71Z" fill="black"/>
<path d="M1168.25 264.22H1157.32V256.931H1168.25V264.22ZM1158.23 263.309H1167.34V257.842H1158.23V263.309Z" fill="black"/>
<path d="M1158.23 274.243C1157.5 274.698 1157.13 275.427 1157.32 276.065C1157.5 276.521 1157.95 276.794 1158.23 276.976C1158.41 277.067 1160.05 277.888 1160.96 276.976C1161.69 276.247 1161.51 274.972 1160.96 274.243C1160.32 273.423 1159.32 273.332 1159.14 273.332" fill="#DAA985"/>
<path d="M1157.68 284.266C1157.22 286.362 1156.77 288.548 1156.4 290.644C1162.42 290.644 1165.52 290.644 1165.52 290.644C1165.52 290.644 1164.6 288.457 1162.87 284.266C1161.14 284.266 1159.41 284.266 1157.68 284.266Z" fill="#8C87A3"/>
<path d="M1153.67 284.721C1152.94 284.721 1151.48 282.99 1149.66 279.983C1149.57 279.801 1149.57 279.528 1149.84 279.345C1150.03 279.254 1150.3 279.254 1150.48 279.528C1152.67 283.172 1153.58 283.719 1153.76 283.901C1154.22 283.81 1154.67 283.263 1155.13 282.352C1155.22 282.17 1155.49 282.079 1155.77 282.17C1155.95 282.261 1156.04 282.535 1155.95 282.808C1155.22 283.992 1154.49 284.721 1153.67 284.721Z" fill="#DAA985"/>
<path d="M1158.59 287.911C1158.41 287.911 1158.23 287.819 1158.23 287.637C1158.14 287.364 1158.23 287.09 1158.5 286.999H1158.59C1159.05 286.908 1162.96 285.997 1164.24 283.628C1164.6 282.899 1164.79 282.079 1164.7 281.077C1164.7 280.803 1164.88 280.621 1165.15 280.621C1165.42 280.621 1165.61 280.803 1165.61 281.077C1165.7 282.261 1165.52 283.264 1165.06 284.175C1163.6 286.817 1159.59 287.819 1158.86 288.002C1158.68 287.911 1158.68 287.911 1158.59 287.911Z" fill="#DAA985"/>
<path d="M1156.86 278.343C1156.68 278.434 1154.67 279.163 1154.13 281.077C1153.94 281.806 1154.04 282.443 1154.13 282.899C1154.4 283.081 1154.76 283.446 1155.13 283.901C1155.4 284.175 1155.4 284.357 1155.49 284.266C1155.86 284.175 1155.58 281.806 1156.4 281.532C1156.68 281.441 1157.32 281.532 1157.32 281.532V285.177C1157.32 285.177 1158.68 286.088 1160.05 286.088C1161.42 286.088 1162.78 285.177 1162.78 285.177V281.532C1162.78 281.532 1163.51 281.259 1163.69 281.532C1163.69 281.532 1163.78 281.623 1163.69 282.443C1163.69 282.443 1164.33 282.443 1165.52 282.443C1166.34 281.35 1166.34 279.892 1165.52 278.799C1164.7 277.705 1163.24 277.523 1162.33 277.705C1162.14 277.796 1161.96 277.796 1161.87 277.887C1161.05 278.252 1159.68 278.525 1156.86 278.343Z" fill="#B0BDD6"/>
<path d="M1159.14 272.421C1158.23 272.603 1157.5 272.785 1157.32 273.332C1157.04 274.061 1157.59 275.063 1158.23 275.154C1158.96 275.336 1159.68 274.061 1160.05 274.243C1160.32 274.425 1160.23 275.154 1160.05 276.065C1159.68 278.708 1159.5 280.074 1160.05 280.621C1160.5 281.077 1161.42 280.986 1161.87 280.621C1162.33 280.166 1161.96 279.528 1161.87 277.888C1161.78 276.065 1162.14 275.701 1161.87 274.243C1161.69 273.514 1161.6 272.785 1160.96 272.421C1160.41 272.147 1159.87 272.238 1159.14 272.421Z" fill="#202D43"/>
<path d="M1180.55 287.455H1126.79V307.501H1180.55V287.455Z" fill="#FF7E92"/>
<path d="M1308 222V285.741C1307.17 285.741 1306.34 285.777 1305.47 285.813V222.647C1306.34 222.431 1307.17 222.216 1308 222Z" fill="#E67575" fill-opacity="0.39"/>
<path d="M1300.77 223.905V286.1C1299.94 286.172 1299.11 286.244 1298.24 286.352V224.624C1299.11 224.373 1299.94 224.157 1300.77 223.905Z" fill="#E67575" fill-opacity="0.39"/>
<path d="M1293.55 226.026V287.035C1292.72 287.179 1291.89 287.323 1291.02 287.502V226.817C1291.85 226.566 1292.72 226.278 1293.55 226.026Z" fill="#E67575" fill-opacity="0.39"/>
<path d="M1286.32 228.399V288.653C1285.49 288.869 1284.66 289.12 1283.79 289.372V229.262C1284.62 228.975 1285.49 228.687 1286.32 228.399Z" fill="#E67575" fill-opacity="0.39"/>
<path d="M1279.09 231.024V290.954C1278.26 291.277 1277.4 291.601 1276.57 291.924V232.03C1277.4 231.707 1278.23 231.347 1279.09 231.024Z" fill="#E67575" fill-opacity="0.39"/>
<path d="M1271.87 234.043V294.009C1271.15 294.369 1270.28 294.764 1269.34 295.268V235.23C1270.17 234.834 1271 234.439 1271.87 234.043Z" fill="#E67575" fill-opacity="0.39"/>
<path d="M1264.64 237.603V297.748C1263.81 298.216 1262.98 298.719 1262.11 299.258V239.005C1262.94 238.537 1263.77 238.07 1264.64 237.603Z" fill="#E67575" fill-opacity="0.39"/>
<path d="M1262.11 426.812C1263.59 430.119 1264.53 433.714 1264.64 438.136V439.97C1264.53 444.5 1263.63 448.957 1262.11 453.164V426.812Z" fill="#E67575" fill-opacity="0.39"/>
<path d="M1257.42 241.953V302.314C1256.58 302.889 1255.75 303.536 1254.89 304.183V243.786C1255.68 243.175 1256.55 242.564 1257.42 241.953Z" fill="#E67575" fill-opacity="0.39"/>
<path d="M1254.89 415.344C1255.75 416.566 1256.62 417.716 1257.42 418.867V462.727C1256.62 463.985 1255.79 465.171 1254.89 466.358V415.344Z" fill="#E67575" fill-opacity="0.39"/>
<path d="M1250.19 247.849V308.174C1249.32 308.965 1248.49 309.792 1247.66 310.655V250.365C1248.45 249.538 1249.32 248.711 1250.19 247.849Z" fill="#E67575" fill-opacity="0.39"/>
<path d="M1247.66 404.738C1248.53 406.14 1249.36 407.434 1250.19 408.693V471.642C1249.36 472.433 1248.53 473.188 1247.66 473.907V404.738Z" fill="#E67575" fill-opacity="0.39"/>
<path d="M1242.96 255.722V316.083C1242.1 317.234 1241.23 318.42 1240.43 319.642V259.137C1241.23 257.987 1242.1 256.836 1242.96 255.722Z" fill="#E67575" fill-opacity="0.39"/>
<path d="M1240.43 390.394C1241.26 392.407 1242.1 394.312 1242.96 396.11V477.107C1242.2 477.502 1241.37 477.898 1240.43 478.257V390.394Z" fill="#E67575" fill-opacity="0.39"/>
<path d="M1235.74 266.759V328.522C1234.69 331.003 1233.86 333.519 1233.21 336V271.576C1234.07 269.887 1234.91 268.305 1235.74 266.759Z" fill="#E67575" fill-opacity="0.39"/>
<path d="M1233.21 368.068C1233.93 371.447 1234.83 374.611 1235.74 377.487V479.803C1234.94 480.019 1234.11 480.235 1233.21 480.45V368.068Z" fill="#E67575" fill-opacity="0.39"/>
<path d="M1228.51 281.57V481.457C1227.71 481.601 1226.85 481.78 1225.98 481.924V287.215C1226.85 285.237 1227.71 283.332 1228.51 281.57Z" fill="#E67575" fill-opacity="0.39"/>
<path d="M1221.28 297.82V482.643C1220.45 482.751 1219.62 482.895 1218.75 483.003V303.501C1219.62 301.559 1220.49 299.654 1221.28 297.82Z" fill="#E67575" fill-opacity="0.39"/>
<path d="M1214.06 313.854V483.614C1213.23 483.722 1212.39 483.83 1211.53 483.902V319.355C1212.36 317.557 1213.19 315.724 1214.06 313.854Z" fill="#E67575" fill-opacity="0.39"/>
<path d="M1206.83 329.529V484.405C1206 484.477 1205.17 484.585 1204.3 484.657V334.993C1205.13 333.196 1205.96 331.398 1206.83 329.529Z" fill="#E67575" fill-opacity="0.39"/>
<path d="M1199.6 344.988V485.088C1198.88 485.16 1198.16 485.196 1197.44 485.268C1197.33 485.268 1197.18 485.304 1197.08 485.304V350.308C1197.91 348.547 1198.74 346.785 1199.6 344.988Z" fill="#E67575" fill-opacity="0.39"/>
<path d="M1192.38 359.907V485.663C1191.51 485.735 1190.68 485.771 1189.85 485.843V364.94C1190.68 363.323 1191.51 361.633 1192.38 359.907Z" fill="#E67575" fill-opacity="0.39"/>
<path d="M1185.15 373.928V486.166C1184.32 486.202 1183.45 486.274 1182.62 486.31V378.494C1183.45 377.02 1184.28 375.51 1185.15 373.928Z" fill="#E67575" fill-opacity="0.39"/>
<path d="M1177.93 386.475V486.562C1177.09 486.598 1176.23 486.634 1175.4 486.67V390.429C1176.23 389.171 1177.09 387.841 1177.93 386.475Z" fill="#E67575" fill-opacity="0.39"/>
<path d="M1170.7 397.044V486.885C1169.87 486.921 1169.04 486.957 1168.17 486.993V400.208C1169 399.201 1169.87 398.159 1170.7 397.044Z" fill="#E67575" fill-opacity="0.39"/>
<path d="M1163.47 405.313V487.173C1162.64 487.209 1161.81 487.209 1160.94 487.245V407.614C1161.81 406.895 1162.64 406.104 1163.47 405.313Z" fill="#E67575" fill-opacity="0.39"/>
<path d="M1156.25 411.137V487.389C1155.88 487.389 1155.52 487.425 1155.16 487.425C1154.69 487.425 1154.19 487.461 1153.72 487.461V412.647C1154.58 412.18 1155.41 411.676 1156.25 411.137Z" fill="#E67575" fill-opacity="0.39"/>
<path d="M1149.02 414.876V487.604C1148.15 487.64 1147.32 487.64 1146.49 487.676V416.026C1147.32 415.631 1148.15 415.271 1149.02 414.876Z" fill="#E67575" fill-opacity="0.39"/>
<path d="M1141.79 418.076V487.784C1140.93 487.82 1140.09 487.82 1139.26 487.856V419.19C1140.09 418.795 1140.93 418.435 1141.79 418.076Z" fill="#E67575" fill-opacity="0.39"/>
<path d="M1134.57 421.06V487.892C1133.7 487.892 1132.87 487.928 1132.04 487.928V422.066C1132.87 421.743 1133.7 421.419 1134.57 421.06Z" fill="#E67575" fill-opacity="0.39"/>
<path d="M1127.34 423.9V488C1126.47 488 1125.64 488 1124.81 488V424.834C1125.64 424.547 1126.47 424.223 1127.34 423.9Z" fill="#E67575" fill-opacity="0.39"/>
<path d="M1120.11 426.524V487.964C1119.25 487.964 1118.42 487.928 1117.58 487.928V427.387C1118.42 427.135 1119.25 426.812 1120.11 426.524Z" fill="#E67575" fill-opacity="0.39"/>
<path d="M1112.89 428.969V487.82C1112.02 487.784 1111.19 487.748 1110.36 487.712V429.76C1111.15 429.508 1112.02 429.22 1112.89 428.969Z" fill="#E67575" fill-opacity="0.39"/>
<path d="M1105.66 431.162V487.425C1104.79 487.353 1103.96 487.281 1103.13 487.209V431.881C1103.89 431.665 1104.76 431.413 1105.66 431.162Z" fill="#E67575" fill-opacity="0.39"/>
<path d="M1098.43 433.067V486.67C1097.57 486.562 1096.74 486.418 1095.91 486.274V433.642C1096.16 433.606 1096.41 433.535 1096.63 433.499C1096.63 433.499 1097.24 433.355 1098.43 433.067Z" fill="#E67575" fill-opacity="0.39"/>
<path d="M1091.21 434.685V485.304C1090.34 485.088 1089.51 484.836 1088.68 484.621V435.368C1089.55 435.08 1090.41 434.865 1091.21 434.685Z" fill="#E67575" fill-opacity="0.39"/>
<path d="M1083.98 436.95V482.895C1083.11 482.536 1082.28 482.14 1081.45 481.709V438.028C1082.28 437.633 1083.15 437.274 1083.98 436.95Z" fill="#E67575" fill-opacity="0.39"/>
<path d="M1076.76 440.689V478.904C1075.85 478.293 1074.99 477.682 1074.23 477.071V442.63C1075.06 441.911 1075.89 441.3 1076.76 440.689Z" fill="#E67575" fill-opacity="0.39"/>
<path d="M1069.53 447.627V472.613C1068.45 471.355 1067.65 470.204 1067 469.126V451.726C1067.94 449.892 1068.91 448.49 1069.53 447.627Z" fill="#E67575" fill-opacity="0.39"/>
<path d="M1274.67 330.944C1279.44 301.713 1295.08 293.408 1308 291.497V409.869C1288.95 388.451 1270.18 358.523 1274.67 330.944Z" fill="#CCF4FE"/>
<path d="M-7.8 190.401C22.6 173.301 57.6 165.301 91.6 167.301C105.6 168.301 120.6 170.301 134.6 173.301C159.6 180.301 181.6 191.301 199.6 209.301C215.6 226.301 224.6 247.301 228.6 270.301C234.6 307.301 224.6 342.301 203.6 374.301C201.6 376.301 200.6 378.301 198.6 381.301C148.6 443.301 58.6 451.301 -8 418.001" stroke="#999999" stroke-miterlimit="10" stroke-dasharray="12 12"/>
<path fill-rule="evenodd" clip-rule="evenodd" d="M130.666 46.6655C132.372 44.9588 134.687 44 137.101 44C139.514 44 141.829 44.9588 143.536 46.6655C145.242 48.3721 146.201 50.6869 146.201 53.1005C146.201 55.5141 145.242 57.8288 143.536 59.5355L137.101 65.9705L130.666 59.5355C129.821 58.6904 129.15 57.6872 128.693 56.5831C128.235 55.479 128 54.2956 128 53.1005C128 51.9054 128.235 50.722 128.693 49.6178C129.15 48.5137 129.821 47.5105 130.666 46.6655V46.6655ZM137.101 55.7005C137.79 55.7005 138.452 55.4265 138.939 54.9389C139.427 54.4513 139.701 53.79 139.701 53.1005C139.701 52.4109 139.427 51.7496 138.939 51.262C138.452 50.7744 137.79 50.5005 137.101 50.5005C136.411 50.5005 135.75 50.7744 135.262 51.262C134.775 51.7496 134.501 52.4109 134.501 53.1005C134.501 53.79 134.775 54.4513 135.262 54.9389C135.75 55.4265 136.411 55.7005 137.101 55.7005Z" fill="#CAF2FE"/>
<path d="M1247 103L1257 113" stroke="#CAF2FE" stroke-width="3" stroke-linecap="round"/>
<path d="M1257 103L1247 113" stroke="#CAF2FE" stroke-width="3" stroke-linecap="round"/>
<path d="M213.295 99L207 126.891H219.511L213.295 99Z" fill="#FED79F"/>
<path d="M213.455 109.758H213.056V126.891H213.455V109.758Z" fill="#1A1A1A"/>
<path d="M216.281 120.514L213.156 124.238L213.461 124.494L216.586 120.771L216.281 120.514Z" fill="#1A1A1A"/>
<path d="M210.259 118.976L209.977 119.258L213.077 122.357L213.359 122.075L210.259 118.976Z" fill="#1A1A1A"/>
<path d="M214.721 114.317L213.158 115.796L213.432 116.086L214.995 114.607L214.721 114.317Z" fill="#1A1A1A"/>
<path d="M228.813 120L225 136.891H232.577L228.813 120Z" fill="#16DD9A"/>
<path d="M228.909 126.515H228.668V136.891H228.909V126.515Z" fill="#1A1A1A"/>
<path d="M230.621 133.029L228.728 135.284L228.913 135.44L230.806 133.185L230.621 133.029Z" fill="#1A1A1A"/>
<path d="M226.974 132.098L226.803 132.269L228.68 134.145L228.851 133.975L226.974 132.098Z" fill="#1A1A1A"/>
<path d="M229.676 129.276L228.729 130.172L228.895 130.347L229.842 129.452L229.676 129.276Z" fill="#1A1A1A"/>
<path d="M195.135 115L192 128.891H198.231L195.135 115Z" fill="#CCF4FE"/>
<path d="M195.215 120.358H195.016V128.891H195.215V120.358Z" fill="#1A1A1A"/>
<path d="M196.623 125.715L195.066 127.57L195.218 127.697L196.775 125.843L196.623 125.715Z" fill="#1A1A1A"/>
<path d="M193.623 124.949L193.483 125.09L195.027 126.633L195.167 126.493L193.623 124.949Z" fill="#1A1A1A"/>
<path d="M195.846 122.629L195.067 123.365L195.204 123.51L195.982 122.773L195.846 122.629Z" fill="#1A1A1A"/>
<path d="M269.299 108.505H282.759C282.993 108.505 283.228 108.68 283.228 108.943V109.423C283.228 109.642 283.04 109.861 282.759 109.861H269.299C269.064 109.861 268.83 109.686 268.83 109.423V108.943C268.83 108.68 269.064 108.505 269.299 108.505Z" fill="#263238"/>
<path d="M282.665 124.943H283.228L282.571 109.861H281.727L282.665 124.943Z" fill="#407BFF"/>
<path opacity="0.6" d="M282.665 124.943H283.228L282.571 109.861H281.727L282.665 124.943Z" fill="#8C6239"/>
<path d="M277.225 124.943H276.615L277.318 109.861H278.116L277.225 124.943Z" fill="#407BFF"/>
<path opacity="0.6" d="M277.225 124.943H276.615L277.318 109.861H278.116L277.225 124.943Z" fill="#8C6239"/>
<path d="M274.88 124.943H275.442L274.786 109.861H273.942L274.88 124.943Z" fill="#407BFF"/>
<path opacity="0.6" d="M274.88 124.943H275.442L274.786 109.861H273.942L274.88 124.943Z" fill="#8C6239"/>
<path d="M269.439 124.943H268.83L269.533 109.861H270.33L269.439 124.943Z" fill="#407BFF"/>
<path opacity="0.6" d="M269.439 124.943H268.83L269.533 109.861H270.33L269.439 124.943Z" fill="#8C6239"/>
<g opacity="0.3">
<path opacity="0.3" d="M282.571 109.861H281.727L281.774 110.516H282.571V109.861Z" fill="#407BFF"/>
<path opacity="0.3" d="M277.272 110.516H278.069L278.116 109.861H277.319L277.272 110.516Z" fill="#407BFF"/>
<path opacity="0.3" d="M273.942 109.861L273.989 110.516H274.833L274.786 109.861H273.942Z" fill="#407BFF"/>
<path opacity="0.3" d="M269.486 110.516H270.284L270.33 109.861H269.533L269.486 110.516Z" fill="#407BFF"/>
</g>
<path d="M274.505 122.757L273.144 123.413L271.034 120.746L272.394 120.091L274.505 122.757Z" fill="#FFB573"/>
<path d="M272.675 122.976L274.082 122.058C274.129 122.014 274.176 122.014 274.223 122.058L275.067 123.063C275.161 123.194 275.114 123.326 275.02 123.413C274.551 123.719 274.317 123.807 273.66 124.2C273.285 124.419 272.3 124.943 271.737 125.162C271.175 125.38 270.94 124.856 271.128 124.725C271.644 124.375 272.347 123.675 272.535 123.194C272.535 123.107 272.582 123.063 272.675 122.976Z" fill="#263238"/>
<path opacity="0.2" d="M272.394 120.091L271.034 120.746L272.066 122.014L273.379 121.315L272.394 120.091Z" fill="black"/>
<path d="M275.63 104.396C275.63 104.396 265.265 104.09 265.218 108.156C265.171 113.97 271.081 121.577 271.081 121.577L273.379 120.134C273.379 120.134 269.346 114.582 269.299 110.079C272.347 109.292 279.57 109.773 280.508 107.412C281.258 105.489 280.883 104.396 280.883 104.396H275.63Z" fill="#407BFF"/>
<path d="M275.63 104.396C275.63 104.396 265.265 104.09 265.218 108.156C265.171 113.97 271.081 121.577 271.081 121.577L273.379 120.134C273.379 120.134 269.346 114.582 269.299 110.079C272.347 109.292 279.57 109.773 280.508 107.412C281.258 105.489 280.883 104.396 280.883 104.396H275.63Z" fill="black"/>
<path d="M273.988 120.484L271.268 122.058L270.377 121.271L273.426 119.478L273.988 120.484Z" fill="#263238"/>
<path d="M272.394 123.457C272.488 123.369 272.582 123.282 272.675 123.194V123.151C272.675 123.151 272.675 123.151 272.629 123.151C272.582 123.151 272.066 123.151 271.925 123.326C271.878 123.369 271.878 123.413 271.925 123.457C271.925 123.5 272.019 123.544 272.066 123.588C272.206 123.588 272.3 123.544 272.394 123.457ZM272.582 123.238C272.394 123.413 272.206 123.5 272.113 123.5C272.066 123.5 272.019 123.457 272.019 123.413V123.369C272.066 123.282 272.347 123.238 272.582 123.238Z" fill="#407BFF"/>
<path d="M272.675 123.238V123.194C272.675 123.194 272.441 122.845 272.253 122.801C272.206 122.801 272.16 122.801 272.113 122.845C272.066 122.888 272.066 122.932 272.066 122.976C272.113 123.107 272.488 123.238 272.675 123.238ZM272.16 122.845C272.16 122.845 272.206 122.801 272.253 122.845C272.394 122.845 272.535 123.063 272.629 123.151C272.441 123.151 272.206 123.02 272.16 122.932C272.113 122.932 272.113 122.888 272.16 122.845C272.16 122.888 272.16 122.888 272.16 122.845Z" fill="#407BFF"/>
<path d="M272.019 124.375L270.518 124.287L270.283 121.009L271.784 121.052L272.019 124.375Z" fill="#FFB573"/>
<path d="M270.471 124.069L272.16 124.025C272.206 124.025 272.253 124.069 272.253 124.112L272.394 125.38C272.394 125.511 272.3 125.643 272.16 125.643C271.55 125.643 271.268 125.643 270.518 125.643C270.049 125.643 269.158 125.73 268.548 125.643C267.939 125.555 268.032 124.987 268.267 124.987C268.923 124.943 269.768 124.506 270.19 124.2C270.284 124.069 270.377 124.069 270.471 124.069Z" fill="#263238"/>
<path d="M269.955 124.331C270.096 124.331 270.237 124.287 270.377 124.287L270.424 124.244C270.377 124.2 269.955 123.938 269.768 124.025C269.721 124.025 269.674 124.069 269.674 124.113C269.674 124.156 269.674 124.244 269.721 124.287C269.768 124.287 269.861 124.331 269.955 124.331ZM270.284 124.2C270.002 124.244 269.815 124.244 269.721 124.2C269.674 124.156 269.674 124.113 269.674 124.069C269.674 124.069 269.674 124.025 269.721 124.025C269.815 123.981 270.096 124.113 270.284 124.2Z" fill="#407BFF"/>
<path d="M270.33 124.244C270.377 124.244 270.377 124.244 270.33 124.244C270.377 124.244 270.377 124.244 270.33 124.244C270.377 124.2 270.377 123.806 270.237 123.675C270.19 123.632 270.143 123.632 270.096 123.632C270.049 123.632 270.002 123.675 269.955 123.719C269.955 123.894 270.19 124.156 270.33 124.244ZM270.143 123.675C270.19 123.675 270.19 123.675 270.237 123.719C270.33 123.806 270.33 124.025 270.33 124.156C270.19 124.069 270.049 123.85 270.049 123.719C270.049 123.719 270.049 123.675 270.143 123.675Z" fill="#407BFF"/>
<path opacity="0.2" d="M271.784 121.052L270.283 121.009L270.424 122.888H271.925L271.784 121.052Z" fill="black"/>
<path d="M279.288 104.396C279.288 104.396 268.454 105.358 268.83 108.418C269.392 112.79 269.674 122.276 269.674 122.276L272.441 122.364C272.441 122.364 273.613 113.839 273.004 109.336C275.818 109.336 282.665 109.511 283.322 107.937C283.885 106.538 283.697 104.396 283.697 104.396H279.288Z" fill="black"/>
<path d="M272.769 122.539L269.439 122.364L269.345 121.009L272.957 121.271L272.769 122.539Z" fill="#263238"/>
<path d="M276.896 95.4776C276.896 95.7399 276.849 95.9585 276.803 96.1771C276.756 96.3957 276.756 96.6143 276.709 96.8329C276.615 97.27 276.521 97.7072 276.427 98.1881C276.193 99.1062 275.865 100.024 275.396 100.855C275.255 101.073 275.114 101.336 274.927 101.511C274.739 101.729 274.458 101.948 274.223 102.123C273.707 102.429 273.097 102.647 272.488 102.691C271.925 102.735 271.409 102.691 270.846 102.56C270.612 102.516 270.33 102.429 270.096 102.341C269.955 102.298 269.861 102.254 269.721 102.21C269.58 102.166 269.486 102.123 269.345 102.035L269.768 101.03L270.049 101.073L270.377 101.117C270.612 101.117 270.799 101.161 270.987 101.161C271.362 101.161 271.737 101.117 272.113 101.03C272.394 100.942 272.675 100.811 272.91 100.636C273.004 100.549 273.097 100.461 273.191 100.33C273.285 100.199 273.379 100.068 273.426 99.8931C273.613 99.5433 273.707 99.1936 273.848 98.8439C273.989 98.4504 274.082 98.1007 274.129 97.6635C274.223 97.27 274.27 96.8766 274.364 96.4394L274.458 95.8274C274.504 95.6088 274.504 95.4339 274.551 95.259L276.896 95.4776Z" fill="#FFB573"/>
<path d="M276.896 94.2972C275.771 93.2917 274.411 93.9038 273.895 95.7836C273.566 96.7891 273.379 97.7946 273.285 98.8438L276.803 99.4996C277.412 97.7072 278.022 95.3027 276.896 94.2972Z" fill="#F15A24"/>
<path opacity="0.3" d="M275.771 96.3083C276.005 96.0897 276.756 97.0515 277.178 98.1882C277.037 98.6253 276.896 99.0625 276.756 99.456L274.645 99.0625C274.833 97.9258 275.208 96.7892 275.771 96.3083Z" fill="black"/>
<path d="M269.58 100.593L268.783 100.33L268.736 101.904C268.736 101.904 270.049 102.429 270.33 101.817L270.237 101.423C270.143 101.03 269.908 100.767 269.58 100.593Z" fill="#FFB573"/>
<path d="M267.845 100.33L267.376 101.642L268.736 101.86L268.783 100.286L267.845 100.33Z" fill="#FFB573"/>
<path d="M269.017 101.38C268.97 101.38 268.97 101.38 268.923 101.336L267.516 98.8002C267.516 98.7565 267.516 98.7128 267.563 98.6691C267.61 98.6691 267.657 98.6691 267.704 98.7128L269.111 101.248C269.158 101.292 269.111 101.336 269.017 101.38C269.064 101.38 269.064 101.38 269.017 101.38Z" fill="#263238"/>
<path d="M276.756 93.2917L278.444 92.8545L280.601 92.7671C281.258 92.7234 281.868 93.1168 282.102 93.7289C282.524 94.9093 282.9 96.6142 283.181 98.0569C283.509 99.7182 283.65 102.166 283.697 104.44H275.63C275.442 99.7619 274.786 97.0077 274.504 95.4339C274.411 94.8218 274.739 94.2098 275.349 93.9475L276.756 93.2917Z" fill="#F15A24"/>
<path opacity="0.3" d="M283.181 98.0568C282.947 96.9202 282.665 95.6087 282.384 94.5157C280.93 94.2971 280.226 97.2262 280.695 98.7126C281.164 100.199 283.416 99.2809 283.416 99.2809C283.322 98.8438 283.275 98.4066 283.181 98.0568Z" fill="black"/>
<path d="M277.787 90.2751L277.131 91.1932L276.24 92.461C276.334 92.5485 276.427 92.6796 276.521 92.8545C276.662 93.1605 276.803 93.3791 276.146 93.8163C276.005 93.9037 275.911 94.0786 275.958 94.2534C276.005 94.472 276.193 94.6469 276.943 94.5157C277.647 94.3846 278.303 94.0348 278.819 93.554C279.054 93.3354 279.007 93.1605 278.772 92.8982C278.069 92.2424 277.834 91.1495 277.787 90.2751Z" fill="#FFB573"/>
<path opacity="0.2" d="M276.474 92.1551L277.037 91.2371C277.037 91.2808 277.084 91.2808 277.084 91.3245C277.131 91.4556 277.178 91.5431 277.178 91.6742C277.272 92.0677 276.943 92.636 276.568 92.942L276.521 92.8546C276.474 92.7235 276.381 92.5923 276.287 92.5049L276.474 92.1551Z" fill="black"/>
<path d="M277.506 88.6141C277.834 89.9256 278.069 90.7125 277.553 91.5432C276.803 92.811 274.88 92.6361 274.129 91.412C273.473 90.3191 273.097 88.3081 274.317 87.4337C275.208 86.8217 276.474 86.9966 277.178 87.8272C277.318 88.0895 277.459 88.3518 277.506 88.6141Z" fill="#FFB573"/>
<path d="M281.821 93.7289C281.962 93.9475 282.102 94.1661 282.243 94.4284C282.384 94.6469 282.477 94.8655 282.618 95.1278C282.853 95.565 283.087 96.0459 283.322 96.5268C283.556 97.0077 283.744 97.4886 283.884 98.0132C284.072 98.5378 284.166 99.1061 284.26 99.6745C284.307 100.024 284.26 100.33 284.213 100.68C284.166 100.899 284.119 101.117 284.025 101.292C283.884 101.511 283.744 101.729 283.556 101.86C283.369 101.991 283.181 102.123 282.946 102.21C282.759 102.297 282.571 102.341 282.384 102.341C282.055 102.385 281.727 102.385 281.352 102.385C281.07 102.341 280.742 102.297 280.461 102.254C280.179 102.21 279.898 102.123 279.617 102.035C279.101 101.86 278.538 101.685 278.069 101.423L278.491 100.418C279.476 100.593 280.508 100.767 281.399 100.68C281.586 100.68 281.774 100.636 281.962 100.593C282.102 100.549 282.196 100.461 282.196 100.461C282.196 100.461 282.196 100.461 282.196 100.374C282.196 100.199 282.196 100.024 282.149 99.893C282.055 99.4559 281.962 99.0624 281.774 98.6689C281.633 98.2318 281.446 97.7946 281.211 97.4011C281.024 96.964 280.789 96.5268 280.555 96.1333C280.461 95.9148 280.32 95.6962 280.179 95.5213L279.804 94.9093L281.821 93.7289Z" fill="#FFB573"/>
<path d="M281.117 92.7672C279.617 92.5486 278.866 93.7727 279.57 95.6088C279.945 96.6143 280.414 97.5323 280.977 98.4504L284.26 97.0952C283.65 95.259 282.665 92.9857 281.117 92.7672Z" fill="#F15A24"/>
<path d="M277.6 100.287L276.896 100.505L277.881 101.817C277.881 101.817 279.382 101.336 279.054 100.724L278.679 100.505C278.397 100.33 277.975 100.155 277.6 100.287Z" fill="#FFB573"/>
<path d="M276.287 101.379L276.99 102.035L277.881 101.773L276.896 100.461L276.287 101.379Z" fill="#FFB573"/>
<path d="M281.399 101.248H283.181C283.228 101.248 283.275 101.292 283.275 101.336V101.467C283.275 101.511 283.228 101.554 283.181 101.554H281.399C281.352 101.554 281.305 101.511 281.305 101.467V101.336C281.305 101.292 281.352 101.248 281.399 101.248Z" fill="white"/>
<path d="M277.741 91.1496C277.741 91.1496 278.866 89.7944 278.679 88.92C278.491 88.0457 277.272 88.308 277.272 88.308C278.444 88.7014 278.632 89.0075 278.679 88.92C278.726 88.8326 278.632 88.2643 278.35 87.7396C277.788 86.7779 277.881 86.8653 277.881 86.8653C277.741 86.7341 277.365 86.603 277.272 86.5593C276.803 86.4281 277.084 86.1658 276.615 85.8598C276.24 85.6412 276.005 85.991 275.255 85.9472C274.317 85.9035 274.645 85.3789 273.52 85.6412C273.191 85.7286 273.285 86.1658 272.91 86.3844C272.629 86.5156 272.488 86.3844 272.3 86.5156C271.925 86.7779 271.831 87.6522 272.3 88.1331C272.722 88.5703 273.473 88.4828 273.895 88.4391C275.208 88.2643 275.771 87.4336 276.568 87.6959C276.803 87.7834 276.943 87.9145 277.037 88.002" fill="#263238"/>
<path d="M278.397 89.6195C278.397 89.9255 278.303 90.2315 278.116 90.4501C277.834 90.7561 277.412 90.4938 277.319 90.1441C277.225 89.7943 277.365 89.2697 277.694 89.1386C278.022 88.9637 278.35 89.226 278.397 89.6195Z" fill="#FFB573"/>
<path d="M294.437 102.516H250.726C250.445 102.516 250.21 102.298 250.21 102.035C250.21 101.773 250.445 101.554 250.726 101.554H294.437C294.719 101.554 294.953 101.773 294.953 102.035C295 102.298 294.765 102.516 294.437 102.516Z" fill="#8C6239"/>
<path opacity="0.3" d="M294.437 102.516H284.213C283.932 102.516 283.697 102.298 283.697 102.035C283.697 101.773 283.932 101.554 284.213 101.554H294.437C294.719 101.554 294.953 101.773 294.953 102.035C295 102.298 294.766 102.516 294.437 102.516Z" fill="#263238"/>
<path d="M293.968 125.599H295L293.828 102.516H292.421L293.968 125.599Z" fill="#263238"/>
<path opacity="0.1" d="M293.968 125.599H295L293.828 102.516H292.421L293.968 125.599Z" fill="white"/>
<path d="M284.682 125.599H283.697L284.87 102.516H286.23L284.682 125.599Z" fill="#263238"/>
<path opacity="0.2" d="M284.682 125.599H283.697L284.87 102.516H286.23L284.682 125.599Z" fill="white"/>
<path d="M260.482 125.599H261.466L260.341 102.516H258.934L260.482 125.599Z" fill="#263238"/>
<path opacity="0.1" d="M260.482 125.599H261.466L260.341 102.516H258.934L260.482 125.599Z" fill="white"/>
<path d="M251.195 125.599H250.164L251.336 102.516H252.743L251.195 125.599Z" fill="#263238"/>
<path opacity="0.2" d="M251.195 125.599H250.164L251.336 102.516H252.743L251.195 125.599Z" fill="white"/>
<path d="M285.245 103.74H251.618V105.664H285.245V103.74Z" fill="#263238"/>
<path opacity="0.2" d="M285.245 103.74H251.618V105.664H285.245V103.74Z" fill="white"/>
<path d="M257.152 100.243C257.011 100.243 256.917 100.33 256.917 100.461V101.336C256.917 101.467 257.011 101.554 257.152 101.554H264.327C264.374 101.554 264.421 101.51 264.421 101.467V100.286C264.421 100.243 264.374 100.199 264.327 100.199L257.152 100.243Z" fill="#009245"/>
<path opacity="0.9" d="M261.42 100.374H264.421V101.423H261.42C261.326 101.423 261.279 101.379 261.279 101.292V100.505C261.279 100.417 261.326 100.374 261.42 100.374Z" fill="white"/>
<path d="M253.681 100.243H260.904C261.044 100.243 261.138 100.33 261.138 100.461V101.336C261.138 101.467 261.044 101.554 260.904 101.554H253.681C253.54 101.554 253.447 101.467 253.447 101.336V100.461C253.447 100.33 253.587 100.243 253.681 100.243Z" fill="#407BFF"/>
<path d="M253.681 100.243H260.904C261.044 100.243 261.138 100.33 261.138 100.461V101.336C261.138 101.467 261.044 101.554 260.904 101.554H253.681C253.54 101.554 253.447 101.467 253.447 101.336V100.461C253.447 100.33 253.587 100.243 253.681 100.243Z" fill="#009245"/>
<path opacity="0.5" d="M256.261 100.243H257.339C257.386 100.243 257.433 100.286 257.433 100.33V101.467C257.433 101.51 257.386 101.554 257.339 101.554H256.261C256.214 101.554 256.167 101.51 256.167 101.467V100.33C256.167 100.286 256.214 100.243 256.261 100.243Z" fill="#006837"/>
<path opacity="0.5" d="M257.855 100.243H258.934C258.981 100.243 259.028 100.286 259.028 100.33V101.467C259.028 101.51 258.981 101.554 258.934 101.554H257.855C257.808 101.554 257.761 101.51 257.761 101.467V100.33C257.761 100.286 257.808 100.243 257.855 100.243Z" fill="#006837"/>
<path d="M255.885 98.6251C255.745 98.6251 255.651 98.7126 255.651 98.8437V100.024C255.651 100.155 255.745 100.243 255.885 100.243H263.624C263.671 100.243 263.718 100.199 263.718 100.155V98.6689C263.718 98.6251 263.671 98.5814 263.624 98.5814L255.885 98.6251Z" fill="#C1272D"/>
<path opacity="0.9" d="M260.106 98.7563H263.671V100.112H260.106C260.013 100.112 259.966 100.068 259.966 99.9804V98.8875C260.013 98.8438 260.059 98.7563 260.106 98.7563Z" fill="white"/>
<path d="M253.54 98.6252H259.637C259.778 98.6252 259.872 98.7127 259.872 98.8438V100.024C259.872 100.155 259.778 100.243 259.637 100.243H253.54C253.4 100.243 253.306 100.155 253.306 100.024V98.8438C253.306 98.7564 253.4 98.6252 253.54 98.6252Z" fill="#C1272D"/>
<path opacity="0.6" d="M254.619 98.9749H259.075C259.168 98.9749 259.215 99.0186 259.215 99.106V99.8055C259.215 99.8929 259.168 99.9366 259.075 99.9366H254.619C254.525 99.9366 254.478 99.8929 254.478 99.8055V99.106C254.478 99.0186 254.525 98.9749 254.619 98.9749Z" fill="#C69C6D"/>
<path d="M258.137 97.882C257.996 97.882 257.902 97.9257 257.902 98.0131V98.5377C257.902 98.6252 257.996 98.6689 258.137 98.6689H265.312C265.359 98.6689 265.406 98.6689 265.406 98.6252V97.9257C265.359 97.882 265.359 97.882 265.312 97.882H258.137Z" fill="#407BFF"/>
<path opacity="0.9" d="M262.358 97.9695H265.359V98.5815H262.358C262.311 98.5815 262.264 98.5378 262.264 98.4941V98.0569C262.264 97.9695 262.311 97.9695 262.358 97.9695Z" fill="white"/>
<path d="M254.619 97.882H261.936C262.029 97.882 262.123 97.9694 262.123 98.0568V98.494C262.123 98.5814 262.029 98.6689 261.936 98.6689H254.619C254.525 98.6689 254.432 98.5814 254.432 98.494V98.0568C254.432 97.9257 254.525 97.882 254.619 97.882Z" fill="#407BFF"/>
<path opacity="0.2" d="M254.619 97.882H261.936C262.029 97.882 262.123 97.9694 262.123 98.0568V98.494C262.123 98.5814 262.029 98.6689 261.936 98.6689H254.619C254.525 98.6689 254.432 98.5814 254.432 98.494V98.0568C254.432 97.9257 254.525 97.882 254.619 97.882Z" fill="black"/>
<path opacity="0.5" d="M255.323 97.882H255.557C255.557 97.882 255.604 97.882 255.604 97.9257V98.6252C255.604 98.6252 255.604 98.6689 255.557 98.6689H255.323C255.323 98.6689 255.276 98.6689 255.276 98.6252L255.323 97.882C255.276 97.882 255.276 97.882 255.323 97.882Z" fill="#407BFF"/>
<path opacity="0.5" d="M261.279 97.882H261.513C261.513 97.882 261.56 97.882 261.56 97.9257V98.6252C261.56 98.6252 261.56 98.6689 261.513 98.6689H261.279C261.279 98.6689 261.232 98.6689 261.232 98.6252L261.279 97.882C261.232 97.882 261.232 97.882 261.279 97.882Z" fill="#407BFF"/>
<path d="M256.87 96.7891C256.73 96.7891 256.636 96.8328 256.636 96.9202V97.7946C256.636 97.882 256.73 97.9257 256.87 97.9257H264.609C264.656 97.9257 264.703 97.9257 264.703 97.882V96.8328C264.703 96.7891 264.656 96.7891 264.609 96.7891H256.87V96.7891Z" fill="#4D4D4D"/>
<path opacity="0.9" d="M261.044 96.8328H264.656V97.7945H261.044C260.997 97.7945 260.951 97.7508 260.951 97.7071V96.9202C260.951 96.8765 260.997 96.8328 261.044 96.8328Z" fill="white"/>
<path d="M254.478 96.7891H260.669C260.763 96.7891 260.857 96.8765 260.857 96.9639V97.7508C260.857 97.8383 260.763 97.9257 260.669 97.9257H254.478C254.385 97.9257 254.291 97.8383 254.291 97.7508V96.9639C254.291 96.8328 254.385 96.7891 254.478 96.7891Z" fill="#808080"/>
<path d="M274.13 101.292H267.657C267.564 101.292 267.517 101.336 267.517 101.423C267.517 101.511 267.564 101.554 267.657 101.554H274.176C274.27 101.554 274.317 101.511 274.317 101.423C274.27 101.336 274.223 101.292 274.13 101.292Z" fill="white"/>
<path d="M286.886 101.03H291.154L291.576 101.554H286.511L286.886 101.03Z" fill="#263238"/>
<path d="M293.499 92.1113C293.499 92.4173 293.265 92.6359 292.936 92.6359C292.608 92.6359 292.374 92.4173 292.374 92.1113C292.374 91.8053 292.608 91.5867 292.936 91.5867C293.218 91.543 293.499 91.8053 293.499 92.1113Z" fill="black"/>
<path d="M289.184 101.379C289.091 101.379 288.997 101.292 288.997 101.205C288.997 101.161 288.997 101.161 288.997 101.161L293.124 92.0676C293.171 91.9802 293.265 91.9364 293.359 91.9802C293.452 92.0239 293.452 92.1113 293.452 92.1988L289.325 101.292C289.325 101.336 289.231 101.379 289.184 101.379Z" fill="#263238"/>
<path d="M293.312 92.2861C293.265 92.2861 293.218 92.2861 293.218 92.2424L285.714 86.9963C285.62 86.9526 285.62 86.8215 285.667 86.7778C285.714 86.6903 285.855 86.6903 285.901 86.734L293.405 91.9801C293.499 92.0238 293.499 92.155 293.452 92.1987C293.405 92.2424 293.359 92.2861 293.312 92.2861Z" fill="#263238"/>
<path d="M293.874 92.1113C293.874 92.4173 293.64 92.6359 293.312 92.6359C292.983 92.6359 292.749 92.4173 292.749 92.1113C292.749 91.8053 292.983 91.5867 293.312 91.5867C293.593 91.543 293.874 91.8053 293.874 92.1113Z" fill="#263238"/>
<path d="M285.808 87.3897C286.118 87.3897 286.37 87.1548 286.37 86.8651C286.37 86.5753 286.118 86.3405 285.808 86.3405C285.497 86.3405 285.245 86.5753 285.245 86.8651C285.245 87.1548 285.497 87.3897 285.808 87.3897Z" fill="#263238"/>
<path d="M285.01 89.3134C284.494 89.7943 283.697 89.7943 283.181 89.3134C282.665 88.8326 282.665 88.0894 283.181 87.6085C283.697 87.1276 284.494 87.1276 285.01 87.6085C285.479 88.0894 285.479 88.8326 285.01 89.3134Z" fill="#407BFF"/>
<path opacity="0.7" d="M285.01 89.3134C284.494 89.7943 283.697 89.7943 283.181 89.3134C282.665 88.8326 282.665 88.0894 283.181 87.6085C283.697 87.1276 284.494 87.1276 285.01 87.6085C285.479 88.0894 285.479 88.8326 285.01 89.3134Z" fill="white"/>
<path d="M285.808 86.8652C284.729 85.8597 282.994 85.8597 281.915 86.8652L285.808 90.4938C286.886 89.4883 286.886 87.8707 285.808 86.8652Z" fill="#263238"/>
<g opacity="0.2">
<path opacity="0.2" d="M281.915 86.7341L265.5 101.423H282.337L285.808 90.4064L281.915 86.7341Z" fill="#407BFF"/>
<path opacity="0.7" d="M281.915 86.9089L265.5 101.554H282.337L285.808 90.5375L281.915 86.9089Z" fill="#FFFF00"/>
</g>
<path fill-rule="evenodd" clip-rule="evenodd" d="M237.118 91L231 113H243L237.118 91Z" fill="#F7931E"/>
<path d="M236.72 112.495L237.272 95.7013L237.641 112.495H236.72Z" fill="black"/>
<path d="M237.119 109.119L240.649 107.889L237.457 109.777L237.119 109.119Z" fill="black"/>
<path d="M236.935 106.859L234.326 104.198L237.457 106.287L236.935 106.859Z" fill="black"/>
<path d="M237.027 102.854L239.145 100.565L237.364 103.083L237.027 102.854Z" fill="black"/>
<path d="M144.518 271.275H132.461V278.967H144.518V271.275Z" fill="#1D61DA"/>
<path d="M84.6004 268.581H72.5435V276.273H84.6004V268.581Z" fill="#1D61DA"/>
<path d="M61.3237 317.525C61.2845 318.078 61.2231 318.697 61.1282 319.347L62.8422 317.451L62.8516 317.482C62.7468 317.026 62.578 316.587 62.3503 316.177L62.3612 316.207L61.3237 317.525Z" fill="#1D61DA"/>
<path d="M61.3304 317.427L62.3355 316.152C62.1217 315.762 61.8124 315.434 61.4366 315.196C61.4181 315.185 61.3996 315.175 61.3811 315.165C61.3866 315.315 61.4129 316.2 61.3304 317.427Z" fill="#1D61DA"/>
<path d="M60.4237 322.429C60.3795 322.564 60.3339 322.695 60.2869 322.825L62.8111 321.348L62.8146 321.385C62.8673 321.156 62.9113 320.926 62.9464 320.697L60.426 322.446L60.4237 322.429Z" fill="#1D61DA"/>
<path d="M60.7747 321.19L63.0481 319.32L63.0545 319.355C63.0625 318.737 62.9971 318.12 62.8596 317.516L61.1129 319.449C61.0212 320.058 60.9084 320.638 60.7747 321.19Z" fill="#1D61DA"/>
<path d="M61.0739 319.412L58.3536 316.384L58.3682 316.35C58.1124 316.709 57.8938 317.093 57.7155 317.496L60.8197 320.793C60.926 320.312 61.0091 319.846 61.0739 319.412Z" fill="#1D61DA"/>
<path d="M57.6862 317.564L57.6863 317.564C57.6912 317.553 57.6954 317.541 57.7003 317.53L57.6862 317.564Z" fill="#1D61DA"/>
<path d="M57.5347 317.936L57.5208 317.97C57.5252 317.958 57.5303 317.948 57.5348 317.936L57.5347 317.936Z" fill="#1D61DA"/>
<path d="M60.8019 320.873L57.6863 317.565C57.6336 317.685 57.5832 317.809 57.5349 317.936L60.7192 321.223C60.7482 321.106 60.7757 320.989 60.8019 320.873Z" fill="#1D61DA"/>
<path d="M62.953 320.652C63.0151 320.236 63.0489 319.816 63.0542 319.396L60.7501 321.291C60.6588 321.659 60.5583 322.012 60.4487 322.351L62.9481 320.616L62.953 320.652Z" fill="#1D61DA"/>
<path d="M57.1216 320.888L59.6436 324.17C59.8508 323.771 60.0338 323.359 60.1916 322.938L57.1143 319.714C57.0838 320.117 57.0805 320.522 57.1042 320.925L57.1216 320.888Z" fill="#1D61DA"/>
<path d="M61.335 315.162L61.3576 315.152C60.8053 314.857 60.2074 314.889 59.6343 315.187L61.286 317.425C61.3749 316.097 61.3356 315.175 61.335 315.162Z" fill="#1D61DA"/>
<path d="M60.205 323.044C60.0603 323.423 59.8949 323.794 59.7097 324.155L62.2465 322.846L62.2491 322.883C62.4402 322.561 62.5896 322.216 62.6938 321.856C62.7341 321.715 62.7709 321.573 62.8042 321.431L60.2499 322.924C60.235 322.964 60.2202 323.005 60.205 323.044Z" fill="#1D61DA"/>
<path d="M61.2792 317.524L59.5896 315.235L59.6054 315.202C59.1218 315.481 58.7062 315.864 58.3885 316.322L61.0866 319.325C61.18 318.682 61.2405 318.071 61.2792 317.524Z" fill="#1D61DA"/>
<path d="M60.2192 322.864C60.4073 322.352 60.5677 321.831 60.6995 321.302L57.5073 318.006C57.4313 318.212 57.3615 318.426 57.2979 318.648C57.2097 318.967 57.1508 319.294 57.1219 319.623L60.2168 322.866L60.2192 322.864Z" fill="#1D61DA"/>
<path d="M63.4982 326.42C63.1143 326.821 62.6713 327.258 62.1825 327.699L64.715 327.329L64.702 327.359C64.913 326.941 65.064 326.495 65.1503 326.035L65.1395 326.065L63.4982 326.42Z" fill="#1D61DA"/>
<path d="M65.0739 324.698C65.0667 324.678 65.059 324.658 65.0513 324.639C64.9591 324.758 64.4138 325.456 63.5653 326.349L65.1552 326.006C65.2394 325.57 65.2114 325.12 65.0739 324.698V324.698Z" fill="#1D61DA"/>
<path d="M59.6687 329.625C59.5489 329.7 59.4296 329.773 59.3107 329.842L62.1988 330.311L62.1778 330.342C62.3652 330.199 62.5458 330.05 62.7196 329.895L59.6597 329.639L59.6687 329.625Z" fill="#1D61DA"/>
<path d="M60.7314 328.894L63.6782 328.9L63.6608 328.931C64.0624 328.46 64.4066 327.943 64.6863 327.391L62.1055 327.768C61.6454 328.178 61.1874 328.554 60.7314 328.894Z" fill="#1D61DA"/>
<path d="M59.7379 329.581L62.7723 329.834L62.753 329.865C63.0669 329.584 63.3614 329.282 63.6345 328.962L60.6479 328.956C60.3425 329.181 60.0392 329.389 59.7379 329.581Z" fill="#1D61DA"/>
<path d="M56.0213 331.079C56.0428 331.057 56.0655 331.033 56.088 331.01C56.7067 330.912 57.3113 330.74 57.8888 330.497L57.9712 328.316C57.9957 328.26 58.0195 328.204 58.0426 328.148L57.9548 330.47C58.3698 330.294 58.7739 330.093 59.1649 329.869L58.8831 325.814C58.9048 325.802 58.9267 325.791 58.9492 325.779L59.2307 329.829L59.2334 329.83C59.7056 329.555 60.1625 329.255 60.6024 328.932L60.2955 324.941C60.3172 324.925 60.3389 324.91 60.3607 324.894L60.6675 328.884C60.7648 328.812 60.8607 328.74 60.955 328.667L60.7018 324.627C60.7235 324.609 60.7452 324.592 60.7668 324.574L61.0201 328.617C61.4097 328.314 61.7715 328.008 62.0989 327.715L61.9397 323.652L61.9728 323.635C61.8597 323.664 61.7448 323.699 61.6289 323.737C61.8468 323.489 62.0429 323.222 62.2149 322.94L59.6538 324.262C59.4765 324.598 59.2771 324.922 59.0569 325.232C59.0112 325.275 58.9654 325.318 58.9203 325.363L58.9237 325.411C58.9028 325.439 58.882 325.466 58.8608 325.493L58.8563 325.428C58.8239 325.461 58.7924 325.496 58.7605 325.53C59.0848 325.126 59.3694 324.692 59.6104 324.234L57.107 320.976C57.124 321.267 57.1526 321.56 57.1893 321.851C56.9568 321.474 56.6746 321.13 56.35 320.828L56.3698 320.853L55.7912 322.426C55.9253 322.964 56.0587 323.571 56.1699 324.219L57.1981 321.919C57.2028 321.955 57.2078 321.991 57.2127 322.027L56.187 324.321C56.2885 324.928 56.3611 325.515 56.405 326.081L57.6361 324.152C57.6431 324.18 57.6501 324.208 57.6572 324.235L56.4128 326.185C56.4399 326.563 56.4538 326.93 56.4547 327.286L57.9596 325.306C57.9676 325.332 57.9755 325.357 57.9833 325.382L56.4625 327.383L56.4551 327.368C56.4546 327.509 56.4521 327.649 56.4474 327.786L58.1449 325.88C58.1539 325.906 58.1623 325.931 58.17 325.953L56.4431 327.892C56.4414 327.935 56.4398 327.978 56.4376 328.02C56.4174 328.425 56.3751 328.829 56.3109 329.23L56.4747 329.064C56.4437 329.128 56.4135 329.192 56.3841 329.254L56.2908 329.348C56.2801 329.41 56.268 329.469 56.2562 329.53C56.2218 329.605 56.1887 329.678 56.1568 329.75C56.1876 329.613 56.2163 329.474 56.2408 329.335L52.8503 327.008C53.7349 329.265 55.4006 331.413 55.5072 331.549C55.5938 331.388 55.6724 331.222 55.7446 331.052C55.7656 331.05 55.7866 331.048 55.8076 331.046C55.7989 331.067 55.7899 331.088 55.7811 331.108C55.7705 331.109 55.7598 331.111 55.7492 331.112C55.7575 331.114 55.7673 331.117 55.7763 331.119C55.7254 331.238 55.6727 331.354 55.6161 331.467C55.6901 331.4 55.8028 331.295 55.9376 331.162C56.7349 331.365 58.8826 331.799 60.7217 331.158L57.904 330.547C57.301 330.801 56.6686 330.98 56.0213 331.079V331.079ZM58.0012 327.522L58.0688 327.454L58.0649 327.556L57.9974 327.624L58.0012 327.522Z" fill="#1D61DA"/>
<path d="M65.0176 324.607L65.0415 324.614C64.8043 324.036 64.3236 323.68 63.6914 323.545L63.5326 326.319C64.4503 325.353 65.0096 324.618 65.0176 324.607Z" fill="#1D61DA"/>
<path d="M59.1073 329.959C58.7534 330.159 58.3888 330.34 58.0153 330.5L60.8062 331.106L60.7849 331.135C61.138 331.009 61.4737 330.838 61.7838 330.628C61.9053 330.544 62.0243 330.458 62.1409 330.37L59.2184 329.896C59.1813 329.917 59.1442 329.938 59.1073 329.959Z" fill="#1D61DA"/>
<path d="M62.164 327.656C62.647 327.22 63.0846 326.788 63.464 326.391L63.6264 323.553L63.6595 323.538C63.1086 323.445 62.5439 323.476 62.0061 323.627L62.164 327.656Z" fill="#1D61DA"/>
<path d="M56.3279 320.808C56.0039 320.504 55.6079 320.286 55.1769 320.176C55.1559 320.172 55.1352 320.168 55.1144 320.164C55.1663 320.305 55.4655 321.138 55.7674 322.331L56.3279 320.808Z" fill="#1D61DA"/>
<path d="M56.1385 324.298L52.6133 322.257L52.6165 322.22C52.4846 322.64 52.3957 323.073 52.351 323.511L56.3247 325.69C56.2768 325.199 56.2114 324.731 56.1385 324.298Z" fill="#1D61DA"/>
<path d="M52.3441 323.585L52.3443 323.585C52.3454 323.573 52.3457 323.56 52.3469 323.548L52.3441 323.585Z" fill="#1D61DA"/>
<path d="M52.3152 323.985L52.3126 324.022C52.3132 324.01 52.3147 323.998 52.3153 323.985L52.3152 323.985Z" fill="#1D61DA"/>
<path d="M56.3326 325.771L52.3443 323.585C52.3315 323.716 52.3219 323.849 52.3154 323.985L56.3625 326.13C56.3537 326.009 56.3437 325.89 56.3326 325.771Z" fill="#1D61DA"/>
<path d="M56.392 327.923L52.4664 325.806C52.5623 326.199 52.6845 326.585 52.8321 326.961L52.8373 326.921L56.2527 329.264C56.326 328.82 56.3725 328.373 56.392 327.923V327.923Z" fill="#1D61DA"/>
<path d="M55.0697 320.175L55.0881 320.159C54.4716 320.049 53.9128 320.263 53.4602 320.724L55.7245 322.343C55.3975 321.052 55.0744 320.188 55.0697 320.175Z" fill="#1D61DA"/>
<path d="M55.7487 322.439L53.4325 320.783L53.4375 320.747C53.0641 321.162 52.7874 321.654 52.6273 322.187L56.1238 324.212C56.0134 323.571 55.8814 322.971 55.7487 322.439Z" fill="#1D61DA"/>
<path d="M56.3954 327.844C56.4157 327.3 56.4066 326.754 56.3681 326.21L52.311 324.06C52.3025 324.279 52.3024 324.505 52.3109 324.736C52.3257 325.066 52.3708 325.395 52.4455 325.717L56.3935 327.846L56.3954 327.844Z" fill="#1D61DA"/>
<path d="M181.332 317.105C181.293 317.658 181.232 318.277 181.137 318.927L182.851 317.031L182.86 317.063C182.756 316.606 182.587 316.167 182.359 315.758L182.37 315.788L181.332 317.105Z" fill="#1D61DA"/>
<path d="M181.339 317.008L182.344 315.732C182.13 315.343 181.821 315.014 181.445 314.776C181.427 314.765 181.408 314.755 181.39 314.745C181.395 314.896 181.422 315.78 181.339 317.008Z" fill="#1D61DA"/>
<path d="M180.432 322.01C180.388 322.144 180.343 322.276 180.296 322.405L182.82 320.929L182.823 320.966C182.876 320.736 182.92 320.507 182.955 320.277L180.435 322.027L180.432 322.01Z" fill="#1D61DA"/>
<path d="M180.783 320.771L183.057 318.901L183.063 318.936C183.071 318.317 183.006 317.7 182.868 317.097L181.122 319.029C181.03 319.638 180.917 320.219 180.783 320.771Z" fill="#1D61DA"/>
<path d="M181.083 318.992L178.363 315.965L178.377 315.931C178.121 316.29 177.903 316.674 177.724 317.077L180.829 320.373C180.935 319.892 181.018 319.426 181.083 318.992Z" fill="#1D61DA"/>
<path d="M177.695 317.145L177.695 317.145C177.7 317.134 177.704 317.121 177.709 317.11L177.695 317.145Z" fill="#1D61DA"/>
<path d="M180.811 320.454L177.695 317.145C177.642 317.265 177.592 317.389 177.544 317.516L180.728 320.804C180.757 320.687 180.785 320.57 180.811 320.454Z" fill="#1D61DA"/>
<path d="M177.543 317.516L177.53 317.551C177.534 317.539 177.539 317.528 177.544 317.516L177.543 317.516Z" fill="#1D61DA"/>
<path d="M182.962 320.233C183.024 319.817 183.058 319.397 183.063 318.976L180.759 320.872C180.668 321.239 180.567 321.593 180.458 321.932L182.957 320.197L182.962 320.233Z" fill="#1D61DA"/>
<path d="M177.131 320.469L179.652 323.751C179.86 323.351 180.043 322.94 180.201 322.519L177.123 319.294C177.093 319.697 177.089 320.102 177.113 320.506L177.131 320.469Z" fill="#1D61DA"/>
<path d="M181.344 314.742L181.366 314.732C180.814 314.438 180.216 314.469 179.643 314.768L181.295 317.006C181.384 315.677 181.344 314.755 181.344 314.742Z" fill="#1D61DA"/>
<path d="M180.214 322.625C180.069 323.004 179.904 323.375 179.719 323.736L182.255 322.427L182.258 322.463C182.449 322.141 182.598 321.796 182.703 321.437C182.743 321.295 182.78 321.153 182.813 321.011L180.259 322.505C180.244 322.545 180.229 322.585 180.214 322.625Z" fill="#1D61DA"/>
<path d="M181.288 317.105L179.598 314.815L179.614 314.783C179.131 315.062 178.715 315.444 178.397 315.903L181.095 318.906C181.189 318.263 181.249 317.651 181.288 317.105Z" fill="#1D61DA"/>
<path d="M180.228 322.445C180.416 321.933 180.577 321.411 180.708 320.882L177.516 317.586C177.44 317.792 177.37 318.006 177.307 318.229C177.219 318.548 177.16 318.874 177.131 319.203L180.226 322.446L180.228 322.445Z" fill="#1D61DA"/>
<path d="M179.678 329.205C179.558 329.281 179.438 329.353 179.319 329.423L182.208 329.892L182.187 329.922C182.374 329.779 182.555 329.63 182.728 329.476L179.668 329.22L179.678 329.205Z" fill="#1D61DA"/>
<path d="M180.74 328.474L183.687 328.48L183.67 328.511C184.071 328.04 184.415 327.523 184.695 326.971L182.114 327.348C181.654 327.759 181.196 328.134 180.74 328.474Z" fill="#1D61DA"/>
<path d="M179.747 329.161L182.781 329.415L182.762 329.446C183.076 329.165 183.37 328.863 183.643 328.542L180.657 328.536C180.351 328.761 180.048 328.97 179.747 329.161Z" fill="#1D61DA"/>
<path d="M176.03 330.659C176.052 330.637 176.074 330.614 176.097 330.591C176.715 330.492 177.32 330.32 177.898 330.077L177.98 327.896C178.004 327.84 178.028 327.785 178.051 327.728L177.964 330.05C178.379 329.874 178.783 329.673 179.174 329.449L178.892 325.394C178.914 325.383 178.935 325.371 178.958 325.359L179.239 329.41L179.242 329.41C179.714 329.135 180.171 328.836 180.611 328.512L180.304 324.521C180.326 324.506 180.348 324.49 180.369 324.474L180.676 328.464C180.774 328.392 180.869 328.32 180.964 328.247L180.711 324.208C180.732 324.19 180.754 324.172 180.776 324.154L181.029 328.197C181.418 327.894 181.78 327.588 182.108 327.295L181.948 323.232L181.982 323.215C181.868 323.245 181.754 323.28 181.638 323.318C181.856 323.069 182.052 322.803 182.224 322.521L179.663 323.842C179.485 324.178 179.286 324.502 179.066 324.812C179.02 324.855 178.974 324.898 178.929 324.943L178.932 324.992C178.912 325.019 178.891 325.047 178.87 325.074L178.865 325.008C178.833 325.041 178.801 325.076 178.769 325.11C179.094 324.706 179.378 324.272 179.619 323.814L177.116 320.556C177.133 320.847 177.161 321.14 177.198 321.431C176.966 321.054 176.683 320.71 176.359 320.408L176.379 320.433L175.8 322.006C175.934 322.544 176.067 323.152 176.179 323.799L177.207 321.5C177.212 321.535 177.217 321.571 177.221 321.607L176.196 323.901C176.297 324.509 176.37 325.095 176.414 325.662L177.645 323.733C177.652 323.76 177.659 323.788 177.666 323.816L176.422 325.765C176.449 326.143 176.463 326.51 176.463 326.866L177.968 324.886C177.976 324.912 177.984 324.937 177.992 324.962L176.471 326.964L176.464 326.948C176.463 327.09 176.461 327.229 176.456 327.366L178.154 325.46C178.163 325.486 178.171 325.511 178.179 325.533L176.452 327.473C176.45 327.515 176.449 327.558 176.446 327.6C176.426 328.006 176.384 328.409 176.32 328.81L176.483 328.645C176.452 328.709 176.422 328.772 176.393 328.834L176.3 328.929C176.289 328.99 176.277 329.05 176.265 329.11C176.231 329.185 176.197 329.259 176.166 329.33C176.196 329.193 176.225 329.055 176.25 328.915L172.859 326.588C173.744 328.846 175.409 330.993 175.516 331.129C175.603 330.968 175.681 330.802 175.753 330.633C175.774 330.631 175.795 330.629 175.816 330.627C175.808 330.647 175.799 330.668 175.79 330.689C175.779 330.69 175.769 330.691 175.758 330.692C175.766 330.695 175.776 330.697 175.785 330.7C175.734 330.818 175.681 330.935 175.625 331.047C175.699 330.98 175.812 330.876 175.946 330.743C176.744 330.946 178.891 331.38 180.73 330.738L177.913 330.127C177.31 330.382 176.677 330.56 176.03 330.659V330.659ZM178.01 327.102L178.078 327.034L178.074 327.136L178.006 327.205L178.01 327.102Z" fill="#1D61DA"/>
<path d="M179.116 329.54C178.762 329.74 178.398 329.92 178.024 330.08L180.815 330.686L180.794 330.716C181.147 330.589 181.482 330.419 181.793 330.208C181.914 330.125 182.033 330.039 182.15 329.95L179.227 329.476C179.19 329.497 179.153 329.519 179.116 329.54Z" fill="#1D61DA"/>
<path d="M176.337 320.389C176.013 320.084 175.617 319.867 175.186 319.757C175.165 319.752 175.144 319.748 175.123 319.744C175.175 319.886 175.474 320.719 175.776 321.912L176.337 320.389Z" fill="#1D61DA"/>
<path d="M176.147 323.878L172.622 321.838L172.625 321.801C172.493 322.221 172.404 322.654 172.36 323.092L176.334 325.27C176.286 324.78 176.22 324.311 176.147 323.878Z" fill="#1D61DA"/>
<path d="M172.324 323.566L172.322 323.603C172.322 323.59 172.324 323.578 172.324 323.566L172.324 323.566Z" fill="#1D61DA"/>
<path d="M172.353 323.166L172.353 323.166C172.354 323.154 172.354 323.141 172.356 323.129L172.353 323.166Z" fill="#1D61DA"/>
<path d="M176.341 325.352L172.353 323.166C172.34 323.296 172.331 323.43 172.324 323.566L176.371 325.71C176.362 325.59 176.353 325.47 176.341 325.352Z" fill="#1D61DA"/>
<path d="M176.401 327.504L172.475 325.386C172.571 325.779 172.693 326.165 172.841 326.541L172.846 326.501L176.262 328.845C176.335 328.401 176.381 327.953 176.401 327.504V327.504Z" fill="#1D61DA"/>
<path d="M175.079 319.756L175.097 319.739C174.481 319.629 173.922 319.844 173.469 320.304L175.733 321.923C175.406 320.633 175.083 319.768 175.079 319.756Z" fill="#1D61DA"/>
<path d="M175.758 322.02L173.441 320.363L173.446 320.328C173.073 320.742 172.796 321.234 172.636 321.768L176.133 323.792C176.022 323.152 175.89 322.552 175.758 322.02Z" fill="#1D61DA"/>
<path d="M176.404 327.425C176.425 326.88 176.415 326.335 176.377 325.791L172.32 323.641C172.311 323.86 172.311 324.085 172.32 324.316C172.335 324.647 172.38 324.975 172.454 325.297L176.402 327.427L176.404 327.425Z" fill="#1D61DA"/>
<path d="M155.81 239.246L157.333 240.209L156.409 238.532C156.671 238.323 156.995 238.208 157.33 238.204C157.338 238.204 157.346 238.204 157.354 238.204C157.46 238.206 157.566 238.198 157.67 238.181L158.186 238.507L157.965 238.106C158.331 237.979 158.647 237.74 158.868 237.422L159.792 238.007L159.209 236.948C159.749 236.301 160.477 235.905 161.278 235.905C162.239 235.905 163.095 236.475 163.648 237.363C163.811 237.628 164.042 237.846 164.317 237.994C164.592 238.142 164.901 238.215 165.214 238.205C165.231 238.204 165.248 238.204 165.265 238.204C166.326 238.204 167.186 239.404 167.186 240.883C167.186 242.363 166.326 243.563 165.265 243.563C165.032 243.562 164.802 243.505 164.596 243.396C164.235 243.221 163.84 243.126 163.439 243.118C163.038 243.11 162.639 243.19 162.272 243.35C161.961 243.49 161.625 243.562 161.284 243.563C160.944 243.564 160.607 243.493 160.296 243.355C159.931 243.197 159.536 243.12 159.139 243.127C158.741 243.135 158.35 243.228 157.992 243.399C157.787 243.506 157.56 243.562 157.33 243.563C156.269 243.563 155.409 242.363 155.409 240.883C155.403 240.313 155.541 239.749 155.81 239.246V239.246Z" fill="#F2F2F2"/>
<path d="M78.3152 247.115L79.2841 247.728L78.6958 246.661C78.8624 246.529 79.0686 246.455 79.2818 246.453C79.287 246.453 79.2922 246.453 79.2973 246.453C79.3647 246.454 79.432 246.449 79.4984 246.438L79.8267 246.646L79.686 246.39C79.9186 246.309 80.1197 246.157 80.2604 245.955L80.8482 246.327L80.4769 245.654C80.6332 245.453 80.8325 245.289 81.0603 245.174C81.288 245.059 81.5385 244.996 81.7936 244.99C82.4048 244.99 82.9492 245.352 83.3007 245.917C83.4046 246.086 83.5515 246.225 83.7264 246.319C83.9014 246.413 84.0982 246.459 84.2968 246.453C84.3078 246.453 84.3187 246.453 84.3297 246.453C85.0044 246.453 85.5514 247.216 85.5514 248.157C85.5514 249.098 85.0044 249.861 84.3297 249.861C84.1813 249.861 84.0353 249.824 83.9042 249.755C83.6745 249.644 83.4233 249.584 83.168 249.579C82.9127 249.574 82.6594 249.624 82.4255 249.726C82.2279 249.815 82.0139 249.861 81.7972 249.861C81.5806 249.862 81.3664 249.817 81.1684 249.729C80.9363 249.629 80.6854 249.579 80.4325 249.584C80.1796 249.589 79.9308 249.648 79.7028 249.757C79.5728 249.825 79.4284 249.861 79.2817 249.861C78.607 249.861 78.0601 249.098 78.0601 248.157C78.0561 247.794 78.1439 247.436 78.3152 247.115Z" fill="#F2F2F2"/>
<path d="M52.2384 250.401L53.2073 251.014L52.619 249.947C52.7856 249.814 52.9918 249.741 53.205 249.738C53.2102 249.738 53.2154 249.738 53.2206 249.738C53.2879 249.739 53.3552 249.734 53.4216 249.724L53.75 249.931L53.6092 249.676C53.8419 249.595 54.0429 249.443 54.1837 249.241L54.7714 249.613L54.4001 248.939C54.5564 248.738 54.7557 248.574 54.9835 248.459C55.2112 248.345 55.4617 248.282 55.7169 248.276C56.328 248.276 56.8725 248.638 57.2239 249.203C57.3278 249.372 57.4747 249.511 57.6497 249.605C57.8246 249.699 58.0214 249.745 58.2201 249.739C58.231 249.738 58.242 249.738 58.2529 249.738C58.9277 249.738 59.4746 250.501 59.4746 251.443C59.4746 252.384 58.9277 253.147 58.2529 253.147C58.1046 253.147 57.9585 253.11 57.8274 253.041C57.5977 252.929 57.3466 252.869 57.0913 252.864C56.8359 252.859 56.5826 252.91 56.3487 253.012C56.1512 253.101 55.9371 253.147 55.7205 253.147C55.5039 253.148 55.2896 253.103 55.0916 253.015C54.8595 252.915 54.6086 252.865 54.3557 252.87C54.1028 252.875 53.854 252.934 53.626 253.043C53.496 253.111 53.3516 253.147 53.205 253.147C52.5302 253.147 51.9833 252.384 51.9833 251.443C51.9794 251.08 52.0671 250.721 52.2384 250.401V250.401Z" fill="#F2F2F2"/>
<path d="M45.8359 314.866L45.6666 315.035C45.6666 315.035 45.723 316.892 45.7794 317.286C45.8359 317.68 46.0615 318.355 45.8923 318.861C45.723 319.368 45.6666 319.762 45.723 319.818C45.7794 319.874 45.6666 320.099 45.6666 320.099L46.1179 319.818L46.8513 318.13L46.5128 316.329L45.8359 314.866Z" fill="#1D61DA"/>
<path opacity="0.1" d="M45.8359 314.866L45.6666 315.035C45.6666 315.035 45.723 316.892 45.7794 317.286C45.8359 317.68 46.0615 318.355 45.8923 318.861C45.723 319.368 45.6666 319.762 45.723 319.818C45.7794 319.874 45.6666 320.099 45.6666 320.099L46.1179 319.818L46.8513 318.13L46.5128 316.329L45.8359 314.866Z" fill="black"/>
<path d="M48.8256 332.366C48.8256 332.366 48.8256 331.747 48.7128 331.635C48.6 331.522 48.4307 331.128 48.2051 331.128C47.9795 331.128 47.1897 331.353 47.1897 331.41C47.1961 331.585 47.1573 331.76 47.0769 331.916C46.964 332.085 46.3435 332.76 46.964 332.873C47.1703 332.907 47.3813 332.899 47.5847 332.851C47.7881 332.803 47.9798 332.714 48.1487 332.591C48.2051 332.535 48.4307 332.479 48.4872 332.535C48.5436 332.591 48.8256 332.366 48.8256 332.366Z" fill="#1D61DA"/>
<path d="M50.4052 331.354L50.7436 331.972C50.7436 331.972 50.8564 332.535 51.0257 332.591H51.1949C51.1949 332.591 51.3641 333.21 51.759 333.154C52.1539 333.098 52.6052 332.873 52.6052 332.76C52.6052 332.648 52.6052 332.31 52.436 332.198C52.1987 332.004 51.9727 331.798 51.759 331.579L51.477 331.297L50.4052 331.354Z" fill="#1D61DA"/>
<path d="M46.0759 310.741C45.9673 310.796 45.8736 310.877 45.8027 310.976C45.7318 311.074 45.6857 311.189 45.6684 311.309C45.637 311.711 46.0351 312.09 45.907 312.472C45.8343 312.689 45.6078 312.829 45.5426 313.049C45.5083 313.224 45.5341 313.405 45.6157 313.564C45.7048 313.781 45.8132 313.99 45.9397 314.188C46.1775 314.561 46.487 314.914 46.5505 315.351C46.5682 315.427 46.5674 315.507 46.5482 315.583C46.5291 315.659 46.4922 315.729 46.4405 315.789C46.5549 315.702 46.6859 315.64 46.8254 315.606C47.4019 315.414 47.9376 315.116 48.4049 314.728C48.5747 314.609 48.7025 314.44 48.7702 314.244C48.8563 313.898 48.5932 313.552 48.6184 313.197C48.6346 312.97 48.7661 312.769 48.8405 312.554C48.9053 312.339 48.9259 312.114 48.9012 311.891C48.8764 311.669 48.8069 311.453 48.6966 311.258C48.6053 311.069 48.4765 310.901 48.318 310.764C48.1595 310.626 47.9746 310.522 47.7745 310.458C47.4668 310.387 47.1457 310.396 46.8426 310.485C46.5778 310.54 46.3204 310.626 46.0759 310.741V310.741Z" fill="#2F2E41"/>
<path d="M46.3934 313.861C46.5177 313.631 46.7016 313.438 46.926 313.303C47.1505 313.168 47.4071 313.096 47.6692 313.094C48.5718 313.094 48.4026 313.037 48.4026 313.037L48.1205 314.163L47.5564 314.725L46.3934 313.861Z" fill="#1D61DA"/>
<path d="M46.6256 312.672C46.6256 312.672 47.1333 313.516 46.7948 313.853C46.4564 314.191 46.6256 314.529 46.682 314.585C46.7384 314.641 48.3179 314.754 48.3179 314.754L48.3743 313.966L48.5436 313.291C48.5436 313.291 47.641 313.122 47.7538 312.728C47.8666 312.334 46.6256 312.672 46.6256 312.672Z" fill="#FBBEBE"/>
<path opacity="0.1" d="M46.6256 312.672C46.6256 312.672 47.1333 313.516 46.7948 313.853C46.4564 314.191 46.6256 314.529 46.682 314.585C46.7384 314.641 48.3179 314.754 48.3179 314.754L48.3743 313.966L48.5436 313.291C48.5436 313.291 47.641 313.122 47.7538 312.728C47.8666 312.334 46.6256 312.672 46.6256 312.672Z" fill="black"/>
<path d="M50.5745 320.662C50.5141 320.855 50.4386 321.043 50.3488 321.225C50.2924 321.281 50.1232 320.831 50.1232 320.831L50.2924 320.437L50.5745 320.662Z" fill="#FBBEBE"/>
<path d="M49.9257 318.102L50.1512 319.396H46.7666L46.9358 318.102H49.9257Z" fill="#FBBEBE"/>
<path d="M47.2461 313.122C47.8381 313.122 48.3179 312.643 48.3179 312.052C48.3179 311.462 47.8381 310.983 47.2461 310.983C46.6542 310.983 46.1743 311.462 46.1743 312.052C46.1743 312.643 46.6542 313.122 47.2461 313.122Z" fill="#FBBEBE"/>
<path d="M47.4717 314.247C47.4717 314.247 46.8511 314.303 46.8511 314.191C46.8511 314.078 46.7947 313.741 46.6819 313.797C46.5691 313.853 45.8357 313.909 45.8922 314.078C45.9486 314.247 46.0614 314.585 45.9486 314.585C45.8998 314.595 45.8536 314.614 45.8127 314.643C45.7718 314.671 45.7371 314.707 45.7107 314.749C45.6843 314.792 45.6668 314.839 45.6592 314.888C45.6516 314.937 45.6541 314.987 45.6665 315.035C45.7229 315.316 46.3434 317.004 46.3434 317.004C46.3434 317.004 46.3999 317.567 46.5691 317.736C46.6379 317.824 46.6753 317.933 46.6753 318.045C46.6753 318.157 46.6379 318.266 46.5691 318.355C46.4563 318.467 46.8511 318.58 47.0204 318.805C47.1896 319.03 48.4871 318.861 48.5435 318.805C48.5999 318.749 49.9538 318.749 50.0666 318.636C50.1794 318.524 50.0102 318.186 50.0102 318.186C50.0102 318.186 49.9538 317.68 50.0102 317.511C50.0666 317.342 49.7845 314.585 49.6153 314.416C49.4461 314.247 50.123 313.741 50.123 313.741C50.123 313.741 50.0102 313.291 49.2768 313.234C49.2768 313.234 49.0512 312.897 48.8255 312.897C48.5999 312.897 48.11 313.158 48.11 313.158C48.11 313.158 47.9794 313.909 47.8101 313.966C47.6764 314.031 47.5603 314.128 47.4717 314.247Z" fill="#1D61DA"/>
<path d="M49.7282 313.572L50.123 313.741C50.123 313.741 51.2513 317.23 51.1385 317.905C51.0256 318.58 50.7436 320.887 50.5743 320.887C50.4051 320.887 50.0666 320.55 50.0666 320.55V319.987C50.0666 319.874 49.8974 319.537 50.0102 319.537C50.123 319.537 50.2923 319.424 50.1795 319.312C50.0666 319.199 49.9538 319.03 50.0666 318.861C50.1795 318.693 50.2359 318.636 50.1795 318.467C50.123 318.299 50.0102 318.13 50.123 318.017C50.2359 317.905 49.841 317.342 49.841 317.342L49.2205 314.866L49.3333 313.853L49.7282 313.572Z" fill="#1D61DA"/>
<path d="M49.954 318.918C49.954 318.918 47.8103 318.749 47.5283 318.749C47.2462 318.749 46.6134 318.484 46.6134 318.484C46.6134 318.484 44.9898 320.099 45.5539 322.744C46.118 325.389 46.2308 328.652 46.5693 329.609C46.7993 330.291 46.9877 330.986 47.1334 331.691C47.1334 331.691 47.6975 330.678 48.7693 331.804C48.7693 331.804 48.8821 330.96 48.7129 330.622C48.5437 330.284 48.318 328.484 48.318 328.484C48.318 328.484 47.9232 325.614 47.9232 325.276C47.9232 324.939 47.6975 322.069 47.7539 322.012C47.8103 321.956 48.0924 324.207 48.1488 324.601C48.2052 324.995 48.3744 328.033 48.5437 328.371C48.7129 328.709 49.5027 331.41 49.954 331.579C50.4053 331.747 51.9284 331.522 51.8719 331.41C51.8155 331.297 51.4206 330.678 51.3078 330.509L50.8565 329.834L49.7847 326.177L50.2924 321.731C50.2924 321.731 50.5745 318.861 49.954 318.918Z" fill="#2F2E41"/>
<path d="M47.899 311.912H46.5246C46.4662 311.912 46.4098 311.891 46.3655 311.853C46.3212 311.815 46.2918 311.763 46.2827 311.706L46.1461 310.843H48.2897L48.0981 311.751C48.0885 311.796 48.0635 311.837 48.0272 311.866C47.991 311.896 47.9457 311.912 47.899 311.912Z" fill="#2F2E41"/>
<path d="M160.123 310.27H162.291V313.36C162.007 313.36 161.725 313.304 161.462 313.196C161.198 313.087 160.959 312.927 160.758 312.727C160.557 312.526 160.397 312.287 160.288 312.025C160.179 311.762 160.123 311.481 160.123 311.197V310.27Z" fill="#2F2E41"/>
<path d="M158.858 328.374L158.703 329.147H159.787L159.839 328.374H158.858Z" fill="#A0616A"/>
<path d="M158.858 328.992C158.858 328.992 158.651 328.838 158.548 328.941C158.445 329.044 158.083 331.053 158.032 331.104C157.98 331.156 156.431 331.928 156.792 331.98C157.154 332.031 158.548 332.083 158.754 331.98C158.961 331.877 159.529 330.898 159.529 330.898V331.774H159.632C159.632 331.774 159.735 330.847 159.994 330.589C160.252 330.332 159.787 329.456 159.787 329.456C159.787 329.456 159.89 328.889 159.839 328.889C159.787 328.889 158.858 328.992 158.858 328.992Z" fill="#1D61DA"/>
<path d="M162.059 327.834L161.904 328.606H162.988L163.04 327.834H162.059Z" fill="#A0616A"/>
<path d="M160.82 322.812C160.82 322.812 161.336 324.357 161.439 324.511C161.543 324.666 161.904 327.55 161.904 327.55C161.904 327.55 161.543 328.117 162.007 328.168C162.472 328.22 162.266 328.065 162.575 328.168C162.66 328.2 162.75 328.212 162.84 328.203C162.929 328.194 163.016 328.165 163.092 328.117C163.092 328.117 163.247 327.808 163.143 327.705C163.04 327.602 163.247 324.924 163.247 324.924L162.937 323.996L162.679 321.061C162.679 321.061 162.988 320.288 162.834 320.082C162.679 319.876 162.162 320.236 162.162 320.236L160.82 322.812Z" fill="#2F2E41"/>
<path d="M160.149 318.794C160.149 318.794 159.994 320.442 159.89 320.545C159.787 320.648 158.651 323.533 158.651 323.533C158.651 323.533 158.341 323.893 158.445 325.232C158.548 326.572 158.806 327.911 158.806 327.911C158.806 327.911 158.6 328.683 158.961 328.683C159.322 328.683 159.477 328.477 159.632 328.632C159.787 328.786 159.89 328.632 159.942 328.529C159.994 328.426 160.2 328.065 160.2 327.962C160.2 327.859 160.407 325.232 160.407 325.232C160.407 325.232 162.111 321.472 162.266 321.266C162.421 321.06 163.298 319.927 163.247 319.155L160.149 318.794Z" fill="#2F2E41"/>
<path d="M161.439 311.841C162.038 311.841 162.524 311.357 162.524 310.759C162.524 310.162 162.038 309.677 161.439 309.677C160.841 309.677 160.355 310.162 160.355 310.759C160.355 311.357 160.841 311.841 161.439 311.841Z" fill="#A0616A"/>
<path d="M161.233 311.686C161.233 311.686 161.646 312.613 161.698 312.871C161.749 313.128 162.73 312.356 162.73 312.356C162.73 312.356 162.214 311.48 162.369 311.068L161.233 311.686Z" fill="#A0616A"/>
<path d="M162.885 312.201C162.885 312.201 162.111 311.635 161.543 312.819C160.975 314.004 160.82 313.952 160.82 313.952C160.82 313.952 160.149 314.158 160.355 315.601C160.562 317.043 159.684 318.949 160.045 319.052C160.407 319.155 163.763 319.721 163.763 319.309C163.763 318.897 163.453 317.3 163.711 316.322C163.97 315.343 163.35 311.944 162.885 312.201Z" fill="#3F3D56"/>
<path d="M162.111 312.459C162.111 312.459 161.491 313.386 161.543 314.107C161.594 314.828 161.594 315.292 161.594 315.292C161.594 315.292 160.562 320.236 160.768 320.236C160.975 320.236 161.594 320.494 161.646 320.339C161.698 320.185 162.988 317.043 162.988 317.043C162.988 317.043 163.298 313.901 162.937 313.18C162.575 312.459 162.111 312.459 162.111 312.459Z" fill="#3F3D56"/>
<path d="M160.871 320.082C160.871 320.082 160.355 321.833 161.078 321.885C161.801 321.936 161.388 320.185 161.388 320.185L160.871 320.082Z" fill="#A0616A"/>
<path d="M162.246 328.205C162.246 328.205 162.065 328.07 161.974 328.16C161.884 328.25 161.567 330.009 161.522 330.054C161.477 330.099 160.12 330.776 160.437 330.821C160.754 330.866 161.974 330.911 162.155 330.821C162.336 330.731 162.834 329.874 162.834 329.874V330.641H162.924C162.924 330.641 163.014 329.829 163.24 329.603C163.467 329.378 163.06 328.611 163.06 328.611C163.06 328.611 163.15 328.115 163.105 328.115C163.06 328.115 162.246 328.205 162.246 328.205Z" fill="#1D61DA"/>
<path d="M160.903 310.05C160.938 310.008 160.983 309.977 161.034 309.958C161.082 309.949 161.131 309.954 161.176 309.97C161.5 310.065 161.781 310.268 161.971 310.546C162.008 310.617 162.063 310.677 162.131 310.719C162.175 310.732 162.218 310.749 162.26 310.768C162.381 310.848 162.309 311.032 162.24 311.159C162.062 311.485 161.98 311.854 162.003 312.224C162.001 312.288 162.02 312.352 162.057 312.405C162.116 312.459 162.192 312.489 162.272 312.49C162.522 312.521 162.775 312.535 163.027 312.53C163.274 312.526 163.549 312.491 163.709 312.303C163.881 312.101 163.854 311.792 163.742 311.552C163.63 311.311 163.448 311.11 163.319 310.879C163.196 310.634 163.099 310.377 163.03 310.113C162.94 309.775 162.796 309.454 162.603 309.163C162.505 309.018 162.379 308.894 162.231 308.8C162.084 308.705 161.918 308.642 161.745 308.614C161.276 308.562 160.844 308.85 160.467 309.134C160.043 309.452 159.593 309.845 159.559 310.373C159.531 310.8 159.789 311.187 159.923 311.593C160.131 312.221 160.044 312.904 159.955 313.559C160.337 313.33 160.769 313.013 160.744 312.569C160.727 312.27 160.501 312.031 160.36 311.766C159.972 311.037 160.414 310.549 160.903 310.05Z" fill="#2F2E41"/>
<path d="M84.607 264.883L79.0137 270.462L76.3635 267.819L75.3318 268.848L79.0101 272.517L85.6388 265.912L84.607 264.883Z" fill="#57B894"/>
<path d="M143.543 266.877L137.949 272.457L135.299 269.813L134.267 270.843L137.946 274.512L144.574 267.907L143.543 266.877Z" fill="#57B894"/>
<path d="M143.071 300.617V291.452H137.933V285.5H134.454V291.452H129.316V300.617H126.47V280.017H120.7V278.059H113.032V276.1H105.443V278.059H98.249V280.017H92.0039V300.538H88.6837V291.374H83.5454V285.421H80.0671V291.374H74.9288V300.538H71.6086V333.044H79.1976V321.53H84.415V333.044H104.81V319.65H113.664V333.044H125.996V333.122H133.585V321.608H138.802V333.122H146.391V300.617H143.071ZM74.3359 304.533H77.3399V306.883H74.3359V304.533ZM74.3754 311.112H77.3794V313.462H74.3754V311.112ZM77.4189 320.042H74.415V317.692H77.4189V320.042ZM85.2845 298.815H78.328V297.405H85.2845V298.815ZM85.2845 296.779H78.328V295.369H85.2845V296.779ZM85.2845 294.742H78.328V293.332H85.2845V294.742ZM86.2727 304.533H89.2766V306.883H86.2727V304.533ZM86.3122 311.112H89.3162V313.462H86.3122V311.112ZM89.3557 320.042H86.3517V317.692H89.3557V320.042ZM101.648 316.125H96.1146V313.697H101.648V316.125ZM101.648 309.154H96.1146V306.726H101.648V309.154ZM101.648 302.183H96.1146V299.755H101.648V302.183ZM101.648 295.212H96.1146V292.784H101.648V295.212ZM101.648 288.241H96.1146V285.813H101.648V288.241ZM112.004 316.125H106.47V313.697H112.004V316.125ZM112.004 309.154H106.47V306.726H112.004V309.154ZM112.004 302.183H106.47V299.755H112.004V302.183ZM112.004 295.212H106.47V292.784H112.004V295.212ZM112.004 288.241H106.47V285.813H112.004V288.241ZM122.36 316.125H116.826V313.697H122.36V316.125ZM122.36 309.154H116.826V306.726H122.36V309.154ZM122.36 302.183H116.826V299.755H122.36V302.183ZM122.36 295.212H116.826V292.784H122.36V295.212ZM122.36 288.241H116.826V285.813H122.36V288.241ZM128.723 304.611H131.727V306.961H128.723V304.611ZM128.763 311.191H131.767V313.54H128.763V311.191ZM131.806 320.12H128.802V317.77H131.806V320.12ZM139.672 298.893H132.715V297.483H139.672V298.893ZM139.672 296.857H132.715V295.447H139.672V296.857ZM139.672 294.82H132.715V293.411H139.672V294.82ZM140.66 304.611H143.664V306.961H140.66V304.611ZM140.7 311.191H143.704V313.54H140.7V311.191ZM143.743 320.12H140.739V317.77H143.743V320.12Z" fill="#0091BF"/>
<path d="M29.263 275.166L23 303.209H35.5261L29.263 275.166Z" fill="#1D65E7"/>
<path d="M29.5436 284.514H29.0762V303.209H29.5436V284.514Z" fill="#333333"/>
<path d="M32.5053 296.209L29.0797 300.291L29.4377 300.591L32.8633 296.51L32.5053 296.209Z" fill="#333333"/>
<path d="M26.0546 294.477L25.7241 294.808L29.0956 298.179L29.4261 297.848L26.0546 294.477Z" fill="#333333"/>
<path d="M30.8666 289.456L29.1691 291.062L29.4903 291.401L31.1879 289.795L30.8666 289.456Z" fill="#333333"/>
<path d="M180.978 235.751L166.957 298.535H195L180.978 235.751Z" fill="#1D65E7"/>
<path d="M181.606 256.679H180.56V298.535H181.606V256.679Z" fill="#333333"/>
<path d="M188.237 282.863L180.568 292.001L181.369 292.674L189.038 283.536L188.237 282.863Z" fill="#333333"/>
<path d="M173.795 278.986L173.055 279.726L180.603 287.273L181.343 286.533L173.795 278.986Z" fill="#333333"/>
<path d="M184.568 267.743L180.768 271.339L181.487 272.099L185.288 268.504L184.568 267.743Z" fill="#333333"/>
<path d="M132.089 222.818L125.826 250.861H138.352L132.089 222.818Z" fill="#1D65E7"/>
<path d="M132.369 232.166H131.902V250.861H132.369V232.166Z" fill="#333333"/>
<path d="M135.331 243.861L131.906 247.943L132.264 248.243L135.689 244.162L135.331 243.861Z" fill="#333333"/>
<path d="M128.881 242.129L128.55 242.46L131.922 245.831L132.252 245.5L128.881 242.129Z" fill="#333333"/>
<path d="M133.693 237.108L131.995 238.714L132.316 239.053L134.014 237.447L133.693 237.108Z" fill="#333333"/>
<path d="M154.524 361.514L150.504 379.512H158.544L154.524 361.514Z" fill="#1D65E7"/>
<path d="M154.704 367.514H154.404V379.512H154.704V367.514Z" fill="#333333"/>
<path d="M156.605 375.02L154.406 377.639L154.636 377.832L156.835 375.213L156.605 375.02Z" fill="#333333"/>
<path d="M152.465 373.908L152.253 374.12L154.416 376.284L154.629 376.072L152.465 373.908Z" fill="#333333"/>
<path d="M155.553 370.685L154.464 371.716L154.67 371.934L155.759 370.903L155.553 370.685Z" fill="#333333"/>
</svg>
