<svg width="1308" height="515" viewBox="0 0 1308 515" fill="none" xmlns="http://www.w3.org/2000/svg">
<g clip-path="url(#clip0)">
<rect width="1308" height="515" fill="white"/>
<path d="M63.5 136L85.5 98M42.5 161L94 69.5M29 173L96 53M16 181.5L95 39.5M6 187.5L93 30M-4.5 193L90.5 22M-15 197.5L87 14.5M-21 195.5L82.5 8.5M-26.5 192L78.5 2.5M-26.5 180L73.5 -1M-32.5 176.5L67.5 -4.5M-37.5 173.5L62.5 -7.5M-43 169.5L57 -11.5M8 64L43 2.5M12 44L36.5 0.5M13.5 28.5L34.5 -7.5M13 15.5L34 -20.5M11 6L32 -30" stroke="#CCF4FE" stroke-width="3"/>
<path d="M1289.45 160.71C1287.85 159.61 1286.15 158.51 1284.45 157.41" stroke="#999999" stroke-miterlimit="10"/>
<path d="M1273.95 151.21C1229.75 127.31 1174.65 122.21 1129.25 149.01C1097.25 169.01 1073.25 199.01 1067.25 236.01C1066.25 245.01 1066.25 254.01 1067.25 263.01C1069.25 278.01 1073.25 292.01 1081.25 305.01C1101.25 340.01 1128.25 366.01 1162.25 388.01C1167.25 391.01 1172.25 394.01 1177.25 397.01C1199.25 408.01 1221.25 414.01 1242.25 428.01C1248.25 432.01 1253.25 436.01 1258.25 441.01C1268.45 452.01 1278.05 463.71 1284.85 476.91" stroke="#999999" stroke-miterlimit="10" stroke-dasharray="12.23 12.23"/>
<path d="M1287.45 482.41C1288.25 484.21 1288.95 486.11 1289.65 488.01" stroke="#999999" stroke-miterlimit="10"/>
<path d="M123.5 34.5C147.5 42 142 -22.2042 193.5 -22.2042C192.5 0.295776 198.8 9.99578 204.5 14.7958C218.9 26.7958 241.5 16.9958 307.5 5.79577C351.6 -1.70423 359.5 -0.404227 364.5 4.79577C378.1 18.6958 369.6 58.9958 346.5 80.7958C332.9 93.5958 310.8 100.996 266.5 115.796C247.3 122.196 235.2 125.396 231.5 135.796C227.1 148.096 237.2 163.096 245.5 170.796C262.1 186.196 285.2 184.496 295.5 183.796C310.7 182.696 325.2 178.096 354.5 160.796C385.5 142.496 407.4 125.096 416.5 117.796C478.7 67.6958 479.1 55.3958 512.5 39.7958C523.2 34.7958 547.3 23.8958 579.5 22.7958C598.3 22.1958 607.5 25.2958 677.5 43.7958C718.7 54.6958 739.5 60.1958 749.5 61.7958C779.4 66.5958 777.5 62.8958 838.5 68.7958C872.4 72.0958 877.7 73.5958 888.5 69.7958C900.1 65.6958 903.1 60.6958 939.5 30.7958C955.2 17.8958 963.3 11.2958 970.5 6.79577C989.6 -5.00423 1007.8 -10.5042 1020.5 -13.2042C1049 -14.1362 1108.4 -9.1 1118 18.5C1130 53 1127.5 71.5 1118 87.5C1108.5 103.5 1075 126 1072 141C1069 156 1070.5 182 1097.5 185.5C1124.5 189 1200.5 185 1212.5 157.5C1224.5 130 1234 129.704 1235.5 82.5" stroke="#999999" stroke-miterlimit="10" stroke-dasharray="12 12"/>
<path d="M959.929 79.7662L959.748 79.9468C959.748 79.9468 959.808 81.9333 959.869 82.3547C959.929 82.7761 960.17 83.4985 959.989 84.0402C959.808 84.582 959.748 85.0034 959.808 85.0636C959.869 85.1238 959.748 85.3646 959.748 85.3646L960.231 85.0636L961.015 83.2577L960.653 81.3314L959.929 79.7662Z" fill="#1D61DA"/>
<path opacity="0.1" d="M959.929 79.7662L959.748 79.9468C959.748 79.9468 959.808 81.9333 959.869 82.3547C959.929 82.7761 960.17 83.4985 959.989 84.0402C959.808 84.582 959.748 85.0034 959.808 85.0636C959.869 85.1238 959.748 85.3646 959.748 85.3646L960.231 85.0636L961.015 83.2577L960.653 81.3314L959.929 79.7662Z" fill="black"/>
<path d="M963.127 98.4875C963.127 98.4875 963.127 97.8254 963.007 97.705C962.886 97.5846 962.705 97.1632 962.464 97.1632C962.222 97.1632 961.377 97.404 961.377 97.4642C961.384 97.6521 961.343 97.8386 961.257 98.006C961.136 98.1865 960.472 98.9089 961.136 99.0293C961.357 99.0655 961.582 99.0575 961.8 99.0058C962.018 98.9541 962.223 98.8598 962.403 98.7283C962.464 98.6681 962.705 98.6079 962.765 98.6681C962.826 98.7283 963.127 98.4875 963.127 98.4875Z" fill="#1D61DA"/>
<path d="M964.817 97.4041L965.179 98.0662C965.179 98.0662 965.3 98.6682 965.481 98.7284H965.662C965.662 98.7284 965.843 99.3906 966.265 99.3304C966.688 99.2702 967.171 99.0294 967.171 98.909C967.171 98.7886 967.171 98.4274 966.99 98.307C966.736 98.1002 966.494 97.8792 966.265 97.6449L965.964 97.3439L964.817 97.4041Z" fill="#1D61DA"/>
<path d="M960.186 75.3533C960.07 75.4125 959.97 75.4985 959.894 75.6043C959.818 75.7101 959.769 75.8326 959.75 75.9613C959.716 76.3911 960.142 76.7961 960.005 77.2049C959.927 77.4371 959.685 77.5874 959.615 77.8221C959.579 78.0092 959.606 78.2032 959.694 78.3729C959.789 78.6055 959.905 78.8292 960.04 79.0412C960.295 79.4396 960.626 79.8176 960.694 80.285C960.713 80.3668 960.712 80.4518 960.691 80.5332C960.671 80.6145 960.631 80.6899 960.576 80.7531C960.698 80.6606 960.838 80.5942 960.988 80.5578C961.604 80.3521 962.177 80.0338 962.677 79.619C962.859 79.4916 962.996 79.3102 963.068 79.1008C963.16 78.731 962.879 78.361 962.906 77.9808C962.923 77.7377 963.064 77.5229 963.143 77.2925C963.213 77.0631 963.235 76.8221 963.208 76.5839C963.182 76.3458 963.107 76.1154 962.989 75.9067C962.892 75.7048 962.754 75.5248 962.584 75.3777C962.415 75.2305 962.217 75.1193 962.003 75.0508C961.674 74.9744 961.33 74.9843 961.006 75.0796C960.723 75.1382 960.448 75.2301 960.186 75.3533V75.3533Z" fill="#2F2E41"/>
<path d="M960.526 78.6914C960.658 78.4451 960.855 78.239 961.095 78.0945C961.335 77.95 961.61 77.8725 961.89 77.87C962.856 77.87 962.675 77.8098 962.675 77.8098L962.373 79.0138L961.77 79.6157L960.526 78.6914Z" fill="#1D61DA"/>
<path d="M960.774 77.4186C960.774 77.4186 961.317 78.3216 960.955 78.6828C960.593 79.044 960.774 79.4051 960.834 79.4653C960.895 79.5255 962.584 79.6459 962.584 79.6459L962.645 78.8032L962.826 78.0808C962.826 78.0808 961.86 77.9002 961.981 77.4788C962.101 77.0574 960.774 77.4186 960.774 77.4186Z" fill="#FBBEBE"/>
<path opacity="0.1" d="M960.774 77.4186C960.774 77.4186 961.317 78.3216 960.955 78.6828C960.593 79.044 960.774 79.4051 960.834 79.4653C960.895 79.5255 962.584 79.6459 962.584 79.6459L962.645 78.8032L962.826 78.0808C962.826 78.0808 961.86 77.9002 961.981 77.4788C962.101 77.0574 960.774 77.4186 960.774 77.4186Z" fill="black"/>
<path d="M964.998 85.9666C964.934 86.1733 964.853 86.3745 964.757 86.5686C964.696 86.6288 964.515 86.1472 964.515 86.1472L964.696 85.7258L964.998 85.9666Z" fill="#FBBEBE"/>
<path d="M964.304 83.2275L964.546 84.6121H960.925L961.106 83.2275H964.304Z" fill="#FBBEBE"/>
<path d="M961.438 77.9002C962.071 77.9002 962.584 77.3881 962.584 76.7564C962.584 76.1248 962.071 75.6127 961.438 75.6127C960.804 75.6127 960.291 76.1248 960.291 76.7564C960.291 77.3881 960.804 77.9002 961.438 77.9002Z" fill="#FBBEBE"/>
<path d="M961.679 79.1042C961.679 79.1042 961.015 79.1643 961.015 79.0439C961.015 78.9236 960.955 78.5624 960.834 78.6226C960.714 78.6828 959.929 78.743 959.989 78.9236C960.05 79.1041 960.17 79.4653 960.05 79.4653C959.998 79.476 959.948 79.4971 959.904 79.5274C959.861 79.5577 959.824 79.5965 959.795 79.6415C959.767 79.6866 959.748 79.7369 959.74 79.7894C959.732 79.8419 959.735 79.8955 959.748 79.9469C959.808 80.2479 960.472 82.0538 960.472 82.0538C960.472 82.0538 960.533 82.6558 960.714 82.8364C960.787 82.9311 960.827 83.0476 960.827 83.1675C960.827 83.2873 960.787 83.4038 960.714 83.4986C960.593 83.6189 961.015 83.7393 961.196 83.9801C961.377 84.2209 962.765 84.0403 962.826 83.9801C962.886 83.9199 964.334 83.9199 964.455 83.7995C964.576 83.6792 964.395 83.318 964.395 83.318C964.395 83.318 964.334 82.7762 964.395 82.5956C964.455 82.415 964.153 79.4653 963.972 79.2847C963.791 79.1042 964.515 78.5624 964.515 78.5624C964.515 78.5624 964.395 78.0808 963.61 78.0206C963.61 78.0206 963.369 77.6594 963.127 77.6594C962.886 77.6594 962.362 77.9395 962.362 77.9395C962.362 77.9395 962.222 78.743 962.041 78.8032C961.898 78.8731 961.774 78.9763 961.679 79.1042Z" fill="#1D61DA"/>
<path d="M964.093 78.3817L964.515 78.5623C964.515 78.5623 965.722 82.2945 965.602 83.0169C965.481 83.7393 965.179 86.2074 964.998 86.2074C964.817 86.2074 964.455 85.8462 964.455 85.8462V85.2442C964.455 85.1238 964.274 84.7626 964.395 84.7626C964.515 84.7626 964.696 84.6422 964.576 84.5218C964.455 84.4014 964.334 84.2208 964.455 84.0402C964.576 83.8596 964.636 83.7994 964.576 83.6189C964.515 83.4383 964.395 83.2577 964.515 83.1373C964.636 83.0169 964.214 82.4149 964.214 82.4149L963.55 79.7662L963.671 78.6827L964.093 78.3817Z" fill="#1D61DA"/>
<path d="M964.334 84.1004C964.334 84.1004 962.041 83.9198 961.74 83.9198C961.438 83.9198 960.761 83.6364 960.761 83.6364C960.761 83.6364 959.024 85.3645 959.627 88.1938C960.231 91.0231 960.352 94.5145 960.714 95.5379C960.96 96.2675 961.161 97.0113 961.317 97.7652C961.317 97.7652 961.921 96.6816 963.067 97.8856C963.067 97.8856 963.188 96.9826 963.007 96.6214C962.826 96.2602 962.584 94.3339 962.584 94.3339C962.584 94.3339 962.162 91.2639 962.162 90.9027C962.162 90.5415 961.921 87.4714 961.981 87.4112C962.041 87.351 962.343 89.7589 962.403 90.1803C962.464 90.6017 962.645 93.8523 962.826 94.2135C963.007 94.5747 963.852 97.4642 964.334 97.6448C964.817 97.8254 966.447 97.5846 966.386 97.4642C966.326 97.3438 965.903 96.6816 965.783 96.501L965.3 95.7787L964.153 91.8658L964.697 87.1103C964.697 87.1103 964.998 84.0402 964.334 84.1004Z" fill="#2F2E41"/>
<path d="M962.136 76.6059H960.666C960.603 76.6059 960.543 76.5837 960.496 76.5433C960.448 76.5028 960.417 76.4469 960.407 76.3854L960.261 75.4622H962.554L962.349 76.4335C962.339 76.4823 962.312 76.526 962.273 76.5574C962.235 76.5888 962.186 76.6059 962.136 76.6059Z" fill="#2F2E41"/>
<path d="M978.5 81.1H975.5V98.1H978.5V81.1Z" fill="#C9F2FF"/>
<path d="M986.5 81.1H983.5V98.1H986.5V81.1Z" fill="#C9F2FF"/>
<path d="M994.5 81.1H991.5V98.1H994.5V81.1Z" fill="#C9F2FF"/>
<path d="M998.5 96.1H972.5V100.1H998.5V96.1Z" fill="#1D65E9"/>
<path d="M971.5 82.1L985.5 69.1L999.5 82.1H971.5Z" fill="#1D65E9"/>
<path d="M985.5 79.1C986.605 79.1 987.5 78.2045 987.5 77.1C987.5 75.9954 986.605 75.1 985.5 75.1C984.395 75.1 983.5 75.9954 983.5 77.1C983.5 78.2045 984.395 79.1 985.5 79.1Z" fill="#CEF3FE"/>
<path d="M1016.5 53.1V47.8L1020.5 44.8V41.2L1021.5 40.5V43.6H1022.5V39.9L1023 39.6L1015 35L1008.1 39.6L1011.6 41.6V44.8L1015.6 47.8V53.1H1007.6V58.6H1008.6V54.1H1028.6V58.6H1029.6V53.1H1016.5ZM1010 39.6L1015.1 36.2L1021.1 39.6L1016 43L1010 39.6ZM1012.5 44.3V42.2L1016 44.2L1019.5 41.9V44.4L1016 47L1012.5 44.3Z" fill="#666666"/>
<path d="M1030.5 58.1H1006.5V95.1H1030.5V58.1Z" fill="#D4F5FE"/>
<path d="M1018.8 80.6H1017.8V95.1H1018.8V80.6Z" fill="#4D4D4D"/>
<path d="M1025.2 95.1H1024.2V81.1H1012.4V95.1H1011.4V80.1H1025.2V95.1Z" fill="#4D4D4D"/>
<path d="M1016.5 86.1H1014.5V90.1H1016.5V86.1Z" fill="#4D4D4D"/>
<path d="M1022.5 86.1H1020.5V90.1H1022.5V86.1Z" fill="#4D4D4D"/>
<path d="M1031.5 95.1H1005.5V99.1H1031.5V95.1Z" fill="#1D65E9"/>
<path d="M1013.7 69.1H1008.4V75.1H1013.7V69.1Z" fill="#1D65E9"/>
<path d="M1020.7 69.1H1015.4V75.1H1020.7V69.1Z" fill="#1D65E9"/>
<path d="M1027.7 69.1H1022.4V75.1H1027.7V69.1Z" fill="#1D65E9"/>
<path d="M1013.7 62.1H1008.4V68.1H1013.7V62.1Z" fill="#1D65E9"/>
<path d="M1020.7 62.1H1015.4V68.1H1020.7V62.1Z" fill="#1D65E9"/>
<path d="M1027.7 62.1H1022.4V68.1H1027.7V62.1Z" fill="#1D65E9"/>
<path d="M932.5 73.1L928.5 91.1H936.5L932.5 73.1Z" fill="#D4F5FE"/>
<path d="M932.8 80.1H932.3V91.1H932.8V80.1Z" fill="#666666"/>
<path d="M934.253 86.9514L932.26 89.326L932.643 89.6475L934.636 87.2729L934.253 86.9514Z" fill="#666666"/>
<path d="M930.731 85.8939L930.377 86.2474L932.357 88.2273L932.711 87.8738L930.731 85.8939Z" fill="#666666"/>
<path d="M933.329 82.8921L932.312 83.8544L932.656 84.2176L933.673 83.2553L933.329 82.8921Z" fill="#666666"/>
<path d="M946.3 101.1L942.3 119.1H950.3L946.3 101.1Z" fill="#1D65E7"/>
<path d="M946.4 108.1H946.1V119.1H946.4V108.1Z" fill="#1A1A1A"/>
<path d="M948.188 115.041L946.191 117.412L946.421 117.605L948.417 115.234L948.188 115.041Z" fill="#1A1A1A"/>
<path d="M944.304 114.071L944.162 114.212L946.142 116.192L946.284 116.051L944.304 114.071Z" fill="#1A1A1A"/>
<path d="M947.184 110.931L946.167 111.894L946.374 112.112L947.39 111.149L947.184 110.931Z" fill="#1A1A1A"/>
<path d="M1045.3 113.1L1041.3 131.1H1049.3L1045.3 113.1Z" fill="#1D65E7"/>
<path d="M1045.4 120.1H1045.1V131.1H1045.4V120.1Z" fill="#1A1A1A"/>
<path d="M1047.19 127.042L1045.19 129.413L1045.42 129.607L1047.42 127.235L1047.19 127.042Z" fill="#1A1A1A"/>
<path d="M1043.3 126.071L1043.16 126.213L1045.14 128.193L1045.28 128.051L1043.3 126.071Z" fill="#1A1A1A"/>
<path d="M1046.19 122.933L1045.17 123.895L1045.38 124.113L1046.39 123.151L1046.19 122.933Z" fill="#1A1A1A"/>
<path d="M1047.3 61.1L1039.4 96.1H1055.1L1047.3 61.1Z" fill="#1D65E7"/>
<path d="M1047.5 74.6H1047V96.1H1047.5V74.6Z" fill="#1A1A1A"/>
<path d="M1051.04 88.0981L1047.12 92.7708L1047.5 93.0922L1051.42 88.4196L1051.04 88.0981Z" fill="#1A1A1A"/>
<path d="M1043.48 86.1706L1043.12 86.5242L1047.01 90.4132L1047.37 90.0596L1043.48 86.1706Z" fill="#1A1A1A"/>
<path d="M1049.09 80.315L1047.12 82.1707L1047.47 82.5339L1049.43 80.6781L1049.09 80.315Z" fill="#1A1A1A"/>
<path d="M1045.38 22.2484L1041.2 40.7516H1049.5L1045.38 22.2484Z" fill="#1D65E7"/>
<path d="M1045.48 29.3854H1045.22V40.7516H1045.48V29.3854Z" fill="#1A1A1A"/>
<path d="M1047.35 36.5213L1045.28 38.9916L1045.48 39.1615L1047.56 36.6913L1047.35 36.5213Z" fill="#1A1A1A"/>
<path d="M1043.36 35.5023L1043.17 35.6892L1045.23 37.7452L1045.41 37.5582L1043.36 35.5023Z" fill="#1A1A1A"/>
<path d="M1046.32 32.4067L1045.28 33.3877L1045.46 33.5797L1046.5 32.5987L1046.32 32.4067Z" fill="#1A1A1A"/>
<path d="M958 44.1L951.3 74.1H964.7L958 44.1Z" fill="#1D65E7"/>
<path d="M958.3 54.1H957.8V74.1H958.3V54.1Z" fill="#333333"/>
<path d="M961.468 66.6115L957.804 70.9777L958.187 71.2991L961.851 66.9329L961.468 66.6115Z" fill="#333333"/>
<path d="M954.568 64.7587L954.214 65.1123L957.821 68.7185L958.174 68.3649L954.568 64.7587Z" fill="#333333"/>
<path d="M959.715 59.3867L957.899 61.105L958.243 61.4682L960.059 59.7499L959.715 59.3867Z" fill="#333333"/>
<path d="M1077.8 55.1L1073.8 73.1H1081.8L1077.8 55.1Z" fill="#D4F5FE"/>
<path d="M1078 64.1H1077.5V73.1H1078V64.1Z" fill="#666666"/>
<path d="M1079.14 69.6565L1077.54 71.5715L1077.92 71.893L1079.53 69.978L1079.14 69.6565Z" fill="#666666"/>
<path d="M1076.33 68.8376L1075.98 69.1912L1077.6 70.8175L1077.96 70.464L1076.33 68.8376Z" fill="#666666"/>
<path d="M1078.4 66.3938L1077.6 67.1499L1077.94 67.5131L1078.74 66.757L1078.4 66.3938Z" fill="#666666"/>
<path d="M993.5 30L989.5 48H997.5L993.5 30Z" fill="#D4F5FE"/>
<path d="M993.7 39H993.2V48H993.7V39Z" fill="#666666"/>
<path d="M994.844 44.5565L993.237 46.4716L993.62 46.793L995.227 44.878L994.844 44.5565Z" fill="#666666"/>
<path d="M992.032 43.7376L991.678 44.0912L993.305 45.7175L993.658 45.364L992.032 43.7376Z" fill="#666666"/>
<path d="M994.1 41.2937L993.301 42.0498L993.644 42.413L994.443 41.6569L994.1 41.2937Z" fill="#666666"/>
<path d="M1086.14 245.976L1082.5 262.377H1089.79L1086.14 245.976Z" fill="#D4F5FE"/>
<path d="M1086.42 252.354H1085.96V262.377H1086.42V252.354Z" fill="#666666"/>
<path d="M1087.75 258.598L1085.93 260.761L1086.28 261.054L1088.1 258.891L1087.75 258.598Z" fill="#666666"/>
<path d="M1084.53 257.634L1084.21 257.956L1086.01 259.76L1086.33 259.438L1084.53 257.634Z" fill="#666666"/>
<path d="M1086.9 254.905L1085.98 255.781L1086.29 256.112L1087.22 255.236L1086.9 254.905Z" fill="#666666"/>
<path d="M1104.19 270.578L1100.54 286.979H1107.83L1104.19 270.578Z" fill="#FF7E92"/>
<path d="M1104.28 276.956H1104V286.979H1104.28V276.956Z" fill="#1A1A1A"/>
<path d="M1105.9 283.28L1104.08 285.441L1104.29 285.617L1106.11 283.456L1105.9 283.28Z" fill="#1A1A1A"/>
<path d="M1102.37 282.397L1102.24 282.526L1104.04 284.33L1104.17 284.201L1102.37 282.397Z" fill="#1A1A1A"/>
<path d="M1105 279.543L1104.07 280.419L1104.26 280.618L1105.18 279.741L1105 279.543Z" fill="#1A1A1A"/>
<path d="M1167.97 280.601L1164.32 297.002H1171.61L1167.97 280.601Z" fill="#FF7E92"/>
<path d="M1168.06 286.979H1167.79V297.002H1168.06V286.979Z" fill="#1A1A1A"/>
<path d="M1169.68 293.304L1167.86 295.465L1168.07 295.641L1169.89 293.48L1169.68 293.304Z" fill="#1A1A1A"/>
<path d="M1166.15 292.42L1166.02 292.549L1167.82 294.353L1167.95 294.224L1166.15 292.42Z" fill="#1A1A1A"/>
<path d="M1168.78 289.567L1167.85 290.443L1168.04 290.642L1168.97 289.765L1168.78 289.567Z" fill="#1A1A1A"/>
<path d="M1194.39 224.108L1187.19 255.999H1201.5L1194.39 224.108Z" fill="#FF7E92"/>
<path d="M1194.58 236.409H1194.12V255.999H1194.58V236.409Z" fill="#1A1A1A"/>
<path d="M1197.81 248.708L1194.23 252.966L1194.58 253.258L1198.16 249.001L1197.81 248.708Z" fill="#1A1A1A"/>
<path d="M1190.92 246.949L1190.6 247.271L1194.14 250.815L1194.47 250.493L1190.92 246.949Z" fill="#1A1A1A"/>
<path d="M1196.02 241.622L1194.24 243.313L1194.55 243.644L1196.34 241.953L1196.02 241.622Z" fill="#1A1A1A"/>
<path d="M1097.53 210.44L1091.43 237.776H1103.64L1097.53 210.44Z" fill="#FF7E92"/>
<path d="M1097.81 219.552H1097.35V237.776H1097.81V219.552Z" fill="#333333"/>
<path d="M1100.7 230.953L1097.36 234.931L1097.71 235.224L1101.05 231.245L1100.7 230.953Z" fill="#333333"/>
<path d="M1094.42 229.263L1094.09 229.586L1097.38 232.871L1097.7 232.549L1094.42 229.263Z" fill="#333333"/>
<path d="M1099.1 224.375L1097.45 225.941L1097.76 226.272L1099.41 224.706L1099.1 224.375Z" fill="#333333"/>
<path d="M1166.6 204.973L1162.96 221.374H1170.25L1166.6 204.973Z" fill="#D4F5FE"/>
<path d="M1166.78 213.174H1166.33V221.374H1166.78V213.174Z" fill="#666666"/>
<path d="M1167.83 218.238L1166.37 219.983L1166.72 220.276L1168.18 218.531L1167.83 218.238Z" fill="#666666"/>
<path d="M1165.26 217.491L1164.94 217.813L1166.42 219.295L1166.74 218.972L1165.26 217.491Z" fill="#666666"/>
<path d="M1167.15 215.269L1166.42 215.958L1166.74 216.288L1167.46 215.6L1167.15 215.269Z" fill="#666666"/>
<path d="M1120.77 221.375H1110.75V227.753H1120.77V221.375Z" fill="#FF7E92"/>
<path d="M1174.53 229.575H1164.51V235.953H1174.53V229.575Z" fill="#FF7E92"/>
<path d="M1160.41 230.031H1132.16V246.432H1160.41V230.031Z" fill="#CBF3FF"/>
<path d="M1167.24 250.532H1145.37V242.332H1167.24V250.532ZM1146.28 249.621H1166.33V243.243H1146.28V249.621Z" fill="black"/>
<path d="M1139.9 253.266H1125.33V235.042H1139.9V253.266ZM1126.24 252.355H1138.99V235.953H1126.24V252.355Z" fill="black"/>
<path d="M1120.77 249.621H1109.84V242.332H1120.77V249.621ZM1110.75 248.71H1119.86V243.243H1110.75V248.71Z" fill="black"/>
<path d="M1151.75 233.22H1140.82V225.931H1151.75V233.22ZM1141.73 232.309H1150.84V226.842H1141.73V232.309Z" fill="black"/>
<path d="M1141.73 243.243C1141 243.698 1140.63 244.427 1140.82 245.065C1141 245.521 1141.45 245.794 1141.73 245.976C1141.91 246.067 1143.55 246.888 1144.46 245.976C1145.19 245.247 1145.01 243.972 1144.46 243.243C1143.82 242.423 1142.82 242.332 1142.64 242.332" fill="#DAA985"/>
<path d="M1141.18 253.266C1140.72 255.362 1140.27 257.548 1139.9 259.644C1145.92 259.644 1149.02 259.644 1149.02 259.644C1149.02 259.644 1148.1 257.457 1146.37 253.266C1144.64 253.266 1142.91 253.266 1141.18 253.266Z" fill="#8C87A3"/>
<path d="M1137.17 253.721C1136.44 253.721 1134.98 251.99 1133.16 248.983C1133.07 248.801 1133.07 248.528 1133.34 248.345C1133.53 248.254 1133.8 248.254 1133.98 248.528C1136.17 252.172 1137.08 252.719 1137.26 252.901C1137.72 252.81 1138.17 252.263 1138.63 251.352C1138.72 251.17 1138.99 251.079 1139.27 251.17C1139.45 251.261 1139.54 251.535 1139.45 251.808C1138.72 252.992 1137.99 253.721 1137.17 253.721Z" fill="#DAA985"/>
<path d="M1142.09 256.911C1141.91 256.911 1141.73 256.819 1141.73 256.637C1141.64 256.364 1141.73 256.09 1142 255.999H1142.09C1142.55 255.908 1146.46 254.997 1147.74 252.628C1148.1 251.899 1148.29 251.079 1148.2 250.077C1148.2 249.803 1148.38 249.621 1148.65 249.621C1148.92 249.621 1149.11 249.803 1149.11 250.077C1149.2 251.261 1149.02 252.264 1148.56 253.175C1147.1 255.817 1143.09 256.819 1142.36 257.002C1142.18 256.911 1142.18 256.911 1142.09 256.911Z" fill="#DAA985"/>
<path d="M1140.36 247.343C1140.18 247.434 1138.17 248.163 1137.63 250.077C1137.44 250.806 1137.54 251.443 1137.63 251.899C1137.9 252.081 1138.26 252.446 1138.63 252.901C1138.9 253.175 1138.9 253.357 1138.99 253.266C1139.36 253.175 1139.08 250.806 1139.9 250.532C1140.18 250.441 1140.82 250.532 1140.82 250.532V254.177C1140.82 254.177 1142.18 255.088 1143.55 255.088C1144.92 255.088 1146.28 254.177 1146.28 254.177V250.532C1146.28 250.532 1147.01 250.259 1147.19 250.532C1147.19 250.532 1147.28 250.623 1147.19 251.443C1147.19 251.443 1147.83 251.443 1149.02 251.443C1149.84 250.35 1149.84 248.892 1149.02 247.799C1148.2 246.705 1146.74 246.523 1145.83 246.705C1145.64 246.796 1145.46 246.796 1145.37 246.887C1144.55 247.252 1143.18 247.525 1140.36 247.343Z" fill="#B0BDD6"/>
<path d="M1142.64 241.421C1141.73 241.603 1141 241.785 1140.82 242.332C1140.54 243.061 1141.09 244.063 1141.73 244.154C1142.46 244.336 1143.18 243.061 1143.55 243.243C1143.82 243.425 1143.73 244.154 1143.55 245.065C1143.18 247.708 1143 249.074 1143.55 249.621C1144 250.077 1144.92 249.986 1145.37 249.621C1145.83 249.166 1145.46 248.528 1145.37 246.888C1145.28 245.065 1145.64 244.701 1145.37 243.243C1145.19 242.514 1145.1 241.785 1144.46 241.421C1143.91 241.147 1143.37 241.238 1142.64 241.421Z" fill="#202D43"/>
<path d="M1164.05 256.455H1110.29V276.501H1164.05V256.455Z" fill="#FF7E92"/>
<path d="M1290.5 191V254.741C1289.67 254.741 1288.84 254.777 1287.98 254.813V191.647C1288.84 191.431 1289.67 191.216 1290.5 191Z" fill="#E67575" fill-opacity="0.39"/>
<path d="M1283.3 192.905V255.1C1282.48 255.172 1281.65 255.244 1280.78 255.352V193.624C1281.65 193.373 1282.48 193.157 1283.3 192.905Z" fill="#E67575" fill-opacity="0.39"/>
<path d="M1276.11 195.026V256.035C1275.28 256.179 1274.45 256.323 1273.59 256.502V195.817C1274.42 195.566 1275.28 195.278 1276.11 195.026Z" fill="#E67575" fill-opacity="0.39"/>
<path d="M1268.91 197.399V257.653C1268.08 257.869 1267.26 258.12 1266.39 258.372V198.262C1267.22 197.975 1268.08 197.687 1268.91 197.399Z" fill="#E67575" fill-opacity="0.39"/>
<path d="M1261.71 200.024V259.954C1260.89 260.277 1260.02 260.601 1259.2 260.924V201.03C1260.02 200.707 1260.85 200.347 1261.71 200.024Z" fill="#E67575" fill-opacity="0.39"/>
<path d="M1254.52 203.043V263.009C1253.8 263.369 1252.93 263.764 1252 264.268V204.23C1252.83 203.834 1253.65 203.439 1254.52 203.043Z" fill="#E67575" fill-opacity="0.39"/>
<path d="M1247.32 206.603V266.748C1246.49 267.216 1245.67 267.719 1244.8 268.258V208.005C1245.63 207.537 1246.46 207.07 1247.32 206.603Z" fill="#E67575" fill-opacity="0.39"/>
<path d="M1244.8 395.812C1246.28 399.119 1247.21 402.714 1247.32 407.136V408.97C1247.21 413.5 1246.31 417.957 1244.8 422.164V395.812Z" fill="#E67575" fill-opacity="0.39"/>
<path d="M1240.13 210.953V271.314C1239.3 271.889 1238.47 272.536 1237.61 273.183V212.786C1238.4 212.175 1239.26 211.564 1240.13 210.953Z" fill="#E67575" fill-opacity="0.39"/>
<path d="M1237.61 384.344C1238.47 385.566 1239.33 386.716 1240.13 387.867V431.727C1239.33 432.985 1238.51 434.171 1237.61 435.358V384.344Z" fill="#E67575" fill-opacity="0.39"/>
<path d="M1232.93 216.849V277.174C1232.07 277.965 1231.24 278.792 1230.41 279.655V219.365C1231.2 218.538 1232.07 217.711 1232.93 216.849Z" fill="#E67575" fill-opacity="0.39"/>
<path d="M1230.41 373.738C1231.27 375.14 1232.1 376.434 1232.93 377.693V440.642C1232.1 441.433 1231.27 442.188 1230.41 442.907V373.738Z" fill="#E67575" fill-opacity="0.39"/>
<path d="M1225.73 224.722V285.083C1224.87 286.234 1224.01 287.42 1223.21 288.642V228.137C1224.01 226.987 1224.87 225.836 1225.73 224.722Z" fill="#E67575" fill-opacity="0.39"/>
<path d="M1223.21 359.394C1224.04 361.407 1224.87 363.312 1225.73 365.11V446.107C1224.98 446.502 1224.15 446.898 1223.21 447.257V359.394Z" fill="#E67575" fill-opacity="0.39"/>
<path d="M1218.54 235.759V297.522C1217.49 300.003 1216.66 302.519 1216.02 305V240.576C1216.88 238.887 1217.71 237.305 1218.54 235.759Z" fill="#E67575" fill-opacity="0.39"/>
<path d="M1216.02 337.068C1216.74 340.447 1217.64 343.611 1218.54 346.487V448.803C1217.74 449.019 1216.92 449.235 1216.02 449.45V337.068Z" fill="#E67575" fill-opacity="0.39"/>
<path d="M1211.34 250.57V450.457C1210.55 450.601 1209.68 450.78 1208.82 450.924V256.215C1209.68 254.237 1210.55 252.332 1211.34 250.57Z" fill="#E67575" fill-opacity="0.39"/>
<path d="M1204.14 266.82V451.643C1203.32 451.751 1202.49 451.895 1201.62 452.003V272.501C1202.49 270.559 1203.35 268.654 1204.14 266.82Z" fill="#E67575" fill-opacity="0.39"/>
<path d="M1196.95 282.854V452.614C1196.12 452.722 1195.29 452.83 1194.43 452.902V288.355C1195.26 286.557 1196.08 284.724 1196.95 282.854Z" fill="#E67575" fill-opacity="0.39"/>
<path d="M1189.75 298.529V453.405C1188.92 453.477 1188.1 453.585 1187.23 453.657V303.993C1188.06 302.196 1188.89 300.398 1189.75 298.529Z" fill="#E67575" fill-opacity="0.39"/>
<path d="M1182.55 313.988V454.088C1181.83 454.16 1181.11 454.196 1180.4 454.268C1180.29 454.268 1180.14 454.304 1180.04 454.304V319.308C1180.86 317.547 1181.69 315.785 1182.55 313.988Z" fill="#E67575" fill-opacity="0.39"/>
<path d="M1175.36 328.907V454.663C1174.49 454.735 1173.67 454.771 1172.84 454.843V333.94C1173.67 332.323 1174.49 330.633 1175.36 328.907Z" fill="#E67575" fill-opacity="0.39"/>
<path d="M1168.16 342.928V455.166C1167.33 455.202 1166.47 455.274 1165.64 455.31V347.494C1166.47 346.02 1167.3 344.51 1168.16 342.928Z" fill="#E67575" fill-opacity="0.39"/>
<path d="M1160.96 355.475V455.562C1160.14 455.598 1159.27 455.634 1158.45 455.67V359.429C1159.27 358.171 1160.14 356.841 1160.96 355.475Z" fill="#E67575" fill-opacity="0.39"/>
<path d="M1153.77 366.044V455.885C1152.94 455.921 1152.11 455.957 1151.25 455.993V369.208C1152.08 368.201 1152.94 367.159 1153.77 366.044Z" fill="#E67575" fill-opacity="0.39"/>
<path d="M1146.57 374.313V456.173C1145.74 456.209 1144.92 456.209 1144.05 456.245V376.614C1144.92 375.895 1145.74 375.104 1146.57 374.313Z" fill="#E67575" fill-opacity="0.39"/>
<path d="M1139.38 380.137V456.389C1139.02 456.389 1138.66 456.425 1138.3 456.425C1137.83 456.425 1137.32 456.461 1136.86 456.461V381.647C1137.72 381.18 1138.55 380.676 1139.38 380.137Z" fill="#E67575" fill-opacity="0.39"/>
<path d="M1132.18 383.876V456.604C1131.32 456.64 1130.49 456.64 1129.66 456.676V385.026C1130.49 384.631 1131.32 384.271 1132.18 383.876Z" fill="#E67575" fill-opacity="0.39"/>
<path d="M1124.98 387.076V456.784C1124.12 456.82 1123.29 456.82 1122.46 456.856V388.19C1123.29 387.795 1124.12 387.435 1124.98 387.076Z" fill="#E67575" fill-opacity="0.39"/>
<path d="M1117.79 390.06V456.892C1116.92 456.892 1116.1 456.928 1115.27 456.928V391.066C1116.1 390.743 1116.92 390.419 1117.79 390.06Z" fill="#E67575" fill-opacity="0.39"/>
<path d="M1110.59 392.9V457C1109.73 457 1108.9 457 1108.07 457V393.834C1108.9 393.547 1109.73 393.223 1110.59 392.9Z" fill="#E67575" fill-opacity="0.39"/>
<path d="M1103.39 395.524V456.964C1102.53 456.964 1101.7 456.928 1100.87 456.928V396.387C1101.7 396.135 1102.53 395.812 1103.39 395.524Z" fill="#E67575" fill-opacity="0.39"/>
<path d="M1096.2 397.969V456.82C1095.33 456.784 1094.51 456.748 1093.68 456.712V398.76C1094.47 398.508 1095.33 398.22 1096.2 397.969Z" fill="#E67575" fill-opacity="0.39"/>
<path d="M1089 400.162V456.425C1088.14 456.353 1087.31 456.281 1086.48 456.209V400.881C1087.24 400.665 1088.1 400.413 1089 400.162Z" fill="#E67575" fill-opacity="0.39"/>
<path d="M1081.8 402.067V455.67C1080.94 455.562 1080.11 455.418 1079.29 455.274V402.642C1079.54 402.606 1079.79 402.535 1080.01 402.499C1080.01 402.499 1080.62 402.355 1081.8 402.067Z" fill="#E67575" fill-opacity="0.39"/>
<path d="M1074.61 403.685V454.304C1073.74 454.088 1072.92 453.836 1072.09 453.621V404.368C1072.95 404.08 1073.82 403.865 1074.61 403.685Z" fill="#E67575" fill-opacity="0.39"/>
<path d="M1067.41 405.95V451.895C1066.55 451.536 1065.72 451.14 1064.89 450.709V407.028C1065.72 406.633 1066.58 406.274 1067.41 405.95Z" fill="#E67575" fill-opacity="0.39"/>
<path d="M1060.22 409.689V447.904C1059.32 447.293 1058.45 446.682 1057.7 446.071V411.63C1058.52 410.911 1059.35 410.3 1060.22 409.689Z" fill="#E67575" fill-opacity="0.39"/>
<path d="M1053.02 416.627V441.613C1051.94 440.355 1051.15 439.204 1050.5 438.126V420.726C1051.44 418.892 1052.41 417.49 1053.02 416.627Z" fill="#E67575" fill-opacity="0.39"/>
<path d="M1308.5 260.778C1308.24 260.747 1307.96 260.711 1307.65 260.673C1298.02 259.458 1265.44 255.349 1258.17 299.944C1252.3 336.015 1286.22 376.106 1308.5 395.916V260.778Z" fill="#CCF4FE"/>
<path d="M-24.3 159.401C6.1 142.301 41.1 134.301 75.1 136.301C89.1 137.301 104.1 139.301 118.1 142.301C143.1 149.301 165.1 160.301 183.1 178.301C199.1 195.301 208.1 216.301 212.1 239.301C218.1 276.301 208.1 311.301 187.1 343.301C185.1 345.301 184.1 347.301 182.1 350.301C132.1 412.301 42.1 420.301 -24.5 387.001" stroke="#999999" stroke-miterlimit="10" stroke-dasharray="12 12"/>
<path d="M1230.5 72L1240.5 82" stroke="#CAF2FE" stroke-width="3" stroke-linecap="round"/>
<path d="M1240.5 72L1230.5 82" stroke="#CAF2FE" stroke-width="3" stroke-linecap="round"/>
<path d="M33.5 337L43.5 347" stroke="#CAF2FE" stroke-width="3" stroke-linecap="round"/>
<path d="M43.5 337L33.5 347" stroke="#CAF2FE" stroke-width="3" stroke-linecap="round"/>
<path d="M196.795 68L190.5 95.8913H203.011L196.795 68Z" fill="#FED79F"/>
<path d="M196.955 78.7581H196.556V95.8913H196.955V78.7581Z" fill="#1A1A1A"/>
<path d="M199.781 89.5145L196.656 93.238L196.961 93.4942L200.086 89.7707L199.781 89.5145Z" fill="#1A1A1A"/>
<path d="M193.759 87.9763L193.477 88.2581L196.577 91.3572L196.859 91.0754L193.759 87.9763Z" fill="#1A1A1A"/>
<path d="M198.221 83.3173L196.658 84.7961L196.932 85.0856L198.495 83.6068L198.221 83.3173Z" fill="#1A1A1A"/>
<path d="M212.313 89L208.5 105.891H216.077L212.313 89Z" fill="#16DD9A"/>
<path d="M212.409 95.5151H212.168V105.891H212.409V95.5151Z" fill="#1A1A1A"/>
<path d="M214.121 102.029L212.228 104.284L212.413 104.44L214.306 102.185L214.121 102.029Z" fill="#1A1A1A"/>
<path d="M210.474 101.098L210.303 101.269L212.18 103.145L212.351 102.975L210.474 101.098Z" fill="#1A1A1A"/>
<path d="M213.176 98.2764L212.229 99.172L212.395 99.3473L213.342 98.4517L213.176 98.2764Z" fill="#1A1A1A"/>
<path d="M178.635 84L175.5 97.8913H181.731L178.635 84Z" fill="#CCF4FE"/>
<path d="M178.715 89.358H178.516V97.8912H178.715V89.358Z" fill="#1A1A1A"/>
<path d="M180.122 94.7153L178.566 96.5698L178.718 96.6974L180.274 94.8429L180.122 94.7153Z" fill="#1A1A1A"/>
<path d="M177.123 93.9493L176.983 94.0896L178.527 95.6331L178.667 95.4928L177.123 93.9493Z" fill="#1A1A1A"/>
<path d="M179.346 91.6288L178.567 92.3654L178.704 92.5095L179.482 91.773L179.346 91.6288Z" fill="#1A1A1A"/>
<path d="M252.799 77.5054H266.259C266.493 77.5054 266.728 77.6802 266.728 77.9425V78.4234C266.728 78.642 266.54 78.8606 266.259 78.8606H252.799C252.564 78.8606 252.33 78.6857 252.33 78.4234V77.9425C252.33 77.6802 252.564 77.5054 252.799 77.5054Z" fill="#263238"/>
<path d="M266.165 93.9431H266.728L266.071 78.8606H265.227L266.165 93.9431Z" fill="#407BFF"/>
<path opacity="0.6" d="M266.165 93.9431H266.728L266.071 78.8606H265.227L266.165 93.9431Z" fill="#8C6239"/>
<path d="M260.725 93.9431H260.115L260.818 78.8606H261.616L260.725 93.9431Z" fill="#407BFF"/>
<path opacity="0.6" d="M260.725 93.9431H260.115L260.818 78.8606H261.616L260.725 93.9431Z" fill="#8C6239"/>
<path d="M258.38 93.9431H258.942L258.286 78.8606H257.442L258.38 93.9431Z" fill="#407BFF"/>
<path opacity="0.6" d="M258.38 93.9431H258.942L258.286 78.8606H257.442L258.38 93.9431Z" fill="#8C6239"/>
<path d="M252.939 93.9431H252.33L253.033 78.8606H253.83L252.939 93.9431Z" fill="#407BFF"/>
<path opacity="0.6" d="M252.939 93.9431H252.33L253.033 78.8606H253.83L252.939 93.9431Z" fill="#8C6239"/>
<g opacity="0.3">
<path opacity="0.3" d="M266.072 78.8606H265.227L265.274 79.5164H266.072V78.8606Z" fill="#407BFF"/>
<path opacity="0.3" d="M260.772 79.5164H261.569L261.616 78.8606H260.819L260.772 79.5164Z" fill="#407BFF"/>
<path opacity="0.3" d="M257.442 78.8606L257.489 79.5164H258.333L258.286 78.8606H257.442Z" fill="#407BFF"/>
<path opacity="0.3" d="M252.986 79.5164H253.784L253.831 78.8606H253.033L252.986 79.5164Z" fill="#407BFF"/>
</g>
<path d="M258.005 91.7573L256.644 92.4131L254.534 89.7463L255.894 89.0906L258.005 91.7573Z" fill="#FFB573"/>
<path d="M256.176 91.9759L257.583 91.0578C257.629 91.0141 257.676 91.0141 257.723 91.0578L258.567 92.0633C258.661 92.1945 258.614 92.3256 258.521 92.4131C258.052 92.7191 257.817 92.8065 257.16 93.2C256.785 93.4185 255.8 93.9432 255.238 94.1617C254.675 94.3803 254.44 93.8557 254.628 93.7246C255.144 93.3748 255.847 92.6754 256.035 92.1945C256.035 92.107 256.082 92.0633 256.176 91.9759Z" fill="#263238"/>
<path opacity="0.2" d="M255.894 89.0906L254.534 89.7463L255.566 91.0141L256.879 90.3146L255.894 89.0906Z" fill="black"/>
<path d="M259.13 73.3959C259.13 73.3959 248.765 73.0898 248.718 77.1556C248.671 82.97 254.581 90.5768 254.581 90.5768L256.879 89.1341C256.879 89.1341 252.846 83.582 252.799 79.0791C255.847 78.2922 263.07 78.7731 264.008 76.4124C264.758 74.4888 264.383 73.3959 264.383 73.3959H259.13Z" fill="#407BFF"/>
<path d="M259.13 73.3959C259.13 73.3959 248.765 73.0898 248.718 77.1556C248.671 82.97 254.581 90.5768 254.581 90.5768L256.879 89.1341C256.879 89.1341 252.846 83.582 252.799 79.0791C255.847 78.2922 263.07 78.7731 264.008 76.4124C264.758 74.4888 264.383 73.3959 264.383 73.3959H259.13Z" fill="black"/>
<path d="M257.488 89.4839L254.768 91.0577L253.877 90.2708L256.926 88.4784L257.488 89.4839Z" fill="#263238"/>
<path d="M255.894 92.4567C255.988 92.3692 256.082 92.2818 256.175 92.1944V92.1506C256.175 92.1506 256.175 92.1506 256.129 92.1506C256.082 92.1506 255.566 92.1506 255.425 92.3255C255.378 92.3692 255.378 92.4129 255.425 92.4567C255.425 92.5004 255.519 92.5441 255.566 92.5878C255.706 92.5878 255.8 92.5441 255.894 92.4567ZM256.082 92.2381C255.894 92.4129 255.706 92.5004 255.613 92.5004C255.566 92.5004 255.519 92.4567 255.519 92.4129V92.3692C255.566 92.2818 255.847 92.2381 256.082 92.2381Z" fill="#407BFF"/>
<path d="M256.175 92.2382V92.1945C256.175 92.1945 255.941 91.8447 255.753 91.801C255.706 91.801 255.659 91.801 255.613 91.8447C255.566 91.8885 255.566 91.9322 255.566 91.9759C255.613 92.107 255.988 92.2382 256.175 92.2382ZM255.659 91.8447C255.659 91.8447 255.706 91.801 255.753 91.8447C255.894 91.8447 256.035 92.0633 256.128 92.1508C255.941 92.1508 255.706 92.0196 255.659 91.9322C255.613 91.9322 255.613 91.8885 255.659 91.8447C255.659 91.8885 255.659 91.8885 255.659 91.8447Z" fill="#407BFF"/>
<path d="M255.519 93.3748L254.018 93.2873L253.783 90.0085L255.284 90.0523L255.519 93.3748Z" fill="#FFB573"/>
<path d="M253.971 93.0687L255.66 93.025C255.706 93.025 255.753 93.0687 255.753 93.1125L255.894 94.3803C255.894 94.5114 255.8 94.6426 255.66 94.6426C255.05 94.6426 254.768 94.6426 254.018 94.6426C253.549 94.6426 252.658 94.73 252.048 94.6426C251.439 94.5551 251.532 93.9868 251.767 93.9868C252.423 93.9431 253.268 93.5059 253.69 93.1999C253.784 93.0687 253.877 93.0687 253.971 93.0687Z" fill="#263238"/>
<path d="M253.455 93.3312C253.596 93.3312 253.737 93.2875 253.877 93.2875L253.924 93.2437C253.877 93.2 253.455 92.9377 253.268 93.0252C253.221 93.0252 253.174 93.0689 253.174 93.1126C253.174 93.1563 253.174 93.2437 253.221 93.2875C253.268 93.2875 253.361 93.3312 253.455 93.3312ZM253.784 93.2C253.502 93.2437 253.315 93.2437 253.221 93.2C253.174 93.1563 253.174 93.1126 253.174 93.0689C253.174 93.0689 253.174 93.0252 253.221 93.0252C253.315 92.9814 253.596 93.1126 253.784 93.2Z" fill="#407BFF"/>
<path d="M253.831 93.2436C253.877 93.2436 253.877 93.2436 253.831 93.2436C253.877 93.2436 253.877 93.2436 253.831 93.2436C253.877 93.1999 253.877 92.8065 253.737 92.6753C253.69 92.6316 253.643 92.6316 253.596 92.6316C253.549 92.6316 253.502 92.6753 253.455 92.719C253.455 92.8939 253.69 93.1562 253.831 93.2436ZM253.643 92.6753C253.69 92.6753 253.69 92.6753 253.737 92.719C253.831 92.8065 253.831 93.025 253.831 93.1562C253.69 93.0688 253.549 92.8502 253.549 92.719C253.549 92.719 253.549 92.6753 253.643 92.6753Z" fill="#407BFF"/>
<path opacity="0.2" d="M255.284 90.0523L253.783 90.0085L253.924 91.8884H255.425L255.284 90.0523Z" fill="black"/>
<path d="M262.788 73.3959C262.788 73.3959 251.954 74.3577 252.33 77.4179C252.892 81.7896 253.174 91.2763 253.174 91.2763L255.941 91.3637C255.941 91.3637 257.113 82.8388 256.504 78.3359C259.318 78.3359 266.165 78.5108 266.822 76.937C267.385 75.538 267.197 73.3959 267.197 73.3959H262.788Z" fill="black"/>
<path d="M256.269 91.5386L252.939 91.3638L252.845 90.0085L256.457 90.2708L256.269 91.5386Z" fill="#263238"/>
<path d="M260.396 64.4776C260.396 64.7399 260.349 64.9585 260.303 65.1771C260.256 65.3957 260.256 65.6143 260.209 65.8329C260.115 66.27 260.021 66.7072 259.927 67.1881C259.693 68.1062 259.365 69.0242 258.896 69.8549C258.755 70.0735 258.614 70.3358 258.427 70.5106C258.239 70.7292 257.958 70.9478 257.723 71.1227C257.207 71.4287 256.597 71.6473 255.988 71.691C255.425 71.7347 254.909 71.691 254.346 71.5598C254.112 71.5161 253.83 71.4287 253.596 71.3413C253.455 71.2975 253.361 71.2538 253.221 71.2101C253.08 71.1664 252.986 71.1227 252.845 71.0352L253.268 70.0297L253.549 70.0735L253.877 70.1172C254.112 70.1172 254.299 70.1609 254.487 70.1609C254.862 70.1609 255.237 70.1172 255.613 70.0297C255.894 69.9423 256.175 69.8111 256.41 69.6363C256.504 69.5488 256.597 69.4614 256.691 69.3303C256.785 69.1991 256.879 69.0679 256.926 68.8931C257.113 68.5433 257.207 68.1936 257.348 67.8439C257.489 67.4504 257.582 67.1007 257.629 66.6635C257.723 66.27 257.77 65.8766 257.864 65.4394L257.958 64.8274C258.004 64.6088 258.004 64.4339 258.051 64.259L260.396 64.4776Z" fill="#FFB573"/>
<path d="M260.396 63.2972C259.271 62.2917 257.911 62.9038 257.395 64.7836C257.067 65.7891 256.879 66.7946 256.785 67.8438L260.303 68.4996C260.912 66.7072 261.522 64.3027 260.396 63.2972Z" fill="#F15A24"/>
<path opacity="0.3" d="M259.271 65.3083C259.505 65.0897 260.256 66.0515 260.678 67.1882C260.537 67.6253 260.396 68.0625 260.256 68.456L258.145 68.0625C258.333 66.9258 258.708 65.7892 259.271 65.3083Z" fill="black"/>
<path d="M253.08 69.5926L252.283 69.3303L252.236 70.9041C252.236 70.9041 253.549 71.4288 253.83 70.8167L253.737 70.4233C253.643 70.0298 253.408 69.7675 253.08 69.5926Z" fill="#FFB573"/>
<path d="M251.345 69.3302L250.876 70.6417L252.236 70.8603L252.283 69.2865L251.345 69.3302Z" fill="#FFB573"/>
<path d="M252.517 70.3795C252.47 70.3795 252.47 70.3795 252.423 70.3358L251.016 67.8002C251.016 67.7565 251.016 67.7128 251.063 67.6691C251.11 67.6691 251.157 67.6691 251.204 67.7128L252.611 70.2484C252.658 70.2921 252.611 70.3358 252.517 70.3795C252.564 70.3795 252.564 70.3795 252.517 70.3795Z" fill="#263238"/>
<path d="M260.256 62.2917L261.944 61.8545L264.102 61.7671C264.758 61.7234 265.368 62.1168 265.602 62.7289C266.025 63.9093 266.4 65.6142 266.681 67.0569C267.009 68.7182 267.15 71.1663 267.197 73.4396H259.13C258.943 68.7619 258.286 66.0077 258.005 64.4339C257.911 63.8218 258.239 63.2098 258.849 62.9475L260.256 62.2917Z" fill="#F15A24"/>
<path opacity="0.3" d="M266.681 67.0568C266.447 65.9202 266.165 64.6087 265.884 63.5157C264.43 63.2971 263.726 66.2262 264.195 67.7126C264.664 69.199 266.916 68.2809 266.916 68.2809C266.822 67.8438 266.775 67.4066 266.681 67.0568Z" fill="black"/>
<path d="M261.287 59.2751L260.631 60.1932L259.74 61.461C259.833 61.5485 259.927 61.6796 260.021 61.8545C260.162 62.1605 260.302 62.3791 259.646 62.8163C259.505 62.9037 259.411 63.0786 259.458 63.2534C259.505 63.472 259.693 63.6469 260.443 63.5157C261.147 63.3846 261.803 63.0348 262.319 62.554C262.554 62.3354 262.507 62.1605 262.272 61.8982C261.569 61.2424 261.334 60.1495 261.287 59.2751Z" fill="#FFB573"/>
<path opacity="0.2" d="M259.974 61.1551L260.537 60.2371C260.537 60.2808 260.584 60.2808 260.584 60.3245C260.631 60.4556 260.678 60.5431 260.678 60.6742C260.772 61.0677 260.443 61.636 260.068 61.942L260.021 61.8546C259.974 61.7235 259.88 61.5923 259.787 61.5049L259.974 61.1551Z" fill="black"/>
<path d="M261.006 57.6141C261.334 58.9256 261.569 59.7125 261.053 60.5432C260.303 61.811 258.38 61.6361 257.629 60.412C256.973 59.3191 256.597 57.3081 257.817 56.4337C258.708 55.8217 259.974 55.9966 260.678 56.8272C260.818 57.0895 260.959 57.3518 261.006 57.6141Z" fill="#FFB573"/>
<path d="M265.321 62.7289C265.462 62.9475 265.602 63.1661 265.743 63.4284C265.884 63.6469 265.977 63.8655 266.118 64.1278C266.353 64.565 266.587 65.0459 266.822 65.5268C267.056 66.0077 267.244 66.4886 267.384 67.0132C267.572 67.5378 267.666 68.1061 267.76 68.6745C267.807 69.0242 267.76 69.3302 267.713 69.68C267.666 69.8985 267.619 70.1171 267.525 70.292C267.384 70.5106 267.244 70.7292 267.056 70.8603C266.869 70.9915 266.681 71.1226 266.446 71.2101C266.259 71.2975 266.071 71.3412 265.884 71.3412C265.555 71.3849 265.227 71.3849 264.852 71.3849C264.57 71.3412 264.242 71.2975 263.961 71.2538C263.679 71.2101 263.398 71.1226 263.117 71.0352C262.601 70.8603 262.038 70.6855 261.569 70.4231L261.991 69.4176C262.976 69.5925 264.008 69.7674 264.899 69.68C265.086 69.68 265.274 69.6362 265.462 69.5925C265.602 69.5488 265.696 69.4614 265.696 69.4614C265.696 69.4614 265.696 69.4614 265.696 69.3739C265.696 69.1991 265.696 69.0242 265.649 68.893C265.555 68.4559 265.462 68.0624 265.274 67.6689C265.133 67.2318 264.946 66.7946 264.711 66.4011C264.524 65.964 264.289 65.5268 264.055 65.1333C263.961 64.9148 263.82 64.6962 263.679 64.5213L263.304 63.9093L265.321 62.7289Z" fill="#FFB573"/>
<path d="M264.617 61.7672C263.117 61.5486 262.366 62.7727 263.07 64.6088C263.445 65.6143 263.914 66.5323 264.477 67.4504L267.76 66.0952C267.15 64.259 266.165 61.9857 264.617 61.7672Z" fill="#F15A24"/>
<path d="M261.1 69.2866L260.396 69.5052L261.381 70.8167C261.381 70.8167 262.882 70.3358 262.554 69.7238L262.179 69.5052C261.897 69.3304 261.475 69.1555 261.1 69.2866Z" fill="#FFB573"/>
<path d="M259.787 70.3795L260.49 71.0352L261.381 70.7729L260.396 69.4614L259.787 70.3795Z" fill="#FFB573"/>
<path d="M264.899 70.2484H266.681C266.728 70.2484 266.775 70.2921 266.775 70.3358V70.467C266.775 70.5107 266.728 70.5544 266.681 70.5544H264.899C264.852 70.5544 264.805 70.5107 264.805 70.467V70.3358C264.805 70.2921 264.852 70.2484 264.899 70.2484Z" fill="white"/>
<path d="M261.241 60.1496C261.241 60.1496 262.366 58.7944 262.179 57.92C261.991 57.0457 260.772 57.308 260.772 57.308C261.944 57.7014 262.132 58.0075 262.179 57.92C262.226 57.8326 262.132 57.2643 261.85 56.7396C261.288 55.7779 261.381 55.8653 261.381 55.8653C261.241 55.7341 260.865 55.603 260.772 55.5593C260.303 55.4281 260.584 55.1658 260.115 54.8598C259.74 54.6412 259.505 54.991 258.755 54.9472C257.817 54.9035 258.145 54.3789 257.02 54.6412C256.691 54.7286 256.785 55.1658 256.41 55.3844C256.129 55.5156 255.988 55.3844 255.8 55.5156C255.425 55.7779 255.331 56.6522 255.8 57.1331C256.222 57.5703 256.973 57.4828 257.395 57.4391C258.708 57.2643 259.271 56.4336 260.068 56.6959C260.303 56.7834 260.443 56.9145 260.537 57.002" fill="#263238"/>
<path d="M261.897 58.6195C261.897 58.9255 261.803 59.2315 261.616 59.4501C261.334 59.7561 260.912 59.4938 260.819 59.1441C260.725 58.7943 260.865 58.2697 261.194 58.1386C261.522 57.9637 261.85 58.226 261.897 58.6195Z" fill="#FFB573"/>
<path d="M277.937 71.5161H234.226C233.945 71.5161 233.71 71.2975 233.71 71.0352C233.71 70.7729 233.945 70.5543 234.226 70.5543H277.937C278.219 70.5543 278.453 70.7729 278.453 71.0352C278.5 71.2975 278.265 71.5161 277.937 71.5161Z" fill="#8C6239"/>
<path opacity="0.3" d="M277.937 71.5161H267.713C267.432 71.5161 267.197 71.2975 267.197 71.0352C267.197 70.7729 267.432 70.5543 267.713 70.5543H277.937C278.219 70.5543 278.453 70.7729 278.453 71.0352C278.5 71.2975 278.265 71.5161 277.937 71.5161Z" fill="#263238"/>
<path d="M277.468 94.5986H278.5L277.327 71.5159H275.92L277.468 94.5986Z" fill="#263238"/>
<path opacity="0.1" d="M277.468 94.5986H278.5L277.327 71.5159H275.92L277.468 94.5986Z" fill="white"/>
<path d="M268.182 94.5986H267.197L268.37 71.5159H269.73L268.182 94.5986Z" fill="#263238"/>
<path opacity="0.2" d="M268.182 94.5986H267.197L268.37 71.5159H269.73L268.182 94.5986Z" fill="white"/>
<path d="M243.982 94.5986H244.966L243.841 71.5159H242.434L243.982 94.5986Z" fill="#263238"/>
<path opacity="0.1" d="M243.982 94.5986H244.966L243.841 71.5159H242.434L243.982 94.5986Z" fill="white"/>
<path d="M234.695 94.5986H233.664L234.836 71.5159H236.243L234.695 94.5986Z" fill="#263238"/>
<path opacity="0.2" d="M234.695 94.5986H233.664L234.836 71.5159H236.243L234.695 94.5986Z" fill="white"/>
<path d="M268.745 72.7401H235.117V74.6637H268.745V72.7401Z" fill="#263238"/>
<path opacity="0.2" d="M268.745 72.7401H235.117V74.6637H268.745V72.7401Z" fill="white"/>
<path d="M240.652 69.2427C240.511 69.2427 240.417 69.3301 240.417 69.4613V70.3356C240.417 70.4668 240.511 70.5542 240.652 70.5542H247.827C247.874 70.5542 247.921 70.5105 247.921 70.4668V69.2864C247.921 69.2427 247.874 69.199 247.827 69.199L240.652 69.2427Z" fill="#009245"/>
<path opacity="0.9" d="M244.92 69.3738H247.921V70.423H244.92C244.826 70.423 244.779 70.3793 244.779 70.2918V69.5049C244.779 69.4175 244.826 69.3738 244.92 69.3738Z" fill="white"/>
<path d="M237.181 69.2427H244.404C244.544 69.2427 244.638 69.3301 244.638 69.4613V70.3356C244.638 70.4668 244.544 70.5542 244.404 70.5542H237.181C237.04 70.5542 236.947 70.4668 236.947 70.3356V69.4613C236.947 69.3301 237.087 69.2427 237.181 69.2427Z" fill="#407BFF"/>
<path d="M237.181 69.2427H244.404C244.544 69.2427 244.638 69.3301 244.638 69.4613V70.3356C244.638 70.4668 244.544 70.5542 244.404 70.5542H237.181C237.04 70.5542 236.947 70.4668 236.947 70.3356V69.4613C236.947 69.3301 237.087 69.2427 237.181 69.2427Z" fill="#009245"/>
<path opacity="0.5" d="M239.761 69.2427H240.839C240.886 69.2427 240.933 69.2864 240.933 69.3301V70.4668C240.933 70.5105 240.886 70.5542 240.839 70.5542H239.761C239.714 70.5542 239.667 70.5105 239.667 70.4668V69.3301C239.667 69.2864 239.714 69.2427 239.761 69.2427Z" fill="#006837"/>
<path opacity="0.5" d="M241.355 69.2427H242.434C242.481 69.2427 242.528 69.2864 242.528 69.3301V70.4668C242.528 70.5105 242.481 70.5542 242.434 70.5542H241.355C241.308 70.5542 241.261 70.5105 241.261 70.4668V69.3301C241.261 69.2864 241.308 69.2427 241.355 69.2427Z" fill="#006837"/>
<path d="M239.385 67.6251C239.245 67.6251 239.151 67.7126 239.151 67.8437V69.0241C239.151 69.1552 239.245 69.2427 239.385 69.2427H247.124C247.171 69.2427 247.218 69.199 247.218 69.1552V67.6689C247.218 67.6251 247.171 67.5814 247.124 67.5814L239.385 67.6251Z" fill="#C1272D"/>
<path opacity="0.9" d="M243.607 67.7563H247.171V69.1116H243.607C243.513 69.1116 243.466 69.0679 243.466 68.9804V67.8875C243.513 67.8438 243.56 67.7563 243.607 67.7563Z" fill="white"/>
<path d="M237.04 67.6252H243.137C243.278 67.6252 243.372 67.7127 243.372 67.8438V69.0242C243.372 69.1554 243.278 69.2428 243.137 69.2428H237.04C236.9 69.2428 236.806 69.1554 236.806 69.0242V67.8438C236.806 67.7564 236.9 67.6252 237.04 67.6252Z" fill="#C1272D"/>
<path opacity="0.6" d="M238.119 67.9749H242.575C242.669 67.9749 242.715 68.0186 242.715 68.106V68.8055C242.715 68.8929 242.669 68.9366 242.575 68.9366H238.119C238.025 68.9366 237.979 68.8929 237.979 68.8055V68.106C237.979 68.0186 238.025 67.9749 238.119 67.9749Z" fill="#C69C6D"/>
<path d="M241.637 66.882C241.496 66.882 241.402 66.9257 241.402 67.0131V67.5377C241.402 67.6252 241.496 67.6689 241.637 67.6689H248.812C248.859 67.6689 248.906 67.6689 248.906 67.6252V66.9257C248.859 66.882 248.859 66.882 248.812 66.882H241.637Z" fill="#407BFF"/>
<path opacity="0.9" d="M245.858 66.9695H248.859V67.5815H245.858C245.811 67.5815 245.764 67.5378 245.764 67.4941V67.0569C245.764 66.9695 245.811 66.9695 245.858 66.9695Z" fill="white"/>
<path d="M238.119 66.882H245.436C245.529 66.882 245.623 66.9694 245.623 67.0568V67.494C245.623 67.5814 245.529 67.6689 245.436 67.6689H238.119C238.025 67.6689 237.932 67.5814 237.932 67.494V67.0568C237.932 66.9257 238.025 66.882 238.119 66.882Z" fill="#407BFF"/>
<path opacity="0.2" d="M238.119 66.882H245.436C245.529 66.882 245.623 66.9694 245.623 67.0568V67.494C245.623 67.5814 245.529 67.6689 245.436 67.6689H238.119C238.025 67.6689 237.932 67.5814 237.932 67.494V67.0568C237.932 66.9257 238.025 66.882 238.119 66.882Z" fill="black"/>
<path opacity="0.5" d="M238.823 66.882H239.057C239.057 66.882 239.104 66.882 239.104 66.9257V67.6252C239.104 67.6252 239.104 67.6689 239.057 67.6689H238.823C238.823 67.6689 238.776 67.6689 238.776 67.6252L238.823 66.882C238.776 66.882 238.776 66.882 238.823 66.882Z" fill="#407BFF"/>
<path opacity="0.5" d="M244.779 66.882H245.013C245.013 66.882 245.06 66.882 245.06 66.9257V67.6252C245.06 67.6252 245.06 67.6689 245.013 67.6689H244.779C244.779 67.6689 244.732 67.6689 244.732 67.6252L244.779 66.882C244.732 66.882 244.732 66.882 244.779 66.882Z" fill="#407BFF"/>
<path d="M240.37 65.7891C240.23 65.7891 240.136 65.8328 240.136 65.9202V66.7946C240.136 66.882 240.23 66.9257 240.37 66.9257H248.109C248.156 66.9257 248.203 66.9257 248.203 66.882V65.8328C248.203 65.7891 248.156 65.7891 248.109 65.7891H240.37V65.7891Z" fill="#4D4D4D"/>
<path opacity="0.9" d="M244.544 65.8328H248.156V66.7945H244.544C244.497 66.7945 244.45 66.7508 244.45 66.7071V65.9202C244.45 65.8765 244.497 65.8328 244.544 65.8328Z" fill="white"/>
<path d="M237.978 65.7891H244.169C244.263 65.7891 244.357 65.8765 244.357 65.9639V66.7508C244.357 66.8383 244.263 66.9257 244.169 66.9257H237.978C237.885 66.9257 237.791 66.8383 237.791 66.7508V65.9639C237.791 65.8328 237.885 65.7891 237.978 65.7891Z" fill="#808080"/>
<path d="M257.63 70.2921H251.157C251.064 70.2921 251.017 70.3358 251.017 70.4233C251.017 70.5107 251.064 70.5544 251.157 70.5544H257.676C257.77 70.5544 257.817 70.5107 257.817 70.4233C257.77 70.3358 257.723 70.2921 257.63 70.2921Z" fill="white"/>
<path d="M270.386 70.0297H274.654L275.076 70.5543H270.011L270.386 70.0297Z" fill="#263238"/>
<path d="M276.999 61.1113C276.999 61.4173 276.765 61.6359 276.437 61.6359C276.108 61.6359 275.874 61.4173 275.874 61.1113C275.874 60.8053 276.108 60.5867 276.437 60.5867C276.718 60.543 276.999 60.8053 276.999 61.1113Z" fill="black"/>
<path d="M272.684 70.3794C272.591 70.3794 272.497 70.292 272.497 70.2045C272.497 70.1608 272.497 70.1608 272.497 70.1608L276.624 61.0676C276.671 60.9802 276.765 60.9364 276.859 60.9802C276.952 61.0239 276.952 61.1113 276.952 61.1988L272.825 70.292C272.825 70.3357 272.731 70.3794 272.684 70.3794Z" fill="#263238"/>
<path d="M276.812 61.2861C276.765 61.2861 276.718 61.2861 276.718 61.2424L269.214 55.9963C269.12 55.9526 269.12 55.8215 269.167 55.7778C269.214 55.6903 269.355 55.6903 269.402 55.734L276.906 60.9801C276.999 61.0238 276.999 61.155 276.952 61.1987C276.906 61.2424 276.859 61.2861 276.812 61.2861Z" fill="#263238"/>
<path d="M277.374 61.1113C277.374 61.4173 277.14 61.6359 276.812 61.6359C276.483 61.6359 276.249 61.4173 276.249 61.1113C276.249 60.8053 276.483 60.5867 276.812 60.5867C277.093 60.543 277.374 60.8053 277.374 61.1113Z" fill="#263238"/>
<path d="M269.308 56.3897C269.619 56.3897 269.87 56.1548 269.87 55.8651C269.87 55.5753 269.619 55.3405 269.308 55.3405C268.997 55.3405 268.745 55.5753 268.745 55.8651C268.745 56.1548 268.997 56.3897 269.308 56.3897Z" fill="#263238"/>
<path d="M268.51 58.3134C267.995 58.7943 267.197 58.7943 266.681 58.3134C266.165 57.8326 266.165 57.0894 266.681 56.6085C267.197 56.1276 267.995 56.1276 268.51 56.6085C268.979 57.0894 268.979 57.8326 268.51 58.3134Z" fill="#407BFF"/>
<path opacity="0.7" d="M268.51 58.3134C267.995 58.7943 267.197 58.7943 266.681 58.3134C266.165 57.8326 266.165 57.0894 266.681 56.6085C267.197 56.1276 267.995 56.1276 268.51 56.6085C268.979 57.0894 268.979 57.8326 268.51 58.3134Z" fill="white"/>
<path d="M269.308 55.8652C268.229 54.8597 266.494 54.8597 265.415 55.8652L269.308 59.4938C270.386 58.4883 270.386 56.8707 269.308 55.8652Z" fill="#263238"/>
<g opacity="0.2">
<path opacity="0.2" d="M265.415 55.7341L249 70.4232H265.837L269.308 59.4064L265.415 55.7341Z" fill="#407BFF"/>
<path opacity="0.7" d="M265.415 55.9089L249 70.5543H265.837L269.308 59.5375L265.415 55.9089Z" fill="#FFFF00"/>
</g>
<path fill-rule="evenodd" clip-rule="evenodd" d="M220.618 60L214.5 82H226.5L220.618 60Z" fill="#F7931E"/>
<path d="M220.22 81.4954L220.772 64.7013L221.141 81.4954H220.22Z" fill="black"/>
<path d="M220.619 78.1194L224.149 76.8892L220.957 78.7774L220.619 78.1194Z" fill="black"/>
<path d="M220.435 75.8592L217.826 73.1985L220.957 75.287L220.435 75.8592Z" fill="black"/>
<path d="M220.527 71.8538L222.645 69.5649L220.864 72.0826L220.527 71.8538Z" fill="black"/>
<path d="M128.017 240.275H115.96V247.967H128.017V240.275Z" fill="#1D61DA"/>
<path d="M68.1004 237.581H56.0435V245.273H68.1004V237.581Z" fill="#1D61DA"/>
<path d="M44.8237 286.525C44.7845 287.078 44.7231 287.697 44.6282 288.347L46.3422 286.451L46.3516 286.482C46.2468 286.026 46.078 285.587 45.8503 285.177L45.8612 285.207L44.8237 286.525Z" fill="#1D61DA"/>
<path d="M44.8303 286.427L45.8354 285.152C45.6216 284.762 45.3123 284.434 44.9364 284.196C44.918 284.185 44.8995 284.175 44.881 284.165C44.8865 284.315 44.9128 285.2 44.8303 286.427Z" fill="#1D61DA"/>
<path d="M43.9237 291.429C43.8795 291.564 43.8339 291.695 43.7869 291.825L46.3111 290.348L46.3146 290.385C46.3673 290.156 46.4113 289.926 46.4464 289.697L43.926 291.446L43.9237 291.429Z" fill="#1D61DA"/>
<path d="M44.2747 290.19L46.5481 288.32L46.5545 288.355C46.5625 287.737 46.4971 287.12 46.3596 286.516L44.6129 288.449C44.5212 289.058 44.4084 289.638 44.2747 290.19Z" fill="#1D61DA"/>
<path d="M44.574 288.412L41.8537 285.384L41.8683 285.35C41.6126 285.709 41.3939 286.093 41.2156 286.496L44.3198 289.793C44.4262 289.312 44.5092 288.846 44.574 288.412Z" fill="#1D61DA"/>
<path d="M41.186 286.564L41.1861 286.564C41.191 286.553 41.1953 286.541 41.2002 286.53L41.186 286.564Z" fill="#1D61DA"/>
<path d="M41.0347 286.936L41.0208 286.97C41.0252 286.958 41.0303 286.948 41.0348 286.936L41.0347 286.936Z" fill="#1D61DA"/>
<path d="M44.3019 289.873L41.1863 286.565C41.1336 286.685 41.0832 286.809 41.0349 286.936L44.2192 290.223C44.2482 290.106 44.2757 289.989 44.3019 289.873Z" fill="#1D61DA"/>
<path d="M46.453 289.652C46.5151 289.236 46.5489 288.816 46.5542 288.396L44.2501 290.291C44.1588 290.659 44.0583 291.012 43.9487 291.351L46.4481 289.616L46.453 289.652Z" fill="#1D61DA"/>
<path d="M40.6216 289.888L43.1436 293.17C43.3508 292.771 43.5338 292.359 43.6916 291.938L40.6143 288.714C40.5838 289.117 40.5805 289.522 40.6042 289.925L40.6216 289.888Z" fill="#1D61DA"/>
<path d="M44.835 284.162L44.8576 284.152C44.3053 283.857 43.7074 283.889 43.1343 284.187L44.786 286.425C44.8749 285.097 44.8356 284.175 44.835 284.162Z" fill="#1D61DA"/>
<path d="M43.705 292.044C43.5603 292.423 43.3949 292.794 43.2097 293.155L45.7465 291.846L45.7491 291.883C45.9402 291.561 46.0896 291.216 46.1938 290.856C46.2341 290.715 46.2709 290.573 46.3042 290.431L43.7499 291.924C43.735 291.964 43.7202 292.005 43.705 292.044Z" fill="#1D61DA"/>
<path d="M44.7793 286.524L43.0897 284.235L43.1055 284.202C42.6219 284.481 42.2064 284.864 41.8887 285.322L44.5868 288.325C44.6802 287.682 44.7406 287.071 44.7793 286.524Z" fill="#1D61DA"/>
<path d="M43.7193 291.864C43.9074 291.352 44.0678 290.831 44.1997 290.302L41.0074 287.006C40.9314 287.212 40.8617 287.426 40.7981 287.648C40.7098 287.967 40.6509 288.294 40.6221 288.623L43.7169 291.866L43.7193 291.864Z" fill="#1D61DA"/>
<path d="M46.9981 295.42C46.6142 295.821 46.1712 296.258 45.6824 296.699L48.2149 296.329L48.2019 296.359C48.4129 295.941 48.5638 295.495 48.6502 295.035L48.6394 295.065L46.9981 295.42Z" fill="#1D61DA"/>
<path d="M48.574 293.698C48.5668 293.678 48.5591 293.658 48.5514 293.639C48.4593 293.758 47.9139 294.456 47.0654 295.349L48.6553 295.006C48.7395 294.57 48.7115 294.12 48.574 293.698V293.698Z" fill="#1D61DA"/>
<path d="M43.1686 298.625C43.0488 298.7 42.9295 298.773 42.8105 298.842L45.6987 299.311L45.6777 299.342C45.8651 299.199 46.0457 299.05 46.2195 298.895L43.1596 298.639L43.1686 298.625Z" fill="#1D61DA"/>
<path d="M44.2314 297.894L47.1782 297.9L47.1608 297.931C47.5624 297.46 47.9066 296.943 48.1863 296.391L45.6055 296.768C45.1454 297.178 44.6874 297.554 44.2314 297.894Z" fill="#1D61DA"/>
<path d="M43.238 298.581L46.2725 298.834L46.2531 298.865C46.567 298.584 46.8615 298.282 47.1346 297.962L44.148 297.956C43.8427 298.181 43.5393 298.389 43.238 298.581Z" fill="#1D61DA"/>
<path d="M39.5213 300.079C39.5428 300.057 39.5655 300.033 39.588 300.01C40.2067 299.912 40.8113 299.74 41.3888 299.497L41.4712 297.316C41.4957 297.26 41.5195 297.204 41.5426 297.148L41.4548 299.47C41.8698 299.294 42.2739 299.093 42.6649 298.869L42.3831 294.814C42.4048 294.802 42.4267 294.791 42.4492 294.779L42.7307 298.829L42.7334 298.83C43.2056 298.555 43.6625 298.255 44.1024 297.932L43.7955 293.941C43.8172 293.925 43.8389 293.91 43.8607 293.894L44.1675 297.884C44.2648 297.812 44.3607 297.74 44.455 297.667L44.2018 293.627C44.2235 293.609 44.2452 293.592 44.2668 293.574L44.5201 297.617C44.9097 297.314 45.2715 297.008 45.5989 296.715L45.4397 292.652L45.4728 292.635C45.3597 292.664 45.2448 292.699 45.1289 292.737C45.3468 292.489 45.5429 292.222 45.7149 291.94L43.1538 293.262C42.9765 293.598 42.7771 293.922 42.5569 294.232C42.5112 294.275 42.4654 294.318 42.4203 294.363L42.4237 294.411C42.4028 294.439 42.382 294.466 42.3608 294.493L42.3563 294.428C42.3239 294.461 42.2924 294.496 42.2605 294.53C42.5848 294.126 42.8694 293.692 43.1104 293.234L40.607 289.976C40.624 290.267 40.6526 290.56 40.6893 290.851C40.4568 290.474 40.1746 290.13 39.85 289.828L39.8698 289.853L39.2912 291.426C39.4253 291.964 39.5587 292.571 39.6699 293.219L40.6981 290.919C40.7028 290.955 40.7078 290.991 40.7127 291.027L39.687 293.321C39.7885 293.928 39.8611 294.515 39.905 295.081L41.1361 293.152C41.1431 293.18 41.1501 293.208 41.1572 293.235L39.9128 295.185C39.9399 295.563 39.9538 295.93 39.9547 296.286L41.4596 294.306C41.4676 294.332 41.4755 294.357 41.4833 294.382L39.9625 296.383L39.9551 296.368C39.9546 296.509 39.9521 296.649 39.9474 296.786L41.6449 294.88C41.6539 294.906 41.6623 294.931 41.67 294.953L39.9431 296.892C39.9414 296.935 39.9398 296.978 39.9376 297.02C39.9174 297.425 39.8751 297.829 39.8109 298.23L39.9747 298.064C39.9437 298.128 39.9135 298.192 39.8841 298.254L39.7908 298.348C39.7801 298.41 39.768 298.469 39.7562 298.53C39.7218 298.605 39.6887 298.678 39.6568 298.75C39.6876 298.613 39.7163 298.474 39.7408 298.335L36.3503 296.008C37.2349 298.265 38.9006 300.413 39.0072 300.549C39.0938 300.388 39.1724 300.222 39.2446 300.052C39.2656 300.05 39.2866 300.048 39.3076 300.046C39.2989 300.067 39.2899 300.088 39.2811 300.108C39.2705 300.109 39.2598 300.111 39.2492 300.112C39.2575 300.114 39.2673 300.117 39.2763 300.119C39.2254 300.238 39.1727 300.354 39.1161 300.467C39.1901 300.4 39.3028 300.295 39.4376 300.162C40.2349 300.365 42.3826 300.799 44.2217 300.158L41.404 299.547C40.801 299.801 40.1686 299.98 39.5213 300.079V300.079ZM41.5012 296.522L41.5688 296.454L41.5649 296.556L41.4974 296.624L41.5012 296.522Z" fill="#1D61DA"/>
<path d="M48.5177 293.607L48.5416 293.614C48.3044 293.036 47.8237 292.68 47.1915 292.545L47.0327 295.319C47.9505 294.353 48.5097 293.618 48.5177 293.607Z" fill="#1D61DA"/>
<path d="M42.6072 298.959C42.2533 299.159 41.8887 299.34 41.5151 299.5L44.3061 300.106L44.2848 300.135C44.6379 300.009 44.9736 299.838 45.2837 299.628C45.4052 299.544 45.5242 299.458 45.6408 299.37L42.7183 298.896C42.6812 298.917 42.6441 298.938 42.6072 298.959Z" fill="#1D61DA"/>
<path d="M45.664 296.656C46.147 296.22 46.5846 295.788 46.964 295.391L47.1264 292.553L47.1595 292.538C46.6086 292.445 46.0439 292.476 45.5061 292.627L45.664 296.656Z" fill="#1D61DA"/>
<path d="M39.828 289.808C39.5041 289.504 39.108 289.286 38.677 289.176C38.6561 289.172 38.6353 289.168 38.6145 289.164C38.6664 289.305 38.9656 290.138 39.2675 291.331L39.828 289.808Z" fill="#1D61DA"/>
<path d="M39.6386 293.298L36.1134 291.257L36.1167 291.22C35.9848 291.64 35.8958 292.073 35.8511 292.511L39.8249 294.69C39.7769 294.199 39.7115 293.731 39.6386 293.298Z" fill="#1D61DA"/>
<path d="M35.844 292.585L35.8441 292.585C35.8453 292.573 35.8456 292.56 35.8468 292.548L35.844 292.585Z" fill="#1D61DA"/>
<path d="M35.8153 292.985L35.8127 293.022C35.8133 293.01 35.8148 292.998 35.8154 292.985L35.8153 292.985Z" fill="#1D61DA"/>
<path d="M39.8326 294.771L35.8443 292.585C35.8315 292.716 35.8219 292.849 35.8154 292.985L39.8625 295.13C39.8537 295.009 39.8437 294.89 39.8326 294.771Z" fill="#1D61DA"/>
<path d="M39.8922 296.923L35.9666 294.806C36.0625 295.199 36.1846 295.585 36.3322 295.961L36.3374 295.921L39.7529 298.264C39.8261 297.82 39.8726 297.373 39.8922 296.923V296.923Z" fill="#1D61DA"/>
<path d="M38.5697 289.175L38.5881 289.159C37.9716 289.049 37.4128 289.263 36.9602 289.724L39.2245 291.343C38.8975 290.052 38.5744 289.188 38.5697 289.175Z" fill="#1D61DA"/>
<path d="M39.2486 291.439L36.9324 289.783L36.9374 289.747C36.564 290.162 36.2873 290.654 36.1272 291.187L39.6237 293.212C39.5133 292.571 39.3813 291.971 39.2486 291.439Z" fill="#1D61DA"/>
<path d="M39.8953 296.844C39.9156 296.3 39.9065 295.754 39.868 295.21L35.8108 293.06C35.8023 293.279 35.8023 293.505 35.8107 293.736C35.8256 294.066 35.8707 294.395 35.9454 294.717L39.8934 296.846L39.8953 296.844Z" fill="#1D61DA"/>
<path d="M164.832 286.105C164.793 286.658 164.732 287.277 164.637 287.927L166.351 286.031L166.36 286.063C166.256 285.606 166.087 285.167 165.859 284.758L165.87 284.788L164.832 286.105Z" fill="#1D61DA"/>
<path d="M164.839 286.008L165.844 284.732C165.63 284.343 165.321 284.014 164.945 283.776C164.927 283.765 164.908 283.755 164.89 283.745C164.895 283.896 164.922 284.78 164.839 286.008Z" fill="#1D61DA"/>
<path d="M163.932 291.01C163.888 291.144 163.843 291.276 163.796 291.405L166.32 289.929L166.323 289.966C166.376 289.736 166.42 289.507 166.455 289.277L163.935 291.027L163.932 291.01Z" fill="#1D61DA"/>
<path d="M164.283 289.771L166.557 287.901L166.563 287.936C166.571 287.317 166.506 286.7 166.368 286.097L164.622 288.029C164.53 288.638 164.417 289.219 164.283 289.771Z" fill="#1D61DA"/>
<path d="M164.583 287.992L161.863 284.965L161.877 284.931C161.621 285.29 161.403 285.674 161.224 286.077L164.329 289.373C164.435 288.892 164.518 288.426 164.583 287.992Z" fill="#1D61DA"/>
<path d="M161.195 286.145L161.195 286.145C161.2 286.134 161.204 286.121 161.209 286.11L161.195 286.145Z" fill="#1D61DA"/>
<path d="M164.311 289.454L161.195 286.145C161.142 286.265 161.092 286.389 161.044 286.516L164.228 289.804C164.257 289.687 164.285 289.57 164.311 289.454Z" fill="#1D61DA"/>
<path d="M161.043 286.516L161.03 286.551C161.034 286.539 161.039 286.528 161.044 286.516L161.043 286.516Z" fill="#1D61DA"/>
<path d="M166.462 289.233C166.524 288.817 166.558 288.397 166.563 287.976L164.259 289.872C164.168 290.239 164.067 290.593 163.958 290.932L166.457 289.197L166.462 289.233Z" fill="#1D61DA"/>
<path d="M160.63 289.469L163.152 292.751C163.36 292.351 163.543 291.94 163.7 291.519L160.623 288.294C160.593 288.697 160.589 289.102 160.613 289.506L160.63 289.469Z" fill="#1D61DA"/>
<path d="M164.844 283.742L164.866 283.732C164.314 283.438 163.716 283.469 163.143 283.768L164.795 286.006C164.884 284.677 164.844 283.755 164.844 283.742Z" fill="#1D61DA"/>
<path d="M163.714 291.625C163.569 292.004 163.404 292.375 163.219 292.736L165.755 291.427L165.758 291.463C165.949 291.141 166.098 290.796 166.203 290.437C166.243 290.295 166.28 290.153 166.313 290.011L163.759 291.505C163.744 291.545 163.729 291.585 163.714 291.625Z" fill="#1D61DA"/>
<path d="M164.788 286.105L163.098 283.815L163.114 283.783C162.631 284.062 162.215 284.444 161.897 284.903L164.596 287.906C164.689 287.263 164.749 286.651 164.788 286.105Z" fill="#1D61DA"/>
<path d="M163.728 291.445C163.916 290.933 164.077 290.411 164.208 289.882L161.016 286.586C160.94 286.792 160.87 287.006 160.807 287.229C160.719 287.548 160.66 287.874 160.631 288.203L163.726 291.446L163.728 291.445Z" fill="#1D61DA"/>
<path d="M163.178 298.205C163.058 298.281 162.938 298.353 162.82 298.423L165.708 298.892L165.687 298.922C165.874 298.779 166.055 298.63 166.229 298.476L163.169 298.22L163.178 298.205Z" fill="#1D61DA"/>
<path d="M164.24 297.474L167.187 297.48L167.17 297.511C167.571 297.04 167.915 296.523 168.195 295.971L165.614 296.348C165.154 296.759 164.696 297.134 164.24 297.474Z" fill="#1D61DA"/>
<path d="M163.247 298.161L166.281 298.415L166.262 298.446C166.576 298.165 166.87 297.863 167.143 297.542L164.157 297.536C163.851 297.761 163.548 297.97 163.247 298.161Z" fill="#1D61DA"/>
<path d="M159.53 299.659C159.552 299.637 159.574 299.614 159.597 299.591C160.215 299.492 160.82 299.32 161.398 299.077L161.48 296.896C161.504 296.84 161.528 296.785 161.551 296.728L161.464 299.05C161.879 298.874 162.283 298.673 162.674 298.449L162.392 294.394C162.414 294.383 162.435 294.371 162.458 294.359L162.739 298.41L162.742 298.41C163.214 298.135 163.671 297.836 164.111 297.512L163.804 293.521C163.826 293.506 163.848 293.49 163.869 293.474L164.176 297.464C164.274 297.392 164.369 297.32 164.464 297.247L164.211 293.208C164.232 293.19 164.254 293.172 164.276 293.154L164.529 297.197C164.918 296.894 165.28 296.588 165.608 296.295L165.448 292.232L165.482 292.215C165.368 292.245 165.254 292.28 165.138 292.318C165.356 292.069 165.552 291.803 165.724 291.521L163.163 292.842C162.985 293.178 162.786 293.502 162.566 293.812C162.52 293.855 162.474 293.898 162.429 293.943L162.432 293.992C162.412 294.019 162.391 294.047 162.37 294.074L162.365 294.008C162.333 294.041 162.301 294.076 162.269 294.11C162.594 293.706 162.878 293.272 163.119 292.814L160.616 289.556C160.633 289.847 160.661 290.14 160.698 290.431C160.466 290.054 160.183 289.71 159.859 289.408L159.879 289.433L159.3 291.006C159.434 291.544 159.567 292.152 159.679 292.799L160.707 290.5C160.712 290.535 160.717 290.571 160.721 290.607L159.696 292.901C159.797 293.509 159.87 294.095 159.914 294.662L161.145 292.733C161.152 292.76 161.159 292.788 161.166 292.816L159.922 294.765C159.949 295.143 159.963 295.51 159.963 295.866L161.468 293.886C161.476 293.912 161.484 293.937 161.492 293.962L159.971 295.964L159.964 295.948C159.963 296.09 159.961 296.229 159.956 296.366L161.654 294.46C161.663 294.486 161.671 294.511 161.679 294.533L159.952 296.473C159.95 296.515 159.949 296.558 159.946 296.6C159.926 297.006 159.884 297.409 159.82 297.81L159.983 297.645C159.952 297.709 159.922 297.772 159.893 297.834L159.8 297.929C159.789 297.99 159.777 298.05 159.765 298.11C159.731 298.185 159.697 298.259 159.666 298.33C159.696 298.193 159.725 298.055 159.75 297.915L156.359 295.588C157.244 297.846 158.909 299.993 159.016 300.129C159.103 299.968 159.181 299.802 159.253 299.633C159.274 299.631 159.295 299.629 159.316 299.627C159.308 299.647 159.299 299.668 159.29 299.689C159.279 299.69 159.269 299.691 159.258 299.692C159.266 299.695 159.276 299.697 159.285 299.7C159.234 299.818 159.181 299.935 159.125 300.047C159.199 299.98 159.312 299.876 159.446 299.743C160.244 299.946 162.391 300.38 164.23 299.738L161.413 299.127C160.81 299.382 160.177 299.56 159.53 299.659V299.659ZM161.51 296.102L161.578 296.034L161.574 296.136L161.506 296.205L161.51 296.102Z" fill="#1D61DA"/>
<path d="M162.616 298.54C162.262 298.74 161.898 298.92 161.524 299.08L164.315 299.686L164.294 299.716C164.647 299.589 164.982 299.419 165.293 299.208C165.414 299.125 165.533 299.039 165.65 298.95L162.727 298.476C162.69 298.497 162.653 298.519 162.616 298.54Z" fill="#1D61DA"/>
<path d="M159.837 289.389C159.513 289.084 159.117 288.867 158.686 288.757C158.665 288.752 158.644 288.748 158.623 288.744C158.675 288.886 158.974 289.719 159.276 290.912L159.837 289.389Z" fill="#1D61DA"/>
<path d="M159.647 292.878L156.122 290.838L156.125 290.801C155.994 291.221 155.905 291.654 155.86 292.092L159.834 294.27C159.786 293.78 159.72 293.311 159.647 292.878Z" fill="#1D61DA"/>
<path d="M155.824 292.566L155.822 292.603C155.822 292.59 155.824 292.578 155.824 292.566L155.824 292.566Z" fill="#1D61DA"/>
<path d="M155.853 292.166L155.853 292.166C155.854 292.154 155.855 292.141 155.856 292.129L155.853 292.166Z" fill="#1D61DA"/>
<path d="M159.841 294.352L155.853 292.166C155.84 292.296 155.831 292.43 155.824 292.566L159.871 294.71C159.862 294.59 159.853 294.47 159.841 294.352Z" fill="#1D61DA"/>
<path d="M159.901 296.504L155.975 294.386C156.071 294.779 156.193 295.165 156.341 295.541L156.346 295.501L159.762 297.845C159.835 297.401 159.881 296.953 159.901 296.504V296.504Z" fill="#1D61DA"/>
<path d="M158.578 288.756L158.597 288.739C157.98 288.629 157.422 288.844 156.969 289.304L159.233 290.923C158.906 289.633 158.583 288.768 158.578 288.756Z" fill="#1D61DA"/>
<path d="M159.257 291.02L156.941 289.363L156.946 289.328C156.573 289.742 156.296 290.234 156.136 290.768L159.632 292.792C159.522 292.152 159.39 291.552 159.257 291.02Z" fill="#1D61DA"/>
<path d="M159.904 296.425C159.925 295.88 159.916 295.335 159.877 294.791L155.82 292.641C155.811 292.86 155.811 293.085 155.82 293.316C155.835 293.647 155.88 293.975 155.954 294.297L159.902 296.427L159.904 296.425Z" fill="#1D61DA"/>
<path d="M139.31 208.246L140.833 209.209L139.909 207.532C140.17 207.323 140.495 207.208 140.83 207.204C140.838 207.204 140.846 207.204 140.854 207.204C140.96 207.206 141.066 207.198 141.17 207.181L141.686 207.507L141.465 207.106C141.831 206.979 142.147 206.74 142.368 206.422L143.292 207.007L142.708 205.948C143.249 205.301 143.977 204.905 144.778 204.905C145.739 204.905 146.595 205.475 147.148 206.363C147.311 206.628 147.542 206.846 147.817 206.994C148.092 207.142 148.401 207.215 148.713 207.205C148.731 207.204 148.748 207.204 148.765 207.204C149.826 207.204 150.686 208.404 150.686 209.883C150.686 211.363 149.826 212.563 148.765 212.563C148.532 212.562 148.302 212.505 148.096 212.396C147.735 212.221 147.34 212.126 146.939 212.118C146.538 212.11 146.139 212.19 145.772 212.35C145.461 212.49 145.125 212.562 144.784 212.563C144.444 212.564 144.107 212.493 143.795 212.355C143.431 212.197 143.036 212.12 142.639 212.127C142.241 212.135 141.85 212.228 141.492 212.399C141.287 212.506 141.06 212.562 140.83 212.563C139.769 212.563 138.909 211.363 138.909 209.883C138.903 209.313 139.041 208.749 139.31 208.246V208.246Z" fill="#F2F2F2"/>
<path d="M61.815 216.115L62.784 216.728L62.1957 215.661C62.3623 215.529 62.5685 215.455 62.7816 215.453C62.7868 215.453 62.792 215.453 62.7972 215.453C62.8645 215.454 62.9318 215.449 62.9983 215.438L63.3266 215.646L63.1859 215.39C63.4185 215.309 63.6196 215.157 63.7603 214.955L64.3481 215.327L63.9767 214.654C64.1331 214.453 64.3324 214.289 64.5601 214.174C64.7879 214.059 65.0384 213.996 65.2935 213.99C65.9047 213.99 66.4491 214.352 66.8006 214.917C66.9045 215.086 67.0514 215.225 67.2263 215.319C67.4013 215.413 67.5981 215.459 67.7967 215.453C67.8076 215.453 67.8186 215.453 67.8296 215.453C68.5043 215.453 69.0513 216.216 69.0513 217.157C69.0513 218.098 68.5043 218.861 67.8296 218.861C67.6812 218.861 67.5352 218.824 67.4041 218.755C67.1744 218.644 66.9232 218.584 66.6679 218.579C66.4126 218.574 66.1592 218.624 65.9254 218.726C65.7278 218.815 65.5137 218.861 65.2971 218.861C65.0805 218.862 64.8662 218.817 64.6682 218.729C64.4362 218.629 64.1852 218.579 63.9324 218.584C63.6795 218.589 63.4306 218.648 63.2027 218.757C63.0727 218.825 62.9283 218.861 62.7816 218.861C62.1069 218.861 61.5599 218.098 61.5599 217.157C61.556 216.794 61.6437 216.436 61.815 216.115Z" fill="#F2F2F2"/>
<path d="M35.7384 219.401L36.7073 220.014L36.119 218.947C36.2856 218.814 36.4918 218.741 36.705 218.738C36.7102 218.738 36.7154 218.738 36.7206 218.738C36.7879 218.739 36.8552 218.734 36.9216 218.724L37.25 218.931L37.1092 218.676C37.3419 218.595 37.5429 218.443 37.6837 218.241L38.2714 218.613L37.9001 217.939C38.0564 217.738 38.2557 217.574 38.4835 217.459C38.7112 217.345 38.9617 217.282 39.2169 217.276C39.828 217.276 40.3725 217.638 40.7239 218.203C40.8278 218.372 40.9747 218.511 41.1497 218.605C41.3246 218.699 41.5214 218.745 41.7201 218.739C41.731 218.738 41.742 218.738 41.7529 218.738C42.4277 218.738 42.9746 219.501 42.9746 220.443C42.9746 221.384 42.4277 222.147 41.7529 222.147C41.6046 222.147 41.4585 222.11 41.3274 222.041C41.0977 221.929 40.8466 221.869 40.5913 221.864C40.3359 221.859 40.0826 221.91 39.8487 222.012C39.6512 222.101 39.4371 222.147 39.2205 222.147C39.0039 222.148 38.7896 222.103 38.5916 222.015C38.3595 221.915 38.1086 221.865 37.8557 221.87C37.6028 221.875 37.354 221.934 37.126 222.043C36.996 222.111 36.8516 222.147 36.705 222.147C36.0302 222.147 35.4833 221.384 35.4833 220.443C35.4794 220.08 35.5671 219.721 35.7384 219.401V219.401Z" fill="#F2F2F2"/>
<path d="M29.3357 283.866L29.1665 284.035C29.1665 284.035 29.2229 285.892 29.2793 286.286C29.3357 286.68 29.5614 287.355 29.3922 287.861C29.2229 288.368 29.1665 288.762 29.2229 288.818C29.2793 288.874 29.1665 289.099 29.1665 289.099L29.6178 288.818L30.3511 287.13L30.0127 285.329L29.3357 283.866Z" fill="#1D61DA"/>
<path opacity="0.1" d="M29.3357 283.866L29.1665 284.035C29.1665 284.035 29.2229 285.892 29.2793 286.286C29.3357 286.68 29.5614 287.355 29.3922 287.861C29.2229 288.368 29.1665 288.762 29.2229 288.818C29.2793 288.874 29.1665 289.099 29.1665 289.099L29.6178 288.818L30.3511 287.13L30.0127 285.329L29.3357 283.866Z" fill="black"/>
<path d="M32.3257 301.366C32.3257 301.366 32.3257 300.747 32.2129 300.635C32.1001 300.522 31.9309 300.128 31.7052 300.128C31.4796 300.128 30.6898 300.353 30.6898 300.41C30.6963 300.585 30.6574 300.76 30.577 300.916C30.4642 301.085 29.8436 301.76 30.4642 301.873C30.6705 301.907 30.8815 301.899 31.0848 301.851C31.2882 301.803 31.4799 301.714 31.6488 301.591C31.7052 301.535 31.9309 301.479 31.9873 301.535C32.0437 301.591 32.3257 301.366 32.3257 301.366Z" fill="#1D61DA"/>
<path d="M33.9053 300.354L34.2437 300.972C34.2437 300.972 34.3566 301.535 34.5258 301.591H34.695C34.695 301.591 34.8643 302.21 35.2591 302.154C35.654 302.098 36.1053 301.873 36.1053 301.76C36.1053 301.648 36.1053 301.31 35.9361 301.198C35.6988 301.004 35.4728 300.798 35.2591 300.579L34.9771 300.297L33.9053 300.354Z" fill="#1D61DA"/>
<path d="M29.5759 279.741C29.4673 279.796 29.3736 279.877 29.3027 279.976C29.2318 280.074 29.1857 280.189 29.1684 280.309C29.137 280.711 29.5351 281.09 29.407 281.472C29.3343 281.689 29.1078 281.829 29.0426 282.049C29.0083 282.224 29.0341 282.405 29.1157 282.564C29.2048 282.781 29.3132 282.99 29.4397 283.188C29.6775 283.561 29.987 283.914 30.0505 284.351C30.0682 284.427 30.0674 284.507 30.0482 284.583C30.0291 284.659 29.9922 284.729 29.9405 284.789C30.0549 284.702 30.1859 284.64 30.3254 284.606C30.9019 284.414 31.4376 284.116 31.9049 283.728C32.0747 283.609 32.2025 283.44 32.2702 283.244C32.3563 282.898 32.0932 282.552 32.1184 282.197C32.1346 281.97 32.2661 281.769 32.3405 281.554C32.4053 281.339 32.4259 281.114 32.4012 280.891C32.3764 280.669 32.3069 280.453 32.1966 280.258C32.1053 280.069 31.9765 279.901 31.818 279.764C31.6595 279.626 31.4746 279.522 31.2745 279.458C30.9668 279.387 30.6457 279.396 30.3426 279.485C30.0778 279.54 29.8204 279.626 29.5759 279.741V279.741Z" fill="#2F2E41"/>
<path d="M29.8933 282.861C30.0175 282.631 30.2015 282.438 30.4259 282.303C30.6503 282.168 30.907 282.096 31.1691 282.094C32.0717 282.094 31.9024 282.037 31.9024 282.037L31.6204 283.163L31.0563 283.725L29.8933 282.861Z" fill="#1D61DA"/>
<path d="M30.1256 281.672C30.1256 281.672 30.6333 282.516 30.2948 282.853C29.9564 283.191 30.1256 283.529 30.182 283.585C30.2384 283.641 31.8179 283.754 31.8179 283.754L31.8743 282.966L32.0436 282.291C32.0436 282.291 31.141 282.122 31.2538 281.728C31.3666 281.334 30.1256 281.672 30.1256 281.672Z" fill="#FBBEBE"/>
<path opacity="0.1" d="M30.1256 281.672C30.1256 281.672 30.6333 282.516 30.2948 282.853C29.9564 283.191 30.1256 283.529 30.182 283.585C30.2384 283.641 31.8179 283.754 31.8179 283.754L31.8743 282.966L32.0436 282.291C32.0436 282.291 31.141 282.122 31.2538 281.728C31.3666 281.334 30.1256 281.672 30.1256 281.672Z" fill="black"/>
<path d="M34.0743 289.662C34.0139 289.855 33.9385 290.043 33.8487 290.225C33.7923 290.281 33.623 289.831 33.623 289.831L33.7923 289.437L34.0743 289.662Z" fill="#FBBEBE"/>
<path d="M33.4257 287.102L33.6512 288.396H30.2666L30.4358 287.102H33.4257Z" fill="#FBBEBE"/>
<path d="M30.7461 282.122C31.3381 282.122 31.8179 281.643 31.8179 281.052C31.8179 280.462 31.3381 279.983 30.7461 279.983C30.1542 279.983 29.6743 280.462 29.6743 281.052C29.6743 281.643 30.1542 282.122 30.7461 282.122Z" fill="#FBBEBE"/>
<path d="M30.9718 283.247C30.9718 283.247 30.3513 283.303 30.3513 283.191C30.3513 283.078 30.2949 282.741 30.182 282.797C30.0692 282.853 29.3359 282.909 29.3923 283.078C29.4487 283.247 29.5615 283.585 29.4487 283.585C29.3999 283.595 29.3537 283.614 29.3128 283.643C29.2719 283.671 29.2372 283.707 29.2108 283.749C29.1845 283.792 29.1669 283.839 29.1593 283.888C29.1517 283.937 29.1542 283.987 29.1666 284.035C29.223 284.316 29.8436 286.004 29.8436 286.004C29.8436 286.004 29.9 286.567 30.0692 286.736C30.1381 286.824 30.1754 286.933 30.1754 287.045C30.1754 287.157 30.1381 287.266 30.0692 287.355C29.9564 287.467 30.3513 287.58 30.5205 287.805C30.6897 288.03 31.9872 287.861 32.0436 287.805C32.1 287.749 33.4539 287.749 33.5667 287.636C33.6795 287.524 33.5103 287.186 33.5103 287.186C33.5103 287.186 33.4539 286.68 33.5103 286.511C33.5667 286.342 33.2846 283.585 33.1154 283.416C32.9462 283.247 33.6231 282.741 33.6231 282.741C33.6231 282.741 33.5103 282.291 32.777 282.234C32.777 282.234 32.5513 281.897 32.3257 281.897C32.1 281.897 31.6101 282.158 31.6101 282.158C31.6101 282.158 31.4795 282.909 31.3103 282.966C31.1765 283.031 31.0604 283.128 30.9718 283.247Z" fill="#1D61DA"/>
<path d="M33.2282 282.572L33.623 282.741C33.623 282.741 34.7513 286.23 34.6385 286.905C34.5256 287.58 34.2436 289.887 34.0743 289.887C33.9051 289.887 33.5666 289.55 33.5666 289.55V288.987C33.5666 288.874 33.3974 288.537 33.5102 288.537C33.623 288.537 33.7923 288.424 33.6795 288.312C33.5666 288.199 33.4538 288.03 33.5666 287.861C33.6795 287.693 33.7359 287.636 33.6795 287.467C33.623 287.299 33.5102 287.13 33.623 287.017C33.7359 286.905 33.341 286.342 33.341 286.342L32.7205 283.866L32.8333 282.853L33.2282 282.572Z" fill="#1D61DA"/>
<path d="M33.454 287.918C33.454 287.918 31.3103 287.749 31.0283 287.749C30.7462 287.749 30.1134 287.484 30.1134 287.484C30.1134 287.484 28.4898 289.099 29.0539 291.744C29.618 294.389 29.7308 297.652 30.0693 298.609C30.2993 299.291 30.4877 299.986 30.6334 300.691C30.6334 300.691 31.1975 299.678 32.2693 300.804C32.2693 300.804 32.3821 299.96 32.2129 299.622C32.0437 299.284 31.818 297.484 31.818 297.484C31.818 297.484 31.4232 294.614 31.4232 294.276C31.4232 293.939 31.1975 291.069 31.2539 291.012C31.3103 290.956 31.5924 293.207 31.6488 293.601C31.7052 293.995 31.8744 297.033 32.0437 297.371C32.2129 297.709 33.0027 300.41 33.454 300.579C33.9053 300.747 35.4284 300.522 35.3719 300.41C35.3155 300.297 34.9206 299.678 34.8078 299.509L34.3565 298.834L33.2847 295.177L33.7924 290.731C33.7924 290.731 34.0745 287.861 33.454 287.918Z" fill="#2F2E41"/>
<path d="M31.3989 280.912H30.0244C29.9661 280.912 29.9097 280.891 29.8654 280.853C29.8211 280.815 29.7917 280.763 29.7826 280.706L29.646 279.843H31.7896L31.598 280.751C31.5884 280.796 31.5633 280.837 31.5271 280.866C31.4908 280.896 31.4456 280.912 31.3989 280.912Z" fill="#2F2E41"/>
<path d="M143.623 279.27H145.791V282.36C145.507 282.36 145.225 282.304 144.962 282.196C144.698 282.087 144.459 281.927 144.258 281.727C144.057 281.526 143.897 281.287 143.788 281.025C143.679 280.762 143.623 280.481 143.623 280.197V279.27Z" fill="#2F2E41"/>
<path d="M142.358 297.374L142.203 298.147H143.287L143.339 297.374H142.358Z" fill="#A0616A"/>
<path d="M142.358 297.992C142.358 297.992 142.151 297.838 142.048 297.941C141.945 298.044 141.583 300.053 141.532 300.104C141.48 300.156 139.931 300.928 140.292 300.98C140.654 301.031 142.048 301.083 142.255 300.98C142.461 300.877 143.029 299.898 143.029 299.898V300.774H143.132C143.132 300.774 143.236 299.847 143.494 299.589C143.752 299.332 143.287 298.456 143.287 298.456C143.287 298.456 143.39 297.889 143.339 297.889C143.287 297.889 142.358 297.992 142.358 297.992Z" fill="#1D61DA"/>
<path d="M145.559 296.834L145.404 297.606H146.488L146.54 296.834H145.559Z" fill="#A0616A"/>
<path d="M144.32 291.812C144.32 291.812 144.836 293.357 144.939 293.511C145.043 293.666 145.404 296.55 145.404 296.55C145.404 296.55 145.043 297.117 145.507 297.168C145.972 297.22 145.766 297.065 146.075 297.168C146.16 297.2 146.25 297.212 146.34 297.203C146.429 297.194 146.516 297.165 146.592 297.117C146.592 297.117 146.747 296.808 146.643 296.705C146.54 296.602 146.747 293.924 146.747 293.924L146.437 292.996L146.179 290.061C146.179 290.061 146.488 289.288 146.334 289.082C146.179 288.876 145.662 289.236 145.662 289.236L144.32 291.812Z" fill="#2F2E41"/>
<path d="M143.649 287.794C143.649 287.794 143.494 289.442 143.39 289.545C143.287 289.648 142.151 292.533 142.151 292.533C142.151 292.533 141.841 292.893 141.945 294.232C142.048 295.572 142.306 296.911 142.306 296.911C142.306 296.911 142.1 297.683 142.461 297.683C142.822 297.683 142.977 297.477 143.132 297.632C143.287 297.786 143.39 297.632 143.442 297.529C143.494 297.426 143.7 297.065 143.7 296.962C143.7 296.859 143.907 294.232 143.907 294.232C143.907 294.232 145.611 290.472 145.766 290.266C145.921 290.06 146.798 288.927 146.747 288.155L143.649 287.794Z" fill="#2F2E41"/>
<path d="M144.939 280.841C145.538 280.841 146.024 280.357 146.024 279.759C146.024 279.162 145.538 278.677 144.939 278.677C144.34 278.677 143.855 279.162 143.855 279.759C143.855 280.357 144.34 280.841 144.939 280.841Z" fill="#A0616A"/>
<path d="M144.733 280.686C144.733 280.686 145.146 281.613 145.198 281.871C145.249 282.128 146.23 281.356 146.23 281.356C146.23 281.356 145.714 280.48 145.869 280.068L144.733 280.686Z" fill="#A0616A"/>
<path d="M146.385 281.201C146.385 281.201 145.611 280.635 145.043 281.819C144.475 283.004 144.32 282.952 144.32 282.952C144.32 282.952 143.649 283.158 143.855 284.601C144.062 286.043 143.184 287.949 143.545 288.052C143.907 288.155 147.263 288.721 147.263 288.309C147.263 287.897 146.953 286.3 147.212 285.322C147.47 284.343 146.85 280.944 146.385 281.201Z" fill="#3F3D56"/>
<path d="M145.611 281.459C145.611 281.459 144.991 282.386 145.043 283.107C145.094 283.828 145.094 284.292 145.094 284.292C145.094 284.292 144.062 289.236 144.268 289.236C144.475 289.236 145.094 289.494 145.146 289.339C145.198 289.185 146.489 286.043 146.489 286.043C146.489 286.043 146.798 282.901 146.437 282.18C146.076 281.459 145.611 281.459 145.611 281.459Z" fill="#3F3D56"/>
<path d="M144.372 289.082C144.372 289.082 143.855 290.833 144.578 290.885C145.301 290.936 144.888 289.185 144.888 289.185L144.372 289.082Z" fill="#A0616A"/>
<path d="M145.746 297.205C145.746 297.205 145.565 297.07 145.474 297.16C145.384 297.25 145.067 299.009 145.022 299.054C144.977 299.099 143.62 299.776 143.937 299.821C144.254 299.866 145.474 299.911 145.655 299.821C145.836 299.731 146.334 298.874 146.334 298.874V299.641H146.424C146.424 299.641 146.514 298.829 146.74 298.603C146.967 298.378 146.56 297.611 146.56 297.611C146.56 297.611 146.65 297.115 146.605 297.115C146.56 297.115 145.746 297.205 145.746 297.205Z" fill="#1D61DA"/>
<path d="M144.403 279.05C144.438 279.008 144.483 278.977 144.534 278.958C144.582 278.949 144.631 278.954 144.676 278.97C145 279.065 145.281 279.268 145.471 279.546C145.508 279.617 145.563 279.677 145.631 279.719C145.675 279.732 145.718 279.749 145.76 279.768C145.881 279.848 145.809 280.032 145.74 280.159C145.562 280.485 145.48 280.854 145.503 281.224C145.501 281.288 145.52 281.352 145.557 281.405C145.616 281.459 145.692 281.489 145.772 281.49C146.022 281.521 146.275 281.535 146.527 281.53C146.774 281.526 147.049 281.491 147.209 281.303C147.381 281.101 147.354 280.792 147.242 280.552C147.13 280.311 146.948 280.11 146.819 279.879C146.696 279.634 146.599 279.377 146.53 279.113C146.44 278.775 146.296 278.454 146.103 278.163C146.005 278.018 145.879 277.894 145.731 277.8C145.584 277.705 145.418 277.642 145.245 277.614C144.776 277.562 144.344 277.85 143.967 278.134C143.543 278.452 143.093 278.845 143.059 279.373C143.031 279.8 143.289 280.187 143.423 280.593C143.631 281.221 143.544 281.904 143.455 282.559C143.837 282.33 144.269 282.013 144.244 281.569C144.227 281.27 144.001 281.031 143.86 280.766C143.472 280.037 143.914 279.549 144.403 279.05Z" fill="#2F2E41"/>
<path d="M68.107 233.883L62.5137 239.462L59.8635 236.819L58.8318 237.848L62.5101 241.517L69.1388 234.912L68.107 233.883Z" fill="#57B894"/>
<path d="M127.043 235.877L121.449 241.457L118.799 238.813L117.767 239.843L121.446 243.512L128.074 236.907L127.043 235.877Z" fill="#57B894"/>
<path d="M126.571 269.617V260.452H121.433V254.5H117.954V260.452H112.816V269.617H109.97V249.017H104.2V247.059H96.5316V245.1H88.9426V247.059H81.749V249.017H75.5039V269.538H72.1837V260.374H67.0454V254.421H63.5671V260.374H58.4288V269.538H55.1086V302.044H62.6976V290.53H67.915V302.044H88.3102V288.65H97.164V302.044H109.496V302.122H117.085V290.608H122.302V302.122H129.891V269.617H126.571ZM57.8359 273.533H60.8399V275.883H57.8359V273.533ZM57.8754 280.112H60.8794V282.462H57.8754V280.112ZM60.9189 289.042H57.915V286.692H60.9189V289.042ZM68.7845 267.815H61.828V266.405H68.7845V267.815ZM68.7845 265.779H61.828V264.369H68.7845V265.779ZM68.7845 263.742H61.828V262.332H68.7845V263.742ZM69.7727 273.533H72.7766V275.883H69.7727V273.533ZM69.8122 280.112H72.8162V282.462H69.8122V280.112ZM72.8557 289.042H69.8517V286.692H72.8557V289.042ZM85.1482 285.125H79.6146V282.697H85.1482V285.125ZM85.1482 278.154H79.6146V275.726H85.1482V278.154ZM85.1482 271.183H79.6146V268.755H85.1482V271.183ZM85.1482 264.212H79.6146V261.784H85.1482V264.212ZM85.1482 257.241H79.6146V254.813H85.1482V257.241ZM95.5039 285.125H89.9703V282.697H95.5039V285.125ZM95.5039 278.154H89.9703V275.726H95.5039V278.154ZM95.5039 271.183H89.9703V268.755H95.5039V271.183ZM95.5039 264.212H89.9703V261.784H95.5039V264.212ZM95.5039 257.241H89.9703V254.813H95.5039V257.241ZM105.86 285.125H100.326V282.697H105.86V285.125ZM105.86 278.154H100.326V275.726H105.86V278.154ZM105.86 271.183H100.326V268.755H105.86V271.183ZM105.86 264.212H100.326V261.784H105.86V264.212ZM105.86 257.241H100.326V254.813H105.86V257.241ZM112.223 273.611H115.227V275.961H112.223V273.611ZM112.263 280.191H115.267V282.54H112.263V280.191ZM115.306 289.12H112.302V286.77H115.306V289.12ZM123.172 267.893H116.215V266.483H123.172V267.893ZM123.172 265.857H116.215V264.447H123.172V265.857ZM123.172 263.82H116.215V262.411H123.172V263.82ZM124.16 273.611H127.164V275.961H124.16V273.611ZM124.2 280.191H127.204V282.54H124.2V280.191ZM127.243 289.12H124.239V286.77H127.243V289.12Z" fill="#0091BF"/>
<path d="M12.763 244.166L6.5 272.209H19.0261L12.763 244.166Z" fill="#1D65E7"/>
<path d="M13.0436 253.514H12.5762V272.209H13.0436V253.514Z" fill="#333333"/>
<path d="M16.0054 265.209L12.5798 269.291L12.9379 269.591L16.3634 265.51L16.0054 265.209Z" fill="#333333"/>
<path d="M9.55461 263.477L9.22412 263.808L12.5956 267.179L12.9261 266.848L9.55461 263.477Z" fill="#333333"/>
<path d="M14.3668 258.456L12.6692 260.062L12.9904 260.401L14.688 258.795L14.3668 258.456Z" fill="#333333"/>
<path d="M164.478 204.751L150.457 267.535H178.5L164.478 204.751Z" fill="#1D65E7"/>
<path d="M165.106 225.679H164.06V267.535H165.106V225.679Z" fill="#333333"/>
<path d="M171.737 251.863L164.068 261.001L164.869 261.674L172.539 252.536L171.737 251.863Z" fill="#333333"/>
<path d="M157.295 247.986L156.555 248.726L164.103 256.273L164.843 255.533L157.295 247.986Z" fill="#333333"/>
<path d="M168.068 236.743L164.268 240.339L164.987 241.099L168.788 237.504L168.068 236.743Z" fill="#333333"/>
<path d="M115.589 191.818L109.326 219.861H121.852L115.589 191.818Z" fill="#1D65E7"/>
<path d="M115.87 201.166H115.402V219.861H115.87V201.166Z" fill="#333333"/>
<path d="M118.831 212.861L115.406 216.943L115.764 217.243L119.189 213.162L118.831 212.861Z" fill="#333333"/>
<path d="M112.381 211.129L112.05 211.46L115.422 214.831L115.752 214.5L112.381 211.129Z" fill="#333333"/>
<path d="M117.193 206.108L115.495 207.714L115.816 208.053L117.514 206.447L117.193 206.108Z" fill="#333333"/>
<path d="M138.024 330.514L134.004 348.512H142.044L138.024 330.514Z" fill="#1D65E7"/>
<path d="M138.204 336.514H137.904V348.512H138.204V336.514Z" fill="#333333"/>
<path d="M140.105 344.02L137.906 346.639L138.136 346.832L140.335 344.213L140.105 344.02Z" fill="#333333"/>
<path d="M135.965 342.908L135.753 343.12L137.916 345.284L138.129 345.072L135.965 342.908Z" fill="#333333"/>
<path d="M139.053 339.685L137.964 340.716L138.17 340.934L139.259 339.903L139.053 339.685Z" fill="#333333"/>
</g>
<defs>
<clipPath id="clip0">
<rect width="1308" height="515" fill="white"/>
</clipPath>
</defs>
</svg>
