<svg width="104" height="74" viewBox="0 0 104 74" fill="none" xmlns="http://www.w3.org/2000/svg">
<path d="M83.1983 42L76 73.8913H90.3055L83.1983 42Z" fill="#1F61DA"/>
<path d="M83.3805 54.3008H82.925V73.8911H83.3805V54.3008Z" fill="#1A1A1A"/>
<path d="M86.6122 66.6001L83.0388 70.8577L83.3878 71.1506L86.9612 66.893L86.6122 66.6001Z" fill="#1A1A1A"/>
<path d="M79.7265 64.8414L79.4044 65.1636L82.9485 68.7072L83.2706 68.385L79.7265 64.8414Z" fill="#1A1A1A"/>
<path d="M84.8283 59.5141L83.0413 61.205L83.3544 61.5359L85.1415 59.845L84.8283 59.5141Z" fill="#1A1A1A"/>
<path d="M64.844 0L59 25.8913H70.6141L64.844 0Z" fill="#FED79F"/>
<path d="M64.9919 9.98657H64.6221V25.8912H64.9919V9.98657Z" fill="#1A1A1A"/>
<path d="M67.6156 19.9718L64.7145 23.4283L64.9978 23.6661L67.8989 20.2096L67.6156 19.9718Z" fill="#1A1A1A"/>
<path d="M62.0254 18.544L61.7639 18.8055L64.6412 21.6825L64.9027 21.4209L62.0254 18.544Z" fill="#1A1A1A"/>
<path d="M66.1673 14.219L64.7165 15.5918L64.9707 15.8605L66.4216 14.4877L66.1673 14.219Z" fill="#1A1A1A"/>
<path d="M25.8126 2L22 18.8913H29.5769L25.8126 2Z" fill="#16DD9A"/>
<path d="M25.9091 8.51514H25.6678V18.8912H25.9091V8.51514Z" fill="#1A1A1A"/>
<path d="M27.6207 15.0294L25.7281 17.2844L25.9129 17.4396L27.8056 15.1845L27.6207 15.0294Z" fill="#1A1A1A"/>
<path d="M23.9738 14.0979L23.8031 14.2686L25.6803 16.1454L25.8509 15.9748L23.9738 14.0979Z" fill="#1A1A1A"/>
<path d="M26.6759 11.2764L25.7294 12.172L25.8952 12.3473L26.8417 11.4517L26.6759 11.2764Z" fill="#1A1A1A"/>
<path d="M54.8153 47.0569L50.5769 65.8344H59L54.8153 47.0569Z" fill="#16DD9A"/>
<path d="M54.9225 54.2996H54.6543V65.8343H54.9225V54.2996Z" fill="#1A1A1A"/>
<path d="M56.8253 61.5413L54.7213 64.0481L54.9268 64.2206L57.0308 61.7137L56.8253 61.5413Z" fill="#1A1A1A"/>
<path d="M52.7711 60.5057L52.5814 60.6954L54.6682 62.7819L54.8579 62.5922L52.7711 60.5057Z" fill="#1A1A1A"/>
<path d="M55.775 57.3691L54.7227 58.3647L54.9071 58.5596L55.9593 57.564L55.775 57.3691Z" fill="#1A1A1A"/>
<path d="M3.52229 32L0 47.6051H7L3.52229 32Z" fill="#DCE8FC"/>
<path d="M3.61142 38.019H3.38849V47.605H3.61142V38.019Z" fill="#1A1A1A"/>
<path d="M5.19274 44.0373L3.44421 46.1206L3.61498 46.2639L5.3635 44.1806L5.19274 44.0373Z" fill="#1A1A1A"/>
<path d="M1.82347 43.1766L1.66583 43.3342L3.40005 45.0682L3.55769 44.9105L1.82347 43.1766Z" fill="#1A1A1A"/>
<path d="M4.31983 40.5699L3.44537 41.3973L3.59859 41.5593L4.47305 40.7319L4.31983 40.5699Z" fill="#1A1A1A"/>
<path d="M100.071 26L97 39.6051H103.103L100.071 26Z" fill="#DCE8FC"/>
<path d="M100.149 31.2477H99.9542V39.6051H100.149V31.2477Z" fill="#1A1A1A"/>
<path d="M101.527 36.4946L100.003 38.3109L100.152 38.4359L101.676 36.6196L101.527 36.4946Z" fill="#1A1A1A"/>
<path d="M98.5898 35.7441L98.4523 35.8816L99.9643 37.3933L100.102 37.2559L98.5898 35.7441Z" fill="#1A1A1A"/>
<path d="M100.766 33.4716L100.004 34.193L100.137 34.3342L100.9 33.6128L100.766 33.4716Z" fill="#1A1A1A"/>
<path d="M37.3937 29L35 39.6051H39.7571L37.3937 29Z" fill="#FF7E92"/>
<path d="M37.4543 33.0906H37.3028V39.6051H37.4543V33.0906Z" fill="#1A1A1A"/>
<path d="M38.5289 37.1805L37.3406 38.5963L37.4567 38.6937L38.645 37.2779L38.5289 37.1805Z" fill="#1A1A1A"/>
<path d="M36.2392 36.5955L36.1321 36.7026L37.3106 37.881L37.4178 37.7739L36.2392 36.5955Z" fill="#1A1A1A"/>
<path d="M37.9357 34.8241L37.3415 35.3864L37.4456 35.4964L38.0399 34.9341L37.9357 34.8241Z" fill="#1A1A1A"/>
</svg>
