<svg width="360" height="600" viewBox="0 0 360 600" fill="none" xmlns="http://www.w3.org/2000/svg">
<path d="M106 56.5C112 56.5 109.5 70.5 121.5 63.5C133.5 56.5 176 78.5 162 104C148 129.5 179.5 132 185 121C190.5 110 170.5 51.5 198 44.5C225.5 37.5 219.5 82.5 238.5 69.5C257.5 56.5 331.5 -8 343.5 56.5C355.5 121 293.062 109 301.5 149.5C305.5 168.7 335.333 177.5 344.5 169.5" stroke="#999999" stroke-dasharray="7 7"/>
<path d="M52.4245 110.451L66.3526 85.3956M39.1295 126.934L71.7339 66.6044M30.5827 134.846L73.0001 55.7253M22.3525 140.451L72.367 46.8242M16.0216 144.407L71.1008 40.5604M9.37411 148.033L69.5181 35.2857M2.72664 151L67.3023 30.3407M-0.054008 149.352L64.4533 26.3846M-0.0539575 141.769L61.921 22.4286M-0.0539575 133.857L58.7555 20.1209M-0.0540433 124.5L54.9569 17.8132M-0.0538065 117L51.7914 15.8352M-0.0541992 109L48.3094 13.1978M17.2878 62.978L39.446 22.4286M19.8201 49.7912L35.3309 21.1099M20.7698 39.5714L34.0647 15.8352M20.4532 31L33.7482 7.26374M19.1871 24.7363L32.482 1" stroke="#CCF4FE" stroke-width="0.8"/>
<path fill-rule="evenodd" clip-rule="evenodd" d="M85.3471 29.3468C87.49 27.2039 90.3965 26 93.4271 26C96.4577 26 99.3641 27.2039 101.507 29.3468C103.65 31.4898 104.854 34.3963 104.854 37.4269C104.854 40.4574 103.65 43.3639 101.507 45.5069L93.4271 53.5869L85.3471 45.5069C84.2859 44.4458 83.4442 43.1861 82.8699 41.7998C82.2956 40.4134 82 38.9275 82 37.4269C82 35.9262 82.2956 34.4403 82.8699 33.0539C83.4442 31.6676 84.2859 30.4079 85.3471 29.3468V29.3468ZM93.4271 40.6915C94.2929 40.6915 95.1233 40.3476 95.7356 39.7353C96.3478 39.1231 96.6917 38.2927 96.6917 37.4269C96.6917 36.561 96.3478 35.7306 95.7356 35.1184C95.1233 34.5062 94.2929 34.1622 93.4271 34.1622C92.5613 34.1622 91.7309 34.5062 91.1186 35.1184C90.5064 35.7306 90.1624 36.561 90.1624 37.4269C90.1624 38.2927 90.5064 39.1231 91.1186 39.7353C91.7309 40.3476 92.5613 40.6915 93.4271 40.6915Z" fill="#CAF2FE"/>
<path d="M339 165.487L357.114 168.628" stroke="#CAF2FE" stroke-width="3" stroke-linecap="round"/>
<path d="M349.628 158L346.487 176.114" stroke="#CAF2FE" stroke-width="3" stroke-linecap="round"/>
<path d="M96.7773 90.139L92.7534 107.966H100.75L96.7773 90.139Z" fill="#FED79F"/>
<path d="M96.8792 97.0154H96.6245V107.966H96.8792V97.0154Z" fill="#1A1A1A"/>
<path d="M98.6857 103.89L96.6882 106.27L96.8833 106.434L98.8808 104.054L98.6857 103.89Z" fill="#1A1A1A"/>
<path d="M94.8366 102.907L94.6565 103.087L96.6377 105.068L96.8177 104.888L94.8366 102.907Z" fill="#1A1A1A"/>
<path d="M97.6889 99.9292L96.6899 100.874L96.865 101.059L97.864 100.114L97.6889 99.9292Z" fill="#1A1A1A"/>
<path d="M106.696 103.561L104.259 114.358H109.102L106.696 103.561Z" fill="#16DD9A"/>
<path d="M106.758 107.727H106.603V114.359H106.758V107.727Z" fill="#1A1A1A"/>
<path d="M107.851 111.889L106.642 113.33L106.76 113.43L107.969 111.988L107.851 111.889Z" fill="#1A1A1A"/>
<path d="M105.52 111.294L105.411 111.403L106.611 112.602L106.72 112.493L105.52 111.294Z" fill="#1A1A1A"/>
<path d="M107.248 109.491L106.643 110.063L106.749 110.175L107.354 109.603L107.248 109.491Z" fill="#1A1A1A"/>
<path d="M85.1701 100.366L83.166 109.244H87.1488L85.1701 100.366Z" fill="#CCF4FE"/>
<path d="M85.2211 103.791H85.0942V109.245H85.2211V103.791Z" fill="#1A1A1A"/>
<path d="M86.1208 107.215L85.126 108.4L85.2231 108.481L86.218 107.296L86.1208 107.215Z" fill="#1A1A1A"/>
<path d="M84.2035 106.725L84.1138 106.815L85.1005 107.801L85.1902 107.711L84.2035 106.725Z" fill="#1A1A1A"/>
<path d="M85.6238 105.242L85.1262 105.712L85.2134 105.804L85.7109 105.334L85.6238 105.242Z" fill="#1A1A1A"/>
<path d="M132.573 96.2145H141.176C141.326 96.2145 141.476 96.3263 141.476 96.4939V96.8013C141.476 96.941 141.356 97.0807 141.176 97.0807H132.573C132.423 97.0807 132.273 96.969 132.273 96.8013V96.4939C132.273 96.3263 132.423 96.2145 132.573 96.2145Z" fill="#263238"/>
<path d="M141.116 106.721H141.476L141.056 97.0807H140.517L141.116 106.721Z" fill="#407BFF"/>
<path opacity="0.6" d="M141.116 106.721H141.476L141.056 97.0807H140.517L141.116 106.721Z" fill="#8C6239"/>
<path d="M137.639 106.721H137.249L137.699 97.0807H138.208L137.639 106.721Z" fill="#407BFF"/>
<path opacity="0.6" d="M137.639 106.721H137.249L137.699 97.0807H138.208L137.639 106.721Z" fill="#8C6239"/>
<path d="M136.14 106.721H136.5L136.08 97.0807H135.541L136.14 106.721Z" fill="#407BFF"/>
<path opacity="0.6" d="M136.14 106.721H136.5L136.08 97.0807H135.541L136.14 106.721Z" fill="#8C6239"/>
<path d="M132.663 106.721H132.273L132.723 97.0807H133.232L132.663 106.721Z" fill="#407BFF"/>
<path opacity="0.6" d="M132.663 106.721H132.273L132.723 97.0807H133.232L132.663 106.721Z" fill="#8C6239"/>
<g opacity="0.3">
<path opacity="0.3" d="M141.056 97.0807H140.517L140.547 97.4998H141.056V97.0807Z" fill="#407BFF"/>
<path opacity="0.3" d="M137.669 97.4998H138.179L138.209 97.0807H137.699L137.669 97.4998Z" fill="#407BFF"/>
<path opacity="0.3" d="M135.541 97.0807L135.571 97.4998H136.11L136.08 97.0807H135.541Z" fill="#407BFF"/>
<path opacity="0.3" d="M132.693 97.5H133.202L133.232 97.0808H132.723L132.693 97.5Z" fill="#407BFF"/>
</g>
<path d="M135.9 105.324L135.031 105.743L133.682 104.039L134.551 103.619L135.9 105.324Z" fill="#FFB573"/>
<path d="M134.731 105.464L135.63 104.877C135.66 104.849 135.69 104.849 135.72 104.877L136.26 105.519C136.32 105.603 136.29 105.687 136.23 105.743C135.93 105.939 135.78 105.994 135.361 106.246C135.121 106.386 134.491 106.721 134.132 106.861C133.772 107 133.622 106.665 133.742 106.581C134.072 106.358 134.521 105.911 134.641 105.603C134.641 105.547 134.671 105.519 134.731 105.464Z" fill="#263238"/>
<path opacity="0.2" d="M134.551 103.619L133.682 104.039L134.342 104.849L135.181 104.402L134.551 103.619Z" fill="black"/>
<path d="M136.62 93.5879C136.62 93.5879 129.995 93.3923 129.965 95.9909C129.935 99.7073 133.712 104.569 133.712 104.569L135.181 103.647C135.181 103.647 132.603 100.099 132.573 97.2204C134.521 96.7174 139.138 97.0248 139.737 95.5159C140.217 94.2864 139.977 93.5879 139.977 93.5879H136.62Z" fill="#407BFF"/>
<path d="M136.62 93.5879C136.62 93.5879 129.995 93.3923 129.965 95.9909C129.935 99.7073 133.712 104.569 133.712 104.569L135.181 103.647C135.181 103.647 132.603 100.099 132.573 97.2204C134.521 96.7174 139.138 97.0248 139.737 95.5159C140.217 94.2864 139.977 93.5879 139.977 93.5879H136.62Z" fill="black"/>
<path d="M135.571 103.871L133.832 104.877L133.263 104.374L135.211 103.228L135.571 103.871Z" fill="#263238"/>
<path d="M134.552 105.771C134.611 105.715 134.671 105.659 134.731 105.603V105.575C134.731 105.575 134.731 105.575 134.701 105.575C134.671 105.575 134.342 105.575 134.252 105.687C134.222 105.715 134.222 105.743 134.252 105.771C134.252 105.799 134.312 105.827 134.342 105.855C134.432 105.855 134.492 105.827 134.552 105.771ZM134.671 105.631C134.552 105.743 134.432 105.799 134.372 105.799C134.342 105.799 134.312 105.771 134.312 105.743V105.715C134.342 105.659 134.522 105.631 134.671 105.631Z" fill="#407BFF"/>
<path d="M134.731 105.631V105.603C134.731 105.603 134.581 105.38 134.461 105.352C134.431 105.352 134.401 105.352 134.371 105.38C134.341 105.408 134.341 105.436 134.341 105.464C134.371 105.547 134.611 105.631 134.731 105.631ZM134.401 105.38C134.401 105.38 134.431 105.352 134.461 105.38C134.551 105.38 134.641 105.519 134.701 105.575C134.581 105.575 134.431 105.492 134.401 105.436C134.371 105.436 134.371 105.408 134.401 105.38C134.401 105.408 134.401 105.408 134.401 105.38Z" fill="#407BFF"/>
<path d="M134.311 106.358L133.352 106.302L133.202 104.206L134.161 104.234L134.311 106.358Z" fill="#FFB573"/>
<path d="M133.322 106.162L134.401 106.134C134.431 106.134 134.461 106.162 134.461 106.19L134.551 107C134.551 107.084 134.491 107.168 134.401 107.168C134.012 107.168 133.832 107.168 133.352 107.168C133.052 107.168 132.483 107.224 132.093 107.168C131.703 107.112 131.763 106.749 131.913 106.749C132.333 106.721 132.873 106.442 133.142 106.246C133.202 106.162 133.262 106.162 133.322 106.162Z" fill="#263238"/>
<path d="M132.992 106.33C133.082 106.33 133.172 106.302 133.262 106.302L133.292 106.274C133.262 106.246 132.992 106.078 132.872 106.134C132.842 106.134 132.812 106.162 132.812 106.19C132.812 106.218 132.813 106.274 132.842 106.302C132.872 106.302 132.932 106.33 132.992 106.33ZM133.202 106.246C133.022 106.274 132.902 106.274 132.842 106.246C132.813 106.218 132.812 106.19 132.812 106.162C132.812 106.162 132.813 106.134 132.842 106.134C132.902 106.106 133.082 106.19 133.202 106.246Z" fill="#407BFF"/>
<path d="M133.232 106.274C133.262 106.274 133.262 106.274 133.232 106.274C133.262 106.274 133.262 106.274 133.232 106.274C133.262 106.246 133.262 105.994 133.173 105.911C133.143 105.883 133.113 105.883 133.083 105.883C133.053 105.883 133.023 105.911 132.993 105.939C132.993 106.05 133.143 106.218 133.232 106.274ZM133.113 105.911C133.143 105.911 133.143 105.911 133.173 105.939C133.232 105.994 133.232 106.134 133.232 106.218C133.143 106.162 133.053 106.022 133.053 105.939C133.053 105.939 133.053 105.911 133.113 105.911Z" fill="#407BFF"/>
<path opacity="0.2" d="M134.161 104.234L133.202 104.206L133.292 105.408H134.251L134.161 104.234Z" fill="black"/>
<path d="M138.958 93.5879C138.958 93.5879 132.033 94.2027 132.273 96.1586C132.633 98.9529 132.813 105.016 132.813 105.016L134.581 105.072C134.581 105.072 135.331 99.6235 134.941 96.7454C136.74 96.7454 141.116 96.8572 141.536 95.8513C141.896 94.9571 141.776 93.5879 141.776 93.5879H138.958Z" fill="black"/>
<path d="M134.791 105.184L132.662 105.072L132.603 104.206L134.911 104.374L134.791 105.184Z" fill="#263238"/>
<path d="M137.429 87.8876C137.429 88.0553 137.399 88.195 137.369 88.3347C137.339 88.4744 137.339 88.6141 137.309 88.7538C137.249 89.0333 137.189 89.3127 137.129 89.6201C136.979 90.2069 136.769 90.7937 136.47 91.3246C136.38 91.4643 136.29 91.6319 136.17 91.7437C136.05 91.8834 135.87 92.0231 135.72 92.1349C135.39 92.3305 135.001 92.4702 134.611 92.4982C134.251 92.5261 133.922 92.4982 133.562 92.4143C133.412 92.3864 133.232 92.3305 133.082 92.2746C132.992 92.2467 132.932 92.2187 132.842 92.1908C132.752 92.1628 132.692 92.1349 132.603 92.079L132.872 91.4363L133.052 91.4643L133.262 91.4922C133.412 91.4922 133.532 91.5202 133.652 91.5202C133.892 91.5202 134.131 91.4922 134.371 91.4363C134.551 91.3804 134.731 91.2966 134.881 91.1849C134.941 91.129 135.001 91.0731 135.061 90.9893C135.121 90.9054 135.181 90.8216 135.211 90.7098C135.33 90.4863 135.39 90.2627 135.48 90.0392C135.57 89.7877 135.63 89.5642 135.66 89.2847C135.72 89.0333 135.75 88.7818 135.81 88.5023L135.87 88.1111C135.9 87.9714 135.9 87.8597 135.93 87.7479L137.429 87.8876Z" fill="#FFB573"/>
<path d="M137.429 87.1331C136.71 86.4904 135.841 86.8816 135.511 88.0832C135.301 88.7259 135.181 89.3685 135.121 90.0392L137.369 90.4583C137.759 89.3127 138.149 87.7758 137.429 87.1331Z" fill="#F15A24"/>
<path opacity="0.3" d="M136.709 88.4185C136.859 88.2788 137.339 88.8936 137.609 89.6201C137.519 89.8995 137.429 90.1789 137.339 90.4304L135.99 90.1789C136.11 89.4524 136.35 88.7259 136.709 88.4185Z" fill="black"/>
<path d="M132.753 91.157L132.243 90.9893L132.213 91.9952C132.213 91.9952 133.052 92.3306 133.232 91.9394L133.172 91.6879C133.112 91.4364 132.963 91.2687 132.753 91.157Z" fill="#FFB573"/>
<path d="M131.644 90.9893L131.344 91.8276L132.213 91.9673L132.243 90.9614L131.644 90.9893Z" fill="#FFB573"/>
<path d="M132.393 91.66C132.363 91.66 132.363 91.66 132.333 91.632L131.434 90.0113C131.434 89.9834 131.434 89.9555 131.464 89.9275C131.494 89.9275 131.524 89.9275 131.554 89.9555L132.453 91.5761C132.483 91.6041 132.453 91.632 132.393 91.66C132.423 91.66 132.423 91.66 132.393 91.66Z" fill="#263238"/>
<path d="M137.339 86.4905L138.418 86.2111L139.797 86.1552C140.217 86.1272 140.606 86.3787 140.756 86.7699C141.026 87.5244 141.266 88.6141 141.446 89.5363C141.656 90.5981 141.746 92.1629 141.776 93.6159H136.619C136.5 90.626 136.08 88.8656 135.9 87.8597C135.84 87.4685 136.05 87.0773 136.44 86.9096L137.339 86.4905Z" fill="#F15A24"/>
<path opacity="0.3" d="M141.446 89.5361C141.296 88.8096 141.116 87.9714 140.937 87.2728C140.007 87.1331 139.558 89.0052 139.857 89.9553C140.157 90.9053 141.596 90.3185 141.596 90.3185C141.536 90.0391 141.506 89.7597 141.446 89.5361Z" fill="black"/>
<path d="M137.998 84.5623L137.579 85.1491L137.009 85.9595C137.069 86.0153 137.129 86.0992 137.189 86.2109C137.279 86.4065 137.369 86.5463 136.949 86.8257C136.859 86.8816 136.799 86.9933 136.829 87.1051C136.859 87.2448 136.979 87.3566 137.459 87.2728C137.909 87.1889 138.328 86.9654 138.658 86.658C138.808 86.5183 138.778 86.4065 138.628 86.2389C138.178 85.8197 138.028 85.1212 137.998 84.5623Z" fill="#FFB573"/>
<path opacity="0.2" d="M137.159 85.764L137.519 85.1772C137.519 85.2051 137.549 85.2051 137.549 85.233C137.579 85.3169 137.609 85.3728 137.609 85.4566C137.669 85.7081 137.459 86.0713 137.219 86.2669L137.189 86.211C137.159 86.1272 137.099 86.0434 137.039 85.9875L137.159 85.764Z" fill="black"/>
<path d="M137.819 83.5007C138.029 84.3389 138.179 84.8419 137.849 85.3728C137.369 86.1832 136.14 86.0714 135.661 85.289C135.241 84.5904 135.001 83.3051 135.78 82.7462C136.35 82.355 137.159 82.4668 137.609 82.9977C137.699 83.1653 137.789 83.333 137.819 83.5007Z" fill="#FFB573"/>
<path d="M140.576 86.7699C140.666 86.9097 140.756 87.0494 140.846 87.217C140.936 87.3567 140.996 87.4965 141.086 87.6641C141.236 87.9435 141.386 88.2509 141.536 88.5583C141.686 88.8656 141.805 89.173 141.895 89.5083C142.015 89.8436 142.075 90.2069 142.135 90.5702C142.165 90.7937 142.135 90.9893 142.105 91.2128C142.075 91.3526 142.045 91.4923 141.985 91.604C141.895 91.7438 141.805 91.8835 141.686 91.9673C141.566 92.0511 141.446 92.1349 141.296 92.1908C141.176 92.2467 141.056 92.2747 140.936 92.2747C140.726 92.3026 140.516 92.3026 140.277 92.3026C140.097 92.2747 139.887 92.2467 139.707 92.2188C139.527 92.1908 139.347 92.1349 139.167 92.0791C138.838 91.9673 138.478 91.8555 138.178 91.6879L138.448 91.0452C139.078 91.157 139.737 91.2687 140.307 91.2128C140.426 91.2128 140.546 91.1849 140.666 91.157C140.756 91.129 140.816 91.0731 140.816 91.0731C140.816 91.0731 140.816 91.0731 140.816 91.0172C140.816 90.9055 140.816 90.7937 140.786 90.7099C140.726 90.4304 140.666 90.179 140.546 89.9275C140.456 89.648 140.337 89.3686 140.187 89.1171C140.067 88.8377 139.917 88.5583 139.767 88.3068C139.707 88.1671 139.617 88.0274 139.527 87.9156L139.287 87.5244L140.576 86.7699Z" fill="#FFB573"/>
<path d="M140.127 86.1552C139.167 86.0154 138.688 86.7978 139.137 87.9714C139.377 88.6141 139.677 89.2009 140.037 89.7877L142.135 88.9215C141.745 87.7479 141.116 86.2949 140.127 86.1552Z" fill="#F15A24"/>
<path d="M137.879 90.9613L137.429 91.101L138.058 91.9393C138.058 91.9393 139.018 91.6319 138.808 91.2407L138.568 91.101C138.388 90.9892 138.118 90.8775 137.879 90.9613Z" fill="#FFB573"/>
<path d="M137.039 91.6599L137.489 92.079L138.059 91.9114L137.429 91.0731L137.039 91.6599Z" fill="#FFB573"/>
<path d="M140.307 91.5762H141.446C141.476 91.5762 141.506 91.6041 141.506 91.6321V91.7159C141.506 91.7438 141.476 91.7718 141.446 91.7718H140.307C140.277 91.7718 140.247 91.7438 140.247 91.7159V91.6321C140.247 91.6041 140.277 91.5762 140.307 91.5762Z" fill="white"/>
<path d="M137.969 85.1212C137.969 85.1212 138.688 84.255 138.568 83.6962C138.448 83.1373 137.669 83.305 137.669 83.305C138.418 83.5565 138.538 83.7521 138.568 83.6962C138.598 83.6403 138.538 83.277 138.358 82.9417C137.999 82.327 138.059 82.3829 138.059 82.3829C137.969 82.299 137.729 82.2152 137.669 82.1873C137.369 82.1034 137.549 81.9358 137.249 81.7402C137.009 81.6005 136.859 81.824 136.38 81.7961C135.78 81.7681 135.99 81.4328 135.271 81.6005C135.061 81.6563 135.121 81.9358 134.881 82.0755C134.701 82.1593 134.611 82.0755 134.491 82.1593C134.251 82.327 134.192 82.8858 134.491 83.1932C134.761 83.4726 135.241 83.4167 135.511 83.3888C136.35 83.277 136.71 82.7461 137.219 82.9138C137.369 82.9697 137.459 83.0535 137.519 83.1094" fill="#263238"/>
<path d="M138.389 84.1433C138.389 84.3389 138.329 84.5345 138.209 84.6742C138.029 84.8698 137.759 84.7022 137.699 84.4786C137.639 84.2551 137.729 83.9198 137.939 83.8359C138.149 83.7242 138.359 83.8918 138.389 84.1433Z" fill="#FFB573"/>
<path d="M148.64 92.3863H120.702C120.522 92.3863 120.372 92.2466 120.372 92.0789C120.372 91.9113 120.522 91.7716 120.702 91.7716H148.64C148.82 91.7716 148.97 91.9113 148.97 92.0789C149 92.2466 148.85 92.3863 148.64 92.3863Z" fill="#8C6239"/>
<path opacity="0.3" d="M148.64 92.3863H142.105C141.925 92.3863 141.775 92.2466 141.775 92.0789C141.775 91.9113 141.925 91.7716 142.105 91.7716H148.64C148.82 91.7716 148.97 91.9113 148.97 92.0789C149 92.2466 148.85 92.3863 148.64 92.3863Z" fill="#263238"/>
<path d="M148.34 107.14H149L148.25 92.3863H147.351L148.34 107.14Z" fill="#263238"/>
<path opacity="0.1" d="M148.34 107.14H149L148.25 92.3863H147.351L148.34 107.14Z" fill="white"/>
<path d="M142.405 107.14H141.775L142.525 92.3863H143.394L142.405 107.14Z" fill="#263238"/>
<path opacity="0.2" d="M142.405 107.14H141.775L142.525 92.3863H143.394L142.405 107.14Z" fill="white"/>
<path d="M126.937 107.14H127.566L126.847 92.3863H125.948L126.937 107.14Z" fill="#263238"/>
<path opacity="0.1" d="M126.937 107.14H127.566L126.847 92.3863H125.948L126.937 107.14Z" fill="white"/>
<path d="M121.001 107.14H120.342L121.091 92.3863H121.991L121.001 107.14Z" fill="#263238"/>
<path opacity="0.2" d="M121.001 107.14H120.342L121.091 92.3863H121.991L121.001 107.14Z" fill="white"/>
<path d="M142.765 93.1687H121.271V94.3981H142.765V93.1687Z" fill="#263238"/>
<path opacity="0.2" d="M142.765 93.1687H121.271V94.3981H142.765V93.1687Z" fill="white"/>
<path d="M124.808 90.9333C124.718 90.9333 124.658 90.9892 124.658 91.073V91.6319C124.658 91.7157 124.718 91.7716 124.808 91.7716H129.395C129.425 91.7716 129.455 91.7436 129.455 91.7157V90.9612C129.455 90.9333 129.425 90.9053 129.395 90.9053L124.808 90.9333Z" fill="#009245"/>
<path opacity="0.9" d="M127.536 91.0171H129.455V91.6877H127.536C127.476 91.6877 127.446 91.6598 127.446 91.6039V91.1009C127.446 91.045 127.476 91.0171 127.536 91.0171Z" fill="white"/>
<path d="M122.59 90.9333H127.207C127.296 90.9333 127.356 90.9892 127.356 91.073V91.6319C127.356 91.7157 127.296 91.7716 127.207 91.7716H122.59C122.5 91.7716 122.44 91.7157 122.44 91.6319V91.073C122.44 90.9892 122.53 90.9333 122.59 90.9333Z" fill="#407BFF"/>
<path d="M122.59 90.9333H127.207C127.296 90.9333 127.356 90.9892 127.356 91.073V91.6319C127.356 91.7157 127.296 91.7716 127.207 91.7716H122.59C122.5 91.7716 122.44 91.7157 122.44 91.6319V91.073C122.44 90.9892 122.53 90.9333 122.59 90.9333Z" fill="#009245"/>
<path opacity="0.5" d="M124.239 90.9333H124.928C124.958 90.9333 124.988 90.9612 124.988 90.9892V91.7157C124.988 91.7436 124.958 91.7716 124.928 91.7716H124.239C124.209 91.7716 124.179 91.7436 124.179 91.7157V90.9892C124.179 90.9612 124.209 90.9333 124.239 90.9333Z" fill="#006837"/>
<path opacity="0.5" d="M125.258 90.9333H125.947C125.977 90.9333 126.007 90.9612 126.007 90.9892V91.7157C126.007 91.7436 125.977 91.7716 125.947 91.7716H125.258C125.228 91.7716 125.198 91.7436 125.198 91.7157V90.9892C125.198 90.9612 125.228 90.9333 125.258 90.9333Z" fill="#006837"/>
<path d="M123.999 89.8995C123.909 89.8995 123.849 89.9554 123.849 90.0392V90.7937C123.849 90.8775 123.909 90.9334 123.999 90.9334H128.945C128.975 90.9334 129.005 90.9054 129.005 90.8775V89.9274C129.005 89.8995 128.975 89.8716 128.945 89.8716L123.999 89.8995Z" fill="#C1272D"/>
<path opacity="0.9" d="M126.697 89.9833H128.975V90.8495H126.697C126.637 90.8495 126.607 90.8216 126.607 90.7657V90.0671C126.637 90.0392 126.667 89.9833 126.697 89.9833Z" fill="white"/>
<path d="M122.5 89.8995H126.397C126.487 89.8995 126.547 89.9554 126.547 90.0392V90.7937C126.547 90.8775 126.487 90.9334 126.397 90.9334H122.5C122.41 90.9334 122.35 90.8775 122.35 90.7937V90.0392C122.35 89.9833 122.41 89.8995 122.5 89.8995Z" fill="#C1272D"/>
<path opacity="0.6" d="M123.19 90.1229H126.037C126.097 90.1229 126.127 90.1509 126.127 90.2068V90.6539C126.127 90.7097 126.097 90.7377 126.037 90.7377H123.19C123.13 90.7377 123.1 90.7097 123.1 90.6539V90.2068C123.1 90.1509 123.13 90.1229 123.19 90.1229Z" fill="#C69C6D"/>
<path d="M125.438 89.4243C125.348 89.4243 125.288 89.4523 125.288 89.5082V89.8435C125.288 89.8994 125.348 89.9273 125.438 89.9273H130.024C130.054 89.9273 130.084 89.9273 130.084 89.8994V89.4523C130.054 89.4243 130.054 89.4243 130.024 89.4243H125.438Z" fill="#407BFF"/>
<path opacity="0.9" d="M128.136 89.4803H130.054V89.8715H128.136C128.106 89.8715 128.076 89.8436 128.076 89.8157V89.5362C128.076 89.4803 128.106 89.4803 128.136 89.4803Z" fill="white"/>
<path d="M123.19 89.4243H127.866C127.926 89.4243 127.986 89.4802 127.986 89.5361V89.8155C127.986 89.8714 127.926 89.9273 127.866 89.9273H123.19C123.13 89.9273 123.07 89.8714 123.07 89.8155V89.5361C123.07 89.4523 123.13 89.4243 123.19 89.4243Z" fill="#407BFF"/>
<path opacity="0.2" d="M123.19 89.4243H127.866C127.926 89.4243 127.986 89.4802 127.986 89.5361V89.8155C127.986 89.8714 127.926 89.9273 127.866 89.9273H123.19C123.13 89.9273 123.07 89.8714 123.07 89.8155V89.5361C123.07 89.4523 123.13 89.4243 123.19 89.4243Z" fill="black"/>
<path opacity="0.5" d="M123.639 89.4243H123.789C123.789 89.4243 123.819 89.4243 123.819 89.4523V89.8994C123.819 89.8994 123.819 89.9273 123.789 89.9273H123.639C123.639 89.9273 123.609 89.9273 123.609 89.8994L123.639 89.4243C123.609 89.4243 123.609 89.4243 123.639 89.4243Z" fill="#407BFF"/>
<path opacity="0.5" d="M127.446 89.4243H127.596C127.596 89.4243 127.626 89.4243 127.626 89.4523V89.8994C127.626 89.8994 127.626 89.9273 127.596 89.9273H127.446C127.446 89.9273 127.416 89.9273 127.416 89.8994L127.446 89.4243C127.416 89.4243 127.416 89.4243 127.446 89.4243Z" fill="#407BFF"/>
<path d="M124.628 88.7259C124.538 88.7259 124.478 88.7538 124.478 88.8097V89.3685C124.478 89.4244 124.538 89.4524 124.628 89.4524H129.574C129.604 89.4524 129.634 89.4524 129.634 89.4244V88.7538C129.634 88.7259 129.604 88.7259 129.574 88.7259H124.628V88.7259Z" fill="#4D4D4D"/>
<path opacity="0.9" d="M127.296 88.7538H129.605V89.3685H127.296C127.266 89.3685 127.236 89.3406 127.236 89.3127V88.8097C127.236 88.7817 127.266 88.7538 127.296 88.7538Z" fill="white"/>
<path d="M123.1 88.7259H127.057C127.117 88.7259 127.177 88.7817 127.177 88.8376V89.3406C127.177 89.3965 127.117 89.4524 127.057 89.4524H123.1C123.04 89.4524 122.98 89.3965 122.98 89.3406V88.8376C122.98 88.7538 123.04 88.7259 123.1 88.7259Z" fill="#808080"/>
<path d="M135.66 91.604H131.523C131.463 91.604 131.433 91.6319 131.433 91.6878C131.433 91.7437 131.463 91.7716 131.523 91.7716H135.69C135.75 91.7716 135.78 91.7437 135.78 91.6878C135.75 91.6319 135.72 91.604 135.66 91.604Z" fill="white"/>
<path d="M143.814 91.4362H146.541L146.811 91.7716H143.574L143.814 91.4362Z" fill="#263238"/>
<path d="M148.04 85.7361C148.04 85.9317 147.891 86.0714 147.681 86.0714C147.471 86.0714 147.321 85.9317 147.321 85.7361C147.321 85.5405 147.471 85.4008 147.681 85.4008C147.861 85.3728 148.04 85.5405 148.04 85.7361Z" fill="black"/>
<path d="M145.283 91.6599C145.223 91.6599 145.163 91.604 145.163 91.5481C145.163 91.5202 145.163 91.5202 145.163 91.5202L147.801 85.7081C147.831 85.6522 147.891 85.6243 147.951 85.6522C148.011 85.6802 148.011 85.7361 148.011 85.7919L145.373 91.604C145.373 91.632 145.313 91.6599 145.283 91.6599Z" fill="#263238"/>
<path d="M147.92 85.8477C147.89 85.8477 147.86 85.8477 147.86 85.8198L143.064 82.4666C143.004 82.4387 143.004 82.3549 143.034 82.3269C143.064 82.2711 143.154 82.2711 143.184 82.299L147.98 85.6521C148.04 85.6801 148.04 85.7639 148.01 85.7918C147.98 85.8198 147.95 85.8477 147.92 85.8477Z" fill="#263238"/>
<path d="M148.28 85.7361C148.28 85.9317 148.13 86.0714 147.92 86.0714C147.71 86.0714 147.561 85.9317 147.561 85.7361C147.561 85.5405 147.71 85.4008 147.92 85.4008C148.1 85.3728 148.28 85.5405 148.28 85.7361Z" fill="#263238"/>
<path d="M143.124 82.7182C143.323 82.7182 143.484 82.568 143.484 82.3828C143.484 82.1977 143.323 82.0475 143.124 82.0475C142.925 82.0475 142.764 82.1977 142.764 82.3828C142.764 82.568 142.925 82.7182 143.124 82.7182Z" fill="#263238"/>
<path d="M142.614 83.9477C142.285 84.255 141.775 84.255 141.445 83.9477C141.116 83.6403 141.116 83.1653 141.445 82.8579C141.775 82.5505 142.285 82.5505 142.614 82.8579C142.914 83.1653 142.914 83.6403 142.614 83.9477Z" fill="#407BFF"/>
<path opacity="0.7" d="M142.614 83.9477C142.285 84.255 141.775 84.255 141.445 83.9477C141.116 83.6403 141.116 83.1653 141.445 82.8579C141.775 82.5505 142.285 82.5505 142.614 82.8579C142.914 83.1653 142.914 83.6403 142.614 83.9477Z" fill="white"/>
<path d="M143.124 82.3829C142.435 81.7402 141.326 81.7402 140.636 82.3829L143.124 84.7021C143.814 84.0594 143.814 83.0256 143.124 82.3829Z" fill="#263238"/>
<g opacity="0.2">
<path opacity="0.2" d="M140.636 82.2991L130.144 91.6878H140.906L143.124 84.6462L140.636 82.2991Z" fill="#407BFF"/>
<path opacity="0.7" d="M140.636 82.4108L130.144 91.7716H140.906L143.124 84.7301L140.636 82.4108Z" fill="#FFFF00"/>
</g>
<path fill-rule="evenodd" clip-rule="evenodd" d="M112.004 85.0256L108.094 99.0873H115.764L112.004 85.0256Z" fill="#F7931E"/>
<path d="M111.75 98.7647L112.103 88.0305L112.338 98.7647H111.75Z" fill="black"/>
<path d="M275.458 81.1191L275.363 81.2136C275.363 81.2136 275.394 82.2539 275.426 82.4745C275.458 82.6952 275.584 83.0735 275.489 83.3572C275.394 83.6409 275.363 83.8615 275.394 83.893C275.426 83.9246 275.363 84.0506 275.363 84.0506L275.616 83.893L276.026 82.9474L275.837 81.9387L275.458 81.1191Z" fill="#1D61DA"/>
<path opacity="0.1" d="M275.458 81.1191L275.363 81.2136C275.363 81.2136 275.394 82.2539 275.426 82.4745C275.458 82.6952 275.584 83.0735 275.489 83.3572C275.394 83.6409 275.363 83.8615 275.394 83.893C275.426 83.9246 275.363 84.0506 275.363 84.0506L275.616 83.893L276.026 82.9474L275.837 81.9387L275.458 81.1191Z" fill="black"/>
<path d="M277.132 90.9225C277.132 90.9225 277.132 90.5758 277.069 90.5128C277.006 90.4497 276.911 90.2291 276.785 90.2291C276.658 90.2291 276.216 90.3552 276.216 90.3867C276.22 90.4851 276.198 90.5827 276.153 90.6704C276.09 90.7649 275.742 91.1432 276.09 91.2062C276.205 91.2252 276.323 91.221 276.437 91.1939C276.551 91.1669 276.659 91.1175 276.753 91.0486C276.785 91.0171 276.911 90.9856 276.943 91.0171C276.974 91.0486 277.132 90.9225 277.132 90.9225Z" fill="#1D61DA"/>
<path d="M278.017 90.3552L278.207 90.7019C278.207 90.7019 278.27 91.0172 278.365 91.0487H278.46C278.46 91.0487 278.555 91.3954 278.776 91.3639C278.997 91.3324 279.25 91.2063 279.25 91.1432C279.25 91.0802 279.25 90.8911 279.155 90.828C279.022 90.7197 278.895 90.604 278.776 90.4813L278.618 90.3237L278.017 90.3552Z" fill="#1D61DA"/>
<path d="M275.593 78.8084C275.533 78.8393 275.48 78.8844 275.44 78.9398C275.401 78.9952 275.375 79.0593 275.365 79.1267C275.348 79.3518 275.571 79.5639 275.499 79.7779C275.458 79.8995 275.331 79.9782 275.295 80.1011C275.275 80.1991 275.29 80.3007 275.336 80.3895C275.385 80.5114 275.446 80.6285 275.517 80.7395C275.65 80.9481 275.824 81.1461 275.859 81.3908C275.869 81.4336 275.869 81.4782 275.858 81.5208C275.847 81.5634 275.827 81.6028 275.798 81.6359C275.862 81.5875 275.935 81.5527 276.013 81.5337C276.336 81.426 276.636 81.2593 276.898 81.0421C276.993 80.9753 277.065 80.8804 277.103 80.7707C277.151 80.5771 277.004 80.3833 277.018 80.1843C277.027 80.0569 277.1 79.9445 277.142 79.8238C277.178 79.7037 277.19 79.5775 277.176 79.4528C277.162 79.3281 277.123 79.2074 277.061 79.0981C277.01 78.9924 276.938 78.8981 276.849 78.8211C276.761 78.7441 276.657 78.6858 276.545 78.65C276.373 78.6099 276.193 78.6151 276.023 78.665C275.875 78.6957 275.73 78.7438 275.593 78.8084V78.8084Z" fill="#2F2E41"/>
<path d="M275.77 80.5563C275.84 80.4274 275.943 80.3194 276.068 80.2437C276.194 80.1681 276.338 80.1275 276.485 80.1262C276.99 80.1262 276.896 80.0947 276.896 80.0947L276.737 80.7251L276.421 81.0404L275.77 80.5563Z" fill="#1D61DA"/>
<path d="M275.9 79.8898C275.9 79.8898 276.185 80.3626 275.995 80.5517C275.805 80.7409 275.9 80.93 275.932 80.9615C275.963 80.9931 276.848 81.0561 276.848 81.0561L276.88 80.6148L276.975 80.2365C276.975 80.2365 276.469 80.1419 276.532 79.9213C276.595 79.7006 275.9 79.8898 275.9 79.8898Z" fill="#FBBEBE"/>
<path opacity="0.1" d="M275.9 79.8898C275.9 79.8898 276.185 80.3626 275.995 80.5517C275.805 80.7409 275.9 80.93 275.932 80.9615C275.963 80.9931 276.848 81.0561 276.848 81.0561L276.88 80.6148L276.975 80.2365C276.975 80.2365 276.469 80.1419 276.532 79.9213C276.595 79.7006 275.9 79.8898 275.9 79.8898Z" fill="black"/>
<path d="M278.112 84.366C278.078 84.4742 278.036 84.5796 277.986 84.6812C277.954 84.7127 277.859 84.4605 277.859 84.4605L277.954 84.2399L278.112 84.366Z" fill="#FBBEBE"/>
<path d="M277.749 82.9317L277.875 83.6567H275.979L276.074 82.9317H277.749Z" fill="#FBBEBE"/>
<path d="M276.248 80.142C276.579 80.142 276.848 79.8739 276.848 79.5431C276.848 79.2123 276.579 78.9442 276.248 78.9442C275.916 78.9442 275.647 79.2123 275.647 79.5431C275.647 79.8739 275.916 80.142 276.248 80.142Z" fill="#FBBEBE"/>
<path d="M276.374 80.7724C276.374 80.7724 276.026 80.804 276.026 80.7409C276.026 80.6779 275.995 80.4887 275.932 80.5203C275.868 80.5518 275.458 80.5833 275.489 80.6779C275.521 80.7724 275.584 80.9616 275.521 80.9616C275.493 80.9671 275.467 80.9782 275.445 80.9941C275.422 81.0099 275.402 81.0303 275.387 81.0538C275.373 81.0774 275.363 81.1038 275.359 81.1313C275.354 81.1588 275.356 81.1868 275.363 81.2138C275.394 81.3714 275.742 82.317 275.742 82.317C275.742 82.317 275.774 82.6323 275.868 82.7268C275.907 82.7764 275.928 82.8374 275.928 82.9002C275.928 82.963 275.907 83.024 275.868 83.0736C275.805 83.1366 276.026 83.1997 276.121 83.3257C276.216 83.4518 276.943 83.3573 276.974 83.3257C277.006 83.2942 277.764 83.2942 277.828 83.2312C277.891 83.1681 277.796 82.979 277.796 82.979C277.796 82.979 277.764 82.6953 277.796 82.6007C277.828 82.5062 277.67 80.9616 277.575 80.867C277.48 80.7724 277.859 80.4887 277.859 80.4887C277.859 80.4887 277.796 80.2366 277.385 80.205C277.385 80.205 277.259 80.0159 277.132 80.0159C277.006 80.0159 276.731 80.1626 276.731 80.1626C276.731 80.1626 276.658 80.5833 276.564 80.6148C276.489 80.6515 276.424 80.7055 276.374 80.7724Z" fill="#1D61DA"/>
<path d="M277.638 80.3942L277.859 80.4888C277.859 80.4888 278.491 82.4431 278.428 82.8214C278.365 83.1997 278.207 84.4921 278.112 84.4921C278.017 84.4921 277.828 84.3029 277.828 84.3029V83.9877C277.828 83.9247 277.733 83.7355 277.796 83.7355C277.859 83.7355 277.954 83.6725 277.891 83.6095C277.828 83.5464 277.765 83.4518 277.828 83.3573C277.891 83.2627 277.923 83.2312 277.891 83.1366C277.859 83.0421 277.796 82.9475 277.859 82.8844C277.923 82.8214 277.701 82.5062 277.701 82.5062L277.354 81.1192L277.417 80.5518L277.638 80.3942Z" fill="#1D61DA"/>
<path d="M277.765 83.3887C277.765 83.3887 276.564 83.2942 276.406 83.2942C276.248 83.2942 275.893 83.1457 275.893 83.1457C275.893 83.1457 274.984 84.0507 275.3 85.5322C275.616 87.0138 275.679 88.8421 275.869 89.3779C275.998 89.76 276.103 90.1495 276.185 90.5443C276.185 90.5443 276.501 89.9769 277.101 90.6073C277.101 90.6073 277.164 90.1345 277.069 89.9453C276.975 89.7562 276.848 88.7475 276.848 88.7475C276.848 88.7475 276.627 87.1399 276.627 86.9507C276.627 86.7616 276.501 85.154 276.532 85.1224C276.564 85.0909 276.722 86.3518 276.753 86.5725C276.785 86.7931 276.88 88.4953 276.975 88.6844C277.069 88.8736 277.512 90.3866 277.765 90.4812C278.018 90.5758 278.871 90.4497 278.839 90.3866C278.808 90.3236 278.586 89.9769 278.523 89.8823L278.27 89.504L277.67 87.4551L277.954 84.9648C277.954 84.9648 278.112 83.3572 277.765 83.3887Z" fill="#2F2E41"/>
<path d="M276.614 79.4643H275.844C275.811 79.4643 275.779 79.4526 275.754 79.4315C275.73 79.4103 275.713 79.381 275.708 79.3488L275.632 78.8653H276.832L276.725 79.374C276.72 79.3995 276.706 79.4224 276.685 79.4389C276.665 79.4553 276.64 79.4643 276.614 79.4643Z" fill="#2F2E41"/>
<path d="M285.183 81.8176H283.612V90.7196H285.183V81.8176Z" fill="#C9F2FF"/>
<path d="M289.372 81.8176H287.801V90.7196H289.372V81.8176Z" fill="#C9F2FF"/>
<path d="M293.561 81.8176H291.99V90.7196H293.561V81.8176Z" fill="#C9F2FF"/>
<path d="M295.656 89.6723H282.041V91.7669H295.656V89.6723Z" fill="#1D65E9"/>
<path d="M281.517 82.3412L288.848 75.5338L296.179 82.3412H281.517Z" fill="#1D65E9"/>
<path d="M288.848 80.7703C289.427 80.7703 289.896 80.3014 289.896 79.723C289.896 79.1446 289.427 78.6757 288.848 78.6757C288.27 78.6757 287.801 79.1446 287.801 79.723C287.801 80.3014 288.27 80.7703 288.848 80.7703Z" fill="#CEF3FE"/>
<path d="M305.081 67.1554V64.3801L307.176 62.8091V60.924L307.699 60.5575V62.1808H308.223V60.2433L308.485 60.0862L304.296 57.6774L300.682 60.0862L302.515 61.1335V62.8091L304.61 64.3801V67.1554H300.421V70.0355H300.944V67.6791H311.417V70.0355H311.941V67.1554H305.081ZM301.677 60.0862L304.348 58.3058L307.49 60.0862L304.819 61.8666L301.677 60.0862ZM302.987 62.5473V61.4477L304.819 62.495L306.652 61.2906V62.5997L304.819 63.9612L302.987 62.5473Z" fill="#666666"/>
<path d="M312.412 69.7736H299.845V89.1486H312.412V69.7736Z" fill="#D4F5FE"/>
<path d="M306.285 81.5557H305.762V89.1486H306.285V81.5557Z" fill="#4D4D4D"/>
<path d="M309.637 89.1486H309.113V81.8176H302.934V89.1486H302.41V81.2939H309.637V89.1486Z" fill="#4D4D4D"/>
<path d="M305.081 84.4357H304.034V86.5303H305.081V84.4357Z" fill="#4D4D4D"/>
<path d="M308.223 84.4357H307.176V86.5303H308.223V84.4357Z" fill="#4D4D4D"/>
<path d="M312.936 89.1487H299.321V91.2432H312.936V89.1487Z" fill="#1D65E9"/>
<path d="M303.615 75.5338H300.84V78.6757H303.615V75.5338Z" fill="#1D65E9"/>
<path d="M307.28 75.5338H304.505V78.6757H307.28V75.5338Z" fill="#1D65E9"/>
<path d="M310.946 75.5338H308.171V78.6757H310.946V75.5338Z" fill="#1D65E9"/>
<path d="M303.615 71.8683H300.84V75.0101H303.615V71.8683Z" fill="#1D65E9"/>
<path d="M307.28 71.8683H304.505V75.0101H307.28V71.8683Z" fill="#1D65E9"/>
<path d="M310.946 71.8683H308.171V75.0101H310.946V71.8683Z" fill="#1D65E9"/>
<path d="M261.095 77.6284L259 87.0541H263.189L261.095 77.6284Z" fill="#D4F5FE"/>
<path d="M261.251 81.294H260.99V87.0541H261.251V81.294Z" fill="#666666"/>
<path d="M262.012 84.8818L260.969 86.1252L261.169 86.2935L262.213 85.0501L262.012 84.8818Z" fill="#666666"/>
<path d="M260.168 84.328L259.983 84.5132L261.02 85.5499L261.205 85.3648L260.168 84.328Z" fill="#666666"/>
<path d="M261.528 82.756L260.996 83.2599L261.176 83.4501L261.708 82.9462L261.528 82.756Z" fill="#666666"/>
<path d="M268.321 92.2905L266.227 101.716H270.416L268.321 92.2905Z" fill="#1D65E7"/>
<path d="M268.373 95.956H268.216V101.716H268.373V95.956Z" fill="#1A1A1A"/>
<path d="M269.31 99.5906L268.264 100.832L268.384 100.934L269.43 99.6918L269.31 99.5906Z" fill="#1A1A1A"/>
<path d="M267.276 99.0826L267.202 99.1566L268.238 100.193L268.312 100.119L267.276 99.0826Z" fill="#1A1A1A"/>
<path d="M268.784 97.4387L268.251 97.9425L268.359 98.0566L268.892 97.5528L268.784 97.4387Z" fill="#1A1A1A"/>
<path d="M320.162 98.5743L318.068 108H322.257L320.162 98.5743Z" fill="#1D65E7"/>
<path d="M320.214 102.24H320.057V108H320.214V102.24Z" fill="#1A1A1A"/>
<path d="M321.15 105.875L320.104 107.117L320.224 107.218L321.27 105.976L321.15 105.875Z" fill="#1A1A1A"/>
<path d="M319.116 105.367L319.042 105.441L320.079 106.478L320.153 106.404L319.116 105.367Z" fill="#1A1A1A"/>
<path d="M320.627 103.724L320.095 104.227L320.203 104.341L320.735 103.838L320.627 103.724Z" fill="#1A1A1A"/>
<path d="M321.209 71.3446L317.073 89.6723H325.294L321.209 71.3446Z" fill="#1D65E7"/>
<path d="M321.314 78.414H321.052V89.6724H321.314V78.414Z" fill="#1A1A1A"/>
<path d="M323.167 85.4823L321.114 87.9291L321.314 88.0974L323.368 85.6506L323.167 85.4823Z" fill="#1A1A1A"/>
<path d="M319.208 84.4729L319.023 84.658L321.06 86.6945L321.245 86.5093L319.208 84.4729Z" fill="#1A1A1A"/>
<path d="M322.144 81.4065L321.117 82.3782L321.297 82.5684L322.324 81.5966L322.144 81.4065Z" fill="#1A1A1A"/>
<path d="M320.202 51L318.015 60.6892H322.361L320.202 51Z" fill="#1D65E7"/>
<path d="M320.257 54.7371H320.119V60.689H320.257V54.7371Z" fill="#1A1A1A"/>
<path d="M321.237 58.474L320.151 59.7675L320.257 59.8565L321.343 58.563L321.237 58.474Z" fill="#1A1A1A"/>
<path d="M319.144 57.9402L319.046 58.0381L320.123 59.1147L320.221 59.0168L319.144 57.9402Z" fill="#1A1A1A"/>
<path d="M320.696 56.3191L320.153 56.8329L320.248 56.9334L320.791 56.4197L320.696 56.3191Z" fill="#1A1A1A"/>
<path d="M274.448 62.4425L270.939 78.152H277.956L274.448 62.4425Z" fill="#1D65E7"/>
<path d="M274.605 67.6789H274.343V78.1519H274.605V67.6789Z" fill="#333333"/>
<path d="M276.264 74.2304L274.345 76.5168L274.546 76.6851L276.464 74.3987L276.264 74.2304Z" fill="#333333"/>
<path d="M272.65 73.2603L272.465 73.4455L274.354 75.3339L274.539 75.1487L272.65 73.2603Z" fill="#333333"/>
<path d="M275.346 70.4474L274.395 71.3471L274.575 71.5373L275.526 70.6375L275.346 70.4474Z" fill="#333333"/>
<path d="M337.181 68.2027L335.086 77.6284H339.276L337.181 68.2027Z" fill="#D4F5FE"/>
<path d="M337.286 72.9156H337.024V77.6284H337.286V72.9156Z" fill="#666666"/>
<path d="M337.885 75.8254L337.043 76.8282L337.244 76.9965L338.086 75.9937L337.885 75.8254Z" fill="#666666"/>
<path d="M336.412 75.3966L336.227 75.5817L337.079 76.4334L337.264 76.2482L336.412 75.3966Z" fill="#666666"/>
<path d="M337.495 74.1167L337.077 74.5126L337.257 74.7028L337.675 74.3069L337.495 74.1167Z" fill="#666666"/>
<path d="M293.037 55.059L290.943 64.4847H295.132L293.037 55.059Z" fill="#D4F5FE"/>
<path d="M293.142 59.772H292.88V64.4848H293.142V59.772Z" fill="#666666"/>
<path d="M293.741 62.6817L292.9 63.6845L293.1 63.8529L293.942 62.8501L293.741 62.6817Z" fill="#666666"/>
<path d="M292.268 62.2529L292.083 62.438L292.935 63.2897L293.12 63.1045L292.268 62.2529Z" fill="#666666"/>
<path d="M293.351 60.9731L292.933 61.369L293.113 61.5593L293.531 61.1633L293.351 60.9731Z" fill="#666666"/>
<path d="M360.285 305.33V346.103C359.875 346.249 359.464 346.42 359.036 346.59V305.914C359.446 305.72 359.875 305.525 360.285 305.33Z" fill="#E67575" fill-opacity="0.39"/>
<path d="M356.717 307.106V347.66C356.307 347.879 355.879 348.098 355.468 348.317V307.787C355.879 307.568 356.289 307.325 356.717 307.106Z" fill="#E67575" fill-opacity="0.39"/>
<path d="M353.149 309.15V349.728C352.793 349.971 352.364 350.239 351.901 350.58V309.953C352.311 309.685 352.721 309.417 353.149 309.15Z" fill="#E67575" fill-opacity="0.39"/>
<path d="M349.582 311.558V352.258C349.171 352.575 348.761 352.915 348.333 353.28V312.507C348.743 312.191 349.153 311.874 349.582 311.558Z" fill="#E67575" fill-opacity="0.39"/>
<path d="M348.333 439.594C349.064 441.833 349.528 444.265 349.582 447.258V448.498C349.528 451.564 349.082 454.58 348.333 457.427V439.594Z" fill="#E67575" fill-opacity="0.39"/>
<path d="M346.013 314.502V355.348C345.603 355.737 345.193 356.175 344.765 356.613V315.743C345.157 315.329 345.585 314.915 346.013 314.502Z" fill="#E67575" fill-opacity="0.39"/>
<path d="M344.765 431.834C345.193 432.661 345.621 433.44 346.013 434.218V463.898C345.621 464.749 345.211 465.552 344.765 466.355V431.834Z" fill="#E67575" fill-opacity="0.39"/>
<path d="M342.446 318.492V359.313C342.018 359.848 341.607 360.408 341.197 360.992V320.194C341.589 319.635 342.018 319.075 342.446 318.492Z" fill="#E67575" fill-opacity="0.39"/>
<path d="M341.197 424.657C341.625 425.606 342.035 426.482 342.446 427.333V469.931C342.035 470.466 341.625 470.977 341.197 471.464V424.657Z" fill="#E67575" fill-opacity="0.39"/>
<path d="M338.878 323.819V364.665C338.45 365.444 338.021 366.247 337.629 367.074V326.13C338.021 325.352 338.45 324.573 338.878 323.819Z" fill="#E67575" fill-opacity="0.39"/>
<path d="M337.629 414.951C338.039 416.313 338.45 417.602 338.878 418.819V473.629C338.503 473.896 338.093 474.164 337.629 474.407V414.951Z" fill="#E67575" fill-opacity="0.39"/>
<path d="M335.31 331.288V373.083C334.792 374.761 334.382 376.464 334.061 378.143V334.548C334.489 333.404 334.899 332.334 335.31 331.288Z" fill="#E67575" fill-opacity="0.39"/>
<path d="M334.061 399.843C334.418 402.13 334.864 404.271 335.31 406.217V475.453C334.917 475.599 334.507 475.745 334.061 475.891V399.843Z" fill="#E67575" fill-opacity="0.39"/>
<path d="M331.742 341.311V476.572C331.349 476.67 330.921 476.791 330.493 476.889V345.13C330.921 343.792 331.349 342.503 331.742 341.311Z" fill="#E67575" fill-opacity="0.39"/>
<path d="M328.174 352.307V477.375C327.764 477.448 327.353 477.545 326.925 477.618V356.151C327.353 354.837 327.781 353.548 328.174 352.307Z" fill="#E67575" fill-opacity="0.39"/>
<path d="M324.607 363.157V478.032C324.196 478.105 323.786 478.178 323.358 478.227V366.879C323.768 365.663 324.179 364.422 324.607 363.157Z" fill="#E67575" fill-opacity="0.39"/>
<path d="M321.038 373.764V478.567C320.628 478.616 320.217 478.689 319.789 478.737V377.462C320.2 376.245 320.61 375.029 321.038 373.764Z" fill="#E67575" fill-opacity="0.39"/>
<path d="M317.471 384.225V479.029C317.114 479.078 316.757 479.102 316.4 479.151C316.347 479.151 316.275 479.175 316.222 479.175V387.825C316.632 386.633 317.043 385.441 317.471 384.225Z" fill="#E67575" fill-opacity="0.39"/>
<path d="M313.903 394.321V479.419C313.475 479.467 313.064 479.492 312.654 479.54V397.727C313.064 396.632 313.475 395.488 313.903 394.321Z" fill="#E67575" fill-opacity="0.39"/>
<path d="M310.334 403.808V479.759C309.924 479.784 309.496 479.832 309.086 479.857V406.898C309.496 405.901 309.906 404.879 310.334 403.808Z" fill="#E67575" fill-opacity="0.39"/>
<path d="M306.767 412.299V480.027C306.357 480.051 305.928 480.076 305.518 480.1V414.975C305.928 414.123 306.357 413.223 306.767 412.299Z" fill="#E67575" fill-opacity="0.39"/>
<path d="M303.199 419.451V480.246C302.789 480.27 302.378 480.294 301.95 480.319V421.592C302.361 420.911 302.789 420.205 303.199 419.451Z" fill="#E67575" fill-opacity="0.39"/>
<path d="M299.631 425.046V480.44C299.221 480.465 298.811 480.465 298.383 480.489V426.603C298.811 426.117 299.221 425.582 299.631 425.046Z" fill="#E67575" fill-opacity="0.39"/>
<path d="M296.063 428.988V480.586C295.885 480.586 295.706 480.611 295.528 480.611C295.296 480.611 295.046 480.635 294.814 480.635V430.009C295.243 429.693 295.653 429.352 296.063 428.988Z" fill="#E67575" fill-opacity="0.39"/>
<path d="M292.495 431.518V480.732C292.067 480.757 291.657 480.757 291.246 480.781V432.296C291.657 432.029 292.067 431.785 292.495 431.518Z" fill="#E67575" fill-opacity="0.39"/>
<path d="M288.927 433.683V480.854C288.499 480.878 288.089 480.878 287.679 480.903V434.437C288.089 434.169 288.499 433.926 288.927 433.683Z" fill="#E67575" fill-opacity="0.39"/>
<path d="M285.359 435.702V480.927C284.931 480.927 284.521 480.951 284.11 480.951V436.383C284.521 436.164 284.931 435.945 285.359 435.702Z" fill="#E67575" fill-opacity="0.39"/>
<path d="M281.792 437.624V481C281.364 481 280.953 481 280.543 481V438.256C280.953 438.062 281.364 437.843 281.792 437.624Z" fill="#E67575" fill-opacity="0.39"/>
<path d="M278.224 439.4V480.976C277.796 480.976 277.386 480.951 276.975 480.951V439.984C277.386 439.813 277.796 439.594 278.224 439.4Z" fill="#E67575" fill-opacity="0.39"/>
<path d="M274.656 441.054V480.878C274.228 480.854 273.818 480.83 273.408 480.805V441.589C273.8 441.419 274.228 441.224 274.656 441.054Z" fill="#E67575" fill-opacity="0.39"/>
<path d="M271.088 442.538V480.611C270.66 480.562 270.25 480.513 269.839 480.465V443.025C270.214 442.879 270.642 442.708 271.088 442.538Z" fill="#E67575" fill-opacity="0.39"/>
<path d="M267.52 443.827V480.1C267.092 480.027 266.681 479.93 266.271 479.832V444.217C266.396 444.192 266.521 444.144 266.628 444.119C266.628 444.119 266.931 444.022 267.52 443.827Z" fill="#E67575" fill-opacity="0.39"/>
<path d="M263.953 444.922V479.175C263.524 479.029 263.114 478.859 262.704 478.713V445.384C263.132 445.19 263.56 445.044 263.953 444.922Z" fill="#E67575" fill-opacity="0.39"/>
<path d="M260.385 446.455V477.546C259.957 477.302 259.546 477.035 259.136 476.743V447.185C259.546 446.917 259.974 446.674 260.385 446.455Z" fill="#E67575" fill-opacity="0.39"/>
<path d="M256.817 448.985V474.845C256.371 474.431 255.943 474.018 255.568 473.604V450.298C255.978 449.812 256.389 449.398 256.817 448.985Z" fill="#E67575" fill-opacity="0.39"/>
<path d="M253.249 453.68V470.588C252.714 469.736 252.321 468.958 252 468.228V456.453C252.464 455.213 252.945 454.264 253.249 453.68Z" fill="#E67575" fill-opacity="0.39"/>
<path d="M340.669 378.19C343.759 364.27 351.456 356.857 360 353V423C346.978 409.328 337.32 393.276 340.669 378.19Z" fill="#CAF2FE"/>
<path d="M307.029 250.822L305 259.951H309.057L307.029 250.822Z" fill="#D4F5FE"/>
<path d="M307.181 254.372H306.928V259.951H307.181V254.372Z" fill="#666666"/>
<path d="M307.922 257.847L306.911 259.052L307.105 259.215L308.116 258.01L307.922 257.847Z" fill="#666666"/>
<path d="M306.13 257.311L305.951 257.49L306.955 258.494L307.135 258.315L306.13 257.311Z" fill="#666666"/>
<path d="M307.451 255.792L306.935 256.28L307.11 256.464L307.625 255.976L307.451 255.792Z" fill="#666666"/>
<path d="M317.071 264.515L315.042 273.644H319.099L317.071 264.515Z" fill="#FF7E92"/>
<path d="M317.121 268.066H316.969V273.644H317.121V268.066Z" fill="#1A1A1A"/>
<path d="M318.025 271.585L317.013 272.788L317.129 272.886L318.142 271.683L318.025 271.585Z" fill="#1A1A1A"/>
<path d="M316.057 271.092L315.985 271.163L316.989 272.168L317.061 272.096L316.057 271.092Z" fill="#1A1A1A"/>
<path d="M317.521 269.505L317.005 269.993L317.11 270.104L317.625 269.616L317.521 269.505Z" fill="#1A1A1A"/>
<path d="M352.572 270.094L350.543 279.223H354.6L352.572 270.094Z" fill="#FF7E92"/>
<path d="M352.623 273.644H352.471V279.223H352.623V273.644Z" fill="#1A1A1A"/>
<path d="M353.527 277.165L352.514 278.367L352.631 278.465L353.643 277.263L353.527 277.165Z" fill="#1A1A1A"/>
<path d="M351.558 276.671L351.487 276.742L352.491 277.746L352.562 277.675L351.558 276.671Z" fill="#1A1A1A"/>
<path d="M353.024 275.084L352.508 275.572L352.612 275.683L353.128 275.195L353.024 275.084Z" fill="#1A1A1A"/>
<path d="M313.368 231.043L309.97 246.258H316.766L313.368 231.043Z" fill="#FF7E92"/>
<path d="M313.52 236.115H313.267V246.258H313.52V236.115Z" fill="#333333"/>
<path d="M315.131 242.46L313.272 244.674L313.466 244.837L315.325 242.623L315.131 242.46Z" fill="#333333"/>
<path d="M311.633 241.52L311.454 241.699L313.283 243.528L313.462 243.349L311.633 241.52Z" fill="#333333"/>
<path d="M314.24 238.799L313.319 239.67L313.493 239.855L314.414 238.983L314.24 238.799Z" fill="#333333"/>
<path d="M351.811 228L349.782 237.129H353.839L351.811 228Z" fill="#D4F5FE"/>
<path d="M351.913 232.564H351.659V237.129H351.913V232.564Z" fill="#666666"/>
<path d="M352.496 235.383L351.681 236.354L351.875 236.517L352.69 235.546L352.496 235.383Z" fill="#666666"/>
<path d="M351.066 234.967L350.886 235.146L351.711 235.971L351.89 235.792L351.066 234.967Z" fill="#666666"/>
<path d="M352.116 233.73L351.711 234.114L351.885 234.298L352.29 233.915L352.116 233.73Z" fill="#666666"/>
<path d="M326.301 238.129H320.722V241.679H326.301V238.129Z" fill="#FF7E92"/>
<path d="M356.223 242.693H350.645V246.243H356.223V242.693Z" fill="#FF7E92"/>
<path d="M348.362 242.947H332.64V252.076H348.362V242.947Z" fill="#CBF3FF"/>
<path d="M352.166 254.358H339.994V249.794H352.166V254.358ZM340.502 253.851H351.659V250.301H340.502V253.851Z" fill="black"/>
<path d="M336.951 255.88H328.836V245.736H336.951V255.88ZM329.343 255.372H336.444V246.244H329.343V255.372Z" fill="black"/>
<path d="M326.301 253.851H320.215V249.794H326.301V253.851ZM320.722 253.344H325.794V250.301H320.722V253.344Z" fill="black"/>
<path d="M343.544 244.722H337.458V240.665H343.544V244.722ZM337.965 244.215H343.037V241.172H337.965V244.215Z" fill="black"/>
<path d="M337.966 250.301C337.56 250.554 337.357 250.96 337.458 251.315C337.56 251.569 337.813 251.721 337.966 251.822C338.067 251.873 338.98 252.329 339.487 251.822C339.893 251.417 339.791 250.707 339.487 250.301C339.132 249.844 338.574 249.794 338.473 249.794" fill="#DAA985"/>
<path d="M337.661 255.88C337.408 257.046 337.154 258.263 336.951 259.43C340.299 259.43 342.023 259.43 342.023 259.43C342.023 259.43 341.516 258.212 340.552 255.88C339.589 255.88 338.625 255.88 337.661 255.88Z" fill="#8C87A3"/>
<path d="M335.43 256.133C335.024 256.133 334.212 255.169 333.198 253.496C333.147 253.394 333.147 253.242 333.299 253.141C333.401 253.09 333.553 253.09 333.654 253.242C334.872 255.271 335.379 255.575 335.48 255.677C335.734 255.626 335.987 255.322 336.241 254.814C336.292 254.713 336.444 254.662 336.596 254.713C336.697 254.764 336.748 254.916 336.697 255.068C336.292 255.727 335.886 256.133 335.43 256.133Z" fill="#DAA985"/>
<path d="M338.168 257.908C338.067 257.908 337.965 257.857 337.965 257.756C337.915 257.604 337.965 257.452 338.117 257.401H338.168C338.422 257.35 340.603 256.843 341.313 255.524C341.515 255.119 341.617 254.662 341.566 254.104C341.566 253.952 341.668 253.851 341.82 253.851C341.972 253.851 342.073 253.952 342.073 254.104C342.124 254.764 342.023 255.322 341.769 255.829C340.958 257.3 338.726 257.857 338.32 257.959C338.219 257.908 338.219 257.908 338.168 257.908Z" fill="#DAA985"/>
<path d="M337.205 252.583C337.104 252.634 335.988 253.039 335.684 254.104C335.582 254.51 335.633 254.865 335.684 255.119C335.836 255.22 336.039 255.423 336.241 255.677C336.394 255.829 336.394 255.93 336.444 255.879C336.647 255.829 336.495 254.51 336.951 254.358C337.104 254.307 337.459 254.358 337.459 254.358V256.387C337.459 256.387 338.219 256.894 338.98 256.894C339.741 256.894 340.502 256.387 340.502 256.387V254.358C340.502 254.358 340.907 254.206 341.009 254.358C341.009 254.358 341.059 254.409 341.009 254.865C341.009 254.865 341.364 254.865 342.023 254.865C342.479 254.257 342.479 253.445 342.023 252.837C341.567 252.228 340.755 252.127 340.248 252.228C340.147 252.279 340.045 252.279 339.994 252.329C339.538 252.532 338.777 252.684 337.205 252.583Z" fill="#B0BDD6"/>
<path d="M338.473 249.286C337.966 249.388 337.56 249.489 337.458 249.794C337.306 250.199 337.611 250.757 337.966 250.808C338.371 250.909 338.777 250.199 338.98 250.301C339.132 250.402 339.081 250.808 338.98 251.315C338.777 252.786 338.676 253.547 338.98 253.851C339.233 254.104 339.741 254.054 339.994 253.851C340.248 253.597 340.045 253.242 339.994 252.329C339.943 251.315 340.146 251.112 339.994 250.301C339.893 249.895 339.842 249.489 339.487 249.286C339.183 249.134 338.878 249.185 338.473 249.286Z" fill="#202D43"/>
<path d="M350.391 257.655H320.469V268.812H350.391V257.655Z" fill="#FF7E92"/>
<path d="M0 425C0 416.414 8.81527 414.613 16.7442 414.613C26.6553 414.613 18.5881 326.069 20.432 299.237C22.276 272.406 26.6553 276.162 16.7442 236.452C8.81527 204.683 4.07201 200.756 0 197" stroke="#999999" stroke-dasharray="7 7"/>
<path d="M0.119167 451.021C18.2325 440.775 39.0866 435.982 59.3449 437.18C67.6866 437.779 76.6241 438.978 84.9657 440.775C99.8615 444.969 112.97 451.56 123.695 462.345C133.228 472.531 138.591 485.114 140.974 498.895C144.549 521.064 138.591 542.035 126.078 561.208C124.886 562.406 124.291 563.605 123.099 565.402C93.3074 602.551 39.6824 607.344 0 587.392" stroke="#999999" stroke-miterlimit="10" stroke-dasharray="7 7"/>
<path d="M89.8467 494.173H81.2368V499.239H89.8467V494.173Z" fill="#1D61DA"/>
<path d="M47.0601 492.398H38.4502V497.465H47.0601V492.398Z" fill="#1D61DA"/>
<path d="M30.4379 524.637C30.4099 525.001 30.3661 525.409 30.2983 525.837L31.5223 524.588L31.5291 524.609C31.4542 524.309 31.3337 524.019 31.171 523.75L31.1789 523.769L30.4379 524.637Z" fill="#1D61DA"/>
<path d="M30.4426 524.573L31.1603 523.733C31.0077 523.476 30.7868 523.26 30.5184 523.103C30.5053 523.096 30.492 523.089 30.4788 523.082C30.4827 523.182 30.5015 523.764 30.4426 524.573Z" fill="#1D61DA"/>
<path d="M29.795 527.868C29.7634 527.956 29.7309 528.043 29.6973 528.128L31.4998 527.156L31.5023 527.18C31.54 527.029 31.5714 526.878 31.5964 526.726L29.7966 527.879L29.795 527.868Z" fill="#1D61DA"/>
<path d="M30.0464 527.052L31.6698 525.82L31.6744 525.843C31.6802 525.435 31.6334 525.029 31.5352 524.632L30.2879 525.904C30.2224 526.306 30.1419 526.688 30.0464 527.052Z" fill="#1D61DA"/>
<path d="M30.2598 525.88L28.3173 523.886L28.3277 523.863C28.1451 524.1 27.9889 524.353 27.8616 524.618L30.0783 526.79C30.1543 526.473 30.2136 526.166 30.2598 525.88Z" fill="#1D61DA"/>
<path d="M27.8408 524.664L27.8409 524.664C27.8443 524.657 27.8472 524.648 27.8506 524.641L27.8408 524.664Z" fill="#1D61DA"/>
<path d="M27.7323 524.908L27.7227 524.932C27.7257 524.923 27.7292 524.916 27.7323 524.908L27.7323 524.908Z" fill="#1D61DA"/>
<path d="M30.0654 526.843L27.8405 524.663C27.8029 524.743 27.7669 524.824 27.7324 524.908L30.0063 527.073C30.027 526.996 30.0467 526.919 30.0654 526.843Z" fill="#1D61DA"/>
<path d="M31.6016 526.697C31.6459 526.423 31.67 526.147 31.6738 525.869L30.0284 527.118C29.9632 527.36 29.8915 527.593 29.8132 527.816L31.5981 526.674L31.6016 526.697Z" fill="#1D61DA"/>
<path d="M27.4374 526.853L29.2383 529.015C29.3863 528.751 29.517 528.48 29.6297 528.203L27.4322 526.079C27.4104 526.345 27.408 526.611 27.425 526.877L27.4374 526.853Z" fill="#1D61DA"/>
<path d="M30.4467 523.081L30.4628 523.074C30.0684 522.88 29.6414 522.901 29.2322 523.097L30.4117 524.572C30.4752 523.697 30.4471 523.089 30.4467 523.081Z" fill="#1D61DA"/>
<path d="M29.6386 528.273C29.5352 528.523 29.4172 528.767 29.2849 529.005L31.0964 528.142L31.0983 528.166C31.2347 527.954 31.3415 527.727 31.4159 527.49C31.4447 527.397 31.4709 527.304 31.4947 527.21L29.6706 528.194C29.66 528.22 29.6495 528.247 29.6386 528.273Z" fill="#1D61DA"/>
<path d="M30.4057 524.637L29.1992 523.129L29.2105 523.107C28.8652 523.291 28.5684 523.543 28.3416 523.845L30.2683 525.823C30.3349 525.4 30.3781 524.997 30.4057 524.637Z" fill="#1D61DA"/>
<path d="M29.649 528.154C29.7833 527.817 29.8978 527.474 29.992 527.125L27.7124 524.954C27.6582 525.09 27.6083 525.231 27.5629 525.377C27.4999 525.587 27.4578 525.802 27.4373 526.019L29.6473 528.155L29.649 528.154Z" fill="#1D61DA"/>
<path d="M31.9906 530.496C31.7164 530.76 31.4001 531.049 31.051 531.339L32.8595 531.095L32.8502 531.115C33.0009 530.84 33.1087 530.546 33.1703 530.243L33.1627 530.263L31.9906 530.496Z" fill="#1D61DA"/>
<path d="M33.1161 529.362C33.1109 529.349 33.1055 529.336 33.0999 529.323C33.0342 529.402 32.6447 529.862 32.0388 530.45L33.1742 530.224C33.2343 529.937 33.2143 529.64 33.1161 529.362V529.362Z" fill="#1D61DA"/>
<path d="M29.2557 532.607C29.1702 532.657 29.0849 532.705 29 532.751L31.0624 533.06L31.0474 533.08C31.1813 532.985 31.3102 532.887 31.4343 532.786L29.2492 532.617L29.2557 532.607Z" fill="#1D61DA"/>
<path d="M30.0151 532.126L32.1194 532.13L32.107 532.15C32.3938 531.84 32.6396 531.499 32.8393 531.136L30.9964 531.384C30.6678 531.655 30.3408 531.902 30.0151 532.126Z" fill="#1D61DA"/>
<path d="M29.3057 532.578L31.4725 532.746L31.4587 532.766C31.6829 532.581 31.8932 532.382 32.0882 532.171L29.9555 532.167C29.7374 532.315 29.5208 532.452 29.3057 532.578Z" fill="#1D61DA"/>
<path d="M26.6518 533.565C26.6672 533.551 26.6834 533.535 26.6994 533.52C27.1413 533.455 27.573 533.342 27.9854 533.182L28.0443 531.745C28.0618 531.708 28.0787 531.672 28.0952 531.635L28.0325 533.164C28.3289 533.048 28.6175 532.916 28.8967 532.768L28.6954 530.097C28.7109 530.09 28.7266 530.082 28.7427 530.074L28.9436 532.742L28.9456 532.742C29.2828 532.561 29.6091 532.364 29.9232 532.151L29.704 529.522C29.7196 529.512 29.735 529.502 29.7506 529.491L29.9697 532.119C30.0392 532.072 30.1076 532.024 30.175 531.976L29.9942 529.315C30.0097 529.304 30.0251 529.292 30.0406 529.28L30.2215 531.943C30.4997 531.744 30.7581 531.542 30.9919 531.349L30.8782 528.673L30.9018 528.662C30.8211 528.681 30.739 528.704 30.6562 528.729C30.8119 528.566 30.9519 528.39 31.0747 528.204L29.2458 529.075C29.1192 529.296 28.9768 529.51 28.8196 529.714C28.7869 529.742 28.7542 529.77 28.722 529.8L28.7244 529.832C28.7095 529.85 28.6946 529.868 28.6795 529.886L28.6763 529.843C28.6532 529.865 28.6307 529.888 28.6079 529.91C28.8395 529.644 29.0427 529.358 29.2148 529.056L27.4271 526.91C27.4393 527.102 27.4597 527.295 27.4859 527.487C27.3199 527.238 27.1183 527.012 26.8866 526.813L26.9007 526.83L26.4875 527.865C26.5833 528.22 26.6785 528.62 26.758 529.047L27.4922 527.532C27.4955 527.555 27.4991 527.579 27.5026 527.602L26.7702 529.114C26.8426 529.514 26.8945 529.9 26.9258 530.273L27.8049 529.003C27.81 529.021 27.815 529.039 27.82 529.057L26.9314 530.342C26.9507 530.59 26.9607 530.832 26.9613 531.067L28.036 529.762C28.0417 529.779 28.0473 529.796 28.0529 529.813L26.9669 531.131L26.9616 531.121C26.9613 531.214 26.9595 531.306 26.9561 531.396L28.1683 530.14C28.1747 530.158 28.1807 530.174 28.1862 530.189L26.9531 531.466C26.9518 531.494 26.9507 531.523 26.9491 531.55C26.9347 531.817 26.9045 532.083 26.8586 532.347L26.9756 532.238C26.9535 532.28 26.9319 532.322 26.9109 532.363L26.8443 532.425C26.8367 532.466 26.828 532.505 26.8196 532.545C26.795 532.594 26.7714 532.643 26.7486 532.69C26.7706 532.599 26.7911 532.508 26.8086 532.416L24.3875 530.884C25.0191 532.371 26.2086 533.785 26.2847 533.875C26.3465 533.769 26.4027 533.659 26.4543 533.548C26.4693 533.546 26.4842 533.545 26.4992 533.544C26.493 533.557 26.4866 533.571 26.4803 533.584C26.4727 533.585 26.4651 533.586 26.4576 533.587C26.4634 533.589 26.4705 533.59 26.4768 533.592C26.4405 533.67 26.4029 533.747 26.3625 533.821C26.4153 533.777 26.4958 533.708 26.5921 533.62C27.1614 533.754 28.6951 534.04 30.0084 533.617L27.9963 533.215C27.5657 533.382 27.1141 533.5 26.6518 533.565V533.565ZM28.0657 531.222L28.1139 531.177L28.1112 531.245L28.0629 531.29L28.0657 531.222Z" fill="#1D61DA"/>
<path d="M33.0763 529.302L33.0934 529.307C32.924 528.926 32.5807 528.691 32.1293 528.603L32.0159 530.43C32.6712 529.793 33.0706 529.309 33.0763 529.302Z" fill="#1D61DA"/>
<path d="M28.8555 532.828C28.6028 532.959 28.3425 533.078 28.0757 533.184L30.0687 533.583L30.0535 533.602C30.3057 533.519 30.5453 533.407 30.7668 533.268C30.8536 533.213 30.9386 533.156 31.0218 533.098L28.9348 532.786C28.9084 532.8 28.8819 532.814 28.8555 532.828Z" fill="#1D61DA"/>
<path d="M31.0383 531.311C31.3832 531.024 31.6957 530.739 31.9666 530.477L32.0826 528.608L32.1062 528.598C31.7128 528.537 31.3096 528.557 30.9255 528.656L31.0383 531.311Z" fill="#1D61DA"/>
<path d="M26.8707 526.8C26.6394 526.599 26.3566 526.456 26.0488 526.384C26.0338 526.381 26.019 526.378 26.0042 526.375C26.0412 526.469 26.2549 527.017 26.4705 527.803L26.8707 526.8Z" fill="#1D61DA"/>
<path d="M26.7355 529.098L24.2181 527.754L24.2204 527.73C24.1262 528.007 24.0627 528.292 24.0308 528.58L26.8684 530.015C26.8342 529.692 26.7875 529.384 26.7355 529.098Z" fill="#1D61DA"/>
<path d="M24.0256 528.63L24.0257 528.63C24.0265 528.622 24.0267 528.613 24.0276 528.605L24.0256 528.63Z" fill="#1D61DA"/>
<path d="M24.0052 528.893L24.0034 528.918C24.0038 528.909 24.0049 528.901 24.0053 528.893L24.0052 528.893Z" fill="#1D61DA"/>
<path d="M26.8748 530.069L24.0267 528.629C24.0176 528.715 24.0107 528.803 24.0061 528.892L26.8961 530.305C26.8898 530.226 26.8827 530.147 26.8748 530.069Z" fill="#1D61DA"/>
<path d="M26.9168 531.487L24.1135 530.092C24.182 530.351 24.2692 530.605 24.3747 530.853L24.3783 530.826L26.8173 532.37C26.8696 532.078 26.9029 531.783 26.9168 531.487V531.487Z" fill="#1D61DA"/>
<path d="M25.9716 526.383L25.9847 526.372C25.5445 526.3 25.1454 526.441 24.8223 526.744L26.4392 527.811C26.2057 526.961 25.975 526.391 25.9716 526.383Z" fill="#1D61DA"/>
<path d="M26.4568 527.874L24.8028 526.783L24.8063 526.76C24.5397 527.033 24.3421 527.357 24.2278 527.708L26.7246 529.042C26.6458 528.62 26.5515 528.225 26.4568 527.874Z" fill="#1D61DA"/>
<path d="M26.9186 531.435C26.9331 531.076 26.9266 530.717 26.8991 530.358L24.0019 528.942C23.9958 529.086 23.9958 529.235 24.0018 529.387C24.0124 529.605 24.0446 529.821 24.098 530.033L26.9173 531.436L26.9186 531.435Z" fill="#1D61DA"/>
<path d="M116.136 524.361C116.108 524.725 116.065 525.133 115.997 525.561L117.221 524.312L117.228 524.333C117.153 524.032 117.032 523.743 116.87 523.473L116.877 523.493L116.136 524.361Z" fill="#1D61DA"/>
<path d="M116.141 524.297L116.859 523.456C116.706 523.2 116.485 522.983 116.217 522.827C116.204 522.82 116.191 522.813 116.177 522.806C116.181 522.905 116.2 523.488 116.141 524.297Z" fill="#1D61DA"/>
<path d="M115.493 527.592C115.462 527.68 115.429 527.767 115.396 527.852L117.198 526.879L117.201 526.904C117.238 526.753 117.27 526.601 117.295 526.45L115.495 527.603L115.493 527.592Z" fill="#1D61DA"/>
<path d="M115.744 526.775L117.368 525.543L117.372 525.566C117.378 525.159 117.331 524.753 117.233 524.355L115.986 525.628C115.92 526.029 115.84 526.412 115.744 526.775Z" fill="#1D61DA"/>
<path d="M115.957 525.604L114.015 523.61L114.025 523.587C113.843 523.824 113.686 524.077 113.559 524.342L115.776 526.514C115.852 526.197 115.911 525.89 115.957 525.604Z" fill="#1D61DA"/>
<path d="M113.538 524.388L113.538 524.388C113.542 524.38 113.545 524.372 113.548 524.364L113.538 524.388Z" fill="#1D61DA"/>
<path d="M115.764 526.567L113.539 524.387C113.501 524.466 113.465 524.548 113.431 524.632L115.705 526.797C115.725 526.72 115.745 526.643 115.764 526.567Z" fill="#1D61DA"/>
<path d="M113.43 524.632L113.42 524.655C113.423 524.647 113.427 524.64 113.43 524.632L113.43 524.632Z" fill="#1D61DA"/>
<path d="M117.3 526.421C117.344 526.147 117.368 525.87 117.372 525.593L115.727 526.842C115.662 527.084 115.59 527.317 115.512 527.54L117.297 526.397L117.3 526.421Z" fill="#1D61DA"/>
<path d="M113.135 526.576L114.936 528.738C115.084 528.475 115.215 528.204 115.327 527.927L113.13 525.803C113.108 526.068 113.106 526.335 113.123 526.601L113.135 526.576Z" fill="#1D61DA"/>
<path d="M116.144 522.804L116.16 522.798C115.766 522.604 115.339 522.625 114.93 522.821L116.109 524.295C116.173 523.42 116.145 522.813 116.144 522.804Z" fill="#1D61DA"/>
<path d="M115.337 527.996C115.234 528.246 115.116 528.491 114.984 528.728L116.795 527.866L116.797 527.89C116.933 527.678 117.04 527.451 117.115 527.214C117.143 527.121 117.17 527.027 117.193 526.934L115.369 527.918C115.359 527.944 115.348 527.97 115.337 527.996Z" fill="#1D61DA"/>
<path d="M116.104 524.36L114.898 522.853L114.909 522.831C114.564 523.015 114.267 523.267 114.04 523.569L115.967 525.547C116.034 525.123 116.077 524.721 116.104 524.36Z" fill="#1D61DA"/>
<path d="M115.347 527.878C115.482 527.541 115.596 527.197 115.69 526.849L113.411 524.678C113.356 524.813 113.307 524.954 113.261 525.101C113.198 525.311 113.156 525.526 113.135 525.743L115.346 527.879L115.347 527.878Z" fill="#1D61DA"/>
<path d="M114.954 532.331C114.869 532.381 114.784 532.428 114.699 532.474L116.761 532.783L116.746 532.803C116.88 532.709 117.009 532.611 117.133 532.509L114.948 532.341L114.954 532.331Z" fill="#1D61DA"/>
<path d="M115.713 531.85L117.817 531.853L117.805 531.874C118.092 531.564 118.338 531.223 118.537 530.859L116.694 531.108C116.366 531.378 116.039 531.626 115.713 531.85Z" fill="#1D61DA"/>
<path d="M115.004 532.302L117.171 532.469L117.157 532.49C117.381 532.304 117.591 532.106 117.786 531.894L115.653 531.89C115.435 532.039 115.219 532.176 115.004 532.302Z" fill="#1D61DA"/>
<path d="M112.351 533.289C112.366 533.274 112.382 533.259 112.398 533.244C112.84 533.179 113.272 533.065 113.684 532.906L113.743 531.469C113.76 531.432 113.777 531.395 113.794 531.358L113.731 532.887C114.028 532.771 114.316 532.639 114.595 532.492L114.394 529.82C114.41 529.813 114.425 529.806 114.441 529.798L114.642 532.466L114.644 532.466C114.981 532.285 115.308 532.088 115.622 531.874L115.403 529.246C115.418 529.235 115.434 529.225 115.449 529.214L115.668 531.843C115.738 531.796 115.806 531.748 115.874 531.7L115.693 529.039C115.708 529.027 115.724 529.016 115.739 529.004L115.92 531.667C116.198 531.467 116.457 531.266 116.691 531.073L116.577 528.397L116.601 528.385C116.52 528.405 116.438 528.428 116.355 528.453C116.511 528.289 116.651 528.114 116.773 527.928L114.945 528.799C114.818 529.02 114.676 529.233 114.518 529.437C114.486 529.466 114.453 529.494 114.421 529.524L114.423 529.555C114.408 529.574 114.393 529.592 114.378 529.61L114.375 529.566C114.352 529.588 114.329 529.611 114.307 529.634C114.538 529.368 114.741 529.082 114.914 528.78L113.126 526.634C113.138 526.826 113.158 527.019 113.185 527.21C113.019 526.962 112.817 526.735 112.585 526.536L112.599 526.553L112.186 527.589C112.282 527.943 112.377 528.344 112.457 528.77L113.191 527.255C113.194 527.279 113.198 527.302 113.201 527.326L112.469 528.837C112.541 529.237 112.593 529.624 112.625 529.997L113.504 528.726C113.509 528.745 113.514 528.763 113.519 528.781L112.63 530.065C112.649 530.314 112.659 530.556 112.66 530.79L113.735 529.486C113.74 529.503 113.746 529.52 113.752 529.536L112.666 530.854L112.66 530.844C112.66 530.937 112.658 531.029 112.655 531.12L113.867 529.864C113.873 529.881 113.879 529.898 113.885 529.912L112.652 531.19C112.651 531.218 112.649 531.246 112.648 531.274C112.633 531.541 112.603 531.807 112.557 532.071L112.674 531.962C112.652 532.004 112.631 532.046 112.61 532.087L112.543 532.149C112.535 532.189 112.527 532.228 112.518 532.268C112.494 532.318 112.47 532.366 112.447 532.413C112.469 532.323 112.49 532.232 112.507 532.14L110.086 530.607C110.718 532.094 111.907 533.509 111.983 533.598C112.045 533.492 112.101 533.383 112.153 533.271C112.168 533.27 112.183 533.269 112.198 533.267C112.192 533.281 112.185 533.294 112.179 533.308C112.171 533.309 112.164 533.31 112.156 533.311C112.162 533.312 112.169 533.314 112.176 533.315C112.139 533.393 112.102 533.47 112.061 533.544C112.114 533.5 112.195 533.431 112.291 533.344C112.86 533.477 114.394 533.763 115.707 533.341L113.695 532.938C113.264 533.106 112.813 533.224 112.351 533.289V533.289ZM113.764 530.946L113.813 530.901L113.81 530.968L113.762 531.013L113.764 530.946Z" fill="#1D61DA"/>
<path d="M114.554 532.551C114.301 532.683 114.04 532.802 113.774 532.907L115.767 533.306L115.751 533.326C116.004 533.243 116.243 533.13 116.465 532.991C116.552 532.937 116.637 532.88 116.72 532.822L114.633 532.509C114.606 532.523 114.58 532.538 114.554 532.551Z" fill="#1D61DA"/>
<path d="M112.569 526.524C112.337 526.323 112.055 526.18 111.747 526.107C111.732 526.104 111.717 526.102 111.702 526.099C111.739 526.192 111.953 526.741 112.168 527.527L112.569 526.524Z" fill="#1D61DA"/>
<path d="M112.433 528.822L109.916 527.478L109.918 527.454C109.824 527.73 109.76 528.015 109.728 528.304L112.566 529.739C112.532 529.416 112.485 529.107 112.433 528.822Z" fill="#1D61DA"/>
<path d="M109.703 528.616L109.702 528.642C109.702 528.633 109.703 528.625 109.703 528.616L109.703 528.616Z" fill="#1D61DA"/>
<path d="M109.724 528.354L109.724 528.354C109.725 528.345 109.725 528.337 109.726 528.328L109.724 528.354Z" fill="#1D61DA"/>
<path d="M112.572 529.793L109.724 528.353C109.715 528.439 109.708 528.527 109.703 528.616L112.593 530.029C112.587 529.95 112.58 529.871 112.572 529.793Z" fill="#1D61DA"/>
<path d="M112.614 531.21L109.811 529.815C109.879 530.074 109.967 530.328 110.072 530.576L110.076 530.55L112.515 532.094C112.567 531.801 112.6 531.506 112.614 531.21V531.21Z" fill="#1D61DA"/>
<path d="M111.671 526.107L111.684 526.096C111.243 526.023 110.844 526.165 110.521 526.468L112.138 527.534C111.905 526.684 111.674 526.115 111.671 526.107Z" fill="#1D61DA"/>
<path d="M112.155 527.598L110.501 526.507L110.504 526.483C110.238 526.756 110.04 527.08 109.926 527.432L112.423 528.765C112.344 528.344 112.25 527.948 112.155 527.598Z" fill="#1D61DA"/>
<path d="M112.617 531.158C112.632 530.799 112.625 530.44 112.598 530.082L109.701 528.666C109.695 528.81 109.695 528.958 109.701 529.111C109.711 529.328 109.743 529.545 109.797 529.757L112.616 531.16L112.617 531.158Z" fill="#1D61DA"/>
<path d="M97.9112 473.075L98.999 473.71L98.3386 472.605C98.5256 472.468 98.7571 472.392 98.9963 472.389C99.0022 472.389 99.008 472.389 99.0138 472.389C99.0894 472.39 99.1649 472.385 99.2395 472.374L99.6081 472.589L99.4501 472.324C99.7113 472.241 99.937 472.083 100.095 471.874L100.755 472.259L100.338 471.562C100.724 471.136 101.244 470.874 101.816 470.874C102.502 470.874 103.113 471.25 103.508 471.835C103.625 472.01 103.789 472.153 103.986 472.251C104.182 472.348 104.403 472.396 104.626 472.39C104.638 472.389 104.651 472.389 104.663 472.389C105.421 472.389 106.035 473.179 106.035 474.154C106.035 475.129 105.421 475.919 104.663 475.919C104.497 475.918 104.333 475.88 104.185 475.809C103.928 475.693 103.646 475.631 103.359 475.626C103.072 475.621 102.788 475.673 102.525 475.779C102.304 475.871 102.063 475.918 101.82 475.919C101.577 475.919 101.336 475.873 101.114 475.782C100.854 475.678 100.572 475.627 100.288 475.632C100.004 475.637 99.7249 475.698 99.469 475.811C99.3231 475.881 99.161 475.918 98.9963 475.919C98.2389 475.919 97.6249 475.129 97.6249 474.154C97.6205 473.778 97.719 473.407 97.9112 473.075V473.075Z" fill="#F2F2F2"/>
<path d="M42.5712 478.259L43.2631 478.662L42.843 477.96C42.962 477.872 43.1092 477.824 43.2614 477.822C43.2651 477.822 43.2688 477.822 43.2726 477.822C43.3206 477.823 43.3687 477.82 43.4161 477.812L43.6506 477.949L43.5501 477.781C43.7162 477.728 43.8598 477.628 43.9603 477.495L44.38 477.74L44.1148 477.296C44.2265 477.163 44.3688 477.055 44.5314 476.98C44.6941 476.904 44.873 476.863 45.0552 476.859C45.4916 476.859 45.8804 477.097 46.1313 477.47C46.2055 477.581 46.3104 477.672 46.4354 477.734C46.5603 477.796 46.7008 477.827 46.8427 477.823C46.8505 477.822 46.8583 477.822 46.8662 477.822C47.348 477.822 47.7386 478.325 47.7386 478.945C47.7386 479.565 47.348 480.068 46.8662 480.068C46.7602 480.067 46.6559 480.043 46.5623 479.998C46.3983 479.924 46.2189 479.885 46.0366 479.881C45.8543 479.878 45.6734 479.911 45.5064 479.979C45.3653 480.037 45.2124 480.067 45.0577 480.068C44.9031 480.068 44.75 480.038 44.6086 479.98C44.4429 479.914 44.2637 479.882 44.0832 479.885C43.9026 479.888 43.7249 479.927 43.5621 479.999C43.4692 480.044 43.3661 480.067 43.2614 480.068C42.7796 480.068 42.389 479.565 42.389 478.945C42.3862 478.706 42.4488 478.47 42.5712 478.259Z" fill="#F2F2F2"/>
<path d="M23.9503 480.423L24.6422 480.827L24.2221 480.124C24.3411 480.036 24.4884 479.988 24.6406 479.986C24.6443 479.986 24.648 479.986 24.6517 479.986C24.6998 479.987 24.7478 479.984 24.7953 479.977L25.0297 480.114L24.9292 479.945C25.0954 479.892 25.2389 479.792 25.3394 479.659L25.7591 479.904L25.494 479.46C25.6057 479.328 25.748 479.22 25.9106 479.144C26.0732 479.068 26.2521 479.027 26.4343 479.023C26.8707 479.023 27.2595 479.262 27.5105 479.634C27.5847 479.745 27.6896 479.837 27.8145 479.898C27.9395 479.96 28.08 479.991 28.2219 479.987C28.2297 479.987 28.2375 479.986 28.2453 479.986C28.7271 479.986 29.1177 480.489 29.1177 481.109C29.1177 481.729 28.7271 482.232 28.2453 482.232C28.1394 482.231 28.0351 482.207 27.9415 482.162C27.7774 482.088 27.5981 482.049 27.4158 482.046C27.2334 482.042 27.0525 482.075 26.8855 482.143C26.7444 482.201 26.5916 482.231 26.4369 482.232C26.2822 482.232 26.1292 482.202 25.9878 482.145C25.8221 482.079 25.6429 482.046 25.4623 482.049C25.2817 482.052 25.104 482.091 24.9412 482.163C24.8484 482.208 24.7453 482.231 24.6406 482.232C24.1587 482.232 23.7682 481.729 23.7682 481.109C23.7654 480.87 23.828 480.634 23.9503 480.423V480.423Z" fill="#F2F2F2"/>
<path d="M19.3784 522.886L19.2576 522.997C19.2576 522.997 19.2979 524.22 19.3381 524.48C19.3784 524.739 19.5396 525.184 19.4187 525.517C19.2979 525.851 19.2576 526.111 19.2979 526.148C19.3381 526.185 19.2576 526.333 19.2576 526.333L19.5798 526.148L20.1035 525.036L19.8618 523.85L19.3784 522.886Z" fill="#1D61DA"/>
<path opacity="0.1" d="M19.3784 522.886L19.2576 522.997C19.2576 522.997 19.2979 524.22 19.3381 524.48C19.3784 524.739 19.5396 525.184 19.4187 525.517C19.2979 525.851 19.2576 526.111 19.2979 526.148C19.3381 526.185 19.2576 526.333 19.2576 526.333L19.5798 526.148L20.1035 525.036L19.8618 523.85L19.3784 522.886Z" fill="black"/>
<path d="M21.5125 534.413C21.5125 534.413 21.5124 534.005 21.4319 533.931C21.3513 533.857 21.2305 533.598 21.0693 533.598C20.9082 533.598 20.3442 533.746 20.3442 533.783C20.3488 533.899 20.3211 534.014 20.2637 534.117C20.1831 534.228 19.74 534.673 20.1831 534.747C20.3304 534.769 20.4811 534.764 20.6263 534.732C20.7715 534.7 20.9085 534.642 21.0291 534.561C21.0693 534.524 21.2305 534.487 21.2708 534.524C21.311 534.561 21.5125 534.413 21.5125 534.413Z" fill="#1D61DA"/>
<path d="M22.6411 533.746L22.8828 534.154C22.8828 534.154 22.9634 534.524 23.0842 534.561H23.2051C23.2051 534.561 23.3259 534.969 23.6079 534.932C23.8899 534.895 24.2122 534.747 24.2122 534.673C24.2122 534.599 24.2122 534.376 24.0913 534.302C23.9219 534.175 23.7605 534.039 23.6079 533.894L23.4065 533.709L22.6411 533.746Z" fill="#1D61DA"/>
<path d="M19.5469 520.169C19.4693 520.205 19.4024 520.258 19.3518 520.323C19.3012 520.388 19.2683 520.464 19.2559 520.543C19.2335 520.808 19.5178 521.057 19.4263 521.309C19.3744 521.452 19.2126 521.544 19.1661 521.689C19.1416 521.804 19.16 521.923 19.2183 522.028C19.2819 522.171 19.3593 522.309 19.4496 522.439C19.6194 522.685 19.8405 522.917 19.8858 523.205C19.8984 523.256 19.8978 523.308 19.8842 523.358C19.8705 523.408 19.8441 523.454 19.8072 523.493C19.889 523.436 19.9825 523.396 20.0821 523.373C20.4938 523.247 20.8763 523.05 21.21 522.795C21.3313 522.717 21.4226 522.605 21.4709 522.476C21.5324 522.248 21.3445 522.02 21.3625 521.786C21.374 521.637 21.468 521.504 21.5211 521.363C21.5674 521.221 21.5821 521.073 21.5644 520.926C21.5468 520.78 21.4971 520.638 21.4184 520.509C21.3532 520.385 21.2612 520.274 21.148 520.184C21.0348 520.093 20.9027 520.024 20.7599 519.982C20.5401 519.935 20.3109 519.941 20.0944 520C19.9053 520.036 19.7215 520.093 19.5469 520.169V520.169Z" fill="#2F2E41"/>
<path d="M19.7764 522.224C19.8651 522.072 19.9964 521.945 20.1567 521.856C20.317 521.767 20.5002 521.72 20.6874 521.718C21.3319 521.718 21.2111 521.681 21.2111 521.681L21.0097 522.422L20.6068 522.793L19.7764 522.224Z" fill="#1D61DA"/>
<path d="M19.9424 521.44C19.9424 521.44 20.305 521.996 20.0633 522.219C19.8216 522.441 19.9424 522.663 19.9827 522.701C20.023 522.738 21.1509 522.812 21.1509 522.812L21.1912 522.293L21.3121 521.848C21.3121 521.848 20.6675 521.737 20.7481 521.477C20.8287 521.218 19.9424 521.44 19.9424 521.44Z" fill="#FBBEBE"/>
<path opacity="0.1" d="M19.9424 521.44C19.9424 521.44 20.305 521.996 20.0633 522.219C19.8216 522.441 19.9424 522.663 19.9827 522.701C20.023 522.738 21.1509 522.812 21.1509 522.812L21.1912 522.293L21.3121 521.848C21.3121 521.848 20.6675 521.737 20.7481 521.477C20.8287 521.218 19.9424 521.44 19.9424 521.44Z" fill="black"/>
<path d="M22.7625 526.704C22.7193 526.831 22.6655 526.955 22.6013 527.074C22.561 527.111 22.4402 526.815 22.4402 526.815L22.561 526.555L22.7625 526.704Z" fill="#FBBEBE"/>
<path d="M22.2986 525.017L22.4597 525.87H20.0427L20.1636 525.017H22.2986Z" fill="#FBBEBE"/>
<path d="M20.385 521.737C20.8077 521.737 21.1504 521.421 21.1504 521.032C21.1504 520.644 20.8077 520.328 20.385 520.328C19.9623 520.328 19.6196 520.644 19.6196 521.032C19.6196 521.421 19.9623 521.737 20.385 521.737Z" fill="#FBBEBE"/>
<path d="M20.5469 522.478C20.5469 522.478 20.1037 522.515 20.1037 522.441C20.1037 522.367 20.0635 522.144 19.9829 522.182C19.9023 522.219 19.3786 522.256 19.4189 522.367C19.4592 522.478 19.5398 522.7 19.4592 522.7C19.4244 522.707 19.3914 522.72 19.3622 522.739C19.333 522.757 19.3082 522.781 19.2894 522.809C19.2705 522.837 19.258 522.868 19.2526 522.9C19.2472 522.932 19.2489 522.965 19.2578 522.997C19.2981 523.182 19.7412 524.294 19.7412 524.294C19.7412 524.294 19.7815 524.665 19.9023 524.776C19.9515 524.834 19.9782 524.906 19.9782 524.98C19.9782 525.054 19.9515 525.126 19.9023 525.184C19.8218 525.258 20.1037 525.332 20.2246 525.48C20.3455 525.629 21.272 525.517 21.3122 525.48C21.3525 525.443 22.3193 525.443 22.3999 525.369C22.4805 525.295 22.3596 525.073 22.3596 525.073C22.3596 525.073 22.3193 524.739 22.3596 524.628C22.3999 524.517 22.1985 522.7 22.0776 522.589C21.9568 522.478 22.4402 522.144 22.4402 522.144C22.4402 522.144 22.3596 521.848 21.8359 521.811C21.8359 521.811 21.6748 521.589 21.5137 521.589C21.3525 521.589 21.0027 521.761 21.0027 521.761C21.0027 521.761 20.9094 522.256 20.7886 522.293C20.693 522.336 20.6101 522.399 20.5469 522.478Z" fill="#1D61DA"/>
<path d="M22.158 522.033L22.4399 522.145C22.4399 522.145 23.2456 524.443 23.1651 524.887C23.0845 525.332 22.8831 526.852 22.7622 526.852C22.6414 526.852 22.3997 526.629 22.3997 526.629V526.259C22.3997 526.185 22.2788 525.962 22.3594 525.962C22.44 525.962 22.5608 525.888 22.4802 525.814C22.3997 525.74 22.3191 525.629 22.3997 525.518C22.4802 525.406 22.5205 525.369 22.4802 525.258C22.4399 525.147 22.3594 525.036 22.4399 524.962C22.5205 524.887 22.2385 524.517 22.2385 524.517L21.7954 522.886L21.876 522.219L22.158 522.033Z" fill="#1D61DA"/>
<path d="M22.3192 525.554C22.3192 525.554 20.7884 525.443 20.587 525.443C20.3856 525.443 19.9337 525.269 19.9337 525.269C19.9337 525.269 18.7742 526.333 19.1771 528.075C19.5799 529.817 19.6605 531.967 19.9022 532.597C20.0664 533.046 20.2009 533.504 20.305 533.968C20.305 533.968 20.7078 533.301 21.4732 534.043C21.4732 534.043 21.5538 533.487 21.4329 533.264C21.3121 533.042 21.1509 531.856 21.1509 531.856C21.1509 531.856 20.869 529.965 20.869 529.743C20.869 529.521 20.7078 527.63 20.7481 527.593C20.7884 527.556 20.9898 529.039 21.0301 529.298C21.0704 529.558 21.1912 531.559 21.3121 531.782C21.4329 532.004 21.9969 533.783 22.3192 533.894C22.6414 534.005 23.7291 533.857 23.6888 533.783C23.6485 533.709 23.3665 533.301 23.286 533.19L22.9637 532.745L22.1983 530.336L22.5609 527.408C22.5609 527.408 22.7623 525.517 22.3192 525.554Z" fill="#2F2E41"/>
<path d="M20.8519 520.94H19.8703C19.8287 520.94 19.7884 520.926 19.7568 520.901C19.7251 520.876 19.7041 520.842 19.6976 520.804L19.6001 520.236H21.1309L20.994 520.834C20.9871 520.864 20.9693 520.891 20.9434 520.91C20.9175 520.929 20.8852 520.94 20.8519 520.94Z" fill="#2F2E41"/>
<path d="M100.99 519.858H102.539V521.894C102.336 521.894 102.134 521.857 101.946 521.786C101.758 521.714 101.588 521.609 101.444 521.477C101.3 521.344 101.186 521.187 101.108 521.014C101.03 520.841 100.99 520.656 100.99 520.469V519.858Z" fill="#2F2E41"/>
<path d="M100.087 531.784L99.9763 532.293H100.751L100.787 531.784H100.087Z" fill="#A0616A"/>
<path d="M100.087 532.191C100.087 532.191 99.9399 532.089 99.8661 532.157C99.7924 532.225 99.5343 533.548 99.4974 533.582C99.4606 533.616 98.3544 534.125 98.6125 534.159C98.8706 534.193 99.8661 534.226 100.014 534.159C100.161 534.091 100.567 533.446 100.567 533.446V534.023H100.64C100.64 534.023 100.714 533.412 100.899 533.243C101.083 533.073 100.751 532.496 100.751 532.496C100.751 532.496 100.825 532.123 100.788 532.123C100.751 532.123 100.087 532.191 100.087 532.191Z" fill="#1D61DA"/>
<path d="M102.373 531.428L102.262 531.936H103.037L103.074 531.428H102.373Z" fill="#A0616A"/>
<path d="M101.489 528.12C101.489 528.12 101.857 529.137 101.931 529.239C102.005 529.341 102.263 531.241 102.263 531.241C102.263 531.241 102.005 531.614 102.337 531.648C102.668 531.682 102.521 531.58 102.742 531.648C102.802 531.669 102.867 531.677 102.931 531.671C102.995 531.665 103.056 531.646 103.111 531.614C103.111 531.614 103.222 531.411 103.148 531.343C103.074 531.275 103.222 529.511 103.222 529.511L103 528.9L102.816 526.966C102.816 526.966 103.037 526.457 102.927 526.321C102.816 526.186 102.447 526.423 102.447 526.423L101.489 528.12Z" fill="#2F2E41"/>
<path d="M101.009 525.473C101.009 525.473 100.898 526.559 100.825 526.627C100.751 526.695 99.9396 528.595 99.9396 528.595C99.9396 528.595 99.7184 528.832 99.7921 529.714C99.8659 530.596 100.05 531.478 100.05 531.478C100.05 531.478 99.9028 531.987 100.161 531.987C100.419 531.987 100.53 531.852 100.64 531.953C100.751 532.055 100.825 531.953 100.861 531.885C100.898 531.818 101.046 531.58 101.046 531.512C101.046 531.444 101.193 529.714 101.193 529.714C101.193 529.714 102.41 527.237 102.521 527.102C102.631 526.966 103.258 526.22 103.221 525.711L101.009 525.473Z" fill="#2F2E41"/>
<path d="M101.93 520.893C102.358 520.893 102.705 520.574 102.705 520.181C102.705 519.787 102.358 519.468 101.93 519.468C101.503 519.468 101.156 519.787 101.156 520.181C101.156 520.574 101.503 520.893 101.93 520.893Z" fill="#A0616A"/>
<path d="M101.784 520.791C101.784 520.791 102.079 521.402 102.116 521.572C102.152 521.741 102.853 521.232 102.853 521.232C102.853 521.232 102.484 520.656 102.595 520.384L101.784 520.791Z" fill="#A0616A"/>
<path d="M102.963 521.131C102.963 521.131 102.41 520.757 102.005 521.538C101.599 522.318 101.489 522.284 101.489 522.284C101.489 522.284 101.009 522.42 101.157 523.37C101.304 524.32 100.677 525.575 100.935 525.643C101.194 525.711 103.59 526.084 103.59 525.812C103.59 525.541 103.369 524.489 103.553 523.845C103.738 523.2 103.295 520.961 102.963 521.131Z" fill="#3F3D56"/>
<path d="M102.41 521.3C102.41 521.3 101.968 521.911 102.004 522.386C102.041 522.861 102.041 523.166 102.041 523.166C102.041 523.166 101.304 526.423 101.451 526.423C101.599 526.423 102.041 526.593 102.078 526.491C102.115 526.389 103.037 524.32 103.037 524.32C103.037 524.32 103.258 522.25 103 521.775C102.742 521.3 102.41 521.3 102.41 521.3Z" fill="#3F3D56"/>
<path d="M101.525 526.321C101.525 526.321 101.156 527.475 101.673 527.509C102.189 527.543 101.894 526.389 101.894 526.389L101.525 526.321Z" fill="#A0616A"/>
<path d="M102.507 531.672C102.507 531.672 102.378 531.583 102.313 531.642C102.249 531.702 102.023 532.861 101.991 532.89C101.958 532.92 100.99 533.366 101.216 533.395C101.442 533.425 102.313 533.455 102.443 533.395C102.572 533.336 102.927 532.771 102.927 532.771V533.277H102.992C102.992 533.277 103.056 532.742 103.218 532.593C103.379 532.445 103.088 531.94 103.088 531.94C103.088 531.94 103.153 531.613 103.121 531.613C103.088 531.613 102.507 531.672 102.507 531.672Z" fill="#1D61DA"/>
<path d="M101.548 519.714C101.573 519.686 101.605 519.665 101.642 519.653C101.676 519.647 101.711 519.65 101.743 519.661C101.974 519.723 102.175 519.857 102.31 520.041C102.337 520.087 102.376 520.127 102.425 520.154C102.456 520.163 102.487 520.174 102.517 520.187C102.603 520.239 102.552 520.361 102.502 520.444C102.375 520.659 102.317 520.902 102.333 521.146C102.332 521.188 102.346 521.23 102.372 521.264C102.414 521.3 102.468 521.32 102.525 521.321C102.704 521.341 102.885 521.35 103.065 521.347C103.241 521.344 103.437 521.321 103.552 521.198C103.674 521.065 103.655 520.861 103.575 520.703C103.495 520.544 103.365 520.412 103.273 520.259C103.185 520.098 103.116 519.929 103.067 519.755C103.003 519.532 102.9 519.321 102.762 519.129C102.692 519.033 102.602 518.952 102.496 518.89C102.391 518.828 102.273 518.786 102.15 518.768C101.815 518.734 101.506 518.923 101.236 519.11C100.934 519.319 100.612 519.579 100.588 519.926C100.568 520.208 100.752 520.462 100.848 520.73C100.996 521.144 100.934 521.593 100.871 522.025C101.144 521.874 101.453 521.665 101.435 521.373C101.423 521.176 101.261 521.018 101.16 520.844C100.883 520.364 101.199 520.042 101.548 519.714Z" fill="#2F2E41"/>
<path d="M47.0648 489.962L43.0706 493.637L41.1782 491.896L40.4414 492.574L43.0681 494.991L47.8017 490.64L47.0648 489.962Z" fill="#57B894"/>
<path d="M89.1505 491.276L85.1563 494.951L83.2638 493.21L82.5271 493.888L85.1538 496.305L89.8873 491.954L89.1505 491.276Z" fill="#57B894"/>
<path d="M88.8133 513.5V507.463H85.1441V503.542H82.6602V507.463H78.9909V513.5H76.9587V499.931H72.8378V498.641H67.3621V497.351H61.9428V498.641H56.8058V499.931H52.3462V513.448H49.9753V507.412H46.306V503.491H43.8222V507.412H40.1529V513.448H37.782V534.859H43.2012V527.275H46.927V534.859H61.4912V526.037H67.8137V534.859H76.62V534.911H82.0393V527.327H85.765V534.911H91.1843V513.5H88.8133ZM39.7295 516.079H41.8747V517.627H39.7295V516.079ZM39.7578 520.413H41.9029V521.961H39.7578V520.413ZM41.9311 526.295H39.786V524.747H41.9311V526.295ZM47.5479 512.313H42.5803V511.384H47.5479V512.313ZM47.5479 510.972H42.5803V510.043H47.5479V510.972ZM47.5479 509.63H42.5803V508.702H47.5479V509.63ZM48.2536 516.079H50.3987V517.627H48.2536V516.079ZM48.2818 520.413H50.4269V521.961H48.2818V520.413ZM50.4551 526.295H48.31V524.747H50.4551V526.295ZM59.2332 523.715H55.2817V522.116H59.2332V523.715ZM59.2332 519.123H55.2817V517.524H59.2332V519.123ZM59.2332 514.532H55.2817V512.932H59.2332V514.532ZM59.2332 509.94H55.2817V508.34H59.2332V509.94ZM59.2332 505.348H55.2817V503.749H59.2332V505.348ZM66.6283 523.715H62.6767V522.116H66.6283V523.715ZM66.6283 519.123H62.6767V517.524H66.6283V519.123ZM66.6283 514.532H62.6767V512.932H66.6283V514.532ZM66.6283 509.94H62.6767V508.34H66.6283V509.94ZM66.6283 505.348H62.6767V503.749H66.6283V505.348ZM74.0233 523.715H70.0717V522.116H74.0233V523.715ZM74.0233 519.123H70.0717V517.524H74.0233V519.123ZM74.0233 514.532H70.0717V512.932H74.0233V514.532ZM74.0233 509.94H70.0717V508.34H74.0233V509.94ZM74.0233 505.348H70.0717V503.749H74.0233V505.348ZM78.5676 516.131H80.7127V517.679H78.5676V516.131ZM78.5958 520.465H80.7409V522.013H78.5958V520.465ZM80.7691 526.347H78.624V524.799H80.7691V526.347ZM86.386 512.365H81.4183V511.436H86.386V512.365ZM86.386 511.023H81.4183V510.095H86.386V511.023ZM86.386 509.682H81.4183V508.753H86.386V509.682ZM87.0916 516.131H89.2367V517.679H87.0916V516.131ZM87.1198 520.465H89.265V522.013H87.1198V520.465ZM89.2932 526.347H87.1481V524.799H89.2932V526.347Z" fill="#0091BF"/>
<path d="M7.54349 496.735L3.07104 515.207H12.0159L7.54349 496.735Z" fill="#1D65E7"/>
<path d="M7.74441 502.893H7.41064V515.207H7.74441V502.893Z" fill="#333333"/>
<path d="M9.85879 510.596L7.4126 513.285L7.66826 513.483L10.1145 510.794L9.85879 510.596Z" fill="#333333"/>
<path d="M5.25236 509.456L5.01636 509.673L7.42394 511.894L7.65995 511.676L5.25236 509.456Z" fill="#333333"/>
<path d="M8.68978 506.148L7.47754 507.206L7.70694 507.43L8.91918 506.372L8.68978 506.148Z" fill="#333333"/>
<path d="M115.884 470.773L105.871 512.129H125.897L115.884 470.773Z" fill="#1D65E7"/>
<path d="M116.332 484.558H115.585V512.129H116.332V484.558Z" fill="#333333"/>
<path d="M121.066 501.806L115.59 507.824L116.162 508.268L121.639 502.249L121.066 501.806Z" fill="#333333"/>
<path d="M110.754 499.251L110.225 499.739L115.615 504.71L116.144 504.223L110.754 499.251Z" fill="#333333"/>
<path d="M118.447 491.846L115.733 494.215L116.246 494.715L118.96 492.347L118.447 491.846Z" fill="#333333"/>
<path d="M80.972 462.254L76.4995 480.726H85.4444L80.972 462.254Z" fill="#1D65E7"/>
<path d="M81.1721 468.411H80.8384V480.726H81.1721V468.411Z" fill="#333333"/>
<path d="M83.2873 476.115L80.8411 478.803L81.0967 479.001L83.5429 476.313L83.2873 476.115Z" fill="#333333"/>
<path d="M78.6808 474.974L78.4448 475.192L80.8524 477.413L81.0884 477.195L78.6808 474.974Z" fill="#333333"/>
<path d="M82.1165 471.667L80.9043 472.725L81.1337 472.948L82.3459 471.89L82.1165 471.667Z" fill="#333333"/>
<path d="M96.9924 553.613L94.1221 565.468H99.8628L96.9924 553.613Z" fill="#1D65E7"/>
<path d="M97.1214 557.565H96.9072V565.468H97.1214V557.565Z" fill="#333333"/>
<path d="M98.4779 562.509L96.908 564.235L97.072 564.362L98.642 562.636L98.4779 562.509Z" fill="#333333"/>
<path d="M95.5221 561.777L95.3706 561.917L96.9158 563.342L97.0672 563.202L95.5221 561.777Z" fill="#333333"/>
<path d="M97.7272 559.654L96.9492 560.333L97.0964 560.477L97.8744 559.798L97.7272 559.654Z" fill="#333333"/>
<path d="M360.5 222.423C338 216.756 293 214.023 293 248.423C293 282.823 335.667 295.167 360.5 298" stroke="#999999" stroke-dasharray="7 7"/>
<path d="M360.5 290C346.167 294.167 317.2 306.8 316 324C314.5 345.5 332 341 336 357.5C340 374 337.5 381 336 393C334.442 405.463 347.333 412.5 355.5 413.5H360.5" stroke="#999999" stroke-dasharray="7 7"/>
</svg>
