<svg width="360" height="515" viewBox="0 0 360 515" fill="none" xmlns="http://www.w3.org/2000/svg">
<g clip-path="url(#clip0)">
<path d="M52.4245 110.451L66.3526 85.3955M39.1295 126.934L71.7339 66.6043M30.5827 134.846L73.0001 55.7252M22.3525 140.451L72.367 46.8241M16.0216 144.407L71.1008 40.5603M9.37411 148.033L69.5181 35.2856M2.72664 151L67.3023 30.3406M-0.054008 149.352L64.4533 26.3846M-0.0539575 141.769L61.921 22.4286M-0.0539575 133.857L59 19.5M-0.0540433 124.5L56 16.5M-0.0538065 117L53 14M-0.0541992 109L49.5 11.3187M18.4523 61L46.5 9.5M20.6108 48.5C20.6108 48.5 37.4427 18.4645 43.5 7.26374M20.7698 39.5713C20.7698 39.5713 34.808 14.7696 40 5.5M20.4532 30.9999L36 3M19.1871 24.7363L32.482 1M16.9008 20L28.5 7.62939e-06M14.6903 15.5L24 0M12.0325 11.3187L19.1871 0M9.42206 8.00001L14.6903 0M6.85432 5.25009L10 1.21593e-05M4.42924 2.99999L6.5 1.21593e-05" stroke="#CCF4FE" stroke-width="0.8"/>
<path fill-rule="evenodd" clip-rule="evenodd" d="M85.3471 29.3468C87.49 27.2039 90.3965 26 93.4271 26C96.4577 26 99.3641 27.2039 101.507 29.3468C103.65 31.4898 104.854 34.3963 104.854 37.4269C104.854 40.4574 103.65 43.3639 101.507 45.5069L93.4271 53.5869L85.3471 45.5069C84.2859 44.4458 83.4442 43.1861 82.8699 41.7998C82.2956 40.4134 82 38.9275 82 37.4269C82 35.9262 82.2956 34.4403 82.8699 33.0539C83.4442 31.6676 84.2859 30.4079 85.3471 29.3468ZM93.4271 40.6915C94.2929 40.6915 95.1233 40.3476 95.7356 39.7353C96.3478 39.1231 96.6917 38.2927 96.6917 37.4269C96.6917 36.561 96.3478 35.7306 95.7356 35.1184C95.1233 34.5062 94.2929 34.1622 93.4271 34.1622C92.5613 34.1622 91.7309 34.5062 91.1186 35.1184C90.5064 35.7306 90.1624 36.561 90.1624 37.4269C90.1624 38.2927 90.5064 39.1231 91.1186 39.7353C91.7309 40.3476 92.5613 40.6915 93.4271 40.6915Z" fill="#CAF2FE"/>
<path d="M339 119.645L355.787 127.142" stroke="#CAF2FE" stroke-width="3" stroke-linecap="round"/>
<path d="M351.142 115L343.645 131.787" stroke="#CAF2FE" stroke-width="3" stroke-linecap="round"/>
<path d="M96.7773 90.139L92.7534 107.966H100.75L96.7773 90.139Z" fill="#FED79F"/>
<path d="M96.8792 97.0154H96.6245V107.966H96.8792V97.0154Z" fill="#1A1A1A"/>
<path d="M98.6857 103.89L96.6882 106.27L96.8833 106.434L98.8808 104.054L98.6857 103.89Z" fill="#1A1A1A"/>
<path d="M94.8366 102.907L94.6565 103.087L96.6377 105.068L96.8177 104.888L94.8366 102.907Z" fill="#1A1A1A"/>
<path d="M97.6889 99.9292L96.6899 100.874L96.865 101.059L97.864 100.114L97.6889 99.9292Z" fill="#1A1A1A"/>
<path d="M106.696 103.561L104.259 114.358H109.102L106.696 103.561Z" fill="#16DD9A"/>
<path d="M106.758 107.727H106.603V114.359H106.758V107.727Z" fill="#1A1A1A"/>
<path d="M107.851 111.889L106.642 113.33L106.76 113.43L107.969 111.988L107.851 111.889Z" fill="#1A1A1A"/>
<path d="M105.52 111.294L105.411 111.403L106.611 112.602L106.72 112.493L105.52 111.294Z" fill="#1A1A1A"/>
<path d="M107.248 109.491L106.643 110.063L106.749 110.175L107.354 109.603L107.248 109.491Z" fill="#1A1A1A"/>
<path d="M85.1701 100.366L83.166 109.244H87.1488L85.1701 100.366Z" fill="#CCF4FE"/>
<path d="M85.2211 103.791H85.0942V109.245H85.2211V103.791Z" fill="#1A1A1A"/>
<path d="M86.1208 107.215L85.126 108.4L85.2231 108.481L86.218 107.296L86.1208 107.215Z" fill="#1A1A1A"/>
<path d="M84.2035 106.725L84.1138 106.815L85.1005 107.801L85.1902 107.711L84.2035 106.725Z" fill="#1A1A1A"/>
<path d="M85.6238 105.242L85.1262 105.712L85.2134 105.804L85.7109 105.334L85.6238 105.242Z" fill="#1A1A1A"/>
<path d="M132.573 96.2145H141.176C141.326 96.2145 141.476 96.3263 141.476 96.4939V96.8013C141.476 96.941 141.356 97.0807 141.176 97.0807H132.573C132.423 97.0807 132.273 96.969 132.273 96.8013V96.4939C132.273 96.3263 132.423 96.2145 132.573 96.2145Z" fill="#263238"/>
<path d="M141.116 106.721H141.476L141.056 97.0807H140.517L141.116 106.721Z" fill="#407BFF"/>
<path opacity="0.6" d="M141.116 106.721H141.476L141.056 97.0807H140.517L141.116 106.721Z" fill="#8C6239"/>
<path d="M137.639 106.721H137.249L137.699 97.0807H138.208L137.639 106.721Z" fill="#407BFF"/>
<path opacity="0.6" d="M137.639 106.721H137.249L137.699 97.0807H138.208L137.639 106.721Z" fill="#8C6239"/>
<path d="M136.14 106.721H136.5L136.08 97.0807H135.541L136.14 106.721Z" fill="#407BFF"/>
<path opacity="0.6" d="M136.14 106.721H136.5L136.08 97.0807H135.541L136.14 106.721Z" fill="#8C6239"/>
<path d="M132.663 106.721H132.273L132.723 97.0807H133.232L132.663 106.721Z" fill="#407BFF"/>
<path opacity="0.6" d="M132.663 106.721H132.273L132.723 97.0807H133.232L132.663 106.721Z" fill="#8C6239"/>
<g opacity="0.3">
<path opacity="0.3" d="M141.056 97.0807H140.517L140.547 97.4998H141.056V97.0807Z" fill="#407BFF"/>
<path opacity="0.3" d="M137.669 97.4998H138.179L138.209 97.0807H137.699L137.669 97.4998Z" fill="#407BFF"/>
<path opacity="0.3" d="M135.541 97.0807L135.571 97.4998H136.11L136.08 97.0807H135.541Z" fill="#407BFF"/>
<path opacity="0.3" d="M132.693 97.5H133.202L133.232 97.0808H132.723L132.693 97.5Z" fill="#407BFF"/>
</g>
<path d="M135.9 105.324L135.031 105.743L133.682 104.039L134.551 103.619L135.9 105.324Z" fill="#FFB573"/>
<path d="M134.731 105.464L135.63 104.877C135.66 104.849 135.69 104.849 135.72 104.877L136.26 105.519C136.32 105.603 136.29 105.687 136.23 105.743C135.93 105.939 135.78 105.994 135.361 106.246C135.121 106.386 134.491 106.721 134.132 106.861C133.772 107 133.622 106.665 133.742 106.581C134.072 106.358 134.521 105.911 134.641 105.603C134.641 105.547 134.671 105.519 134.731 105.464Z" fill="#263238"/>
<path opacity="0.2" d="M134.551 103.619L133.682 104.039L134.342 104.849L135.181 104.402L134.551 103.619Z" fill="black"/>
<path d="M136.62 93.5879C136.62 93.5879 129.995 93.3923 129.965 95.9909C129.935 99.7073 133.712 104.569 133.712 104.569L135.181 103.647C135.181 103.647 132.603 100.099 132.573 97.2204C134.521 96.7174 139.138 97.0248 139.737 95.5159C140.217 94.2864 139.977 93.5879 139.977 93.5879H136.62Z" fill="#407BFF"/>
<path d="M136.62 93.5879C136.62 93.5879 129.995 93.3923 129.965 95.9909C129.935 99.7073 133.712 104.569 133.712 104.569L135.181 103.647C135.181 103.647 132.603 100.099 132.573 97.2204C134.521 96.7174 139.138 97.0248 139.737 95.5159C140.217 94.2864 139.977 93.5879 139.977 93.5879H136.62Z" fill="black"/>
<path d="M135.571 103.871L133.832 104.877L133.263 104.374L135.211 103.228L135.571 103.871Z" fill="#263238"/>
<path d="M134.552 105.771C134.611 105.715 134.671 105.659 134.731 105.603V105.575C134.731 105.575 134.731 105.575 134.701 105.575C134.671 105.575 134.342 105.575 134.252 105.687C134.222 105.715 134.222 105.743 134.252 105.771C134.252 105.799 134.312 105.827 134.342 105.855C134.432 105.855 134.492 105.827 134.552 105.771ZM134.671 105.631C134.552 105.743 134.432 105.799 134.372 105.799C134.342 105.799 134.312 105.771 134.312 105.743V105.715C134.342 105.659 134.522 105.631 134.671 105.631Z" fill="#407BFF"/>
<path d="M134.731 105.631V105.603C134.731 105.603 134.581 105.38 134.461 105.352C134.431 105.352 134.401 105.352 134.371 105.38C134.341 105.408 134.341 105.436 134.341 105.464C134.371 105.547 134.611 105.631 134.731 105.631ZM134.401 105.38C134.401 105.38 134.431 105.352 134.461 105.38C134.551 105.38 134.641 105.519 134.701 105.575C134.581 105.575 134.431 105.492 134.401 105.436C134.371 105.436 134.371 105.408 134.401 105.38C134.401 105.408 134.401 105.408 134.401 105.38Z" fill="#407BFF"/>
<path d="M134.311 106.358L133.352 106.302L133.202 104.206L134.161 104.234L134.311 106.358Z" fill="#FFB573"/>
<path d="M133.322 106.162L134.401 106.134C134.431 106.134 134.461 106.162 134.461 106.19L134.551 107C134.551 107.084 134.491 107.168 134.401 107.168C134.012 107.168 133.832 107.168 133.352 107.168C133.052 107.168 132.483 107.224 132.093 107.168C131.703 107.112 131.763 106.749 131.913 106.749C132.333 106.721 132.873 106.442 133.142 106.246C133.202 106.162 133.262 106.162 133.322 106.162Z" fill="#263238"/>
<path d="M132.992 106.33C133.082 106.33 133.172 106.302 133.262 106.302L133.292 106.274C133.262 106.246 132.992 106.078 132.872 106.134C132.842 106.134 132.812 106.162 132.812 106.19C132.812 106.218 132.813 106.274 132.842 106.302C132.872 106.302 132.932 106.33 132.992 106.33ZM133.202 106.246C133.022 106.274 132.902 106.274 132.842 106.246C132.813 106.218 132.812 106.19 132.812 106.162C132.812 106.162 132.813 106.134 132.842 106.134C132.902 106.106 133.082 106.19 133.202 106.246Z" fill="#407BFF"/>
<path d="M133.232 106.274C133.262 106.274 133.262 106.274 133.232 106.274C133.262 106.274 133.262 106.274 133.232 106.274C133.262 106.246 133.262 105.994 133.173 105.911C133.143 105.883 133.113 105.883 133.083 105.883C133.053 105.883 133.023 105.911 132.993 105.939C132.993 106.05 133.143 106.218 133.232 106.274ZM133.113 105.911C133.143 105.911 133.143 105.911 133.173 105.939C133.232 105.994 133.232 106.134 133.232 106.218C133.143 106.162 133.053 106.022 133.053 105.939C133.053 105.939 133.053 105.911 133.113 105.911Z" fill="#407BFF"/>
<path opacity="0.2" d="M134.161 104.234L133.202 104.206L133.292 105.408H134.251L134.161 104.234Z" fill="black"/>
<path d="M138.958 93.5879C138.958 93.5879 132.033 94.2027 132.273 96.1586C132.633 98.9529 132.813 105.016 132.813 105.016L134.581 105.072C134.581 105.072 135.331 99.6235 134.941 96.7454C136.74 96.7454 141.116 96.8572 141.536 95.8513C141.896 94.9571 141.776 93.5879 141.776 93.5879H138.958Z" fill="black"/>
<path d="M134.791 105.184L132.662 105.072L132.603 104.206L134.911 104.374L134.791 105.184Z" fill="#263238"/>
<path d="M137.429 87.8876C137.429 88.0553 137.399 88.195 137.369 88.3347C137.339 88.4744 137.339 88.6141 137.309 88.7538C137.249 89.0333 137.189 89.3127 137.129 89.6201C136.979 90.2069 136.769 90.7937 136.47 91.3246C136.38 91.4643 136.29 91.6319 136.17 91.7437C136.05 91.8834 135.87 92.0231 135.72 92.1349C135.39 92.3305 135.001 92.4702 134.611 92.4982C134.251 92.5261 133.922 92.4982 133.562 92.4143C133.412 92.3864 133.232 92.3305 133.082 92.2746C132.992 92.2467 132.932 92.2187 132.842 92.1908C132.752 92.1628 132.692 92.1349 132.603 92.079L132.872 91.4363L133.052 91.4643L133.262 91.4922C133.412 91.4922 133.532 91.5202 133.652 91.5202C133.892 91.5202 134.131 91.4922 134.371 91.4363C134.551 91.3804 134.731 91.2966 134.881 91.1849C134.941 91.129 135.001 91.0731 135.061 90.9893C135.121 90.9054 135.181 90.8216 135.211 90.7098C135.33 90.4863 135.39 90.2627 135.48 90.0392C135.57 89.7877 135.63 89.5642 135.66 89.2847C135.72 89.0333 135.75 88.7818 135.81 88.5023L135.87 88.1111C135.9 87.9714 135.9 87.8597 135.93 87.7479L137.429 87.8876Z" fill="#FFB573"/>
<path d="M137.429 87.1331C136.71 86.4904 135.841 86.8816 135.511 88.0832C135.301 88.7259 135.181 89.3685 135.121 90.0392L137.369 90.4583C137.759 89.3127 138.149 87.7758 137.429 87.1331Z" fill="#F15A24"/>
<path opacity="0.3" d="M136.709 88.4185C136.859 88.2788 137.339 88.8936 137.609 89.6201C137.519 89.8995 137.429 90.1789 137.339 90.4304L135.99 90.1789C136.11 89.4524 136.35 88.7259 136.709 88.4185Z" fill="black"/>
<path d="M132.753 91.157L132.243 90.9893L132.213 91.9952C132.213 91.9952 133.052 92.3306 133.232 91.9394L133.172 91.6879C133.112 91.4364 132.963 91.2687 132.753 91.157Z" fill="#FFB573"/>
<path d="M131.644 90.9893L131.344 91.8276L132.213 91.9673L132.243 90.9614L131.644 90.9893Z" fill="#FFB573"/>
<path d="M132.393 91.66C132.363 91.66 132.363 91.66 132.333 91.632L131.434 90.0113C131.434 89.9834 131.434 89.9555 131.464 89.9275C131.494 89.9275 131.524 89.9275 131.554 89.9555L132.453 91.5761C132.483 91.6041 132.453 91.632 132.393 91.66C132.423 91.66 132.423 91.66 132.393 91.66Z" fill="#263238"/>
<path d="M137.339 86.4905L138.418 86.2111L139.797 86.1552C140.217 86.1272 140.606 86.3787 140.756 86.7699C141.026 87.5244 141.266 88.6141 141.446 89.5363C141.656 90.5981 141.746 92.1629 141.776 93.6159H136.619C136.5 90.626 136.08 88.8656 135.9 87.8597C135.84 87.4685 136.05 87.0773 136.44 86.9096L137.339 86.4905Z" fill="#F15A24"/>
<path opacity="0.3" d="M141.446 89.5361C141.296 88.8096 141.116 87.9714 140.937 87.2728C140.007 87.1331 139.558 89.0052 139.857 89.9553C140.157 90.9053 141.596 90.3185 141.596 90.3185C141.536 90.0391 141.506 89.7597 141.446 89.5361Z" fill="black"/>
<path d="M137.998 84.5623L137.579 85.1491L137.009 85.9595C137.069 86.0153 137.129 86.0992 137.189 86.2109C137.279 86.4065 137.369 86.5463 136.949 86.8257C136.859 86.8816 136.799 86.9933 136.829 87.1051C136.859 87.2448 136.979 87.3566 137.459 87.2728C137.909 87.1889 138.328 86.9654 138.658 86.658C138.808 86.5183 138.778 86.4065 138.628 86.2389C138.178 85.8197 138.028 85.1212 137.998 84.5623Z" fill="#FFB573"/>
<path opacity="0.2" d="M137.159 85.764L137.519 85.1772C137.519 85.2051 137.549 85.2051 137.549 85.233C137.579 85.3169 137.609 85.3728 137.609 85.4566C137.669 85.7081 137.459 86.0713 137.219 86.2669L137.189 86.211C137.159 86.1272 137.099 86.0434 137.039 85.9875L137.159 85.764Z" fill="black"/>
<path d="M137.819 83.5007C138.029 84.3389 138.179 84.8419 137.849 85.3728C137.369 86.1832 136.14 86.0714 135.661 85.289C135.241 84.5904 135.001 83.3051 135.78 82.7462C136.35 82.355 137.159 82.4668 137.609 82.9977C137.699 83.1653 137.789 83.333 137.819 83.5007Z" fill="#FFB573"/>
<path d="M140.576 86.7699C140.666 86.9097 140.756 87.0494 140.846 87.217C140.936 87.3567 140.996 87.4965 141.086 87.6641C141.236 87.9435 141.386 88.2509 141.536 88.5583C141.686 88.8656 141.805 89.173 141.895 89.5083C142.015 89.8436 142.075 90.2069 142.135 90.5702C142.165 90.7937 142.135 90.9893 142.105 91.2128C142.075 91.3526 142.045 91.4923 141.985 91.604C141.895 91.7438 141.805 91.8835 141.686 91.9673C141.566 92.0511 141.446 92.1349 141.296 92.1908C141.176 92.2467 141.056 92.2747 140.936 92.2747C140.726 92.3026 140.516 92.3026 140.277 92.3026C140.097 92.2747 139.887 92.2467 139.707 92.2188C139.527 92.1908 139.347 92.1349 139.167 92.0791C138.838 91.9673 138.478 91.8555 138.178 91.6879L138.448 91.0452C139.078 91.157 139.737 91.2687 140.307 91.2128C140.426 91.2128 140.546 91.1849 140.666 91.157C140.756 91.129 140.816 91.0731 140.816 91.0731C140.816 91.0731 140.816 91.0731 140.816 91.0172C140.816 90.9055 140.816 90.7937 140.786 90.7099C140.726 90.4304 140.666 90.179 140.546 89.9275C140.456 89.648 140.337 89.3686 140.187 89.1171C140.067 88.8377 139.917 88.5583 139.767 88.3068C139.707 88.1671 139.617 88.0274 139.527 87.9156L139.287 87.5244L140.576 86.7699Z" fill="#FFB573"/>
<path d="M140.127 86.1552C139.167 86.0154 138.688 86.7978 139.137 87.9714C139.377 88.6141 139.677 89.2009 140.037 89.7877L142.135 88.9215C141.745 87.7479 141.116 86.2949 140.127 86.1552Z" fill="#F15A24"/>
<path d="M137.879 90.9613L137.429 91.101L138.058 91.9393C138.058 91.9393 139.018 91.6319 138.808 91.2407L138.568 91.101C138.388 90.9892 138.118 90.8775 137.879 90.9613Z" fill="#FFB573"/>
<path d="M137.039 91.6599L137.489 92.079L138.059 91.9114L137.429 91.0731L137.039 91.6599Z" fill="#FFB573"/>
<path d="M140.307 91.5762H141.446C141.476 91.5762 141.506 91.6041 141.506 91.6321V91.7159C141.506 91.7438 141.476 91.7718 141.446 91.7718H140.307C140.277 91.7718 140.247 91.7438 140.247 91.7159V91.6321C140.247 91.6041 140.277 91.5762 140.307 91.5762Z" fill="white"/>
<path d="M137.969 85.1212C137.969 85.1212 138.688 84.255 138.568 83.6962C138.448 83.1373 137.669 83.305 137.669 83.305C138.418 83.5565 138.538 83.7521 138.568 83.6962C138.598 83.6403 138.538 83.277 138.358 82.9417C137.999 82.327 138.059 82.3829 138.059 82.3829C137.969 82.299 137.729 82.2152 137.669 82.1873C137.369 82.1034 137.549 81.9358 137.249 81.7402C137.009 81.6005 136.859 81.824 136.38 81.7961C135.78 81.7681 135.99 81.4328 135.271 81.6005C135.061 81.6563 135.121 81.9358 134.881 82.0755C134.701 82.1593 134.611 82.0755 134.491 82.1593C134.251 82.327 134.192 82.8858 134.491 83.1932C134.761 83.4726 135.241 83.4167 135.511 83.3888C136.35 83.277 136.71 82.7461 137.219 82.9138C137.369 82.9697 137.459 83.0535 137.519 83.1094" fill="#263238"/>
<path d="M138.389 84.1433C138.389 84.3389 138.329 84.5345 138.209 84.6742C138.029 84.8698 137.759 84.7022 137.699 84.4786C137.639 84.2551 137.729 83.9198 137.939 83.8359C138.149 83.7242 138.359 83.8918 138.389 84.1433Z" fill="#FFB573"/>
<path d="M148.64 92.3863H120.702C120.522 92.3863 120.372 92.2466 120.372 92.0789C120.372 91.9113 120.522 91.7716 120.702 91.7716H148.64C148.82 91.7716 148.97 91.9113 148.97 92.0789C149 92.2466 148.85 92.3863 148.64 92.3863Z" fill="#8C6239"/>
<path opacity="0.3" d="M148.64 92.3863H142.105C141.925 92.3863 141.775 92.2466 141.775 92.0789C141.775 91.9113 141.925 91.7716 142.105 91.7716H148.64C148.82 91.7716 148.97 91.9113 148.97 92.0789C149 92.2466 148.85 92.3863 148.64 92.3863Z" fill="#263238"/>
<path d="M148.34 107.14H149L148.25 92.3863H147.351L148.34 107.14Z" fill="#263238"/>
<path opacity="0.1" d="M148.34 107.14H149L148.25 92.3863H147.351L148.34 107.14Z" fill="white"/>
<path d="M142.405 107.14H141.775L142.525 92.3863H143.394L142.405 107.14Z" fill="#263238"/>
<path opacity="0.2" d="M142.405 107.14H141.775L142.525 92.3863H143.394L142.405 107.14Z" fill="white"/>
<path d="M126.937 107.14H127.566L126.847 92.3863H125.948L126.937 107.14Z" fill="#263238"/>
<path opacity="0.1" d="M126.937 107.14H127.566L126.847 92.3863H125.948L126.937 107.14Z" fill="white"/>
<path d="M121.001 107.14H120.342L121.091 92.3863H121.991L121.001 107.14Z" fill="#263238"/>
<path opacity="0.2" d="M121.001 107.14H120.342L121.091 92.3863H121.991L121.001 107.14Z" fill="white"/>
<path d="M142.765 93.1687H121.271V94.3981H142.765V93.1687Z" fill="#263238"/>
<path opacity="0.2" d="M142.765 93.1687H121.271V94.3981H142.765V93.1687Z" fill="white"/>
<path d="M124.808 90.9333C124.718 90.9333 124.658 90.9892 124.658 91.073V91.6319C124.658 91.7157 124.718 91.7716 124.808 91.7716H129.395C129.425 91.7716 129.455 91.7436 129.455 91.7157V90.9612C129.455 90.9333 129.425 90.9053 129.395 90.9053L124.808 90.9333Z" fill="#009245"/>
<path opacity="0.9" d="M127.536 91.0171H129.455V91.6877H127.536C127.476 91.6877 127.446 91.6598 127.446 91.6039V91.1009C127.446 91.045 127.476 91.0171 127.536 91.0171Z" fill="white"/>
<path d="M122.59 90.9333H127.207C127.296 90.9333 127.356 90.9892 127.356 91.073V91.6319C127.356 91.7157 127.296 91.7716 127.207 91.7716H122.59C122.5 91.7716 122.44 91.7157 122.44 91.6319V91.073C122.44 90.9892 122.53 90.9333 122.59 90.9333Z" fill="#407BFF"/>
<path d="M122.59 90.9333H127.207C127.296 90.9333 127.356 90.9892 127.356 91.073V91.6319C127.356 91.7157 127.296 91.7716 127.207 91.7716H122.59C122.5 91.7716 122.44 91.7157 122.44 91.6319V91.073C122.44 90.9892 122.53 90.9333 122.59 90.9333Z" fill="#009245"/>
<path opacity="0.5" d="M124.239 90.9333H124.928C124.958 90.9333 124.988 90.9612 124.988 90.9892V91.7157C124.988 91.7436 124.958 91.7716 124.928 91.7716H124.239C124.209 91.7716 124.179 91.7436 124.179 91.7157V90.9892C124.179 90.9612 124.209 90.9333 124.239 90.9333Z" fill="#006837"/>
<path opacity="0.5" d="M125.258 90.9333H125.947C125.977 90.9333 126.007 90.9612 126.007 90.9892V91.7157C126.007 91.7436 125.977 91.7716 125.947 91.7716H125.258C125.228 91.7716 125.198 91.7436 125.198 91.7157V90.9892C125.198 90.9612 125.228 90.9333 125.258 90.9333Z" fill="#006837"/>
<path d="M123.999 89.8995C123.909 89.8995 123.849 89.9554 123.849 90.0392V90.7937C123.849 90.8775 123.909 90.9334 123.999 90.9334H128.945C128.975 90.9334 129.005 90.9054 129.005 90.8775V89.9274C129.005 89.8995 128.975 89.8716 128.945 89.8716L123.999 89.8995Z" fill="#C1272D"/>
<path opacity="0.9" d="M126.697 89.9833H128.975V90.8495H126.697C126.637 90.8495 126.607 90.8216 126.607 90.7657V90.0671C126.637 90.0392 126.667 89.9833 126.697 89.9833Z" fill="white"/>
<path d="M122.5 89.8995H126.397C126.487 89.8995 126.547 89.9554 126.547 90.0392V90.7937C126.547 90.8775 126.487 90.9334 126.397 90.9334H122.5C122.41 90.9334 122.35 90.8775 122.35 90.7937V90.0392C122.35 89.9833 122.41 89.8995 122.5 89.8995Z" fill="#C1272D"/>
<path opacity="0.6" d="M123.19 90.1229H126.037C126.097 90.1229 126.127 90.1509 126.127 90.2068V90.6539C126.127 90.7097 126.097 90.7377 126.037 90.7377H123.19C123.13 90.7377 123.1 90.7097 123.1 90.6539V90.2068C123.1 90.1509 123.13 90.1229 123.19 90.1229Z" fill="#C69C6D"/>
<path d="M125.438 89.4243C125.348 89.4243 125.288 89.4523 125.288 89.5082V89.8435C125.288 89.8994 125.348 89.9273 125.438 89.9273H130.024C130.054 89.9273 130.084 89.9273 130.084 89.8994V89.4523C130.054 89.4243 130.054 89.4243 130.024 89.4243H125.438Z" fill="#407BFF"/>
<path opacity="0.9" d="M128.136 89.4803H130.054V89.8715H128.136C128.106 89.8715 128.076 89.8436 128.076 89.8157V89.5362C128.076 89.4803 128.106 89.4803 128.136 89.4803Z" fill="white"/>
<path d="M123.19 89.4243H127.866C127.926 89.4243 127.986 89.4802 127.986 89.5361V89.8155C127.986 89.8714 127.926 89.9273 127.866 89.9273H123.19C123.13 89.9273 123.07 89.8714 123.07 89.8155V89.5361C123.07 89.4523 123.13 89.4243 123.19 89.4243Z" fill="#407BFF"/>
<path opacity="0.2" d="M123.19 89.4243H127.866C127.926 89.4243 127.986 89.4802 127.986 89.5361V89.8155C127.986 89.8714 127.926 89.9273 127.866 89.9273H123.19C123.13 89.9273 123.07 89.8714 123.07 89.8155V89.5361C123.07 89.4523 123.13 89.4243 123.19 89.4243Z" fill="black"/>
<path opacity="0.5" d="M123.639 89.4243H123.789C123.789 89.4243 123.819 89.4243 123.819 89.4523V89.8994C123.819 89.8994 123.819 89.9273 123.789 89.9273H123.639C123.639 89.9273 123.609 89.9273 123.609 89.8994L123.639 89.4243C123.609 89.4243 123.609 89.4243 123.639 89.4243Z" fill="#407BFF"/>
<path opacity="0.5" d="M127.446 89.4243H127.596C127.596 89.4243 127.626 89.4243 127.626 89.4523V89.8994C127.626 89.8994 127.626 89.9273 127.596 89.9273H127.446C127.446 89.9273 127.416 89.9273 127.416 89.8994L127.446 89.4243C127.416 89.4243 127.416 89.4243 127.446 89.4243Z" fill="#407BFF"/>
<path d="M124.628 88.7259C124.538 88.7259 124.478 88.7538 124.478 88.8097V89.3685C124.478 89.4244 124.538 89.4524 124.628 89.4524H129.574C129.604 89.4524 129.634 89.4524 129.634 89.4244V88.7538C129.634 88.7259 129.604 88.7259 129.574 88.7259H124.628Z" fill="#4D4D4D"/>
<path opacity="0.9" d="M127.296 88.7538H129.605V89.3685H127.296C127.266 89.3685 127.236 89.3406 127.236 89.3127V88.8097C127.236 88.7817 127.266 88.7538 127.296 88.7538Z" fill="white"/>
<path d="M123.1 88.7259H127.057C127.117 88.7259 127.177 88.7817 127.177 88.8376V89.3406C127.177 89.3965 127.117 89.4524 127.057 89.4524H123.1C123.04 89.4524 122.98 89.3965 122.98 89.3406V88.8376C122.98 88.7538 123.04 88.7259 123.1 88.7259Z" fill="#808080"/>
<path d="M135.66 91.604H131.523C131.463 91.604 131.433 91.6319 131.433 91.6878C131.433 91.7437 131.463 91.7716 131.523 91.7716H135.69C135.75 91.7716 135.78 91.7437 135.78 91.6878C135.75 91.6319 135.72 91.604 135.66 91.604Z" fill="white"/>
<path d="M143.814 91.4362H146.541L146.811 91.7716H143.574L143.814 91.4362Z" fill="#263238"/>
<path d="M148.04 85.7361C148.04 85.9317 147.891 86.0714 147.681 86.0714C147.471 86.0714 147.321 85.9317 147.321 85.7361C147.321 85.5405 147.471 85.4008 147.681 85.4008C147.861 85.3728 148.04 85.5405 148.04 85.7361Z" fill="black"/>
<path d="M145.283 91.6599C145.223 91.6599 145.163 91.604 145.163 91.5481C145.163 91.5202 145.163 91.5202 145.163 91.5202L147.801 85.7081C147.831 85.6522 147.891 85.6243 147.951 85.6522C148.011 85.6802 148.011 85.7361 148.011 85.7919L145.373 91.604C145.373 91.632 145.313 91.6599 145.283 91.6599Z" fill="#263238"/>
<path d="M147.92 85.8477C147.89 85.8477 147.86 85.8477 147.86 85.8198L143.064 82.4666C143.004 82.4387 143.004 82.3549 143.034 82.3269C143.064 82.2711 143.154 82.2711 143.184 82.299L147.98 85.6521C148.04 85.6801 148.04 85.7639 148.01 85.7918C147.98 85.8198 147.95 85.8477 147.92 85.8477Z" fill="#263238"/>
<path d="M148.28 85.7361C148.28 85.9317 148.13 86.0714 147.92 86.0714C147.71 86.0714 147.561 85.9317 147.561 85.7361C147.561 85.5405 147.71 85.4008 147.92 85.4008C148.1 85.3728 148.28 85.5405 148.28 85.7361Z" fill="#263238"/>
<path d="M143.124 82.7182C143.323 82.7182 143.484 82.568 143.484 82.3828C143.484 82.1977 143.323 82.0475 143.124 82.0475C142.925 82.0475 142.764 82.1977 142.764 82.3828C142.764 82.568 142.925 82.7182 143.124 82.7182Z" fill="#263238"/>
<path d="M142.614 83.9477C142.285 84.255 141.775 84.255 141.445 83.9477C141.116 83.6403 141.116 83.1653 141.445 82.8579C141.775 82.5505 142.285 82.5505 142.614 82.8579C142.914 83.1653 142.914 83.6403 142.614 83.9477Z" fill="#407BFF"/>
<path opacity="0.7" d="M142.614 83.9477C142.285 84.255 141.775 84.255 141.445 83.9477C141.116 83.6403 141.116 83.1653 141.445 82.8579C141.775 82.5505 142.285 82.5505 142.614 82.8579C142.914 83.1653 142.914 83.6403 142.614 83.9477Z" fill="white"/>
<path d="M143.124 82.3829C142.435 81.7402 141.326 81.7402 140.636 82.3829L143.124 84.7021C143.814 84.0594 143.814 83.0256 143.124 82.3829Z" fill="#263238"/>
<g opacity="0.2">
<path opacity="0.2" d="M140.636 82.2991L130.144 91.6878H140.906L143.124 84.6462L140.636 82.2991Z" fill="#407BFF"/>
<path opacity="0.7" d="M140.636 82.4108L130.144 91.7716H140.906L143.124 84.7301L140.636 82.4108Z" fill="#FFFF00"/>
</g>
<path fill-rule="evenodd" clip-rule="evenodd" d="M112.004 85.0256L108.094 99.0873H115.764L112.004 85.0256Z" fill="#F7931E"/>
<path d="M111.75 98.7647L112.103 88.0305L112.338 98.7647H111.75Z" fill="black"/>
<path d="M275.458 81.1191L275.363 81.2136C275.363 81.2136 275.394 82.2539 275.426 82.4745C275.458 82.6952 275.584 83.0735 275.489 83.3572C275.394 83.6409 275.363 83.8615 275.394 83.893C275.426 83.9246 275.363 84.0506 275.363 84.0506L275.616 83.893L276.026 82.9474L275.837 81.9387L275.458 81.1191Z" fill="#1D61DA"/>
<path opacity="0.1" d="M275.458 81.1191L275.363 81.2136C275.363 81.2136 275.394 82.2539 275.426 82.4745C275.458 82.6952 275.584 83.0735 275.489 83.3572C275.394 83.6409 275.363 83.8615 275.394 83.893C275.426 83.9246 275.363 84.0506 275.363 84.0506L275.616 83.893L276.026 82.9474L275.837 81.9387L275.458 81.1191Z" fill="black"/>
<path d="M277.132 90.9225C277.132 90.9225 277.132 90.5758 277.069 90.5128C277.006 90.4497 276.911 90.2291 276.785 90.2291C276.658 90.2291 276.216 90.3552 276.216 90.3867C276.22 90.4851 276.198 90.5827 276.153 90.6704C276.09 90.7649 275.742 91.1432 276.09 91.2062C276.205 91.2252 276.323 91.221 276.437 91.1939C276.551 91.1669 276.659 91.1175 276.753 91.0486C276.785 91.0171 276.911 90.9856 276.943 91.0171C276.974 91.0486 277.132 90.9225 277.132 90.9225Z" fill="#1D61DA"/>
<path d="M278.017 90.3552L278.207 90.7019C278.207 90.7019 278.27 91.0172 278.365 91.0487H278.46C278.46 91.0487 278.555 91.3954 278.776 91.3639C278.997 91.3324 279.25 91.2063 279.25 91.1432C279.25 91.0802 279.25 90.8911 279.155 90.828C279.022 90.7197 278.895 90.604 278.776 90.4813L278.618 90.3237L278.017 90.3552Z" fill="#1D61DA"/>
<path d="M275.593 78.8084C275.533 78.8393 275.48 78.8844 275.44 78.9398C275.401 78.9952 275.375 79.0593 275.365 79.1267C275.348 79.3518 275.571 79.5639 275.499 79.7779C275.458 79.8995 275.331 79.9782 275.295 80.1011C275.275 80.1991 275.29 80.3007 275.336 80.3895C275.385 80.5114 275.446 80.6285 275.517 80.7395C275.65 80.9481 275.824 81.1461 275.859 81.3908C275.869 81.4336 275.869 81.4782 275.858 81.5208C275.847 81.5634 275.827 81.6028 275.798 81.6359C275.862 81.5875 275.935 81.5527 276.013 81.5337C276.336 81.426 276.636 81.2593 276.898 81.0421C276.993 80.9753 277.065 80.8804 277.103 80.7707C277.151 80.5771 277.004 80.3833 277.018 80.1843C277.027 80.0569 277.1 79.9445 277.142 79.8238C277.178 79.7037 277.19 79.5775 277.176 79.4528C277.162 79.3281 277.123 79.2074 277.061 79.0981C277.01 78.9924 276.938 78.8981 276.849 78.8211C276.761 78.7441 276.657 78.6858 276.545 78.65C276.373 78.6099 276.193 78.6151 276.023 78.665C275.875 78.6957 275.73 78.7438 275.593 78.8084Z" fill="#2F2E41"/>
<path d="M275.77 80.5563C275.84 80.4274 275.943 80.3194 276.068 80.2437C276.194 80.1681 276.338 80.1275 276.485 80.1262C276.99 80.1262 276.896 80.0947 276.896 80.0947L276.737 80.7251L276.421 81.0404L275.77 80.5563Z" fill="#1D61DA"/>
<path d="M275.9 79.8898C275.9 79.8898 276.185 80.3626 275.995 80.5517C275.805 80.7409 275.9 80.93 275.932 80.9615C275.963 80.9931 276.848 81.0561 276.848 81.0561L276.88 80.6148L276.975 80.2365C276.975 80.2365 276.469 80.1419 276.532 79.9213C276.595 79.7006 275.9 79.8898 275.9 79.8898Z" fill="#FBBEBE"/>
<path opacity="0.1" d="M275.9 79.8898C275.9 79.8898 276.185 80.3626 275.995 80.5517C275.805 80.7409 275.9 80.93 275.932 80.9615C275.963 80.9931 276.848 81.0561 276.848 81.0561L276.88 80.6148L276.975 80.2365C276.975 80.2365 276.469 80.1419 276.532 79.9213C276.595 79.7006 275.9 79.8898 275.9 79.8898Z" fill="black"/>
<path d="M278.112 84.366C278.078 84.4742 278.036 84.5796 277.986 84.6812C277.954 84.7127 277.859 84.4605 277.859 84.4605L277.954 84.2399L278.112 84.366Z" fill="#FBBEBE"/>
<path d="M277.749 82.9317L277.875 83.6567H275.979L276.074 82.9317H277.749Z" fill="#FBBEBE"/>
<path d="M276.248 80.142C276.579 80.142 276.848 79.8739 276.848 79.5431C276.848 79.2123 276.579 78.9442 276.248 78.9442C275.916 78.9442 275.647 79.2123 275.647 79.5431C275.647 79.8739 275.916 80.142 276.248 80.142Z" fill="#FBBEBE"/>
<path d="M276.374 80.7724C276.374 80.7724 276.026 80.804 276.026 80.7409C276.026 80.6779 275.995 80.4887 275.932 80.5203C275.868 80.5518 275.458 80.5833 275.489 80.6779C275.521 80.7724 275.584 80.9616 275.521 80.9616C275.493 80.9671 275.467 80.9782 275.445 80.9941C275.422 81.0099 275.402 81.0303 275.387 81.0538C275.373 81.0774 275.363 81.1038 275.359 81.1313C275.354 81.1588 275.356 81.1868 275.363 81.2138C275.394 81.3714 275.742 82.317 275.742 82.317C275.742 82.317 275.774 82.6323 275.868 82.7268C275.907 82.7764 275.928 82.8374 275.928 82.9002C275.928 82.963 275.907 83.024 275.868 83.0736C275.805 83.1366 276.026 83.1997 276.121 83.3257C276.216 83.4518 276.943 83.3573 276.974 83.3257C277.006 83.2942 277.764 83.2942 277.828 83.2312C277.891 83.1681 277.796 82.979 277.796 82.979C277.796 82.979 277.764 82.6953 277.796 82.6007C277.828 82.5062 277.67 80.9616 277.575 80.867C277.48 80.7724 277.859 80.4887 277.859 80.4887C277.859 80.4887 277.796 80.2366 277.385 80.205C277.385 80.205 277.259 80.0159 277.132 80.0159C277.006 80.0159 276.731 80.1626 276.731 80.1626C276.731 80.1626 276.658 80.5833 276.564 80.6148C276.489 80.6515 276.424 80.7055 276.374 80.7724Z" fill="#1D61DA"/>
<path d="M277.638 80.3942L277.859 80.4888C277.859 80.4888 278.491 82.4431 278.428 82.8214C278.365 83.1997 278.207 84.4921 278.112 84.4921C278.017 84.4921 277.828 84.3029 277.828 84.3029V83.9877C277.828 83.9247 277.733 83.7355 277.796 83.7355C277.859 83.7355 277.954 83.6725 277.891 83.6095C277.828 83.5464 277.765 83.4518 277.828 83.3573C277.891 83.2627 277.923 83.2312 277.891 83.1366C277.859 83.0421 277.796 82.9475 277.859 82.8844C277.923 82.8214 277.701 82.5062 277.701 82.5062L277.354 81.1192L277.417 80.5518L277.638 80.3942Z" fill="#1D61DA"/>
<path d="M277.765 83.3887C277.765 83.3887 276.564 83.2942 276.406 83.2942C276.248 83.2942 275.893 83.1457 275.893 83.1457C275.893 83.1457 274.984 84.0507 275.3 85.5322C275.616 87.0138 275.679 88.8421 275.869 89.3779C275.998 89.76 276.103 90.1495 276.185 90.5443C276.185 90.5443 276.501 89.9769 277.101 90.6073C277.101 90.6073 277.164 90.1345 277.069 89.9453C276.975 89.7562 276.848 88.7475 276.848 88.7475C276.848 88.7475 276.627 87.1399 276.627 86.9507C276.627 86.7616 276.501 85.154 276.532 85.1224C276.564 85.0909 276.722 86.3518 276.753 86.5725C276.785 86.7931 276.88 88.4953 276.975 88.6844C277.069 88.8736 277.512 90.3866 277.765 90.4812C278.018 90.5758 278.871 90.4497 278.839 90.3866C278.808 90.3236 278.586 89.9769 278.523 89.8823L278.27 89.504L277.67 87.4551L277.954 84.9648C277.954 84.9648 278.112 83.3572 277.765 83.3887Z" fill="#2F2E41"/>
<path d="M276.614 79.4643H275.844C275.811 79.4643 275.779 79.4526 275.754 79.4315C275.73 79.4103 275.713 79.381 275.708 79.3488L275.632 78.8653H276.832L276.725 79.374C276.72 79.3995 276.706 79.4224 276.685 79.4389C276.665 79.4553 276.64 79.4643 276.614 79.4643Z" fill="#2F2E41"/>
<path d="M285.183 81.8176H283.612V90.7196H285.183V81.8176Z" fill="#C9F2FF"/>
<path d="M289.372 81.8176H287.801V90.7196H289.372V81.8176Z" fill="#C9F2FF"/>
<path d="M293.561 81.8176H291.99V90.7196H293.561V81.8176Z" fill="#C9F2FF"/>
<path d="M295.656 89.6723H282.041V91.7669H295.656V89.6723Z" fill="#1D65E9"/>
<path d="M281.517 82.3412L288.848 75.5338L296.179 82.3412H281.517Z" fill="#1D65E9"/>
<path d="M288.848 80.7703C289.427 80.7703 289.896 80.3014 289.896 79.723C289.896 79.1446 289.427 78.6757 288.848 78.6757C288.27 78.6757 287.801 79.1446 287.801 79.723C287.801 80.3014 288.27 80.7703 288.848 80.7703Z" fill="#CEF3FE"/>
<path d="M305.081 67.1554V64.3801L307.176 62.8091V60.924L307.699 60.5575V62.1808H308.223V60.2433L308.485 60.0862L304.296 57.6774L300.682 60.0862L302.515 61.1335V62.8091L304.61 64.3801V67.1554H300.421V70.0355H300.944V67.6791H311.417V70.0355H311.941V67.1554H305.081ZM301.677 60.0862L304.348 58.3058L307.49 60.0862L304.819 61.8666L301.677 60.0862ZM302.987 62.5473V61.4477L304.819 62.495L306.652 61.2906V62.5997L304.819 63.9612L302.987 62.5473Z" fill="#666666"/>
<path d="M312.412 69.7736H299.845V89.1486H312.412V69.7736Z" fill="#D4F5FE"/>
<path d="M306.285 81.5557H305.762V89.1486H306.285V81.5557Z" fill="#4D4D4D"/>
<path d="M309.637 89.1486H309.113V81.8176H302.934V89.1486H302.41V81.2939H309.637V89.1486Z" fill="#4D4D4D"/>
<path d="M305.081 84.4357H304.034V86.5303H305.081V84.4357Z" fill="#4D4D4D"/>
<path d="M308.223 84.4357H307.176V86.5303H308.223V84.4357Z" fill="#4D4D4D"/>
<path d="M312.936 89.1487H299.321V91.2432H312.936V89.1487Z" fill="#1D65E9"/>
<path d="M303.615 75.5338H300.84V78.6757H303.615V75.5338Z" fill="#1D65E9"/>
<path d="M307.28 75.5338H304.505V78.6757H307.28V75.5338Z" fill="#1D65E9"/>
<path d="M310.946 75.5338H308.171V78.6757H310.946V75.5338Z" fill="#1D65E9"/>
<path d="M303.615 71.8683H300.84V75.0101H303.615V71.8683Z" fill="#1D65E9"/>
<path d="M307.28 71.8683H304.505V75.0101H307.28V71.8683Z" fill="#1D65E9"/>
<path d="M310.946 71.8683H308.171V75.0101H310.946V71.8683Z" fill="#1D65E9"/>
<path d="M261.095 77.6284L259 87.0541H263.189L261.095 77.6284Z" fill="#D4F5FE"/>
<path d="M261.251 81.294H260.99V87.0541H261.251V81.294Z" fill="#666666"/>
<path d="M262.012 84.8818L260.969 86.1252L261.169 86.2935L262.213 85.0501L262.012 84.8818Z" fill="#666666"/>
<path d="M260.168 84.328L259.983 84.5132L261.02 85.5499L261.205 85.3648L260.168 84.328Z" fill="#666666"/>
<path d="M261.528 82.756L260.996 83.2599L261.176 83.4501L261.708 82.9462L261.528 82.756Z" fill="#666666"/>
<path d="M268.321 92.2905L266.227 101.716H270.416L268.321 92.2905Z" fill="#1D65E7"/>
<path d="M268.373 95.956H268.216V101.716H268.373V95.956Z" fill="#1A1A1A"/>
<path d="M269.31 99.5906L268.264 100.832L268.384 100.934L269.43 99.6918L269.31 99.5906Z" fill="#1A1A1A"/>
<path d="M267.276 99.0826L267.202 99.1566L268.238 100.193L268.312 100.119L267.276 99.0826Z" fill="#1A1A1A"/>
<path d="M268.784 97.4387L268.251 97.9425L268.359 98.0566L268.892 97.5528L268.784 97.4387Z" fill="#1A1A1A"/>
<path d="M320.162 98.5743L318.068 108H322.257L320.162 98.5743Z" fill="#1D65E7"/>
<path d="M320.214 102.24H320.057V108H320.214V102.24Z" fill="#1A1A1A"/>
<path d="M321.15 105.875L320.104 107.117L320.224 107.218L321.27 105.976L321.15 105.875Z" fill="#1A1A1A"/>
<path d="M319.116 105.367L319.042 105.441L320.079 106.478L320.153 106.404L319.116 105.367Z" fill="#1A1A1A"/>
<path d="M320.627 103.724L320.095 104.227L320.203 104.341L320.735 103.838L320.627 103.724Z" fill="#1A1A1A"/>
<path d="M321.209 71.3446L317.073 89.6723H325.294L321.209 71.3446Z" fill="#1D65E7"/>
<path d="M321.314 78.414H321.052V89.6724H321.314V78.414Z" fill="#1A1A1A"/>
<path d="M323.167 85.4823L321.114 87.9291L321.314 88.0974L323.368 85.6506L323.167 85.4823Z" fill="#1A1A1A"/>
<path d="M319.208 84.4729L319.023 84.658L321.06 86.6945L321.245 86.5093L319.208 84.4729Z" fill="#1A1A1A"/>
<path d="M322.144 81.4065L321.117 82.3782L321.297 82.5684L322.324 81.5966L322.144 81.4065Z" fill="#1A1A1A"/>
<path d="M320.202 51L318.015 60.6892H322.361L320.202 51Z" fill="#1D65E7"/>
<path d="M320.257 54.7371H320.119V60.689H320.257V54.7371Z" fill="#1A1A1A"/>
<path d="M321.237 58.474L320.151 59.7675L320.257 59.8565L321.343 58.563L321.237 58.474Z" fill="#1A1A1A"/>
<path d="M319.144 57.9402L319.046 58.0381L320.123 59.1147L320.221 59.0168L319.144 57.9402Z" fill="#1A1A1A"/>
<path d="M320.696 56.3191L320.153 56.8329L320.248 56.9334L320.791 56.4197L320.696 56.3191Z" fill="#1A1A1A"/>
<path d="M274.448 62.4425L270.939 78.152H277.956L274.448 62.4425Z" fill="#1D65E7"/>
<path d="M274.605 67.6789H274.343V78.1519H274.605V67.6789Z" fill="#333333"/>
<path d="M276.264 74.2304L274.345 76.5168L274.546 76.6851L276.464 74.3987L276.264 74.2304Z" fill="#333333"/>
<path d="M272.65 73.2603L272.465 73.4455L274.354 75.3339L274.539 75.1487L272.65 73.2603Z" fill="#333333"/>
<path d="M275.346 70.4474L274.395 71.3471L274.575 71.5373L275.526 70.6375L275.346 70.4474Z" fill="#333333"/>
<path d="M337.181 68.2027L335.086 77.6284H339.276L337.181 68.2027Z" fill="#D4F5FE"/>
<path d="M337.286 72.9156H337.024V77.6284H337.286V72.9156Z" fill="#666666"/>
<path d="M337.885 75.8254L337.043 76.8282L337.244 76.9965L338.086 75.9937L337.885 75.8254Z" fill="#666666"/>
<path d="M336.412 75.3966L336.227 75.5817L337.079 76.4334L337.264 76.2482L336.412 75.3966Z" fill="#666666"/>
<path d="M337.495 74.1167L337.077 74.5126L337.257 74.7028L337.675 74.3069L337.495 74.1167Z" fill="#666666"/>
<path d="M293.037 55.059L290.943 64.4847H295.132L293.037 55.059Z" fill="#D4F5FE"/>
<path d="M293.142 59.772H292.88V64.4848H293.142V59.772Z" fill="#666666"/>
<path d="M293.741 62.6817L292.9 63.6845L293.1 63.8529L293.942 62.8501L293.741 62.6817Z" fill="#666666"/>
<path d="M292.268 62.2529L292.083 62.438L292.935 63.2897L293.12 63.1045L292.268 62.2529Z" fill="#666666"/>
<path d="M293.351 60.9731L292.933 61.369L293.113 61.5593L293.531 61.1633L293.351 60.9731Z" fill="#666666"/>
<path d="M360.285 268.33V309.103C359.912 309.249 359.54 309.42 359.151 309.59V268.914C359.524 268.72 359.912 268.525 360.285 268.33Z" fill="#E67575" fill-opacity="0.39"/>
<path d="M357.047 270.106V310.66C356.674 310.879 356.285 311.098 355.913 311.317V270.787C356.285 270.568 356.658 270.325 357.047 270.106Z" fill="#E67575" fill-opacity="0.39"/>
<path d="M353.808 272.15V312.728C353.484 312.971 353.096 313.239 352.675 313.58V272.953C353.047 272.685 353.42 272.417 353.808 272.15Z" fill="#E67575" fill-opacity="0.39"/>
<path d="M350.57 274.558V315.258C350.198 315.575 349.825 315.915 349.437 316.28V275.507C349.809 275.191 350.181 274.874 350.57 274.558Z" fill="#E67575" fill-opacity="0.39"/>
<path d="M349.437 402.594C350.1 404.833 350.521 407.265 350.57 410.258V411.498C350.521 414.564 350.117 417.58 349.437 420.427V402.594Z" fill="#E67575" fill-opacity="0.39"/>
<path d="M347.331 277.502V318.348C346.959 318.737 346.587 319.175 346.198 319.613V278.743C346.554 278.329 346.943 277.915 347.331 277.502Z" fill="#E67575" fill-opacity="0.39"/>
<path d="M346.198 394.834C346.587 395.661 346.975 396.44 347.331 397.218V426.898C346.975 427.749 346.603 428.552 346.198 429.355V394.834Z" fill="#E67575" fill-opacity="0.39"/>
<path d="M344.093 281.492V322.313C343.705 322.848 343.332 323.408 342.96 323.992V283.194C343.316 282.635 343.705 282.075 344.093 281.492Z" fill="#E67575" fill-opacity="0.39"/>
<path d="M342.96 387.657C343.348 388.606 343.721 389.482 344.093 390.333V432.931C343.721 433.466 343.348 433.977 342.96 434.464V387.657Z" fill="#E67575" fill-opacity="0.39"/>
<path d="M340.855 286.819V327.665C340.466 328.444 340.077 329.247 339.721 330.074V289.13C340.077 288.352 340.466 287.573 340.855 286.819Z" fill="#E67575" fill-opacity="0.39"/>
<path d="M339.721 377.951C340.094 379.313 340.466 380.602 340.855 381.819V436.629C340.515 436.896 340.142 437.164 339.721 437.407V377.951Z" fill="#E67575" fill-opacity="0.39"/>
<path d="M337.616 294.288V336.083C337.147 337.761 336.774 339.464 336.483 341.143V297.548C336.871 296.404 337.244 295.334 337.616 294.288Z" fill="#E67575" fill-opacity="0.39"/>
<path d="M336.483 362.843C336.807 365.13 337.211 367.271 337.616 369.217V438.453C337.26 438.599 336.887 438.745 336.483 438.891V362.843Z" fill="#E67575" fill-opacity="0.39"/>
<path d="M334.378 304.311V439.572C334.022 439.67 333.633 439.791 333.244 439.889V308.13C333.633 306.792 334.022 305.503 334.378 304.311Z" fill="#E67575" fill-opacity="0.39"/>
<path d="M331.139 315.307V440.375C330.767 440.448 330.394 440.545 330.006 440.618V319.151C330.394 317.837 330.783 316.548 331.139 315.307Z" fill="#E67575" fill-opacity="0.39"/>
<path d="M327.901 326.157V441.032C327.529 441.105 327.157 441.178 326.768 441.227V329.879C327.14 328.663 327.513 327.422 327.901 326.157Z" fill="#E67575" fill-opacity="0.39"/>
<path d="M324.662 336.764V441.567C324.29 441.616 323.918 441.689 323.529 441.737V340.462C323.901 339.245 324.274 338.029 324.662 336.764Z" fill="#E67575" fill-opacity="0.39"/>
<path d="M321.424 347.225V442.029C321.101 442.078 320.777 442.102 320.453 442.151C320.404 442.151 320.34 442.175 320.291 442.175V350.825C320.663 349.633 321.036 348.441 321.424 347.225Z" fill="#E67575" fill-opacity="0.39"/>
<path d="M318.186 357.321V442.419C317.798 442.467 317.425 442.492 317.053 442.54V360.727C317.425 359.632 317.798 358.488 318.186 357.321Z" fill="#E67575" fill-opacity="0.39"/>
<path d="M314.947 366.808V442.759C314.575 442.784 314.186 442.832 313.814 442.857V369.898C314.186 368.901 314.559 367.879 314.947 366.808Z" fill="#E67575" fill-opacity="0.39"/>
<path d="M311.709 375.299V443.027C311.337 443.051 310.948 443.076 310.576 443.1V377.975C310.948 377.123 311.337 376.223 311.709 375.299Z" fill="#E67575" fill-opacity="0.39"/>
<path d="M308.471 382.451V443.246C308.098 443.27 307.726 443.294 307.337 443.319V384.592C307.71 383.911 308.098 383.205 308.471 382.451Z" fill="#E67575" fill-opacity="0.39"/>
<path d="M305.233 388.046V443.44C304.86 443.465 304.488 443.465 304.099 443.489V389.603C304.488 389.117 304.86 388.582 305.233 388.046Z" fill="#E67575" fill-opacity="0.39"/>
<path d="M301.994 391.988V443.586C301.832 443.586 301.67 443.611 301.508 443.611C301.298 443.611 301.071 443.635 300.861 443.635V393.009C301.249 392.693 301.622 392.352 301.994 391.988Z" fill="#E67575" fill-opacity="0.39"/>
<path d="M298.756 394.518V443.732C298.367 443.757 297.994 443.757 297.622 443.781V395.296C297.994 395.029 298.367 394.785 298.756 394.518Z" fill="#E67575" fill-opacity="0.39"/>
<path d="M295.517 396.683V443.854C295.129 443.878 294.756 443.878 294.384 443.903V397.437C294.756 397.169 295.129 396.926 295.517 396.683Z" fill="#E67575" fill-opacity="0.39"/>
<path d="M292.278 398.702V443.927C291.89 443.927 291.517 443.951 291.145 443.951V399.383C291.517 399.164 291.89 398.945 292.278 398.702Z" fill="#E67575" fill-opacity="0.39"/>
<path d="M289.04 400.624V444C288.652 444 288.279 444 287.907 444V401.256C288.279 401.062 288.652 400.843 289.04 400.624Z" fill="#E67575" fill-opacity="0.39"/>
<path d="M285.802 402.4V443.976C285.414 443.976 285.041 443.951 284.669 443.951V402.984C285.041 402.813 285.414 402.594 285.802 402.4Z" fill="#E67575" fill-opacity="0.39"/>
<path d="M282.564 404.054V443.878C282.175 443.854 281.803 443.83 281.431 443.805V404.589C281.787 404.419 282.175 404.224 282.564 404.054Z" fill="#E67575" fill-opacity="0.39"/>
<path d="M279.325 405.538V443.611C278.937 443.562 278.564 443.513 278.192 443.465V406.025C278.532 405.879 278.921 405.708 279.325 405.538Z" fill="#E67575" fill-opacity="0.39"/>
<path d="M276.087 406.827V443.1C275.698 443.027 275.326 442.93 274.953 442.832V407.217C275.066 407.192 275.18 407.144 275.277 407.119C275.277 407.119 275.552 407.022 276.087 406.827Z" fill="#E67575" fill-opacity="0.39"/>
<path d="M272.849 407.922V442.175C272.46 442.029 272.088 441.859 271.715 441.713V408.384C272.104 408.19 272.493 408.044 272.849 407.922Z" fill="#E67575" fill-opacity="0.39"/>
<path d="M269.61 409.455V440.546C269.222 440.302 268.849 440.035 268.477 439.743V410.185C268.849 409.917 269.238 409.674 269.61 409.455Z" fill="#E67575" fill-opacity="0.39"/>
<path d="M266.372 411.985V437.845C265.967 437.431 265.579 437.018 265.239 436.604V413.298C265.611 412.812 265.983 412.398 266.372 411.985Z" fill="#E67575" fill-opacity="0.39"/>
<path d="M263.133 416.68V433.588C262.648 432.736 262.291 431.958 262 431.228V419.453C262.421 418.213 262.858 417.264 263.133 416.68Z" fill="#E67575" fill-opacity="0.39"/>
<path d="M340.669 342.19C343.759 328.27 351.456 320.857 360 317V387C346.978 373.328 337.32 357.276 340.669 342.19Z" fill="#CAF2FE"/>
<path d="M307.029 214.822L305 223.951H309.057L307.029 214.822Z" fill="#D4F5FE"/>
<path d="M307.181 218.372H306.928V223.951H307.181V218.372Z" fill="#666666"/>
<path d="M307.922 221.847L306.911 223.052L307.105 223.215L308.116 222.01L307.922 221.847Z" fill="#666666"/>
<path d="M306.13 221.311L305.951 221.49L306.955 222.494L307.135 222.315L306.13 221.311Z" fill="#666666"/>
<path d="M307.451 219.792L306.935 220.28L307.11 220.464L307.625 219.976L307.451 219.792Z" fill="#666666"/>
<path d="M317.071 228.515L315.042 237.644H319.099L317.071 228.515Z" fill="#FF7E92"/>
<path d="M317.121 232.066H316.969V237.644H317.121V232.066Z" fill="#1A1A1A"/>
<path d="M318.025 235.585L317.013 236.788L317.129 236.886L318.142 235.683L318.025 235.585Z" fill="#1A1A1A"/>
<path d="M316.057 235.092L315.985 235.163L316.989 236.168L317.061 236.096L316.057 235.092Z" fill="#1A1A1A"/>
<path d="M317.521 233.505L317.005 233.993L317.11 234.104L317.625 233.616L317.521 233.505Z" fill="#1A1A1A"/>
<path d="M352.572 234.094L350.543 243.223H354.6L352.572 234.094Z" fill="#FF7E92"/>
<path d="M352.623 237.644H352.471V243.223H352.623V237.644Z" fill="#1A1A1A"/>
<path d="M353.527 241.165L352.514 242.367L352.631 242.465L353.643 241.263L353.527 241.165Z" fill="#1A1A1A"/>
<path d="M351.558 240.671L351.487 240.742L352.491 241.746L352.562 241.675L351.558 240.671Z" fill="#1A1A1A"/>
<path d="M353.024 239.084L352.508 239.572L352.612 239.683L353.128 239.195L353.024 239.084Z" fill="#1A1A1A"/>
<path d="M313.368 195.043L309.97 210.258H316.766L313.368 195.043Z" fill="#FF7E92"/>
<path d="M313.52 200.115H313.267V210.258H313.52V200.115Z" fill="#333333"/>
<path d="M315.131 206.46L313.272 208.674L313.466 208.837L315.325 206.623L315.131 206.46Z" fill="#333333"/>
<path d="M311.633 205.52L311.454 205.699L313.283 207.528L313.462 207.349L311.633 205.52Z" fill="#333333"/>
<path d="M314.24 202.799L313.319 203.67L313.493 203.855L314.414 202.983L314.24 202.799Z" fill="#333333"/>
<path d="M351.811 192L349.782 201.129H353.839L351.811 192Z" fill="#D4F5FE"/>
<path d="M351.913 196.564H351.659V201.129H351.913V196.564Z" fill="#666666"/>
<path d="M352.496 199.383L351.681 200.354L351.875 200.517L352.69 199.546L352.496 199.383Z" fill="#666666"/>
<path d="M351.066 198.967L350.886 199.146L351.711 199.971L351.89 199.792L351.066 198.967Z" fill="#666666"/>
<path d="M352.116 197.73L351.711 198.114L351.885 198.298L352.29 197.915L352.116 197.73Z" fill="#666666"/>
<path d="M326.301 201.129H320.722V204.679H326.301V201.129Z" fill="#FF7E92"/>
<path d="M356.223 205.693H350.645V209.243H356.223V205.693Z" fill="#FF7E92"/>
<path d="M348.362 205.947H332.64V215.076H348.362V205.947Z" fill="#CBF3FF"/>
<path d="M352.166 217.358H339.994V212.794H352.166V217.358ZM340.502 216.851H351.659V213.301H340.502V216.851Z" fill="black"/>
<path d="M336.951 218.88H328.836V208.736H336.951V218.88ZM329.343 218.372H336.444V209.244H329.343V218.372Z" fill="black"/>
<path d="M326.301 216.851H320.215V212.794H326.301V216.851ZM320.722 216.344H325.794V213.301H320.722V216.344Z" fill="black"/>
<path d="M343.544 207.722H337.458V203.665H343.544V207.722ZM337.965 207.215H343.037V204.172H337.965V207.215Z" fill="black"/>
<path d="M337.966 213.301C337.56 213.554 337.357 213.96 337.458 214.315C337.56 214.569 337.813 214.721 337.966 214.822C338.067 214.873 338.98 215.329 339.487 214.822C339.893 214.417 339.791 213.707 339.487 213.301C339.132 212.844 338.574 212.794 338.473 212.794" fill="#DAA985"/>
<path d="M337.661 218.88C337.408 220.046 337.154 221.263 336.951 222.43C340.299 222.43 342.023 222.43 342.023 222.43C342.023 222.43 341.516 221.212 340.552 218.88C339.589 218.88 338.625 218.88 337.661 218.88Z" fill="#8C87A3"/>
<path d="M335.43 219.133C335.024 219.133 334.212 218.169 333.198 216.496C333.147 216.394 333.147 216.242 333.299 216.141C333.401 216.09 333.553 216.09 333.654 216.242C334.872 218.271 335.379 218.575 335.48 218.677C335.734 218.626 335.987 218.322 336.241 217.814C336.292 217.713 336.444 217.662 336.596 217.713C336.697 217.764 336.748 217.916 336.697 218.068C336.292 218.727 335.886 219.133 335.43 219.133Z" fill="#DAA985"/>
<path d="M338.168 220.908C338.067 220.908 337.965 220.857 337.965 220.756C337.915 220.604 337.965 220.452 338.117 220.401H338.168C338.422 220.35 340.603 219.843 341.313 218.524C341.515 218.119 341.617 217.662 341.566 217.104C341.566 216.952 341.668 216.851 341.82 216.851C341.972 216.851 342.073 216.952 342.073 217.104C342.124 217.764 342.023 218.322 341.769 218.829C340.958 220.3 338.726 220.857 338.32 220.959C338.219 220.908 338.219 220.908 338.168 220.908Z" fill="#DAA985"/>
<path d="M337.205 215.583C337.104 215.634 335.988 216.039 335.684 217.104C335.582 217.51 335.633 217.865 335.684 218.119C335.836 218.22 336.039 218.423 336.241 218.677C336.394 218.829 336.394 218.93 336.444 218.879C336.647 218.829 336.495 217.51 336.951 217.358C337.104 217.307 337.459 217.358 337.459 217.358V219.387C337.459 219.387 338.219 219.894 338.98 219.894C339.741 219.894 340.502 219.387 340.502 219.387V217.358C340.502 217.358 340.907 217.206 341.009 217.358C341.009 217.358 341.059 217.409 341.009 217.865C341.009 217.865 341.364 217.865 342.023 217.865C342.479 217.257 342.479 216.445 342.023 215.837C341.567 215.228 340.755 215.127 340.248 215.228C340.147 215.279 340.045 215.279 339.994 215.329C339.538 215.532 338.777 215.684 337.205 215.583Z" fill="#B0BDD6"/>
<path d="M338.473 212.286C337.966 212.388 337.56 212.489 337.458 212.794C337.306 213.199 337.611 213.757 337.966 213.808C338.371 213.909 338.777 213.199 338.98 213.301C339.132 213.402 339.081 213.808 338.98 214.315C338.777 215.786 338.676 216.547 338.98 216.851C339.233 217.104 339.741 217.054 339.994 216.851C340.248 216.597 340.045 216.242 339.994 215.329C339.943 214.315 340.146 214.112 339.994 213.301C339.893 212.895 339.842 212.489 339.487 212.286C339.183 212.134 338.878 212.185 338.473 212.286Z" fill="#202D43"/>
<path d="M350.391 220.655H320.469V231.812H350.391V220.655Z" fill="#FF7E92"/>
<path d="M106 56.5C112 56.5 109.5 70.5 121.5 63.5C133.5 56.5 176 78.5 162 104C148 129.5 179.5 132 185 121C190.5 110 170.5 51.5 198 44.5C225.5 37.5 219.5 82.5 238.5 69.5C257.5 56.5 331.5 -7.99999 343.5 56.5C355.5 121 290.5 111 295.5 135C299.5 154.2 333.833 133.5 343 125.5" stroke="#999999" stroke-dasharray="7 7"/>
<path d="M-0.5 375C-0.5 368.297 8.50691 366.891 16.6082 366.891C26.7347 366.891 18.4922 297.764 20.3762 276.817C22.2602 255.869 26.7347 258.802 16.6082 227.8C8.50691 202.998 3.66053 199.933 -0.5 197" stroke="#999999" stroke-dasharray="7 7"/>
<path d="M0.0814025 404.386C12.4546 396.797 26.7 393.246 40.5384 394.134C46.2366 394.577 52.3418 395.465 58.04 396.797C68.2153 399.903 77.1695 404.785 84.4958 412.774C91.008 420.319 94.6711 429.64 96.2991 439.848C98.7412 456.269 94.6711 471.803 86.1238 486.006C85.3098 486.894 84.9028 487.781 84.0888 489.113C63.7381 516.63 27.107 520.181 0 505.401" stroke="#999999" stroke-miterlimit="10" stroke-dasharray="7 7"/>
<path d="M61.3743 435.601H55.4929V439.353H61.3743V435.601Z" fill="#1D61DA"/>
<path d="M32.1468 434.287H26.2654V438.039H32.1468V434.287Z" fill="#1D61DA"/>
<path d="M20.7921 458.162C20.773 458.432 20.7431 458.733 20.6968 459.051L21.5329 458.126L21.5375 458.141C21.4863 457.919 21.404 457.704 21.2929 457.505L21.2983 457.519L20.7921 458.162Z" fill="#1D61DA"/>
<path d="M20.7954 458.114L21.2857 457.492C21.1814 457.302 21.0305 457.142 20.8472 457.026C20.8382 457.021 20.8292 457.016 20.8201 457.011C20.8228 457.084 20.8356 457.516 20.7954 458.114Z" fill="#1D61DA"/>
<path d="M20.3531 460.554C20.3316 460.62 20.3093 460.684 20.2864 460.747L21.5177 460.027L21.5194 460.045C21.5451 459.933 21.5666 459.821 21.5837 459.709L20.3542 460.563L20.3531 460.554Z" fill="#1D61DA"/>
<path d="M20.5247 459.95L21.6336 459.038L21.6368 459.055C21.6407 458.753 21.6088 458.452 21.5417 458.158L20.6897 459.1C20.6449 459.397 20.5899 459.681 20.5247 459.95Z" fill="#1D61DA"/>
<path d="M20.6705 459.082L19.3435 457.606L19.3506 457.589C19.2259 457.764 19.1192 457.951 19.0322 458.148L20.5465 459.756C20.5984 459.521 20.6389 459.294 20.6705 459.082Z" fill="#1D61DA"/>
<path d="M19.0181 458.182C19.0206 458.176 19.0228 458.17 19.0254 458.164L19.0181 458.182Z" fill="#1D61DA"/>
<path d="M18.9444 458.362L18.9373 458.38C18.9395 458.374 18.9422 458.368 18.9445 458.362H18.9444Z" fill="#1D61DA"/>
<path d="M20.5377 459.795L19.0179 458.181C18.9923 458.24 18.9676 458.3 18.9441 458.362L20.4974 459.966C20.5115 459.909 20.525 459.852 20.5377 459.795Z" fill="#1D61DA"/>
<path d="M21.5871 459.688C21.6173 459.485 21.6338 459.28 21.6364 459.074L20.5125 459.999C20.4679 460.178 20.4189 460.351 20.3655 460.516L21.5847 459.67L21.5871 459.688Z" fill="#1D61DA"/>
<path d="M18.7424 459.803L19.9726 461.404C20.0737 461.209 20.163 461.008 20.24 460.802L18.7389 459.23C18.724 459.426 18.7223 459.624 18.7339 459.821L18.7424 459.803Z" fill="#1D61DA"/>
<path d="M20.7981 457.009L20.8091 457.004C20.5397 456.861 20.2481 456.876 19.9685 457.022L20.7742 458.113C20.8176 457.465 20.7984 457.016 20.7981 457.009Z" fill="#1D61DA"/>
<path d="M20.2463 460.854C20.1756 461.039 20.095 461.22 20.0046 461.396L21.2421 460.758L21.2433 460.775C21.3366 460.618 21.4095 460.45 21.4603 460.275C21.48 460.206 21.4979 460.136 21.5141 460.067L20.2681 460.796C20.2609 460.815 20.2537 460.835 20.2463 460.854Z" fill="#1D61DA"/>
<path d="M20.7704 458.162L19.9462 457.045L19.9539 457.029C19.718 457.165 19.5153 457.352 19.3604 457.575L20.6765 459.04C20.722 458.727 20.7515 458.428 20.7704 458.162Z" fill="#1D61DA"/>
<path d="M20.2533 460.766C20.345 460.517 20.4233 460.262 20.4876 460.004L18.9304 458.397C18.8933 458.497 18.8593 458.602 18.8283 458.71C18.7852 458.866 18.7565 459.025 18.7424 459.185L20.2521 460.767L20.2533 460.766Z" fill="#1D61DA"/>
<path d="M21.8527 462.501C21.6655 462.696 21.4494 462.91 21.2109 463.125L22.4463 462.944L22.44 462.959C22.5429 462.755 22.6165 462.538 22.6586 462.313L22.6534 462.328L21.8527 462.501Z" fill="#1D61DA"/>
<path d="M22.6216 461.661C22.6181 461.651 22.6144 461.642 22.6106 461.632C22.5657 461.69 22.2996 462.031 21.8857 462.466L22.6613 462.299C22.7024 462.086 22.6887 461.867 22.6216 461.661Z" fill="#1D61DA"/>
<path d="M19.9847 464.064C19.9263 464.101 19.8681 464.136 19.8101 464.17L21.2189 464.399L21.2087 464.414C21.3001 464.344 21.3882 464.272 21.473 464.196L19.9803 464.071L19.9847 464.064Z" fill="#1D61DA"/>
<path d="M20.5034 463.708L21.9409 463.711L21.9324 463.726C22.1283 463.496 22.2962 463.244 22.4326 462.974L21.1737 463.158C20.9493 463.359 20.7258 463.542 20.5034 463.708Z" fill="#1D61DA"/>
<path d="M20.0188 464.043L21.499 464.167L21.4896 464.182C21.6427 464.045 21.7863 463.897 21.9196 463.741L20.4627 463.738C20.3137 463.848 20.1658 463.949 20.0188 464.043Z" fill="#1D61DA"/>
<path d="M18.2057 464.773C18.2162 464.763 18.2273 464.751 18.2382 464.74C18.5401 464.692 18.835 464.608 19.1167 464.49L19.1569 463.426C19.1688 463.399 19.1804 463.371 19.1917 463.344L19.1489 464.476C19.3513 464.391 19.5485 464.293 19.7392 464.183L19.6017 462.205C19.6123 462.2 19.623 462.194 19.634 462.188L19.7713 464.164H19.7726C20.0029 464.03 20.2258 463.884 20.4404 463.726L20.2907 461.78C20.3013 461.772 20.3119 461.764 20.3225 461.756L20.4722 463.703C20.5196 463.668 20.5664 463.633 20.6124 463.597L20.4889 461.626C20.4995 461.618 20.51 461.609 20.5206 461.6L20.6442 463.572C20.8342 463.425 21.0107 463.275 21.1704 463.132L21.0927 461.151L21.1089 461.142C21.0537 461.157 20.9977 461.174 20.9411 461.192C21.0474 461.071 21.1431 460.941 21.227 460.804L19.9777 461.448C19.8912 461.612 19.7939 461.77 19.6865 461.921C19.6642 461.942 19.6419 461.963 19.6199 461.985L19.6215 462.009C19.6113 462.022 19.6012 462.036 19.5908 462.049L19.5886 462.017C19.5729 462.033 19.5575 462.05 19.5419 462.067C19.7001 461.87 19.839 461.658 19.9565 461.434L18.7353 459.845C18.7436 459.987 18.7576 460.13 18.7755 460.272C18.6621 460.088 18.5244 459.92 18.3661 459.773L18.3757 459.785L18.0935 460.553C18.1589 460.815 18.224 461.111 18.2782 461.427L18.7798 460.305C18.7821 460.323 18.7845 460.34 18.7869 460.358L18.2866 461.477C18.3361 461.773 18.3715 462.06 18.3929 462.336L18.9934 461.395C18.9968 461.408 19.0003 461.422 19.0037 461.435L18.3967 462.386C18.4099 462.571 18.4167 462.75 18.4172 462.923L19.1512 461.957C19.1551 461.97 19.159 461.982 19.1628 461.995L18.4209 462.971L18.4173 462.963C18.4171 463.032 18.4159 463.1 18.4136 463.167L19.2416 462.237C19.246 462.25 19.2501 462.262 19.2539 462.273L18.4115 463.219C18.4106 463.24 18.4099 463.261 18.4088 463.281C18.399 463.479 18.3783 463.676 18.347 463.872L18.4269 463.791C18.4118 463.822 18.397 463.853 18.3827 463.883L18.3372 463.929C18.332 463.959 18.326 463.988 18.3203 464.018C18.3035 464.055 18.2874 464.09 18.2718 464.125C18.2868 464.058 18.3008 463.991 18.3128 463.923L16.6589 462.788C17.0904 463.889 17.9029 464.936 17.955 465.003C17.9972 464.924 18.0356 464.843 18.0708 464.761C18.081 464.76 18.0912 464.759 18.1015 464.758C18.0972 464.768 18.0929 464.778 18.0885 464.788C18.0834 464.788 18.0782 464.789 18.073 464.79C18.077 464.791 18.0818 464.792 18.0862 464.793C18.0614 464.851 18.0357 464.908 18.0081 464.963C18.0442 464.93 18.0992 464.879 18.1649 464.814C18.5538 464.913 19.6015 465.125 20.4986 464.812L19.1241 464.514C18.83 464.638 18.5215 464.725 18.2057 464.773ZM19.1715 463.039L19.2045 463.005L19.2026 463.055L19.1697 463.088L19.1715 463.039Z" fill="#1D61DA"/>
<path d="M22.5945 461.617L22.6061 461.62C22.4905 461.338 22.256 461.164 21.9476 461.098L21.8701 462.452C22.3178 461.98 22.5906 461.622 22.5945 461.617Z" fill="#1D61DA"/>
<path d="M19.7112 464.227C19.5385 464.325 19.3607 464.413 19.1785 464.491L20.5399 464.787L20.5295 464.801C20.7018 464.739 20.8655 464.656 21.0168 464.553C21.076 464.513 21.1341 464.471 21.191 464.428L19.7653 464.196C19.7473 464.207 19.7292 464.217 19.7112 464.227Z" fill="#1D61DA"/>
<path d="M21.2023 463.104C21.4379 462.891 21.6513 462.68 21.8364 462.487L21.9156 461.102L21.9318 461.095C21.663 461.05 21.3876 461.065 21.1252 461.138L21.2023 463.104Z" fill="#1D61DA"/>
<path d="M18.3554 459.763C18.1974 459.615 18.0042 459.509 17.7939 459.455C17.7837 459.453 17.7736 459.451 17.7634 459.449C17.7888 459.518 17.9347 459.925 18.082 460.506L18.3554 459.763Z" fill="#1D61DA"/>
<path d="M18.2631 461.466L16.5435 460.47L16.5451 460.452C16.4807 460.657 16.4373 460.868 16.4155 461.082L18.3539 462.145C18.3306 461.905 18.2987 461.677 18.2631 461.466Z" fill="#1D61DA"/>
<path d="M16.4121 461.119H16.4122C16.4128 461.113 16.4129 461.106 16.4136 461.1L16.4121 461.119Z" fill="#1D61DA"/>
<path d="M16.3981 461.313L16.3967 461.332C16.397 461.326 16.3978 461.32 16.3981 461.313Z" fill="#1D61DA"/>
<path d="M18.358 462.185L16.4125 461.118C16.4063 461.182 16.4016 461.247 16.3984 461.313L18.3726 462.359C18.3683 462.301 18.3634 462.242 18.358 462.185Z" fill="#1D61DA"/>
<path d="M18.3868 463.234L16.4719 462.201C16.5187 462.393 16.5783 462.581 16.6503 462.765L16.6528 462.745L18.3189 463.888C18.3546 463.672 18.3773 463.453 18.3868 463.234Z" fill="#1D61DA"/>
<path d="M17.7412 459.455L17.7501 459.447C17.4494 459.393 17.1768 459.498 16.9561 459.722L18.0606 460.512C17.901 459.883 17.7435 459.461 17.7412 459.455Z" fill="#1D61DA"/>
<path d="M18.0728 460.559L16.9429 459.751L16.9453 459.734C16.7631 459.936 16.6281 460.176 16.55 460.436L18.2556 461.424C18.2018 461.111 18.1375 460.819 18.0728 460.559Z" fill="#1D61DA"/>
<path d="M18.3881 463.196C18.398 462.93 18.3935 462.664 18.3748 462.399L16.3957 461.35C16.3916 461.457 16.3915 461.567 16.3956 461.679C16.4029 461.841 16.4249 462.001 16.4613 462.158L18.3872 463.197L18.3881 463.196Z" fill="#1D61DA"/>
<path d="M79.3327 457.957C79.3135 458.227 79.2836 458.529 79.2373 458.846L80.0734 457.921L80.078 457.936C80.0269 457.714 79.9445 457.5 79.8334 457.3L79.8388 457.314L79.3327 457.957Z" fill="#1D61DA"/>
<path d="M79.3359 457.91L79.8262 457.287C79.7219 457.098 79.571 456.937 79.3877 456.821C79.3787 456.816 79.3697 456.811 79.3606 456.806C79.3633 456.879 79.3762 457.311 79.3359 457.91Z" fill="#1D61DA"/>
<path d="M78.8936 460.35C78.8721 460.415 78.8499 460.479 78.8269 460.543L80.0582 459.822L80.0599 459.84C80.0857 459.728 80.1071 459.616 80.1242 459.504L78.8948 460.358L78.8936 460.35Z" fill="#1D61DA"/>
<path d="M79.0647 459.745L80.1737 458.833L80.1768 458.85C80.1807 458.548 80.1488 458.247 80.0817 457.953L79.2297 458.896C79.1849 459.193 79.1299 459.476 79.0647 459.745Z" fill="#1D61DA"/>
<path d="M79.2105 458.878L77.8836 457.401L77.8906 457.384C77.7659 457.559 77.6592 457.747 77.5723 457.943L79.0865 459.551C79.1384 459.317 79.1789 459.089 79.2105 458.878Z" fill="#1D61DA"/>
<path d="M77.5581 457.977H77.5582C77.5607 457.972 77.5629 457.965 77.5654 457.96L77.5581 457.977Z" fill="#1D61DA"/>
<path d="M79.078 459.591L77.5582 457.977C77.5325 458.035 77.5079 458.096 77.4844 458.158L79.0377 459.761C79.0518 459.704 79.0652 459.647 79.078 459.591Z" fill="#1D61DA"/>
<path d="M77.4847 458.158L77.4775 458.175C77.4798 458.169 77.4825 458.164 77.4848 458.158H77.4847Z" fill="#1D61DA"/>
<path d="M80.1276 459.483C80.1579 459.28 80.1744 459.075 80.177 458.87L79.053 459.795C79.0085 459.974 78.9595 460.146 78.906 460.312L80.1252 459.465L80.1276 459.483Z" fill="#1D61DA"/>
<path d="M77.2827 459.598L78.5129 461.199C78.614 461.004 78.7033 460.803 78.7802 460.598L77.2792 459.025C77.2643 459.222 77.2626 459.419 77.2742 459.616L77.2827 459.598Z" fill="#1D61DA"/>
<path d="M79.3379 456.805L79.3489 456.8C79.0795 456.656 78.7879 456.671 78.5083 456.817L79.314 457.909C79.3574 457.261 79.3382 456.811 79.3379 456.805Z" fill="#1D61DA"/>
<path d="M78.787 460.65C78.7164 460.835 78.6358 461.016 78.5454 461.192L79.7829 460.553L79.7841 460.571C79.8773 460.414 79.9502 460.245 80.0011 460.07C80.0207 460.001 80.0387 459.932 80.0549 459.862L78.8089 460.591C78.8016 460.611 78.7944 460.63 78.787 460.65Z" fill="#1D61DA"/>
<path d="M79.3109 457.957L78.4867 456.84L78.4945 456.824C78.2586 456.96 78.0558 457.147 77.9009 457.371L79.217 458.836C79.2626 458.522 79.2921 458.224 79.3109 457.957Z" fill="#1D61DA"/>
<path d="M78.7938 460.562C78.8856 460.312 78.9638 460.058 79.0281 459.8L77.4709 458.192C77.4339 458.292 77.3998 458.397 77.3688 458.505C77.3258 458.661 77.297 458.82 77.283 458.981L78.7926 460.562H78.7938Z" fill="#1D61DA"/>
<path d="M78.5252 463.86C78.4668 463.896 78.4086 463.932 78.3506 463.966L79.7594 464.194L79.7492 464.209C79.8406 464.139 79.9287 464.067 80.0135 463.992L78.5208 463.867L78.5252 463.86Z" fill="#1D61DA"/>
<path d="M79.0435 463.503L80.4809 463.506L80.4724 463.521C80.6683 463.291 80.8362 463.039 80.9726 462.77L79.7137 462.954C79.4893 463.154 79.2659 463.337 79.0435 463.503Z" fill="#1D61DA"/>
<path d="M78.5591 463.838L80.0393 463.962L80.0298 463.977C80.183 463.84 80.3266 463.693 80.4599 463.536L79.003 463.533C78.854 463.643 78.7061 463.745 78.5591 463.838Z" fill="#1D61DA"/>
<path d="M76.7465 464.569C76.757 464.558 76.7681 464.547 76.779 464.535C77.0808 464.487 77.3758 464.403 77.6574 464.285L77.6977 463.221C77.7096 463.194 77.7212 463.167 77.7325 463.139L77.6897 464.272C77.8921 464.186 78.0892 464.088 78.2799 463.979L78.1425 462C78.1531 461.995 78.1637 461.989 78.1747 461.984L78.312 463.959H78.3134C78.5437 463.826 78.7666 463.679 78.9811 463.522L78.8315 461.575C78.8421 461.567 78.8526 461.559 78.8632 461.552L79.0129 463.498C79.0604 463.463 79.1071 463.428 79.1531 463.392L79.0297 461.422C79.0402 461.413 79.0508 461.404 79.0614 461.396L79.1849 463.368C79.375 463.22 79.5515 463.071 79.7112 462.928L79.6335 460.946L79.6496 460.938C79.5945 460.952 79.5384 460.969 79.4819 460.988C79.5882 460.866 79.6838 460.736 79.7677 460.599L78.5184 461.244C78.432 461.407 78.3347 461.565 78.2273 461.717C78.205 461.738 78.1826 461.759 78.1606 461.781L78.1623 461.804C78.1521 461.818 78.1419 461.831 78.1316 461.844L78.1294 461.812C78.1136 461.828 78.0983 461.846 78.0827 461.862C78.2409 461.665 78.3797 461.453 78.4973 461.23L77.2761 459.64C77.2844 459.783 77.2983 459.926 77.3162 460.067C77.2029 459.883 77.0652 459.716 76.9069 459.568L76.9165 459.581L76.6342 460.348C76.6997 460.61 76.7647 460.907 76.819 461.223L77.3205 460.101C77.3228 460.118 77.3253 460.136 77.3277 460.153L76.8273 461.272C76.8768 461.569 76.9123 461.855 76.9337 462.131L77.5342 461.19C77.5376 461.204 77.541 461.217 77.5445 461.23L76.9375 462.182C76.9507 462.366 76.9575 462.545 76.9579 462.719L77.692 461.753C77.6959 461.765 77.6997 461.778 77.7035 461.79L76.9617 462.766L76.9581 462.759C76.9579 462.828 76.9566 462.896 76.9544 462.963L77.7824 462.033C77.7868 462.046 77.7909 462.058 77.7946 462.068L76.9523 463.014C76.9514 463.035 76.9507 463.056 76.9496 463.077C76.9397 463.274 76.9191 463.471 76.8878 463.667L76.9677 463.586C76.9525 463.617 76.9378 463.648 76.9235 463.679L76.878 463.725C76.8728 463.755 76.8668 463.784 76.8611 463.813C76.8443 463.85 76.8282 463.886 76.8126 463.921C76.8276 463.854 76.8416 463.786 76.8536 463.718L75.1997 462.583C75.6312 463.684 76.4437 464.732 76.4957 464.798C76.538 464.72 76.5763 464.639 76.6116 464.556C76.6218 464.555 76.632 464.554 76.6422 464.553C76.638 464.563 76.6336 464.573 76.6293 464.583C76.6242 464.584 76.6189 464.584 76.6138 464.585C76.6178 464.586 76.6226 464.587 76.627 464.589C76.6022 464.646 76.5764 464.703 76.5489 464.758C76.585 464.726 76.6399 464.674 76.7057 464.609C77.0946 464.708 78.1423 464.92 79.0394 464.607L77.6649 464.309C77.3708 464.433 77.0623 464.521 76.7465 464.569ZM77.7123 462.834L77.7453 462.801L77.7434 462.85L77.7104 462.884L77.7123 462.834Z" fill="#1D61DA"/>
<path d="M78.2514 464.023C78.0788 464.12 77.9009 464.208 77.7188 464.286L79.0801 464.582L79.0697 464.596C79.2419 464.535 79.4057 464.451 79.557 464.349C79.6162 464.308 79.6743 464.266 79.7311 464.223L78.3055 463.992C78.2875 464.002 78.2695 464.013 78.2514 464.023Z" fill="#1D61DA"/>
<path d="M76.8957 459.559C76.7376 459.41 76.5445 459.304 76.3342 459.251C76.324 459.248 76.3138 459.246 76.3037 459.244C76.329 459.314 76.475 459.72 76.6223 460.302L76.8957 459.559Z" fill="#1D61DA"/>
<path d="M76.8029 461.261L75.0833 460.266L75.0849 460.248C75.0205 460.453 74.9771 460.664 74.9553 460.877L76.8937 461.94C76.8704 461.701 76.8385 461.472 76.8029 461.261Z" fill="#1D61DA"/>
<path d="M74.9383 461.109L74.937 461.128C74.9373 461.121 74.9381 461.115 74.9384 461.109H74.9383Z" fill="#1D61DA"/>
<path d="M74.9524 460.914H74.9525C74.9531 460.908 74.9532 460.902 74.9538 460.895L74.9524 460.914Z" fill="#1D61DA"/>
<path d="M76.8978 461.98L74.9523 460.914C74.9461 460.977 74.9414 461.042 74.9382 461.109L76.9124 462.155C76.9081 462.096 76.9032 462.038 76.8978 461.98Z" fill="#1D61DA"/>
<path d="M76.9266 463.03L75.0117 461.997C75.0585 462.188 75.1181 462.377 75.1901 462.56L75.1926 462.54L76.8587 463.684C76.8944 463.467 76.9171 463.249 76.9266 463.03Z" fill="#1D61DA"/>
<path d="M76.2819 459.25L76.2909 459.242C75.9902 459.189 75.7176 459.293 75.4968 459.518L76.6013 460.307C76.4418 459.678 76.2842 459.256 76.2819 459.25Z" fill="#1D61DA"/>
<path d="M76.613 460.354L75.4831 459.547L75.4855 459.529C75.3034 459.731 75.1684 459.971 75.0903 460.232L76.7959 461.219C76.7421 460.907 76.6777 460.614 76.613 460.354Z" fill="#1D61DA"/>
<path d="M76.9289 462.991C76.9388 462.725 76.9343 462.459 76.9155 462.194L74.9365 461.145C74.9323 461.252 74.9323 461.362 74.9364 461.475C74.9437 461.636 74.9657 461.796 75.0021 461.953L76.928 462.992L76.9289 462.991Z" fill="#1D61DA"/>
<path d="M66.883 419.977L67.626 420.447L67.1749 419.629C67.3026 419.527 67.4607 419.471 67.6242 419.469C67.6282 419.469 67.6321 419.469 67.6361 419.469C67.6877 419.47 67.7393 419.466 67.7903 419.458L68.0421 419.617L67.9341 419.421C68.1125 419.359 68.2667 419.243 68.3747 419.088L68.8253 419.373L68.5406 418.857C68.8042 418.541 69.1594 418.347 69.5504 418.347C70.019 418.347 70.4365 418.626 70.706 419.059C70.7857 419.188 70.8983 419.295 71.0325 419.367C71.1667 419.439 71.3176 419.474 71.4699 419.47C71.4783 419.469 71.4867 419.469 71.4951 419.469C72.0125 419.469 72.4319 420.054 72.4319 420.776C72.4319 421.498 72.0125 422.083 71.4951 422.083C71.3813 422.083 71.2694 422.055 71.1688 422.002C70.9927 421.916 70.8001 421.87 70.6043 421.866C70.4085 421.862 70.2142 421.901 70.0349 421.98C69.8834 422.047 69.7192 422.083 69.5531 422.083C69.387 422.084 69.2227 422.049 69.0709 421.982C68.893 421.905 68.7005 421.867 68.5066 421.871C68.3127 421.874 68.1219 421.92 67.947 422.003C67.8474 422.055 67.7366 422.083 67.6242 422.083C67.1068 422.083 66.6874 421.498 66.6874 420.776C66.6843 420.498 66.7516 420.223 66.883 419.977Z" fill="#F2F2F2"/>
<path d="M29.0806 423.816L29.5532 424.115L29.2662 423.595C29.3475 423.53 29.4481 423.494 29.5521 423.493C29.5546 423.493 29.5571 423.493 29.5597 423.493C29.5925 423.493 29.6253 423.491 29.6577 423.486L29.8179 423.587L29.7492 423.462C29.8627 423.423 29.9608 423.349 30.0295 423.25L30.3162 423.432L30.135 423.103C30.2113 423.005 30.3085 422.925 30.4196 422.869C30.5307 422.813 30.6529 422.782 30.7774 422.779C31.0755 422.779 31.3411 422.956 31.5125 423.232C31.5632 423.314 31.6348 423.382 31.7202 423.428C31.8055 423.474 31.9015 423.496 31.9984 423.493C32.0038 423.493 32.0091 423.493 32.0145 423.493C32.3436 423.493 32.6104 423.865 32.6104 424.324C32.6104 424.783 32.3436 425.156 32.0145 425.156C31.9421 425.155 31.8709 425.138 31.8069 425.104C31.6949 425.049 31.5723 425.02 31.4478 425.018C31.3232 425.015 31.1997 425.04 31.0856 425.09C30.9892 425.133 30.8848 425.155 30.7791 425.156C30.6735 425.156 30.5689 425.134 30.4724 425.091C30.3592 425.042 30.2367 425.018 30.1134 425.02C29.99 425.023 29.8686 425.052 29.7574 425.105C29.694 425.138 29.6236 425.155 29.5521 425.156C29.2229 425.156 28.9561 424.783 28.9561 424.324C28.9542 424.147 28.997 423.972 29.0806 423.816Z" fill="#F2F2F2"/>
<path d="M16.3606 425.419L16.8332 425.718L16.5463 425.197C16.6275 425.133 16.7281 425.097 16.8321 425.095C16.8346 425.095 16.8372 425.096 16.8397 425.096C16.8725 425.096 16.9054 425.094 16.9378 425.088L17.0979 425.19L17.0293 425.065C17.1428 425.026 17.2408 424.951 17.3095 424.853L17.5962 425.034L17.4151 424.706C17.4913 424.608 17.5885 424.528 17.6996 424.472C17.8107 424.416 17.9329 424.385 18.0574 424.382C18.3555 424.382 18.6211 424.559 18.7925 424.834C18.8432 424.917 18.9149 424.985 19.0002 425.03C19.0856 425.076 19.1816 425.099 19.2785 425.096C19.2838 425.096 19.2891 425.096 19.2945 425.095C19.6236 425.095 19.8904 425.468 19.8904 425.927C19.8904 426.386 19.6236 426.758 19.2945 426.758C19.2221 426.758 19.1509 426.74 19.0869 426.707C18.9749 426.652 18.8524 426.623 18.7278 426.62C18.6033 426.618 18.4797 426.643 18.3656 426.692C18.2692 426.736 18.1648 426.758 18.0592 426.758C17.9535 426.759 17.849 426.737 17.7524 426.694C17.6392 426.645 17.5168 426.621 17.3934 426.623C17.2701 426.626 17.1487 426.654 17.0375 426.708C16.9741 426.741 16.9036 426.758 16.8321 426.758C16.503 426.758 16.2361 426.386 16.2361 425.927C16.2342 425.75 16.277 425.575 16.3606 425.419Z" fill="#F2F2F2"/>
<path d="M13.2376 456.865L13.155 456.947C13.155 456.947 13.1825 457.853 13.2101 458.045C13.2376 458.237 13.3477 458.567 13.2651 458.814C13.1825 459.061 13.155 459.253 13.1825 459.28C13.2101 459.308 13.155 459.418 13.155 459.418L13.3752 459.28L13.7329 458.457L13.5678 457.579L13.2376 456.865Z" fill="#1D61DA"/>
<path opacity="0.1" d="M13.2376 456.865L13.155 456.947C13.155 456.947 13.1825 457.853 13.2101 458.045C13.2376 458.237 13.3477 458.567 13.2651 458.814C13.1825 459.061 13.155 459.253 13.1825 459.28C13.2101 459.308 13.155 459.418 13.155 459.418L13.3752 459.28L13.7329 458.457L13.5678 457.579L13.2376 456.865Z" fill="black"/>
<path d="M14.6954 465.402C14.6954 465.402 14.6954 465.1 14.6404 465.045C14.5854 464.99 14.5028 464.798 14.3927 464.798C14.2827 464.798 13.8974 464.907 13.8974 464.935C13.9006 465.021 13.8816 465.106 13.8424 465.182C13.7874 465.264 13.4847 465.594 13.7874 465.649C13.888 465.665 13.9909 465.661 14.0901 465.638C14.1893 465.614 14.2829 465.571 14.3652 465.511C14.3928 465.484 14.5028 465.456 14.5303 465.484C14.5579 465.511 14.6954 465.402 14.6954 465.402Z" fill="#1D61DA"/>
<path d="M15.4663 464.907L15.6314 465.209C15.6314 465.209 15.6864 465.484 15.769 465.511H15.8516C15.8516 465.511 15.9341 465.813 16.1267 465.786C16.3193 465.758 16.5395 465.649 16.5395 465.594C16.5395 465.539 16.5395 465.374 16.4569 465.319C16.3412 465.225 16.2309 465.124 16.1267 465.017L15.9891 464.88L15.4663 464.907Z" fill="#1D61DA"/>
<path d="M13.3538 454.853C13.3008 454.88 13.2551 454.919 13.2205 454.967C13.1859 455.015 13.1634 455.071 13.155 455.13C13.1397 455.326 13.3339 455.51 13.2714 455.697C13.2359 455.803 13.1254 455.871 13.0936 455.978C13.0769 456.064 13.0895 456.152 13.1293 456.229C13.1727 456.336 13.2256 456.438 13.2873 456.534C13.4033 456.716 13.5543 456.888 13.5853 457.101C13.5939 457.139 13.5935 457.177 13.5842 457.215C13.5748 457.252 13.5568 457.286 13.5316 457.315C13.5874 457.273 13.6513 457.242 13.7194 457.226C14.0006 457.132 14.2619 456.987 14.4899 456.798C14.5727 456.74 14.635 456.657 14.668 456.561C14.71 456.393 14.5817 456.224 14.594 456.051C14.6019 455.94 14.666 455.842 14.7024 455.737C14.7339 455.632 14.744 455.522 14.7319 455.414C14.7199 455.305 14.6859 455.2 14.6322 455.105C14.5876 455.013 14.5248 454.931 14.4475 454.864C14.3701 454.797 14.2799 454.746 14.1824 454.715C14.0322 454.68 13.8756 454.684 13.7278 454.728C13.5986 454.755 13.4731 454.796 13.3538 454.853Z" fill="#2F2E41"/>
<path d="M13.5093 456.375C13.5699 456.262 13.6596 456.168 13.7691 456.103C13.8786 456.037 14.0038 456.001 14.1316 456C14.5719 456 14.4893 455.973 14.4893 455.973L14.3517 456.522L14.0766 456.796L13.5093 456.375Z" fill="#1D61DA"/>
<path d="M13.6228 455.794C13.6228 455.794 13.8704 456.206 13.7053 456.371C13.5402 456.536 13.6228 456.7 13.6503 456.728C13.6778 456.755 14.4483 456.81 14.4483 456.81L14.4758 456.426L14.5584 456.096C14.5584 456.096 14.1181 456.014 14.1731 455.822C14.2282 455.63 13.6228 455.794 13.6228 455.794Z" fill="#FBBEBE"/>
<path opacity="0.1" d="M13.6228 455.794C13.6228 455.794 13.8704 456.206 13.7053 456.371C13.5402 456.536 13.6228 456.7 13.6503 456.728C13.6778 456.755 14.4483 456.81 14.4483 456.81L14.4758 456.426L14.5584 456.096C14.5584 456.096 14.1181 456.014 14.1731 455.822C14.2282 455.63 13.6228 455.794 13.6228 455.794Z" fill="black"/>
<path d="M15.549 459.692C15.5195 459.786 15.4827 459.878 15.4389 459.967C15.4114 459.994 15.3289 459.774 15.3289 459.774L15.4114 459.582L15.549 459.692Z" fill="#FBBEBE"/>
<path d="M15.2324 458.443L15.3424 459.075H13.6914L13.774 458.443H15.2324Z" fill="#FBBEBE"/>
<path d="M13.9254 456.014C14.2142 456.014 14.4483 455.78 14.4483 455.492C14.4483 455.204 14.2142 454.971 13.9254 454.971C13.6367 454.971 13.4026 455.204 13.4026 455.492C13.4026 455.78 13.6367 456.014 13.9254 456.014Z" fill="#FBBEBE"/>
<path d="M14.0356 456.563C14.0356 456.563 13.7329 456.59 13.7329 456.535C13.7329 456.481 13.7054 456.316 13.6504 456.343C13.5954 456.371 13.2376 456.398 13.2651 456.481C13.2927 456.563 13.3477 456.728 13.2927 456.728C13.2689 456.732 13.2463 456.742 13.2264 456.756C13.2064 456.77 13.1895 456.787 13.1766 456.808C13.1638 456.829 13.1552 456.851 13.1515 456.875C13.1478 456.899 13.149 456.924 13.1551 456.947C13.1826 457.084 13.4853 457.908 13.4853 457.908C13.4853 457.908 13.5128 458.182 13.5954 458.265C13.6289 458.308 13.6472 458.361 13.6472 458.416C13.6472 458.47 13.6289 458.524 13.5954 458.567C13.5403 458.622 13.7329 458.677 13.8155 458.786C13.898 458.896 14.5309 458.814 14.5585 458.786C14.586 458.759 15.2464 458.759 15.3014 458.704C15.3565 458.649 15.2739 458.484 15.2739 458.484C15.2739 458.484 15.2464 458.237 15.2739 458.155C15.3014 458.073 15.1638 456.728 15.0813 456.645C14.9987 456.563 15.329 456.316 15.329 456.316C15.329 456.316 15.2739 456.096 14.9162 456.069C14.9162 456.069 14.8061 455.904 14.696 455.904C14.586 455.904 14.347 456.032 14.347 456.032C14.347 456.032 14.2833 456.398 14.2007 456.426C14.1355 456.458 14.0789 456.505 14.0356 456.563Z" fill="#1D61DA"/>
<path d="M15.1363 456.234L15.329 456.316C15.329 456.316 15.8793 458.018 15.8243 458.347C15.7692 458.677 15.6316 459.802 15.5491 459.802C15.4665 459.802 15.3014 459.637 15.3014 459.637V459.363C15.3014 459.308 15.2189 459.143 15.2739 459.143C15.329 459.143 15.4115 459.088 15.3565 459.033C15.3014 458.978 15.2464 458.896 15.3014 458.814C15.3565 458.731 15.384 458.704 15.3565 458.622C15.329 458.539 15.2739 458.457 15.329 458.402C15.384 458.347 15.1914 458.073 15.1914 458.073L14.8887 456.865L14.9437 456.371L15.1363 456.234Z" fill="#1D61DA"/>
<path d="M15.2464 458.841C15.2464 458.841 14.2008 458.759 14.0632 458.759C13.9256 458.759 13.6169 458.63 13.6169 458.63C13.6169 458.63 12.8249 459.418 13.1001 460.708C13.3752 461.998 13.4303 463.59 13.5954 464.057C13.7076 464.389 13.7995 464.728 13.8706 465.072C13.8706 465.072 14.1457 464.578 14.6686 465.127C14.6686 465.127 14.7236 464.715 14.641 464.551C14.5585 464.386 14.4484 463.508 14.4484 463.508C14.4484 463.508 14.2558 462.108 14.2558 461.943C14.2558 461.778 14.1457 460.378 14.1733 460.351C14.2008 460.323 14.3384 461.421 14.3659 461.614C14.3934 461.806 14.4759 463.288 14.5585 463.453C14.6411 463.617 15.0263 464.935 15.2464 465.017C15.4666 465.1 16.2095 464.99 16.182 464.935C16.1545 464.88 15.9619 464.578 15.9069 464.496L15.6867 464.166L15.1639 462.382L15.4115 460.214C15.4115 460.214 15.5491 458.814 15.2464 458.841Z" fill="#2F2E41"/>
<path d="M14.244 455.424H13.5735C13.5451 455.424 13.5176 455.414 13.4959 455.395C13.4743 455.377 13.46 455.351 13.4556 455.323L13.3889 454.902H14.4346L14.3411 455.345C14.3364 455.367 14.3242 455.387 14.3065 455.402C14.2888 455.416 14.2668 455.424 14.244 455.424Z" fill="#2F2E41"/>
<path d="M68.9863 454.623H70.0442V456.13C69.9053 456.13 69.7677 456.103 69.6394 456.05C69.511 455.997 69.3944 455.919 69.2962 455.821C69.1979 455.723 69.12 455.607 69.0669 455.479C69.0137 455.351 68.9863 455.214 68.9863 455.075V454.623Z" fill="#2F2E41"/>
<path d="M68.3695 463.454L68.2939 463.831H68.8229L68.848 463.454H68.3695Z" fill="#A0616A"/>
<path d="M68.3696 463.756C68.3696 463.756 68.2688 463.68 68.2185 463.731C68.1681 463.781 67.9918 464.761 67.9666 464.786C67.9414 464.811 67.1858 465.188 67.3621 465.213C67.5384 465.238 68.2185 465.263 68.3192 465.213C68.42 465.163 68.697 464.685 68.697 464.685V465.113H68.7474C68.7474 465.113 68.7978 464.66 68.9237 464.535C69.0497 464.409 68.823 463.982 68.823 463.982C68.823 463.982 68.8733 463.706 68.8482 463.706C68.823 463.706 68.3696 463.756 68.3696 463.756Z" fill="#1D61DA"/>
<path d="M69.9308 463.191L69.8552 463.567H70.3842L70.4094 463.191H69.9308Z" fill="#A0616A"/>
<path d="M69.3267 460.741C69.3267 460.741 69.5785 461.495 69.6289 461.57C69.6793 461.645 69.8556 463.052 69.8556 463.052C69.8556 463.052 69.6793 463.329 69.906 463.354C70.1327 463.379 70.0319 463.304 70.183 463.354C70.2241 463.369 70.2682 463.375 70.3119 463.371C70.3556 463.366 70.3977 463.352 70.4349 463.329C70.4349 463.329 70.5105 463.178 70.4601 463.128C70.4097 463.077 70.5105 461.771 70.5105 461.771L70.3594 461.319L70.2334 459.887C70.2334 459.887 70.3845 459.51 70.309 459.409C70.2334 459.309 69.9815 459.485 69.9815 459.485L69.3267 460.741Z" fill="#2F2E41"/>
<path d="M68.9992 458.781C68.9992 458.781 68.9236 459.585 68.8732 459.635C68.8229 459.686 68.2687 461.093 68.2687 461.093C68.2687 461.093 68.1176 461.268 68.168 461.922C68.2184 462.575 68.3443 463.228 68.3443 463.228C68.3443 463.228 68.2436 463.605 68.4199 463.605C68.5962 463.605 68.6717 463.505 68.7473 463.58C68.8229 463.655 68.8733 463.58 68.8984 463.53C68.9236 463.479 69.0244 463.304 69.0244 463.253C69.0244 463.203 69.1251 461.922 69.1251 461.922C69.1251 461.922 69.9563 460.088 70.0319 459.987C70.1074 459.887 70.5356 459.334 70.5105 458.957L68.9992 458.781Z" fill="#2F2E41"/>
<path d="M69.6285 455.389C69.9207 455.389 70.1575 455.153 70.1575 454.862C70.1575 454.57 69.9207 454.334 69.6285 454.334C69.3364 454.334 69.0996 454.57 69.0996 454.862C69.0996 455.153 69.3364 455.389 69.6285 455.389Z" fill="#A0616A"/>
<path d="M69.5283 455.314C69.5283 455.314 69.7298 455.766 69.755 455.892C69.7802 456.017 70.2588 455.64 70.2588 455.64C70.2588 455.64 70.0069 455.213 70.0824 455.012L69.5283 455.314Z" fill="#A0616A"/>
<path d="M70.3342 455.565C70.3342 455.565 69.9564 455.289 69.6793 455.867C69.4022 456.444 69.3267 456.419 69.3267 456.419C69.3267 456.419 68.9992 456.52 69.1 457.223C69.2007 457.927 68.7725 458.856 68.9489 458.907C69.1252 458.957 70.7624 459.233 70.7624 459.032C70.7624 458.831 70.6113 458.052 70.7372 457.575C70.8631 457.098 70.5609 455.439 70.3342 455.565Z" fill="#3F3D56"/>
<path d="M69.9563 455.691C69.9563 455.691 69.654 456.143 69.6792 456.495C69.7044 456.846 69.7044 457.073 69.7044 457.073C69.7044 457.073 69.2007 459.485 69.3014 459.485C69.4022 459.485 69.7044 459.61 69.7296 459.535C69.7548 459.459 70.3845 457.927 70.3845 457.927C70.3845 457.927 70.5356 456.394 70.3593 456.042C70.183 455.691 69.9563 455.691 69.9563 455.691Z" fill="#3F3D56"/>
<path d="M69.3518 459.409C69.3518 459.409 69.0999 460.263 69.4526 460.289C69.8052 460.314 69.6037 459.459 69.6037 459.459L69.3518 459.409Z" fill="#A0616A"/>
<path d="M70.0226 463.372C70.0226 463.372 69.9343 463.306 69.8902 463.35C69.8461 463.394 69.6917 464.252 69.6696 464.274C69.6476 464.296 68.9859 464.626 69.1403 464.648C69.2947 464.67 69.8902 464.692 69.9784 464.648C70.0667 464.604 70.3093 464.186 70.3093 464.186V464.56H70.3534C70.3534 464.56 70.3975 464.164 70.5078 464.054C70.6181 463.944 70.4196 463.57 70.4196 463.57C70.4196 463.57 70.4637 463.328 70.4416 463.328C70.4196 463.328 70.0226 463.372 70.0226 463.372Z" fill="#1D61DA"/>
<path d="M69.3675 454.516C69.3843 454.495 69.4063 454.48 69.4313 454.471C69.4545 454.467 69.4785 454.469 69.5007 454.477C69.6587 454.523 69.7957 454.622 69.8882 454.758C69.9062 454.792 69.9331 454.822 69.9663 454.842C69.9879 454.849 70.0089 454.857 70.0294 454.866C70.0883 454.905 70.0532 454.995 70.0193 455.057C69.9326 455.216 69.8926 455.396 69.9038 455.576C69.9031 455.608 69.9124 455.638 69.9303 455.664C69.9588 455.691 69.9961 455.705 70.035 455.706C70.1572 455.721 70.2804 455.728 70.4036 455.726C70.5241 455.723 70.6579 455.706 70.736 455.615C70.82 455.516 70.8068 455.365 70.7522 455.248C70.6975 455.131 70.6087 455.033 70.5456 454.92C70.4858 454.801 70.4386 454.675 70.4047 454.546C70.361 454.381 70.2907 454.225 70.1965 454.083C70.1489 454.012 70.0872 453.952 70.0153 453.906C69.9433 453.86 69.8627 453.829 69.7783 453.815C69.5495 453.79 69.3385 453.93 69.1545 454.069C68.948 454.224 68.7283 454.416 68.7117 454.673C68.6983 454.882 68.8238 455.07 68.8893 455.269C68.9906 455.575 68.9481 455.908 68.9047 456.227C69.0912 456.116 69.3022 455.961 69.2899 455.745C69.2817 455.598 69.1712 455.482 69.1024 455.353C68.9133 454.997 69.1289 454.759 69.3675 454.516Z" fill="#2F2E41"/>
<path d="M32.1499 432.483L29.4215 435.205L28.1288 433.915L27.6255 434.417L29.4198 436.207L32.6533 432.985L32.1499 432.483Z" fill="#57B894"/>
<path d="M60.8987 433.456L58.1703 436.178L56.8775 434.888L56.3743 435.39L58.1686 437.18L61.402 433.958L60.8987 433.456Z" fill="#57B894"/>
<path d="M60.6685 449.914V445.444H58.162V442.54H56.4654V445.444H53.9589V449.914H52.5707V439.865H49.7557V438.91H46.0152V437.955H42.3133V438.91H38.8043V439.865H35.7579V449.876H34.1383V445.405H31.6318V442.502H29.9351V445.405H27.4287V449.876H25.8091V465.732H29.511V460.115H32.056V465.732H42.0048V459.198H46.3237V465.732H52.3393V465.77H56.0412V460.154H58.5862V465.77H62.2881V449.914H60.6685ZM27.1394 451.824H28.6048V452.971H27.1394V451.824ZM27.1587 455.034H28.6241V456.18H27.1587V455.034ZM28.6433 459.39H27.178V458.243H28.6433V459.39ZM32.4802 449.035H29.0868V448.347H32.4802V449.035ZM32.4802 448.042H29.0868V447.354H32.4802V448.042ZM32.4802 447.048H29.0868V446.361H32.4802V447.048ZM32.9622 451.824H34.4275V452.971H32.9622V451.824ZM32.9815 455.034H34.4468V456.18H32.9815V455.034ZM34.4661 459.39H33.0008V458.243H34.4661V459.39ZM40.4624 457.479H37.7631V456.295H40.4624V457.479ZM40.4624 454.079H37.7631V452.894H40.4624V454.079ZM40.4624 450.678H37.7631V449.494H40.4624V450.678ZM40.4624 447.278H37.7631V446.093H40.4624V447.278ZM40.4624 443.877H37.7631V442.693H40.4624V443.877ZM45.5139 457.479H42.8146V456.295H45.5139V457.479ZM45.5139 454.079H42.8146V452.894H45.5139V454.079ZM45.5139 450.678H42.8146V449.494H45.5139V450.678ZM45.5139 447.278H42.8146V446.093H45.5139V447.278ZM45.5139 443.877H42.8146V442.693H45.5139V443.877ZM50.5655 457.479H47.8662V456.295H50.5655V457.479ZM50.5655 454.079H47.8662V452.894H50.5655V454.079ZM50.5655 450.678H47.8662V449.494H50.5655V450.678ZM50.5655 447.278H47.8662V446.093H50.5655V447.278ZM50.5655 443.877H47.8662V442.693H50.5655V443.877ZM53.6697 451.863H55.135V453.009H53.6697V451.863ZM53.6889 455.072H55.1543V456.218H53.6889V455.072ZM55.1735 459.428H53.7082V458.282H55.1735V459.428ZM59.0104 449.073H55.617V448.386H59.0104V449.073ZM59.0104 448.08H55.617V447.392H59.0104V448.08ZM59.0104 447.087H55.617V446.399H59.0104V447.087ZM59.4924 451.863H60.9577V453.009H59.4924V451.863ZM59.5117 455.072H60.977V456.218H59.5117V455.072ZM60.9963 459.428H59.531V458.282H60.9963V459.428Z" fill="#0091BF"/>
<path d="M5.15302 437.499L2.0979 451.179H8.20814L5.15302 437.499Z" fill="#1D65E7"/>
<path d="M5.29001 442.059H5.06201V451.179H5.29001V442.059Z" fill="#333333"/>
<path d="M6.73471 447.764L5.06372 449.755L5.23836 449.901L6.90935 447.91L6.73471 447.764Z" fill="#333333"/>
<path d="M3.58797 446.919L3.42676 447.08L5.07138 448.725L5.23259 448.564L3.58797 446.919Z" fill="#333333"/>
<path d="M5.93599 444.47L5.10791 445.253L5.26461 445.419L6.09269 444.635L5.93599 444.47Z" fill="#333333"/>
<path d="M79.1601 418.273L72.3203 448.899H85.9999L79.1601 418.273Z" fill="#1D65E7"/>
<path d="M79.4662 428.481H78.9558V448.899H79.4662V428.481Z" fill="#333333"/>
<path d="M82.7005 441.254L78.9595 445.711L79.3505 446.039L83.0915 441.582L82.7005 441.254Z" fill="#333333"/>
<path d="M75.6558 439.362L75.2949 439.723L78.9769 443.405L79.3378 443.044L75.6558 439.362Z" fill="#333333"/>
<path d="M80.911 433.878L79.0571 435.632L79.408 436.003L81.2619 434.249L80.911 433.878Z" fill="#333333"/>
<path d="M55.312 411.964L52.2568 425.643H58.3671L55.312 411.964Z" fill="#1D65E7"/>
<path d="M55.4487 416.523H55.2207V425.643H55.4487V416.523Z" fill="#333333"/>
<path d="M56.8934 422.229L55.2224 424.219L55.3971 424.366L57.068 422.375L56.8934 422.229Z" fill="#333333"/>
<path d="M53.7469 421.384L53.5857 421.545L55.2303 423.189L55.3915 423.028L53.7469 421.384Z" fill="#333333"/>
<path d="M56.0939 418.934L55.2659 419.718L55.4226 419.883L56.2507 419.1L56.0939 418.934Z" fill="#333333"/>
<path d="M66.2554 479.62L64.2947 488.399H68.2162L66.2554 479.62Z" fill="#1D65E7"/>
<path d="M66.3436 482.547H66.1973V488.4H66.3436V482.547Z" fill="#333333"/>
<path d="M67.2704 486.208L66.198 487.486L66.3101 487.58L67.3825 486.302L67.2704 486.208Z" fill="#333333"/>
<path d="M65.2512 485.666L65.1477 485.769L66.2032 486.825L66.3067 486.721L65.2512 485.666Z" fill="#333333"/>
<path d="M66.7575 484.094L66.2261 484.597L66.3266 484.703L66.8581 484.2L66.7575 484.094Z" fill="#333333"/>
<path d="M360.5 185.423C338 179.756 293 177.023 293 211.423C293 245.823 335.667 258.167 360.5 261" stroke="#999999" stroke-dasharray="7 7"/>
<path d="M360.5 253C346.167 257.167 317.2 269.8 316 287C314.5 308.5 332 304 336 320.5C340 337 337.5 344 336 356C334.442 368.463 347.333 375.5 355.5 376.5H360.5" stroke="#999999" stroke-dasharray="7 7"/>
</g>
<defs>
<clipPath id="clip0">
<rect width="360" height="515" fill="white"/>
</clipPath>
</defs>
</svg>
