<svg width="1284" height="257" viewBox="0 0 1284 257" fill="none" xmlns="http://www.w3.org/2000/svg">
<path fill-rule="evenodd" clip-rule="evenodd" d="M0 132.972V124.003C2.37725 55.2229 59.0843 0 128.461 0C199.342 0 257 57.6322 257 128.487C257 199.355 199.336 257 128.461 257C59.0843 257 2.37725 201.771 0 132.972ZM128 237C188.104 237 237 188.11 237 127.987C237 67.8961 188.104 19 128 19C67.8897 19 19 67.8961 19 127.987C19 188.11 67.8897 237 128 237ZM202 92.513C202 81.788 193.206 73.013 182.565 73.013V73C172.368 72.9773 163.859 80.7797 163 90.94V94.06C163.865 104.217 172.371 112.016 182.565 112C193.292 111.936 201.965 103.24 202 92.513ZM148 73H128C117.047 73 108 81.8906 108 92.7612V183H128C138.973 183 148 173.871 148 163V91V73ZM92.9539 162.8C92.9287 162.541 92.9025 162.273 92.9025 161.977C92.0754 151.863 83.6392 144.066 73.5 144C62.7304 144 54 152.726 54 163.49C54 174.229 62.775 183 73.5 183C83.6644 182.954 92.0984 175.132 92.9025 165.004C92.9025 164.744 92.9269 164.5 92.9512 164.257C92.9756 164.013 93 163.77 93 163.51C93 163.272 92.9774 163.04 92.9539 162.8Z" fill="#F73859"/>
<path fill-rule="evenodd" clip-rule="evenodd" d="M310 215.661L311.879 197.575C315.638 198.823 323.154 199.134 324.407 199.134C334.899 199.134 338.971 191.495 338.971 182.14V74.2473H359.015V182.14C359.015 201.473 349.62 218 324.407 218C321.432 218 315.011 216.909 310 215.661ZM439.306 164.366C450.111 164.366 460.134 156.258 460.134 143.785V74.2473H480.178V143.785C480.178 167.796 461.23 183.231 439.306 183.231C417.226 183.231 398.277 167.796 398.277 143.785V74.2473H418.635V143.785C418.635 156.258 428.501 164.366 439.306 164.366ZM577.851 146.903L612.146 74.2473H629.372L642.526 181.672H622.482L614.182 110.107L585.994 169.511H570.021L541.677 110.107L533.22 181.672H513.176L526.487 74.2473H543.399L577.851 146.903ZM720.311 92.0214H696.822V125.699H719.685C730.02 125.699 734.875 116.968 734.875 109.016C734.875 101.22 730.334 92.0214 720.311 92.0214ZM676.777 181.672V74.2473H720.625C744.584 74.2473 754.92 91.5537 754.92 109.016C754.92 126.478 744.584 143.473 720.625 143.473H696.822V181.672H676.777ZM779.774 150.333H799.819C800.289 158.285 806.866 165.457 818.454 165.457C829.259 165.457 835.837 159.844 836.306 152.516C836.776 145.5 831.765 140.667 821.429 137.86L808.119 134.43C784.629 127.726 780.87 113.849 780.87 104.495C780.87 85.629 797.313 73 817.201 73C837.559 73 853.062 85.4731 853.062 105.43H833.018C833.018 96.8548 826.91 91.3978 816.888 91.3978C807.962 91.3978 800.758 96.3871 800.758 104.027C800.758 107.145 802.011 113.538 813.6 116.344L826.91 120.242C851.183 126.946 857.134 140.355 856.351 152.984C855.568 172.317 838.029 183.387 818.454 183.387C795.434 183.387 779.774 168.731 779.774 150.333ZM879.953 92.4892V74.2473H960.914V92.4892H930.534V181.672H910.333V92.4892H879.953ZM1051.85 181.672L1041.99 155.634H1001.74L991.876 181.672H970.579L1010.98 74.2473H1032.59L1072.99 181.672H1051.85ZM1021.79 97.1666L1008.48 138.172H1035.41L1021.79 97.1666ZM1142.17 92.0214H1119.93V125.699H1141.54C1152.19 125.699 1156.73 116.968 1156.73 109.016C1156.73 101.22 1152.19 92.0214 1142.17 92.0214ZM1150.15 142.694L1177.71 181.672H1153.6L1128.23 143.473H1119.93V181.672H1099.88V74.2473H1143.11C1166.91 74.2473 1177.56 91.5537 1177.56 109.016C1177.56 124.296 1169.41 139.731 1150.15 142.694ZM1203.04 92.4892V74.2473H1284V92.4892H1253.62V181.672H1233.42V92.4892H1203.04Z" fill="black"/>
</svg>
